<svg id="svg-map" width="null" height="null" xmlns="http://www.w3.org/2000/svg" style="animation-delay: 0s; animation-direction: normal; animation-duration: 0s; animation-fill-mode: none; animation-iteration-count: 1; animation-name: none; animation-play-state: running; animation-timing-function: ease; background-attachment: scroll; background-blend-mode: normal; background-clip: border-box; background-color: rgba(0, 0, 0, 0); background-image: none; background-origin: padding-box; background-position: 0% 0%; background-repeat: repeat; background-size: auto; border-bottom-color: rgb(255, 255, 255); border-bottom-left-radius: 0px; border-bottom-right-radius: 0px; border-bottom-style: none; border-bottom-width: 0px; border-collapse: separate; border-image-outset: 0px; border-image-repeat: stretch; border-image-slice: 100%; border-image-source: none; border-image-width: 1; border-left-color: rgb(255, 255, 255); border-left-style: none; border-left-width: 0px; border-right-color: rgb(255, 255, 255); border-right-style: none; border-right-width: 0px; border-top-color: rgb(255, 255, 255); border-top-left-radius: 0px; border-top-right-radius: 0px; border-top-style: none; border-top-width: 0px; bottom: auto; box-shadow: none; box-sizing: border-box; break-after: auto; break-before: auto; break-inside: auto; caption-side: top; clear: none; clip: auto; color: rgb(255, 255, 255); content: ; cursor: auto; direction: ltr; display: inline; empty-cells: show; float: none; font-family: &quot;Open Sans&quot;, sans-serif; font-kerning: auto; font-size: 13px; font-stretch: normal; font-style: normal; font-variant: normal; font-variant-ligatures: normal; font-variant-caps: normal; font-variant-numeric: normal; font-weight: normal; height: 303.953px; image-rendering: auto; isolation: auto; left: auto; letter-spacing: normal; line-height: 18.5714px; list-style-image: none; list-style-position: outside; list-style-type: disc; margin-bottom: 0px; margin-left: 0px; margin-right: 0px; margin-top: 0px; max-height: 400px; max-width: none; min-height: 0px; min-width: 0px; mix-blend-mode: normal; motion-offset: 0px; motion-path: none; motion-rotation: auto 0deg; object-fit: fill; object-position: 50% 50%; opacity: 1; orphans: 2; outline-color: rgb(255, 255, 255); outline-offset: 0px; outline-style: none; outline-width: 0px; overflow-wrap: normal; overflow-x: hidden; overflow-y: hidden; padding-bottom: 0px; padding-left: 0px; padding-right: 0px; padding-top: 0px; pointer-events: auto; position: static; resize: none; right: auto; speak: normal; table-layout: auto; tab-size: 8; text-align: center; text-align-last: auto; text-decoration: none; text-indent: 0px; text-rendering: auto; text-shadow: none; text-size-adjust: 100%; text-overflow: clip; text-transform: none; top: auto; touch-action: auto; transition-delay: 0s; transition-duration: 0s; transition-property: all; transition-timing-function: ease; unicode-bidi: normal; vertical-align: baseline; visibility: visible; white-space: normal; widows: 2; width: 617.5px; will-change: auto; word-break: normal; word-spacing: 0px; word-wrap: normal; z-index: auto; zoom: 1; -webkit-appearance: none; backface-visibility: visible; -webkit-background-clip: border-box; -webkit-background-origin: padding-box; -webkit-border-horizontal-spacing: 0px; -webkit-border-image: none; -webkit-border-vertical-spacing: 0px; -webkit-box-align: stretch; -webkit-box-decoration-break: slice; -webkit-box-direction: normal; -webkit-box-flex: 0; -webkit-box-flex-group: 1; -webkit-box-lines: single; -webkit-box-ordinal-group: 1; -webkit-box-orient: horizontal; -webkit-box-pack: start; -webkit-box-reflect: none; -webkit-clip-path: none; column-count: auto; column-gap: normal; column-rule-color: rgb(255, 255, 255); column-rule-style: none; column-rule-width: 0px; column-span: none; column-width: auto; align-content: stretch; align-items: stretch; align-self: stretch; flex-basis: auto; flex-grow: 0; flex-shrink: 1; flex-direction: row; flex-wrap: nowrap; justify-content: flex-start; -webkit-font-smoothing: auto; -webkit-highlight: none; -webkit-hyphenate-character: auto; -webkit-line-break: auto; -webkit-line-clamp: none; -webkit-locale: &quot;en&quot;; -webkit-margin-before-collapse: collapse; -webkit-margin-after-collapse: collapse; -webkit-mask-box-image: none; -webkit-mask-box-image-outset: 0px; -webkit-mask-box-image-repeat: stretch; -webkit-mask-box-image-slice: 0 fill; -webkit-mask-box-image-source: none; -webkit-mask-box-image-width: auto; -webkit-mask-clip: border-box; -webkit-mask-composite: source-over; -webkit-mask-image: none; -webkit-mask-origin: border-box; -webkit-mask-position: 0% 0%; -webkit-mask-repeat: repeat; -webkit-mask-size: auto; order: 0; perspective: none; perspective-origin: 308.75px 151.969px; -webkit-print-color-adjust: economy; -webkit-rtl-ordering: logical; shape-outside: none; shape-image-threshold: 0; shape-margin: 0px; -webkit-tap-highlight-color: rgba(0, 0, 0, 0); -webkit-text-combine: none; -webkit-text-decorations-in-effect: none; -webkit-text-emphasis-color: rgb(255, 255, 255); -webkit-text-emphasis-position: over; -webkit-text-emphasis-style: none; -webkit-text-fill-color: rgb(255, 255, 255); -webkit-text-orientation: vertical-right; -webkit-text-security: none; -webkit-text-stroke-color: rgb(255, 255, 255); -webkit-text-stroke-width: 0px; transform: none; transform-origin: 308.75px 151.969px; transform-style: flat; -webkit-user-drag: auto; -webkit-user-modify: read-only; user-select: text; -webkit-writing-mode: horizontal-tb; -webkit-app-region: no-drag; buffered-rendering: auto; clip-path: none; clip-rule: nonzero; mask: none; filter: none; flood-color: rgb(0, 0, 0); flood-opacity: 1; lighting-color: rgb(255, 255, 255); stop-color: rgb(0, 0, 0); stop-opacity: 1; color-interpolation: sRGB; color-interpolation-filters: linearRGB; color-rendering: auto; fill: rgb(0, 0, 0); fill-opacity: 1; fill-rule: nonzero; marker-end: none; marker-mid: none; marker-start: none; mask-type: luminance; shape-rendering: auto; stroke: none; stroke-dasharray: none; stroke-dashoffset: 0px; stroke-linecap: butt; stroke-linejoin: miter; stroke-miterlimit: 4; stroke-opacity: 1; stroke-width: 1px; alignment-baseline: auto; baseline-shift: 0px; dominant-baseline: auto; text-anchor: start; writing-mode: horizontal-tb; vector-effect: none; paint-order: fill stroke markers; d: none; cx: 0px; cy: 0px; x: 0px; y: 0px; r: 0px; rx: auto; ry: auto;" version="1.1" xmlns:xlink="http://www.w3.org/1999/xlink"><style type="text/css">svg:not(:root) { overflow: hidden; }
* { box-sizing: border-box; }
* { font-size: 13px; }
svg { max-height: 100vh; border: none !important; }
#svg-map svg { max-height: 400px; }
#svg-map svg path { fill: rgb(153, 196, 176); stroke: rgb(51, 51, 51); stroke-width: 1; }
#svg-map svg path.svg-range1 { fill: rgb(194, 223, 115); }
#svg-map svg path.svg-range2 { fill: rgb(160, 189, 83); }
#svg-map svg path.svg-range3 { fill: rgb(189, 170, 83); }
#svg-map svg path.svg-range5 { fill: rgb(175, 96, 68); }</style><svg xmlns="http://www.w3.org/2000/svg" xmlns:inkscape="http://www.inkscape.org/namespaces/inkscape" xmlns:xlink="http://www.w3.org/1999/xlink" viewBox="0 0 1097 540" version="1.1">
<!-- svg generated using QGIS www.qgis.org -->
<g id="3273010_id2012__3273010004" inkscape:groupmode="layer" inkscape:label="3273010_id2012__3273010004">
<g stroke="rgb(0,0,0)" fill="rgb(154,97,141)" stroke-linejoin="round" stroke-width="0.26">
<g id="3273010_id2012__3273010004_1">
<path d="M 578,408 L 579,408 L 580,409 L 580,410 L 580,411 L 579,412 L 578,413 L 578,416 L 575,420 L 574,422 L 575,423 L 577,423 L 577,424 L 578,425 L 578,426 L 578,428 L 578,431 L 580,434 L 579,435 L 578,436 L 577,437 L 576,439 L 576,441 L 576,443 L 578,443 L 580,444 L 580,445 L 580,446 L 581,446 L 580,449 L 579,451 L 579,452 L 580,453 L 582,453 L 583,453 L 583,454 L 582,455 L 582,456 L 581,461 L 580,461 L 579,463 L 579,464 L 579,465 L 579,466 L 579,468 L 580,469 L 580,470 L 580,471 L 580,472 L 580,473 L 581,474 L 582,475 L 583,476 L 583,477 L 583,478 L 584,478 L 585,479 L 586,479 L 589,480 L 591,480 L 592,480 L 593,481 L 593,482 L 593,483 L 593,484 L 593,485 L 594,486 L 594,487 L 593,489 L 593,491 L 593,492 L 593,493 L 593,494 L 592,495 L 592,496 L 592,497 L 591,498 L 591,499 L 590,502 L 590,504 L 589,505 L 589,506 L 588,507 L 588,508 L 588,509 L 588,510 L 588,511 L 587,512 L 586,513 L 586,514 L 586,515 L 586,516 L 587,518 L 587,519 L 587,521 L 586,522 L 586,523 L 575,517 L 567,513 L 558,508 L 556,506 L 554,505 L 549,502 L 545,500 L 542,497 L 541,497 L 541,496 L 538,494 L 533,490 L 529,485 L 524,481 L 518,475 L 515,473 L 515,472 L 513,469 L 512,469 L 510,466 L 508,465 L 507,462 L 505,459 L 503,457 L 500,452 L 496,448 L 491,441 L 489,438 L 488,436 L 486,434 L 485,432 L 484,431 L 483,429 L 481,426 L 484,424 L 488,422 L 489,421 L 490,421 L 494,418 L 494,417 L 495,417 L 496,416 L 497,415 L 498,415 L 499,414 L 501,413 L 503,411 L 505,409 L 506,407 L 507,405 L 507,403 L 508,402 L 508,401 L 509,399 L 513,401 L 517,403 L 519,404 L 521,405 L 523,406 L 524,406 L 525,407 L 527,408 L 528,408 L 529,409 L 531,410 L 533,410 L 534,411 L 535,411 L 536,412 L 537,412 L 538,413 L 539,414 L 540,414 L 542,415 L 543,415 L 544,416 L 548,417 L 550,417 L 551,417 L 552,418 L 553,416 L 556,417 L 559,418 L 561,420 L 564,421 L 564,420 L 566,417 L 567,415 L 568,413 L 569,410 L 571,406 L 572,406 L 573,407 L 575,407 L 576,408 L 578,408 " class="svg-range2" data-original-title="&lt;b&gt;CIGONDEWAH RAHAYU&lt;/b&gt;&lt;br /&gt;338" title=""/>
</g>
</g>
</g>
<g id="3273010_id2012__3273010005" inkscape:groupmode="layer" inkscape:label="3273010_id2012__3273010005">
<g stroke="rgb(0,0,0)" fill="rgb(105,128,164)" stroke-linejoin="round" stroke-width="0.26">
<g id="3273010_id2012__3273010005_1">
<path d="M 681,180 L 680,181 L 680,184 L 679,192 L 678,195 L 678,197 L 677,200 L 676,203 L 674,207 L 674,209 L 673,211 L 672,213 L 671,216 L 669,220 L 669,223 L 668,223 L 668,224 L 667,227 L 666,229 L 664,236 L 661,241 L 657,248 L 654,254 L 653,256 L 653,257 L 653,258 L 653,260 L 652,263 L 652,265 L 652,266 L 648,270 L 646,273 L 644,279 L 643,282 L 642,284 L 641,288 L 640,290 L 640,291 L 640,292 L 640,293 L 640,294 L 639,296 L 639,297 L 639,298 L 638,299 L 638,300 L 638,301 L 637,302 L 637,303 L 637,304 L 636,305 L 636,306 L 636,307 L 635,310 L 634,311 L 633,312 L 633,313 L 631,315 L 630,316 L 628,318 L 628,319 L 627,321 L 627,322 L 626,322 L 626,323 L 625,325 L 625,326 L 624,327 L 624,328 L 624,330 L 624,331 L 623,332 L 623,333 L 622,335 L 622,336 L 620,338 L 620,340 L 618,342 L 617,344 L 616,345 L 615,346 L 615,347 L 614,348 L 613,349 L 612,351 L 611,352 L 611,353 L 610,354 L 610,355 L 609,355 L 609,356 L 608,357 L 608,358 L 606,360 L 605,361 L 605,362 L 604,364 L 603,365 L 602,367 L 600,369 L 599,370 L 599,371 L 598,373 L 598,374 L 598,375 L 597,375 L 597,376 L 597,377 L 592,386 L 592,387 L 591,388 L 591,389 L 590,390 L 590,391 L 589,391 L 587,390 L 583,388 L 584,381 L 585,377 L 585,376 L 585,375 L 586,374 L 587,373 L 588,372 L 589,370 L 590,370 L 590,369 L 591,366 L 591,365 L 591,364 L 591,363 L 592,362 L 592,361 L 593,360 L 592,359 L 592,358 L 593,355 L 594,354 L 594,353 L 594,352 L 595,351 L 596,350 L 599,350 L 600,347 L 601,344 L 602,342 L 603,341 L 603,338 L 601,338 L 594,336 L 595,330 L 596,327 L 598,325 L 599,323 L 598,322 L 600,319 L 602,314 L 598,312 L 600,310 L 603,304 L 605,301 L 609,294 L 610,293 L 612,292 L 613,292 L 614,292 L 615,292 L 615,291 L 616,291 L 616,289 L 616,288 L 616,287 L 616,286 L 615,285 L 615,284 L 614,283 L 613,282 L 612,282 L 612,280 L 612,279 L 612,278 L 613,277 L 613,276 L 612,276 L 612,275 L 613,275 L 614,275 L 614,274 L 615,273 L 615,272 L 616,272 L 616,271 L 617,269 L 617,268 L 617,267 L 617,265 L 619,264 L 620,262 L 620,261 L 619,258 L 621,257 L 622,255 L 622,254 L 625,252 L 627,247 L 627,246 L 626,245 L 625,243 L 628,238 L 628,236 L 626,233 L 625,232 L 622,232 L 618,231 L 613,229 L 613,231 L 609,230 L 608,229 L 605,229 L 606,228 L 604,227 L 604,228 L 601,227 L 600,227 L 598,226 L 596,226 L 594,226 L 593,226 L 590,225 L 589,224 L 586,223 L 585,226 L 585,225 L 584,227 L 582,228 L 581,228 L 581,229 L 581,230 L 580,230 L 575,229 L 575,227 L 574,225 L 570,224 L 571,222 L 571,221 L 571,220 L 571,218 L 571,215 L 571,214 L 570,211 L 570,209 L 571,206 L 573,206 L 576,207 L 582,210 L 584,210 L 585,211 L 589,206 L 589,205 L 590,204 L 596,206 L 596,205 L 598,205 L 599,203 L 601,203 L 603,202 L 606,202 L 608,202 L 615,203 L 617,203 L 619,204 L 621,204 L 624,205 L 624,206 L 625,207 L 626,207 L 627,207 L 628,208 L 628,207 L 631,208 L 632,205 L 635,205 L 636,202 L 636,199 L 638,196 L 640,195 L 641,191 L 642,189 L 642,188 L 643,187 L 643,186 L 644,184 L 644,182 L 643,181 L 644,179 L 644,178 L 644,177 L 644,175 L 646,175 L 647,175 L 648,175 L 649,175 L 651,176 L 654,176 L 655,176 L 656,177 L 657,177 L 658,177 L 659,177 L 661,177 L 661,178 L 662,177 L 663,176 L 665,177 L 666,177 L 667,177 L 668,177 L 669,177 L 670,178 L 671,178 L 672,178 L 673,179 L 674,179 L 677,179 L 679,180 L 680,180 L 681,180 " class="svg-range1" data-original-title="&lt;b&gt;CARINGIN&lt;/b&gt;&lt;br /&gt;69" title=""/>
</g>
</g>
</g>
<g id="3273010_id2012__3273010006" inkscape:groupmode="layer" inkscape:label="3273010_id2012__3273010006">
<g stroke="rgb(0,0,0)" fill="rgb(188,152,33)" stroke-linejoin="round" stroke-width="0.26">
<g id="3273010_id2012__3273010006_1">
<path d="M 701,97 L 705,97 L 706,97 L 708,97 L 710,98 L 714,98 L 716,99 L 717,99 L 726,100 L 743,102 L 748,102 L 749,102 L 749,103 L 752,103 L 752,104 L 752,105 L 750,122 L 750,125 L 750,126 L 749,133 L 749,134 L 749,135 L 749,141 L 749,143 L 749,144 L 749,145 L 749,146 L 750,147 L 750,148 L 751,154 L 752,159 L 753,160 L 753,162 L 754,162 L 754,163 L 754,165 L 755,165 L 755,166 L 755,167 L 756,168 L 756,169 L 755,170 L 754,171 L 753,171 L 752,172 L 751,172 L 750,171 L 746,171 L 746,170 L 741,170 L 740,172 L 740,173 L 740,174 L 738,178 L 737,179 L 737,180 L 736,181 L 736,182 L 735,182 L 735,183 L 734,184 L 733,185 L 732,185 L 731,184 L 729,184 L 729,185 L 728,187 L 725,192 L 725,193 L 724,195 L 723,196 L 722,196 L 721,198 L 721,199 L 720,202 L 718,202 L 717,201 L 715,201 L 712,200 L 711,199 L 710,199 L 709,201 L 708,204 L 705,211 L 705,212 L 704,214 L 701,217 L 699,220 L 698,221 L 698,222 L 694,228 L 693,229 L 693,230 L 692,231 L 692,232 L 691,233 L 690,234 L 690,235 L 689,235 L 689,236 L 688,237 L 688,238 L 686,240 L 685,242 L 685,243 L 684,243 L 683,245 L 682,247 L 681,248 L 680,249 L 678,252 L 676,256 L 675,257 L 674,258 L 674,259 L 673,261 L 672,262 L 669,265 L 668,266 L 668,267 L 667,270 L 665,271 L 665,273 L 663,275 L 662,277 L 660,281 L 658,283 L 656,286 L 655,287 L 653,289 L 650,294 L 646,293 L 640,290 L 641,288 L 642,284 L 643,282 L 644,279 L 646,273 L 648,270 L 652,266 L 652,265 L 652,263 L 653,260 L 653,258 L 653,257 L 653,256 L 654,254 L 657,248 L 661,241 L 664,236 L 666,229 L 667,227 L 668,224 L 668,223 L 669,223 L 669,220 L 671,216 L 672,213 L 673,211 L 674,209 L 674,207 L 676,203 L 677,200 L 678,197 L 678,195 L 679,192 L 680,184 L 680,181 L 681,180 L 682,180 L 682,179 L 681,177 L 681,176 L 681,175 L 681,174 L 681,173 L 681,172 L 682,170 L 683,164 L 683,162 L 685,159 L 685,157 L 687,153 L 687,152 L 687,151 L 687,148 L 687,142 L 689,136 L 689,132 L 690,129 L 691,125 L 691,122 L 692,121 L 692,120 L 692,118 L 693,115 L 693,114 L 694,110 L 694,103 L 694,101 L 695,96 L 698,96 L 701,97 " class="svg-range5" data-original-title="&lt;b&gt;WARUNG MUNCANG&lt;/b&gt;&lt;br /&gt;653" title=""/>
</g>
</g>
</g>
<g id="3273010_id2012__3273010007" inkscape:groupmode="layer" inkscape:label="3273010_id2012__3273010007">
<g stroke="rgb(0,0,0)" fill="rgb(205,70,81)" stroke-linejoin="round" stroke-width="0.26">
<g id="3273010_id2012__3273010007_1">
<path d="M 650,78 L 651,79 L 652,80 L 654,81 L 659,85 L 666,91 L 671,92 L 673,93 L 676,93 L 679,94 L 684,95 L 685,95 L 687,95 L 688,95 L 690,96 L 695,96 L 694,101 L 694,103 L 694,110 L 693,114 L 693,115 L 692,118 L 692,120 L 692,121 L 691,122 L 691,125 L 690,129 L 689,132 L 689,136 L 687,142 L 687,148 L 687,151 L 687,152 L 687,153 L 685,157 L 685,159 L 683,162 L 683,164 L 682,170 L 681,172 L 681,173 L 681,174 L 681,175 L 681,176 L 681,177 L 682,179 L 682,180 L 681,180 L 680,180 L 679,180 L 677,179 L 674,179 L 673,179 L 672,178 L 671,178 L 670,178 L 669,177 L 668,177 L 667,177 L 666,177 L 665,177 L 663,176 L 662,177 L 661,178 L 661,177 L 659,177 L 658,177 L 657,177 L 656,177 L 655,176 L 654,176 L 651,176 L 649,175 L 648,175 L 647,175 L 646,175 L 644,175 L 644,177 L 644,178 L 644,179 L 643,181 L 644,182 L 644,184 L 643,186 L 643,187 L 642,188 L 642,189 L 641,191 L 640,195 L 638,196 L 636,199 L 636,202 L 635,205 L 632,205 L 631,208 L 628,207 L 628,208 L 627,207 L 626,207 L 625,207 L 624,206 L 624,205 L 621,204 L 619,204 L 617,203 L 615,203 L 608,202 L 606,202 L 603,202 L 601,203 L 599,203 L 598,205 L 596,205 L 596,206 L 590,204 L 589,205 L 589,206 L 585,211 L 584,210 L 582,210 L 576,207 L 573,206 L 571,206 L 571,204 L 572,202 L 573,199 L 574,197 L 577,191 L 578,189 L 579,188 L 579,187 L 580,187 L 581,186 L 583,186 L 584,185 L 586,183 L 587,183 L 588,182 L 589,180 L 591,179 L 592,178 L 593,178 L 595,175 L 596,174 L 597,171 L 598,169 L 599,167 L 600,164 L 600,163 L 601,161 L 601,159 L 602,155 L 603,153 L 604,150 L 606,148 L 607,147 L 609,148 L 614,149 L 615,146 L 618,134 L 621,128 L 621,127 L 622,124 L 624,119 L 624,117 L 625,116 L 625,115 L 626,111 L 627,110 L 629,105 L 629,102 L 630,100 L 631,98 L 631,96 L 631,94 L 632,91 L 632,89 L 632,86 L 634,77 L 635,75 L 636,72 L 636,70 L 638,67 L 639,64 L 639,63 L 641,65 L 642,66 L 643,69 L 645,72 L 645,73 L 646,74 L 647,75 L 648,75 L 649,76 L 649,77 L 650,78 " class="svg-range1" data-original-title="&lt;b&gt;CIBUNTU&lt;/b&gt;&lt;br /&gt;164" title=""/>
</g>
</g>
</g>
<g id="3273010_id2012__3273010008" inkscape:groupmode="layer" inkscape:label="3273010_id2012__3273010008">
<g stroke="rgb(0,0,0)" fill="rgb(65,70,222)" stroke-linejoin="round" stroke-width="0.26">
<g id="3273010_id2012__3273010008_1">
<path d="M 639,63 L 639,64 L 638,67 L 636,70 L 636,72 L 635,75 L 634,77 L 632,86 L 632,89 L 632,91 L 631,94 L 631,96 L 631,98 L 630,100 L 629,102 L 629,105 L 627,110 L 626,111 L 625,115 L 625,116 L 624,117 L 624,119 L 622,124 L 621,127 L 621,128 L 618,134 L 615,146 L 614,149 L 609,148 L 607,147 L 606,148 L 604,150 L 603,153 L 602,155 L 601,159 L 601,161 L 600,163 L 600,164 L 599,167 L 598,169 L 597,171 L 596,174 L 595,175 L 593,178 L 592,178 L 591,179 L 589,180 L 588,182 L 587,183 L 586,183 L 584,185 L 583,186 L 581,186 L 580,187 L 579,187 L 579,188 L 578,189 L 577,191 L 574,197 L 573,199 L 572,202 L 571,204 L 571,206 L 570,209 L 570,211 L 571,214 L 571,215 L 571,218 L 571,220 L 571,221 L 571,222 L 570,224 L 569,227 L 568,230 L 567,234 L 565,241 L 564,246 L 563,247 L 561,253 L 561,254 L 559,258 L 557,264 L 556,266 L 556,267 L 557,270 L 557,271 L 555,274 L 554,276 L 554,277 L 553,278 L 554,277 L 554,276 L 555,274 L 556,272 L 556,270 L 556,266 L 556,263 L 559,257 L 560,253 L 563,246 L 564,241 L 560,240 L 555,238 L 553,237 L 551,235 L 550,236 L 546,233 L 547,231 L 536,228 L 537,224 L 536,222 L 536,219 L 536,217 L 535,215 L 535,213 L 535,212 L 538,205 L 539,200 L 540,199 L 541,197 L 543,195 L 544,196 L 546,197 L 547,196 L 549,193 L 550,192 L 551,192 L 552,189 L 553,188 L 554,187 L 555,186 L 557,184 L 560,183 L 562,180 L 563,179 L 563,178 L 563,177 L 563,176 L 562,174 L 562,173 L 561,172 L 561,171 L 562,170 L 562,169 L 561,166 L 561,163 L 561,162 L 561,161 L 561,160 L 561,158 L 561,155 L 560,153 L 560,150 L 559,149 L 559,147 L 559,146 L 559,145 L 559,144 L 560,142 L 560,136 L 560,133 L 560,129 L 561,128 L 562,128 L 563,127 L 563,126 L 563,125 L 562,125 L 561,124 L 561,122 L 562,122 L 563,121 L 566,119 L 567,116 L 568,112 L 568,111 L 568,108 L 568,104 L 568,103 L 567,102 L 565,100 L 563,96 L 562,95 L 560,94 L 559,93 L 557,92 L 557,90 L 557,88 L 558,86 L 557,81 L 557,78 L 557,76 L 558,74 L 560,70 L 561,66 L 562,65 L 562,63 L 564,61 L 564,60 L 565,60 L 567,59 L 568,58 L 568,57 L 567,56 L 566,55 L 564,54 L 563,53 L 562,52 L 562,50 L 565,47 L 566,46 L 566,44 L 566,41 L 566,40 L 566,38 L 567,37 L 568,35 L 569,35 L 569,34 L 570,34 L 573,34 L 576,34 L 577,34 L 580,34 L 581,34 L 583,33 L 585,31 L 587,29 L 587,28 L 588,27 L 590,26 L 591,25 L 592,24 L 593,21 L 594,21 L 596,21 L 598,23 L 599,24 L 601,25 L 602,25 L 603,23 L 605,18 L 606,17 L 607,15 L 609,12 L 611,15 L 611,16 L 612,17 L 614,20 L 615,21 L 619,28 L 619,29 L 620,30 L 621,32 L 624,37 L 628,43 L 630,46 L 631,48 L 632,50 L 633,51 L 634,53 L 635,54 L 638,60 L 639,62 L 639,63 " class="svg-range3" data-original-title="&lt;b&gt;CIJERAH&lt;/b&gt;&lt;br /&gt;366" title=""/>
</g>
</g>
</g>
<g id="3273010_id2012__3273010001" inkscape:groupmode="layer" inkscape:label="3273010_id2012__3273010001">
<g stroke="rgb(0,0,0)" fill="rgb(254,119,239)" stroke-linejoin="round" stroke-width="0.26">
<g id="3273010_id2012__3273010001_1">
<path d="M 490,251 L 489,250 L 488,253 L 488,255 L 488,256 L 489,257 L 488,260 L 488,262 L 488,263 L 487,264 L 487,265 L 488,268 L 488,269 L 488,271 L 488,273 L 488,274 L 487,275 L 486,276 L 484,278 L 483,278 L 483,279 L 483,281 L 481,283 L 480,283 L 479,285 L 479,287 L 477,288 L 476,289 L 477,290 L 476,291 L 475,292 L 474,293 L 473,294 L 472,296 L 471,297 L 471,298 L 471,300 L 472,302 L 473,305 L 474,307 L 474,308 L 475,308 L 474,310 L 473,311 L 472,313 L 471,315 L 471,316 L 470,316 L 469,317 L 468,318 L 466,318 L 465,318 L 463,319 L 462,320 L 461,322 L 461,323 L 462,324 L 462,325 L 461,328 L 457,330 L 428,343 L 423,346 L 421,344 L 420,342 L 418,340 L 416,336 L 411,330 L 407,325 L 404,319 L 399,313 L 396,308 L 394,306 L 392,304 L 390,300 L 387,297 L 385,294 L 384,292 L 381,288 L 379,285 L 376,280 L 374,278 L 372,275 L 371,274 L 370,272 L 369,271 L 368,270 L 367,268 L 366,267 L 363,264 L 362,261 L 361,260 L 360,259 L 359,258 L 358,257 L 357,255 L 356,254 L 355,253 L 349,245 L 347,241 L 346,239 L 344,235 L 341,231 L 339,228 L 338,225 L 336,222 L 338,222 L 338,221 L 339,220 L 340,218 L 341,218 L 342,217 L 343,216 L 343,217 L 344,216 L 345,215 L 345,214 L 346,214 L 347,214 L 348,213 L 348,212 L 348,211 L 349,211 L 350,210 L 350,209 L 350,208 L 351,207 L 352,207 L 352,206 L 353,206 L 353,205 L 354,205 L 355,204 L 356,204 L 357,204 L 358,204 L 360,204 L 361,204 L 362,205 L 363,205 L 363,206 L 366,207 L 368,207 L 369,208 L 371,208 L 373,209 L 375,210 L 377,210 L 378,211 L 379,211 L 380,211 L 381,211 L 382,211 L 383,210 L 384,209 L 385,207 L 385,206 L 385,204 L 386,203 L 387,201 L 388,200 L 398,204 L 398,205 L 399,205 L 400,205 L 403,206 L 406,207 L 409,208 L 410,207 L 412,208 L 413,208 L 416,209 L 418,211 L 419,211 L 420,212 L 426,217 L 425,219 L 430,220 L 429,221 L 429,222 L 429,223 L 429,224 L 431,225 L 434,226 L 437,227 L 438,227 L 439,228 L 440,228 L 441,229 L 441,230 L 442,230 L 442,231 L 447,233 L 447,234 L 453,237 L 454,236 L 454,234 L 456,231 L 459,232 L 464,235 L 466,236 L 469,238 L 471,239 L 477,241 L 478,242 L 480,235 L 480,232 L 481,232 L 481,231 L 482,229 L 483,227 L 483,226 L 484,225 L 483,224 L 482,221 L 481,220 L 481,219 L 478,218 L 478,217 L 479,217 L 479,216 L 479,215 L 479,214 L 479,213 L 479,212 L 480,212 L 480,211 L 479,211 L 479,210 L 480,210 L 480,209 L 480,207 L 481,206 L 479,204 L 479,202 L 480,199 L 487,200 L 487,201 L 487,207 L 488,207 L 495,207 L 495,209 L 497,209 L 498,209 L 498,210 L 498,216 L 499,216 L 506,216 L 506,218 L 506,219 L 506,220 L 507,220 L 507,222 L 506,224 L 503,228 L 502,229 L 502,232 L 502,234 L 501,237 L 499,237 L 498,238 L 498,239 L 496,242 L 494,245 L 493,247 L 492,251 L 490,251 " class="svg-range1" data-original-title="&lt;b&gt;GEMPOL SARI&lt;/b&gt;&lt;br /&gt;201" title=""/>
</g>
</g>
</g>
<g id="3273010_id2012__3273010002" inkscape:groupmode="layer" inkscape:label="3273010_id2012__3273010002">
<g stroke="rgb(0,0,0)" fill="rgb(130,196,203)" stroke-linejoin="round" stroke-width="0.26">
<g id="3273010_id2012__3273010002_1">
<path d="M 595,351 L 592,349 L 590,346 L 587,345 L 587,344 L 585,342 L 582,341 L 579,340 L 577,339 L 574,339 L 574,340 L 569,338 L 572,335 L 573,333 L 573,332 L 571,330 L 568,329 L 565,328 L 565,327 L 564,327 L 563,327 L 562,328 L 561,328 L 560,328 L 558,327 L 556,327 L 554,327 L 551,326 L 551,327 L 552,328 L 553,332 L 551,333 L 551,334 L 551,335 L 551,336 L 550,336 L 550,337 L 549,339 L 549,340 L 549,342 L 550,344 L 551,345 L 550,347 L 547,351 L 546,356 L 545,359 L 544,361 L 543,363 L 543,365 L 544,368 L 543,367 L 541,366 L 542,365 L 541,364 L 540,363 L 540,362 L 539,361 L 538,360 L 536,360 L 534,358 L 532,357 L 529,356 L 530,355 L 529,355 L 527,354 L 527,352 L 528,349 L 529,347 L 528,346 L 527,346 L 524,343 L 522,342 L 521,342 L 520,342 L 519,342 L 517,343 L 516,342 L 512,341 L 506,354 L 501,364 L 499,367 L 494,364 L 490,362 L 479,357 L 480,359 L 479,361 L 479,364 L 480,365 L 481,366 L 483,367 L 484,368 L 484,369 L 483,372 L 482,373 L 481,374 L 480,376 L 480,377 L 480,378 L 480,379 L 479,380 L 478,381 L 478,382 L 476,384 L 475,386 L 475,387 L 474,389 L 471,392 L 469,395 L 467,397 L 467,398 L 467,399 L 468,400 L 469,401 L 470,402 L 471,402 L 471,403 L 471,404 L 471,406 L 473,408 L 474,410 L 475,411 L 476,413 L 477,414 L 477,415 L 477,417 L 476,417 L 475,418 L 475,417 L 473,415 L 472,414 L 464,403 L 459,397 L 459,396 L 455,390 L 453,388 L 450,384 L 447,380 L 439,369 L 434,363 L 431,358 L 428,354 L 425,350 L 423,347 L 423,346 L 428,343 L 457,330 L 461,328 L 462,325 L 462,324 L 461,323 L 461,322 L 462,320 L 463,319 L 465,318 L 466,318 L 468,318 L 469,317 L 470,316 L 471,316 L 471,315 L 472,313 L 473,311 L 474,310 L 475,308 L 474,308 L 474,307 L 473,305 L 472,302 L 471,300 L 471,298 L 471,297 L 472,296 L 473,294 L 474,293 L 475,292 L 476,291 L 477,290 L 476,289 L 477,288 L 479,287 L 479,285 L 480,283 L 481,283 L 483,281 L 483,279 L 483,278 L 484,278 L 486,276 L 487,275 L 488,274 L 488,273 L 488,271 L 488,269 L 488,268 L 487,265 L 487,264 L 488,263 L 488,262 L 488,260 L 489,257 L 488,256 L 488,255 L 488,253 L 489,250 L 490,251 L 491,251 L 491,252 L 492,252 L 492,253 L 492,254 L 495,256 L 497,258 L 499,259 L 500,259 L 504,260 L 506,261 L 509,262 L 514,264 L 518,265 L 522,267 L 525,268 L 527,269 L 529,269 L 540,272 L 543,274 L 547,276 L 549,278 L 550,279 L 551,279 L 552,279 L 553,278 L 554,277 L 554,276 L 555,274 L 557,271 L 557,270 L 556,267 L 556,266 L 557,264 L 559,258 L 561,254 L 561,253 L 563,247 L 564,246 L 565,241 L 567,234 L 568,230 L 569,227 L 570,224 L 574,225 L 575,227 L 575,229 L 580,230 L 581,230 L 581,229 L 581,228 L 582,228 L 584,227 L 585,225 L 585,226 L 586,223 L 589,224 L 590,225 L 593,226 L 594,226 L 596,226 L 598,226 L 600,227 L 601,227 L 604,228 L 604,227 L 606,228 L 605,229 L 608,229 L 609,230 L 613,231 L 613,229 L 618,231 L 622,232 L 625,232 L 626,233 L 628,236 L 628,238 L 625,243 L 626,245 L 627,246 L 627,247 L 625,252 L 622,254 L 622,255 L 621,257 L 619,258 L 620,261 L 620,262 L 619,264 L 617,265 L 617,267 L 617,268 L 617,269 L 616,271 L 616,272 L 615,272 L 615,273 L 614,274 L 614,275 L 613,275 L 612,275 L 612,276 L 613,276 L 613,277 L 612,278 L 612,279 L 612,280 L 612,282 L 613,282 L 614,283 L 615,284 L 615,285 L 616,286 L 616,287 L 616,288 L 616,289 L 616,291 L 615,291 L 615,292 L 614,292 L 613,292 L 612,292 L 610,293 L 609,294 L 605,301 L 603,304 L 600,310 L 598,312 L 602,314 L 600,319 L 598,322 L 599,323 L 598,325 L 596,327 L 595,330 L 594,336 L 601,338 L 603,338 L 603,341 L 602,342 L 601,344 L 600,347 L 599,350 L 596,350 L 595,351 " class="svg-range5" data-original-title="&lt;b&gt;CIGONDEWAH KALER&lt;/b&gt;&lt;br /&gt;760" title=""/>
</g>
</g>
</g>
<g id="3273010_id2012__3273010003" inkscape:groupmode="layer" inkscape:label="3273010_id2012__3273010003">
<g stroke="rgb(0,0,0)" fill="rgb(145,5,122)" stroke-linejoin="round" stroke-width="0.26">
<g id="3273010_id2012__3273010003_1">
<path d="M 595,351 L 594,352 L 594,353 L 594,354 L 593,355 L 592,358 L 592,359 L 593,360 L 592,361 L 592,362 L 591,363 L 591,364 L 591,365 L 591,366 L 590,369 L 590,370 L 589,370 L 588,372 L 587,373 L 586,374 L 585,375 L 585,376 L 585,377 L 584,381 L 583,388 L 583,389 L 582,390 L 583,390 L 583,391 L 584,391 L 584,392 L 584,393 L 583,393 L 583,394 L 583,395 L 582,396 L 582,397 L 581,398 L 581,399 L 581,400 L 581,401 L 581,402 L 580,405 L 579,406 L 579,407 L 579,408 L 578,408 L 576,408 L 575,407 L 573,407 L 572,406 L 571,406 L 569,410 L 568,413 L 567,415 L 566,417 L 564,420 L 564,421 L 561,420 L 559,418 L 556,417 L 553,416 L 552,418 L 551,417 L 550,417 L 548,417 L 544,416 L 543,415 L 542,415 L 540,414 L 539,414 L 538,413 L 537,412 L 536,412 L 535,411 L 534,411 L 533,410 L 531,410 L 529,409 L 528,408 L 527,408 L 525,407 L 524,406 L 523,406 L 521,405 L 519,404 L 517,403 L 513,401 L 509,399 L 508,401 L 508,402 L 507,403 L 507,405 L 506,407 L 505,409 L 503,411 L 501,413 L 499,414 L 498,415 L 497,415 L 496,416 L 495,417 L 494,417 L 494,418 L 490,421 L 489,421 L 488,422 L 484,424 L 481,426 L 480,424 L 479,423 L 475,418 L 476,417 L 477,417 L 477,415 L 477,414 L 476,413 L 475,411 L 474,410 L 473,408 L 471,406 L 471,404 L 471,403 L 471,402 L 470,402 L 469,401 L 468,400 L 467,399 L 467,398 L 467,397 L 469,395 L 471,392 L 474,389 L 475,387 L 475,386 L 476,384 L 478,382 L 478,381 L 479,380 L 480,379 L 480,378 L 480,377 L 480,376 L 481,374 L 482,373 L 483,372 L 484,369 L 484,368 L 483,367 L 481,366 L 480,365 L 479,364 L 479,361 L 480,359 L 479,357 L 490,362 L 494,364 L 499,367 L 501,364 L 506,354 L 512,341 L 516,342 L 517,343 L 519,342 L 520,342 L 521,342 L 522,342 L 524,343 L 527,346 L 528,346 L 529,347 L 528,349 L 527,352 L 527,354 L 529,355 L 530,355 L 529,356 L 532,357 L 534,358 L 536,360 L 538,360 L 539,361 L 540,362 L 540,363 L 541,364 L 542,365 L 541,366 L 543,367 L 544,368 L 543,365 L 543,363 L 544,361 L 545,359 L 546,356 L 547,351 L 550,347 L 551,345 L 550,344 L 549,342 L 549,340 L 549,339 L 550,337 L 550,336 L 551,336 L 551,335 L 551,334 L 551,333 L 553,332 L 552,328 L 551,327 L 551,326 L 554,327 L 556,327 L 558,327 L 560,328 L 561,328 L 562,328 L 563,327 L 564,327 L 565,327 L 565,328 L 568,329 L 571,330 L 573,332 L 573,333 L 572,335 L 569,338 L 574,340 L 574,339 L 577,339 L 579,340 L 582,341 L 585,342 L 587,344 L 587,345 L 590,346 L 592,349 L 595,351 " class="svg-range1" data-original-title="&lt;b&gt;CIGONDEWAH KIDUL&lt;/b&gt;&lt;br /&gt;147" title=""/>
</g>
</g>
</g>
</svg></svg>