<svg id="svg-map" width="null" height="null" xmlns="http://www.w3.org/2000/svg" style="animation-delay: 0s; animation-direction: normal; animation-duration: 0s; animation-fill-mode: none; animation-iteration-count: 1; animation-name: none; animation-play-state: running; animation-timing-function: ease; background-attachment: scroll; background-blend-mode: normal; background-clip: border-box; background-color: rgba(0, 0, 0, 0); background-image: none; background-origin: padding-box; background-position: 0% 0%; background-repeat: repeat; background-size: auto; border-bottom-color: rgb(255, 255, 255); border-bottom-left-radius: 0px; border-bottom-right-radius: 0px; border-bottom-style: none; border-bottom-width: 0px; border-collapse: separate; border-image-outset: 0px; border-image-repeat: stretch; border-image-slice: 100%; border-image-source: none; border-image-width: 1; border-left-color: rgb(255, 255, 255); border-left-style: none; border-left-width: 0px; border-right-color: rgb(255, 255, 255); border-right-style: none; border-right-width: 0px; border-top-color: rgb(255, 255, 255); border-top-left-radius: 0px; border-top-right-radius: 0px; border-top-style: none; border-top-width: 0px; bottom: auto; box-shadow: none; box-sizing: border-box; break-after: auto; break-before: auto; break-inside: auto; caption-side: top; clear: none; clip: auto; color: rgb(255, 255, 255); content: ; cursor: auto; direction: ltr; display: inline; empty-cells: show; float: none; font-family: &quot;Open Sans&quot;, sans-serif; font-kerning: auto; font-size: 13px; font-stretch: normal; font-style: normal; font-variant: normal; font-variant-ligatures: normal; font-variant-caps: normal; font-variant-numeric: normal; font-weight: normal; height: 303.953px; image-rendering: auto; isolation: auto; left: auto; letter-spacing: normal; line-height: 18.5714px; list-style-image: none; list-style-position: outside; list-style-type: disc; margin-bottom: 0px; margin-left: 0px; margin-right: 0px; margin-top: 0px; max-height: 400px; max-width: none; min-height: 0px; min-width: 0px; mix-blend-mode: normal; motion-offset: 0px; motion-path: none; motion-rotation: auto 0deg; object-fit: fill; object-position: 50% 50%; opacity: 1; orphans: 2; outline-color: rgb(255, 255, 255); outline-offset: 0px; outline-style: none; outline-width: 0px; overflow-wrap: normal; overflow-x: hidden; overflow-y: hidden; padding-bottom: 0px; padding-left: 0px; padding-right: 0px; padding-top: 0px; pointer-events: auto; position: static; resize: none; right: auto; speak: normal; table-layout: auto; tab-size: 8; text-align: center; text-align-last: auto; text-decoration: none; text-indent: 0px; text-rendering: auto; text-shadow: none; text-size-adjust: 100%; text-overflow: clip; text-transform: none; top: auto; touch-action: auto; transition-delay: 0s; transition-duration: 0s; transition-property: all; transition-timing-function: ease; unicode-bidi: normal; vertical-align: baseline; visibility: visible; white-space: normal; widows: 2; width: 617.5px; will-change: auto; word-break: normal; word-spacing: 0px; word-wrap: normal; z-index: auto; zoom: 1; -webkit-appearance: none; backface-visibility: visible; -webkit-background-clip: border-box; -webkit-background-origin: padding-box; -webkit-border-horizontal-spacing: 0px; -webkit-border-image: none; -webkit-border-vertical-spacing: 0px; -webkit-box-align: stretch; -webkit-box-decoration-break: slice; -webkit-box-direction: normal; -webkit-box-flex: 0; -webkit-box-flex-group: 1; -webkit-box-lines: single; -webkit-box-ordinal-group: 1; -webkit-box-orient: horizontal; -webkit-box-pack: start; -webkit-box-reflect: none; -webkit-clip-path: none; column-count: auto; column-gap: normal; column-rule-color: rgb(255, 255, 255); column-rule-style: none; column-rule-width: 0px; column-span: none; column-width: auto; align-content: stretch; align-items: stretch; align-self: stretch; flex-basis: auto; flex-grow: 0; flex-shrink: 1; flex-direction: row; flex-wrap: nowrap; justify-content: flex-start; -webkit-font-smoothing: auto; -webkit-highlight: none; -webkit-hyphenate-character: auto; -webkit-line-break: auto; -webkit-line-clamp: none; -webkit-locale: &quot;en&quot;; -webkit-margin-before-collapse: collapse; -webkit-margin-after-collapse: collapse; -webkit-mask-box-image: none; -webkit-mask-box-image-outset: 0px; -webkit-mask-box-image-repeat: stretch; -webkit-mask-box-image-slice: 0 fill; -webkit-mask-box-image-source: none; -webkit-mask-box-image-width: auto; -webkit-mask-clip: border-box; -webkit-mask-composite: source-over; -webkit-mask-image: none; -webkit-mask-origin: border-box; -webkit-mask-position: 0% 0%; -webkit-mask-repeat: repeat; -webkit-mask-size: auto; order: 0; perspective: none; perspective-origin: 308.75px 151.969px; -webkit-print-color-adjust: economy; -webkit-rtl-ordering: logical; shape-outside: none; shape-image-threshold: 0; shape-margin: 0px; -webkit-tap-highlight-color: rgba(0, 0, 0, 0); -webkit-text-combine: none; -webkit-text-decorations-in-effect: none; -webkit-text-emphasis-color: rgb(255, 255, 255); -webkit-text-emphasis-position: over; -webkit-text-emphasis-style: none; -webkit-text-fill-color: rgb(255, 255, 255); -webkit-text-orientation: vertical-right; -webkit-text-security: none; -webkit-text-stroke-color: rgb(255, 255, 255); -webkit-text-stroke-width: 0px; transform: none; transform-origin: 308.75px 151.969px; transform-style: flat; -webkit-user-drag: auto; -webkit-user-modify: read-only; user-select: text; -webkit-writing-mode: horizontal-tb; -webkit-app-region: no-drag; buffered-rendering: auto; clip-path: none; clip-rule: nonzero; mask: none; filter: none; flood-color: rgb(0, 0, 0); flood-opacity: 1; lighting-color: rgb(255, 255, 255); stop-color: rgb(0, 0, 0); stop-opacity: 1; color-interpolation: sRGB; color-interpolation-filters: linearRGB; color-rendering: auto; fill: rgb(0, 0, 0); fill-opacity: 1; fill-rule: nonzero; marker-end: none; marker-mid: none; marker-start: none; mask-type: luminance; shape-rendering: auto; stroke: none; stroke-dasharray: none; stroke-dashoffset: 0px; stroke-linecap: butt; stroke-linejoin: miter; stroke-miterlimit: 4; stroke-opacity: 1; stroke-width: 1px; alignment-baseline: auto; baseline-shift: 0px; dominant-baseline: auto; text-anchor: start; writing-mode: horizontal-tb; vector-effect: none; paint-order: fill stroke markers; d: none; cx: 0px; cy: 0px; x: 0px; y: 0px; r: 0px; rx: auto; ry: auto;" version="1.1" xmlns:xlink="http://www.w3.org/1999/xlink"><style type="text/css">svg:not(:root) { overflow: hidden; }
* { box-sizing: border-box; }
* { font-size: 13px; }
svg { max-height: 100vh; border: none !important; }
#svg-map svg { max-height: 400px; }
#svg-map svg path { fill: rgb(153, 196, 176); stroke: rgb(51, 51, 51); stroke-width: 1; }
#svg-map svg path.svg-range1 { fill: rgb(194, 223, 115); }
#svg-map svg path.svg-range3 { fill: rgb(189, 170, 83); }
#svg-map svg path.svg-range5 { fill: rgb(175, 96, 68); }</style><svg xmlns="http://www.w3.org/2000/svg" xmlns:inkscape="http://www.inkscape.org/namespaces/inkscape" xmlns:xlink="http://www.w3.org/1999/xlink" viewBox="0 0 1097 540" version="1.1">
<!-- svg generated using QGIS www.qgis.org -->
<g id="3273101_id2012__3273101002" inkscape:groupmode="layer" inkscape:label="3273101_id2012__3273101002">
<g stroke="rgb(0,0,0)" fill="rgb(146,22,229)" stroke-linejoin="round" stroke-width="0.26">
<g id="3273101_id2012__3273101002_1">
<path d="M 783,309 L 782,311 L 781,312 L 782,315 L 783,317 L 785,317 L 788,319 L 792,319 L 794,319 L 797,317 L 798,315 L 799,313 L 802,312 L 805,312 L 809,313 L 812,315 L 814,317 L 815,322 L 816,331 L 816,334 L 816,337 L 817,340 L 819,343 L 819,345 L 819,348 L 818,355 L 819,356 L 822,357 L 823,358 L 825,361 L 829,365 L 829,368 L 829,371 L 827,376 L 825,377 L 821,379 L 819,379 L 818,379 L 817,381 L 818,386 L 819,388 L 820,389 L 821,392 L 821,395 L 820,397 L 819,401 L 817,402 L 814,403 L 812,404 L 812,405 L 808,406 L 802,410 L 794,414 L 774,424 L 772,426 L 769,427 L 767,428 L 764,430 L 749,438 L 740,442 L 736,445 L 732,446 L 726,450 L 724,451 L 722,452 L 721,452 L 719,453 L 716,455 L 713,456 L 707,460 L 682,473 L 674,477 L 667,480 L 663,482 L 658,484 L 656,486 L 654,487 L 652,487 L 649,488 L 649,489 L 649,474 L 649,462 L 648,457 L 648,453 L 648,450 L 648,449 L 648,447 L 649,445 L 649,443 L 649,441 L 649,438 L 649,434 L 650,432 L 650,431 L 650,427 L 652,412 L 653,409 L 653,407 L 654,401 L 654,397 L 654,395 L 655,389 L 656,386 L 657,379 L 657,376 L 658,367 L 659,358 L 659,351 L 659,350 L 660,348 L 660,335 L 662,315 L 663,306 L 663,302 L 685,303 L 699,304 L 706,305 L 737,307 L 753,307 L 782,309 L 783,309 " class="svg-range1" data-original-title="&lt;b&gt;RANCANUMPANG&lt;/b&gt;&lt;br /&gt;19" title=""/>
</g>
</g>
</g>
<g id="3273101_id2012__3273101003" inkscape:groupmode="layer" inkscape:label="3273101_id2012__3273101003">
<g stroke="rgb(0,0,0)" fill="rgb(120,186,157)" stroke-linejoin="round" stroke-width="0.26">
<g id="3273101_id2012__3273101003_1">
<path d="M 577,140 L 581,142 L 581,143 L 581,144 L 580,147 L 577,150 L 576,152 L 576,156 L 576,159 L 574,169 L 574,173 L 574,177 L 574,183 L 574,193 L 573,201 L 573,208 L 573,214 L 573,217 L 574,219 L 575,221 L 586,222 L 599,224 L 617,226 L 620,226 L 641,228 L 647,229 L 651,231 L 657,236 L 661,242 L 663,249 L 665,253 L 665,256 L 665,272 L 665,280 L 664,293 L 664,295 L 663,302 L 663,306 L 662,315 L 660,335 L 660,348 L 659,350 L 659,351 L 659,358 L 658,367 L 657,376 L 657,379 L 656,386 L 655,389 L 654,395 L 654,397 L 654,401 L 653,407 L 653,409 L 652,412 L 650,427 L 650,431 L 650,432 L 647,432 L 646,432 L 645,431 L 644,431 L 643,431 L 642,431 L 640,431 L 640,430 L 638,429 L 638,428 L 637,428 L 636,427 L 634,425 L 634,424 L 633,424 L 632,424 L 631,424 L 629,424 L 628,423 L 626,423 L 623,423 L 622,423 L 619,420 L 617,420 L 614,421 L 612,421 L 611,418 L 607,417 L 605,417 L 603,418 L 603,419 L 597,420 L 592,420 L 590,419 L 589,416 L 585,413 L 582,411 L 580,411 L 578,411 L 576,410 L 575,409 L 575,408 L 573,403 L 572,402 L 571,401 L 570,400 L 568,401 L 570,406 L 569,406 L 566,406 L 560,405 L 557,399 L 556,399 L 549,398 L 546,396 L 546,395 L 545,393 L 544,393 L 539,394 L 538,391 L 535,389 L 533,388 L 532,387 L 531,387 L 529,388 L 527,388 L 526,387 L 526,386 L 528,381 L 527,379 L 524,376 L 521,376 L 519,376 L 517,376 L 517,374 L 518,373 L 519,370 L 521,367 L 521,365 L 520,360 L 517,357 L 518,355 L 520,352 L 520,350 L 519,349 L 517,348 L 514,349 L 513,346 L 514,345 L 515,341 L 516,337 L 510,337 L 509,337 L 508,336 L 508,332 L 509,330 L 508,329 L 507,328 L 503,324 L 503,316 L 499,315 L 498,314 L 498,312 L 498,309 L 499,306 L 500,301 L 499,298 L 499,297 L 498,296 L 497,296 L 491,297 L 490,296 L 487,293 L 486,292 L 484,292 L 483,292 L 483,295 L 483,298 L 482,299 L 481,299 L 480,299 L 480,297 L 479,297 L 478,297 L 475,299 L 473,299 L 472,296 L 471,295 L 469,295 L 466,296 L 465,297 L 462,296 L 461,295 L 461,294 L 461,292 L 462,289 L 462,287 L 461,285 L 460,285 L 458,284 L 456,284 L 452,289 L 450,290 L 445,290 L 444,291 L 443,290 L 442,290 L 441,289 L 441,288 L 440,288 L 437,287 L 434,285 L 433,284 L 432,283 L 432,281 L 434,256 L 435,254 L 434,252 L 433,251 L 432,251 L 430,252 L 427,255 L 426,256 L 425,255 L 424,254 L 423,250 L 423,248 L 422,247 L 421,246 L 420,246 L 417,248 L 416,247 L 415,246 L 414,245 L 413,244 L 412,244 L 410,245 L 410,246 L 408,248 L 406,252 L 406,253 L 405,253 L 404,253 L 404,248 L 403,248 L 403,247 L 402,246 L 401,247 L 400,247 L 400,248 L 399,250 L 398,250 L 397,249 L 390,248 L 390,246 L 391,243 L 391,242 L 390,238 L 388,237 L 388,236 L 386,236 L 384,237 L 383,236 L 383,235 L 382,234 L 382,233 L 381,233 L 379,232 L 378,231 L 375,229 L 373,227 L 366,222 L 364,221 L 360,228 L 359,230 L 359,232 L 359,233 L 358,234 L 358,235 L 358,236 L 359,237 L 359,239 L 358,241 L 358,246 L 358,249 L 358,250 L 353,250 L 352,250 L 350,254 L 345,253 L 341,253 L 334,252 L 332,252 L 328,251 L 322,250 L 322,249 L 322,248 L 322,246 L 323,244 L 323,238 L 324,237 L 324,236 L 324,234 L 324,231 L 325,228 L 325,225 L 323,225 L 321,225 L 321,224 L 320,222 L 319,221 L 319,220 L 319,219 L 320,219 L 319,214 L 319,213 L 319,210 L 318,207 L 318,205 L 316,195 L 308,194 L 293,191 L 291,191 L 284,190 L 273,189 L 263,187 L 263,180 L 263,177 L 263,168 L 263,167 L 264,166 L 264,163 L 264,157 L 264,155 L 264,153 L 264,150 L 264,147 L 264,146 L 264,145 L 264,139 L 264,137 L 264,136 L 264,134 L 264,128 L 264,127 L 265,126 L 265,125 L 265,123 L 265,122 L 265,119 L 265,117 L 264,115 L 264,114 L 264,113 L 265,111 L 265,109 L 265,107 L 265,106 L 265,104 L 265,103 L 265,102 L 265,101 L 265,100 L 266,99 L 266,97 L 266,95 L 266,94 L 266,93 L 266,91 L 267,87 L 267,85 L 267,83 L 267,81 L 268,79 L 268,78 L 268,76 L 268,75 L 268,73 L 268,71 L 269,68 L 271,42 L 273,42 L 274,42 L 275,42 L 276,42 L 280,41 L 290,41 L 292,40 L 298,40 L 302,40 L 303,40 L 304,41 L 307,42 L 311,43 L 316,45 L 321,47 L 324,48 L 327,49 L 331,51 L 337,53 L 340,54 L 342,55 L 348,57 L 349,58 L 352,59 L 355,60 L 356,60 L 357,61 L 360,62 L 362,63 L 363,63 L 368,65 L 373,66 L 378,68 L 382,69 L 388,71 L 395,74 L 397,75 L 400,76 L 406,78 L 409,79 L 426,86 L 427,86 L 434,88 L 437,89 L 438,90 L 446,93 L 454,95 L 455,96 L 461,98 L 466,100 L 470,101 L 474,103 L 477,104 L 479,105 L 480,105 L 484,107 L 491,109 L 494,110 L 502,113 L 506,114 L 513,117 L 519,119 L 528,122 L 536,125 L 537,126 L 544,128 L 549,130 L 553,131 L 558,133 L 562,135 L 566,136 L 575,139 L 576,140 L 577,140 " class="svg-range5" data-original-title="&lt;b&gt;CISARANTEN KIDUL&lt;/b&gt;&lt;br /&gt;180" title=""/>
</g>
</g>
</g>
<g id="3273101_id2012__3273101004" inkscape:groupmode="layer" inkscape:label="3273101_id2012__3273101004">
<g stroke="rgb(0,0,0)" fill="rgb(65,133,138)" stroke-linejoin="round" stroke-width="0.26">
<g id="3273101_id2012__3273101004_1">
<path d="M 781,214 L 779,215 L 779,216 L 778,217 L 778,219 L 775,224 L 774,227 L 773,231 L 773,233 L 773,235 L 773,238 L 774,241 L 774,249 L 775,257 L 775,260 L 775,261 L 775,262 L 772,269 L 772,272 L 772,274 L 768,284 L 768,286 L 769,289 L 774,294 L 779,302 L 783,308 L 783,309 L 782,309 L 753,307 L 737,307 L 706,305 L 699,304 L 685,303 L 663,302 L 664,295 L 664,293 L 665,280 L 665,272 L 665,256 L 665,253 L 663,249 L 661,242 L 657,236 L 651,231 L 647,229 L 641,228 L 620,226 L 617,226 L 599,224 L 586,222 L 575,221 L 574,219 L 573,217 L 573,214 L 573,208 L 573,201 L 574,193 L 574,183 L 574,177 L 574,173 L 574,169 L 576,159 L 576,156 L 576,152 L 577,150 L 580,147 L 581,144 L 581,143 L 581,142 L 577,140 L 577,139 L 577,138 L 577,137 L 578,133 L 579,129 L 580,128 L 580,127 L 580,125 L 581,124 L 580,123 L 579,121 L 578,119 L 579,118 L 582,116 L 582,115 L 581,114 L 579,112 L 579,110 L 580,108 L 580,106 L 579,105 L 577,104 L 574,102 L 570,100 L 567,99 L 565,99 L 563,100 L 562,100 L 560,98 L 560,97 L 561,96 L 562,95 L 562,94 L 562,93 L 561,93 L 559,93 L 558,93 L 557,93 L 556,93 L 556,90 L 556,89 L 556,88 L 558,86 L 559,86 L 559,84 L 559,83 L 558,82 L 557,82 L 556,81 L 555,81 L 554,80 L 554,79 L 555,78 L 556,76 L 557,74 L 559,73 L 559,72 L 560,72 L 560,71 L 560,70 L 559,70 L 559,69 L 557,70 L 555,72 L 554,73 L 553,73 L 552,73 L 552,72 L 553,71 L 553,70 L 553,69 L 552,68 L 552,67 L 551,66 L 549,63 L 547,61 L 546,60 L 547,59 L 549,57 L 551,56 L 551,55 L 551,54 L 550,54 L 550,53 L 549,53 L 546,53 L 546,54 L 545,54 L 545,55 L 545,56 L 545,57 L 544,57 L 543,57 L 541,57 L 540,56 L 539,56 L 538,54 L 537,52 L 536,50 L 536,49 L 537,48 L 537,47 L 537,46 L 536,46 L 536,45 L 535,43 L 535,42 L 534,42 L 534,43 L 533,43 L 531,42 L 530,42 L 529,42 L 528,41 L 527,40 L 527,39 L 527,38 L 527,37 L 529,36 L 531,34 L 531,33 L 530,32 L 529,32 L 527,33 L 526,33 L 525,32 L 524,32 L 523,32 L 522,32 L 521,31 L 520,30 L 520,29 L 519,28 L 518,25 L 519,24 L 535,23 L 536,23 L 546,22 L 556,22 L 562,21 L 563,21 L 588,19 L 594,19 L 603,18 L 610,18 L 622,17 L 625,16 L 626,16 L 640,15 L 652,14 L 653,14 L 669,13 L 675,12 L 676,12 L 677,12 L 678,12 L 678,16 L 678,18 L 678,20 L 678,30 L 678,33 L 678,36 L 678,39 L 678,43 L 677,64 L 676,75 L 675,95 L 679,97 L 681,99 L 683,102 L 679,115 L 678,117 L 676,125 L 669,155 L 667,165 L 666,171 L 665,173 L 670,174 L 674,176 L 683,179 L 688,181 L 689,181 L 692,182 L 693,183 L 697,184 L 702,185 L 708,188 L 714,190 L 720,192 L 725,194 L 728,195 L 734,197 L 738,198 L 741,200 L 752,203 L 758,206 L 761,207 L 770,210 L 775,212 L 777,212 L 779,213 L 781,214 " class="svg-range3" data-original-title="&lt;b&gt;CIMINCRANG&lt;/b&gt;&lt;br /&gt;93" title=""/>
</g>
</g>
</g>
<g id="3273101_id2012__3273101001" inkscape:groupmode="layer" inkscape:label="3273101_id2012__3273101001">
<g stroke="rgb(0,0,0)" fill="rgb(68,16,128)" stroke-linejoin="round" stroke-width="0.26">
<g id="3273101_id2012__3273101001_1">
<path d="M 650,432 L 649,434 L 649,438 L 649,441 L 649,443 L 649,445 L 648,447 L 648,449 L 648,450 L 648,453 L 648,457 L 649,462 L 649,474 L 649,489 L 644,491 L 641,492 L 637,494 L 628,497 L 620,500 L 616,501 L 611,503 L 608,504 L 607,504 L 600,507 L 594,508 L 590,509 L 588,510 L 586,510 L 583,511 L 577,512 L 568,515 L 546,518 L 538,519 L 527,521 L 522,521 L 515,522 L 491,523 L 478,523 L 462,522 L 453,522 L 439,520 L 412,518 L 403,517 L 387,515 L 383,515 L 379,514 L 376,514 L 370,513 L 371,509 L 372,499 L 373,495 L 373,492 L 374,488 L 374,485 L 375,482 L 375,479 L 376,478 L 376,474 L 377,472 L 377,471 L 377,468 L 378,465 L 379,460 L 381,458 L 381,455 L 381,451 L 381,450 L 381,447 L 381,443 L 381,440 L 380,437 L 380,436 L 380,432 L 380,428 L 378,418 L 378,411 L 376,410 L 374,410 L 370,409 L 369,408 L 369,405 L 370,399 L 371,393 L 371,389 L 372,386 L 373,385 L 373,382 L 372,381 L 372,378 L 373,375 L 370,370 L 368,367 L 367,365 L 368,360 L 368,356 L 368,354 L 369,352 L 369,349 L 370,349 L 371,348 L 372,347 L 373,347 L 374,345 L 374,344 L 374,343 L 373,341 L 370,338 L 368,336 L 367,334 L 365,331 L 363,329 L 361,324 L 361,323 L 362,322 L 362,315 L 361,314 L 361,313 L 362,310 L 362,307 L 363,305 L 364,305 L 365,305 L 366,304 L 366,303 L 366,302 L 363,298 L 363,297 L 364,295 L 365,293 L 363,291 L 362,289 L 361,286 L 361,285 L 362,284 L 363,283 L 363,282 L 362,281 L 361,280 L 360,278 L 361,275 L 361,274 L 360,271 L 359,271 L 358,271 L 357,270 L 355,269 L 355,268 L 355,266 L 355,262 L 353,261 L 351,259 L 350,257 L 350,254 L 352,250 L 353,250 L 358,250 L 358,249 L 358,246 L 358,241 L 359,239 L 359,237 L 358,236 L 358,235 L 358,234 L 359,233 L 359,232 L 359,230 L 360,228 L 364,221 L 366,222 L 373,227 L 375,229 L 378,231 L 379,232 L 381,233 L 382,233 L 382,234 L 383,235 L 383,236 L 384,237 L 386,236 L 388,236 L 388,237 L 390,238 L 391,242 L 391,243 L 390,246 L 390,248 L 397,249 L 398,250 L 399,250 L 400,248 L 400,247 L 401,247 L 402,246 L 403,247 L 403,248 L 404,248 L 404,253 L 405,253 L 406,253 L 406,252 L 408,248 L 410,246 L 410,245 L 412,244 L 413,244 L 414,245 L 415,246 L 416,247 L 417,248 L 420,246 L 421,246 L 422,247 L 423,248 L 423,250 L 424,254 L 425,255 L 426,256 L 427,255 L 430,252 L 432,251 L 433,251 L 434,252 L 435,254 L 434,256 L 432,281 L 432,283 L 433,284 L 434,285 L 437,287 L 440,288 L 441,288 L 441,289 L 442,290 L 443,290 L 444,291 L 445,290 L 450,290 L 452,289 L 456,284 L 458,284 L 460,285 L 461,285 L 462,287 L 462,289 L 461,292 L 461,294 L 461,295 L 462,296 L 465,297 L 466,296 L 469,295 L 471,295 L 472,296 L 473,299 L 475,299 L 478,297 L 479,297 L 480,297 L 480,299 L 481,299 L 482,299 L 483,298 L 483,295 L 483,292 L 484,292 L 486,292 L 487,293 L 490,296 L 491,297 L 497,296 L 498,296 L 499,297 L 499,298 L 500,301 L 499,306 L 498,309 L 498,312 L 498,314 L 499,315 L 503,316 L 503,324 L 507,328 L 508,329 L 509,330 L 508,332 L 508,336 L 509,337 L 510,337 L 516,337 L 515,341 L 514,345 L 513,346 L 514,349 L 517,348 L 519,349 L 520,350 L 520,352 L 518,355 L 517,357 L 520,360 L 521,365 L 521,367 L 519,370 L 518,373 L 517,374 L 517,376 L 519,376 L 521,376 L 524,376 L 527,379 L 528,381 L 526,386 L 526,387 L 527,388 L 529,388 L 531,387 L 532,387 L 533,388 L 535,389 L 538,391 L 539,394 L 544,393 L 545,393 L 546,395 L 546,396 L 549,398 L 556,399 L 557,399 L 560,405 L 566,406 L 569,406 L 570,406 L 568,401 L 570,400 L 571,401 L 572,402 L 573,403 L 575,408 L 575,409 L 576,410 L 578,411 L 580,411 L 582,411 L 585,413 L 589,416 L 590,419 L 592,420 L 597,420 L 603,419 L 603,418 L 605,417 L 607,417 L 611,418 L 612,421 L 614,421 L 617,420 L 619,420 L 622,423 L 623,423 L 626,423 L 628,423 L 629,424 L 631,424 L 632,424 L 633,424 L 634,424 L 634,425 L 636,427 L 637,428 L 638,428 L 638,429 L 640,430 L 640,431 L 642,431 L 643,431 L 644,431 L 645,431 L 646,432 L 647,432 L 650,432 " class="svg-range3" data-original-title="&lt;b&gt;RANCABOLANG&lt;/b&gt;&lt;br /&gt;85" title=""/>
</g>
</g>
</g>
</svg></svg>