<svg id="svg-map" width="null" height="null" xmlns="http://www.w3.org/2000/svg" style="animation-delay: 0s; animation-direction: normal; animation-duration: 0s; animation-fill-mode: none; animation-iteration-count: 1; animation-name: none; animation-play-state: running; animation-timing-function: ease; background-attachment: scroll; background-blend-mode: normal; background-clip: border-box; background-color: rgba(0, 0, 0, 0); background-image: none; background-origin: padding-box; background-position: 0% 0%; background-repeat: repeat; background-size: auto; border-bottom-color: rgb(255, 255, 255); border-bottom-left-radius: 0px; border-bottom-right-radius: 0px; border-bottom-style: none; border-bottom-width: 0px; border-collapse: separate; border-image-outset: 0px; border-image-repeat: stretch; border-image-slice: 100%; border-image-source: none; border-image-width: 1; border-left-color: rgb(255, 255, 255); border-left-style: none; border-left-width: 0px; border-right-color: rgb(255, 255, 255); border-right-style: none; border-right-width: 0px; border-top-color: rgb(255, 255, 255); border-top-left-radius: 0px; border-top-right-radius: 0px; border-top-style: none; border-top-width: 0px; bottom: auto; box-shadow: none; box-sizing: border-box; break-after: auto; break-before: auto; break-inside: auto; caption-side: top; clear: none; clip: auto; color: rgb(255, 255, 255); content: ; cursor: auto; direction: ltr; display: inline; empty-cells: show; float: none; font-family: &quot;Open Sans&quot;, sans-serif; font-kerning: auto; font-size: 13px; font-stretch: normal; font-style: normal; font-variant: normal; font-variant-ligatures: normal; font-variant-caps: normal; font-variant-numeric: normal; font-weight: normal; height: 303.953px; image-rendering: auto; isolation: auto; left: auto; letter-spacing: normal; line-height: 18.5714px; list-style-image: none; list-style-position: outside; list-style-type: disc; margin-bottom: 0px; margin-left: 0px; margin-right: 0px; margin-top: 0px; max-height: 400px; max-width: none; min-height: 0px; min-width: 0px; mix-blend-mode: normal; motion-offset: 0px; motion-path: none; motion-rotation: auto 0deg; object-fit: fill; object-position: 50% 50%; opacity: 1; orphans: 2; outline-color: rgb(255, 255, 255); outline-offset: 0px; outline-style: none; outline-width: 0px; overflow-wrap: normal; overflow-x: hidden; overflow-y: hidden; padding-bottom: 0px; padding-left: 0px; padding-right: 0px; padding-top: 0px; pointer-events: auto; position: static; resize: none; right: auto; speak: normal; table-layout: auto; tab-size: 8; text-align: center; text-align-last: auto; text-decoration: none; text-indent: 0px; text-rendering: auto; text-shadow: none; text-size-adjust: 100%; text-overflow: clip; text-transform: none; top: auto; touch-action: auto; transition-delay: 0s; transition-duration: 0s; transition-property: all; transition-timing-function: ease; unicode-bidi: normal; vertical-align: baseline; visibility: visible; white-space: normal; widows: 2; width: 617.5px; will-change: auto; word-break: normal; word-spacing: 0px; word-wrap: normal; z-index: auto; zoom: 1; -webkit-appearance: none; backface-visibility: visible; -webkit-background-clip: border-box; -webkit-background-origin: padding-box; -webkit-border-horizontal-spacing: 0px; -webkit-border-image: none; -webkit-border-vertical-spacing: 0px; -webkit-box-align: stretch; -webkit-box-decoration-break: slice; -webkit-box-direction: normal; -webkit-box-flex: 0; -webkit-box-flex-group: 1; -webkit-box-lines: single; -webkit-box-ordinal-group: 1; -webkit-box-orient: horizontal; -webkit-box-pack: start; -webkit-box-reflect: none; -webkit-clip-path: none; column-count: auto; column-gap: normal; column-rule-color: rgb(255, 255, 255); column-rule-style: none; column-rule-width: 0px; column-span: none; column-width: auto; align-content: stretch; align-items: stretch; align-self: stretch; flex-basis: auto; flex-grow: 0; flex-shrink: 1; flex-direction: row; flex-wrap: nowrap; justify-content: flex-start; -webkit-font-smoothing: auto; -webkit-highlight: none; -webkit-hyphenate-character: auto; -webkit-line-break: auto; -webkit-line-clamp: none; -webkit-locale: &quot;en&quot;; -webkit-margin-before-collapse: collapse; -webkit-margin-after-collapse: collapse; -webkit-mask-box-image: none; -webkit-mask-box-image-outset: 0px; -webkit-mask-box-image-repeat: stretch; -webkit-mask-box-image-slice: 0 fill; -webkit-mask-box-image-source: none; -webkit-mask-box-image-width: auto; -webkit-mask-clip: border-box; -webkit-mask-composite: source-over; -webkit-mask-image: none; -webkit-mask-origin: border-box; -webkit-mask-position: 0% 0%; -webkit-mask-repeat: repeat; -webkit-mask-size: auto; order: 0; perspective: none; perspective-origin: 308.75px 151.969px; -webkit-print-color-adjust: economy; -webkit-rtl-ordering: logical; shape-outside: none; shape-image-threshold: 0; shape-margin: 0px; -webkit-tap-highlight-color: rgba(0, 0, 0, 0); -webkit-text-combine: none; -webkit-text-decorations-in-effect: none; -webkit-text-emphasis-color: rgb(255, 255, 255); -webkit-text-emphasis-position: over; -webkit-text-emphasis-style: none; -webkit-text-fill-color: rgb(255, 255, 255); -webkit-text-orientation: vertical-right; -webkit-text-security: none; -webkit-text-stroke-color: rgb(255, 255, 255); -webkit-text-stroke-width: 0px; transform: none; transform-origin: 308.75px 151.969px; transform-style: flat; -webkit-user-drag: auto; -webkit-user-modify: read-only; user-select: text; -webkit-writing-mode: horizontal-tb; -webkit-app-region: no-drag; buffered-rendering: auto; clip-path: none; clip-rule: nonzero; mask: none; filter: none; flood-color: rgb(0, 0, 0); flood-opacity: 1; lighting-color: rgb(255, 255, 255); stop-color: rgb(0, 0, 0); stop-opacity: 1; color-interpolation: sRGB; color-interpolation-filters: linearRGB; color-rendering: auto; fill: rgb(0, 0, 0); fill-opacity: 1; fill-rule: nonzero; marker-end: none; marker-mid: none; marker-start: none; mask-type: luminance; shape-rendering: auto; stroke: none; stroke-dasharray: none; stroke-dashoffset: 0px; stroke-linecap: butt; stroke-linejoin: miter; stroke-miterlimit: 4; stroke-opacity: 1; stroke-width: 1px; alignment-baseline: auto; baseline-shift: 0px; dominant-baseline: auto; text-anchor: start; writing-mode: horizontal-tb; vector-effect: none; paint-order: fill stroke markers; d: none; cx: 0px; cy: 0px; x: 0px; y: 0px; r: 0px; rx: auto; ry: auto;" version="1.1" xmlns:xlink="http://www.w3.org/1999/xlink"><style type="text/css">svg:not(:root) { overflow: hidden; }
* { box-sizing: border-box; }
* { font-size: 13px; }
svg { max-height: 100vh; border: none !important; }
#svg-map svg { max-height: 400px; }
#svg-map svg path { fill: rgb(153, 196, 176); stroke: rgb(51, 51, 51); stroke-width: 1; }
#svg-map svg path.svg-range1 { fill: rgb(194, 223, 115); }
#svg-map svg path.svg-range3 { fill: rgb(189, 170, 83); }
#svg-map svg path.svg-range5 { fill: rgb(175, 96, 68); }</style><svg xmlns="http://www.w3.org/2000/svg" xmlns:inkscape="http://www.inkscape.org/namespaces/inkscape" xmlns:xlink="http://www.w3.org/1999/xlink" viewBox="0 0 1097 540" version="1.1">
<!-- svg generated using QGIS www.qgis.org -->
<g id="3273150_id2012__3273150003" inkscape:groupmode="layer" inkscape:label="3273150_id2012__3273150003">
<g stroke="rgb(0,0,0)" fill="rgb(8,17,150)" stroke-linejoin="round" stroke-width="0.26">
<g id="3273150_id2012__3273150003_1">
<path d="M 515,292 L 514,294 L 515,294 L 516,294 L 517,295 L 518,295 L 520,297 L 521,298 L 522,300 L 523,301 L 523,302 L 524,303 L 524,306 L 524,307 L 524,308 L 524,309 L 524,311 L 524,312 L 524,313 L 522,318 L 522,319 L 522,320 L 522,323 L 521,324 L 521,325 L 521,326 L 521,329 L 520,330 L 520,331 L 519,335 L 518,340 L 517,343 L 515,343 L 514,342 L 513,342 L 501,339 L 499,339 L 495,338 L 492,337 L 491,336 L 490,336 L 488,333 L 487,332 L 486,332 L 485,330 L 484,329 L 482,330 L 482,331 L 482,332 L 481,334 L 481,335 L 474,335 L 472,335 L 470,336 L 457,336 L 458,331 L 458,329 L 459,327 L 460,326 L 460,325 L 461,321 L 461,314 L 461,312 L 461,310 L 462,307 L 463,306 L 463,305 L 463,299 L 463,297 L 462,294 L 462,291 L 462,289 L 462,286 L 462,285 L 462,282 L 462,280 L 462,279 L 462,278 L 462,276 L 462,273 L 464,274 L 465,274 L 466,275 L 467,275 L 469,276 L 473,278 L 480,280 L 481,280 L 482,281 L 483,281 L 486,282 L 489,283 L 491,284 L 492,284 L 495,285 L 500,287 L 501,288 L 503,288 L 504,288 L 507,290 L 509,290 L 510,291 L 511,291 L 513,292 L 514,292 L 515,292 " class="svg-range1" data-original-title="&lt;b&gt;KEBUN JAYANTI&lt;/b&gt;&lt;br /&gt;138" title=""/>
</g>
</g>
</g>
<g id="3273150_id2012__3273150004" inkscape:groupmode="layer" inkscape:label="3273150_id2012__3273150004">
<g stroke="rgb(0,0,0)" fill="rgb(36,171,12)" stroke-linejoin="round" stroke-width="0.26">
<g id="3273150_id2012__3273150004_1">
<path d="M 581,229 L 581,230 L 581,232 L 581,233 L 581,235 L 582,239 L 582,241 L 582,242 L 582,244 L 582,245 L 582,246 L 583,251 L 583,252 L 584,256 L 584,257 L 584,260 L 584,261 L 585,265 L 585,266 L 585,268 L 585,269 L 586,272 L 586,275 L 586,276 L 586,277 L 587,277 L 587,279 L 588,279 L 588,281 L 588,282 L 591,282 L 593,281 L 595,282 L 597,284 L 599,285 L 600,285 L 601,285 L 602,285 L 603,286 L 604,286 L 607,286 L 607,285 L 608,285 L 610,286 L 611,286 L 612,286 L 613,286 L 614,286 L 614,287 L 615,287 L 616,287 L 618,287 L 619,287 L 620,287 L 620,288 L 621,288 L 622,288 L 623,290 L 623,291 L 624,291 L 624,290 L 626,289 L 627,290 L 627,291 L 627,292 L 626,293 L 626,294 L 627,295 L 628,297 L 630,297 L 631,298 L 630,299 L 630,301 L 629,302 L 630,303 L 632,305 L 633,308 L 633,309 L 632,310 L 632,311 L 632,312 L 635,313 L 636,314 L 637,315 L 638,316 L 637,318 L 636,319 L 637,322 L 638,325 L 639,327 L 639,328 L 639,329 L 637,331 L 637,332 L 637,333 L 637,334 L 636,335 L 637,336 L 637,337 L 634,336 L 625,333 L 624,332 L 620,331 L 615,329 L 611,328 L 609,327 L 604,325 L 603,324 L 598,323 L 596,322 L 592,320 L 590,320 L 589,319 L 588,319 L 584,318 L 580,316 L 579,316 L 578,316 L 577,315 L 576,315 L 575,314 L 571,313 L 570,313 L 570,312 L 565,311 L 563,310 L 561,310 L 557,308 L 556,308 L 553,306 L 551,306 L 550,305 L 549,305 L 545,304 L 543,303 L 542,302 L 539,301 L 537,300 L 536,300 L 533,299 L 532,298 L 531,298 L 530,297 L 528,297 L 523,295 L 522,295 L 515,293 L 515,292 L 514,292 L 513,292 L 511,291 L 510,291 L 509,290 L 507,290 L 504,288 L 503,288 L 501,288 L 500,287 L 495,285 L 492,284 L 491,284 L 489,283 L 486,282 L 483,281 L 482,281 L 481,280 L 480,280 L 473,278 L 469,276 L 467,275 L 466,275 L 465,274 L 464,274 L 462,273 L 461,261 L 461,257 L 461,250 L 460,243 L 460,241 L 460,230 L 459,219 L 459,214 L 459,212 L 458,206 L 458,203 L 458,201 L 458,199 L 458,197 L 458,194 L 457,184 L 458,184 L 459,184 L 460,184 L 461,184 L 462,184 L 463,184 L 466,184 L 467,184 L 468,185 L 469,185 L 470,186 L 472,186 L 473,187 L 479,190 L 480,190 L 480,191 L 481,192 L 484,193 L 488,194 L 488,195 L 488,196 L 495,199 L 497,200 L 499,200 L 500,201 L 501,201 L 502,201 L 503,202 L 507,203 L 511,203 L 514,204 L 516,205 L 518,205 L 520,205 L 522,206 L 523,206 L 524,206 L 525,205 L 526,205 L 529,209 L 532,211 L 536,214 L 539,216 L 540,217 L 541,218 L 544,220 L 545,221 L 547,221 L 548,222 L 553,225 L 555,225 L 557,226 L 561,227 L 562,227 L 565,228 L 566,228 L 581,229 " class="svg-range3" data-original-title="&lt;b&gt;BABAKAN SARI&lt;/b&gt;&lt;br /&gt;235" title=""/>
</g>
</g>
</g>
<g id="3273150_id2012__3273150005" inkscape:groupmode="layer" inkscape:label="3273150_id2012__3273150005">
<g stroke="rgb(0,0,0)" fill="rgb(150,138,43)" stroke-linejoin="round" stroke-width="0.26">
<g id="3273150_id2012__3273150005_1">
<path d="M 551,137 L 551,141 L 551,142 L 550,145 L 551,146 L 552,148 L 552,151 L 554,154 L 554,155 L 555,156 L 555,158 L 555,159 L 555,160 L 555,161 L 555,162 L 555,163 L 556,164 L 556,166 L 556,167 L 557,169 L 556,175 L 556,176 L 556,185 L 555,186 L 556,187 L 556,189 L 555,191 L 555,193 L 557,195 L 556,196 L 555,196 L 555,197 L 557,201 L 557,202 L 557,203 L 558,205 L 560,205 L 561,206 L 562,207 L 562,208 L 563,208 L 563,210 L 565,214 L 568,215 L 569,215 L 570,216 L 571,216 L 572,217 L 573,218 L 574,219 L 574,220 L 574,223 L 575,224 L 577,225 L 578,225 L 579,226 L 580,226 L 582,226 L 585,226 L 588,226 L 590,228 L 590,229 L 581,229 L 566,228 L 565,228 L 562,227 L 561,227 L 557,226 L 555,225 L 553,225 L 548,222 L 547,221 L 545,221 L 544,220 L 541,218 L 540,217 L 539,216 L 536,214 L 532,211 L 529,209 L 526,205 L 525,205 L 524,206 L 523,206 L 522,206 L 520,205 L 518,205 L 516,205 L 514,204 L 511,203 L 507,203 L 503,202 L 502,201 L 501,201 L 500,201 L 499,200 L 497,200 L 495,199 L 488,196 L 488,195 L 488,194 L 484,193 L 481,192 L 480,191 L 480,190 L 479,190 L 473,187 L 472,186 L 470,186 L 469,185 L 468,185 L 467,184 L 466,184 L 463,184 L 462,184 L 461,184 L 460,184 L 459,184 L 458,184 L 457,184 L 456,175 L 456,173 L 454,157 L 454,150 L 453,148 L 452,139 L 451,129 L 451,127 L 451,124 L 450,112 L 449,111 L 449,107 L 448,91 L 449,90 L 450,89 L 451,89 L 453,88 L 453,87 L 454,87 L 455,87 L 455,86 L 456,86 L 459,84 L 461,84 L 462,83 L 463,82 L 464,82 L 465,81 L 466,81 L 467,80 L 472,78 L 473,77 L 474,77 L 474,76 L 475,76 L 479,74 L 480,73 L 483,72 L 484,71 L 485,70 L 486,70 L 488,69 L 491,68 L 493,66 L 494,66 L 495,65 L 496,65 L 497,66 L 498,67 L 499,68 L 500,71 L 500,75 L 500,79 L 499,80 L 498,83 L 497,84 L 495,85 L 492,89 L 492,90 L 492,92 L 492,94 L 492,96 L 491,97 L 491,98 L 491,100 L 491,102 L 490,105 L 490,106 L 490,112 L 489,113 L 489,114 L 489,117 L 489,120 L 490,120 L 491,123 L 496,130 L 497,131 L 498,133 L 499,135 L 500,136 L 501,138 L 501,139 L 500,141 L 500,142 L 498,143 L 501,143 L 505,142 L 511,141 L 514,141 L 516,141 L 517,141 L 525,140 L 533,139 L 535,138 L 542,138 L 548,137 L 551,137 " class="svg-range1" data-original-title="&lt;b&gt;BABAKAN SURABAYA&lt;/b&gt;&lt;br /&gt;172" title=""/>
</g>
</g>
</g>
<g id="3273150_id2012__3273150006" inkscape:groupmode="layer" inkscape:label="3273150_id2012__3273150006">
<g stroke="rgb(0,0,0)" fill="rgb(107,148,123)" stroke-linejoin="round" stroke-width="0.26">
<g id="3273150_id2012__3273150006_1">
<path d="M 617,13 L 622,14 L 623,14 L 624,14 L 627,14 L 631,15 L 632,15 L 633,15 L 639,15 L 648,15 L 650,15 L 657,23 L 659,26 L 659,32 L 653,30 L 653,34 L 653,35 L 653,40 L 657,40 L 656,47 L 653,47 L 653,53 L 651,53 L 650,57 L 646,57 L 643,56 L 640,56 L 637,56 L 632,56 L 632,57 L 632,59 L 632,60 L 630,60 L 629,60 L 626,59 L 625,59 L 624,60 L 623,59 L 622,58 L 621,58 L 620,58 L 619,58 L 618,59 L 618,60 L 616,60 L 612,59 L 613,61 L 614,63 L 614,65 L 613,67 L 614,68 L 612,70 L 612,71 L 611,73 L 610,75 L 610,79 L 611,82 L 609,82 L 605,83 L 606,84 L 606,87 L 608,88 L 608,90 L 608,91 L 607,93 L 607,94 L 606,93 L 605,93 L 604,92 L 601,89 L 598,87 L 597,87 L 595,86 L 595,85 L 593,84 L 592,80 L 592,79 L 592,78 L 592,77 L 592,76 L 590,76 L 589,76 L 588,75 L 586,74 L 585,73 L 584,73 L 584,72 L 582,72 L 582,71 L 580,71 L 579,70 L 577,70 L 576,69 L 575,68 L 575,67 L 574,66 L 572,65 L 571,65 L 569,63 L 568,62 L 567,62 L 566,61 L 564,60 L 563,59 L 563,58 L 561,59 L 560,58 L 559,58 L 560,67 L 561,70 L 561,73 L 561,75 L 562,81 L 560,81 L 559,81 L 558,81 L 556,81 L 555,81 L 554,80 L 550,79 L 549,79 L 549,82 L 549,84 L 551,86 L 552,88 L 553,89 L 553,90 L 553,92 L 553,94 L 553,95 L 553,96 L 552,97 L 552,98 L 552,99 L 553,101 L 555,102 L 556,104 L 559,105 L 561,107 L 561,109 L 562,110 L 562,111 L 563,113 L 563,115 L 562,116 L 562,117 L 561,117 L 560,117 L 559,117 L 558,117 L 557,117 L 557,118 L 556,119 L 556,121 L 555,125 L 556,125 L 555,126 L 554,127 L 554,128 L 554,129 L 553,129 L 553,130 L 551,133 L 551,137 L 548,137 L 542,138 L 535,138 L 533,139 L 525,140 L 517,141 L 516,141 L 514,141 L 511,141 L 505,142 L 501,143 L 498,143 L 500,142 L 500,141 L 501,139 L 501,138 L 500,136 L 499,135 L 498,133 L 497,131 L 496,130 L 491,123 L 490,120 L 489,120 L 489,117 L 489,114 L 489,113 L 490,112 L 490,106 L 490,105 L 491,102 L 491,100 L 491,98 L 491,97 L 492,96 L 492,94 L 492,92 L 492,90 L 492,89 L 495,85 L 497,84 L 498,83 L 499,80 L 500,79 L 500,75 L 500,71 L 499,68 L 498,67 L 497,66 L 496,65 L 497,64 L 498,64 L 499,64 L 499,63 L 501,62 L 502,62 L 504,61 L 507,59 L 509,58 L 510,58 L 511,57 L 512,56 L 514,55 L 515,55 L 515,54 L 520,52 L 523,50 L 525,50 L 526,49 L 527,48 L 528,48 L 529,47 L 530,47 L 532,46 L 532,45 L 533,45 L 534,45 L 535,44 L 537,43 L 538,43 L 540,42 L 542,41 L 543,40 L 546,39 L 547,38 L 548,37 L 550,37 L 552,36 L 553,35 L 554,34 L 556,33 L 557,32 L 561,30 L 565,28 L 566,28 L 568,27 L 570,26 L 574,24 L 578,21 L 579,21 L 581,19 L 583,18 L 584,17 L 586,14 L 588,12 L 589,12 L 591,12 L 592,12 L 593,12 L 595,12 L 596,12 L 598,13 L 600,13 L 601,13 L 608,13 L 609,13 L 613,13 L 614,13 L 617,13 " class="svg-range1" data-original-title="&lt;b&gt;CICAHEUM&lt;/b&gt;&lt;br /&gt;133" title=""/>
</g>
</g>
</g>
<g id="3273150_id2012__3273150001" inkscape:groupmode="layer" inkscape:label="3273150_id2012__3273150001">
<g stroke="rgb(0,0,0)" fill="rgb(175,56,175)" stroke-linejoin="round" stroke-width="0.26">
<g id="3273150_id2012__3273150001_1">
<path d="M 481,335 L 481,338 L 480,339 L 480,342 L 480,343 L 480,345 L 480,347 L 480,349 L 480,350 L 480,351 L 480,352 L 480,356 L 480,357 L 479,358 L 479,360 L 479,362 L 479,363 L 478,366 L 477,371 L 476,372 L 476,373 L 476,375 L 475,376 L 474,379 L 479,380 L 481,381 L 480,383 L 480,387 L 479,390 L 479,391 L 479,392 L 479,393 L 478,396 L 478,397 L 478,400 L 478,402 L 478,404 L 478,405 L 477,409 L 477,413 L 478,415 L 478,416 L 478,417 L 478,418 L 478,419 L 478,420 L 478,421 L 476,427 L 476,430 L 475,436 L 474,439 L 474,442 L 474,443 L 473,444 L 473,445 L 474,447 L 474,448 L 474,451 L 475,451 L 475,452 L 476,455 L 476,459 L 478,459 L 478,463 L 478,465 L 474,463 L 470,463 L 464,462 L 464,463 L 464,464 L 463,466 L 462,467 L 462,468 L 463,468 L 465,468 L 466,468 L 468,468 L 469,468 L 470,469 L 470,474 L 470,475 L 470,476 L 471,477 L 471,479 L 472,480 L 473,481 L 473,482 L 473,483 L 472,486 L 472,487 L 473,489 L 475,492 L 476,493 L 476,494 L 477,494 L 477,495 L 479,496 L 481,498 L 485,499 L 485,500 L 485,502 L 483,504 L 484,505 L 475,510 L 472,510 L 466,512 L 454,517 L 451,517 L 440,519 L 433,523 L 433,505 L 434,498 L 434,494 L 434,490 L 435,486 L 435,482 L 435,471 L 436,467 L 436,461 L 436,459 L 436,452 L 437,447 L 437,443 L 437,442 L 437,440 L 437,433 L 438,430 L 438,428 L 438,425 L 438,423 L 439,420 L 439,419 L 440,414 L 440,408 L 441,404 L 441,402 L 441,400 L 442,397 L 442,394 L 443,392 L 443,389 L 443,386 L 444,383 L 444,382 L 444,380 L 445,377 L 445,375 L 445,374 L 445,373 L 447,362 L 450,358 L 452,355 L 455,351 L 455,350 L 456,346 L 456,344 L 456,343 L 456,340 L 456,339 L 456,337 L 457,336 L 470,336 L 472,335 L 474,335 L 481,335 " class="svg-range1" data-original-title="&lt;b&gt;KEBON KANGKUNG&lt;/b&gt;&lt;br /&gt;142" title=""/>
</g>
</g>
</g>
<g id="3273150_id2012__3273150002" inkscape:groupmode="layer" inkscape:label="3273150_id2012__3273150002">
<g stroke="rgb(0,0,0)" fill="rgb(188,38,156)" stroke-linejoin="round" stroke-width="0.26">
<g id="3273150_id2012__3273150002_1">
<path d="M 637,337 L 635,339 L 634,351 L 633,355 L 633,356 L 632,366 L 629,368 L 633,373 L 634,374 L 634,375 L 633,378 L 632,382 L 632,393 L 632,394 L 632,398 L 632,401 L 632,403 L 632,404 L 632,409 L 631,412 L 624,411 L 622,420 L 612,418 L 586,413 L 586,418 L 586,420 L 586,424 L 586,426 L 586,428 L 582,429 L 581,430 L 581,432 L 581,433 L 579,448 L 578,449 L 577,456 L 577,458 L 577,461 L 577,462 L 576,464 L 575,469 L 575,473 L 575,474 L 574,476 L 574,477 L 573,477 L 568,479 L 560,481 L 551,484 L 545,486 L 533,489 L 512,498 L 509,498 L 507,499 L 499,501 L 484,505 L 483,504 L 485,502 L 485,500 L 485,499 L 481,498 L 479,496 L 477,495 L 477,494 L 476,494 L 476,493 L 475,492 L 473,489 L 472,487 L 472,486 L 473,483 L 473,482 L 473,481 L 472,480 L 471,479 L 471,477 L 470,476 L 470,475 L 470,474 L 470,469 L 469,468 L 468,468 L 466,468 L 465,468 L 463,468 L 462,468 L 462,467 L 463,466 L 464,464 L 464,463 L 464,462 L 470,463 L 474,463 L 478,465 L 478,463 L 478,459 L 476,459 L 476,455 L 475,452 L 475,451 L 474,451 L 474,448 L 474,447 L 473,445 L 473,444 L 474,443 L 474,442 L 474,439 L 475,436 L 476,430 L 476,427 L 478,421 L 478,420 L 478,419 L 478,418 L 478,417 L 478,416 L 478,415 L 477,413 L 477,409 L 478,405 L 478,404 L 478,402 L 478,400 L 478,397 L 478,396 L 479,393 L 479,392 L 479,391 L 479,390 L 480,387 L 480,383 L 481,381 L 479,380 L 474,379 L 475,376 L 476,375 L 476,373 L 476,372 L 477,371 L 478,366 L 479,363 L 479,362 L 479,360 L 479,358 L 480,357 L 480,356 L 480,352 L 480,351 L 480,350 L 480,349 L 480,347 L 480,345 L 480,343 L 480,342 L 480,339 L 481,338 L 481,335 L 481,334 L 482,332 L 482,331 L 482,330 L 484,329 L 485,330 L 486,332 L 487,332 L 488,333 L 490,336 L 491,336 L 492,337 L 495,338 L 499,339 L 501,339 L 513,342 L 514,342 L 515,343 L 517,343 L 518,340 L 519,335 L 520,331 L 520,330 L 521,329 L 521,326 L 521,325 L 521,324 L 522,323 L 522,320 L 522,319 L 522,318 L 524,313 L 524,312 L 524,311 L 524,309 L 524,308 L 524,307 L 524,306 L 524,303 L 523,302 L 523,301 L 522,300 L 521,298 L 520,297 L 518,295 L 517,295 L 516,294 L 515,294 L 514,294 L 515,292 L 515,293 L 522,295 L 523,295 L 528,297 L 530,297 L 531,298 L 532,298 L 533,299 L 536,300 L 537,300 L 539,301 L 542,302 L 543,303 L 545,304 L 549,305 L 550,305 L 551,306 L 553,306 L 556,308 L 557,308 L 561,310 L 563,310 L 565,311 L 570,312 L 570,313 L 571,313 L 575,314 L 576,315 L 577,315 L 578,316 L 579,316 L 580,316 L 584,318 L 588,319 L 589,319 L 590,320 L 592,320 L 596,322 L 598,323 L 603,324 L 604,325 L 609,327 L 611,328 L 615,329 L 620,331 L 624,332 L 625,333 L 634,336 L 637,337 " class="svg-range5" data-original-title="&lt;b&gt;SUKAPURA&lt;/b&gt;&lt;br /&gt;344" title=""/>
</g>
</g>
</g>
</svg></svg>