<svg id="svg-map" width="null" height="null" xmlns="http://www.w3.org/2000/svg" style="animation-delay: 0s; animation-direction: normal; animation-duration: 0s; animation-fill-mode: none; animation-iteration-count: 1; animation-name: none; animation-play-state: running; animation-timing-function: ease; background-attachment: scroll; background-blend-mode: normal; background-clip: border-box; background-color: rgba(0, 0, 0, 0); background-image: none; background-origin: padding-box; background-position: 0% 0%; background-repeat: repeat; background-size: auto; border-bottom-color: rgb(255, 255, 255); border-bottom-left-radius: 0px; border-bottom-right-radius: 0px; border-bottom-style: none; border-bottom-width: 0px; border-collapse: separate; border-image-outset: 0px; border-image-repeat: stretch; border-image-slice: 100%; border-image-source: none; border-image-width: 1; border-left-color: rgb(255, 255, 255); border-left-style: none; border-left-width: 0px; border-right-color: rgb(255, 255, 255); border-right-style: none; border-right-width: 0px; border-top-color: rgb(255, 255, 255); border-top-left-radius: 0px; border-top-right-radius: 0px; border-top-style: none; border-top-width: 0px; bottom: auto; box-shadow: none; box-sizing: border-box; break-after: auto; break-before: auto; break-inside: auto; caption-side: top; clear: none; clip: auto; color: rgb(255, 255, 255); content: ; cursor: auto; direction: ltr; display: inline; empty-cells: show; float: none; font-family: &quot;Open Sans&quot;, sans-serif; font-kerning: auto; font-size: 13px; font-stretch: normal; font-style: normal; font-variant: normal; font-variant-ligatures: normal; font-variant-caps: normal; font-variant-numeric: normal; font-weight: normal; height: 303.953px; image-rendering: auto; isolation: auto; left: auto; letter-spacing: normal; line-height: 18.5714px; list-style-image: none; list-style-position: outside; list-style-type: disc; margin-bottom: 0px; margin-left: 0px; margin-right: 0px; margin-top: 0px; max-height: 400px; max-width: none; min-height: 0px; min-width: 0px; mix-blend-mode: normal; motion-offset: 0px; motion-path: none; motion-rotation: auto 0deg; object-fit: fill; object-position: 50% 50%; opacity: 1; orphans: 2; outline-color: rgb(255, 255, 255); outline-offset: 0px; outline-style: none; outline-width: 0px; overflow-wrap: normal; overflow-x: hidden; overflow-y: hidden; padding-bottom: 0px; padding-left: 0px; padding-right: 0px; padding-top: 0px; pointer-events: auto; position: static; resize: none; right: auto; speak: normal; table-layout: auto; tab-size: 8; text-align: center; text-align-last: auto; text-decoration: none; text-indent: 0px; text-rendering: auto; text-shadow: none; text-size-adjust: 100%; text-overflow: clip; text-transform: none; top: auto; touch-action: auto; transition-delay: 0s; transition-duration: 0s; transition-property: all; transition-timing-function: ease; unicode-bidi: normal; vertical-align: baseline; visibility: visible; white-space: normal; widows: 2; width: 617.5px; will-change: auto; word-break: normal; word-spacing: 0px; word-wrap: normal; z-index: auto; zoom: 1; -webkit-appearance: none; backface-visibility: visible; -webkit-background-clip: border-box; -webkit-background-origin: padding-box; -webkit-border-horizontal-spacing: 0px; -webkit-border-image: none; -webkit-border-vertical-spacing: 0px; -webkit-box-align: stretch; -webkit-box-decoration-break: slice; -webkit-box-direction: normal; -webkit-box-flex: 0; -webkit-box-flex-group: 1; -webkit-box-lines: single; -webkit-box-ordinal-group: 1; -webkit-box-orient: horizontal; -webkit-box-pack: start; -webkit-box-reflect: none; -webkit-clip-path: none; column-count: auto; column-gap: normal; column-rule-color: rgb(255, 255, 255); column-rule-style: none; column-rule-width: 0px; column-span: none; column-width: auto; align-content: stretch; align-items: stretch; align-self: stretch; flex-basis: auto; flex-grow: 0; flex-shrink: 1; flex-direction: row; flex-wrap: nowrap; justify-content: flex-start; -webkit-font-smoothing: auto; -webkit-highlight: none; -webkit-hyphenate-character: auto; -webkit-line-break: auto; -webkit-line-clamp: none; -webkit-locale: &quot;en&quot;; -webkit-margin-before-collapse: collapse; -webkit-margin-after-collapse: collapse; -webkit-mask-box-image: none; -webkit-mask-box-image-outset: 0px; -webkit-mask-box-image-repeat: stretch; -webkit-mask-box-image-slice: 0 fill; -webkit-mask-box-image-source: none; -webkit-mask-box-image-width: auto; -webkit-mask-clip: border-box; -webkit-mask-composite: source-over; -webkit-mask-image: none; -webkit-mask-origin: border-box; -webkit-mask-position: 0% 0%; -webkit-mask-repeat: repeat; -webkit-mask-size: auto; order: 0; perspective: none; perspective-origin: 308.75px 151.969px; -webkit-print-color-adjust: economy; -webkit-rtl-ordering: logical; shape-outside: none; shape-image-threshold: 0; shape-margin: 0px; -webkit-tap-highlight-color: rgba(0, 0, 0, 0); -webkit-text-combine: none; -webkit-text-decorations-in-effect: none; -webkit-text-emphasis-color: rgb(255, 255, 255); -webkit-text-emphasis-position: over; -webkit-text-emphasis-style: none; -webkit-text-fill-color: rgb(255, 255, 255); -webkit-text-orientation: vertical-right; -webkit-text-security: none; -webkit-text-stroke-color: rgb(255, 255, 255); -webkit-text-stroke-width: 0px; transform: none; transform-origin: 308.75px 151.969px; transform-style: flat; -webkit-user-drag: auto; -webkit-user-modify: read-only; user-select: text; -webkit-writing-mode: horizontal-tb; -webkit-app-region: no-drag; buffered-rendering: auto; clip-path: none; clip-rule: nonzero; mask: none; filter: none; flood-color: rgb(0, 0, 0); flood-opacity: 1; lighting-color: rgb(255, 255, 255); stop-color: rgb(0, 0, 0); stop-opacity: 1; color-interpolation: sRGB; color-interpolation-filters: linearRGB; color-rendering: auto; fill: rgb(0, 0, 0); fill-opacity: 1; fill-rule: nonzero; marker-end: none; marker-mid: none; marker-start: none; mask-type: luminance; shape-rendering: auto; stroke: none; stroke-dasharray: none; stroke-dashoffset: 0px; stroke-linecap: butt; stroke-linejoin: miter; stroke-miterlimit: 4; stroke-opacity: 1; stroke-width: 1px; alignment-baseline: auto; baseline-shift: 0px; dominant-baseline: auto; text-anchor: start; writing-mode: horizontal-tb; vector-effect: none; paint-order: fill stroke markers; d: none; cx: 0px; cy: 0px; x: 0px; y: 0px; r: 0px; rx: auto; ry: auto;" version="1.1" xmlns:xlink="http://www.w3.org/1999/xlink"><style type="text/css">svg:not(:root) { overflow: hidden; }
* { box-sizing: border-box; }
* { font-size: 13px; }
svg { max-height: 100vh; border: none !important; }
#svg-map svg { max-height: 400px; }
#svg-map svg path { fill: rgb(153, 196, 176); stroke: rgb(51, 51, 51); stroke-width: 1; }
#svg-map svg path.svg-range1 { fill: rgb(194, 223, 115); }
#svg-map svg path.svg-range2 { fill: rgb(160, 189, 83); }
#svg-map svg path.svg-range5 { fill: rgb(175, 96, 68); }</style><svg xmlns="http://www.w3.org/2000/svg" xmlns:inkscape="http://www.inkscape.org/namespaces/inkscape" xmlns:xlink="http://www.w3.org/1999/xlink" viewBox="0 0 1097 540" version="1.1">
<!-- svg generated using QGIS www.qgis.org -->
<g id="3273220_id2012__3273220002" inkscape:groupmode="layer" inkscape:label="3273220_id2012__3273220002">
<g stroke="rgb(0,0,0)" fill="rgb(246,143,117)" stroke-linejoin="round" stroke-width="0.26">
<g id="3273220_id2012__3273220002_1">
<path d="M 539,339 L 541,341 L 543,341 L 546,341 L 549,341 L 550,341 L 552,341 L 553,341 L 556,340 L 559,340 L 562,340 L 565,340 L 570,341 L 571,341 L 572,341 L 576,341 L 579,342 L 582,342 L 585,343 L 588,343 L 589,343 L 591,344 L 592,344 L 593,344 L 594,344 L 597,345 L 599,346 L 600,347 L 594,370 L 592,374 L 590,382 L 588,392 L 587,395 L 587,397 L 586,399 L 585,401 L 585,403 L 583,410 L 566,415 L 563,416 L 554,419 L 547,423 L 545,425 L 544,426 L 540,429 L 539,430 L 538,430 L 535,432 L 532,433 L 531,434 L 530,434 L 529,434 L 526,435 L 525,435 L 524,436 L 523,436 L 522,436 L 521,436 L 520,436 L 518,437 L 516,436 L 514,436 L 513,436 L 510,436 L 508,435 L 505,434 L 502,434 L 497,432 L 496,432 L 495,432 L 493,431 L 489,430 L 487,430 L 481,428 L 464,428 L 463,428 L 461,428 L 452,428 L 452,422 L 452,421 L 452,419 L 453,416 L 454,413 L 455,413 L 456,412 L 457,412 L 458,410 L 459,408 L 460,407 L 461,406 L 462,404 L 463,403 L 464,402 L 464,401 L 466,400 L 466,399 L 467,399 L 468,397 L 468,394 L 469,392 L 469,391 L 469,390 L 469,388 L 470,387 L 470,386 L 471,385 L 472,384 L 472,383 L 472,382 L 473,382 L 474,382 L 475,383 L 476,383 L 477,384 L 479,384 L 480,385 L 483,385 L 484,385 L 484,384 L 485,384 L 486,383 L 487,383 L 488,382 L 489,382 L 490,382 L 491,382 L 492,382 L 494,382 L 497,383 L 499,384 L 500,384 L 501,383 L 501,382 L 502,381 L 503,380 L 503,379 L 504,378 L 504,377 L 504,376 L 505,375 L 505,373 L 505,372 L 506,370 L 506,369 L 506,368 L 506,366 L 505,365 L 504,364 L 504,363 L 503,362 L 501,358 L 501,357 L 501,356 L 500,355 L 500,354 L 500,353 L 499,350 L 499,349 L 499,348 L 499,347 L 499,346 L 499,343 L 499,342 L 500,341 L 503,341 L 506,341 L 507,341 L 508,341 L 509,341 L 511,341 L 513,341 L 514,340 L 515,339 L 516,338 L 517,338 L 518,337 L 519,337 L 520,337 L 521,337 L 522,337 L 523,337 L 524,337 L 527,337 L 530,337 L 535,338 L 538,339 L 539,339 " class="svg-range1" data-original-title="&lt;b&gt;SUKALUYU&lt;/b&gt;&lt;br /&gt;56" title=""/>
</g>
</g>
</g>
<g id="3273220_id2012__3273220003" inkscape:groupmode="layer" inkscape:label="3273220_id2012__3273220003">
<g stroke="rgb(0,0,0)" fill="rgb(251,143,195)" stroke-linejoin="round" stroke-width="0.26">
<g id="3273220_id2012__3273220003_1">
<path d="M 685,361 L 684,361 L 684,365 L 686,367 L 686,369 L 686,370 L 687,372 L 688,372 L 689,372 L 690,372 L 691,372 L 692,372 L 693,372 L 694,371 L 695,372 L 697,372 L 698,372 L 698,373 L 699,373 L 699,374 L 699,375 L 699,376 L 700,377 L 701,376 L 703,376 L 703,377 L 703,378 L 703,379 L 703,380 L 702,381 L 702,383 L 702,384 L 701,385 L 701,386 L 701,387 L 701,388 L 701,390 L 701,391 L 702,392 L 702,393 L 702,397 L 703,399 L 703,401 L 703,404 L 703,405 L 703,406 L 703,408 L 703,410 L 703,411 L 702,415 L 702,417 L 701,418 L 701,419 L 701,420 L 700,421 L 700,423 L 700,424 L 700,428 L 700,430 L 699,432 L 699,434 L 699,436 L 699,437 L 696,437 L 695,436 L 694,436 L 693,436 L 692,436 L 689,435 L 687,435 L 685,434 L 683,434 L 678,433 L 677,432 L 674,431 L 673,431 L 672,431 L 669,430 L 666,429 L 665,429 L 658,428 L 656,427 L 652,427 L 650,426 L 648,425 L 643,424 L 641,424 L 634,422 L 632,421 L 630,421 L 628,421 L 626,420 L 623,419 L 622,419 L 617,418 L 616,417 L 612,416 L 611,416 L 608,416 L 607,415 L 605,415 L 604,415 L 596,413 L 595,413 L 594,412 L 593,412 L 587,411 L 583,410 L 585,403 L 585,401 L 586,399 L 587,397 L 587,395 L 588,392 L 590,382 L 592,374 L 594,370 L 600,347 L 599,346 L 597,345 L 594,344 L 596,339 L 596,337 L 592,337 L 589,336 L 590,328 L 591,324 L 592,321 L 592,320 L 593,318 L 593,317 L 595,314 L 597,311 L 599,308 L 599,306 L 598,303 L 597,300 L 596,299 L 596,298 L 597,297 L 597,296 L 598,292 L 599,291 L 600,290 L 602,290 L 604,289 L 606,290 L 607,290 L 609,290 L 609,291 L 612,291 L 613,291 L 614,291 L 615,290 L 617,290 L 618,289 L 619,288 L 620,287 L 621,286 L 622,286 L 624,285 L 626,284 L 630,284 L 632,287 L 633,289 L 636,296 L 638,300 L 641,303 L 643,306 L 644,308 L 644,309 L 645,310 L 647,313 L 647,314 L 649,317 L 651,319 L 652,321 L 654,324 L 655,325 L 656,326 L 661,330 L 664,332 L 669,335 L 670,336 L 670,337 L 674,340 L 681,345 L 682,345 L 682,346 L 683,347 L 682,348 L 679,354 L 684,359 L 685,361 " class="svg-range2" data-original-title="&lt;b&gt;NEGLASARI&lt;/b&gt;&lt;br /&gt;72" title=""/>
</g>
</g>
</g>
<g id="3273220_id2012__3273220004" inkscape:groupmode="layer" inkscape:label="3273220_id2012__3273220004">
<g stroke="rgb(0,0,0)" fill="rgb(71,156,136)" stroke-linejoin="round" stroke-width="0.26">
<g id="3273220_id2012__3273220004_1">
<path d="M 472,17 L 473,18 L 474,17 L 476,19 L 481,20 L 483,22 L 485,22 L 486,23 L 487,34 L 489,43 L 490,44 L 492,46 L 492,50 L 493,62 L 495,73 L 494,76 L 497,77 L 501,77 L 504,76 L 507,77 L 508,78 L 512,77 L 514,77 L 516,78 L 520,79 L 524,79 L 526,79 L 528,78 L 529,78 L 530,78 L 530,79 L 532,79 L 533,79 L 534,79 L 535,81 L 539,86 L 541,87 L 540,89 L 541,90 L 542,91 L 541,92 L 540,93 L 539,94 L 538,95 L 536,96 L 535,97 L 534,98 L 533,99 L 533,100 L 534,101 L 535,102 L 536,104 L 537,105 L 537,106 L 537,107 L 537,109 L 537,110 L 538,110 L 539,111 L 538,112 L 537,113 L 536,114 L 535,116 L 533,117 L 532,119 L 530,120 L 529,120 L 529,121 L 529,123 L 528,125 L 529,128 L 530,131 L 531,133 L 533,136 L 534,139 L 536,142 L 538,145 L 538,146 L 539,146 L 539,147 L 539,148 L 539,149 L 539,151 L 538,153 L 538,154 L 538,155 L 537,156 L 536,158 L 535,159 L 534,160 L 533,161 L 532,162 L 532,163 L 531,167 L 530,172 L 530,173 L 531,174 L 529,176 L 526,178 L 526,180 L 526,181 L 527,182 L 527,183 L 528,184 L 527,185 L 525,185 L 525,186 L 525,187 L 525,188 L 525,189 L 526,190 L 526,191 L 525,192 L 524,192 L 524,193 L 523,193 L 523,194 L 525,197 L 527,199 L 527,200 L 528,201 L 527,201 L 528,203 L 530,205 L 531,206 L 531,207 L 533,208 L 533,211 L 533,212 L 534,213 L 534,214 L 535,215 L 536,217 L 537,220 L 539,221 L 545,222 L 549,221 L 550,221 L 551,220 L 551,219 L 553,219 L 554,219 L 554,220 L 555,220 L 557,221 L 559,222 L 560,222 L 562,223 L 562,225 L 562,226 L 563,226 L 564,226 L 567,226 L 568,227 L 569,227 L 573,231 L 574,233 L 575,234 L 576,236 L 578,242 L 578,243 L 579,244 L 581,247 L 580,248 L 579,248 L 578,248 L 577,248 L 576,248 L 575,248 L 575,249 L 574,249 L 574,250 L 574,251 L 573,252 L 573,256 L 573,257 L 573,258 L 573,259 L 573,260 L 573,261 L 573,266 L 572,269 L 571,272 L 570,273 L 570,278 L 570,279 L 570,282 L 570,283 L 569,283 L 567,286 L 567,287 L 565,287 L 564,287 L 563,289 L 562,289 L 563,291 L 564,293 L 564,294 L 564,295 L 564,296 L 564,297 L 563,299 L 563,301 L 562,303 L 562,304 L 563,305 L 564,305 L 565,305 L 567,306 L 568,306 L 569,306 L 570,306 L 571,306 L 572,306 L 573,306 L 573,307 L 574,307 L 576,308 L 577,308 L 577,307 L 577,306 L 578,304 L 579,304 L 579,303 L 579,302 L 578,301 L 578,300 L 579,299 L 579,297 L 579,294 L 580,290 L 582,290 L 585,290 L 587,291 L 590,292 L 592,292 L 593,292 L 594,292 L 596,292 L 598,292 L 598,290 L 599,286 L 599,285 L 599,283 L 600,284 L 601,281 L 601,279 L 604,280 L 604,278 L 604,273 L 605,270 L 607,267 L 611,263 L 613,264 L 613,265 L 615,266 L 617,268 L 620,270 L 622,270 L 627,274 L 628,275 L 627,276 L 626,278 L 628,279 L 628,281 L 630,282 L 630,284 L 626,284 L 624,285 L 622,286 L 621,286 L 620,287 L 619,288 L 618,289 L 617,290 L 615,290 L 614,291 L 613,291 L 612,291 L 609,291 L 609,290 L 607,290 L 606,290 L 604,289 L 602,290 L 600,290 L 599,291 L 598,292 L 597,296 L 597,297 L 596,298 L 596,299 L 597,300 L 598,303 L 599,306 L 599,308 L 597,311 L 595,314 L 593,317 L 593,318 L 592,320 L 592,321 L 591,324 L 590,328 L 589,336 L 592,337 L 596,337 L 596,339 L 594,344 L 593,344 L 592,344 L 591,344 L 589,343 L 588,343 L 585,343 L 582,342 L 579,342 L 576,341 L 572,341 L 571,341 L 570,341 L 565,340 L 562,340 L 559,340 L 556,340 L 553,341 L 552,341 L 550,341 L 549,341 L 546,341 L 543,341 L 541,341 L 539,339 L 539,338 L 539,337 L 539,336 L 539,335 L 538,334 L 538,332 L 537,331 L 537,330 L 536,330 L 536,328 L 535,326 L 534,324 L 534,323 L 534,322 L 534,321 L 534,317 L 533,316 L 533,315 L 532,314 L 532,313 L 531,312 L 530,311 L 529,310 L 528,308 L 528,307 L 527,307 L 527,306 L 525,306 L 524,305 L 523,305 L 521,304 L 519,304 L 518,304 L 516,303 L 515,302 L 514,302 L 513,302 L 513,301 L 511,301 L 510,300 L 509,300 L 507,300 L 507,299 L 506,299 L 505,299 L 503,298 L 502,297 L 501,297 L 500,297 L 499,296 L 498,296 L 497,295 L 496,295 L 495,295 L 494,294 L 492,293 L 491,293 L 490,292 L 488,291 L 488,290 L 487,289 L 485,288 L 485,287 L 485,286 L 485,285 L 485,284 L 485,283 L 486,281 L 486,279 L 486,278 L 486,276 L 486,275 L 487,274 L 484,274 L 482,274 L 481,274 L 479,274 L 478,274 L 477,274 L 476,273 L 475,273 L 474,273 L 473,272 L 470,271 L 469,269 L 468,268 L 468,267 L 468,266 L 468,264 L 467,262 L 468,261 L 468,260 L 468,258 L 468,256 L 467,256 L 466,254 L 464,253 L 464,251 L 460,247 L 461,247 L 461,246 L 459,245 L 457,244 L 457,243 L 456,243 L 455,242 L 454,241 L 453,239 L 453,238 L 451,236 L 449,234 L 448,232 L 448,230 L 448,229 L 447,227 L 447,226 L 445,225 L 445,224 L 444,224 L 443,223 L 442,222 L 441,222 L 439,221 L 438,221 L 436,221 L 435,220 L 434,220 L 433,219 L 432,219 L 431,218 L 430,217 L 429,216 L 428,214 L 427,212 L 426,209 L 425,208 L 424,204 L 425,202 L 424,200 L 423,198 L 423,197 L 422,194 L 423,193 L 423,192 L 423,191 L 424,189 L 424,188 L 425,187 L 425,186 L 425,185 L 426,183 L 426,181 L 426,179 L 426,178 L 426,176 L 426,173 L 427,172 L 429,170 L 430,168 L 431,165 L 432,163 L 433,161 L 433,160 L 433,159 L 434,158 L 434,157 L 433,155 L 433,153 L 432,151 L 432,150 L 432,149 L 432,148 L 431,147 L 431,145 L 430,143 L 429,140 L 429,138 L 428,137 L 429,136 L 429,134 L 429,132 L 429,131 L 429,130 L 429,129 L 429,128 L 429,126 L 430,124 L 430,122 L 429,121 L 428,120 L 426,117 L 426,115 L 425,115 L 425,114 L 424,113 L 423,112 L 423,111 L 422,110 L 422,109 L 421,107 L 421,105 L 421,104 L 421,103 L 418,101 L 419,98 L 419,96 L 420,95 L 421,95 L 421,93 L 421,92 L 421,90 L 421,89 L 422,87 L 423,86 L 425,84 L 426,83 L 427,78 L 427,77 L 428,74 L 428,72 L 428,71 L 429,70 L 429,67 L 430,65 L 431,64 L 432,63 L 434,56 L 434,52 L 434,49 L 435,46 L 435,45 L 435,44 L 435,43 L 436,42 L 436,41 L 436,40 L 437,39 L 438,38 L 439,37 L 440,36 L 441,35 L 442,34 L 443,33 L 445,32 L 446,31 L 447,29 L 448,28 L 450,26 L 452,23 L 452,22 L 454,19 L 455,18 L 456,17 L 458,15 L 460,14 L 461,12 L 462,12 L 465,14 L 469,16 L 470,16 L 471,17 L 472,17 " class="svg-range5" data-original-title="&lt;b&gt;CIGADUNG&lt;/b&gt;&lt;br /&gt;154" title=""/>
</g>
</g>
</g>
<g id="3273220_id2012__3273220001" inkscape:groupmode="layer" inkscape:label="3273220_id2012__3273220001">
<g stroke="rgb(0,0,0)" fill="rgb(130,96,83)" stroke-linejoin="round" stroke-width="0.26">
<g id="3273220_id2012__3273220001_1">
<path d="M 594,463 L 593,463 L 592,464 L 591,464 L 588,465 L 587,466 L 586,467 L 584,468 L 583,468 L 582,469 L 581,469 L 580,469 L 578,471 L 575,472 L 574,472 L 573,473 L 572,473 L 572,474 L 571,474 L 570,474 L 569,475 L 568,476 L 566,477 L 565,478 L 564,478 L 563,480 L 562,481 L 561,482 L 560,483 L 559,484 L 559,485 L 557,486 L 555,488 L 554,489 L 553,491 L 552,493 L 551,493 L 550,494 L 548,497 L 548,498 L 545,502 L 544,503 L 543,505 L 541,508 L 540,508 L 539,510 L 538,513 L 537,514 L 536,516 L 535,518 L 534,519 L 533,521 L 532,521 L 532,522 L 531,523 L 529,520 L 529,519 L 528,518 L 527,517 L 527,516 L 526,515 L 525,514 L 524,512 L 523,510 L 522,509 L 521,507 L 520,505 L 518,503 L 518,502 L 517,501 L 516,500 L 516,499 L 515,498 L 514,497 L 514,496 L 513,495 L 511,492 L 510,491 L 509,488 L 505,483 L 501,476 L 499,473 L 498,472 L 494,465 L 492,462 L 491,461 L 491,460 L 489,458 L 488,456 L 486,453 L 485,452 L 484,451 L 482,451 L 480,451 L 478,451 L 476,451 L 475,451 L 474,451 L 473,451 L 472,451 L 471,451 L 470,451 L 469,451 L 468,451 L 466,451 L 449,451 L 443,452 L 424,452 L 416,452 L 415,452 L 398,452 L 392,452 L 390,453 L 390,452 L 390,451 L 390,450 L 390,449 L 390,446 L 389,442 L 389,441 L 389,434 L 389,429 L 393,429 L 395,429 L 398,429 L 405,429 L 408,429 L 410,429 L 413,429 L 417,429 L 420,428 L 423,428 L 430,428 L 432,428 L 435,428 L 436,428 L 440,428 L 444,428 L 445,428 L 447,428 L 449,428 L 450,428 L 452,428 L 461,428 L 463,428 L 464,428 L 481,428 L 487,430 L 489,430 L 493,431 L 495,432 L 496,432 L 497,432 L 502,434 L 505,434 L 508,435 L 510,436 L 513,436 L 514,436 L 516,436 L 518,437 L 520,436 L 521,436 L 522,436 L 523,436 L 524,436 L 525,435 L 526,435 L 529,434 L 530,434 L 531,434 L 532,433 L 535,432 L 538,430 L 539,430 L 540,429 L 544,426 L 545,425 L 547,423 L 554,419 L 563,416 L 566,415 L 583,410 L 583,411 L 583,412 L 582,415 L 581,417 L 581,423 L 581,430 L 581,433 L 582,436 L 582,438 L 583,440 L 584,443 L 584,444 L 585,444 L 585,445 L 586,448 L 587,448 L 587,449 L 590,454 L 592,458 L 593,460 L 594,463 " class="svg-range1" data-original-title="&lt;b&gt;CIHAURGEULIS&lt;/b&gt;&lt;br /&gt;48" title=""/>
</g>
</g>
</g>
</svg></svg>