<svg id="svg-map" width="null" height="null" xmlns="http://www.w3.org/2000/svg" style="animation-delay: 0s; animation-direction: normal; animation-duration: 0s; animation-fill-mode: none; animation-iteration-count: 1; animation-name: none; animation-play-state: running; animation-timing-function: ease; background-attachment: scroll; background-blend-mode: normal; background-clip: border-box; background-color: rgba(0, 0, 0, 0); background-image: none; background-origin: padding-box; background-position: 0% 0%; background-repeat: repeat; background-size: auto; border-bottom-color: rgb(255, 255, 255); border-bottom-left-radius: 0px; border-bottom-right-radius: 0px; border-bottom-style: none; border-bottom-width: 0px; border-collapse: separate; border-image-outset: 0px; border-image-repeat: stretch; border-image-slice: 100%; border-image-source: none; border-image-width: 1; border-left-color: rgb(255, 255, 255); border-left-style: none; border-left-width: 0px; border-right-color: rgb(255, 255, 255); border-right-style: none; border-right-width: 0px; border-top-color: rgb(255, 255, 255); border-top-left-radius: 0px; border-top-right-radius: 0px; border-top-style: none; border-top-width: 0px; bottom: auto; box-shadow: none; box-sizing: border-box; break-after: auto; break-before: auto; break-inside: auto; caption-side: top; clear: none; clip: auto; color: rgb(255, 255, 255); content: ; cursor: auto; direction: ltr; display: inline; empty-cells: show; float: none; font-family: &quot;Open Sans&quot;, sans-serif; font-kerning: auto; font-size: 13px; font-stretch: normal; font-style: normal; font-variant: normal; font-variant-ligatures: normal; font-variant-caps: normal; font-variant-numeric: normal; font-weight: normal; height: 303.953px; image-rendering: auto; isolation: auto; left: auto; letter-spacing: normal; line-height: 18.5714px; list-style-image: none; list-style-position: outside; list-style-type: disc; margin-bottom: 0px; margin-left: 0px; margin-right: 0px; margin-top: 0px; max-height: 400px; max-width: none; min-height: 0px; min-width: 0px; mix-blend-mode: normal; motion-offset: 0px; motion-path: none; motion-rotation: auto 0deg; object-fit: fill; object-position: 50% 50%; opacity: 1; orphans: 2; outline-color: rgb(255, 255, 255); outline-offset: 0px; outline-style: none; outline-width: 0px; overflow-wrap: normal; overflow-x: hidden; overflow-y: hidden; padding-bottom: 0px; padding-left: 0px; padding-right: 0px; padding-top: 0px; pointer-events: auto; position: static; resize: none; right: auto; speak: normal; table-layout: auto; tab-size: 8; text-align: center; text-align-last: auto; text-decoration: none; text-indent: 0px; text-rendering: auto; text-shadow: none; text-size-adjust: 100%; text-overflow: clip; text-transform: none; top: auto; touch-action: auto; transition-delay: 0s; transition-duration: 0s; transition-property: all; transition-timing-function: ease; unicode-bidi: normal; vertical-align: baseline; visibility: visible; white-space: normal; widows: 2; width: 617.5px; will-change: auto; word-break: normal; word-spacing: 0px; word-wrap: normal; z-index: auto; zoom: 1; -webkit-appearance: none; backface-visibility: visible; -webkit-background-clip: border-box; -webkit-background-origin: padding-box; -webkit-border-horizontal-spacing: 0px; -webkit-border-image: none; -webkit-border-vertical-spacing: 0px; -webkit-box-align: stretch; -webkit-box-decoration-break: slice; -webkit-box-direction: normal; -webkit-box-flex: 0; -webkit-box-flex-group: 1; -webkit-box-lines: single; -webkit-box-ordinal-group: 1; -webkit-box-orient: horizontal; -webkit-box-pack: start; -webkit-box-reflect: none; -webkit-clip-path: none; column-count: auto; column-gap: normal; column-rule-color: rgb(255, 255, 255); column-rule-style: none; column-rule-width: 0px; column-span: none; column-width: auto; align-content: stretch; align-items: stretch; align-self: stretch; flex-basis: auto; flex-grow: 0; flex-shrink: 1; flex-direction: row; flex-wrap: nowrap; justify-content: flex-start; -webkit-font-smoothing: auto; -webkit-highlight: none; -webkit-hyphenate-character: auto; -webkit-line-break: auto; -webkit-line-clamp: none; -webkit-locale: &quot;en&quot;; -webkit-margin-before-collapse: collapse; -webkit-margin-after-collapse: collapse; -webkit-mask-box-image: none; -webkit-mask-box-image-outset: 0px; -webkit-mask-box-image-repeat: stretch; -webkit-mask-box-image-slice: 0 fill; -webkit-mask-box-image-source: none; -webkit-mask-box-image-width: auto; -webkit-mask-clip: border-box; -webkit-mask-composite: source-over; -webkit-mask-image: none; -webkit-mask-origin: border-box; -webkit-mask-position: 0% 0%; -webkit-mask-repeat: repeat; -webkit-mask-size: auto; order: 0; perspective: none; perspective-origin: 308.75px 151.969px; -webkit-print-color-adjust: economy; -webkit-rtl-ordering: logical; shape-outside: none; shape-image-threshold: 0; shape-margin: 0px; -webkit-tap-highlight-color: rgba(0, 0, 0, 0); -webkit-text-combine: none; -webkit-text-decorations-in-effect: none; -webkit-text-emphasis-color: rgb(255, 255, 255); -webkit-text-emphasis-position: over; -webkit-text-emphasis-style: none; -webkit-text-fill-color: rgb(255, 255, 255); -webkit-text-orientation: vertical-right; -webkit-text-security: none; -webkit-text-stroke-color: rgb(255, 255, 255); -webkit-text-stroke-width: 0px; transform: none; transform-origin: 308.75px 151.969px; transform-style: flat; -webkit-user-drag: auto; -webkit-user-modify: read-only; user-select: text; -webkit-writing-mode: horizontal-tb; -webkit-app-region: no-drag; buffered-rendering: auto; clip-path: none; clip-rule: nonzero; mask: none; filter: none; flood-color: rgb(0, 0, 0); flood-opacity: 1; lighting-color: rgb(255, 255, 255); stop-color: rgb(0, 0, 0); stop-opacity: 1; color-interpolation: sRGB; color-interpolation-filters: linearRGB; color-rendering: auto; fill: rgb(0, 0, 0); fill-opacity: 1; fill-rule: nonzero; marker-end: none; marker-mid: none; marker-start: none; mask-type: luminance; shape-rendering: auto; stroke: none; stroke-dasharray: none; stroke-dashoffset: 0px; stroke-linecap: butt; stroke-linejoin: miter; stroke-miterlimit: 4; stroke-opacity: 1; stroke-width: 1px; alignment-baseline: auto; baseline-shift: 0px; dominant-baseline: auto; text-anchor: start; writing-mode: horizontal-tb; vector-effect: none; paint-order: fill stroke markers; d: none; cx: 0px; cy: 0px; x: 0px; y: 0px; r: 0px; rx: auto; ry: auto;" version="1.1" xmlns:xlink="http://www.w3.org/1999/xlink"><style type="text/css">svg:not(:root) { overflow: hidden; }
* { box-sizing: border-box; }
* { font-size: 13px; }
svg { max-height: 100vh; border: none !important; }
#svg-map svg { max-height: 400px; }
#svg-map svg path { fill: rgb(153, 196, 176); stroke: rgb(51, 51, 51); stroke-width: 1; }
#svg-map svg path.svg-range1 { fill: rgb(194, 223, 115); }
#svg-map svg path.svg-range5 { fill: rgb(175, 96, 68); }</style><svg xmlns="http://www.w3.org/2000/svg" xmlns:inkscape="http://www.inkscape.org/namespaces/inkscape" xmlns:xlink="http://www.w3.org/1999/xlink" viewBox="0 0 1097 540" version="1.1">
<!-- svg generated using QGIS www.qgis.org -->
<g id="3273260_id2012__3273260002" inkscape:groupmode="layer" inkscape:label="3273260_id2012__3273260002">
<g stroke="rgb(0,0,0)" fill="rgb(143,192,112)" stroke-linejoin="round" stroke-width="0.26">
<g id="3273260_id2012__3273260002_1">
<path d="M 712,85 L 712,87 L 712,93 L 712,94 L 713,96 L 713,97 L 713,98 L 713,101 L 714,103 L 715,106 L 716,107 L 716,109 L 716,110 L 727,129 L 734,134 L 735,136 L 738,138 L 741,138 L 743,139 L 744,140 L 746,142 L 747,142 L 747,143 L 749,147 L 750,149 L 750,152 L 750,154 L 750,156 L 749,158 L 748,161 L 748,165 L 748,166 L 748,168 L 748,170 L 748,171 L 750,172 L 751,174 L 754,175 L 753,177 L 750,180 L 749,182 L 747,185 L 746,189 L 745,192 L 744,196 L 742,199 L 740,202 L 736,204 L 730,205 L 728,204 L 727,204 L 724,203 L 721,203 L 718,204 L 717,205 L 714,206 L 714,207 L 713,209 L 713,211 L 713,213 L 712,216 L 712,220 L 713,223 L 714,225 L 716,228 L 717,232 L 716,235 L 714,238 L 710,241 L 708,243 L 706,245 L 703,247 L 702,249 L 701,251 L 700,252 L 698,254 L 697,256 L 697,258 L 695,262 L 694,266 L 694,268 L 693,270 L 693,272 L 693,273 L 693,275 L 692,276 L 692,275 L 692,273 L 692,271 L 692,270 L 690,270 L 689,270 L 688,270 L 687,271 L 684,276 L 683,277 L 681,279 L 675,279 L 672,278 L 669,276 L 668,276 L 666,277 L 665,276 L 663,275 L 661,275 L 660,274 L 659,273 L 658,272 L 656,271 L 655,272 L 652,274 L 651,275 L 648,275 L 646,274 L 645,274 L 643,273 L 641,273 L 639,273 L 638,275 L 636,286 L 635,288 L 629,292 L 627,293 L 626,293 L 625,294 L 624,295 L 623,295 L 620,297 L 619,297 L 616,298 L 614,298 L 613,299 L 610,300 L 607,301 L 604,301 L 602,301 L 601,301 L 601,302 L 600,302 L 598,303 L 596,305 L 594,307 L 592,309 L 590,310 L 589,311 L 587,313 L 586,314 L 586,316 L 584,318 L 582,318 L 579,317 L 577,316 L 576,316 L 574,317 L 573,318 L 572,318 L 571,319 L 569,321 L 566,322 L 566,323 L 564,324 L 563,325 L 561,327 L 560,328 L 559,330 L 557,332 L 556,336 L 556,339 L 556,340 L 555,342 L 556,344 L 556,345 L 556,346 L 558,349 L 559,350 L 560,351 L 561,352 L 562,354 L 563,355 L 563,356 L 563,357 L 563,358 L 563,359 L 563,360 L 562,360 L 561,361 L 558,360 L 557,360 L 556,360 L 555,359 L 554,359 L 552,360 L 551,361 L 551,362 L 551,364 L 553,366 L 555,369 L 555,371 L 555,373 L 555,374 L 554,375 L 553,377 L 550,378 L 548,379 L 547,380 L 546,380 L 545,381 L 544,382 L 543,384 L 543,385 L 542,387 L 543,388 L 544,390 L 545,391 L 546,392 L 547,392 L 549,393 L 552,394 L 552,397 L 552,398 L 552,399 L 550,401 L 550,402 L 549,402 L 549,403 L 547,403 L 546,403 L 545,402 L 542,399 L 539,399 L 535,398 L 533,399 L 532,400 L 532,402 L 531,405 L 531,406 L 531,410 L 529,413 L 528,415 L 528,417 L 527,419 L 526,421 L 525,422 L 524,423 L 523,423 L 522,423 L 522,424 L 518,426 L 513,421 L 506,414 L 504,412 L 502,408 L 501,407 L 500,406 L 499,404 L 498,402 L 496,402 L 492,401 L 489,400 L 487,400 L 487,399 L 486,398 L 474,395 L 471,395 L 466,394 L 463,394 L 460,394 L 458,394 L 450,394 L 447,393 L 446,394 L 445,394 L 443,393 L 441,390 L 439,389 L 440,387 L 442,385 L 445,383 L 447,382 L 448,381 L 448,379 L 449,378 L 451,376 L 453,375 L 451,375 L 450,376 L 448,376 L 447,376 L 445,375 L 442,374 L 442,373 L 444,372 L 445,370 L 446,368 L 446,367 L 445,366 L 446,366 L 447,366 L 448,367 L 449,368 L 449,369 L 451,368 L 453,366 L 456,367 L 459,366 L 463,365 L 464,365 L 464,364 L 463,363 L 462,362 L 460,362 L 459,361 L 458,360 L 458,359 L 459,358 L 460,356 L 461,348 L 461,347 L 460,346 L 458,345 L 458,343 L 459,342 L 456,335 L 455,333 L 455,331 L 455,330 L 454,329 L 452,327 L 451,326 L 451,325 L 450,325 L 448,324 L 447,323 L 446,323 L 445,322 L 445,321 L 445,320 L 445,319 L 445,318 L 444,317 L 443,316 L 442,315 L 441,315 L 440,315 L 438,316 L 438,314 L 438,312 L 437,310 L 437,308 L 438,307 L 441,305 L 441,304 L 442,303 L 443,302 L 442,299 L 442,297 L 443,296 L 442,294 L 440,294 L 440,291 L 441,288 L 443,287 L 446,286 L 446,285 L 446,284 L 446,283 L 447,282 L 448,282 L 448,281 L 448,280 L 448,278 L 448,277 L 448,276 L 447,275 L 448,275 L 447,273 L 447,272 L 447,270 L 447,269 L 446,267 L 445,264 L 445,259 L 445,258 L 446,258 L 447,257 L 449,256 L 449,254 L 450,253 L 450,252 L 450,251 L 449,250 L 447,249 L 445,249 L 440,247 L 439,246 L 437,245 L 437,244 L 434,242 L 433,242 L 432,241 L 430,237 L 429,234 L 428,232 L 428,230 L 427,227 L 428,226 L 429,224 L 429,222 L 429,220 L 428,217 L 428,216 L 427,214 L 426,213 L 425,211 L 424,211 L 423,210 L 421,209 L 421,207 L 421,204 L 421,202 L 421,201 L 421,199 L 420,198 L 420,196 L 419,196 L 419,194 L 419,193 L 418,192 L 418,191 L 419,189 L 419,188 L 419,187 L 418,186 L 419,184 L 419,182 L 419,180 L 420,180 L 420,178 L 422,176 L 422,175 L 423,175 L 425,174 L 427,173 L 428,172 L 429,172 L 430,171 L 431,171 L 433,170 L 433,169 L 433,167 L 431,160 L 443,169 L 444,169 L 450,172 L 453,174 L 454,175 L 456,178 L 457,181 L 459,183 L 459,184 L 459,185 L 459,188 L 459,193 L 459,196 L 461,199 L 462,202 L 465,206 L 467,208 L 467,210 L 468,210 L 468,212 L 469,214 L 469,215 L 469,216 L 469,218 L 470,217 L 471,217 L 474,216 L 474,215 L 476,211 L 477,209 L 478,208 L 479,207 L 481,206 L 482,205 L 483,206 L 484,207 L 485,207 L 486,207 L 487,206 L 488,204 L 488,202 L 488,201 L 489,199 L 489,198 L 490,198 L 491,198 L 493,199 L 494,200 L 495,197 L 496,195 L 498,192 L 498,191 L 502,188 L 503,186 L 504,183 L 504,182 L 504,181 L 506,177 L 507,177 L 509,177 L 512,177 L 517,173 L 518,173 L 523,170 L 524,169 L 524,168 L 523,167 L 521,166 L 520,165 L 520,164 L 521,162 L 522,161 L 523,160 L 522,158 L 522,157 L 523,156 L 525,155 L 526,154 L 526,153 L 526,150 L 526,148 L 527,147 L 528,143 L 528,141 L 529,139 L 529,135 L 530,134 L 533,131 L 534,130 L 534,128 L 535,127 L 537,126 L 538,125 L 541,124 L 544,120 L 545,117 L 546,117 L 547,117 L 549,116 L 550,114 L 551,113 L 551,111 L 551,110 L 550,108 L 550,107 L 551,105 L 552,105 L 555,104 L 560,102 L 561,102 L 562,102 L 564,102 L 565,103 L 566,104 L 567,104 L 567,103 L 568,102 L 569,102 L 570,99 L 570,96 L 571,96 L 572,96 L 574,95 L 575,96 L 577,97 L 578,98 L 579,99 L 583,99 L 585,98 L 588,95 L 590,94 L 591,92 L 592,90 L 594,89 L 596,88 L 597,86 L 598,85 L 599,83 L 600,81 L 601,79 L 602,78 L 603,75 L 603,73 L 604,73 L 605,72 L 605,73 L 605,74 L 605,75 L 606,75 L 607,75 L 606,78 L 606,80 L 606,83 L 606,84 L 605,89 L 604,92 L 603,93 L 602,96 L 602,98 L 603,100 L 603,101 L 603,102 L 604,101 L 607,100 L 610,98 L 611,98 L 615,97 L 616,99 L 619,102 L 621,103 L 629,105 L 634,107 L 640,111 L 642,111 L 643,112 L 642,113 L 642,114 L 640,115 L 639,116 L 637,119 L 636,122 L 635,127 L 636,129 L 637,132 L 638,133 L 638,134 L 638,137 L 640,139 L 641,140 L 642,144 L 644,146 L 646,146 L 652,150 L 654,152 L 655,153 L 657,152 L 658,153 L 658,154 L 657,157 L 657,159 L 658,160 L 660,162 L 664,164 L 664,165 L 665,170 L 666,172 L 666,173 L 668,175 L 670,176 L 673,177 L 674,178 L 676,177 L 678,176 L 679,175 L 680,173 L 680,171 L 678,166 L 676,161 L 676,160 L 677,158 L 680,154 L 686,153 L 689,153 L 690,150 L 690,149 L 690,147 L 689,147 L 687,146 L 688,144 L 689,139 L 690,137 L 690,135 L 689,135 L 688,131 L 688,130 L 691,129 L 692,128 L 693,127 L 695,124 L 697,122 L 699,118 L 700,116 L 703,114 L 704,113 L 705,112 L 706,111 L 707,111 L 708,111 L 709,110 L 710,108 L 709,106 L 709,104 L 709,101 L 710,99 L 710,96 L 711,93 L 710,90 L 710,89 L 712,85 " class="svg-range5" data-original-title="&lt;b&gt;CIUMBULEUIT&lt;/b&gt;&lt;br /&gt;186" title=""/>
</g>
</g>
</g>
<g id="3273260_id2012__3273260003" inkscape:groupmode="layer" inkscape:label="3273260_id2012__3273260003">
<g stroke="rgb(0,0,0)" fill="rgb(231,188,14)" stroke-linejoin="round" stroke-width="0.26">
<g id="3273260_id2012__3273260003_1">
<path d="M 457,30 L 457,32 L 457,34 L 457,36 L 456,38 L 456,39 L 457,41 L 457,44 L 457,48 L 457,51 L 455,53 L 455,55 L 454,56 L 453,58 L 452,59 L 452,66 L 453,75 L 453,84 L 450,85 L 448,87 L 445,89 L 444,92 L 445,94 L 445,96 L 444,98 L 446,98 L 446,102 L 445,104 L 442,106 L 443,118 L 443,121 L 444,123 L 444,124 L 442,125 L 443,128 L 446,129 L 447,129 L 448,131 L 447,133 L 444,132 L 442,132 L 440,131 L 439,130 L 437,130 L 436,132 L 436,133 L 438,135 L 439,136 L 439,138 L 439,139 L 442,146 L 441,150 L 438,151 L 437,153 L 436,155 L 435,157 L 432,158 L 431,159 L 431,160 L 433,167 L 433,169 L 433,170 L 431,171 L 430,171 L 429,172 L 428,172 L 427,173 L 425,174 L 423,175 L 422,175 L 422,176 L 420,178 L 420,180 L 419,180 L 419,182 L 419,184 L 418,186 L 419,187 L 419,188 L 419,189 L 418,191 L 418,192 L 419,193 L 419,194 L 419,196 L 420,196 L 420,198 L 421,199 L 421,201 L 421,202 L 421,204 L 421,207 L 421,209 L 423,210 L 424,211 L 425,211 L 426,213 L 427,214 L 428,216 L 428,217 L 429,220 L 429,222 L 429,224 L 428,226 L 427,227 L 428,230 L 428,232 L 429,234 L 430,237 L 432,241 L 433,242 L 434,242 L 437,244 L 437,245 L 439,246 L 440,247 L 445,249 L 447,249 L 449,250 L 450,251 L 450,252 L 450,253 L 449,254 L 449,256 L 447,257 L 446,258 L 445,258 L 445,259 L 445,264 L 446,267 L 447,269 L 447,270 L 447,272 L 447,273 L 448,275 L 447,275 L 448,276 L 448,277 L 448,278 L 448,280 L 448,281 L 448,282 L 447,282 L 446,283 L 446,284 L 446,285 L 446,286 L 443,287 L 441,288 L 439,290 L 439,291 L 436,292 L 434,293 L 432,293 L 431,293 L 430,293 L 428,292 L 427,292 L 426,292 L 424,293 L 422,292 L 418,291 L 416,291 L 414,290 L 412,290 L 411,291 L 410,291 L 408,291 L 407,291 L 406,292 L 405,292 L 404,292 L 403,290 L 402,290 L 401,289 L 400,288 L 399,284 L 397,284 L 395,284 L 394,284 L 392,284 L 390,284 L 390,286 L 390,289 L 391,289 L 391,293 L 390,298 L 390,300 L 389,301 L 388,301 L 386,300 L 384,300 L 382,300 L 379,299 L 378,298 L 376,297 L 371,293 L 369,291 L 368,290 L 367,289 L 366,288 L 365,288 L 364,288 L 359,288 L 357,288 L 355,288 L 353,287 L 349,287 L 347,286 L 345,286 L 345,284 L 346,282 L 346,279 L 347,277 L 347,276 L 347,274 L 349,270 L 350,268 L 352,267 L 352,266 L 354,266 L 357,265 L 360,264 L 361,264 L 363,263 L 364,263 L 366,261 L 367,259 L 369,256 L 370,254 L 370,253 L 370,252 L 369,252 L 368,251 L 365,248 L 362,246 L 360,245 L 359,244 L 357,242 L 355,241 L 354,240 L 353,238 L 352,237 L 352,235 L 352,234 L 351,233 L 351,232 L 351,231 L 351,230 L 352,228 L 352,225 L 352,224 L 353,223 L 353,220 L 354,218 L 354,217 L 354,216 L 354,215 L 354,214 L 355,213 L 355,212 L 355,211 L 356,209 L 356,208 L 357,204 L 357,202 L 358,201 L 358,197 L 359,195 L 359,194 L 360,192 L 360,191 L 361,187 L 362,182 L 362,181 L 363,176 L 364,171 L 365,167 L 366,165 L 366,163 L 367,162 L 367,161 L 367,159 L 367,158 L 368,155 L 369,151 L 369,149 L 371,144 L 372,136 L 373,131 L 374,130 L 374,129 L 374,128 L 374,127 L 375,126 L 375,125 L 375,124 L 375,123 L 376,121 L 377,116 L 378,113 L 378,111 L 378,110 L 381,98 L 382,95 L 382,94 L 383,94 L 384,94 L 386,94 L 387,95 L 391,97 L 393,97 L 395,97 L 396,97 L 397,96 L 398,94 L 398,92 L 397,91 L 397,88 L 397,87 L 396,86 L 396,83 L 396,82 L 397,80 L 398,79 L 401,77 L 403,76 L 404,74 L 405,73 L 406,71 L 406,70 L 406,69 L 407,67 L 407,66 L 407,65 L 408,65 L 408,64 L 410,62 L 411,61 L 412,60 L 413,59 L 414,58 L 414,57 L 414,56 L 413,55 L 411,54 L 408,53 L 407,52 L 407,51 L 407,50 L 408,49 L 409,47 L 411,46 L 412,44 L 415,42 L 416,41 L 417,40 L 417,39 L 418,38 L 418,37 L 417,36 L 417,35 L 416,35 L 415,34 L 412,33 L 410,33 L 409,32 L 407,32 L 406,31 L 403,31 L 401,30 L 400,30 L 399,30 L 398,29 L 399,22 L 399,15 L 400,12 L 402,12 L 411,13 L 413,13 L 419,14 L 424,16 L 427,19 L 427,23 L 427,25 L 428,26 L 431,26 L 432,27 L 434,30 L 434,31 L 433,34 L 433,36 L 434,39 L 435,42 L 437,44 L 439,47 L 439,48 L 438,51 L 440,52 L 441,52 L 444,55 L 447,56 L 449,58 L 448,55 L 449,52 L 450,49 L 451,46 L 457,30 " class="svg-range1" data-original-title="&lt;b&gt;LEDENG&lt;/b&gt;&lt;br /&gt;83" title=""/>
</g>
</g>
</g>
<g id="3273260_id2012__3273260001" inkscape:groupmode="layer" inkscape:label="3273260_id2012__3273260001">
<g stroke="rgb(0,0,0)" fill="rgb(38,27,191)" stroke-linejoin="round" stroke-width="0.26">
<g id="3273260_id2012__3273260001_1">
<path d="M 441,288 L 440,291 L 440,294 L 442,294 L 443,296 L 442,297 L 442,299 L 443,302 L 442,303 L 441,304 L 441,305 L 438,307 L 437,308 L 437,310 L 438,312 L 438,314 L 438,316 L 440,315 L 441,315 L 442,315 L 443,316 L 444,317 L 445,318 L 445,319 L 445,320 L 445,321 L 445,322 L 446,323 L 447,323 L 448,324 L 450,325 L 451,325 L 451,326 L 452,327 L 454,329 L 455,330 L 455,331 L 455,333 L 456,335 L 459,342 L 458,343 L 458,345 L 460,346 L 461,347 L 461,348 L 460,356 L 459,358 L 458,359 L 458,360 L 459,361 L 460,362 L 462,362 L 463,363 L 464,364 L 464,365 L 463,365 L 459,366 L 456,367 L 453,366 L 451,368 L 449,369 L 449,368 L 448,367 L 447,366 L 446,366 L 445,366 L 446,367 L 446,368 L 445,370 L 444,372 L 442,373 L 442,374 L 445,375 L 447,376 L 448,376 L 450,376 L 451,375 L 453,375 L 451,376 L 449,378 L 448,379 L 448,381 L 447,382 L 445,383 L 442,385 L 440,387 L 439,389 L 441,390 L 443,393 L 445,394 L 446,394 L 447,393 L 450,394 L 458,394 L 460,394 L 463,394 L 466,394 L 471,395 L 474,395 L 486,398 L 487,399 L 487,400 L 489,400 L 492,401 L 496,402 L 498,402 L 499,404 L 500,406 L 501,407 L 502,408 L 504,412 L 506,414 L 513,421 L 518,426 L 516,427 L 515,428 L 515,430 L 514,431 L 515,432 L 517,433 L 517,434 L 518,436 L 518,437 L 518,438 L 518,439 L 518,440 L 517,441 L 517,442 L 516,443 L 516,444 L 515,445 L 514,446 L 514,447 L 513,448 L 512,449 L 511,450 L 511,451 L 510,452 L 509,452 L 508,452 L 508,453 L 507,453 L 506,453 L 506,454 L 506,455 L 506,456 L 506,457 L 506,458 L 507,458 L 507,459 L 508,460 L 508,461 L 509,462 L 509,463 L 509,465 L 508,466 L 507,467 L 506,468 L 505,468 L 504,469 L 502,470 L 501,470 L 499,471 L 498,471 L 496,472 L 495,472 L 495,473 L 494,473 L 494,474 L 494,475 L 494,476 L 494,477 L 494,478 L 494,479 L 494,480 L 495,480 L 495,481 L 495,482 L 495,483 L 495,484 L 494,484 L 494,485 L 493,485 L 493,486 L 492,486 L 491,487 L 491,488 L 490,489 L 490,490 L 491,491 L 491,492 L 491,493 L 492,494 L 493,495 L 493,496 L 494,497 L 495,498 L 495,500 L 495,502 L 494,503 L 495,504 L 495,505 L 495,506 L 495,507 L 495,508 L 495,509 L 495,510 L 495,511 L 495,512 L 496,513 L 497,514 L 498,514 L 499,514 L 500,514 L 501,514 L 502,514 L 503,515 L 504,515 L 505,515 L 506,517 L 505,518 L 503,518 L 501,518 L 499,519 L 498,519 L 496,519 L 494,518 L 493,518 L 493,517 L 491,516 L 489,515 L 488,513 L 486,512 L 486,511 L 485,511 L 484,509 L 482,507 L 482,506 L 480,504 L 479,503 L 476,503 L 474,504 L 474,505 L 473,507 L 473,508 L 472,511 L 472,512 L 472,513 L 471,514 L 470,518 L 470,519 L 469,520 L 469,521 L 469,523 L 468,521 L 466,518 L 466,517 L 465,515 L 464,514 L 464,513 L 463,512 L 463,511 L 461,508 L 459,507 L 459,506 L 458,506 L 457,505 L 456,504 L 454,503 L 453,503 L 453,502 L 451,502 L 447,500 L 445,499 L 437,497 L 434,496 L 432,496 L 431,496 L 428,496 L 427,496 L 425,495 L 422,494 L 421,494 L 420,492 L 419,492 L 418,491 L 417,490 L 416,489 L 415,488 L 414,487 L 413,486 L 412,485 L 412,484 L 411,484 L 410,482 L 408,481 L 408,480 L 407,479 L 407,478 L 406,477 L 405,476 L 405,475 L 404,473 L 404,472 L 403,471 L 403,470 L 402,469 L 402,468 L 401,468 L 401,467 L 401,466 L 400,466 L 400,465 L 399,463 L 398,461 L 397,460 L 397,458 L 396,456 L 395,456 L 395,455 L 395,454 L 394,452 L 392,450 L 392,449 L 391,447 L 390,445 L 389,443 L 389,441 L 388,440 L 388,438 L 387,437 L 386,434 L 386,433 L 385,430 L 384,427 L 384,426 L 385,425 L 386,425 L 386,423 L 386,422 L 386,421 L 386,420 L 386,419 L 386,418 L 384,416 L 383,415 L 382,415 L 381,415 L 380,414 L 379,413 L 378,413 L 377,411 L 376,409 L 373,404 L 372,402 L 371,401 L 369,398 L 368,397 L 367,395 L 366,393 L 365,391 L 364,390 L 363,389 L 362,388 L 361,386 L 360,385 L 357,382 L 357,381 L 355,379 L 354,378 L 354,377 L 353,376 L 352,376 L 352,375 L 351,374 L 350,373 L 349,372 L 349,371 L 347,369 L 346,368 L 345,367 L 344,365 L 343,363 L 342,362 L 342,361 L 342,360 L 341,359 L 340,357 L 340,355 L 339,353 L 339,352 L 338,351 L 338,350 L 338,349 L 338,344 L 338,337 L 339,334 L 339,333 L 339,330 L 339,329 L 341,318 L 341,317 L 341,315 L 341,314 L 342,314 L 342,312 L 342,311 L 342,309 L 343,304 L 343,303 L 344,295 L 344,293 L 344,291 L 345,289 L 345,286 L 347,286 L 349,287 L 353,287 L 355,288 L 357,288 L 359,288 L 364,288 L 365,288 L 366,288 L 367,289 L 368,290 L 369,291 L 371,293 L 376,297 L 378,298 L 379,299 L 382,300 L 384,300 L 386,300 L 388,301 L 389,301 L 390,300 L 390,298 L 391,293 L 391,289 L 390,289 L 390,286 L 390,284 L 392,284 L 394,284 L 395,284 L 397,284 L 399,284 L 400,288 L 401,289 L 402,290 L 403,290 L 404,292 L 405,292 L 406,292 L 407,291 L 408,291 L 410,291 L 411,291 L 412,290 L 414,290 L 416,291 L 418,291 L 422,292 L 424,293 L 426,292 L 427,292 L 428,292 L 430,293 L 431,293 L 432,293 L 434,293 L 436,292 L 439,291 L 439,290 L 441,288 " class="svg-range1" data-original-title="&lt;b&gt;HEGARMANAH&lt;/b&gt;&lt;br /&gt;84" title=""/>
</g>
</g>
</g>
</svg></svg>