<svg id="svg-map" width="null" height="null" xmlns="http://www.w3.org/2000/svg" style="animation-delay: 0s; animation-direction: normal; animation-duration: 0s; animation-fill-mode: none; animation-iteration-count: 1; animation-name: none; animation-play-state: running; animation-timing-function: ease; background-attachment: scroll; background-blend-mode: normal; background-clip: border-box; background-color: rgba(0, 0, 0, 0); background-image: none; background-origin: padding-box; background-position: 0% 0%; background-repeat: repeat; background-size: auto; border-bottom-color: rgb(255, 255, 255); border-bottom-left-radius: 0px; border-bottom-right-radius: 0px; border-bottom-style: none; border-bottom-width: 0px; border-collapse: separate; border-image-outset: 0px; border-image-repeat: stretch; border-image-slice: 100%; border-image-source: none; border-image-width: 1; border-left-color: rgb(255, 255, 255); border-left-style: none; border-left-width: 0px; border-right-color: rgb(255, 255, 255); border-right-style: none; border-right-width: 0px; border-top-color: rgb(255, 255, 255); border-top-left-radius: 0px; border-top-right-radius: 0px; border-top-style: none; border-top-width: 0px; bottom: auto; box-shadow: none; box-sizing: border-box; break-after: auto; break-before: auto; break-inside: auto; caption-side: top; clear: none; clip: auto; color: rgb(255, 255, 255); content: ; cursor: auto; direction: ltr; display: inline; empty-cells: show; float: none; font-family: &quot;Open Sans&quot;, sans-serif; font-kerning: auto; font-size: 13px; font-stretch: normal; font-style: normal; font-variant: normal; font-variant-ligatures: normal; font-variant-caps: normal; font-variant-numeric: normal; font-weight: normal; height: 303.953px; image-rendering: auto; isolation: auto; left: auto; letter-spacing: normal; line-height: 18.5714px; list-style-image: none; list-style-position: outside; list-style-type: disc; margin-bottom: 0px; margin-left: 0px; margin-right: 0px; margin-top: 0px; max-height: 400px; max-width: none; min-height: 0px; min-width: 0px; mix-blend-mode: normal; motion-offset: 0px; motion-path: none; motion-rotation: auto 0deg; object-fit: fill; object-position: 50% 50%; opacity: 1; orphans: 2; outline-color: rgb(255, 255, 255); outline-offset: 0px; outline-style: none; outline-width: 0px; overflow-wrap: normal; overflow-x: hidden; overflow-y: hidden; padding-bottom: 0px; padding-left: 0px; padding-right: 0px; padding-top: 0px; pointer-events: auto; position: static; resize: none; right: auto; speak: normal; table-layout: auto; tab-size: 8; text-align: center; text-align-last: auto; text-decoration: none; text-indent: 0px; text-rendering: auto; text-shadow: none; text-size-adjust: 100%; text-overflow: clip; text-transform: none; top: auto; touch-action: auto; transition-delay: 0s; transition-duration: 0s; transition-property: all; transition-timing-function: ease; unicode-bidi: normal; vertical-align: baseline; visibility: visible; white-space: normal; widows: 2; width: 617.5px; will-change: auto; word-break: normal; word-spacing: 0px; word-wrap: normal; z-index: auto; zoom: 1; -webkit-appearance: none; backface-visibility: visible; -webkit-background-clip: border-box; -webkit-background-origin: padding-box; -webkit-border-horizontal-spacing: 0px; -webkit-border-image: none; -webkit-border-vertical-spacing: 0px; -webkit-box-align: stretch; -webkit-box-decoration-break: slice; -webkit-box-direction: normal; -webkit-box-flex: 0; -webkit-box-flex-group: 1; -webkit-box-lines: single; -webkit-box-ordinal-group: 1; -webkit-box-orient: horizontal; -webkit-box-pack: start; -webkit-box-reflect: none; -webkit-clip-path: none; column-count: auto; column-gap: normal; column-rule-color: rgb(255, 255, 255); column-rule-style: none; column-rule-width: 0px; column-span: none; column-width: auto; align-content: stretch; align-items: stretch; align-self: stretch; flex-basis: auto; flex-grow: 0; flex-shrink: 1; flex-direction: row; flex-wrap: nowrap; justify-content: flex-start; -webkit-font-smoothing: auto; -webkit-highlight: none; -webkit-hyphenate-character: auto; -webkit-line-break: auto; -webkit-line-clamp: none; -webkit-locale: &quot;en&quot;; -webkit-margin-before-collapse: collapse; -webkit-margin-after-collapse: collapse; -webkit-mask-box-image: none; -webkit-mask-box-image-outset: 0px; -webkit-mask-box-image-repeat: stretch; -webkit-mask-box-image-slice: 0 fill; -webkit-mask-box-image-source: none; -webkit-mask-box-image-width: auto; -webkit-mask-clip: border-box; -webkit-mask-composite: source-over; -webkit-mask-image: none; -webkit-mask-origin: border-box; -webkit-mask-position: 0% 0%; -webkit-mask-repeat: repeat; -webkit-mask-size: auto; order: 0; perspective: none; perspective-origin: 308.75px 151.969px; -webkit-print-color-adjust: economy; -webkit-rtl-ordering: logical; shape-outside: none; shape-image-threshold: 0; shape-margin: 0px; -webkit-tap-highlight-color: rgba(0, 0, 0, 0); -webkit-text-combine: none; -webkit-text-decorations-in-effect: none; -webkit-text-emphasis-color: rgb(255, 255, 255); -webkit-text-emphasis-position: over; -webkit-text-emphasis-style: none; -webkit-text-fill-color: rgb(255, 255, 255); -webkit-text-orientation: vertical-right; -webkit-text-security: none; -webkit-text-stroke-color: rgb(255, 255, 255); -webkit-text-stroke-width: 0px; transform: none; transform-origin: 308.75px 151.969px; transform-style: flat; -webkit-user-drag: auto; -webkit-user-modify: read-only; user-select: text; -webkit-writing-mode: horizontal-tb; -webkit-app-region: no-drag; buffered-rendering: auto; clip-path: none; clip-rule: nonzero; mask: none; filter: none; flood-color: rgb(0, 0, 0); flood-opacity: 1; lighting-color: rgb(255, 255, 255); stop-color: rgb(0, 0, 0); stop-opacity: 1; color-interpolation: sRGB; color-interpolation-filters: linearRGB; color-rendering: auto; fill: rgb(0, 0, 0); fill-opacity: 1; fill-rule: nonzero; marker-end: none; marker-mid: none; marker-start: none; mask-type: luminance; shape-rendering: auto; stroke: none; stroke-dasharray: none; stroke-dashoffset: 0px; stroke-linecap: butt; stroke-linejoin: miter; stroke-miterlimit: 4; stroke-opacity: 1; stroke-width: 1px; alignment-baseline: auto; baseline-shift: 0px; dominant-baseline: auto; text-anchor: start; writing-mode: horizontal-tb; vector-effect: none; paint-order: fill stroke markers; d: none; cx: 0px; cy: 0px; x: 0px; y: 0px; r: 0px; rx: auto; ry: auto;" version="1.1" xmlns:xlink="http://www.w3.org/1999/xlink"><style type="text/css">svg:not(:root) { overflow: hidden; }
* { box-sizing: border-box; }
* { font-size: 13px; }
svg { max-height: 100vh; border: none !important; }
#svg-map svg { max-height: 400px; }
#svg-map svg path { fill: rgb(153, 196, 176); stroke: rgb(51, 51, 51); stroke-width: 1; }
#svg-map svg path.svg-range1 { fill: rgb(194, 223, 115); }
#svg-map svg path.svg-range2 { fill: rgb(160, 189, 83); }
#svg-map svg path.svg-range5 { fill: rgb(175, 96, 68); }</style><svg xmlns="http://www.w3.org/2000/svg" xmlns:inkscape="http://www.inkscape.org/namespaces/inkscape" xmlns:xlink="http://www.w3.org/1999/xlink" viewBox="0 0 1097 540" version="1.1">
<!-- svg generated using QGIS www.qgis.org -->
<g id="3273142_id2012__3273142001" inkscape:groupmode="layer" inkscape:label="3273142_id2012__3273142001">
<g stroke="rgb(0,0,0)" fill="rgb(129,153,22)" stroke-linejoin="round" stroke-width="0.26">
<g id="3273142_id2012__3273142001_1">
<path d="M 507,14 L 506,15 L 505,16 L 506,19 L 504,20 L 501,27 L 498,29 L 495,30 L 496,31 L 497,33 L 495,34 L 494,35 L 492,37 L 490,41 L 491,42 L 493,43 L 500,48 L 499,50 L 499,52 L 500,54 L 501,56 L 501,58 L 501,60 L 501,62 L 501,63 L 500,66 L 496,76 L 494,79 L 491,88 L 487,97 L 484,101 L 482,101 L 480,101 L 478,101 L 477,102 L 476,107 L 474,115 L 472,120 L 470,130 L 470,131 L 469,133 L 467,137 L 465,140 L 465,141 L 463,145 L 461,150 L 458,165 L 458,166 L 458,167 L 459,167 L 461,167 L 463,167 L 466,168 L 469,169 L 471,169 L 472,170 L 473,171 L 473,172 L 473,177 L 474,190 L 472,195 L 470,198 L 467,205 L 464,211 L 463,214 L 462,215 L 461,216 L 459,218 L 458,220 L 453,230 L 451,235 L 449,242 L 448,244 L 447,245 L 447,246 L 446,247 L 446,249 L 446,251 L 447,253 L 447,255 L 449,258 L 449,259 L 448,261 L 443,283 L 441,292 L 440,295 L 439,302 L 437,309 L 436,314 L 435,316 L 435,322 L 435,325 L 435,328 L 434,329 L 435,331 L 435,336 L 434,338 L 432,341 L 431,342 L 430,344 L 429,347 L 429,350 L 431,353 L 431,356 L 431,359 L 431,361 L 430,362 L 429,366 L 429,367 L 427,374 L 427,381 L 440,382 L 443,383 L 452,386 L 452,388 L 449,398 L 449,400 L 440,406 L 429,411 L 427,411 L 421,414 L 420,415 L 419,416 L 418,417 L 417,417 L 415,419 L 414,419 L 414,420 L 413,421 L 413,422 L 408,430 L 407,432 L 405,435 L 404,437 L 404,439 L 403,441 L 403,443 L 402,447 L 402,450 L 402,451 L 400,451 L 393,450 L 391,450 L 390,450 L 387,450 L 378,449 L 369,448 L 363,448 L 351,446 L 350,446 L 339,446 L 338,446 L 336,445 L 333,445 L 317,442 L 309,435 L 305,430 L 292,415 L 288,415 L 271,414 L 260,414 L 258,414 L 256,414 L 248,413 L 243,413 L 241,413 L 240,413 L 230,411 L 230,405 L 230,404 L 230,400 L 231,397 L 230,395 L 230,391 L 230,389 L 230,388 L 229,379 L 227,371 L 227,367 L 225,366 L 223,365 L 220,364 L 220,362 L 220,361 L 220,360 L 220,359 L 220,358 L 220,356 L 220,354 L 218,353 L 217,353 L 217,350 L 216,349 L 213,348 L 212,345 L 211,344 L 210,344 L 208,341 L 206,337 L 208,336 L 208,334 L 207,332 L 207,330 L 206,328 L 206,327 L 207,326 L 207,325 L 209,321 L 211,318 L 212,316 L 212,313 L 212,312 L 211,309 L 212,306 L 214,302 L 215,302 L 217,299 L 218,299 L 219,298 L 220,297 L 223,295 L 223,294 L 224,290 L 225,288 L 226,286 L 228,284 L 232,282 L 232,280 L 230,279 L 230,276 L 226,273 L 226,272 L 226,270 L 228,269 L 228,268 L 230,267 L 230,265 L 231,261 L 234,261 L 235,257 L 238,254 L 238,252 L 243,248 L 245,245 L 246,243 L 248,240 L 250,238 L 253,236 L 255,235 L 258,235 L 261,235 L 262,235 L 265,236 L 269,234 L 271,234 L 273,233 L 279,233 L 283,230 L 285,229 L 287,226 L 290,221 L 291,220 L 293,217 L 293,215 L 293,213 L 293,210 L 294,191 L 295,188 L 297,186 L 299,181 L 301,179 L 303,176 L 304,174 L 305,172 L 305,168 L 305,164 L 306,163 L 308,157 L 311,146 L 311,142 L 312,141 L 317,127 L 318,126 L 318,124 L 320,121 L 321,120 L 323,119 L 327,118 L 328,118 L 329,117 L 332,117 L 334,117 L 334,119 L 337,120 L 339,120 L 340,120 L 344,119 L 346,117 L 352,114 L 353,113 L 356,112 L 365,111 L 371,109 L 372,108 L 374,107 L 376,104 L 379,99 L 380,97 L 383,93 L 386,85 L 388,84 L 394,80 L 395,75 L 393,72 L 391,69 L 388,66 L 389,62 L 392,54 L 397,48 L 400,45 L 401,43 L 403,43 L 405,41 L 405,40 L 405,39 L 403,36 L 410,41 L 410,42 L 409,42 L 408,46 L 407,52 L 405,62 L 404,65 L 404,69 L 403,72 L 403,74 L 398,86 L 395,91 L 394,95 L 393,97 L 393,99 L 393,100 L 392,101 L 391,102 L 390,102 L 385,113 L 384,116 L 383,117 L 383,119 L 383,120 L 383,121 L 384,122 L 385,123 L 386,124 L 387,125 L 387,128 L 387,130 L 387,131 L 386,132 L 385,133 L 384,134 L 383,135 L 379,136 L 374,137 L 377,137 L 379,137 L 380,137 L 385,137 L 387,138 L 393,143 L 398,146 L 408,133 L 409,131 L 410,130 L 413,124 L 416,119 L 417,116 L 419,111 L 422,105 L 422,104 L 424,100 L 430,92 L 431,91 L 432,89 L 436,86 L 439,83 L 443,77 L 446,72 L 447,72 L 451,71 L 452,71 L 453,70 L 454,69 L 454,68 L 456,66 L 456,65 L 458,63 L 459,61 L 463,56 L 467,52 L 468,50 L 468,49 L 469,48 L 470,47 L 472,44 L 475,41 L 480,31 L 480,30 L 481,29 L 481,28 L 481,27 L 482,26 L 483,25 L 486,23 L 491,20 L 495,18 L 503,12 L 505,12 L 506,13 L 507,14 " class="svg-range5" data-original-title="&lt;b&gt;JATIHANDAP&lt;/b&gt;&lt;br /&gt;281" title=""/>
</g>
</g>
</g>
<g id="3273142_id2012__3273142002" inkscape:groupmode="layer" inkscape:label="3273142_id2012__3273142002">
<g stroke="rgb(0,0,0)" fill="rgb(98,79,155)" stroke-linejoin="round" stroke-width="0.26">
<g id="3273142_id2012__3273142002_1">
<path d="M 678,202 L 676,205 L 675,207 L 675,208 L 675,210 L 676,211 L 676,212 L 674,216 L 673,218 L 672,223 L 671,226 L 669,233 L 667,239 L 662,252 L 661,255 L 660,260 L 654,268 L 654,270 L 631,264 L 627,271 L 635,272 L 633,277 L 634,279 L 632,282 L 632,284 L 637,288 L 639,287 L 644,289 L 643,291 L 642,293 L 642,295 L 641,297 L 641,303 L 640,311 L 640,321 L 639,331 L 639,334 L 639,336 L 640,338 L 640,339 L 642,341 L 642,342 L 642,347 L 642,353 L 642,358 L 641,362 L 641,365 L 640,367 L 639,369 L 639,374 L 638,376 L 637,379 L 636,382 L 636,384 L 636,388 L 635,394 L 635,395 L 635,401 L 634,411 L 634,422 L 634,423 L 635,424 L 635,425 L 636,426 L 639,429 L 647,437 L 651,440 L 654,442 L 659,444 L 667,448 L 670,450 L 670,451 L 671,453 L 670,459 L 670,465 L 670,469 L 668,468 L 667,468 L 662,468 L 659,468 L 656,468 L 652,468 L 650,468 L 645,467 L 642,467 L 637,467 L 635,467 L 632,466 L 628,466 L 626,466 L 625,466 L 623,466 L 621,466 L 620,465 L 618,465 L 614,465 L 608,464 L 607,464 L 606,464 L 605,464 L 602,464 L 601,464 L 599,464 L 598,464 L 596,464 L 590,466 L 588,466 L 574,470 L 569,471 L 567,471 L 566,471 L 565,471 L 564,471 L 562,470 L 560,469 L 556,468 L 554,466 L 551,465 L 550,464 L 544,461 L 543,461 L 541,460 L 538,459 L 535,458 L 533,457 L 531,457 L 525,457 L 521,457 L 502,456 L 490,456 L 489,456 L 488,456 L 484,456 L 471,456 L 464,456 L 459,456 L 455,456 L 453,456 L 452,456 L 451,456 L 449,456 L 445,456 L 442,456 L 439,456 L 435,456 L 434,455 L 433,455 L 430,455 L 429,455 L 426,454 L 423,454 L 420,454 L 418,454 L 415,453 L 414,453 L 409,452 L 407,452 L 405,452 L 404,452 L 403,451 L 402,451 L 402,450 L 402,447 L 403,443 L 403,441 L 404,439 L 404,437 L 405,435 L 407,432 L 408,430 L 413,422 L 413,421 L 414,420 L 414,419 L 415,419 L 417,417 L 418,417 L 419,416 L 420,415 L 421,414 L 427,411 L 429,411 L 440,406 L 449,400 L 449,398 L 452,388 L 452,386 L 443,383 L 440,382 L 427,381 L 427,374 L 429,367 L 429,366 L 430,362 L 431,361 L 431,359 L 431,356 L 431,353 L 429,350 L 429,347 L 430,344 L 431,342 L 432,341 L 434,338 L 435,336 L 435,331 L 434,329 L 435,328 L 435,325 L 435,322 L 435,316 L 436,314 L 437,309 L 439,302 L 440,295 L 441,292 L 443,283 L 448,261 L 449,259 L 449,258 L 447,255 L 447,253 L 446,251 L 446,249 L 446,247 L 447,246 L 447,245 L 448,244 L 449,242 L 451,235 L 453,230 L 458,220 L 459,218 L 461,216 L 462,215 L 463,214 L 464,211 L 467,205 L 470,198 L 472,195 L 474,190 L 473,177 L 473,172 L 473,171 L 477,171 L 481,170 L 486,170 L 490,170 L 499,170 L 510,170 L 523,171 L 529,172 L 532,172 L 536,171 L 539,173 L 543,173 L 544,174 L 546,175 L 547,176 L 547,177 L 548,178 L 548,179 L 548,184 L 549,185 L 549,184 L 550,184 L 551,185 L 552,184 L 554,185 L 558,186 L 560,187 L 563,189 L 564,190 L 565,190 L 569,192 L 571,192 L 571,191 L 572,189 L 573,189 L 574,187 L 577,187 L 584,186 L 587,186 L 589,187 L 593,188 L 600,189 L 602,191 L 606,191 L 609,190 L 611,189 L 613,190 L 617,190 L 619,191 L 621,192 L 624,192 L 633,195 L 635,195 L 640,197 L 643,198 L 645,197 L 650,199 L 658,199 L 662,200 L 664,200 L 665,200 L 666,202 L 668,203 L 670,203 L 671,204 L 673,203 L 676,203 L 678,202 " class="svg-range5" data-original-title="&lt;b&gt;KARANG PAMULANG&lt;/b&gt;&lt;br /&gt;258" title=""/>
</g>
</g>
</g>
<g id="3273142_id2012__3273142003" inkscape:groupmode="layer" inkscape:label="3273142_id2012__3273142003">
<g stroke="rgb(0,0,0)" fill="rgb(177,87,210)" stroke-linejoin="round" stroke-width="0.26">
<g id="3273142_id2012__3273142003_1">
<path d="M 871,289 L 871,290 L 871,291 L 871,292 L 871,293 L 871,294 L 871,295 L 872,297 L 872,298 L 874,302 L 874,305 L 874,307 L 873,308 L 872,309 L 872,310 L 869,313 L 868,315 L 868,316 L 867,318 L 867,319 L 868,321 L 865,325 L 865,328 L 865,329 L 865,332 L 865,334 L 865,335 L 865,336 L 864,338 L 863,338 L 862,339 L 862,342 L 862,343 L 862,345 L 864,348 L 865,351 L 865,352 L 863,353 L 863,356 L 862,357 L 861,358 L 861,359 L 861,361 L 861,362 L 860,363 L 862,366 L 863,368 L 863,370 L 863,372 L 863,373 L 863,375 L 863,377 L 863,378 L 863,379 L 863,381 L 863,385 L 863,388 L 863,389 L 863,392 L 859,392 L 859,393 L 859,394 L 859,395 L 859,396 L 860,398 L 861,399 L 862,401 L 863,402 L 866,404 L 866,405 L 867,406 L 869,407 L 871,409 L 872,409 L 872,410 L 873,412 L 875,414 L 877,416 L 879,418 L 879,420 L 881,424 L 883,425 L 884,426 L 884,428 L 884,429 L 885,432 L 885,433 L 886,434 L 886,435 L 886,436 L 885,436 L 884,437 L 882,440 L 880,444 L 880,446 L 881,451 L 880,455 L 877,458 L 875,459 L 873,461 L 870,463 L 868,467 L 866,471 L 866,473 L 865,475 L 863,477 L 861,481 L 861,485 L 860,487 L 860,489 L 860,491 L 861,492 L 861,493 L 860,494 L 859,495 L 859,496 L 858,497 L 858,498 L 857,499 L 856,499 L 854,501 L 853,502 L 852,503 L 852,505 L 853,507 L 853,508 L 854,511 L 854,512 L 854,515 L 856,521 L 857,523 L 848,519 L 843,517 L 841,517 L 840,516 L 838,515 L 835,514 L 834,514 L 825,510 L 824,509 L 813,505 L 808,503 L 806,502 L 804,501 L 801,500 L 799,499 L 795,497 L 794,496 L 784,492 L 780,491 L 779,490 L 776,489 L 773,487 L 772,486 L 770,486 L 769,485 L 768,485 L 767,484 L 766,484 L 762,482 L 757,480 L 756,480 L 755,479 L 754,479 L 753,479 L 751,478 L 748,478 L 745,478 L 744,478 L 742,477 L 738,477 L 728,475 L 728,472 L 730,464 L 730,462 L 730,461 L 730,460 L 730,459 L 727,454 L 727,453 L 727,452 L 727,451 L 727,450 L 727,449 L 727,447 L 726,442 L 726,441 L 726,438 L 726,434 L 726,425 L 726,423 L 727,419 L 727,418 L 729,411 L 730,407 L 732,397 L 734,388 L 734,386 L 734,385 L 736,377 L 740,366 L 740,365 L 741,363 L 743,358 L 744,353 L 745,347 L 746,343 L 747,338 L 749,329 L 749,325 L 751,318 L 752,316 L 753,315 L 754,313 L 756,309 L 759,304 L 761,300 L 763,296 L 764,294 L 765,288 L 768,280 L 770,274 L 773,266 L 775,259 L 778,253 L 779,252 L 780,249 L 782,247 L 784,245 L 787,242 L 790,240 L 793,235 L 797,228 L 801,224 L 805,221 L 807,221 L 810,221 L 813,221 L 815,223 L 815,226 L 817,230 L 818,234 L 819,236 L 820,237 L 821,240 L 822,243 L 822,247 L 822,253 L 822,256 L 822,264 L 822,265 L 822,267 L 831,270 L 839,273 L 847,277 L 851,279 L 852,280 L 856,282 L 857,283 L 858,283 L 860,285 L 861,285 L 862,285 L 863,286 L 865,287 L 867,288 L 868,289 L 870,289 L 871,289 " class="svg-range1" data-original-title="&lt;b&gt;SINDANG JAYA&lt;/b&gt;&lt;br /&gt;70" title=""/>
</g>
</g>
</g>
<g id="3273142_id2012__3273142004" inkscape:groupmode="layer" inkscape:label="3273142_id2012__3273142004">
<g stroke="rgb(0,0,0)" fill="rgb(30,54,164)" stroke-linejoin="round" stroke-width="0.26">
<g id="3273142_id2012__3273142004_1">
<path d="M 780,200 L 781,200 L 785,200 L 788,200 L 790,200 L 793,201 L 796,202 L 798,204 L 798,205 L 801,205 L 804,207 L 808,207 L 812,208 L 812,209 L 811,210 L 811,211 L 810,213 L 809,216 L 808,218 L 806,220 L 805,221 L 801,224 L 797,228 L 793,235 L 790,240 L 787,242 L 784,245 L 782,247 L 780,249 L 779,252 L 778,253 L 775,259 L 773,266 L 770,274 L 768,280 L 765,288 L 764,294 L 763,296 L 761,300 L 759,304 L 756,309 L 754,313 L 753,315 L 752,316 L 751,318 L 749,325 L 749,329 L 747,338 L 746,343 L 745,347 L 744,353 L 743,358 L 741,363 L 740,365 L 740,366 L 736,377 L 734,385 L 734,386 L 734,388 L 732,397 L 730,407 L 729,411 L 727,418 L 727,419 L 726,423 L 726,425 L 726,434 L 726,438 L 726,441 L 726,442 L 727,447 L 727,449 L 727,450 L 727,451 L 727,452 L 727,453 L 727,454 L 730,459 L 730,460 L 730,461 L 730,462 L 730,464 L 728,472 L 728,475 L 723,475 L 717,474 L 713,473 L 709,473 L 708,473 L 700,472 L 699,472 L 698,472 L 693,471 L 684,470 L 679,469 L 678,469 L 677,469 L 676,469 L 675,469 L 670,469 L 670,465 L 670,459 L 671,453 L 670,451 L 670,450 L 667,448 L 659,444 L 654,442 L 651,440 L 647,437 L 639,429 L 636,426 L 635,425 L 635,424 L 634,423 L 634,422 L 634,411 L 635,401 L 635,395 L 635,394 L 636,388 L 636,384 L 636,382 L 637,379 L 638,376 L 639,374 L 639,369 L 640,367 L 641,365 L 641,362 L 642,358 L 642,353 L 642,347 L 642,342 L 642,341 L 640,339 L 640,338 L 639,336 L 639,334 L 639,331 L 640,321 L 640,311 L 641,303 L 641,297 L 642,295 L 642,293 L 643,291 L 644,289 L 639,287 L 637,288 L 632,284 L 632,282 L 634,279 L 633,277 L 635,272 L 627,271 L 631,264 L 654,270 L 654,268 L 660,260 L 661,255 L 662,252 L 667,239 L 669,233 L 671,226 L 672,223 L 673,218 L 674,216 L 676,212 L 676,211 L 675,210 L 675,208 L 675,207 L 676,205 L 678,202 L 679,199 L 681,193 L 685,184 L 686,180 L 686,177 L 688,174 L 691,172 L 697,169 L 704,166 L 710,163 L 711,161 L 711,154 L 711,148 L 713,142 L 714,137 L 715,137 L 720,137 L 724,134 L 730,132 L 733,131 L 736,131 L 738,131 L 740,133 L 742,135 L 743,139 L 744,142 L 744,144 L 744,145 L 748,151 L 746,155 L 744,158 L 736,168 L 738,170 L 739,170 L 747,175 L 753,176 L 756,177 L 761,178 L 765,180 L 769,180 L 773,180 L 776,181 L 778,183 L 779,185 L 780,186 L 779,188 L 777,189 L 776,192 L 776,196 L 777,198 L 778,200 L 779,200 L 780,200 " class="svg-range2" data-original-title="&lt;b&gt;PASIR IMPUN&lt;/b&gt;&lt;br /&gt;130" title=""/>
</g>
</g>
</g>
</svg></svg>