<svg id="svg-map" width="null" height="null" xmlns="http://www.w3.org/2000/svg" style="animation-delay: 0s; animation-direction: normal; animation-duration: 0s; animation-fill-mode: none; animation-iteration-count: 1; animation-name: none; animation-play-state: running; animation-timing-function: ease; background-attachment: scroll; background-blend-mode: normal; background-clip: border-box; background-color: rgba(0, 0, 0, 0); background-image: none; background-origin: padding-box; background-position: 0% 0%; background-repeat: repeat; background-size: auto; border-bottom-color: rgb(255, 255, 255); border-bottom-left-radius: 0px; border-bottom-right-radius: 0px; border-bottom-style: none; border-bottom-width: 0px; border-collapse: separate; border-image-outset: 0px; border-image-repeat: stretch; border-image-slice: 100%; border-image-source: none; border-image-width: 1; border-left-color: rgb(255, 255, 255); border-left-style: none; border-left-width: 0px; border-right-color: rgb(255, 255, 255); border-right-style: none; border-right-width: 0px; border-top-color: rgb(255, 255, 255); border-top-left-radius: 0px; border-top-right-radius: 0px; border-top-style: none; border-top-width: 0px; bottom: auto; box-shadow: none; box-sizing: border-box; break-after: auto; break-before: auto; break-inside: auto; caption-side: top; clear: none; clip: auto; color: rgb(255, 255, 255); content: ; cursor: auto; direction: ltr; display: inline; empty-cells: show; float: none; font-family: &quot;Open Sans&quot;, sans-serif; font-kerning: auto; font-size: 13px; font-stretch: normal; font-style: normal; font-variant: normal; font-variant-ligatures: normal; font-variant-caps: normal; font-variant-numeric: normal; font-weight: normal; height: 303.953px; image-rendering: auto; isolation: auto; left: auto; letter-spacing: normal; line-height: 18.5714px; list-style-image: none; list-style-position: outside; list-style-type: disc; margin-bottom: 0px; margin-left: 0px; margin-right: 0px; margin-top: 0px; max-height: 400px; max-width: none; min-height: 0px; min-width: 0px; mix-blend-mode: normal; motion-offset: 0px; motion-path: none; motion-rotation: auto 0deg; object-fit: fill; object-position: 50% 50%; opacity: 1; orphans: 2; outline-color: rgb(255, 255, 255); outline-offset: 0px; outline-style: none; outline-width: 0px; overflow-wrap: normal; overflow-x: hidden; overflow-y: hidden; padding-bottom: 0px; padding-left: 0px; padding-right: 0px; padding-top: 0px; pointer-events: auto; position: static; resize: none; right: auto; speak: normal; table-layout: auto; tab-size: 8; text-align: center; text-align-last: auto; text-decoration: none; text-indent: 0px; text-rendering: auto; text-shadow: none; text-size-adjust: 100%; text-overflow: clip; text-transform: none; top: auto; touch-action: auto; transition-delay: 0s; transition-duration: 0s; transition-property: all; transition-timing-function: ease; unicode-bidi: normal; vertical-align: baseline; visibility: visible; white-space: normal; widows: 2; width: 617.5px; will-change: auto; word-break: normal; word-spacing: 0px; word-wrap: normal; z-index: auto; zoom: 1; -webkit-appearance: none; backface-visibility: visible; -webkit-background-clip: border-box; -webkit-background-origin: padding-box; -webkit-border-horizontal-spacing: 0px; -webkit-border-image: none; -webkit-border-vertical-spacing: 0px; -webkit-box-align: stretch; -webkit-box-decoration-break: slice; -webkit-box-direction: normal; -webkit-box-flex: 0; -webkit-box-flex-group: 1; -webkit-box-lines: single; -webkit-box-ordinal-group: 1; -webkit-box-orient: horizontal; -webkit-box-pack: start; -webkit-box-reflect: none; -webkit-clip-path: none; column-count: auto; column-gap: normal; column-rule-color: rgb(255, 255, 255); column-rule-style: none; column-rule-width: 0px; column-span: none; column-width: auto; align-content: stretch; align-items: stretch; align-self: stretch; flex-basis: auto; flex-grow: 0; flex-shrink: 1; flex-direction: row; flex-wrap: nowrap; justify-content: flex-start; -webkit-font-smoothing: auto; -webkit-highlight: none; -webkit-hyphenate-character: auto; -webkit-line-break: auto; -webkit-line-clamp: none; -webkit-locale: &quot;en&quot;; -webkit-margin-before-collapse: collapse; -webkit-margin-after-collapse: collapse; -webkit-mask-box-image: none; -webkit-mask-box-image-outset: 0px; -webkit-mask-box-image-repeat: stretch; -webkit-mask-box-image-slice: 0 fill; -webkit-mask-box-image-source: none; -webkit-mask-box-image-width: auto; -webkit-mask-clip: border-box; -webkit-mask-composite: source-over; -webkit-mask-image: none; -webkit-mask-origin: border-box; -webkit-mask-position: 0% 0%; -webkit-mask-repeat: repeat; -webkit-mask-size: auto; order: 0; perspective: none; perspective-origin: 308.75px 151.969px; -webkit-print-color-adjust: economy; -webkit-rtl-ordering: logical; shape-outside: none; shape-image-threshold: 0; shape-margin: 0px; -webkit-tap-highlight-color: rgba(0, 0, 0, 0); -webkit-text-combine: none; -webkit-text-decorations-in-effect: none; -webkit-text-emphasis-color: rgb(255, 255, 255); -webkit-text-emphasis-position: over; -webkit-text-emphasis-style: none; -webkit-text-fill-color: rgb(255, 255, 255); -webkit-text-orientation: vertical-right; -webkit-text-security: none; -webkit-text-stroke-color: rgb(255, 255, 255); -webkit-text-stroke-width: 0px; transform: none; transform-origin: 308.75px 151.969px; transform-style: flat; -webkit-user-drag: auto; -webkit-user-modify: read-only; user-select: text; -webkit-writing-mode: horizontal-tb; -webkit-app-region: no-drag; buffered-rendering: auto; clip-path: none; clip-rule: nonzero; mask: none; filter: none; flood-color: rgb(0, 0, 0); flood-opacity: 1; lighting-color: rgb(255, 255, 255); stop-color: rgb(0, 0, 0); stop-opacity: 1; color-interpolation: sRGB; color-interpolation-filters: linearRGB; color-rendering: auto; fill: rgb(0, 0, 0); fill-opacity: 1; fill-rule: nonzero; marker-end: none; marker-mid: none; marker-start: none; mask-type: luminance; shape-rendering: auto; stroke: none; stroke-dasharray: none; stroke-dashoffset: 0px; stroke-linecap: butt; stroke-linejoin: miter; stroke-miterlimit: 4; stroke-opacity: 1; stroke-width: 1px; alignment-baseline: auto; baseline-shift: 0px; dominant-baseline: auto; text-anchor: start; writing-mode: horizontal-tb; vector-effect: none; paint-order: fill stroke markers; d: none; cx: 0px; cy: 0px; x: 0px; y: 0px; r: 0px; rx: auto; ry: auto;" version="1.1" xmlns:xlink="http://www.w3.org/1999/xlink">
    <style type="text/css">
        svg:not(:root) {
            overflow: hidden;
        }
        * {
            box-sizing: border-box;
        }
        * {
            font-size: 13px;
        }
        svg {
            max-height: 100vh;
            border: none !important;
        }
        #svg-map svg {
            max-height: 400px;
        }
        #svg-map svg path {
            fill: rgb(153, 196, 176);
            stroke: rgb(51, 51, 51);
            stroke-width: 1;
        }
        #svg-map svg path.svg-range1 {
            fill: rgb(194, 223, 115);
        }
        #svg-map svg path.svg-range3 {
            fill: rgb(189, 170, 83);
        }
        #svg-map svg path.svg-range5 {
            fill: rgb(175, 96, 68);
        }
    </style>
    <svg xmlns="http://www.w3.org/2000/svg" xmlns:inkscape="http://www.inkscape.org/namespaces/inkscape" xmlns:xlink="http://www.w3.org/1999/xlink" viewBox="0 0 1097 540" version="1.1">
        <!-- svg generated using QGIS www.qgis.org -->
        <g id="3273050_id2012__3273050005" inkscape:groupmode="layer" inkscape:label="3273050_id2012__3273050005">
            <g stroke="rgb(0,0,0)" fill="rgb(211,234,35)" stroke-linejoin="round" stroke-width="0.26">
                <g id="3273050_id2012__3273050005_1">
                    <path d="M 495,21 L 496,27 L 497,38 L 498,39 L 498,44 L 499,53 L 499,55 L 500,63 L 501,64 L 501,66 L 503,73 L 505,78 L 505,79 L 508,88 L 509,90 L 511,95 L 511,96 L 512,97 L 514,104 L 517,111 L 515,111 L 512,111 L 510,111 L 503,110 L 501,110 L 497,110 L 496,110 L 494,110 L 489,109 L 484,108 L 476,107 L 472,107 L 469,106 L 466,106 L 464,106 L 460,106 L 457,105 L 450,105 L 448,104 L 449,103 L 449,102 L 450,101 L 449,100 L 449,99 L 448,99 L 447,98 L 447,97 L 446,97 L 445,96 L 444,95 L 443,94 L 443,93 L 442,91 L 442,90 L 441,90 L 440,89 L 439,89 L 433,86 L 431,86 L 430,85 L 429,85 L 428,84 L 427,84 L 427,83 L 427,82 L 427,81 L 426,76 L 425,75 L 425,74 L 425,73 L 424,72 L 423,71 L 423,70 L 423,69 L 423,68 L 422,67 L 422,66 L 422,65 L 421,64 L 421,63 L 422,61 L 423,61 L 425,57 L 424,56 L 423,56 L 421,56 L 420,56 L 419,54 L 418,54 L 417,54 L 417,51 L 418,49 L 417,49 L 416,49 L 415,49 L 414,49 L 413,49 L 412,48 L 411,48 L 410,48 L 410,47 L 409,47 L 409,46 L 408,46 L 409,45 L 410,44 L 412,43 L 413,42 L 414,41 L 414,40 L 415,39 L 415,38 L 416,35 L 417,34 L 417,33 L 418,30 L 419,30 L 420,30 L 421,30 L 422,30 L 423,24 L 423,22 L 425,12 L 435,14 L 439,14 L 448,16 L 451,16 L 454,16 L 457,17 L 460,17 L 461,17 L 464,17 L 465,17 L 473,18 L 474,18 L 478,19 L 482,19 L 483,19 L 484,20 L 485,20 L 492,21 L 495,21 " class="svg-range5" data-original-title="&lt;b&gt;CIBADAK&lt;/b&gt;&lt;br /&gt;128" title="" />
                </g>
            </g>
        </g>
        <g id="3273050_id2012__3273050004" inkscape:groupmode="layer" inkscape:label="3273050_id2012__3273050004">
            <g stroke="rgb(0,0,0)" fill="rgb(131,93,113)" stroke-linejoin="round" stroke-width="0.26">
                <g id="3273050_id2012__3273050004_1">
                    <path d="M 512,111 L 514,114 L 515,116 L 514,118 L 512,121 L 511,123 L 511,124 L 512,125 L 512,126 L 514,128 L 514,129 L 514,130 L 515,132 L 516,134 L 517,135 L 516,136 L 514,138 L 514,139 L 514,140 L 514,142 L 515,144 L 515,145 L 515,147 L 514,149 L 514,150 L 515,151 L 516,151 L 517,153 L 518,154 L 518,155 L 518,158 L 519,160 L 518,161 L 518,163 L 519,164 L 520,167 L 523,170 L 524,171 L 525,173 L 523,177 L 523,179 L 523,180 L 524,183 L 523,183 L 522,185 L 522,186 L 521,186 L 520,190 L 519,192 L 519,194 L 519,197 L 517,202 L 517,203 L 516,204 L 516,206 L 513,212 L 512,212 L 511,213 L 510,212 L 509,211 L 509,210 L 508,209 L 508,208 L 507,208 L 507,207 L 505,205 L 504,204 L 503,203 L 502,202 L 501,201 L 498,197 L 496,195 L 495,194 L 494,193 L 493,192 L 492,191 L 490,187 L 488,183 L 486,180 L 483,174 L 482,173 L 482,172 L 481,172 L 481,171 L 479,170 L 478,169 L 477,168 L 476,167 L 476,166 L 475,165 L 475,164 L 475,162 L 475,160 L 477,160 L 476,158 L 476,157 L 476,156 L 477,155 L 477,154 L 473,153 L 473,152 L 473,151 L 474,149 L 474,148 L 473,147 L 472,147 L 471,147 L 470,147 L 469,146 L 468,146 L 467,146 L 467,145 L 467,144 L 466,143 L 466,142 L 466,141 L 465,140 L 465,139 L 465,138 L 464,138 L 464,137 L 463,137 L 462,135 L 461,135 L 459,135 L 458,135 L 457,136 L 456,136 L 454,136 L 453,135 L 452,135 L 452,134 L 451,134 L 451,133 L 452,132 L 452,131 L 452,130 L 453,129 L 453,128 L 453,125 L 454,124 L 455,121 L 455,120 L 455,118 L 456,116 L 456,115 L 456,114 L 455,113 L 455,111 L 453,110 L 450,110 L 449,110 L 448,110 L 448,109 L 448,107 L 448,106 L 448,104 L 450,105 L 457,105 L 460,106 L 464,106 L 466,106 L 469,106 L 472,107 L 476,107 L 484,108 L 489,109 L 494,110 L 496,110 L 497,110 L 501,110 L 503,110 L 510,111 L 512,111 " class="svg-range5" data-original-title="&lt;b&gt;PANJUNAN&lt;/b&gt;&lt;br /&gt;128" title="" />
                </g>
            </g>
        </g>
        <g id="3273050_id2012__3273050003" inkscape:groupmode="layer" inkscape:label="3273050_id2012__3273050003">
            <g stroke="rgb(0,0,0)" fill="rgb(58,131,48)" stroke-linejoin="round" stroke-width="0.26">
                <g id="3273050_id2012__3273050003_1">
                    <path d="M 517,111 L 521,111 L 527,112 L 531,112 L 534,113 L 536,113 L 538,113 L 540,113 L 542,113 L 548,114 L 552,114 L 554,114 L 557,114 L 558,115 L 567,115 L 567,116 L 567,117 L 566,122 L 566,125 L 565,137 L 565,139 L 565,140 L 564,147 L 564,148 L 564,153 L 564,154 L 564,158 L 563,161 L 563,162 L 563,172 L 562,174 L 562,181 L 562,186 L 562,187 L 561,189 L 561,194 L 560,199 L 560,202 L 560,204 L 560,206 L 560,209 L 560,211 L 560,213 L 560,214 L 560,223 L 559,224 L 557,223 L 556,222 L 554,219 L 554,218 L 554,216 L 553,214 L 549,215 L 548,215 L 547,215 L 546,215 L 542,215 L 536,215 L 532,215 L 529,215 L 527,214 L 526,214 L 525,215 L 524,215 L 523,216 L 521,217 L 519,217 L 518,219 L 517,220 L 515,222 L 512,224 L 511,223 L 509,223 L 508,223 L 509,218 L 509,217 L 509,216 L 509,215 L 510,214 L 511,213 L 512,212 L 513,212 L 516,206 L 516,204 L 517,203 L 517,202 L 519,197 L 519,194 L 519,192 L 520,190 L 521,186 L 522,186 L 522,185 L 523,183 L 524,183 L 523,180 L 523,179 L 523,177 L 525,173 L 524,171 L 523,170 L 520,167 L 519,164 L 518,163 L 518,161 L 519,160 L 518,158 L 518,155 L 518,154 L 517,153 L 516,151 L 515,151 L 514,150 L 514,149 L 515,147 L 515,145 L 515,144 L 514,142 L 514,140 L 514,139 L 514,138 L 516,136 L 517,135 L 516,134 L 515,132 L 514,130 L 514,129 L 514,128 L 512,126 L 512,125 L 511,124 L 511,123 L 512,121 L 514,118 L 515,116 L 514,114 L 512,111 L 515,111 L 517,111 " class="svg-range5" data-original-title="&lt;b&gt;NYENGSERET&lt;/b&gt;&lt;br /&gt;125" title="" />
                </g>
            </g>
        </g>
        <g id="3273050_id2012__3273050002" inkscape:groupmode="layer" inkscape:label="3273050_id2012__3273050002">
            <g stroke="rgb(0,0,0)" fill="rgb(60,212,195)" stroke-linejoin="round" stroke-width="0.26">
                <g id="3273050_id2012__3273050002_1">
                    <path d="M 559,224 L 559,225 L 559,234 L 559,235 L 559,237 L 558,248 L 558,250 L 563,251 L 568,251 L 572,252 L 579,252 L 581,252 L 587,252 L 589,253 L 592,253 L 599,253 L 600,253 L 600,258 L 600,264 L 600,265 L 600,266 L 600,268 L 601,270 L 601,271 L 602,272 L 603,275 L 603,276 L 603,277 L 604,279 L 607,287 L 607,290 L 608,291 L 608,292 L 609,293 L 609,294 L 610,297 L 610,298 L 611,300 L 611,301 L 612,303 L 612,304 L 612,305 L 613,306 L 613,307 L 613,308 L 614,310 L 615,312 L 615,313 L 617,318 L 617,319 L 618,322 L 619,323 L 619,324 L 619,325 L 620,328 L 622,332 L 622,333 L 616,335 L 613,336 L 605,339 L 602,339 L 596,339 L 594,339 L 593,338 L 592,338 L 590,338 L 588,338 L 585,338 L 583,338 L 583,339 L 583,340 L 582,340 L 580,340 L 579,340 L 579,339 L 578,340 L 579,340 L 580,340 L 582,340 L 582,341 L 582,342 L 582,343 L 582,347 L 582,348 L 581,350 L 581,351 L 581,354 L 580,355 L 580,357 L 580,359 L 579,358 L 577,358 L 575,357 L 575,358 L 574,358 L 573,357 L 572,357 L 571,357 L 570,357 L 569,357 L 568,357 L 567,356 L 567,357 L 566,356 L 566,355 L 565,354 L 565,352 L 565,350 L 563,349 L 562,348 L 560,348 L 558,348 L 556,348 L 555,348 L 554,348 L 553,347 L 553,345 L 553,344 L 553,343 L 553,342 L 553,341 L 553,339 L 553,338 L 553,336 L 553,334 L 553,332 L 553,331 L 554,330 L 553,328 L 551,327 L 549,327 L 547,327 L 546,327 L 545,326 L 545,325 L 544,324 L 543,323 L 543,322 L 542,322 L 542,321 L 541,320 L 540,319 L 540,318 L 540,317 L 539,316 L 538,315 L 537,313 L 534,311 L 530,308 L 528,307 L 527,306 L 525,305 L 523,303 L 522,302 L 521,302 L 520,301 L 519,300 L 518,299 L 516,295 L 513,293 L 512,290 L 511,289 L 511,287 L 511,286 L 511,285 L 511,283 L 511,282 L 512,273 L 513,272 L 512,268 L 511,264 L 511,261 L 511,259 L 511,256 L 511,255 L 511,253 L 510,251 L 510,243 L 510,242 L 510,240 L 510,236 L 510,235 L 511,234 L 511,233 L 511,232 L 512,231 L 512,230 L 512,229 L 511,229 L 510,228 L 509,228 L 508,227 L 507,226 L 507,225 L 507,224 L 508,223 L 509,223 L 511,223 L 512,224 L 515,222 L 517,220 L 518,219 L 519,217 L 521,217 L 523,216 L 524,215 L 525,215 L 526,214 L 527,214 L 529,215 L 532,215 L 536,215 L 542,215 L 546,215 L 547,215 L 548,215 L 549,215 L 553,214 L 554,216 L 554,218 L 554,219 L 556,222 L 557,223 L 559,224 " class="svg-range5" data-original-title="&lt;b&gt;PELINDUNG HEWAN&lt;/b&gt;&lt;br /&gt;108" title="" />
                    <path d="M 582,323 L 581,323 L 581,324 L 581,325 L 581,326 L 580,327 L 580,328 L 580,329 L 580,330 L 579,331 L 579,332 L 579,333 L 580,334 L 579,335 L 580,335 L 581,335 L 582,335 L 582,334 L 583,334 L 583,335 L 584,335 L 584,334 L 585,334 L 585,333 L 585,332 L 585,331 L 586,330 L 586,329 L 586,328 L 586,327 L 586,326 L 587,325 L 587,324 L 586,324 L 584,323 L 583,323 L 582,323 " class="svg-range5" data-original-title="&lt;b&gt;PELINDUNG HEWAN&lt;/b&gt;&lt;br /&gt;108" title="" />
                </g>
            </g>
        </g>
        <g id="3273050_id2012__3273050001" inkscape:groupmode="layer" inkscape:label="3273050_id2012__3273050001">
            <g stroke="rgb(0,0,0)" fill="rgb(248,88,144)" stroke-linejoin="round" stroke-width="0.26">
                <g id="3273050_id2012__3273050001_1">
                    <path d="M 623,338 L 624,340 L 624,341 L 625,342 L 625,343 L 627,349 L 628,350 L 628,351 L 628,352 L 629,354 L 629,355 L 630,358 L 631,359 L 631,361 L 632,362 L 632,363 L 632,364 L 633,367 L 634,369 L 634,370 L 634,371 L 635,372 L 636,374 L 636,375 L 637,378 L 638,380 L 638,381 L 638,382 L 638,383 L 639,383 L 639,384 L 639,385 L 640,387 L 640,388 L 641,389 L 641,390 L 642,392 L 642,393 L 642,394 L 643,395 L 643,396 L 643,397 L 644,398 L 645,401 L 645,403 L 646,404 L 646,405 L 647,407 L 648,409 L 648,411 L 649,413 L 650,417 L 651,418 L 651,421 L 652,422 L 653,426 L 654,428 L 655,431 L 655,432 L 656,434 L 656,435 L 657,436 L 657,437 L 657,438 L 658,440 L 658,441 L 659,442 L 659,444 L 660,446 L 660,447 L 661,449 L 662,451 L 662,453 L 663,456 L 664,458 L 666,464 L 667,467 L 668,469 L 668,471 L 668,472 L 669,473 L 669,474 L 670,476 L 670,477 L 671,480 L 671,481 L 671,482 L 672,483 L 672,484 L 673,486 L 674,488 L 674,490 L 675,491 L 675,492 L 676,493 L 676,494 L 676,495 L 676,496 L 677,498 L 678,500 L 678,501 L 678,502 L 679,503 L 680,506 L 680,507 L 681,510 L 681,511 L 681,512 L 682,513 L 683,516 L 683,517 L 683,518 L 684,518 L 684,519 L 683,519 L 681,519 L 680,521 L 677,521 L 675,521 L 674,523 L 668,522 L 665,522 L 664,521 L 663,521 L 662,521 L 661,521 L 660,520 L 658,520 L 658,519 L 657,519 L 656,518 L 654,518 L 657,516 L 657,515 L 658,515 L 658,514 L 659,513 L 660,512 L 661,512 L 662,509 L 663,507 L 663,504 L 663,503 L 663,502 L 664,502 L 664,498 L 664,497 L 664,494 L 665,493 L 666,492 L 666,491 L 667,491 L 668,490 L 666,486 L 665,484 L 664,481 L 660,479 L 659,478 L 658,478 L 655,476 L 654,475 L 653,475 L 652,474 L 651,473 L 651,471 L 651,469 L 650,467 L 650,465 L 650,464 L 649,463 L 649,462 L 649,460 L 648,459 L 648,457 L 647,456 L 647,455 L 646,454 L 646,453 L 645,452 L 640,450 L 639,449 L 638,448 L 637,447 L 636,446 L 635,445 L 635,442 L 635,441 L 635,440 L 635,439 L 634,438 L 633,438 L 632,437 L 631,437 L 630,436 L 628,435 L 627,434 L 626,433 L 625,433 L 624,432 L 623,432 L 623,431 L 622,431 L 620,430 L 617,430 L 615,430 L 613,429 L 612,429 L 610,427 L 608,425 L 608,424 L 606,423 L 606,422 L 605,422 L 605,421 L 605,420 L 605,419 L 605,418 L 606,418 L 606,417 L 607,416 L 605,415 L 604,414 L 603,413 L 602,412 L 601,412 L 601,411 L 600,411 L 599,409 L 598,407 L 597,406 L 596,405 L 594,405 L 593,404 L 589,405 L 588,405 L 586,405 L 585,405 L 583,405 L 582,404 L 581,404 L 580,402 L 578,399 L 577,398 L 574,395 L 573,394 L 572,393 L 572,392 L 572,391 L 571,389 L 571,388 L 570,383 L 570,382 L 569,378 L 569,375 L 569,374 L 569,373 L 570,372 L 568,368 L 568,367 L 567,363 L 567,362 L 567,361 L 567,360 L 566,358 L 566,356 L 567,357 L 567,356 L 568,357 L 569,357 L 570,357 L 571,357 L 572,357 L 573,357 L 574,358 L 575,358 L 575,357 L 577,358 L 579,358 L 580,359 L 580,357 L 580,355 L 581,354 L 581,351 L 581,350 L 582,348 L 582,347 L 582,343 L 582,342 L 582,341 L 582,340 L 580,340 L 579,340 L 578,340 L 579,339 L 579,340 L 580,340 L 582,340 L 583,340 L 583,339 L 583,338 L 585,338 L 588,338 L 590,338 L 592,338 L 593,338 L 594,339 L 596,339 L 602,339 L 605,339 L 613,336 L 616,335 L 622,333 L 622,334 L 623,336 L 623,338 " class="svg-range3" data-original-title="&lt;b&gt;KARASAK&lt;/b&gt;&lt;br /&gt;87" title="" />
                    <path d="M 582,323 L 583,323 L 584,323 L 586,324 L 587,324 L 587,325 L 586,326 L 586,327 L 586,328 L 586,329 L 586,330 L 585,331 L 585,332 L 585,333 L 585,334 L 584,334 L 584,335 L 583,335 L 583,334 L 582,334 L 582,335 L 581,335 L 580,335 L 579,335 L 580,334 L 579,333 L 579,332 L 579,331 L 580,330 L 580,329 L 580,328 L 580,327 L 581,326 L 581,325 L 581,324 L 581,323 L 582,323 " class="svg-range3" data-original-title="&lt;b&gt;KARASAK&lt;/b&gt;&lt;br /&gt;87" title="" />
                </g>
            </g>
        </g>
        <g id="3273050_id2012__3273050006" inkscape:groupmode="layer" inkscape:label="3273050_id2012__3273050006">
            <g stroke="rgb(0,0,0)" fill="rgb(128,19,106)" stroke-linejoin="round" stroke-width="0.26">
                <g id="3273050_id2012__3273050006_1">
                    <path d="M 573,30 L 573,32 L 573,37 L 572,38 L 572,39 L 572,46 L 572,47 L 572,48 L 572,49 L 571,55 L 571,61 L 571,62 L 570,65 L 570,69 L 570,70 L 570,71 L 570,72 L 570,73 L 570,77 L 570,79 L 570,80 L 569,84 L 569,87 L 569,90 L 569,91 L 569,93 L 569,94 L 568,98 L 567,115 L 558,115 L 557,114 L 554,114 L 552,114 L 548,114 L 542,113 L 540,113 L 538,113 L 536,113 L 534,113 L 531,112 L 527,112 L 521,111 L 517,111 L 514,104 L 512,97 L 511,96 L 511,95 L 509,90 L 508,88 L 505,79 L 505,78 L 503,73 L 501,66 L 501,64 L 500,63 L 499,55 L 499,53 L 498,44 L 498,39 L 497,38 L 496,27 L 495,21 L 496,21 L 499,21 L 500,22 L 508,23 L 515,23 L 515,24 L 524,25 L 528,25 L 529,25 L 531,25 L 534,26 L 536,26 L 540,26 L 541,26 L 543,27 L 547,27 L 548,27 L 550,27 L 553,28 L 555,28 L 563,29 L 573,30 " class="svg-range1" data-original-title="&lt;b&gt;KARANG ANYAR&lt;/b&gt;&lt;br /&gt;27" title="" />
                </g>
            </g>
        </g>
    </svg>
</svg>