<svg id="svg-map" width="null" height="null" xmlns="http://www.w3.org/2000/svg" style="animation-delay: 0s; animation-direction: normal; animation-duration: 0s; animation-fill-mode: none; animation-iteration-count: 1; animation-name: none; animation-play-state: running; animation-timing-function: ease; background-attachment: scroll; background-blend-mode: normal; background-clip: border-box; background-color: rgba(0, 0, 0, 0); background-image: none; background-origin: padding-box; background-position: 0% 0%; background-repeat: repeat; background-size: auto; border-bottom-color: rgb(255, 255, 255); border-bottom-left-radius: 0px; border-bottom-right-radius: 0px; border-bottom-style: none; border-bottom-width: 0px; border-collapse: separate; border-image-outset: 0px; border-image-repeat: stretch; border-image-slice: 100%; border-image-source: none; border-image-width: 1; border-left-color: rgb(255, 255, 255); border-left-style: none; border-left-width: 0px; border-right-color: rgb(255, 255, 255); border-right-style: none; border-right-width: 0px; border-top-color: rgb(255, 255, 255); border-top-left-radius: 0px; border-top-right-radius: 0px; border-top-style: none; border-top-width: 0px; bottom: auto; box-shadow: none; box-sizing: border-box; break-after: auto; break-before: auto; break-inside: auto; caption-side: top; clear: none; clip: auto; color: rgb(255, 255, 255); content: ; cursor: auto; direction: ltr; display: inline; empty-cells: show; float: none; font-family: &quot;Open Sans&quot;, sans-serif; font-kerning: auto; font-size: 13px; font-stretch: normal; font-style: normal; font-variant: normal; font-variant-ligatures: normal; font-variant-caps: normal; font-variant-numeric: normal; font-weight: normal; height: 303.953px; image-rendering: auto; isolation: auto; left: auto; letter-spacing: normal; line-height: 18.5714px; list-style-image: none; list-style-position: outside; list-style-type: disc; margin-bottom: 0px; margin-left: 0px; margin-right: 0px; margin-top: 0px; max-height: 400px; max-width: none; min-height: 0px; min-width: 0px; mix-blend-mode: normal; motion-offset: 0px; motion-path: none; motion-rotation: auto 0deg; object-fit: fill; object-position: 50% 50%; opacity: 1; orphans: 2; outline-color: rgb(255, 255, 255); outline-offset: 0px; outline-style: none; outline-width: 0px; overflow-wrap: normal; overflow-x: hidden; overflow-y: hidden; padding-bottom: 0px; padding-left: 0px; padding-right: 0px; padding-top: 0px; pointer-events: auto; position: static; resize: none; right: auto; speak: normal; table-layout: auto; tab-size: 8; text-align: center; text-align-last: auto; text-decoration: none; text-indent: 0px; text-rendering: auto; text-shadow: none; text-size-adjust: 100%; text-overflow: clip; text-transform: none; top: auto; touch-action: auto; transition-delay: 0s; transition-duration: 0s; transition-property: all; transition-timing-function: ease; unicode-bidi: normal; vertical-align: baseline; visibility: visible; white-space: normal; widows: 2; width: 617.5px; will-change: auto; word-break: normal; word-spacing: 0px; word-wrap: normal; z-index: auto; zoom: 1; -webkit-appearance: none; backface-visibility: visible; -webkit-background-clip: border-box; -webkit-background-origin: padding-box; -webkit-border-horizontal-spacing: 0px; -webkit-border-image: none; -webkit-border-vertical-spacing: 0px; -webkit-box-align: stretch; -webkit-box-decoration-break: slice; -webkit-box-direction: normal; -webkit-box-flex: 0; -webkit-box-flex-group: 1; -webkit-box-lines: single; -webkit-box-ordinal-group: 1; -webkit-box-orient: horizontal; -webkit-box-pack: start; -webkit-box-reflect: none; -webkit-clip-path: none; column-count: auto; column-gap: normal; column-rule-color: rgb(255, 255, 255); column-rule-style: none; column-rule-width: 0px; column-span: none; column-width: auto; align-content: stretch; align-items: stretch; align-self: stretch; flex-basis: auto; flex-grow: 0; flex-shrink: 1; flex-direction: row; flex-wrap: nowrap; justify-content: flex-start; -webkit-font-smoothing: auto; -webkit-highlight: none; -webkit-hyphenate-character: auto; -webkit-line-break: auto; -webkit-line-clamp: none; -webkit-locale: &quot;en&quot;; -webkit-margin-before-collapse: collapse; -webkit-margin-after-collapse: collapse; -webkit-mask-box-image: none; -webkit-mask-box-image-outset: 0px; -webkit-mask-box-image-repeat: stretch; -webkit-mask-box-image-slice: 0 fill; -webkit-mask-box-image-source: none; -webkit-mask-box-image-width: auto; -webkit-mask-clip: border-box; -webkit-mask-composite: source-over; -webkit-mask-image: none; -webkit-mask-origin: border-box; -webkit-mask-position: 0% 0%; -webkit-mask-repeat: repeat; -webkit-mask-size: auto; order: 0; perspective: none; perspective-origin: 308.75px 151.969px; -webkit-print-color-adjust: economy; -webkit-rtl-ordering: logical; shape-outside: none; shape-image-threshold: 0; shape-margin: 0px; -webkit-tap-highlight-color: rgba(0, 0, 0, 0); -webkit-text-combine: none; -webkit-text-decorations-in-effect: none; -webkit-text-emphasis-color: rgb(255, 255, 255); -webkit-text-emphasis-position: over; -webkit-text-emphasis-style: none; -webkit-text-fill-color: rgb(255, 255, 255); -webkit-text-orientation: vertical-right; -webkit-text-security: none; -webkit-text-stroke-color: rgb(255, 255, 255); -webkit-text-stroke-width: 0px; transform: none; transform-origin: 308.75px 151.969px; transform-style: flat; -webkit-user-drag: auto; -webkit-user-modify: read-only; user-select: text; -webkit-writing-mode: horizontal-tb; -webkit-app-region: no-drag; buffered-rendering: auto; clip-path: none; clip-rule: nonzero; mask: none; filter: none; flood-color: rgb(0, 0, 0); flood-opacity: 1; lighting-color: rgb(255, 255, 255); stop-color: rgb(0, 0, 0); stop-opacity: 1; color-interpolation: sRGB; color-interpolation-filters: linearRGB; color-rendering: auto; fill: rgb(0, 0, 0); fill-opacity: 1; fill-rule: nonzero; marker-end: none; marker-mid: none; marker-start: none; mask-type: luminance; shape-rendering: auto; stroke: none; stroke-dasharray: none; stroke-dashoffset: 0px; stroke-linecap: butt; stroke-linejoin: miter; stroke-miterlimit: 4; stroke-opacity: 1; stroke-width: 1px; alignment-baseline: auto; baseline-shift: 0px; dominant-baseline: auto; text-anchor: start; writing-mode: horizontal-tb; vector-effect: none; paint-order: fill stroke markers; d: none; cx: 0px; cy: 0px; x: 0px; y: 0px; r: 0px; rx: auto; ry: auto;" version="1.1" xmlns:xlink="http://www.w3.org/1999/xlink"><style type="text/css">svg:not(:root) { overflow: hidden; }
* { box-sizing: border-box; }
* { font-size: 13px; }
svg { max-height: 100vh; border: none !important; }
#svg-map svg { max-height: 400px; }
#svg-map svg path { fill: rgb(153, 196, 176); stroke: rgb(51, 51, 51); stroke-width: 1; }
#svg-map svg path.svg-range1 { fill: rgb(194, 223, 115); }
#svg-map svg path.svg-range3 { fill: rgb(189, 170, 83); }
#svg-map svg path.svg-range4 { fill: rgb(189, 143, 83); }
#svg-map svg path.svg-range5 { fill: rgb(175, 96, 68); }</style><svg xmlns="http://www.w3.org/2000/svg" xmlns:inkscape="http://www.inkscape.org/namespaces/inkscape" xmlns:xlink="http://www.w3.org/1999/xlink" viewBox="0 0 1097 540" version="1.1">
<!-- svg generated using QGIS www.qgis.org -->
<g id="3273160_id2012__3273160003" inkscape:groupmode="layer" inkscape:label="3273160_id2012__3273160003">
<g stroke="rgb(0,0,0)" fill="rgb(252,2,77)" stroke-linejoin="round" stroke-width="0.26">
<g id="3273160_id2012__3273160003_1">
<path d="M 680,219 L 680,221 L 680,224 L 680,225 L 680,227 L 680,229 L 680,232 L 680,233 L 680,236 L 680,238 L 680,239 L 680,242 L 681,245 L 681,248 L 681,254 L 681,255 L 680,256 L 679,260 L 679,262 L 679,264 L 678,272 L 678,277 L 678,278 L 677,280 L 676,282 L 675,284 L 674,290 L 674,291 L 673,293 L 673,294 L 673,297 L 673,299 L 673,301 L 673,305 L 672,307 L 669,311 L 667,314 L 663,318 L 663,316 L 662,313 L 662,312 L 662,311 L 661,311 L 660,311 L 659,310 L 658,308 L 658,306 L 657,304 L 656,301 L 656,297 L 655,295 L 656,291 L 655,288 L 655,287 L 655,284 L 655,279 L 656,279 L 656,276 L 655,272 L 651,264 L 649,260 L 649,259 L 649,258 L 649,256 L 650,255 L 650,253 L 649,252 L 649,251 L 649,250 L 647,246 L 646,244 L 645,242 L 643,241 L 640,239 L 639,238 L 638,237 L 638,236 L 637,235 L 636,234 L 635,232 L 634,229 L 634,227 L 633,227 L 631,226 L 630,224 L 630,222 L 629,220 L 628,219 L 625,218 L 623,217 L 622,216 L 620,211 L 619,211 L 618,209 L 618,208 L 618,207 L 619,207 L 619,206 L 619,205 L 620,204 L 620,202 L 621,201 L 622,198 L 623,198 L 625,199 L 626,199 L 636,203 L 638,203 L 643,205 L 649,207 L 653,209 L 664,213 L 671,216 L 680,219 " class="svg-range1" data-original-title="&lt;b&gt;KEBON GEDANG&lt;/b&gt;&lt;br /&gt;81" title=""/>
</g>
</g>
</g>
<g id="3273160_id2012__3273160004" inkscape:groupmode="layer" inkscape:label="3273160_id2012__3273160004">
<g stroke="rgb(0,0,0)" fill="rgb(168,151,211)" stroke-linejoin="round" stroke-width="0.26">
<g id="3273160_id2012__3273160004_1">
<path d="M 622,198 L 621,201 L 620,202 L 620,204 L 619,205 L 619,206 L 619,207 L 618,207 L 618,208 L 618,209 L 619,211 L 620,211 L 622,216 L 623,217 L 625,218 L 628,219 L 629,220 L 630,222 L 630,224 L 631,226 L 633,227 L 634,227 L 634,229 L 635,232 L 636,234 L 637,235 L 638,236 L 638,237 L 639,238 L 640,239 L 643,241 L 645,242 L 646,244 L 647,246 L 649,250 L 649,251 L 649,252 L 650,253 L 650,255 L 649,256 L 649,258 L 649,259 L 649,260 L 651,264 L 655,272 L 656,276 L 656,279 L 655,279 L 655,284 L 655,287 L 655,288 L 656,291 L 655,295 L 656,297 L 656,301 L 657,304 L 658,306 L 658,308 L 659,310 L 660,311 L 661,311 L 662,311 L 662,312 L 662,313 L 663,316 L 663,318 L 663,319 L 662,318 L 660,318 L 659,317 L 657,316 L 656,316 L 651,314 L 646,312 L 643,311 L 638,309 L 636,308 L 635,308 L 632,307 L 631,306 L 629,306 L 628,305 L 626,304 L 625,303 L 623,302 L 622,302 L 621,301 L 619,300 L 617,298 L 611,294 L 610,293 L 609,291 L 607,289 L 604,286 L 603,285 L 602,284 L 601,284 L 598,281 L 595,279 L 595,278 L 594,278 L 591,277 L 584,272 L 581,271 L 579,270 L 577,268 L 577,267 L 580,254 L 581,250 L 585,232 L 587,227 L 587,224 L 587,220 L 587,216 L 587,214 L 586,211 L 586,209 L 583,203 L 581,199 L 578,195 L 576,192 L 575,190 L 571,185 L 570,184 L 567,182 L 565,180 L 562,177 L 571,180 L 576,181 L 585,184 L 597,188 L 599,189 L 607,192 L 618,196 L 620,197 L 622,198 " class="svg-range5" data-original-title="&lt;b&gt;MALEER&lt;/b&gt;&lt;br /&gt;259" title=""/>
</g>
</g>
</g>
<g id="3273160_id2012__3273160005" inkscape:groupmode="layer" inkscape:label="3273160_id2012__3273160005">
<g stroke="rgb(0,0,0)" fill="rgb(75,206,152)" stroke-linejoin="round" stroke-width="0.26">
<g id="3273160_id2012__3273160005_1">
<path d="M 562,177 L 565,180 L 567,182 L 570,184 L 571,185 L 575,190 L 576,192 L 578,195 L 581,199 L 583,203 L 586,209 L 586,211 L 587,214 L 587,216 L 587,220 L 587,224 L 587,227 L 585,232 L 581,250 L 580,254 L 577,267 L 577,268 L 574,267 L 571,265 L 569,264 L 567,263 L 566,263 L 565,262 L 563,261 L 552,255 L 551,255 L 551,254 L 545,251 L 544,251 L 543,250 L 541,249 L 540,249 L 539,248 L 538,248 L 535,246 L 532,245 L 532,244 L 530,244 L 528,242 L 527,242 L 523,239 L 522,239 L 521,238 L 518,238 L 517,237 L 511,236 L 508,235 L 506,235 L 505,234 L 501,233 L 499,233 L 498,233 L 496,232 L 494,232 L 493,231 L 490,231 L 489,230 L 488,230 L 487,230 L 486,230 L 484,229 L 483,229 L 481,228 L 480,228 L 479,228 L 478,228 L 477,227 L 477,211 L 477,209 L 477,205 L 477,204 L 478,202 L 478,199 L 478,197 L 479,195 L 481,193 L 481,192 L 483,190 L 486,188 L 489,186 L 490,186 L 491,186 L 494,186 L 498,186 L 500,186 L 502,186 L 504,185 L 506,184 L 508,183 L 510,182 L 513,181 L 513,180 L 516,180 L 517,180 L 517,178 L 508,178 L 502,179 L 499,179 L 498,179 L 499,174 L 502,166 L 503,162 L 508,163 L 510,164 L 511,164 L 514,165 L 522,167 L 529,168 L 531,169 L 547,173 L 551,174 L 562,177 " class="svg-range4" data-original-title="&lt;b&gt;CIBANGKONG&lt;/b&gt;&lt;br /&gt;192" title=""/>
</g>
</g>
</g>
<g id="3273160_id2012__3273160006" inkscape:groupmode="layer" inkscape:label="3273160_id2012__3273160006">
<g stroke="rgb(0,0,0)" fill="rgb(45,20,137)" stroke-linejoin="round" stroke-width="0.26">
<g id="3273160_id2012__3273160006_1">
<path d="M 503,162 L 502,166 L 499,174 L 498,179 L 499,179 L 502,179 L 508,178 L 517,178 L 517,180 L 516,180 L 513,180 L 513,181 L 510,182 L 508,183 L 506,184 L 504,185 L 502,186 L 500,186 L 498,186 L 494,186 L 491,186 L 490,186 L 489,186 L 486,188 L 483,190 L 481,192 L 481,193 L 479,195 L 478,197 L 478,199 L 478,202 L 477,204 L 477,205 L 477,209 L 477,211 L 477,227 L 476,227 L 475,227 L 474,227 L 472,226 L 471,226 L 470,226 L 469,225 L 467,225 L 466,224 L 464,224 L 459,223 L 458,223 L 457,222 L 455,222 L 454,222 L 453,221 L 449,221 L 448,220 L 444,220 L 441,219 L 428,216 L 426,215 L 425,215 L 422,214 L 421,214 L 418,214 L 415,213 L 414,213 L 412,212 L 412,211 L 415,204 L 415,203 L 416,200 L 416,199 L 416,198 L 417,197 L 417,194 L 418,193 L 418,191 L 419,189 L 419,188 L 419,187 L 419,186 L 418,185 L 417,184 L 417,183 L 417,181 L 416,179 L 414,163 L 413,159 L 413,158 L 412,152 L 411,147 L 412,147 L 412,146 L 413,146 L 414,145 L 415,144 L 416,144 L 417,144 L 417,143 L 418,143 L 419,142 L 420,142 L 421,142 L 424,143 L 431,145 L 433,145 L 444,148 L 447,149 L 448,149 L 453,150 L 454,150 L 455,151 L 456,151 L 458,151 L 462,152 L 463,152 L 464,153 L 469,154 L 473,155 L 477,156 L 485,158 L 487,158 L 490,159 L 491,160 L 493,160 L 496,161 L 503,162 " class="svg-range4" data-original-title="&lt;b&gt;SAMOJA&lt;/b&gt;&lt;br /&gt;182" title=""/>
</g>
</g>
</g>
<g id="3273160_id2012__3273160007" inkscape:groupmode="layer" inkscape:label="3273160_id2012__3273160007">
<g stroke="rgb(0,0,0)" fill="rgb(227,176,159)" stroke-linejoin="round" stroke-width="0.26">
<g id="3273160_id2012__3273160007_1">
<path d="M 622,198 L 620,197 L 618,196 L 607,192 L 599,189 L 597,188 L 585,184 L 576,181 L 571,180 L 562,177 L 551,174 L 547,173 L 531,169 L 529,168 L 522,167 L 514,165 L 511,164 L 510,164 L 508,163 L 503,162 L 496,161 L 493,160 L 491,160 L 490,159 L 487,158 L 485,158 L 477,156 L 473,155 L 469,154 L 464,153 L 463,152 L 462,152 L 458,151 L 456,151 L 455,151 L 454,150 L 453,150 L 448,149 L 447,149 L 444,148 L 433,145 L 431,145 L 424,143 L 421,142 L 420,142 L 421,141 L 422,141 L 423,140 L 424,140 L 424,139 L 425,139 L 426,139 L 426,138 L 427,138 L 428,137 L 429,137 L 430,136 L 431,136 L 432,135 L 433,135 L 434,134 L 440,131 L 442,130 L 444,129 L 447,127 L 448,127 L 449,126 L 450,126 L 451,126 L 451,125 L 452,125 L 453,124 L 456,123 L 457,122 L 458,122 L 461,120 L 463,119 L 466,117 L 467,117 L 468,117 L 469,116 L 470,115 L 472,114 L 475,113 L 476,112 L 477,112 L 479,111 L 480,110 L 481,110 L 482,109 L 484,108 L 486,107 L 487,106 L 488,106 L 488,105 L 491,104 L 492,103 L 495,102 L 498,100 L 500,99 L 503,97 L 505,97 L 505,96 L 506,96 L 510,94 L 516,91 L 517,90 L 519,89 L 520,89 L 521,88 L 522,87 L 523,87 L 524,87 L 525,86 L 526,86 L 529,84 L 530,83 L 531,83 L 532,82 L 533,82 L 534,81 L 535,81 L 536,80 L 537,80 L 538,79 L 539,79 L 540,78 L 541,78 L 542,77 L 543,77 L 543,76 L 544,76 L 545,76 L 546,75 L 552,72 L 556,70 L 557,69 L 565,65 L 566,64 L 571,61 L 576,59 L 578,58 L 585,54 L 586,54 L 586,53 L 587,53 L 588,52 L 590,55 L 591,57 L 591,59 L 592,61 L 591,63 L 591,64 L 590,66 L 589,69 L 587,74 L 586,77 L 587,79 L 587,83 L 587,85 L 588,88 L 588,90 L 589,96 L 589,97 L 591,115 L 591,116 L 590,121 L 590,123 L 589,126 L 588,131 L 587,133 L 586,138 L 586,139 L 586,140 L 585,140 L 586,141 L 586,142 L 585,143 L 589,144 L 594,145 L 599,147 L 603,148 L 606,150 L 608,152 L 611,156 L 613,157 L 618,163 L 629,174 L 629,176 L 629,177 L 628,179 L 627,181 L 629,183 L 628,185 L 622,197 L 622,198 " class="svg-range1" data-original-title="&lt;b&gt;KACAPIRING&lt;/b&gt;&lt;br /&gt;43" title=""/>
</g>
</g>
</g>
<g id="3273160_id2012__3273160008" inkscape:groupmode="layer" inkscape:label="3273160_id2012__3273160008">
<g stroke="rgb(0,0,0)" fill="rgb(39,81,187)" stroke-linejoin="round" stroke-width="0.26">
<g id="3273160_id2012__3273160008_1">
<path d="M 674,118 L 675,129 L 675,132 L 675,134 L 675,136 L 675,139 L 675,140 L 676,143 L 676,149 L 676,152 L 676,157 L 677,170 L 678,183 L 678,185 L 678,192 L 678,193 L 679,200 L 679,204 L 680,219 L 671,216 L 664,213 L 653,209 L 649,207 L 643,205 L 638,203 L 636,203 L 626,199 L 625,199 L 623,198 L 622,198 L 622,197 L 628,185 L 629,183 L 627,181 L 628,179 L 629,177 L 629,176 L 629,174 L 618,163 L 613,157 L 611,156 L 608,152 L 606,150 L 603,148 L 599,147 L 594,145 L 589,144 L 585,143 L 586,142 L 586,141 L 585,140 L 586,140 L 586,139 L 586,138 L 587,133 L 588,131 L 589,126 L 590,123 L 590,121 L 591,116 L 591,115 L 589,97 L 589,96 L 588,90 L 588,88 L 587,85 L 587,83 L 587,79 L 586,77 L 587,74 L 589,69 L 590,66 L 591,64 L 591,63 L 592,61 L 591,59 L 591,57 L 590,55 L 588,52 L 591,51 L 597,48 L 600,46 L 602,45 L 605,43 L 607,42 L 610,41 L 614,39 L 617,37 L 618,36 L 620,35 L 621,35 L 624,33 L 628,31 L 631,30 L 636,27 L 642,24 L 643,23 L 650,20 L 654,18 L 655,17 L 656,17 L 658,15 L 662,13 L 664,12 L 665,31 L 666,35 L 666,37 L 667,50 L 668,53 L 668,55 L 669,67 L 670,78 L 670,79 L 671,88 L 673,106 L 673,108 L 674,118 " class="svg-range1" data-original-title="&lt;b&gt;KEBON WARU&lt;/b&gt;&lt;br /&gt;73" title=""/>
</g>
</g>
</g>
<g id="3273160_id2012__3273160001" inkscape:groupmode="layer" inkscape:label="3273160_id2012__3273160001">
<g stroke="rgb(0,0,0)" fill="rgb(18,255,228)" stroke-linejoin="round" stroke-width="0.26">
<g id="3273160_id2012__3273160001_1">
<path d="M 628,305 L 627,308 L 624,313 L 623,314 L 623,316 L 622,317 L 620,322 L 619,324 L 618,327 L 617,328 L 616,329 L 615,330 L 615,331 L 614,331 L 612,332 L 611,332 L 610,332 L 609,332 L 606,331 L 604,330 L 603,330 L 602,330 L 601,331 L 601,332 L 600,333 L 600,335 L 601,338 L 601,339 L 601,342 L 601,343 L 601,345 L 601,346 L 602,347 L 603,351 L 604,352 L 607,355 L 608,358 L 609,358 L 609,359 L 610,360 L 610,362 L 610,363 L 609,365 L 608,366 L 607,367 L 605,370 L 603,371 L 603,373 L 603,374 L 606,377 L 607,378 L 609,378 L 610,378 L 612,378 L 614,379 L 616,379 L 616,380 L 617,380 L 619,382 L 620,384 L 620,385 L 621,386 L 621,388 L 621,389 L 619,390 L 617,391 L 613,394 L 611,396 L 610,398 L 607,401 L 604,405 L 604,406 L 603,409 L 601,412 L 600,414 L 601,416 L 604,421 L 607,426 L 608,428 L 608,429 L 609,430 L 612,432 L 613,433 L 616,434 L 618,434 L 621,435 L 623,435 L 623,436 L 624,437 L 624,439 L 623,440 L 622,441 L 621,444 L 619,448 L 617,452 L 616,453 L 614,454 L 612,454 L 610,454 L 607,454 L 605,454 L 604,454 L 603,454 L 601,455 L 599,456 L 598,457 L 597,458 L 596,460 L 596,461 L 596,462 L 597,464 L 596,466 L 596,468 L 595,470 L 595,471 L 596,473 L 597,474 L 597,475 L 599,476 L 602,480 L 603,481 L 603,482 L 606,485 L 608,488 L 609,489 L 610,490 L 610,491 L 611,491 L 612,492 L 613,493 L 616,494 L 618,494 L 620,494 L 621,495 L 622,496 L 624,497 L 624,498 L 625,501 L 625,503 L 624,505 L 624,506 L 623,507 L 620,507 L 612,510 L 611,510 L 610,511 L 609,511 L 608,511 L 606,512 L 605,512 L 602,513 L 601,514 L 598,514 L 597,515 L 596,515 L 594,516 L 588,518 L 585,518 L 584,519 L 577,521 L 575,522 L 572,522 L 571,523 L 570,522 L 568,520 L 565,513 L 565,512 L 564,510 L 563,508 L 562,505 L 561,504 L 558,499 L 557,495 L 556,492 L 555,489 L 554,486 L 554,483 L 554,482 L 553,481 L 553,480 L 553,479 L 553,476 L 552,473 L 552,466 L 552,463 L 553,463 L 553,460 L 553,459 L 553,458 L 553,454 L 550,454 L 550,453 L 550,452 L 550,449 L 550,446 L 550,444 L 551,441 L 551,437 L 551,430 L 551,428 L 551,426 L 551,425 L 551,424 L 551,419 L 551,417 L 551,414 L 551,408 L 551,406 L 552,404 L 552,401 L 552,400 L 552,399 L 552,398 L 552,397 L 554,398 L 555,398 L 556,398 L 557,399 L 558,396 L 557,395 L 556,394 L 556,393 L 556,392 L 556,391 L 556,390 L 556,389 L 556,387 L 556,385 L 556,379 L 556,378 L 556,375 L 556,366 L 556,365 L 556,364 L 556,363 L 556,362 L 556,361 L 556,359 L 556,358 L 557,356 L 555,356 L 555,355 L 555,354 L 556,350 L 558,346 L 558,344 L 560,337 L 560,335 L 561,332 L 562,328 L 563,325 L 563,324 L 564,320 L 564,318 L 565,317 L 565,316 L 565,314 L 566,313 L 566,312 L 566,311 L 566,310 L 567,309 L 568,306 L 569,300 L 572,290 L 572,289 L 573,282 L 574,281 L 574,279 L 574,278 L 575,275 L 576,271 L 577,268 L 579,270 L 581,271 L 584,272 L 591,277 L 594,278 L 595,278 L 595,279 L 598,281 L 601,284 L 602,284 L 603,285 L 604,286 L 607,289 L 609,291 L 610,293 L 611,294 L 617,298 L 619,300 L 621,301 L 622,302 L 623,302 L 625,303 L 626,304 L 628,305 " class="svg-range4" data-original-title="&lt;b&gt;GUMURUH&lt;/b&gt;&lt;br /&gt;175" title=""/>
</g>
</g>
</g>
<g id="3273160_id2012__3273160002" inkscape:groupmode="layer" inkscape:label="3273160_id2012__3273160002">
<g stroke="rgb(0,0,0)" fill="rgb(22,156,165)" stroke-linejoin="round" stroke-width="0.26">
<g id="3273160_id2012__3273160002_1">
<path d="M 663,319 L 661,331 L 661,332 L 661,333 L 660,334 L 660,335 L 660,339 L 659,341 L 659,342 L 659,346 L 658,349 L 658,352 L 657,355 L 657,358 L 657,362 L 656,363 L 656,366 L 655,370 L 655,371 L 655,377 L 654,384 L 653,385 L 653,387 L 653,390 L 653,393 L 652,396 L 652,399 L 652,406 L 652,409 L 652,411 L 651,415 L 651,421 L 651,428 L 650,431 L 650,438 L 650,442 L 649,454 L 649,458 L 649,463 L 648,468 L 648,472 L 648,481 L 647,500 L 644,501 L 641,502 L 640,502 L 638,503 L 636,503 L 634,504 L 630,505 L 629,505 L 628,505 L 627,505 L 626,506 L 624,506 L 624,505 L 625,503 L 625,501 L 624,498 L 624,497 L 622,496 L 621,495 L 620,494 L 618,494 L 616,494 L 613,493 L 612,492 L 611,491 L 610,491 L 610,490 L 609,489 L 608,488 L 606,485 L 603,482 L 603,481 L 602,480 L 599,476 L 597,475 L 597,474 L 596,473 L 595,471 L 595,470 L 596,468 L 596,466 L 597,464 L 596,462 L 596,461 L 596,460 L 597,458 L 598,457 L 599,456 L 601,455 L 603,454 L 604,454 L 605,454 L 607,454 L 610,454 L 612,454 L 614,454 L 616,453 L 617,452 L 619,448 L 621,444 L 622,441 L 623,440 L 624,439 L 624,437 L 623,436 L 623,435 L 621,435 L 618,434 L 616,434 L 613,433 L 612,432 L 609,430 L 608,429 L 608,428 L 607,426 L 604,421 L 601,416 L 600,414 L 601,412 L 603,409 L 604,406 L 604,405 L 607,401 L 610,398 L 611,396 L 613,394 L 617,391 L 619,390 L 621,389 L 621,388 L 621,386 L 620,385 L 620,384 L 619,382 L 617,380 L 616,380 L 616,379 L 614,379 L 612,378 L 610,378 L 609,378 L 607,378 L 606,377 L 603,374 L 603,373 L 603,371 L 605,370 L 607,367 L 608,366 L 609,365 L 610,363 L 610,362 L 610,360 L 609,359 L 609,358 L 608,358 L 607,355 L 604,352 L 603,351 L 602,347 L 601,346 L 601,345 L 601,343 L 601,342 L 601,339 L 601,338 L 600,335 L 600,333 L 601,332 L 601,331 L 602,330 L 603,330 L 604,330 L 606,331 L 609,332 L 610,332 L 611,332 L 612,332 L 614,331 L 615,331 L 615,330 L 616,329 L 617,328 L 618,327 L 619,324 L 620,322 L 622,317 L 623,316 L 623,314 L 624,313 L 627,308 L 628,305 L 629,306 L 631,306 L 632,307 L 635,308 L 636,308 L 638,309 L 643,311 L 646,312 L 651,314 L 656,316 L 657,316 L 659,317 L 660,318 L 662,318 L 663,319 " class="svg-range3" data-original-title="&lt;b&gt;BINONG&lt;/b&gt;&lt;br /&gt;150" title=""/>
</g>
</g>
</g>
</svg></svg>