<svg id="svg-map" width="null" height="null" xmlns="http://www.w3.org/2000/svg" style="animation-delay: 0s; animation-direction: normal; animation-duration: 0s; animation-fill-mode: none; animation-iteration-count: 1; animation-name: none; animation-play-state: running; animation-timing-function: ease; background-attachment: scroll; background-blend-mode: normal; background-clip: border-box; background-color: rgba(0, 0, 0, 0); background-image: none; background-origin: padding-box; background-position: 0% 0%; background-repeat: repeat; background-size: auto; border-bottom-color: rgb(255, 255, 255); border-bottom-left-radius: 0px; border-bottom-right-radius: 0px; border-bottom-style: none; border-bottom-width: 0px; border-collapse: separate; border-image-outset: 0px; border-image-repeat: stretch; border-image-slice: 100%; border-image-source: none; border-image-width: 1; border-left-color: rgb(255, 255, 255); border-left-style: none; border-left-width: 0px; border-right-color: rgb(255, 255, 255); border-right-style: none; border-right-width: 0px; border-top-color: rgb(255, 255, 255); border-top-left-radius: 0px; border-top-right-radius: 0px; border-top-style: none; border-top-width: 0px; bottom: auto; box-shadow: none; box-sizing: border-box; break-after: auto; break-before: auto; break-inside: auto; caption-side: top; clear: none; clip: auto; color: rgb(255, 255, 255); content: ; cursor: auto; direction: ltr; display: inline; empty-cells: show; float: none; font-family: &quot;Open Sans&quot;, sans-serif; font-kerning: auto; font-size: 13px; font-stretch: normal; font-style: normal; font-variant: normal; font-variant-ligatures: normal; font-variant-caps: normal; font-variant-numeric: normal; font-weight: normal; height: 303.953px; image-rendering: auto; isolation: auto; left: auto; letter-spacing: normal; line-height: 18.5714px; list-style-image: none; list-style-position: outside; list-style-type: disc; margin-bottom: 0px; margin-left: 0px; margin-right: 0px; margin-top: 0px; max-height: 400px; max-width: none; min-height: 0px; min-width: 0px; mix-blend-mode: normal; motion-offset: 0px; motion-path: none; motion-rotation: auto 0deg; object-fit: fill; object-position: 50% 50%; opacity: 1; orphans: 2; outline-color: rgb(255, 255, 255); outline-offset: 0px; outline-style: none; outline-width: 0px; overflow-wrap: normal; overflow-x: hidden; overflow-y: hidden; padding-bottom: 0px; padding-left: 0px; padding-right: 0px; padding-top: 0px; pointer-events: auto; position: static; resize: none; right: auto; speak: normal; table-layout: auto; tab-size: 8; text-align: center; text-align-last: auto; text-decoration: none; text-indent: 0px; text-rendering: auto; text-shadow: none; text-size-adjust: 100%; text-overflow: clip; text-transform: none; top: auto; touch-action: auto; transition-delay: 0s; transition-duration: 0s; transition-property: all; transition-timing-function: ease; unicode-bidi: normal; vertical-align: baseline; visibility: visible; white-space: normal; widows: 2; width: 617.5px; will-change: auto; word-break: normal; word-spacing: 0px; word-wrap: normal; z-index: auto; zoom: 1; -webkit-appearance: none; backface-visibility: visible; -webkit-background-clip: border-box; -webkit-background-origin: padding-box; -webkit-border-horizontal-spacing: 0px; -webkit-border-image: none; -webkit-border-vertical-spacing: 0px; -webkit-box-align: stretch; -webkit-box-decoration-break: slice; -webkit-box-direction: normal; -webkit-box-flex: 0; -webkit-box-flex-group: 1; -webkit-box-lines: single; -webkit-box-ordinal-group: 1; -webkit-box-orient: horizontal; -webkit-box-pack: start; -webkit-box-reflect: none; -webkit-clip-path: none; column-count: auto; column-gap: normal; column-rule-color: rgb(255, 255, 255); column-rule-style: none; column-rule-width: 0px; column-span: none; column-width: auto; align-content: stretch; align-items: stretch; align-self: stretch; flex-basis: auto; flex-grow: 0; flex-shrink: 1; flex-direction: row; flex-wrap: nowrap; justify-content: flex-start; -webkit-font-smoothing: auto; -webkit-highlight: none; -webkit-hyphenate-character: auto; -webkit-line-break: auto; -webkit-line-clamp: none; -webkit-locale: &quot;en&quot;; -webkit-margin-before-collapse: collapse; -webkit-margin-after-collapse: collapse; -webkit-mask-box-image: none; -webkit-mask-box-image-outset: 0px; -webkit-mask-box-image-repeat: stretch; -webkit-mask-box-image-slice: 0 fill; -webkit-mask-box-image-source: none; -webkit-mask-box-image-width: auto; -webkit-mask-clip: border-box; -webkit-mask-composite: source-over; -webkit-mask-image: none; -webkit-mask-origin: border-box; -webkit-mask-position: 0% 0%; -webkit-mask-repeat: repeat; -webkit-mask-size: auto; order: 0; perspective: none; perspective-origin: 308.75px 151.969px; -webkit-print-color-adjust: economy; -webkit-rtl-ordering: logical; shape-outside: none; shape-image-threshold: 0; shape-margin: 0px; -webkit-tap-highlight-color: rgba(0, 0, 0, 0); -webkit-text-combine: none; -webkit-text-decorations-in-effect: none; -webkit-text-emphasis-color: rgb(255, 255, 255); -webkit-text-emphasis-position: over; -webkit-text-emphasis-style: none; -webkit-text-fill-color: rgb(255, 255, 255); -webkit-text-orientation: vertical-right; -webkit-text-security: none; -webkit-text-stroke-color: rgb(255, 255, 255); -webkit-text-stroke-width: 0px; transform: none; transform-origin: 308.75px 151.969px; transform-style: flat; -webkit-user-drag: auto; -webkit-user-modify: read-only; user-select: text; -webkit-writing-mode: horizontal-tb; -webkit-app-region: no-drag; buffered-rendering: auto; clip-path: none; clip-rule: nonzero; mask: none; filter: none; flood-color: rgb(0, 0, 0); flood-opacity: 1; lighting-color: rgb(255, 255, 255); stop-color: rgb(0, 0, 0); stop-opacity: 1; color-interpolation: sRGB; color-interpolation-filters: linearRGB; color-rendering: auto; fill: rgb(0, 0, 0); fill-opacity: 1; fill-rule: nonzero; marker-end: none; marker-mid: none; marker-start: none; mask-type: luminance; shape-rendering: auto; stroke: none; stroke-dasharray: none; stroke-dashoffset: 0px; stroke-linecap: butt; stroke-linejoin: miter; stroke-miterlimit: 4; stroke-opacity: 1; stroke-width: 1px; alignment-baseline: auto; baseline-shift: 0px; dominant-baseline: auto; text-anchor: start; writing-mode: horizontal-tb; vector-effect: none; paint-order: fill stroke markers; d: none; cx: 0px; cy: 0px; x: 0px; y: 0px; r: 0px; rx: auto; ry: auto;" version="1.1" xmlns:xlink="http://www.w3.org/1999/xlink"><style type="text/css">svg:not(:root) { overflow: hidden; }
* { box-sizing: border-box; }
* { font-size: 13px; }
svg { max-height: 100vh; border: none !important; }
#svg-map svg { max-height: 400px; }
#svg-map svg path { fill: rgb(153, 196, 176); stroke: rgb(51, 51, 51); stroke-width: 1; }
#svg-map svg path.svg-range1 { fill: rgb(194, 223, 115); }
#svg-map svg path.svg-range3 { fill: rgb(189, 170, 83); }
#svg-map svg path.svg-range5 { fill: rgb(175, 96, 68); }</style><svg xmlns="http://www.w3.org/2000/svg" xmlns:inkscape="http://www.inkscape.org/namespaces/inkscape" xmlns:xlink="http://www.w3.org/1999/xlink" viewBox="0 0 1097 540" version="1.1">
<!-- svg generated using QGIS www.qgis.org -->
<g id="3273121_id2012__3273121002" inkscape:groupmode="layer" inkscape:label="3273121_id2012__3273121002">
<g stroke="rgb(0,0,0)" fill="rgb(51,84,248)" stroke-linejoin="round" stroke-width="0.26">
<g id="3273121_id2012__3273121002_1">
<path d="M 500,288 L 502,289 L 506,290 L 509,291 L 511,292 L 512,294 L 515,295 L 516,293 L 520,294 L 523,295 L 531,298 L 532,298 L 538,300 L 535,305 L 534,312 L 539,313 L 539,314 L 541,314 L 541,315 L 542,315 L 543,316 L 544,316 L 543,319 L 547,326 L 549,327 L 550,327 L 551,329 L 551,331 L 550,340 L 550,341 L 551,341 L 552,342 L 553,341 L 555,341 L 556,341 L 556,342 L 556,343 L 557,344 L 556,345 L 555,346 L 555,347 L 555,348 L 557,350 L 558,350 L 559,351 L 560,352 L 561,354 L 561,356 L 561,357 L 560,359 L 559,359 L 558,360 L 558,361 L 559,362 L 561,363 L 562,362 L 564,362 L 565,362 L 565,363 L 564,363 L 562,365 L 562,367 L 562,368 L 563,372 L 563,374 L 563,375 L 563,377 L 562,379 L 563,381 L 562,384 L 563,385 L 563,386 L 563,387 L 564,387 L 566,387 L 569,386 L 572,387 L 576,388 L 580,396 L 580,397 L 581,399 L 582,400 L 583,402 L 583,403 L 588,402 L 592,402 L 593,402 L 595,402 L 596,402 L 598,402 L 600,404 L 600,405 L 600,406 L 601,407 L 601,408 L 603,409 L 604,409 L 605,409 L 606,409 L 607,410 L 607,411 L 608,411 L 610,409 L 611,409 L 612,409 L 612,410 L 612,411 L 610,413 L 608,414 L 608,415 L 607,416 L 608,418 L 609,418 L 610,419 L 611,420 L 612,419 L 614,420 L 615,420 L 616,420 L 617,420 L 617,423 L 618,423 L 618,424 L 618,425 L 618,426 L 618,427 L 618,428 L 618,430 L 619,432 L 620,434 L 621,435 L 623,435 L 624,435 L 625,435 L 626,435 L 627,435 L 627,433 L 627,432 L 628,431 L 631,431 L 632,431 L 632,432 L 633,433 L 633,434 L 631,435 L 629,437 L 629,438 L 628,439 L 629,439 L 631,442 L 633,445 L 634,446 L 634,447 L 635,448 L 636,448 L 636,449 L 635,450 L 634,451 L 634,452 L 635,452 L 637,452 L 638,451 L 640,449 L 641,448 L 642,448 L 642,449 L 643,450 L 643,451 L 642,451 L 641,452 L 639,453 L 638,455 L 637,457 L 637,459 L 638,460 L 639,461 L 640,461 L 641,462 L 642,462 L 642,464 L 641,465 L 641,466 L 639,468 L 638,469 L 638,470 L 639,473 L 640,473 L 642,473 L 644,473 L 645,473 L 645,474 L 645,475 L 643,476 L 643,477 L 643,479 L 644,480 L 645,480 L 646,480 L 648,479 L 650,479 L 653,480 L 657,482 L 661,484 L 663,486 L 664,487 L 664,489 L 663,491 L 663,493 L 665,495 L 666,496 L 666,497 L 663,499 L 662,500 L 662,501 L 663,503 L 664,504 L 664,505 L 664,507 L 664,508 L 663,509 L 662,511 L 661,515 L 661,519 L 661,520 L 661,521 L 661,523 L 660,523 L 659,522 L 658,522 L 649,518 L 644,517 L 640,515 L 635,513 L 631,512 L 626,510 L 618,507 L 617,507 L 609,504 L 600,501 L 593,498 L 585,495 L 582,494 L 573,491 L 570,490 L 563,487 L 558,486 L 557,485 L 556,485 L 552,483 L 548,482 L 543,480 L 539,479 L 532,476 L 531,476 L 523,473 L 514,470 L 513,469 L 511,468 L 503,466 L 502,465 L 484,459 L 480,457 L 475,455 L 472,454 L 470,453 L 462,450 L 456,448 L 452,447 L 446,445 L 441,443 L 436,441 L 435,441 L 432,440 L 429,439 L 427,438 L 425,437 L 421,436 L 420,435 L 413,433 L 411,432 L 408,431 L 402,429 L 398,427 L 394,426 L 391,425 L 386,423 L 381,421 L 377,419 L 374,418 L 372,417 L 375,417 L 380,417 L 383,417 L 385,417 L 387,417 L 389,416 L 390,416 L 391,416 L 393,416 L 394,415 L 395,415 L 395,414 L 396,412 L 396,411 L 394,411 L 393,410 L 392,410 L 392,409 L 392,408 L 392,407 L 391,404 L 390,402 L 389,400 L 389,399 L 389,397 L 389,393 L 389,392 L 388,388 L 387,388 L 386,384 L 386,382 L 386,381 L 386,379 L 385,378 L 385,377 L 384,377 L 384,376 L 384,369 L 383,366 L 383,365 L 383,364 L 382,363 L 382,362 L 381,361 L 380,359 L 379,358 L 378,357 L 378,356 L 377,354 L 376,353 L 375,352 L 374,352 L 372,352 L 371,351 L 372,349 L 372,348 L 372,347 L 370,345 L 370,344 L 369,345 L 368,345 L 367,345 L 365,344 L 366,341 L 367,339 L 368,337 L 369,336 L 370,335 L 371,334 L 371,333 L 371,332 L 371,330 L 370,328 L 369,327 L 367,327 L 366,326 L 366,322 L 366,318 L 366,317 L 367,317 L 368,317 L 369,317 L 370,316 L 370,315 L 372,314 L 372,313 L 375,312 L 374,311 L 374,310 L 374,309 L 375,308 L 375,307 L 377,306 L 378,305 L 379,304 L 377,296 L 377,295 L 378,293 L 379,292 L 380,291 L 381,291 L 384,290 L 386,289 L 387,288 L 388,287 L 390,285 L 393,283 L 394,281 L 395,280 L 396,278 L 396,277 L 397,276 L 398,275 L 398,274 L 399,273 L 401,271 L 402,270 L 404,270 L 405,270 L 406,270 L 407,269 L 407,268 L 408,266 L 408,265 L 409,262 L 410,260 L 410,257 L 410,256 L 417,259 L 429,264 L 433,266 L 437,267 L 439,268 L 440,268 L 447,270 L 450,271 L 453,271 L 454,273 L 455,272 L 458,275 L 472,277 L 473,277 L 473,278 L 473,279 L 474,279 L 475,279 L 477,279 L 479,280 L 482,281 L 487,284 L 488,284 L 499,287 L 500,288 " class="svg-range5" data-original-title="&lt;b&gt;BABAKAN PENGHULU&lt;/b&gt;&lt;br /&gt;75" title=""/>
</g>
</g>
</g>
<g id="3273121_id2012__3273121003" inkscape:groupmode="layer" inkscape:label="3273121_id2012__3273121003">
<g stroke="rgb(0,0,0)" fill="rgb(64,201,103)" stroke-linejoin="round" stroke-width="0.26">
<g id="3273121_id2012__3273121003_1">
<path d="M 652,40 L 652,49 L 651,55 L 651,57 L 651,58 L 651,60 L 651,64 L 649,71 L 648,77 L 647,79 L 647,80 L 645,87 L 643,95 L 642,97 L 639,106 L 637,109 L 636,111 L 633,116 L 632,120 L 630,127 L 629,130 L 626,139 L 624,149 L 622,154 L 621,158 L 621,159 L 619,162 L 618,166 L 616,169 L 615,171 L 611,177 L 608,184 L 600,198 L 599,200 L 589,224 L 577,256 L 574,265 L 570,275 L 568,283 L 567,285 L 566,286 L 566,287 L 565,290 L 564,292 L 564,293 L 563,294 L 563,295 L 562,297 L 562,298 L 561,299 L 560,301 L 558,309 L 557,311 L 557,312 L 555,318 L 554,321 L 554,323 L 552,327 L 551,329 L 550,327 L 549,327 L 547,326 L 543,319 L 544,316 L 543,316 L 542,315 L 541,315 L 541,314 L 539,314 L 539,313 L 534,312 L 535,305 L 538,300 L 532,298 L 531,298 L 523,295 L 520,294 L 516,293 L 515,295 L 512,294 L 511,292 L 509,291 L 506,290 L 502,289 L 500,288 L 500,281 L 500,269 L 501,268 L 502,268 L 503,267 L 503,266 L 503,265 L 503,264 L 504,263 L 504,262 L 504,261 L 505,261 L 505,260 L 505,259 L 506,258 L 504,253 L 504,252 L 504,251 L 504,250 L 505,248 L 504,246 L 503,245 L 502,245 L 501,244 L 501,243 L 501,242 L 502,241 L 502,239 L 502,238 L 502,235 L 502,234 L 501,232 L 501,230 L 502,226 L 502,225 L 502,224 L 502,223 L 501,222 L 501,221 L 501,220 L 502,218 L 503,217 L 503,215 L 503,214 L 504,213 L 505,212 L 505,211 L 505,209 L 506,209 L 506,205 L 506,204 L 506,202 L 506,201 L 504,199 L 501,196 L 501,195 L 501,194 L 500,193 L 500,191 L 500,190 L 500,187 L 499,185 L 499,184 L 498,182 L 497,181 L 497,180 L 497,179 L 497,178 L 500,177 L 498,175 L 490,165 L 490,164 L 490,163 L 489,162 L 488,161 L 488,160 L 488,159 L 490,155 L 489,155 L 489,154 L 490,153 L 487,153 L 476,151 L 477,146 L 478,145 L 478,144 L 479,139 L 478,139 L 478,137 L 478,135 L 479,135 L 479,134 L 480,132 L 480,130 L 481,130 L 482,128 L 482,126 L 483,125 L 486,121 L 488,119 L 486,117 L 488,115 L 488,113 L 490,111 L 491,107 L 493,105 L 494,103 L 496,99 L 497,97 L 498,95 L 499,93 L 500,92 L 501,90 L 501,89 L 501,88 L 502,85 L 502,84 L 503,82 L 504,81 L 504,79 L 506,75 L 507,70 L 508,69 L 508,68 L 509,66 L 510,63 L 511,60 L 512,56 L 513,51 L 514,49 L 515,48 L 515,47 L 516,42 L 520,29 L 521,27 L 521,24 L 522,22 L 523,19 L 523,18 L 526,13 L 526,12 L 527,13 L 528,13 L 530,14 L 532,14 L 533,15 L 534,15 L 535,15 L 537,16 L 539,17 L 541,17 L 542,18 L 546,19 L 549,20 L 550,20 L 552,21 L 561,24 L 562,24 L 563,25 L 565,25 L 567,26 L 568,26 L 569,26 L 570,27 L 575,29 L 577,29 L 580,30 L 583,31 L 586,32 L 588,32 L 589,33 L 590,33 L 591,34 L 595,35 L 597,35 L 598,36 L 599,36 L 600,36 L 602,37 L 609,39 L 611,39 L 612,39 L 614,39 L 615,39 L 618,39 L 619,39 L 620,39 L 621,39 L 622,39 L 623,39 L 626,39 L 628,39 L 629,39 L 632,39 L 634,39 L 635,39 L 636,39 L 638,39 L 639,39 L 640,39 L 642,40 L 644,40 L 650,40 L 652,40 " class="svg-range1" data-original-title="&lt;b&gt;PAKEMITAN&lt;/b&gt;&lt;br /&gt;18" title=""/>
</g>
</g>
</g>
<g id="3273121_id2012__3273121004" inkscape:groupmode="layer" inkscape:label="3273121_id2012__3273121004">
<g stroke="rgb(0,0,0)" fill="rgb(41,198,241)" stroke-linejoin="round" stroke-width="0.26">
<g id="3273121_id2012__3273121004_1">
<path d="M 691,41 L 692,41 L 695,41 L 697,42 L 698,42 L 702,42 L 704,42 L 706,42 L 708,43 L 711,46 L 712,47 L 714,49 L 715,50 L 716,51 L 717,52 L 720,56 L 725,60 L 726,61 L 727,62 L 724,64 L 724,66 L 724,68 L 724,69 L 724,70 L 722,70 L 721,70 L 719,71 L 719,73 L 717,73 L 716,75 L 712,79 L 711,78 L 710,79 L 709,80 L 708,82 L 706,82 L 705,82 L 704,81 L 702,81 L 701,81 L 700,81 L 699,82 L 696,83 L 694,84 L 693,83 L 692,83 L 690,84 L 689,84 L 688,85 L 686,85 L 685,85 L 684,86 L 683,88 L 681,88 L 680,88 L 680,89 L 679,90 L 679,91 L 677,90 L 676,89 L 676,90 L 675,91 L 674,92 L 673,93 L 673,94 L 673,95 L 672,96 L 671,96 L 669,99 L 667,100 L 667,101 L 666,102 L 666,103 L 666,105 L 667,105 L 666,108 L 665,108 L 664,110 L 664,112 L 662,113 L 661,115 L 660,118 L 657,119 L 656,119 L 655,118 L 654,119 L 652,120 L 651,121 L 652,122 L 652,123 L 652,124 L 651,124 L 649,123 L 648,122 L 647,121 L 646,123 L 645,124 L 643,125 L 642,126 L 641,126 L 640,127 L 637,128 L 636,128 L 636,130 L 635,131 L 635,132 L 635,135 L 634,136 L 633,137 L 632,141 L 631,143 L 631,144 L 631,145 L 631,146 L 633,147 L 635,147 L 636,147 L 638,149 L 639,150 L 641,152 L 640,156 L 639,158 L 638,161 L 636,161 L 635,161 L 634,161 L 633,162 L 633,164 L 633,166 L 634,166 L 633,169 L 636,172 L 636,173 L 636,174 L 634,176 L 634,178 L 634,179 L 633,179 L 632,179 L 631,180 L 631,182 L 631,183 L 629,185 L 629,186 L 627,188 L 627,190 L 627,191 L 626,191 L 625,192 L 624,192 L 623,193 L 622,194 L 621,196 L 621,197 L 621,198 L 622,199 L 622,202 L 622,204 L 623,205 L 624,205 L 625,206 L 626,206 L 628,207 L 628,208 L 627,209 L 626,212 L 625,214 L 625,216 L 625,217 L 625,218 L 627,218 L 628,219 L 629,219 L 630,220 L 629,220 L 628,221 L 626,223 L 625,224 L 623,225 L 622,225 L 620,224 L 619,224 L 618,225 L 617,225 L 615,226 L 613,231 L 613,235 L 611,236 L 611,237 L 611,238 L 612,238 L 613,239 L 615,240 L 612,245 L 612,246 L 612,247 L 611,248 L 611,252 L 610,253 L 609,254 L 605,263 L 604,266 L 602,270 L 602,271 L 601,272 L 600,272 L 596,273 L 592,273 L 588,273 L 587,272 L 586,272 L 582,272 L 580,272 L 579,272 L 577,274 L 575,275 L 574,276 L 571,279 L 569,281 L 568,283 L 570,275 L 574,265 L 577,256 L 589,224 L 599,200 L 600,198 L 608,184 L 611,177 L 615,171 L 616,169 L 618,166 L 619,162 L 621,159 L 621,158 L 622,154 L 624,149 L 626,139 L 629,130 L 630,127 L 632,120 L 633,116 L 636,111 L 637,109 L 639,106 L 642,97 L 643,95 L 645,87 L 647,80 L 647,79 L 648,77 L 649,71 L 651,64 L 651,60 L 651,58 L 651,57 L 651,55 L 652,49 L 652,40 L 657,40 L 658,40 L 660,40 L 661,40 L 662,40 L 663,40 L 671,41 L 672,41 L 674,41 L 676,41 L 677,41 L 678,41 L 680,41 L 682,41 L 683,41 L 684,41 L 685,41 L 686,41 L 688,41 L 689,41 L 690,41 L 691,41 " class="svg-range3" data-original-title="&lt;b&gt;SUKAMULYA&lt;/b&gt;&lt;br /&gt;52" title=""/>
</g>
</g>
</g>
<g id="3273121_id2012__3273121001" inkscape:groupmode="layer" inkscape:label="3273121_id2012__3273121001">
<g stroke="rgb(0,0,0)" fill="rgb(57,71,195)" stroke-linejoin="round" stroke-width="0.26">
<g id="3273121_id2012__3273121001_1">
<path d="M 486,117 L 488,119 L 486,121 L 483,125 L 482,126 L 482,128 L 481,130 L 480,130 L 480,132 L 479,134 L 479,135 L 478,135 L 478,137 L 478,139 L 479,139 L 478,144 L 478,145 L 477,146 L 476,151 L 487,153 L 490,153 L 489,154 L 489,155 L 490,155 L 488,159 L 488,160 L 488,161 L 489,162 L 490,163 L 490,164 L 490,165 L 498,175 L 500,177 L 497,178 L 497,179 L 497,180 L 497,181 L 498,182 L 499,184 L 499,185 L 500,187 L 500,190 L 500,191 L 500,193 L 501,194 L 501,195 L 501,196 L 504,199 L 506,201 L 506,202 L 506,204 L 506,205 L 506,209 L 505,209 L 505,211 L 505,212 L 504,213 L 503,214 L 503,215 L 503,217 L 502,218 L 501,220 L 501,221 L 501,222 L 502,223 L 502,224 L 502,225 L 502,226 L 501,230 L 501,232 L 502,234 L 502,235 L 502,238 L 502,239 L 502,241 L 501,242 L 501,243 L 501,244 L 502,245 L 503,245 L 504,246 L 505,248 L 504,250 L 504,251 L 504,252 L 504,253 L 506,258 L 505,259 L 505,260 L 505,261 L 504,261 L 504,262 L 504,263 L 503,264 L 503,265 L 503,266 L 503,267 L 502,268 L 501,268 L 500,269 L 500,281 L 500,288 L 499,287 L 488,284 L 487,284 L 482,281 L 479,280 L 477,279 L 475,279 L 474,279 L 473,279 L 473,278 L 473,277 L 472,277 L 458,275 L 455,272 L 454,273 L 453,271 L 450,271 L 447,270 L 440,268 L 439,268 L 437,267 L 433,266 L 429,264 L 417,259 L 410,256 L 411,256 L 412,255 L 413,256 L 415,256 L 416,255 L 416,254 L 416,253 L 417,253 L 418,252 L 419,252 L 422,252 L 423,251 L 424,251 L 425,251 L 429,250 L 429,249 L 430,247 L 429,246 L 428,245 L 428,244 L 428,243 L 428,240 L 429,238 L 430,238 L 431,238 L 432,239 L 434,240 L 436,241 L 437,241 L 438,240 L 440,240 L 441,239 L 442,238 L 442,237 L 442,236 L 443,235 L 443,234 L 443,233 L 443,231 L 445,226 L 446,223 L 447,222 L 448,219 L 446,218 L 444,218 L 443,218 L 441,216 L 440,216 L 438,215 L 437,215 L 436,215 L 435,215 L 434,215 L 433,215 L 432,214 L 432,213 L 431,210 L 430,208 L 429,205 L 428,204 L 428,202 L 427,201 L 427,199 L 426,194 L 426,193 L 426,192 L 426,191 L 427,189 L 428,189 L 429,190 L 430,191 L 431,192 L 432,193 L 434,194 L 435,195 L 436,195 L 436,194 L 437,193 L 437,192 L 438,191 L 440,190 L 441,188 L 444,180 L 445,179 L 447,178 L 448,177 L 449,176 L 450,176 L 451,176 L 451,175 L 452,175 L 453,174 L 454,174 L 454,173 L 455,173 L 455,172 L 454,171 L 453,171 L 452,170 L 451,170 L 450,169 L 448,169 L 446,169 L 445,168 L 444,168 L 442,166 L 441,165 L 440,165 L 439,165 L 439,164 L 440,163 L 440,162 L 442,159 L 442,158 L 443,157 L 442,156 L 441,155 L 440,155 L 440,154 L 439,154 L 438,153 L 438,152 L 439,150 L 441,149 L 442,149 L 442,148 L 440,146 L 440,145 L 440,144 L 441,143 L 442,142 L 443,141 L 445,140 L 447,139 L 448,139 L 449,139 L 449,138 L 449,137 L 449,136 L 449,135 L 448,135 L 447,135 L 446,134 L 446,133 L 445,132 L 444,129 L 442,127 L 441,127 L 440,127 L 437,124 L 437,123 L 436,122 L 436,121 L 436,120 L 437,120 L 437,119 L 438,119 L 439,118 L 440,117 L 441,117 L 442,117 L 443,116 L 444,116 L 446,116 L 447,116 L 447,115 L 447,114 L 447,113 L 456,115 L 457,110 L 459,107 L 459,106 L 461,104 L 462,104 L 464,102 L 467,100 L 468,100 L 470,100 L 473,100 L 475,99 L 480,102 L 485,104 L 486,105 L 485,108 L 484,111 L 483,112 L 482,114 L 482,115 L 481,116 L 485,118 L 486,117 " class="svg-range5" data-original-title="&lt;b&gt;CISARANTEN WETAN&lt;/b&gt;&lt;br /&gt;89" title=""/>
</g>
</g>
</g>
</svg></svg>