<svg id="svg-map" width="null" height="null" xmlns="http://www.w3.org/2000/svg" style="animation-delay: 0s; animation-direction: normal; animation-duration: 0s; animation-fill-mode: none; animation-iteration-count: 1; animation-name: none; animation-play-state: running; animation-timing-function: ease; background-attachment: scroll; background-blend-mode: normal; background-clip: border-box; background-color: rgba(0, 0, 0, 0); background-image: none; background-origin: padding-box; background-position: 0% 0%; background-repeat: repeat; background-size: auto; border-bottom-color: rgb(255, 255, 255); border-bottom-left-radius: 0px; border-bottom-right-radius: 0px; border-bottom-style: none; border-bottom-width: 0px; border-collapse: separate; border-image-outset: 0px; border-image-repeat: stretch; border-image-slice: 100%; border-image-source: none; border-image-width: 1; border-left-color: rgb(255, 255, 255); border-left-style: none; border-left-width: 0px; border-right-color: rgb(255, 255, 255); border-right-style: none; border-right-width: 0px; border-top-color: rgb(255, 255, 255); border-top-left-radius: 0px; border-top-right-radius: 0px; border-top-style: none; border-top-width: 0px; bottom: auto; box-shadow: none; box-sizing: border-box; break-after: auto; break-before: auto; break-inside: auto; caption-side: top; clear: none; clip: auto; color: rgb(255, 255, 255); content: ; cursor: auto; direction: ltr; display: inline; empty-cells: show; float: none; font-family: &quot;Open Sans&quot;, sans-serif; font-kerning: auto; font-size: 13px; font-stretch: normal; font-style: normal; font-variant: normal; font-variant-ligatures: normal; font-variant-caps: normal; font-variant-numeric: normal; font-weight: normal; height: 303.953px; image-rendering: auto; isolation: auto; left: auto; letter-spacing: normal; line-height: 18.5714px; list-style-image: none; list-style-position: outside; list-style-type: disc; margin-bottom: 0px; margin-left: 0px; margin-right: 0px; margin-top: 0px; max-height: 400px; max-width: none; min-height: 0px; min-width: 0px; mix-blend-mode: normal; motion-offset: 0px; motion-path: none; motion-rotation: auto 0deg; object-fit: fill; object-position: 50% 50%; opacity: 1; orphans: 2; outline-color: rgb(255, 255, 255); outline-offset: 0px; outline-style: none; outline-width: 0px; overflow-wrap: normal; overflow-x: hidden; overflow-y: hidden; padding-bottom: 0px; padding-left: 0px; padding-right: 0px; padding-top: 0px; pointer-events: auto; position: static; resize: none; right: auto; speak: normal; table-layout: auto; tab-size: 8; text-align: center; text-align-last: auto; text-decoration: none; text-indent: 0px; text-rendering: auto; text-shadow: none; text-size-adjust: 100%; text-overflow: clip; text-transform: none; top: auto; touch-action: auto; transition-delay: 0s; transition-duration: 0s; transition-property: all; transition-timing-function: ease; unicode-bidi: normal; vertical-align: baseline; visibility: visible; white-space: normal; widows: 2; width: 617.5px; will-change: auto; word-break: normal; word-spacing: 0px; word-wrap: normal; z-index: auto; zoom: 1; -webkit-appearance: none; backface-visibility: visible; -webkit-background-clip: border-box; -webkit-background-origin: padding-box; -webkit-border-horizontal-spacing: 0px; -webkit-border-image: none; -webkit-border-vertical-spacing: 0px; -webkit-box-align: stretch; -webkit-box-decoration-break: slice; -webkit-box-direction: normal; -webkit-box-flex: 0; -webkit-box-flex-group: 1; -webkit-box-lines: single; -webkit-box-ordinal-group: 1; -webkit-box-orient: horizontal; -webkit-box-pack: start; -webkit-box-reflect: none; -webkit-clip-path: none; column-count: auto; column-gap: normal; column-rule-color: rgb(255, 255, 255); column-rule-style: none; column-rule-width: 0px; column-span: none; column-width: auto; align-content: stretch; align-items: stretch; align-self: stretch; flex-basis: auto; flex-grow: 0; flex-shrink: 1; flex-direction: row; flex-wrap: nowrap; justify-content: flex-start; -webkit-font-smoothing: auto; -webkit-highlight: none; -webkit-hyphenate-character: auto; -webkit-line-break: auto; -webkit-line-clamp: none; -webkit-locale: &quot;en&quot;; -webkit-margin-before-collapse: collapse; -webkit-margin-after-collapse: collapse; -webkit-mask-box-image: none; -webkit-mask-box-image-outset: 0px; -webkit-mask-box-image-repeat: stretch; -webkit-mask-box-image-slice: 0 fill; -webkit-mask-box-image-source: none; -webkit-mask-box-image-width: auto; -webkit-mask-clip: border-box; -webkit-mask-composite: source-over; -webkit-mask-image: none; -webkit-mask-origin: border-box; -webkit-mask-position: 0% 0%; -webkit-mask-repeat: repeat; -webkit-mask-size: auto; order: 0; perspective: none; perspective-origin: 308.75px 151.969px; -webkit-print-color-adjust: economy; -webkit-rtl-ordering: logical; shape-outside: none; shape-image-threshold: 0; shape-margin: 0px; -webkit-tap-highlight-color: rgba(0, 0, 0, 0); -webkit-text-combine: none; -webkit-text-decorations-in-effect: none; -webkit-text-emphasis-color: rgb(255, 255, 255); -webkit-text-emphasis-position: over; -webkit-text-emphasis-style: none; -webkit-text-fill-color: rgb(255, 255, 255); -webkit-text-orientation: vertical-right; -webkit-text-security: none; -webkit-text-stroke-color: rgb(255, 255, 255); -webkit-text-stroke-width: 0px; transform: none; transform-origin: 308.75px 151.969px; transform-style: flat; -webkit-user-drag: auto; -webkit-user-modify: read-only; user-select: text; -webkit-writing-mode: horizontal-tb; -webkit-app-region: no-drag; buffered-rendering: auto; clip-path: none; clip-rule: nonzero; mask: none; filter: none; flood-color: rgb(0, 0, 0); flood-opacity: 1; lighting-color: rgb(255, 255, 255); stop-color: rgb(0, 0, 0); stop-opacity: 1; color-interpolation: sRGB; color-interpolation-filters: linearRGB; color-rendering: auto; fill: rgb(0, 0, 0); fill-opacity: 1; fill-rule: nonzero; marker-end: none; marker-mid: none; marker-start: none; mask-type: luminance; shape-rendering: auto; stroke: none; stroke-dasharray: none; stroke-dashoffset: 0px; stroke-linecap: butt; stroke-linejoin: miter; stroke-miterlimit: 4; stroke-opacity: 1; stroke-width: 1px; alignment-baseline: auto; baseline-shift: 0px; dominant-baseline: auto; text-anchor: start; writing-mode: horizontal-tb; vector-effect: none; paint-order: fill stroke markers; d: none; cx: 0px; cy: 0px; x: 0px; y: 0px; r: 0px; rx: auto; ry: auto;" version="1.1" xmlns:xlink="http://www.w3.org/1999/xlink"><style type="text/css">svg:not(:root) { overflow: hidden; }
* { box-sizing: border-box; }
* { font-size: 13px; }
svg { max-height: 100vh; border: none !important; }
#svg-map svg { max-height: 400px; }
#svg-map svg path { fill: rgb(153, 196, 176); stroke: rgb(51, 51, 51); stroke-width: 1; }
#svg-map svg path.svg-range1 { fill: rgb(194, 223, 115); }
#svg-map svg path.svg-range5 { fill: rgb(175, 96, 68); }</style><svg xmlns="http://www.w3.org/2000/svg" xmlns:inkscape="http://www.inkscape.org/namespaces/inkscape" xmlns:xlink="http://www.w3.org/1999/xlink" viewBox="0 0 1097 540" version="1.1">
<!-- svg generated using QGIS www.qgis.org -->
<g id="3273200_id2012__3273200002" inkscape:groupmode="layer" inkscape:label="3273200_id2012__3273200002">
<g stroke="rgb(0,0,0)" fill="rgb(55,150,165)" stroke-linejoin="round" stroke-width="0.26">
<g id="3273200_id2012__3273200002_1">
<path d="M 558,116 L 558,125 L 558,138 L 558,141 L 558,149 L 559,155 L 559,157 L 559,158 L 559,159 L 559,161 L 563,161 L 575,161 L 609,161 L 610,161 L 626,161 L 665,160 L 676,159 L 710,159 L 714,159 L 713,169 L 703,181 L 689,199 L 685,204 L 681,208 L 678,212 L 675,216 L 674,217 L 669,222 L 667,225 L 666,226 L 663,230 L 652,244 L 645,252 L 636,259 L 632,262 L 628,263 L 626,263 L 622,277 L 622,279 L 621,281 L 619,289 L 615,299 L 612,302 L 609,304 L 598,309 L 597,309 L 588,312 L 576,321 L 569,339 L 567,346 L 565,353 L 561,352 L 557,351 L 555,351 L 552,351 L 547,351 L 546,352 L 543,352 L 539,354 L 536,355 L 533,357 L 531,358 L 526,360 L 523,361 L 513,364 L 512,365 L 508,366 L 501,368 L 493,371 L 490,372 L 485,374 L 480,375 L 477,376 L 475,376 L 473,377 L 471,378 L 469,378 L 468,379 L 467,379 L 464,380 L 460,381 L 459,382 L 454,383 L 451,384 L 446,386 L 437,389 L 435,389 L 434,390 L 430,388 L 414,381 L 409,378 L 405,376 L 403,376 L 402,375 L 399,375 L 397,375 L 396,375 L 394,375 L 388,375 L 382,375 L 380,375 L 367,376 L 361,376 L 360,376 L 358,375 L 356,374 L 356,359 L 356,344 L 355,308 L 355,306 L 355,305 L 354,298 L 354,292 L 355,287 L 355,283 L 355,276 L 356,259 L 356,255 L 359,246 L 361,240 L 366,228 L 370,218 L 372,213 L 375,204 L 376,202 L 377,201 L 378,199 L 380,194 L 380,193 L 381,191 L 383,184 L 402,143 L 404,139 L 407,133 L 409,113 L 409,110 L 410,110 L 413,110 L 414,110 L 416,110 L 425,110 L 426,110 L 428,110 L 429,110 L 434,110 L 443,110 L 448,110 L 453,111 L 455,110 L 457,110 L 462,110 L 467,110 L 469,110 L 474,110 L 479,110 L 483,111 L 484,111 L 486,111 L 489,112 L 492,112 L 493,113 L 494,113 L 497,118 L 503,113 L 516,115 L 530,116 L 535,117 L 539,117 L 542,116 L 543,116 L 548,116 L 555,116 L 558,116 " class="svg-range1" data-original-title="&lt;b&gt;CITARUM&lt;/b&gt;&lt;br /&gt;2" title=""/>
</g>
</g>
</g>
<g id="3273200_id2012__3273200003" inkscape:groupmode="layer" inkscape:label="3273200_id2012__3273200003">
<g stroke="rgb(0,0,0)" fill="rgb(216,225,167)" stroke-linejoin="round" stroke-width="0.26">
<g id="3273200_id2012__3273200003_1">
<path d="M 838,300 L 839,301 L 843,307 L 844,308 L 845,311 L 847,314 L 848,315 L 848,316 L 852,322 L 853,323 L 857,330 L 861,337 L 864,340 L 867,346 L 869,348 L 873,354 L 880,365 L 881,368 L 886,375 L 886,376 L 890,382 L 893,386 L 895,390 L 897,392 L 898,394 L 902,401 L 909,411 L 917,425 L 919,427 L 924,435 L 928,442 L 932,448 L 933,450 L 937,456 L 939,458 L 939,459 L 945,467 L 943,468 L 942,469 L 941,469 L 940,469 L 940,470 L 939,470 L 938,471 L 936,472 L 934,473 L 931,474 L 930,475 L 928,476 L 927,476 L 925,477 L 924,478 L 923,478 L 922,479 L 919,480 L 918,481 L 917,482 L 915,482 L 914,483 L 913,484 L 908,486 L 906,487 L 904,488 L 902,489 L 901,490 L 898,491 L 897,492 L 895,493 L 892,495 L 890,496 L 878,502 L 870,506 L 869,507 L 868,507 L 865,509 L 859,512 L 855,514 L 850,516 L 845,519 L 843,520 L 837,523 L 837,522 L 836,521 L 835,518 L 833,514 L 829,502 L 824,490 L 817,472 L 811,459 L 803,448 L 801,445 L 799,442 L 794,437 L 784,425 L 779,421 L 771,415 L 767,411 L 763,410 L 761,409 L 755,404 L 754,403 L 749,399 L 746,396 L 745,394 L 740,391 L 737,387 L 736,386 L 734,387 L 733,387 L 731,387 L 728,388 L 726,387 L 722,386 L 720,386 L 719,386 L 717,385 L 715,385 L 712,384 L 711,384 L 680,377 L 676,376 L 664,373 L 639,367 L 632,366 L 626,365 L 621,364 L 617,364 L 614,365 L 604,364 L 596,362 L 589,360 L 580,357 L 572,355 L 566,353 L 565,353 L 567,346 L 569,339 L 576,321 L 588,312 L 597,309 L 598,309 L 609,304 L 612,302 L 615,299 L 619,289 L 621,281 L 622,279 L 622,277 L 626,263 L 628,263 L 632,262 L 636,259 L 645,252 L 652,244 L 663,230 L 666,226 L 667,225 L 669,222 L 674,217 L 675,216 L 678,212 L 681,208 L 685,204 L 689,199 L 703,181 L 713,169 L 714,159 L 715,159 L 717,159 L 718,159 L 719,158 L 720,158 L 722,158 L 723,158 L 725,158 L 726,158 L 727,158 L 729,158 L 730,158 L 734,158 L 738,158 L 741,158 L 745,159 L 746,160 L 748,162 L 750,163 L 753,167 L 755,172 L 758,176 L 759,177 L 760,178 L 761,180 L 764,186 L 774,200 L 774,201 L 775,201 L 776,203 L 778,207 L 787,221 L 795,232 L 797,237 L 798,239 L 799,240 L 803,246 L 804,247 L 805,249 L 805,250 L 806,251 L 808,253 L 809,255 L 810,256 L 810,257 L 811,259 L 813,261 L 815,265 L 818,269 L 820,272 L 822,276 L 824,279 L 827,283 L 828,284 L 830,287 L 831,289 L 832,291 L 833,293 L 835,295 L 838,300 " class="svg-range1" data-original-title="&lt;b&gt;CIHAPIT&lt;/b&gt;&lt;br /&gt;15" title=""/>
</g>
</g>
</g>
<g id="3273200_id2012__3273200001" inkscape:groupmode="layer" inkscape:label="3273200_id2012__3273200001">
<g stroke="rgb(0,0,0)" fill="rgb(146,128,109)" stroke-linejoin="round" stroke-width="0.26">
<g id="3273200_id2012__3273200001_1">
<path d="M 255,21 L 256,22 L 257,24 L 257,26 L 259,26 L 263,23 L 274,28 L 278,28 L 280,30 L 286,33 L 287,34 L 288,34 L 294,38 L 297,39 L 300,42 L 313,53 L 314,54 L 315,54 L 316,55 L 317,55 L 319,55 L 324,65 L 322,73 L 323,77 L 322,84 L 323,87 L 324,88 L 325,89 L 330,90 L 331,90 L 334,90 L 338,92 L 348,96 L 356,100 L 380,107 L 389,108 L 395,109 L 396,109 L 402,109 L 404,110 L 405,110 L 409,110 L 409,113 L 407,133 L 404,139 L 402,143 L 383,184 L 381,191 L 380,193 L 380,194 L 378,199 L 377,201 L 376,202 L 375,204 L 372,213 L 370,218 L 366,228 L 361,240 L 359,246 L 356,255 L 356,259 L 355,276 L 355,283 L 355,287 L 354,292 L 354,298 L 355,305 L 351,305 L 347,305 L 344,304 L 339,304 L 338,303 L 337,303 L 333,303 L 330,302 L 327,302 L 323,301 L 322,301 L 316,300 L 312,299 L 308,299 L 306,298 L 304,298 L 302,297 L 300,297 L 299,297 L 297,296 L 295,296 L 293,295 L 288,294 L 285,294 L 285,297 L 284,303 L 284,304 L 284,306 L 284,310 L 283,315 L 282,321 L 280,324 L 276,322 L 275,321 L 273,320 L 269,318 L 268,318 L 266,317 L 258,313 L 251,312 L 244,310 L 240,310 L 238,310 L 235,310 L 234,310 L 231,310 L 229,310 L 228,310 L 227,310 L 226,310 L 224,310 L 223,310 L 221,310 L 219,310 L 217,310 L 214,310 L 211,310 L 207,310 L 203,310 L 203,309 L 203,307 L 203,303 L 203,300 L 203,295 L 203,281 L 203,280 L 202,278 L 202,277 L 202,276 L 202,273 L 202,269 L 202,261 L 202,240 L 200,240 L 196,240 L 191,240 L 181,241 L 177,241 L 169,241 L 168,231 L 167,224 L 165,218 L 162,210 L 159,204 L 155,201 L 152,197 L 151,196 L 151,195 L 151,186 L 150,178 L 150,173 L 150,168 L 150,166 L 150,164 L 150,161 L 149,152 L 149,147 L 149,146 L 148,143 L 148,140 L 147,139 L 162,140 L 163,140 L 168,140 L 169,140 L 174,140 L 177,141 L 183,141 L 186,141 L 197,139 L 197,138 L 196,130 L 196,129 L 195,117 L 195,112 L 193,90 L 193,88 L 193,81 L 193,78 L 193,76 L 192,75 L 192,72 L 192,68 L 191,66 L 191,56 L 191,53 L 190,42 L 190,39 L 190,26 L 191,24 L 191,23 L 192,23 L 197,21 L 208,19 L 210,19 L 218,17 L 225,16 L 226,16 L 227,15 L 235,14 L 237,14 L 242,13 L 244,12 L 249,15 L 250,15 L 253,18 L 255,21 " class="svg-range5" data-original-title="&lt;b&gt;TAMAN SARI&lt;/b&gt;&lt;br /&gt;120" title=""/>
</g>
</g>
</g>
</svg></svg>