<svg id="svg-map" width="null" height="null" xmlns="http://www.w3.org/2000/svg" style="animation-delay: 0s; animation-direction: normal; animation-duration: 0s; animation-fill-mode: none; animation-iteration-count: 1; animation-name: none; animation-play-state: running; animation-timing-function: ease; background-attachment: scroll; background-blend-mode: normal; background-clip: border-box; background-color: rgba(0, 0, 0, 0); background-image: none; background-origin: padding-box; background-position: 0% 0%; background-repeat: repeat; background-size: auto; border-bottom-color: rgb(255, 255, 255); border-bottom-left-radius: 0px; border-bottom-right-radius: 0px; border-bottom-style: none; border-bottom-width: 0px; border-collapse: separate; border-image-outset: 0px; border-image-repeat: stretch; border-image-slice: 100%; border-image-source: none; border-image-width: 1; border-left-color: rgb(255, 255, 255); border-left-style: none; border-left-width: 0px; border-right-color: rgb(255, 255, 255); border-right-style: none; border-right-width: 0px; border-top-color: rgb(255, 255, 255); border-top-left-radius: 0px; border-top-right-radius: 0px; border-top-style: none; border-top-width: 0px; bottom: auto; box-shadow: none; box-sizing: border-box; break-after: auto; break-before: auto; break-inside: auto; caption-side: top; clear: none; clip: auto; color: rgb(255, 255, 255); content: ; cursor: auto; direction: ltr; display: inline; empty-cells: show; float: none; font-family: &quot;Open Sans&quot;, sans-serif; font-kerning: auto; font-size: 13px; font-stretch: normal; font-style: normal; font-variant: normal; font-variant-ligatures: normal; font-variant-caps: normal; font-variant-numeric: normal; font-weight: normal; height: 303.953px; image-rendering: auto; isolation: auto; left: auto; letter-spacing: normal; line-height: 18.5714px; list-style-image: none; list-style-position: outside; list-style-type: disc; margin-bottom: 0px; margin-left: 0px; margin-right: 0px; margin-top: 0px; max-height: 400px; max-width: none; min-height: 0px; min-width: 0px; mix-blend-mode: normal; motion-offset: 0px; motion-path: none; motion-rotation: auto 0deg; object-fit: fill; object-position: 50% 50%; opacity: 1; orphans: 2; outline-color: rgb(255, 255, 255); outline-offset: 0px; outline-style: none; outline-width: 0px; overflow-wrap: normal; overflow-x: hidden; overflow-y: hidden; padding-bottom: 0px; padding-left: 0px; padding-right: 0px; padding-top: 0px; pointer-events: auto; position: static; resize: none; right: auto; speak: normal; table-layout: auto; tab-size: 8; text-align: center; text-align-last: auto; text-decoration: none; text-indent: 0px; text-rendering: auto; text-shadow: none; text-size-adjust: 100%; text-overflow: clip; text-transform: none; top: auto; touch-action: auto; transition-delay: 0s; transition-duration: 0s; transition-property: all; transition-timing-function: ease; unicode-bidi: normal; vertical-align: baseline; visibility: visible; white-space: normal; widows: 2; width: 617.5px; will-change: auto; word-break: normal; word-spacing: 0px; word-wrap: normal; z-index: auto; zoom: 1; -webkit-appearance: none; backface-visibility: visible; -webkit-background-clip: border-box; -webkit-background-origin: padding-box; -webkit-border-horizontal-spacing: 0px; -webkit-border-image: none; -webkit-border-vertical-spacing: 0px; -webkit-box-align: stretch; -webkit-box-decoration-break: slice; -webkit-box-direction: normal; -webkit-box-flex: 0; -webkit-box-flex-group: 1; -webkit-box-lines: single; -webkit-box-ordinal-group: 1; -webkit-box-orient: horizontal; -webkit-box-pack: start; -webkit-box-reflect: none; -webkit-clip-path: none; column-count: auto; column-gap: normal; column-rule-color: rgb(255, 255, 255); column-rule-style: none; column-rule-width: 0px; column-span: none; column-width: auto; align-content: stretch; align-items: stretch; align-self: stretch; flex-basis: auto; flex-grow: 0; flex-shrink: 1; flex-direction: row; flex-wrap: nowrap; justify-content: flex-start; -webkit-font-smoothing: auto; -webkit-highlight: none; -webkit-hyphenate-character: auto; -webkit-line-break: auto; -webkit-line-clamp: none; -webkit-locale: &quot;en&quot;; -webkit-margin-before-collapse: collapse; -webkit-margin-after-collapse: collapse; -webkit-mask-box-image: none; -webkit-mask-box-image-outset: 0px; -webkit-mask-box-image-repeat: stretch; -webkit-mask-box-image-slice: 0 fill; -webkit-mask-box-image-source: none; -webkit-mask-box-image-width: auto; -webkit-mask-clip: border-box; -webkit-mask-composite: source-over; -webkit-mask-image: none; -webkit-mask-origin: border-box; -webkit-mask-position: 0% 0%; -webkit-mask-repeat: repeat; -webkit-mask-size: auto; order: 0; perspective: none; perspective-origin: 308.75px 151.969px; -webkit-print-color-adjust: economy; -webkit-rtl-ordering: logical; shape-outside: none; shape-image-threshold: 0; shape-margin: 0px; -webkit-tap-highlight-color: rgba(0, 0, 0, 0); -webkit-text-combine: none; -webkit-text-decorations-in-effect: none; -webkit-text-emphasis-color: rgb(255, 255, 255); -webkit-text-emphasis-position: over; -webkit-text-emphasis-style: none; -webkit-text-fill-color: rgb(255, 255, 255); -webkit-text-orientation: vertical-right; -webkit-text-security: none; -webkit-text-stroke-color: rgb(255, 255, 255); -webkit-text-stroke-width: 0px; transform: none; transform-origin: 308.75px 151.969px; transform-style: flat; -webkit-user-drag: auto; -webkit-user-modify: read-only; user-select: text; -webkit-writing-mode: horizontal-tb; -webkit-app-region: no-drag; buffered-rendering: auto; clip-path: none; clip-rule: nonzero; mask: none; filter: none; flood-color: rgb(0, 0, 0); flood-opacity: 1; lighting-color: rgb(255, 255, 255); stop-color: rgb(0, 0, 0); stop-opacity: 1; color-interpolation: sRGB; color-interpolation-filters: linearRGB; color-rendering: auto; fill: rgb(0, 0, 0); fill-opacity: 1; fill-rule: nonzero; marker-end: none; marker-mid: none; marker-start: none; mask-type: luminance; shape-rendering: auto; stroke: none; stroke-dasharray: none; stroke-dashoffset: 0px; stroke-linecap: butt; stroke-linejoin: miter; stroke-miterlimit: 4; stroke-opacity: 1; stroke-width: 1px; alignment-baseline: auto; baseline-shift: 0px; dominant-baseline: auto; text-anchor: start; writing-mode: horizontal-tb; vector-effect: none; paint-order: fill stroke markers; d: none; cx: 0px; cy: 0px; x: 0px; y: 0px; r: 0px; rx: auto; ry: auto;" version="1.1" xmlns:xlink="http://www.w3.org/1999/xlink"><style type="text/css">svg:not(:root) { overflow: hidden; }
* { box-sizing: border-box; }
* { font-size: 13px; }
svg { max-height: 100vh; border: none !important; }
#svg-map svg { max-height: 400px; }
#svg-map svg path { fill: rgb(153, 196, 176); stroke: rgb(51, 51, 51); stroke-width: 1; }
#svg-map svg path.svg-range1 { fill: rgb(194, 223, 115); }
#svg-map svg path.svg-range3 { fill: rgb(189, 170, 83); }
#svg-map svg path.svg-range5 { fill: rgb(175, 96, 68); }</style><svg xmlns="http://www.w3.org/2000/svg" xmlns:inkscape="http://www.inkscape.org/namespaces/inkscape" xmlns:xlink="http://www.w3.org/1999/xlink" viewBox="0 0 1097 540" version="1.1">
<!-- svg generated using QGIS www.qgis.org -->
<g id="3273250_id2012__3273250002" inkscape:groupmode="layer" inkscape:label="3273250_id2012__3273250002">
<g stroke="rgb(0,0,0)" fill="rgb(197,1,135)" stroke-linejoin="round" stroke-width="0.26">
<g id="3273250_id2012__3273250002_1">
<path d="M 596,464 L 594,465 L 593,464 L 592,464 L 591,464 L 589,464 L 586,464 L 585,465 L 584,464 L 582,465 L 581,465 L 580,466 L 579,467 L 578,467 L 577,467 L 575,468 L 574,468 L 570,469 L 567,470 L 565,471 L 564,471 L 563,472 L 562,472 L 561,472 L 560,472 L 558,473 L 557,473 L 556,474 L 555,474 L 545,477 L 544,477 L 543,478 L 541,478 L 536,480 L 533,481 L 531,481 L 530,482 L 526,483 L 525,483 L 524,483 L 523,484 L 522,484 L 521,484 L 512,487 L 509,488 L 507,488 L 499,490 L 497,491 L 496,491 L 495,491 L 495,489 L 494,486 L 494,484 L 494,482 L 494,479 L 494,476 L 495,475 L 495,474 L 495,472 L 495,468 L 493,467 L 492,461 L 492,460 L 492,459 L 492,458 L 492,457 L 492,456 L 491,455 L 490,455 L 487,454 L 488,453 L 488,451 L 489,449 L 489,448 L 490,446 L 490,445 L 490,444 L 489,443 L 489,442 L 489,439 L 488,437 L 489,435 L 489,434 L 490,431 L 491,429 L 491,428 L 492,424 L 492,423 L 492,421 L 492,419 L 493,416 L 494,413 L 495,411 L 495,408 L 493,407 L 492,407 L 489,407 L 487,406 L 487,404 L 488,401 L 489,399 L 490,396 L 491,392 L 491,387 L 492,384 L 492,383 L 492,379 L 493,376 L 496,372 L 496,371 L 497,371 L 499,371 L 500,367 L 501,364 L 502,359 L 503,358 L 504,356 L 504,355 L 504,354 L 505,353 L 505,351 L 506,350 L 507,350 L 511,351 L 515,352 L 516,351 L 518,351 L 519,352 L 521,352 L 529,354 L 530,354 L 535,355 L 538,356 L 540,356 L 541,356 L 543,355 L 545,355 L 546,355 L 547,356 L 548,356 L 549,356 L 550,357 L 551,357 L 551,359 L 554,360 L 560,362 L 562,363 L 565,364 L 569,365 L 572,366 L 575,367 L 577,367 L 579,368 L 583,369 L 589,371 L 590,371 L 593,372 L 594,372 L 595,372 L 597,372 L 598,372 L 597,376 L 597,377 L 597,379 L 597,380 L 597,381 L 597,382 L 597,383 L 596,384 L 597,386 L 596,389 L 595,390 L 594,392 L 594,393 L 593,396 L 593,398 L 594,400 L 595,407 L 596,407 L 597,407 L 598,407 L 598,408 L 598,409 L 598,410 L 597,411 L 597,414 L 598,417 L 599,417 L 601,418 L 602,418 L 602,419 L 601,423 L 601,424 L 600,425 L 599,428 L 599,429 L 598,433 L 598,434 L 598,435 L 598,436 L 598,437 L 599,437 L 598,438 L 598,441 L 598,443 L 598,447 L 598,448 L 598,452 L 598,455 L 598,457 L 596,464 " class="svg-range5" data-original-title="&lt;b&gt;SUKARASA&lt;/b&gt;&lt;br /&gt;102" title=""/>
</g>
</g>
</g>
<g id="3273250_id2012__3273250003" inkscape:groupmode="layer" inkscape:label="3273250_id2012__3273250003">
<g stroke="rgb(0,0,0)" fill="rgb(4,226,171)" stroke-linejoin="round" stroke-width="0.26">
<g id="3273250_id2012__3273250003_1">
<path d="M 637,316 L 637,318 L 636,319 L 636,323 L 635,324 L 635,326 L 635,327 L 634,335 L 634,336 L 633,341 L 633,342 L 633,343 L 633,345 L 633,346 L 633,348 L 632,348 L 631,359 L 631,360 L 631,362 L 630,363 L 630,367 L 630,373 L 630,377 L 630,378 L 630,379 L 630,380 L 631,381 L 631,383 L 632,384 L 633,386 L 633,388 L 634,388 L 634,389 L 634,390 L 635,392 L 636,393 L 637,395 L 638,396 L 640,398 L 641,399 L 641,400 L 642,400 L 642,401 L 643,402 L 644,403 L 644,404 L 645,404 L 646,405 L 647,406 L 647,407 L 650,410 L 650,411 L 652,413 L 652,414 L 653,414 L 653,415 L 654,416 L 655,417 L 655,418 L 656,420 L 657,421 L 658,422 L 660,425 L 661,426 L 662,427 L 665,432 L 666,434 L 667,435 L 668,436 L 668,437 L 670,437 L 670,438 L 671,438 L 672,439 L 673,440 L 674,442 L 674,443 L 674,444 L 674,445 L 674,446 L 673,447 L 672,448 L 672,449 L 673,452 L 673,454 L 674,455 L 675,457 L 675,459 L 676,460 L 676,462 L 677,463 L 678,465 L 679,467 L 679,469 L 680,469 L 681,472 L 682,474 L 680,474 L 677,474 L 673,474 L 670,474 L 669,474 L 668,474 L 666,474 L 663,474 L 661,474 L 659,475 L 657,475 L 655,475 L 653,475 L 652,475 L 651,475 L 650,475 L 649,475 L 648,475 L 648,476 L 647,478 L 646,479 L 644,480 L 643,480 L 642,480 L 641,479 L 639,478 L 639,477 L 638,477 L 635,475 L 631,472 L 629,471 L 628,470 L 627,470 L 626,470 L 624,470 L 623,470 L 621,470 L 620,470 L 619,470 L 618,470 L 617,470 L 616,470 L 615,469 L 614,469 L 613,469 L 612,469 L 611,469 L 609,467 L 609,466 L 607,466 L 606,465 L 605,465 L 604,465 L 602,465 L 598,464 L 597,464 L 596,464 L 598,457 L 598,455 L 598,452 L 598,448 L 598,447 L 598,443 L 598,441 L 598,438 L 599,437 L 598,437 L 598,436 L 598,435 L 598,434 L 598,433 L 599,429 L 599,428 L 600,425 L 601,424 L 601,423 L 602,419 L 602,418 L 601,418 L 599,417 L 598,417 L 597,414 L 597,411 L 598,410 L 598,409 L 598,408 L 598,407 L 597,407 L 596,407 L 595,407 L 594,400 L 593,398 L 593,396 L 594,393 L 594,392 L 595,390 L 596,389 L 597,386 L 596,384 L 597,383 L 597,382 L 597,381 L 597,380 L 597,379 L 597,377 L 597,376 L 598,372 L 597,372 L 595,372 L 594,372 L 593,372 L 590,371 L 589,371 L 583,369 L 579,368 L 577,367 L 575,367 L 572,366 L 569,365 L 565,364 L 562,363 L 560,362 L 554,360 L 551,359 L 551,357 L 550,357 L 549,356 L 548,356 L 547,356 L 546,355 L 545,355 L 543,355 L 541,356 L 540,356 L 538,356 L 535,355 L 530,354 L 529,354 L 521,352 L 519,352 L 518,351 L 516,351 L 515,352 L 511,351 L 507,350 L 506,350 L 505,351 L 505,353 L 504,354 L 504,355 L 499,353 L 497,352 L 491,350 L 488,349 L 483,347 L 482,347 L 480,346 L 478,345 L 475,346 L 474,346 L 471,345 L 465,342 L 463,342 L 460,342 L 458,342 L 455,342 L 453,342 L 453,341 L 451,340 L 451,338 L 449,336 L 448,336 L 447,336 L 446,335 L 443,332 L 443,331 L 445,328 L 446,325 L 448,323 L 449,323 L 451,323 L 454,323 L 455,323 L 457,322 L 458,321 L 459,316 L 460,314 L 461,314 L 462,313 L 463,312 L 464,312 L 465,312 L 469,311 L 470,311 L 472,310 L 474,309 L 475,308 L 476,307 L 476,304 L 478,302 L 479,302 L 480,302 L 482,302 L 483,301 L 485,300 L 486,299 L 489,296 L 489,295 L 490,293 L 491,291 L 491,288 L 492,287 L 493,286 L 496,285 L 498,281 L 502,277 L 504,275 L 506,275 L 508,274 L 509,274 L 511,273 L 512,271 L 513,270 L 514,270 L 516,269 L 517,269 L 520,268 L 523,267 L 524,268 L 519,273 L 518,274 L 516,275 L 514,277 L 515,277 L 515,278 L 516,279 L 517,280 L 518,280 L 519,280 L 520,281 L 527,285 L 529,286 L 530,287 L 537,290 L 538,288 L 539,287 L 540,287 L 543,287 L 546,288 L 550,289 L 552,290 L 553,290 L 554,290 L 555,290 L 557,291 L 558,292 L 559,292 L 562,294 L 566,296 L 567,296 L 571,297 L 573,298 L 574,298 L 575,299 L 576,299 L 578,300 L 579,300 L 581,301 L 584,302 L 587,303 L 588,303 L 588,304 L 592,305 L 593,305 L 594,305 L 596,306 L 597,306 L 598,306 L 599,307 L 600,307 L 601,307 L 602,307 L 603,308 L 604,309 L 605,310 L 606,310 L 608,311 L 611,311 L 615,312 L 617,312 L 619,312 L 622,313 L 623,313 L 625,313 L 626,314 L 627,314 L 629,314 L 632,315 L 637,316 " class="svg-range3" data-original-title="&lt;b&gt;GEGERKALONG&lt;/b&gt;&lt;br /&gt;84" title=""/>
</g>
</g>
</g>
<g id="3273250_id2012__3273250004" inkscape:groupmode="layer" inkscape:label="3273250_id2012__3273250004">
<g stroke="rgb(0,0,0)" fill="rgb(101,243,158)" stroke-linejoin="round" stroke-width="0.26">
<g id="3273250_id2012__3273250004_1">
<path d="M 685,84 L 686,84 L 686,85 L 687,85 L 690,86 L 692,86 L 693,86 L 695,87 L 696,87 L 697,88 L 700,88 L 701,89 L 702,90 L 703,91 L 703,92 L 703,93 L 702,94 L 702,95 L 700,96 L 698,98 L 696,99 L 694,101 L 693,102 L 693,103 L 693,104 L 693,105 L 694,106 L 697,107 L 699,108 L 699,109 L 700,109 L 700,110 L 699,110 L 699,111 L 698,112 L 697,113 L 696,113 L 696,114 L 695,114 L 694,116 L 694,117 L 693,117 L 693,118 L 693,119 L 692,120 L 692,121 L 692,122 L 691,124 L 690,125 L 689,127 L 688,128 L 685,130 L 684,131 L 683,133 L 683,134 L 683,136 L 683,137 L 684,138 L 684,141 L 684,142 L 684,144 L 684,145 L 683,146 L 682,147 L 680,147 L 678,146 L 675,144 L 674,144 L 672,143 L 671,143 L 670,144 L 670,145 L 669,148 L 667,158 L 667,159 L 666,161 L 666,164 L 664,169 L 664,170 L 664,171 L 664,172 L 663,172 L 663,174 L 663,175 L 663,176 L 662,178 L 661,182 L 660,189 L 659,194 L 658,196 L 657,199 L 657,202 L 656,203 L 656,204 L 656,205 L 656,206 L 656,207 L 655,209 L 655,210 L 655,211 L 654,214 L 653,218 L 652,223 L 652,224 L 651,229 L 650,229 L 650,232 L 650,233 L 649,233 L 649,235 L 649,236 L 648,238 L 648,241 L 647,243 L 647,244 L 647,245 L 646,248 L 646,249 L 645,251 L 645,252 L 645,254 L 645,255 L 644,256 L 644,257 L 644,259 L 643,262 L 643,263 L 643,264 L 642,267 L 642,268 L 642,269 L 642,270 L 642,271 L 642,272 L 642,273 L 643,274 L 643,276 L 644,277 L 646,278 L 647,280 L 649,281 L 650,282 L 651,283 L 654,285 L 658,287 L 659,288 L 659,289 L 659,291 L 658,292 L 656,295 L 655,297 L 654,298 L 653,299 L 651,299 L 650,299 L 647,300 L 645,301 L 643,301 L 642,302 L 640,303 L 639,305 L 638,308 L 638,310 L 638,311 L 637,313 L 637,316 L 632,315 L 629,314 L 627,314 L 626,314 L 625,313 L 623,313 L 622,313 L 619,312 L 617,312 L 615,312 L 611,311 L 608,311 L 606,310 L 605,310 L 604,309 L 603,308 L 602,307 L 601,307 L 600,307 L 599,307 L 598,306 L 597,306 L 596,306 L 594,305 L 593,305 L 592,305 L 588,304 L 588,303 L 587,303 L 584,302 L 581,301 L 579,300 L 578,300 L 576,299 L 575,299 L 574,298 L 573,298 L 571,297 L 567,296 L 566,296 L 562,294 L 559,292 L 558,292 L 557,291 L 555,290 L 554,290 L 553,290 L 552,290 L 550,289 L 546,288 L 543,287 L 540,287 L 539,287 L 538,288 L 537,290 L 530,287 L 529,286 L 527,285 L 520,281 L 519,280 L 518,280 L 517,280 L 516,279 L 515,278 L 515,277 L 514,277 L 516,275 L 518,274 L 519,273 L 524,268 L 523,267 L 520,268 L 517,269 L 516,269 L 518,268 L 520,267 L 522,265 L 523,262 L 524,261 L 525,260 L 526,260 L 527,260 L 530,260 L 533,261 L 536,262 L 539,261 L 542,261 L 543,260 L 544,260 L 545,259 L 546,259 L 548,260 L 549,260 L 551,261 L 552,261 L 552,260 L 553,259 L 556,257 L 557,256 L 560,255 L 561,254 L 561,253 L 563,250 L 564,248 L 567,245 L 569,245 L 570,245 L 571,245 L 572,244 L 573,243 L 573,242 L 573,241 L 574,238 L 574,237 L 576,236 L 578,235 L 580,235 L 581,235 L 582,234 L 583,232 L 583,228 L 583,227 L 583,225 L 582,223 L 583,221 L 584,220 L 586,219 L 587,218 L 587,216 L 587,214 L 586,212 L 586,210 L 585,209 L 583,209 L 582,209 L 579,209 L 578,208 L 578,207 L 578,206 L 579,205 L 580,203 L 580,202 L 579,200 L 578,197 L 577,195 L 578,194 L 581,193 L 583,193 L 586,193 L 589,193 L 591,193 L 593,192 L 595,191 L 595,190 L 595,188 L 595,187 L 595,184 L 595,183 L 595,181 L 594,180 L 593,179 L 592,177 L 591,176 L 590,172 L 589,169 L 588,167 L 588,166 L 587,164 L 588,162 L 587,161 L 586,160 L 585,159 L 585,157 L 585,155 L 585,154 L 586,153 L 586,152 L 587,151 L 587,150 L 588,150 L 589,150 L 590,150 L 592,150 L 592,149 L 593,147 L 595,147 L 595,146 L 596,145 L 597,146 L 598,146 L 599,145 L 600,145 L 601,144 L 602,143 L 603,139 L 605,138 L 609,136 L 614,133 L 616,127 L 617,127 L 618,126 L 619,123 L 620,121 L 621,120 L 622,118 L 624,115 L 625,114 L 625,113 L 625,112 L 625,111 L 625,109 L 624,106 L 623,105 L 624,104 L 625,104 L 626,103 L 625,101 L 626,99 L 630,95 L 631,95 L 632,94 L 633,94 L 634,94 L 635,92 L 634,90 L 635,90 L 636,89 L 637,89 L 638,88 L 641,81 L 642,81 L 642,79 L 640,76 L 637,75 L 636,74 L 635,72 L 635,71 L 635,69 L 636,68 L 639,67 L 639,65 L 639,62 L 640,60 L 643,58 L 643,57 L 644,56 L 646,54 L 649,54 L 650,53 L 650,52 L 651,51 L 652,50 L 654,48 L 654,47 L 655,45 L 656,44 L 656,42 L 658,41 L 661,38 L 662,36 L 663,34 L 664,33 L 665,32 L 666,32 L 667,32 L 673,31 L 672,28 L 671,25 L 671,23 L 672,22 L 673,21 L 674,18 L 673,16 L 672,15 L 673,14 L 674,12 L 675,12 L 676,13 L 676,14 L 676,20 L 677,27 L 678,32 L 679,33 L 679,35 L 679,36 L 680,38 L 679,41 L 678,42 L 676,42 L 672,43 L 671,43 L 670,45 L 670,46 L 669,50 L 670,54 L 671,56 L 672,60 L 673,62 L 672,64 L 671,66 L 669,68 L 669,69 L 668,69 L 667,70 L 667,71 L 666,71 L 666,72 L 666,73 L 666,74 L 666,75 L 667,75 L 668,76 L 669,77 L 671,78 L 672,78 L 673,79 L 674,79 L 674,80 L 675,80 L 676,81 L 677,81 L 677,82 L 679,82 L 683,84 L 684,84 L 685,84 " class="svg-range1" data-original-title="&lt;b&gt;ISOLA&lt;/b&gt;&lt;br /&gt;64" title=""/>
</g>
</g>
</g>
<g id="3273250_id2012__3273250001" inkscape:groupmode="layer" inkscape:label="3273250_id2012__3273250001">
<g stroke="rgb(0,0,0)" fill="rgb(116,148,155)" stroke-linejoin="round" stroke-width="0.26">
<g id="3273250_id2012__3273250001_1">
<path d="M 504,355 L 504,356 L 503,358 L 502,359 L 501,364 L 500,367 L 499,371 L 497,371 L 496,371 L 496,372 L 493,376 L 492,379 L 492,383 L 492,384 L 491,387 L 491,392 L 490,396 L 489,399 L 488,401 L 487,404 L 487,406 L 489,407 L 492,407 L 493,407 L 495,408 L 495,411 L 494,413 L 493,416 L 492,419 L 492,421 L 492,423 L 492,424 L 491,428 L 491,429 L 490,431 L 489,434 L 489,435 L 488,437 L 489,439 L 489,442 L 489,443 L 490,444 L 490,445 L 490,446 L 489,448 L 489,449 L 488,451 L 488,453 L 487,454 L 490,455 L 491,455 L 492,456 L 492,457 L 492,458 L 492,459 L 492,460 L 492,461 L 493,467 L 495,468 L 495,472 L 495,474 L 495,475 L 494,476 L 494,479 L 494,482 L 494,484 L 494,486 L 495,489 L 495,491 L 494,491 L 492,492 L 491,492 L 489,493 L 488,493 L 487,493 L 484,494 L 483,495 L 481,495 L 479,496 L 477,496 L 475,497 L 472,498 L 469,499 L 468,499 L 467,499 L 465,500 L 463,501 L 458,502 L 456,502 L 456,503 L 455,503 L 454,503 L 452,504 L 449,505 L 447,505 L 444,506 L 443,507 L 441,507 L 440,507 L 438,508 L 437,508 L 436,509 L 435,509 L 434,509 L 432,510 L 431,510 L 430,511 L 427,511 L 426,512 L 425,512 L 424,512 L 423,513 L 422,513 L 421,513 L 420,513 L 419,514 L 418,514 L 417,514 L 416,515 L 415,515 L 414,515 L 414,516 L 404,519 L 402,520 L 393,523 L 394,519 L 394,517 L 393,515 L 392,513 L 390,510 L 390,506 L 389,506 L 390,505 L 390,504 L 390,503 L 390,502 L 391,499 L 391,498 L 392,496 L 393,494 L 393,493 L 393,492 L 394,490 L 396,486 L 397,484 L 397,483 L 396,481 L 395,479 L 396,478 L 396,477 L 398,471 L 399,469 L 400,468 L 401,466 L 402,465 L 404,464 L 407,463 L 407,462 L 407,461 L 407,459 L 407,457 L 407,456 L 407,455 L 408,453 L 408,452 L 410,452 L 413,453 L 415,453 L 415,452 L 416,452 L 417,451 L 417,450 L 417,448 L 417,447 L 417,446 L 417,443 L 416,442 L 415,441 L 414,440 L 414,439 L 416,437 L 415,437 L 415,436 L 414,435 L 415,434 L 416,432 L 417,430 L 418,428 L 419,426 L 420,425 L 420,424 L 420,423 L 419,421 L 420,420 L 423,419 L 424,416 L 425,415 L 428,411 L 428,410 L 429,407 L 430,403 L 430,402 L 430,399 L 431,397 L 432,395 L 431,393 L 430,392 L 429,391 L 427,390 L 427,389 L 427,387 L 428,386 L 429,385 L 430,385 L 431,385 L 431,384 L 432,383 L 431,383 L 432,382 L 432,381 L 434,382 L 436,382 L 437,382 L 438,381 L 438,378 L 439,377 L 439,376 L 439,375 L 439,374 L 438,372 L 436,371 L 435,371 L 435,369 L 436,368 L 439,366 L 441,365 L 441,364 L 443,362 L 444,362 L 444,361 L 446,360 L 447,358 L 447,356 L 446,354 L 443,351 L 442,350 L 439,349 L 437,349 L 436,348 L 436,346 L 437,345 L 438,344 L 439,344 L 444,344 L 446,344 L 448,343 L 448,342 L 448,338 L 447,337 L 447,336 L 448,336 L 449,336 L 451,338 L 451,340 L 453,341 L 453,342 L 455,342 L 458,342 L 460,342 L 463,342 L 465,342 L 471,345 L 474,346 L 475,346 L 478,345 L 480,346 L 482,347 L 483,347 L 488,349 L 491,350 L 497,352 L 499,353 L 504,355 " class="svg-range5" data-original-title="&lt;b&gt;SARIJADI&lt;/b&gt;&lt;br /&gt;95" title=""/>
</g>
</g>
</g>
</svg></svg>