<svg id="svg-map" width="null" height="null" xmlns="http://www.w3.org/2000/svg" style="animation-delay: 0s; animation-direction: normal; animation-duration: 0s; animation-fill-mode: none; animation-iteration-count: 1; animation-name: none; animation-play-state: running; animation-timing-function: ease; background-attachment: scroll; background-blend-mode: normal; background-clip: border-box; background-color: rgba(0, 0, 0, 0); background-image: none; background-origin: padding-box; background-position: 0% 0%; background-repeat: repeat; background-size: auto; border-bottom-color: rgb(255, 255, 255); border-bottom-left-radius: 0px; border-bottom-right-radius: 0px; border-bottom-style: none; border-bottom-width: 0px; border-collapse: separate; border-image-outset: 0px; border-image-repeat: stretch; border-image-slice: 100%; border-image-source: none; border-image-width: 1; border-left-color: rgb(255, 255, 255); border-left-style: none; border-left-width: 0px; border-right-color: rgb(255, 255, 255); border-right-style: none; border-right-width: 0px; border-top-color: rgb(255, 255, 255); border-top-left-radius: 0px; border-top-right-radius: 0px; border-top-style: none; border-top-width: 0px; bottom: auto; box-shadow: none; box-sizing: border-box; break-after: auto; break-before: auto; break-inside: auto; caption-side: top; clear: none; clip: auto; color: rgb(255, 255, 255); content: ; cursor: auto; direction: ltr; display: inline; empty-cells: show; float: none; font-family: &quot;Open Sans&quot;, sans-serif; font-kerning: auto; font-size: 13px; font-stretch: normal; font-style: normal; font-variant: normal; font-variant-ligatures: normal; font-variant-caps: normal; font-variant-numeric: normal; font-weight: normal; height: 303.953px; image-rendering: auto; isolation: auto; left: auto; letter-spacing: normal; line-height: 18.5714px; list-style-image: none; list-style-position: outside; list-style-type: disc; margin-bottom: 0px; margin-left: 0px; margin-right: 0px; margin-top: 0px; max-height: 400px; max-width: none; min-height: 0px; min-width: 0px; mix-blend-mode: normal; motion-offset: 0px; motion-path: none; motion-rotation: auto 0deg; object-fit: fill; object-position: 50% 50%; opacity: 1; orphans: 2; outline-color: rgb(255, 255, 255); outline-offset: 0px; outline-style: none; outline-width: 0px; overflow-wrap: normal; overflow-x: hidden; overflow-y: hidden; padding-bottom: 0px; padding-left: 0px; padding-right: 0px; padding-top: 0px; pointer-events: auto; position: static; resize: none; right: auto; speak: normal; table-layout: auto; tab-size: 8; text-align: center; text-align-last: auto; text-decoration: none; text-indent: 0px; text-rendering: auto; text-shadow: none; text-size-adjust: 100%; text-overflow: clip; text-transform: none; top: auto; touch-action: auto; transition-delay: 0s; transition-duration: 0s; transition-property: all; transition-timing-function: ease; unicode-bidi: normal; vertical-align: baseline; visibility: visible; white-space: normal; widows: 2; width: 617.5px; will-change: auto; word-break: normal; word-spacing: 0px; word-wrap: normal; z-index: auto; zoom: 1; -webkit-appearance: none; backface-visibility: visible; -webkit-background-clip: border-box; -webkit-background-origin: padding-box; -webkit-border-horizontal-spacing: 0px; -webkit-border-image: none; -webkit-border-vertical-spacing: 0px; -webkit-box-align: stretch; -webkit-box-decoration-break: slice; -webkit-box-direction: normal; -webkit-box-flex: 0; -webkit-box-flex-group: 1; -webkit-box-lines: single; -webkit-box-ordinal-group: 1; -webkit-box-orient: horizontal; -webkit-box-pack: start; -webkit-box-reflect: none; -webkit-clip-path: none; column-count: auto; column-gap: normal; column-rule-color: rgb(255, 255, 255); column-rule-style: none; column-rule-width: 0px; column-span: none; column-width: auto; align-content: stretch; align-items: stretch; align-self: stretch; flex-basis: auto; flex-grow: 0; flex-shrink: 1; flex-direction: row; flex-wrap: nowrap; justify-content: flex-start; -webkit-font-smoothing: auto; -webkit-highlight: none; -webkit-hyphenate-character: auto; -webkit-line-break: auto; -webkit-line-clamp: none; -webkit-locale: &quot;en&quot;; -webkit-margin-before-collapse: collapse; -webkit-margin-after-collapse: collapse; -webkit-mask-box-image: none; -webkit-mask-box-image-outset: 0px; -webkit-mask-box-image-repeat: stretch; -webkit-mask-box-image-slice: 0 fill; -webkit-mask-box-image-source: none; -webkit-mask-box-image-width: auto; -webkit-mask-clip: border-box; -webkit-mask-composite: source-over; -webkit-mask-image: none; -webkit-mask-origin: border-box; -webkit-mask-position: 0% 0%; -webkit-mask-repeat: repeat; -webkit-mask-size: auto; order: 0; perspective: none; perspective-origin: 308.75px 151.969px; -webkit-print-color-adjust: economy; -webkit-rtl-ordering: logical; shape-outside: none; shape-image-threshold: 0; shape-margin: 0px; -webkit-tap-highlight-color: rgba(0, 0, 0, 0); -webkit-text-combine: none; -webkit-text-decorations-in-effect: none; -webkit-text-emphasis-color: rgb(255, 255, 255); -webkit-text-emphasis-position: over; -webkit-text-emphasis-style: none; -webkit-text-fill-color: rgb(255, 255, 255); -webkit-text-orientation: vertical-right; -webkit-text-security: none; -webkit-text-stroke-color: rgb(255, 255, 255); -webkit-text-stroke-width: 0px; transform: none; transform-origin: 308.75px 151.969px; transform-style: flat; -webkit-user-drag: auto; -webkit-user-modify: read-only; user-select: text; -webkit-writing-mode: horizontal-tb; -webkit-app-region: no-drag; buffered-rendering: auto; clip-path: none; clip-rule: nonzero; mask: none; filter: none; flood-color: rgb(0, 0, 0); flood-opacity: 1; lighting-color: rgb(255, 255, 255); stop-color: rgb(0, 0, 0); stop-opacity: 1; color-interpolation: sRGB; color-interpolation-filters: linearRGB; color-rendering: auto; fill: rgb(0, 0, 0); fill-opacity: 1; fill-rule: nonzero; marker-end: none; marker-mid: none; marker-start: none; mask-type: luminance; shape-rendering: auto; stroke: none; stroke-dasharray: none; stroke-dashoffset: 0px; stroke-linecap: butt; stroke-linejoin: miter; stroke-miterlimit: 4; stroke-opacity: 1; stroke-width: 1px; alignment-baseline: auto; baseline-shift: 0px; dominant-baseline: auto; text-anchor: start; writing-mode: horizontal-tb; vector-effect: none; paint-order: fill stroke markers; d: none; cx: 0px; cy: 0px; x: 0px; y: 0px; r: 0px; rx: auto; ry: auto;" version="1.1" xmlns:xlink="http://www.w3.org/1999/xlink"><style type="text/css">svg:not(:root) { overflow: hidden; }
* { box-sizing: border-box; }
* { font-size: 13px; }
svg { max-height: 100vh; border: none !important; }
#svg-map svg { max-height: 400px; }
#svg-map svg path { fill: rgb(153, 196, 176); stroke: rgb(51, 51, 51); stroke-width: 1; }
#svg-map svg path.svg-range1 { fill: rgb(194, 223, 115); }
#svg-map svg path.svg-range2 { fill: rgb(160, 189, 83); }
#svg-map svg path.svg-range5 { fill: rgb(175, 96, 68); }</style><svg xmlns="http://www.w3.org/2000/svg" xmlns:inkscape="http://www.inkscape.org/namespaces/inkscape" xmlns:xlink="http://www.w3.org/1999/xlink" viewBox="0 0 1097 540" version="1.1">
<!-- svg generated using QGIS www.qgis.org -->
<g id="3273090_id2012__3273090002" inkscape:groupmode="layer" inkscape:label="3273090_id2012__3273090002">
<g stroke="rgb(0,0,0)" fill="rgb(150,182,213)" stroke-linejoin="round" stroke-width="0.26">
<g id="3273090_id2012__3273090002_1">
<path d="M 619,339 L 625,340 L 633,343 L 634,343 L 636,344 L 637,344 L 640,345 L 644,340 L 647,340 L 648,341 L 650,341 L 651,341 L 652,341 L 658,342 L 660,342 L 667,343 L 670,344 L 672,344 L 687,346 L 687,343 L 694,344 L 696,344 L 699,345 L 703,345 L 711,347 L 714,347 L 718,348 L 724,349 L 726,349 L 729,349 L 730,349 L 732,350 L 738,350 L 746,351 L 749,351 L 754,351 L 755,351 L 756,351 L 757,351 L 760,351 L 762,352 L 765,352 L 766,352 L 767,352 L 773,352 L 773,359 L 774,363 L 774,368 L 774,369 L 775,385 L 775,394 L 776,395 L 776,396 L 776,408 L 776,409 L 777,424 L 775,434 L 775,437 L 774,440 L 772,448 L 772,450 L 771,454 L 770,458 L 769,461 L 768,461 L 766,461 L 765,461 L 764,461 L 762,461 L 760,460 L 759,460 L 758,460 L 757,460 L 756,460 L 755,460 L 753,459 L 752,459 L 751,459 L 750,459 L 748,459 L 746,458 L 744,458 L 741,458 L 732,456 L 731,456 L 727,456 L 725,455 L 723,455 L 722,455 L 722,454 L 721,454 L 720,454 L 719,454 L 718,454 L 717,454 L 716,454 L 714,453 L 711,453 L 710,453 L 706,453 L 703,452 L 701,452 L 699,451 L 698,451 L 693,449 L 692,449 L 691,449 L 689,448 L 684,447 L 683,447 L 682,447 L 680,446 L 678,446 L 672,444 L 667,443 L 665,443 L 663,442 L 662,442 L 659,441 L 657,440 L 654,440 L 653,439 L 652,439 L 650,438 L 648,438 L 644,437 L 643,436 L 642,436 L 636,434 L 635,434 L 634,434 L 633,433 L 632,433 L 630,433 L 626,431 L 624,430 L 623,430 L 617,428 L 616,427 L 615,427 L 613,426 L 611,425 L 609,424 L 608,424 L 605,422 L 603,422 L 603,421 L 602,421 L 601,421 L 600,420 L 600,419 L 598,419 L 597,418 L 594,417 L 590,415 L 583,412 L 577,410 L 574,408 L 572,407 L 571,406 L 569,404 L 560,396 L 557,393 L 556,392 L 555,391 L 554,390 L 552,388 L 550,386 L 548,384 L 547,383 L 546,383 L 541,379 L 538,376 L 536,375 L 533,374 L 529,374 L 528,374 L 527,374 L 525,373 L 521,373 L 518,373 L 516,373 L 514,372 L 508,372 L 504,372 L 501,371 L 496,371 L 492,370 L 483,369 L 473,368 L 462,367 L 460,367 L 459,367 L 457,367 L 455,367 L 454,367 L 452,366 L 450,366 L 446,366 L 445,366 L 443,366 L 436,365 L 435,365 L 433,365 L 431,364 L 430,364 L 427,364 L 425,364 L 422,364 L 420,364 L 416,363 L 414,363 L 411,363 L 409,363 L 407,363 L 405,363 L 403,362 L 402,362 L 401,362 L 399,362 L 396,362 L 394,362 L 390,361 L 388,361 L 385,361 L 384,361 L 379,360 L 377,360 L 375,360 L 370,359 L 369,359 L 365,359 L 363,358 L 362,358 L 358,357 L 353,356 L 350,355 L 346,355 L 342,354 L 340,354 L 336,353 L 329,351 L 330,347 L 330,345 L 330,344 L 331,343 L 331,342 L 333,334 L 335,329 L 335,328 L 336,326 L 337,324 L 338,320 L 339,316 L 340,314 L 341,308 L 342,301 L 343,296 L 343,293 L 345,286 L 345,283 L 345,282 L 348,282 L 355,283 L 363,284 L 368,285 L 368,283 L 368,280 L 369,271 L 369,268 L 370,263 L 385,265 L 395,266 L 399,267 L 403,267 L 411,269 L 417,270 L 417,265 L 424,266 L 428,266 L 439,268 L 439,266 L 443,267 L 444,267 L 446,267 L 448,267 L 449,268 L 451,268 L 455,269 L 456,269 L 458,269 L 460,270 L 461,270 L 463,271 L 463,270 L 464,269 L 470,271 L 471,271 L 476,271 L 481,273 L 493,276 L 495,269 L 506,271 L 507,269 L 507,275 L 514,295 L 518,299 L 526,309 L 529,312 L 531,316 L 539,318 L 546,319 L 549,320 L 554,321 L 564,324 L 574,326 L 580,328 L 579,337 L 579,339 L 578,342 L 585,342 L 588,342 L 591,343 L 595,343 L 608,344 L 611,345 L 617,346 L 619,340 L 619,339 " class="svg-range5" data-original-title="&lt;b&gt;MARGASARI&lt;/b&gt;&lt;br /&gt;401" title=""/>
</g>
</g>
</g>
<g id="3273090_id2012__3273090003" inkscape:groupmode="layer" inkscape:label="3273090_id2012__3273090003">
<g stroke="rgb(0,0,0)" fill="rgb(22,231,200)" stroke-linejoin="round" stroke-width="0.26">
<g id="3273090_id2012__3273090003_1">
<path d="M 619,339 L 619,340 L 617,346 L 611,345 L 608,344 L 595,343 L 591,343 L 588,342 L 585,342 L 578,342 L 579,339 L 579,337 L 580,328 L 574,326 L 564,324 L 554,321 L 549,320 L 546,319 L 539,318 L 531,316 L 529,312 L 526,309 L 518,299 L 514,295 L 507,275 L 507,269 L 506,271 L 495,269 L 493,276 L 481,273 L 476,271 L 471,271 L 470,271 L 464,269 L 463,270 L 463,271 L 461,270 L 460,270 L 458,269 L 456,269 L 455,269 L 451,268 L 449,268 L 448,267 L 446,267 L 444,267 L 443,267 L 439,266 L 439,268 L 428,266 L 424,266 L 417,265 L 417,270 L 411,269 L 403,267 L 399,267 L 395,266 L 385,265 L 370,263 L 369,268 L 369,271 L 368,280 L 368,283 L 368,285 L 363,284 L 355,283 L 348,282 L 345,282 L 346,276 L 348,261 L 349,253 L 352,231 L 361,227 L 373,225 L 378,224 L 391,218 L 399,217 L 402,216 L 403,216 L 412,211 L 430,206 L 440,203 L 443,202 L 445,201 L 471,192 L 484,188 L 491,186 L 502,182 L 511,179 L 518,177 L 519,177 L 521,176 L 529,173 L 545,168 L 552,166 L 557,165 L 562,163 L 577,158 L 580,158 L 590,155 L 599,152 L 614,149 L 625,147 L 633,146 L 644,144 L 652,143 L 657,143 L 657,152 L 656,156 L 656,158 L 655,165 L 654,171 L 654,173 L 653,178 L 653,179 L 653,188 L 652,193 L 653,199 L 653,201 L 652,206 L 650,208 L 650,209 L 650,210 L 650,215 L 650,216 L 649,219 L 649,223 L 648,225 L 648,226 L 648,227 L 645,230 L 645,231 L 643,234 L 643,235 L 641,243 L 639,253 L 639,254 L 639,256 L 639,260 L 638,261 L 637,267 L 637,272 L 637,278 L 637,280 L 636,288 L 634,295 L 632,295 L 631,295 L 629,295 L 629,296 L 628,298 L 628,300 L 625,309 L 624,313 L 624,316 L 622,323 L 622,326 L 619,339 " class="svg-range2" data-original-title="&lt;b&gt;SEKEJATI&lt;/b&gt;&lt;br /&gt;155" title=""/>
</g>
</g>
</g>
<g id="3273090_id2012__3273090004" inkscape:groupmode="layer" inkscape:label="3273090_id2012__3273090004">
<g stroke="rgb(0,0,0)" fill="rgb(142,82,144)" stroke-linejoin="round" stroke-width="0.26">
<g id="3273090_id2012__3273090004_1">
<path d="M 698,51 L 697,52 L 697,53 L 696,55 L 696,56 L 696,57 L 696,58 L 697,59 L 698,62 L 699,64 L 700,65 L 700,66 L 701,68 L 702,69 L 703,72 L 704,72 L 706,76 L 707,77 L 711,86 L 712,87 L 713,89 L 715,91 L 716,92 L 717,93 L 718,94 L 720,96 L 721,97 L 722,98 L 723,99 L 724,100 L 726,103 L 726,104 L 728,106 L 729,108 L 730,110 L 730,112 L 731,113 L 731,115 L 732,118 L 733,119 L 734,121 L 734,123 L 735,124 L 736,127 L 737,130 L 737,133 L 738,137 L 725,138 L 714,139 L 713,139 L 712,139 L 704,139 L 700,140 L 691,140 L 678,141 L 677,141 L 659,142 L 658,143 L 657,143 L 652,143 L 644,144 L 633,146 L 625,147 L 614,149 L 599,152 L 590,155 L 580,158 L 577,158 L 562,163 L 557,165 L 552,166 L 545,168 L 529,173 L 521,176 L 519,177 L 519,174 L 520,173 L 520,168 L 521,162 L 522,159 L 522,154 L 523,152 L 524,144 L 524,143 L 527,126 L 527,124 L 527,122 L 528,121 L 533,120 L 533,119 L 533,117 L 533,115 L 533,110 L 533,108 L 533,102 L 563,108 L 575,110 L 577,99 L 586,101 L 586,97 L 588,91 L 588,90 L 588,88 L 588,85 L 587,80 L 587,79 L 587,65 L 588,61 L 589,60 L 589,58 L 590,56 L 589,55 L 584,49 L 587,46 L 588,34 L 588,33 L 589,29 L 591,15 L 591,14 L 592,12 L 593,13 L 594,13 L 595,13 L 596,14 L 600,15 L 602,16 L 603,16 L 604,17 L 606,17 L 607,18 L 608,18 L 610,19 L 613,20 L 615,21 L 618,22 L 620,22 L 628,25 L 629,26 L 634,28 L 637,29 L 643,31 L 650,33 L 652,34 L 654,35 L 655,35 L 656,36 L 658,36 L 659,37 L 663,38 L 667,39 L 669,40 L 674,42 L 680,44 L 687,47 L 695,50 L 696,50 L 698,51 " class="svg-range1" data-original-title="&lt;b&gt;JATI SARI&lt;/b&gt;&lt;br /&gt;44" title=""/>
</g>
</g>
</g>
<g id="3273090_id2012__3273090001" inkscape:groupmode="layer" inkscape:label="3273090_id2012__3273090001">
<g stroke="rgb(0,0,0)" fill="rgb(189,39,51)" stroke-linejoin="round" stroke-width="0.26">
<g id="3273090_id2012__3273090001_1">
<path d="M 345,282 L 345,283 L 345,286 L 343,293 L 343,296 L 342,301 L 341,308 L 340,314 L 339,316 L 338,320 L 337,324 L 336,326 L 335,328 L 335,329 L 333,334 L 331,342 L 331,343 L 330,344 L 330,345 L 330,347 L 329,351 L 336,353 L 340,354 L 342,354 L 346,355 L 350,355 L 353,356 L 358,357 L 362,358 L 363,358 L 365,359 L 369,359 L 370,359 L 375,360 L 377,360 L 379,360 L 384,361 L 385,361 L 388,361 L 390,361 L 394,362 L 396,362 L 399,362 L 401,362 L 402,362 L 403,362 L 405,363 L 407,363 L 409,363 L 411,363 L 414,363 L 416,363 L 420,364 L 422,364 L 425,364 L 427,364 L 430,364 L 431,364 L 433,365 L 435,365 L 436,365 L 443,366 L 445,366 L 446,366 L 450,366 L 452,366 L 454,367 L 455,367 L 457,367 L 459,367 L 460,367 L 462,367 L 473,368 L 483,369 L 492,370 L 496,371 L 501,371 L 504,372 L 508,372 L 514,372 L 516,373 L 518,373 L 521,373 L 525,373 L 527,374 L 528,374 L 529,374 L 533,374 L 536,375 L 538,376 L 541,379 L 546,383 L 547,383 L 548,384 L 550,386 L 552,388 L 554,390 L 555,391 L 556,392 L 557,393 L 560,396 L 569,404 L 571,406 L 572,407 L 574,408 L 577,410 L 583,412 L 590,415 L 594,417 L 597,418 L 597,419 L 596,422 L 596,423 L 595,425 L 593,430 L 592,434 L 591,438 L 590,440 L 588,443 L 591,445 L 594,447 L 595,450 L 595,451 L 593,456 L 592,459 L 591,461 L 591,463 L 590,464 L 590,470 L 590,472 L 591,474 L 591,476 L 591,478 L 592,484 L 592,485 L 593,488 L 596,497 L 601,506 L 602,506 L 603,509 L 607,515 L 609,518 L 610,520 L 610,523 L 609,523 L 608,522 L 605,522 L 603,521 L 589,518 L 566,514 L 563,514 L 552,512 L 543,511 L 539,510 L 526,508 L 525,508 L 503,504 L 502,504 L 495,503 L 486,502 L 481,501 L 480,501 L 477,500 L 471,499 L 472,499 L 472,497 L 472,493 L 473,490 L 473,488 L 472,487 L 471,486 L 470,486 L 470,485 L 471,484 L 471,483 L 470,482 L 471,481 L 471,479 L 471,478 L 471,475 L 470,473 L 471,470 L 471,467 L 471,466 L 472,463 L 472,462 L 473,460 L 473,456 L 469,450 L 468,450 L 467,448 L 465,446 L 464,445 L 464,443 L 464,441 L 464,440 L 464,438 L 464,437 L 465,436 L 464,435 L 462,435 L 458,433 L 456,434 L 454,434 L 452,433 L 450,433 L 449,433 L 448,432 L 447,432 L 446,431 L 446,430 L 432,432 L 431,432 L 430,431 L 421,430 L 420,430 L 410,427 L 411,418 L 404,417 L 403,416 L 398,416 L 390,415 L 388,415 L 383,415 L 383,414 L 382,414 L 377,414 L 377,409 L 377,407 L 376,407 L 369,408 L 368,408 L 367,402 L 366,398 L 364,398 L 361,397 L 358,397 L 357,397 L 355,397 L 351,396 L 351,395 L 349,394 L 347,393 L 345,391 L 343,389 L 342,386 L 341,385 L 339,384 L 338,384 L 337,383 L 336,382 L 335,380 L 333,377 L 333,375 L 333,372 L 335,368 L 335,366 L 334,364 L 332,363 L 330,362 L 327,361 L 321,359 L 321,358 L 320,354 L 319,352 L 319,351 L 319,350 L 319,349 L 319,348 L 319,347 L 319,346 L 320,342 L 320,341 L 320,340 L 320,339 L 320,338 L 319,337 L 319,336 L 318,336 L 318,335 L 317,334 L 316,333 L 316,332 L 315,331 L 315,330 L 315,329 L 316,329 L 316,328 L 317,327 L 318,326 L 318,325 L 319,325 L 319,324 L 320,323 L 320,322 L 320,321 L 321,320 L 321,319 L 322,318 L 322,317 L 324,313 L 324,312 L 324,311 L 325,309 L 326,305 L 327,303 L 327,302 L 327,301 L 328,299 L 328,298 L 327,297 L 327,295 L 326,293 L 325,293 L 324,291 L 324,290 L 324,289 L 324,288 L 323,287 L 323,285 L 322,284 L 322,283 L 322,282 L 322,281 L 322,280 L 322,279 L 322,278 L 323,276 L 323,275 L 323,274 L 324,273 L 325,271 L 325,269 L 325,267 L 325,265 L 326,263 L 327,261 L 329,259 L 329,258 L 329,256 L 329,255 L 329,254 L 329,253 L 329,252 L 328,250 L 329,249 L 329,248 L 329,247 L 330,246 L 330,244 L 330,242 L 329,240 L 329,238 L 329,237 L 330,237 L 332,237 L 333,236 L 335,236 L 339,235 L 340,235 L 343,234 L 345,233 L 346,233 L 349,232 L 352,231 L 349,253 L 348,261 L 346,276 L 345,282 " class="svg-range5" data-original-title="&lt;b&gt;CIJAURA&lt;/b&gt;&lt;br /&gt;351" title=""/>
</g>
</g>
</g>
</svg></svg>