<svg id="svg-map" width="null" height="null" xmlns="http://www.w3.org/2000/svg" style="animation-delay: 0s; animation-direction: normal; animation-duration: 0s; animation-fill-mode: none; animation-iteration-count: 1; animation-name: none; animation-play-state: running; animation-timing-function: ease; background-attachment: scroll; background-blend-mode: normal; background-clip: border-box; background-color: rgba(0, 0, 0, 0); background-image: none; background-origin: padding-box; background-position: 0% 0%; background-repeat: repeat; background-size: auto; border-bottom-color: rgb(255, 255, 255); border-bottom-left-radius: 0px; border-bottom-right-radius: 0px; border-bottom-style: none; border-bottom-width: 0px; border-collapse: separate; border-image-outset: 0px; border-image-repeat: stretch; border-image-slice: 100%; border-image-source: none; border-image-width: 1; border-left-color: rgb(255, 255, 255); border-left-style: none; border-left-width: 0px; border-right-color: rgb(255, 255, 255); border-right-style: none; border-right-width: 0px; border-top-color: rgb(255, 255, 255); border-top-left-radius: 0px; border-top-right-radius: 0px; border-top-style: none; border-top-width: 0px; bottom: auto; box-shadow: none; box-sizing: border-box; break-after: auto; break-before: auto; break-inside: auto; caption-side: top; clear: none; clip: auto; color: rgb(255, 255, 255); content: ; cursor: auto; direction: ltr; display: inline; empty-cells: show; float: none; font-family: &quot;Open Sans&quot;, sans-serif; font-kerning: auto; font-size: 13px; font-stretch: normal; font-style: normal; font-variant: normal; font-variant-ligatures: normal; font-variant-caps: normal; font-variant-numeric: normal; font-weight: normal; height: 303.953px; image-rendering: auto; isolation: auto; left: auto; letter-spacing: normal; line-height: 18.5714px; list-style-image: none; list-style-position: outside; list-style-type: disc; margin-bottom: 0px; margin-left: 0px; margin-right: 0px; margin-top: 0px; max-height: 400px; max-width: none; min-height: 0px; min-width: 0px; mix-blend-mode: normal; motion-offset: 0px; motion-path: none; motion-rotation: auto 0deg; object-fit: fill; object-position: 50% 50%; opacity: 1; orphans: 2; outline-color: rgb(255, 255, 255); outline-offset: 0px; outline-style: none; outline-width: 0px; overflow-wrap: normal; overflow-x: hidden; overflow-y: hidden; padding-bottom: 0px; padding-left: 0px; padding-right: 0px; padding-top: 0px; pointer-events: auto; position: static; resize: none; right: auto; speak: normal; table-layout: auto; tab-size: 8; text-align: center; text-align-last: auto; text-decoration: none; text-indent: 0px; text-rendering: auto; text-shadow: none; text-size-adjust: 100%; text-overflow: clip; text-transform: none; top: auto; touch-action: auto; transition-delay: 0s; transition-duration: 0s; transition-property: all; transition-timing-function: ease; unicode-bidi: normal; vertical-align: baseline; visibility: visible; white-space: normal; widows: 2; width: 617.5px; will-change: auto; word-break: normal; word-spacing: 0px; word-wrap: normal; z-index: auto; zoom: 1; -webkit-appearance: none; backface-visibility: visible; -webkit-background-clip: border-box; -webkit-background-origin: padding-box; -webkit-border-horizontal-spacing: 0px; -webkit-border-image: none; -webkit-border-vertical-spacing: 0px; -webkit-box-align: stretch; -webkit-box-decoration-break: slice; -webkit-box-direction: normal; -webkit-box-flex: 0; -webkit-box-flex-group: 1; -webkit-box-lines: single; -webkit-box-ordinal-group: 1; -webkit-box-orient: horizontal; -webkit-box-pack: start; -webkit-box-reflect: none; -webkit-clip-path: none; column-count: auto; column-gap: normal; column-rule-color: rgb(255, 255, 255); column-rule-style: none; column-rule-width: 0px; column-span: none; column-width: auto; align-content: stretch; align-items: stretch; align-self: stretch; flex-basis: auto; flex-grow: 0; flex-shrink: 1; flex-direction: row; flex-wrap: nowrap; justify-content: flex-start; -webkit-font-smoothing: auto; -webkit-highlight: none; -webkit-hyphenate-character: auto; -webkit-line-break: auto; -webkit-line-clamp: none; -webkit-locale: &quot;en&quot;; -webkit-margin-before-collapse: collapse; -webkit-margin-after-collapse: collapse; -webkit-mask-box-image: none; -webkit-mask-box-image-outset: 0px; -webkit-mask-box-image-repeat: stretch; -webkit-mask-box-image-slice: 0 fill; -webkit-mask-box-image-source: none; -webkit-mask-box-image-width: auto; -webkit-mask-clip: border-box; -webkit-mask-composite: source-over; -webkit-mask-image: none; -webkit-mask-origin: border-box; -webkit-mask-position: 0% 0%; -webkit-mask-repeat: repeat; -webkit-mask-size: auto; order: 0; perspective: none; perspective-origin: 308.75px 151.969px; -webkit-print-color-adjust: economy; -webkit-rtl-ordering: logical; shape-outside: none; shape-image-threshold: 0; shape-margin: 0px; -webkit-tap-highlight-color: rgba(0, 0, 0, 0); -webkit-text-combine: none; -webkit-text-decorations-in-effect: none; -webkit-text-emphasis-color: rgb(255, 255, 255); -webkit-text-emphasis-position: over; -webkit-text-emphasis-style: none; -webkit-text-fill-color: rgb(255, 255, 255); -webkit-text-orientation: vertical-right; -webkit-text-security: none; -webkit-text-stroke-color: rgb(255, 255, 255); -webkit-text-stroke-width: 0px; transform: none; transform-origin: 308.75px 151.969px; transform-style: flat; -webkit-user-drag: auto; -webkit-user-modify: read-only; user-select: text; -webkit-writing-mode: horizontal-tb; -webkit-app-region: no-drag; buffered-rendering: auto; clip-path: none; clip-rule: nonzero; mask: none; filter: none; flood-color: rgb(0, 0, 0); flood-opacity: 1; lighting-color: rgb(255, 255, 255); stop-color: rgb(0, 0, 0); stop-opacity: 1; color-interpolation: sRGB; color-interpolation-filters: linearRGB; color-rendering: auto; fill: rgb(0, 0, 0); fill-opacity: 1; fill-rule: nonzero; marker-end: none; marker-mid: none; marker-start: none; mask-type: luminance; shape-rendering: auto; stroke: none; stroke-dasharray: none; stroke-dashoffset: 0px; stroke-linecap: butt; stroke-linejoin: miter; stroke-miterlimit: 4; stroke-opacity: 1; stroke-width: 1px; alignment-baseline: auto; baseline-shift: 0px; dominant-baseline: auto; text-anchor: start; writing-mode: horizontal-tb; vector-effect: none; paint-order: fill stroke markers; d: none; cx: 0px; cy: 0px; x: 0px; y: 0px; r: 0px; rx: auto; ry: auto;" version="1.1" xmlns:xlink="http://www.w3.org/1999/xlink">
    <style type="text/css">
        svg:not(:root) {
            overflow: hidden;
        }
        * {
            box-sizing: border-box;
        }
        * {
            font-size: 13px;
        }
        svg {
            max-height: 100vh;
            border: none !important;
        }
        #svg-map svg {
            max-height: 400px;
        }
        #svg-map svg path {
            fill: rgb(153, 196, 176);
            stroke: rgb(51, 51, 51);
            stroke-width: 1;
        }
        #svg-map svg path.svg-range1 {
            fill: rgb(194, 223, 115);
        }
        #svg-map svg path.svg-range2 {
            fill: rgb(160, 189, 83);
        }
        #svg-map svg path.svg-range3 {
            fill: rgb(189, 170, 83);
        }
        #svg-map svg path.svg-range5 {
            fill: rgb(175, 96, 68);
        }
    </style>
    <svg xmlns="http://www.w3.org/2000/svg" xmlns:inkscape="http://www.inkscape.org/namespaces/inkscape" xmlns:xlink="http://www.w3.org/1999/xlink" viewBox="0 0 1097 540" version="1.1">
        <!-- svg generated using QGIS www.qgis.org -->
        <g id="3273020_id2012__3273020002" inkscape:groupmode="layer" inkscape:label="3273020_id2012__3273020002">
            <g stroke="rgb(0,0,0)" fill="rgb(11,236,236)" stroke-linejoin="round" stroke-width="0.26">
                <g id="3273020_id2012__3273020002_1">
                    <path d="M 669,398 L 670,400 L 670,401 L 670,403 L 671,404 L 671,405 L 671,406 L 672,407 L 672,408 L 674,411 L 674,412 L 674,413 L 674,414 L 674,415 L 675,418 L 675,421 L 676,424 L 676,425 L 675,427 L 675,429 L 674,431 L 673,432 L 673,433 L 672,435 L 672,436 L 671,437 L 670,438 L 669,439 L 669,440 L 669,441 L 668,441 L 668,442 L 668,443 L 668,444 L 668,445 L 668,446 L 667,447 L 667,448 L 665,451 L 665,452 L 665,453 L 665,456 L 665,457 L 666,458 L 666,460 L 667,461 L 666,462 L 666,463 L 666,464 L 667,465 L 668,465 L 669,465 L 671,466 L 670,468 L 670,469 L 670,470 L 670,471 L 671,472 L 670,475 L 670,477 L 670,478 L 671,478 L 671,479 L 672,479 L 671,480 L 671,481 L 669,481 L 669,482 L 668,482 L 666,481 L 665,481 L 664,480 L 663,480 L 662,480 L 661,480 L 660,480 L 659,486 L 658,490 L 658,492 L 658,494 L 658,497 L 658,498 L 657,499 L 657,500 L 657,503 L 656,503 L 656,505 L 656,507 L 656,508 L 654,509 L 652,511 L 652,512 L 652,514 L 650,515 L 648,518 L 648,519 L 647,521 L 646,523 L 637,521 L 632,521 L 630,520 L 627,520 L 623,518 L 614,516 L 610,515 L 602,512 L 600,511 L 596,510 L 594,509 L 589,506 L 586,505 L 584,504 L 582,503 L 580,502 L 578,501 L 575,499 L 574,499 L 572,498 L 573,496 L 575,494 L 576,493 L 576,492 L 578,490 L 578,489 L 580,487 L 580,486 L 583,482 L 587,477 L 588,476 L 588,475 L 589,474 L 590,473 L 593,469 L 594,468 L 594,467 L 597,464 L 598,462 L 598,461 L 599,460 L 600,459 L 600,458 L 605,451 L 606,450 L 608,447 L 609,446 L 610,444 L 612,441 L 613,441 L 614,439 L 615,438 L 615,437 L 616,435 L 618,433 L 619,431 L 620,430 L 621,428 L 622,427 L 622,426 L 623,425 L 624,423 L 625,421 L 626,421 L 627,418 L 628,418 L 628,417 L 629,416 L 630,414 L 631,413 L 632,411 L 634,407 L 638,401 L 639,400 L 640,398 L 641,397 L 642,395 L 644,392 L 649,385 L 650,383 L 652,381 L 653,382 L 654,382 L 656,383 L 657,383 L 658,383 L 659,383 L 660,384 L 661,384 L 662,384 L 663,385 L 664,386 L 665,387 L 665,388 L 666,389 L 666,390 L 667,391 L 667,392 L 667,393 L 668,394 L 669,394 L 669,395 L 669,396 L 669,397 L 669,398 " class="svg-range1" data-original-title="&lt;b&gt;CIRANGRANG&lt;/b&gt;&lt;br /&gt;286" title="" />
                </g>
            </g>
        </g>
        <g id="3273020_id2012__3273020003" inkscape:groupmode="layer" inkscape:label="3273020_id2012__3273020003">
            <g stroke="rgb(0,0,0)" fill="rgb(199,184,134)" stroke-linejoin="round" stroke-width="0.26">
                <g id="3273020_id2012__3273020003_1">
                    <path d="M 430,292 L 431,292 L 432,293 L 432,294 L 434,296 L 435,296 L 436,297 L 437,298 L 439,300 L 440,301 L 441,302 L 442,303 L 444,305 L 445,303 L 452,307 L 461,311 L 467,314 L 473,314 L 478,316 L 481,316 L 484,316 L 491,317 L 499,318 L 500,318 L 501,318 L 503,318 L 506,318 L 509,318 L 510,313 L 510,311 L 510,309 L 515,310 L 533,316 L 534,314 L 544,316 L 546,317 L 550,319 L 554,321 L 557,321 L 562,323 L 560,326 L 560,327 L 563,329 L 564,329 L 566,329 L 567,330 L 568,330 L 570,330 L 571,331 L 572,331 L 573,332 L 575,332 L 576,333 L 578,333 L 579,334 L 581,334 L 584,335 L 585,335 L 586,335 L 588,335 L 590,335 L 591,336 L 594,335 L 595,334 L 596,334 L 597,333 L 598,333 L 600,335 L 601,338 L 601,339 L 601,341 L 602,342 L 603,342 L 604,343 L 603,343 L 602,345 L 601,345 L 600,347 L 600,349 L 600,350 L 600,351 L 599,353 L 600,353 L 602,354 L 604,354 L 606,355 L 608,355 L 609,355 L 610,355 L 613,356 L 613,355 L 613,354 L 616,354 L 617,354 L 619,354 L 623,355 L 624,353 L 625,353 L 627,355 L 631,356 L 632,356 L 633,357 L 636,357 L 637,357 L 639,358 L 640,358 L 641,358 L 641,360 L 647,361 L 657,362 L 662,365 L 661,366 L 661,367 L 660,367 L 660,368 L 659,369 L 659,370 L 658,370 L 657,372 L 656,374 L 655,376 L 654,377 L 653,379 L 652,381 L 650,383 L 649,385 L 644,392 L 642,395 L 641,397 L 640,398 L 639,400 L 638,401 L 634,407 L 632,411 L 631,413 L 630,414 L 629,416 L 628,417 L 628,418 L 627,418 L 618,416 L 615,415 L 614,415 L 612,414 L 610,413 L 606,413 L 603,412 L 602,412 L 594,410 L 593,410 L 591,410 L 590,410 L 589,410 L 587,410 L 586,410 L 585,411 L 584,411 L 583,411 L 581,411 L 580,410 L 579,410 L 578,409 L 577,408 L 576,406 L 575,406 L 573,405 L 572,405 L 571,405 L 571,404 L 569,404 L 565,403 L 564,403 L 563,403 L 562,403 L 561,404 L 560,404 L 559,404 L 557,404 L 553,403 L 549,402 L 549,401 L 548,401 L 547,400 L 547,399 L 546,397 L 545,396 L 544,395 L 541,393 L 539,393 L 538,392 L 537,391 L 534,390 L 529,389 L 528,389 L 525,388 L 523,388 L 522,388 L 519,387 L 517,387 L 516,387 L 515,387 L 513,387 L 511,386 L 508,386 L 507,386 L 505,385 L 504,385 L 503,385 L 500,384 L 498,384 L 496,383 L 495,383 L 490,382 L 484,380 L 483,380 L 482,380 L 481,379 L 480,379 L 479,379 L 478,379 L 477,379 L 469,377 L 466,377 L 465,376 L 463,376 L 462,376 L 457,375 L 455,375 L 454,374 L 450,373 L 446,373 L 442,373 L 439,372 L 438,371 L 436,371 L 433,370 L 425,369 L 424,369 L 422,368 L 420,368 L 421,367 L 420,366 L 420,364 L 420,363 L 420,362 L 420,361 L 420,360 L 422,359 L 423,354 L 423,353 L 424,353 L 424,352 L 422,351 L 421,351 L 420,350 L 420,349 L 421,348 L 421,345 L 421,344 L 421,343 L 419,342 L 417,342 L 417,340 L 417,338 L 417,336 L 419,335 L 420,334 L 421,333 L 419,330 L 419,327 L 419,326 L 418,325 L 418,323 L 418,322 L 416,322 L 415,321 L 416,320 L 418,316 L 419,313 L 419,312 L 420,311 L 420,310 L 421,310 L 421,309 L 420,308 L 419,308 L 420,307 L 420,306 L 420,305 L 421,305 L 421,302 L 421,301 L 422,301 L 422,300 L 422,299 L 422,298 L 422,297 L 423,296 L 424,295 L 424,294 L 424,293 L 424,292 L 424,291 L 423,291 L 423,290 L 423,289 L 424,289 L 427,290 L 430,292 " class="svg-range2" data-original-title="&lt;b&gt;MARGAHAYU UTARA&lt;/b&gt;&lt;br /&gt;458" title="" />
                </g>
            </g>
        </g>
        <g id="3273020_id2012__3273020004" inkscape:groupmode="layer" inkscape:label="3273020_id2012__3273020004">
            <g stroke="rgb(0,0,0)" fill="rgb(212,140,76)" stroke-linejoin="round" stroke-width="0.26">
                <g id="3273020_id2012__3273020004_1">
                    <path d="M 629,196 L 629,197 L 628,198 L 628,199 L 628,200 L 628,201 L 628,202 L 628,203 L 628,204 L 628,206 L 628,207 L 628,208 L 628,209 L 628,210 L 627,211 L 627,212 L 627,213 L 627,214 L 627,215 L 627,216 L 626,217 L 626,218 L 625,218 L 625,220 L 624,220 L 624,221 L 623,221 L 622,220 L 621,219 L 620,219 L 619,220 L 618,221 L 617,222 L 616,223 L 616,224 L 615,224 L 615,225 L 614,225 L 614,226 L 613,227 L 612,227 L 612,228 L 612,229 L 612,230 L 611,232 L 611,233 L 611,234 L 611,235 L 611,237 L 610,239 L 610,240 L 610,241 L 609,242 L 609,243 L 609,244 L 609,245 L 609,246 L 608,248 L 608,249 L 608,250 L 608,251 L 608,252 L 608,255 L 608,256 L 608,257 L 608,258 L 608,259 L 609,259 L 609,260 L 609,261 L 609,262 L 609,263 L 610,264 L 610,265 L 610,266 L 611,267 L 611,268 L 611,269 L 612,270 L 612,271 L 612,272 L 613,273 L 613,274 L 613,275 L 614,276 L 615,277 L 616,277 L 616,278 L 617,278 L 617,279 L 618,279 L 619,280 L 619,281 L 620,281 L 621,282 L 622,283 L 623,284 L 624,285 L 624,286 L 625,286 L 625,287 L 625,288 L 625,289 L 626,290 L 626,292 L 626,294 L 626,297 L 626,298 L 626,299 L 626,300 L 626,301 L 626,302 L 626,303 L 626,304 L 626,305 L 625,306 L 625,308 L 625,309 L 625,310 L 625,313 L 625,314 L 625,315 L 625,316 L 625,317 L 624,318 L 624,319 L 624,320 L 624,321 L 624,322 L 624,324 L 624,326 L 623,327 L 623,328 L 623,330 L 624,330 L 625,331 L 630,332 L 631,332 L 631,333 L 634,333 L 637,334 L 638,334 L 639,335 L 640,335 L 641,335 L 642,335 L 643,336 L 645,336 L 646,337 L 647,337 L 649,337 L 650,337 L 650,338 L 651,338 L 652,338 L 656,339 L 657,339 L 658,340 L 659,340 L 660,340 L 661,340 L 662,340 L 665,340 L 666,340 L 667,341 L 668,341 L 669,341 L 670,341 L 671,342 L 673,342 L 674,342 L 674,343 L 677,343 L 676,344 L 675,345 L 675,346 L 674,348 L 673,349 L 672,350 L 672,351 L 672,352 L 671,352 L 670,353 L 669,355 L 669,356 L 668,356 L 668,357 L 667,357 L 667,358 L 666,359 L 665,361 L 663,363 L 662,364 L 662,365 L 657,362 L 647,361 L 641,360 L 641,358 L 640,358 L 639,358 L 637,357 L 636,357 L 633,357 L 632,356 L 631,356 L 627,355 L 625,353 L 624,353 L 623,355 L 619,354 L 617,354 L 616,354 L 613,354 L 613,355 L 613,356 L 610,355 L 609,355 L 608,355 L 606,355 L 604,354 L 602,354 L 600,353 L 599,353 L 600,351 L 600,350 L 600,349 L 600,347 L 601,345 L 602,345 L 603,343 L 604,343 L 603,342 L 602,342 L 601,341 L 601,339 L 601,338 L 600,335 L 598,333 L 597,333 L 596,334 L 595,334 L 594,335 L 591,336 L 590,335 L 588,335 L 586,335 L 585,335 L 584,335 L 581,334 L 579,334 L 578,333 L 576,333 L 575,332 L 573,332 L 572,331 L 571,331 L 570,330 L 568,330 L 567,330 L 566,329 L 564,329 L 563,329 L 560,327 L 560,326 L 562,323 L 557,321 L 554,321 L 550,319 L 546,317 L 544,316 L 534,314 L 533,316 L 515,310 L 520,292 L 513,289 L 505,284 L 508,279 L 508,278 L 509,276 L 510,274 L 511,272 L 511,271 L 511,270 L 512,269 L 512,267 L 508,265 L 506,264 L 504,263 L 503,263 L 501,261 L 498,260 L 497,259 L 495,259 L 494,259 L 486,246 L 486,243 L 486,242 L 486,241 L 487,239 L 488,238 L 490,236 L 491,235 L 492,233 L 495,229 L 496,226 L 497,224 L 497,222 L 500,222 L 502,222 L 504,222 L 505,220 L 505,218 L 507,216 L 511,217 L 516,217 L 520,216 L 523,216 L 524,216 L 525,215 L 527,215 L 529,215 L 530,216 L 531,216 L 532,216 L 533,216 L 533,215 L 534,214 L 534,213 L 535,213 L 536,213 L 538,213 L 539,213 L 541,213 L 542,214 L 543,214 L 545,214 L 547,214 L 550,214 L 552,214 L 557,214 L 558,215 L 559,216 L 559,217 L 560,218 L 561,219 L 562,220 L 564,216 L 565,215 L 566,215 L 569,211 L 571,210 L 572,209 L 577,210 L 588,212 L 590,211 L 592,210 L 593,209 L 595,208 L 596,208 L 600,207 L 604,206 L 607,206 L 614,204 L 615,203 L 617,203 L 619,201 L 620,200 L 621,198 L 622,198 L 623,197 L 624,196 L 629,196 " class="svg-range3" data-original-title="&lt;b&gt;BABAKAN CIPARAY&lt;/b&gt;&lt;br /&gt;565" title="" />
                </g>
            </g>
        </g>
        <g id="3273020_id2012__3273020005" inkscape:groupmode="layer" inkscape:label="3273020_id2012__3273020005">
            <g stroke="rgb(0,0,0)" fill="rgb(94,145,17)" stroke-linejoin="round" stroke-width="0.26">
                <g id="3273020_id2012__3273020005_1">
                    <path d="M 572,209 L 571,210 L 569,211 L 566,215 L 565,215 L 564,216 L 562,220 L 561,219 L 560,218 L 559,217 L 559,216 L 558,215 L 557,214 L 552,214 L 550,214 L 547,214 L 545,214 L 543,214 L 542,214 L 541,213 L 539,213 L 538,213 L 536,213 L 535,213 L 534,213 L 534,214 L 533,215 L 533,216 L 532,216 L 531,216 L 530,216 L 529,215 L 527,215 L 525,215 L 524,216 L 523,216 L 520,216 L 516,217 L 511,217 L 507,216 L 505,218 L 505,220 L 504,222 L 502,222 L 500,222 L 497,222 L 497,224 L 496,226 L 495,229 L 492,233 L 491,235 L 490,236 L 488,238 L 487,239 L 486,241 L 486,242 L 486,243 L 486,246 L 494,259 L 495,259 L 497,259 L 498,260 L 501,261 L 503,263 L 504,263 L 506,264 L 508,265 L 512,267 L 512,269 L 511,270 L 511,271 L 511,272 L 510,274 L 509,276 L 508,278 L 508,279 L 505,284 L 513,289 L 520,292 L 515,310 L 510,309 L 510,311 L 510,313 L 509,318 L 506,318 L 503,318 L 501,318 L 500,318 L 499,318 L 491,317 L 484,316 L 481,316 L 478,316 L 473,314 L 467,314 L 461,311 L 452,307 L 445,303 L 444,305 L 442,303 L 441,302 L 440,301 L 439,300 L 437,298 L 436,297 L 435,296 L 434,296 L 432,294 L 432,293 L 431,292 L 430,292 L 430,291 L 431,290 L 431,289 L 432,288 L 432,287 L 433,286 L 437,277 L 438,276 L 438,275 L 438,274 L 438,273 L 439,272 L 439,271 L 440,271 L 440,270 L 442,268 L 443,266 L 444,265 L 445,263 L 445,262 L 446,261 L 448,259 L 448,258 L 449,257 L 449,256 L 450,256 L 450,255 L 451,254 L 452,253 L 453,251 L 453,250 L 454,249 L 455,248 L 455,247 L 457,246 L 458,244 L 459,242 L 460,240 L 461,238 L 462,237 L 462,235 L 463,234 L 463,233 L 463,232 L 463,231 L 464,230 L 464,229 L 464,228 L 464,227 L 465,226 L 466,225 L 466,224 L 466,223 L 467,221 L 470,218 L 472,215 L 473,214 L 474,212 L 475,210 L 475,209 L 475,208 L 476,207 L 476,206 L 476,205 L 477,204 L 477,203 L 477,202 L 478,202 L 478,201 L 478,200 L 479,197 L 479,196 L 479,195 L 479,194 L 485,197 L 488,197 L 489,197 L 492,193 L 493,191 L 494,189 L 496,187 L 497,186 L 498,184 L 500,181 L 502,178 L 503,176 L 503,175 L 505,174 L 506,171 L 506,170 L 507,169 L 510,167 L 511,165 L 512,163 L 512,162 L 513,161 L 513,160 L 516,156 L 518,153 L 519,152 L 521,149 L 522,148 L 522,147 L 523,147 L 524,145 L 525,143 L 526,142 L 527,141 L 527,140 L 528,139 L 528,138 L 529,137 L 530,135 L 531,134 L 531,133 L 535,127 L 536,125 L 538,122 L 541,120 L 542,118 L 542,117 L 545,110 L 546,107 L 546,105 L 547,105 L 548,105 L 548,106 L 552,107 L 554,107 L 555,108 L 556,108 L 558,105 L 558,104 L 559,103 L 559,102 L 560,101 L 561,99 L 562,98 L 564,93 L 565,92 L 565,91 L 566,90 L 567,90 L 569,91 L 570,91 L 570,90 L 571,89 L 572,88 L 573,86 L 574,85 L 576,80 L 576,79 L 577,76 L 581,77 L 582,77 L 585,78 L 586,78 L 587,78 L 588,78 L 589,78 L 590,78 L 590,77 L 591,77 L 591,76 L 591,75 L 594,74 L 596,71 L 597,71 L 601,68 L 602,67 L 603,77 L 605,77 L 605,79 L 605,81 L 608,82 L 608,85 L 608,89 L 608,91 L 608,95 L 608,99 L 608,103 L 609,106 L 609,108 L 608,110 L 606,112 L 605,113 L 604,114 L 604,115 L 603,121 L 602,126 L 601,126 L 598,128 L 597,128 L 589,131 L 585,132 L 582,134 L 580,135 L 579,135 L 581,146 L 580,150 L 580,154 L 579,159 L 578,169 L 577,176 L 576,182 L 574,197 L 574,200 L 574,201 L 573,207 L 573,208 L 572,209 " class="svg-range5" data-original-title="&lt;b&gt;BABAKAN&lt;/b&gt;&lt;br /&gt;764" title="" />
                </g>
            </g>
        </g>
        <g id="3273020_id2012__3273020006" inkscape:groupmode="layer" inkscape:label="3273020_id2012__3273020006">
            <g stroke="rgb(0,0,0)" fill="rgb(50,128,74)" stroke-linejoin="round" stroke-width="0.26">
                <g id="3273020_id2012__3273020006_1">
                    <path d="M 633,18 L 635,18 L 642,19 L 644,19 L 645,19 L 649,20 L 650,20 L 650,22 L 650,24 L 648,31 L 644,31 L 643,35 L 643,36 L 641,38 L 640,39 L 639,40 L 638,42 L 638,47 L 638,48 L 638,49 L 638,52 L 638,53 L 638,55 L 638,56 L 637,56 L 637,57 L 637,59 L 637,63 L 638,64 L 638,66 L 638,67 L 638,69 L 638,70 L 639,72 L 639,73 L 640,75 L 642,75 L 641,75 L 641,76 L 641,77 L 641,78 L 641,79 L 641,80 L 641,81 L 641,83 L 641,84 L 641,85 L 641,86 L 640,87 L 640,89 L 640,90 L 640,91 L 640,92 L 640,93 L 640,94 L 640,95 L 640,96 L 640,97 L 640,98 L 639,99 L 639,100 L 639,101 L 639,102 L 639,103 L 639,104 L 639,105 L 639,106 L 639,107 L 639,108 L 639,110 L 638,112 L 638,113 L 638,116 L 638,117 L 638,118 L 638,119 L 637,121 L 637,123 L 637,124 L 637,125 L 637,126 L 637,127 L 637,128 L 636,129 L 636,130 L 636,131 L 636,132 L 636,133 L 636,134 L 636,135 L 636,136 L 636,137 L 636,138 L 636,139 L 636,140 L 635,141 L 635,142 L 635,144 L 635,145 L 635,146 L 635,148 L 635,149 L 635,150 L 635,151 L 635,152 L 635,153 L 635,154 L 635,156 L 635,157 L 635,158 L 635,159 L 634,160 L 634,162 L 634,163 L 634,164 L 633,165 L 633,166 L 633,167 L 633,168 L 633,169 L 633,170 L 632,171 L 632,172 L 632,173 L 632,174 L 632,175 L 632,177 L 631,178 L 631,180 L 631,181 L 631,182 L 631,183 L 630,184 L 630,185 L 630,186 L 630,187 L 630,188 L 630,189 L 629,190 L 629,191 L 629,192 L 629,194 L 629,195 L 629,196 L 624,196 L 623,197 L 622,198 L 621,198 L 620,200 L 619,201 L 617,203 L 615,203 L 614,204 L 607,206 L 604,206 L 600,207 L 596,208 L 595,208 L 593,209 L 592,210 L 590,211 L 588,212 L 577,210 L 572,209 L 573,208 L 573,207 L 574,201 L 574,200 L 574,197 L 576,182 L 577,176 L 578,169 L 579,159 L 580,154 L 580,150 L 581,146 L 579,135 L 580,135 L 582,134 L 585,132 L 589,131 L 597,128 L 598,128 L 601,126 L 602,126 L 603,121 L 604,115 L 604,114 L 605,113 L 606,112 L 608,110 L 609,108 L 609,106 L 608,103 L 608,99 L 608,95 L 608,91 L 608,89 L 608,85 L 608,82 L 605,81 L 605,79 L 605,77 L 603,77 L 602,67 L 601,68 L 597,71 L 596,71 L 594,74 L 591,75 L 591,73 L 590,73 L 590,72 L 590,70 L 589,69 L 588,67 L 588,66 L 587,61 L 585,56 L 585,55 L 585,53 L 585,52 L 585,51 L 585,49 L 585,42 L 585,41 L 585,34 L 586,33 L 586,30 L 588,14 L 588,13 L 588,12 L 595,13 L 596,13 L 597,13 L 607,15 L 609,15 L 612,15 L 614,15 L 615,15 L 618,16 L 620,16 L 621,16 L 622,16 L 626,17 L 627,17 L 629,17 L 633,18 " class="svg-range5" data-original-title="&lt;b&gt;SUKAHAJI&lt;/b&gt;&lt;br /&gt;800" title="" />
                </g>
            </g>
        </g>
        <g id="3273020_id2012__3273020001" inkscape:groupmode="layer" inkscape:label="3273020_id2012__3273020001">
            <g stroke="rgb(0,0,0)" fill="rgb(172,172,107)" stroke-linejoin="round" stroke-width="0.26">
                <g id="3273020_id2012__3273020001_1">
                    <path d="M 627,418 L 626,421 L 625,421 L 624,423 L 623,425 L 622,426 L 622,427 L 621,428 L 620,430 L 619,431 L 618,433 L 616,435 L 615,437 L 615,438 L 614,439 L 613,441 L 612,441 L 610,444 L 609,446 L 608,447 L 606,450 L 605,451 L 600,458 L 600,459 L 599,460 L 598,461 L 598,462 L 597,464 L 594,467 L 594,468 L 593,469 L 590,473 L 589,474 L 588,475 L 588,476 L 587,477 L 583,482 L 580,486 L 580,487 L 578,489 L 578,490 L 576,492 L 576,493 L 575,494 L 573,496 L 572,498 L 571,497 L 570,497 L 569,496 L 564,494 L 553,488 L 543,483 L 534,477 L 527,474 L 517,468 L 510,464 L 500,459 L 493,456 L 485,451 L 478,447 L 470,443 L 460,438 L 457,436 L 450,433 L 443,429 L 438,426 L 437,425 L 436,425 L 434,423 L 432,422 L 430,421 L 428,420 L 426,419 L 427,419 L 426,419 L 427,419 L 427,417 L 427,415 L 427,412 L 427,411 L 427,410 L 428,409 L 428,408 L 428,407 L 428,406 L 429,405 L 429,404 L 429,403 L 429,402 L 430,401 L 430,399 L 431,396 L 432,395 L 432,394 L 432,393 L 433,392 L 433,391 L 433,389 L 433,388 L 434,387 L 434,386 L 434,385 L 434,384 L 434,383 L 433,382 L 433,381 L 433,380 L 433,379 L 433,378 L 433,377 L 432,377 L 431,377 L 429,377 L 426,377 L 424,376 L 424,375 L 423,374 L 423,373 L 422,372 L 421,371 L 421,370 L 420,369 L 420,368 L 422,368 L 424,369 L 425,369 L 433,370 L 436,371 L 438,371 L 439,372 L 442,373 L 446,373 L 450,373 L 454,374 L 455,375 L 457,375 L 462,376 L 463,376 L 465,376 L 466,377 L 469,377 L 477,379 L 478,379 L 479,379 L 480,379 L 481,379 L 482,380 L 483,380 L 484,380 L 490,382 L 495,383 L 496,383 L 498,384 L 500,384 L 503,385 L 504,385 L 505,385 L 507,386 L 508,386 L 511,386 L 513,387 L 515,387 L 516,387 L 517,387 L 519,387 L 522,388 L 523,388 L 525,388 L 528,389 L 529,389 L 534,390 L 537,391 L 538,392 L 539,393 L 541,393 L 544,395 L 545,396 L 546,397 L 547,399 L 547,400 L 548,401 L 549,401 L 549,402 L 553,403 L 557,404 L 559,404 L 560,404 L 561,404 L 562,403 L 563,403 L 564,403 L 565,403 L 569,404 L 571,404 L 571,405 L 572,405 L 573,405 L 575,406 L 576,406 L 577,408 L 578,409 L 579,410 L 580,410 L 581,411 L 583,411 L 584,411 L 585,411 L 586,410 L 587,410 L 589,410 L 590,410 L 591,410 L 593,410 L 594,410 L 602,412 L 603,412 L 606,413 L 610,413 L 612,414 L 614,415 L 615,415 L 618,416 L 627,418 " class="svg-range1" data-original-title="&lt;b&gt;MARGASUKA&lt;/b&gt;&lt;br /&gt;295" title="" />
                </g>
            </g>
        </g>
    </svg>
</svg>