<svg id="svg-map" width="null" height="null" xmlns="http://www.w3.org/2000/svg" style="animation-delay: 0s; animation-direction: normal; animation-duration: 0s; animation-fill-mode: none; animation-iteration-count: 1; animation-name: none; animation-play-state: running; animation-timing-function: ease; background-attachment: scroll; background-blend-mode: normal; background-clip: border-box; background-color: rgba(0, 0, 0, 0); background-image: none; background-origin: padding-box; background-position: 0% 0%; background-repeat: repeat; background-size: auto; border-bottom-color: rgb(255, 255, 255); border-bottom-left-radius: 0px; border-bottom-right-radius: 0px; border-bottom-style: none; border-bottom-width: 0px; border-collapse: separate; border-image-outset: 0px; border-image-repeat: stretch; border-image-slice: 100%; border-image-source: none; border-image-width: 1; border-left-color: rgb(255, 255, 255); border-left-style: none; border-left-width: 0px; border-right-color: rgb(255, 255, 255); border-right-style: none; border-right-width: 0px; border-top-color: rgb(255, 255, 255); border-top-left-radius: 0px; border-top-right-radius: 0px; border-top-style: none; border-top-width: 0px; bottom: auto; box-shadow: none; box-sizing: border-box; break-after: auto; break-before: auto; break-inside: auto; caption-side: top; clear: none; clip: auto; color: rgb(255, 255, 255); content: ; cursor: auto; direction: ltr; display: inline; empty-cells: show; float: none; font-family: &quot;Open Sans&quot;, sans-serif; font-kerning: auto; font-size: 13px; font-stretch: normal; font-style: normal; font-variant: normal; font-variant-ligatures: normal; font-variant-caps: normal; font-variant-numeric: normal; font-weight: normal; height: 303.953px; image-rendering: auto; isolation: auto; left: auto; letter-spacing: normal; line-height: 18.5714px; list-style-image: none; list-style-position: outside; list-style-type: disc; margin-bottom: 0px; margin-left: 0px; margin-right: 0px; margin-top: 0px; max-height: 400px; max-width: none; min-height: 0px; min-width: 0px; mix-blend-mode: normal; motion-offset: 0px; motion-path: none; motion-rotation: auto 0deg; object-fit: fill; object-position: 50% 50%; opacity: 1; orphans: 2; outline-color: rgb(255, 255, 255); outline-offset: 0px; outline-style: none; outline-width: 0px; overflow-wrap: normal; overflow-x: hidden; overflow-y: hidden; padding-bottom: 0px; padding-left: 0px; padding-right: 0px; padding-top: 0px; pointer-events: auto; position: static; resize: none; right: auto; speak: normal; table-layout: auto; tab-size: 8; text-align: center; text-align-last: auto; text-decoration: none; text-indent: 0px; text-rendering: auto; text-shadow: none; text-size-adjust: 100%; text-overflow: clip; text-transform: none; top: auto; touch-action: auto; transition-delay: 0s; transition-duration: 0s; transition-property: all; transition-timing-function: ease; unicode-bidi: normal; vertical-align: baseline; visibility: visible; white-space: normal; widows: 2; width: 617.5px; will-change: auto; word-break: normal; word-spacing: 0px; word-wrap: normal; z-index: auto; zoom: 1; -webkit-appearance: none; backface-visibility: visible; -webkit-background-clip: border-box; -webkit-background-origin: padding-box; -webkit-border-horizontal-spacing: 0px; -webkit-border-image: none; -webkit-border-vertical-spacing: 0px; -webkit-box-align: stretch; -webkit-box-decoration-break: slice; -webkit-box-direction: normal; -webkit-box-flex: 0; -webkit-box-flex-group: 1; -webkit-box-lines: single; -webkit-box-ordinal-group: 1; -webkit-box-orient: horizontal; -webkit-box-pack: start; -webkit-box-reflect: none; -webkit-clip-path: none; column-count: auto; column-gap: normal; column-rule-color: rgb(255, 255, 255); column-rule-style: none; column-rule-width: 0px; column-span: none; column-width: auto; align-content: stretch; align-items: stretch; align-self: stretch; flex-basis: auto; flex-grow: 0; flex-shrink: 1; flex-direction: row; flex-wrap: nowrap; justify-content: flex-start; -webkit-font-smoothing: auto; -webkit-highlight: none; -webkit-hyphenate-character: auto; -webkit-line-break: auto; -webkit-line-clamp: none; -webkit-locale: &quot;en&quot;; -webkit-margin-before-collapse: collapse; -webkit-margin-after-collapse: collapse; -webkit-mask-box-image: none; -webkit-mask-box-image-outset: 0px; -webkit-mask-box-image-repeat: stretch; -webkit-mask-box-image-slice: 0 fill; -webkit-mask-box-image-source: none; -webkit-mask-box-image-width: auto; -webkit-mask-clip: border-box; -webkit-mask-composite: source-over; -webkit-mask-image: none; -webkit-mask-origin: border-box; -webkit-mask-position: 0% 0%; -webkit-mask-repeat: repeat; -webkit-mask-size: auto; order: 0; perspective: none; perspective-origin: 308.75px 151.969px; -webkit-print-color-adjust: economy; -webkit-rtl-ordering: logical; shape-outside: none; shape-image-threshold: 0; shape-margin: 0px; -webkit-tap-highlight-color: rgba(0, 0, 0, 0); -webkit-text-combine: none; -webkit-text-decorations-in-effect: none; -webkit-text-emphasis-color: rgb(255, 255, 255); -webkit-text-emphasis-position: over; -webkit-text-emphasis-style: none; -webkit-text-fill-color: rgb(255, 255, 255); -webkit-text-orientation: vertical-right; -webkit-text-security: none; -webkit-text-stroke-color: rgb(255, 255, 255); -webkit-text-stroke-width: 0px; transform: none; transform-origin: 308.75px 151.969px; transform-style: flat; -webkit-user-drag: auto; -webkit-user-modify: read-only; user-select: text; -webkit-writing-mode: horizontal-tb; -webkit-app-region: no-drag; buffered-rendering: auto; clip-path: none; clip-rule: nonzero; mask: none; filter: none; flood-color: rgb(0, 0, 0); flood-opacity: 1; lighting-color: rgb(255, 255, 255); stop-color: rgb(0, 0, 0); stop-opacity: 1; color-interpolation: sRGB; color-interpolation-filters: linearRGB; color-rendering: auto; fill: rgb(0, 0, 0); fill-opacity: 1; fill-rule: nonzero; marker-end: none; marker-mid: none; marker-start: none; mask-type: luminance; shape-rendering: auto; stroke: none; stroke-dasharray: none; stroke-dashoffset: 0px; stroke-linecap: butt; stroke-linejoin: miter; stroke-miterlimit: 4; stroke-opacity: 1; stroke-width: 1px; alignment-baseline: auto; baseline-shift: 0px; dominant-baseline: auto; text-anchor: start; writing-mode: horizontal-tb; vector-effect: none; paint-order: fill stroke markers; d: none; cx: 0px; cy: 0px; x: 0px; y: 0px; r: 0px; rx: auto; ry: auto;" version="1.1" xmlns:xlink="http://www.w3.org/1999/xlink"><style type="text/css">svg:not(:root) { overflow: hidden; }
* { box-sizing: border-box; }
* { font-size: 13px; }
svg { max-height: 100vh; border: none !important; }
#svg-map svg { max-height: 400px; }
#svg-map svg path { fill: rgb(153, 196, 176); stroke: rgb(51, 51, 51); stroke-width: 1; }
#svg-map svg path.svg-range1 { fill: rgb(194, 223, 115); }
#svg-map svg path.svg-range2 { fill: rgb(160, 189, 83); }
#svg-map svg path.svg-range3 { fill: rgb(189, 170, 83); }
#svg-map svg path.svg-range5 { fill: rgb(175, 96, 68); }</style><svg xmlns="http://www.w3.org/2000/svg" xmlns:inkscape="http://www.inkscape.org/namespaces/inkscape" xmlns:xlink="http://www.w3.org/1999/xlink" viewBox="0 0 1097 540" version="1.1">
<!-- svg generated using QGIS www.qgis.org -->
<g id="3273170_id2012__3273170001" inkscape:groupmode="layer" inkscape:label="3273170_id2012__3273170001">
<g stroke="rgb(0,0,0)" fill="rgb(137,233,206)" stroke-linejoin="round" stroke-width="0.26">
<g id="3273170_id2012__3273170001_1">
<path d="M 444,311 L 443,314 L 442,320 L 440,329 L 439,340 L 437,349 L 436,356 L 434,361 L 433,366 L 428,370 L 426,372 L 422,374 L 416,375 L 409,378 L 403,380 L 402,382 L 401,384 L 400,386 L 400,393 L 398,402 L 398,405 L 395,430 L 392,450 L 392,452 L 391,459 L 385,503 L 379,502 L 378,502 L 377,502 L 376,502 L 374,502 L 371,501 L 365,501 L 357,500 L 355,499 L 353,499 L 349,499 L 346,498 L 344,498 L 326,496 L 323,495 L 321,495 L 319,495 L 318,495 L 316,494 L 315,494 L 313,494 L 312,494 L 307,493 L 303,493 L 301,492 L 300,492 L 299,492 L 296,492 L 288,491 L 285,490 L 282,490 L 278,490 L 277,490 L 275,489 L 266,489 L 262,488 L 260,488 L 255,487 L 253,487 L 251,487 L 250,487 L 247,487 L 246,487 L 244,486 L 243,486 L 242,486 L 238,486 L 218,483 L 215,482 L 212,482 L 207,481 L 203,481 L 198,480 L 192,480 L 174,478 L 166,477 L 165,477 L 163,476 L 161,476 L 151,475 L 148,474 L 146,474 L 138,472 L 137,472 L 136,472 L 133,472 L 132,472 L 133,454 L 134,445 L 134,438 L 134,435 L 135,432 L 135,430 L 136,425 L 136,422 L 136,421 L 136,415 L 137,407 L 137,406 L 137,400 L 138,391 L 138,387 L 138,385 L 138,376 L 140,365 L 140,364 L 140,361 L 140,360 L 140,357 L 140,355 L 140,354 L 141,352 L 141,348 L 141,346 L 141,345 L 143,331 L 143,329 L 143,326 L 143,324 L 144,323 L 144,321 L 144,317 L 145,315 L 145,313 L 145,311 L 145,309 L 146,300 L 146,296 L 146,293 L 146,292 L 147,288 L 147,287 L 147,285 L 147,283 L 147,282 L 147,280 L 147,278 L 147,276 L 147,275 L 147,274 L 146,272 L 148,272 L 163,274 L 219,281 L 222,282 L 227,283 L 231,283 L 238,284 L 240,285 L 241,285 L 248,285 L 269,288 L 288,291 L 293,291 L 309,293 L 313,294 L 316,294 L 322,295 L 325,295 L 328,296 L 344,297 L 361,300 L 418,307 L 436,310 L 444,311 " class="svg-range3" data-original-title="&lt;b&gt;BRAGA&lt;/b&gt;&lt;br /&gt;26" title=""/>
</g>
</g>
</g>
<g id="3273170_id2012__3273170002" inkscape:groupmode="layer" inkscape:label="3273170_id2012__3273170002">
<g stroke="rgb(0,0,0)" fill="rgb(189,89,247)" stroke-linejoin="round" stroke-width="0.26">
<g id="3273170_id2012__3273170002_1">
<path d="M 798,398 L 796,399 L 794,400 L 792,401 L 791,401 L 790,402 L 789,403 L 788,403 L 787,404 L 786,404 L 785,405 L 782,407 L 781,407 L 780,408 L 779,408 L 778,409 L 777,409 L 776,410 L 773,412 L 770,413 L 759,419 L 756,420 L 749,424 L 748,424 L 746,425 L 741,428 L 740,429 L 735,431 L 734,432 L 705,447 L 704,447 L 703,448 L 701,449 L 700,450 L 695,452 L 686,457 L 678,461 L 671,465 L 663,469 L 662,469 L 655,473 L 652,475 L 649,476 L 648,477 L 644,479 L 640,481 L 639,481 L 637,482 L 630,487 L 626,488 L 625,489 L 622,490 L 621,491 L 619,492 L 617,493 L 613,495 L 606,499 L 603,501 L 598,504 L 580,514 L 579,514 L 576,516 L 575,516 L 571,519 L 570,520 L 569,521 L 566,522 L 563,522 L 558,522 L 556,523 L 539,522 L 512,519 L 497,517 L 496,517 L 493,516 L 491,516 L 489,516 L 483,515 L 479,514 L 476,514 L 473,514 L 472,514 L 470,513 L 458,512 L 449,511 L 447,511 L 445,511 L 439,509 L 432,509 L 421,507 L 416,507 L 398,505 L 397,504 L 393,504 L 386,503 L 385,503 L 391,459 L 392,452 L 392,450 L 395,430 L 398,405 L 398,402 L 400,393 L 400,386 L 401,384 L 402,382 L 403,380 L 409,378 L 416,375 L 422,374 L 426,372 L 428,370 L 433,366 L 434,361 L 436,356 L 437,349 L 439,340 L 440,329 L 442,320 L 443,314 L 444,311 L 458,315 L 469,317 L 486,322 L 495,324 L 516,329 L 533,333 L 552,338 L 581,345 L 584,346 L 587,346 L 596,349 L 599,349 L 601,350 L 607,352 L 613,353 L 635,358 L 651,362 L 667,366 L 676,368 L 685,370 L 693,372 L 697,373 L 713,377 L 716,378 L 728,381 L 737,383 L 740,384 L 754,387 L 769,391 L 772,392 L 791,396 L 798,398 " class="svg-range5" data-original-title="&lt;b&gt;KEBON PISANG&lt;/b&gt;&lt;br /&gt;48" title=""/>
</g>
</g>
</g>
<g id="3273170_id2012__3273170003" inkscape:groupmode="layer" inkscape:label="3273170_id2012__3273170003">
<g stroke="rgb(0,0,0)" fill="rgb(112,45,200)" stroke-linejoin="round" stroke-width="0.26">
<g id="3273170_id2012__3273170003_1">
<path d="M 611,89 L 613,89 L 621,92 L 631,95 L 642,98 L 651,100 L 661,103 L 675,105 L 678,103 L 684,103 L 691,104 L 698,106 L 707,108 L 740,115 L 754,118 L 760,120 L 800,129 L 801,129 L 806,130 L 808,131 L 810,131 L 812,132 L 814,132 L 820,133 L 823,134 L 826,133 L 829,133 L 830,132 L 832,131 L 834,133 L 838,138 L 844,143 L 846,145 L 850,149 L 856,154 L 857,155 L 857,156 L 864,161 L 868,163 L 873,164 L 878,169 L 888,177 L 895,183 L 908,198 L 914,205 L 917,209 L 920,212 L 930,226 L 938,243 L 946,267 L 952,282 L 959,297 L 961,303 L 962,306 L 963,307 L 964,309 L 964,311 L 963,311 L 962,312 L 959,313 L 958,314 L 953,317 L 948,319 L 946,320 L 944,321 L 943,322 L 941,323 L 937,324 L 936,325 L 933,327 L 932,327 L 931,328 L 925,330 L 924,331 L 921,333 L 917,335 L 915,337 L 913,338 L 910,339 L 902,343 L 898,346 L 897,346 L 891,349 L 890,350 L 889,350 L 887,351 L 880,355 L 876,357 L 875,358 L 873,358 L 871,359 L 870,360 L 869,360 L 867,361 L 865,362 L 856,367 L 853,368 L 846,373 L 834,379 L 829,381 L 827,382 L 825,383 L 824,384 L 823,384 L 821,385 L 820,386 L 819,387 L 818,387 L 816,388 L 815,389 L 814,389 L 813,390 L 812,390 L 811,391 L 810,391 L 810,392 L 809,392 L 807,393 L 806,394 L 803,395 L 802,396 L 800,397 L 798,398 L 791,396 L 772,392 L 769,391 L 754,387 L 740,384 L 737,383 L 728,381 L 716,378 L 713,377 L 697,373 L 693,372 L 685,370 L 676,368 L 667,366 L 651,362 L 635,358 L 613,353 L 607,352 L 601,350 L 599,349 L 596,349 L 587,346 L 584,346 L 581,345 L 552,338 L 533,333 L 516,329 L 495,324 L 486,322 L 469,317 L 458,315 L 444,311 L 447,294 L 449,285 L 449,284 L 451,275 L 451,270 L 450,266 L 445,260 L 431,238 L 425,229 L 422,229 L 421,228 L 420,227 L 421,225 L 422,212 L 419,204 L 412,198 L 409,191 L 407,185 L 405,178 L 404,177 L 404,173 L 403,170 L 403,169 L 402,165 L 401,163 L 401,160 L 401,157 L 401,150 L 400,139 L 400,133 L 400,128 L 399,123 L 398,121 L 396,118 L 400,118 L 402,119 L 404,119 L 409,121 L 416,125 L 436,135 L 441,137 L 443,136 L 445,136 L 457,132 L 463,130 L 467,128 L 474,126 L 475,126 L 480,124 L 484,123 L 485,123 L 488,122 L 489,121 L 492,120 L 495,119 L 497,118 L 501,117 L 507,116 L 514,113 L 518,112 L 529,109 L 538,106 L 542,104 L 545,103 L 557,99 L 561,98 L 567,95 L 570,94 L 573,92 L 578,90 L 583,88 L 586,87 L 588,87 L 594,86 L 599,86 L 601,86 L 606,88 L 611,89 " class="svg-range1" data-original-title="&lt;b&gt;MERDEKA&lt;/b&gt;&lt;br /&gt;3" title=""/>
</g>
</g>
</g>
<g id="3273170_id2012__3273170004" inkscape:groupmode="layer" inkscape:label="3273170_id2012__3273170004">
<g stroke="rgb(0,0,0)" fill="rgb(154,62,117)" stroke-linejoin="round" stroke-width="0.26">
<g id="3273170_id2012__3273170004_1">
<path d="M 339,27 L 339,28 L 339,31 L 340,77 L 341,97 L 341,116 L 343,118 L 345,118 L 347,118 L 354,118 L 371,118 L 374,118 L 382,118 L 390,118 L 393,118 L 394,118 L 396,118 L 398,121 L 399,123 L 400,128 L 400,133 L 400,139 L 401,150 L 401,157 L 401,160 L 401,163 L 402,165 L 403,169 L 403,170 L 404,173 L 404,177 L 405,178 L 407,185 L 409,191 L 412,198 L 419,204 L 422,212 L 421,225 L 420,227 L 421,228 L 422,229 L 425,229 L 431,238 L 445,260 L 450,266 L 451,270 L 451,275 L 449,284 L 449,285 L 447,294 L 444,311 L 436,310 L 418,307 L 361,300 L 344,297 L 328,296 L 325,295 L 322,295 L 316,294 L 313,294 L 309,293 L 293,291 L 288,291 L 269,288 L 248,285 L 241,285 L 240,285 L 238,284 L 231,283 L 227,283 L 222,282 L 219,281 L 163,274 L 148,272 L 146,272 L 147,271 L 147,269 L 147,265 L 147,263 L 148,254 L 149,235 L 150,222 L 151,218 L 151,216 L 150,215 L 149,214 L 147,213 L 144,213 L 140,212 L 130,211 L 128,211 L 128,210 L 128,192 L 128,188 L 131,165 L 131,163 L 131,154 L 132,148 L 132,145 L 132,141 L 132,140 L 132,138 L 132,136 L 133,132 L 134,123 L 135,121 L 137,114 L 139,111 L 139,109 L 141,105 L 142,101 L 144,94 L 145,87 L 145,85 L 145,82 L 144,50 L 144,45 L 143,36 L 143,35 L 143,33 L 148,33 L 153,33 L 157,33 L 161,33 L 164,33 L 166,33 L 168,33 L 170,33 L 172,33 L 174,33 L 175,33 L 176,33 L 179,33 L 183,33 L 184,34 L 188,34 L 190,34 L 191,34 L 196,34 L 205,35 L 214,38 L 225,42 L 227,43 L 228,44 L 233,46 L 236,48 L 237,49 L 243,52 L 245,47 L 246,40 L 247,33 L 248,28 L 248,26 L 248,24 L 249,17 L 249,12 L 252,13 L 258,14 L 262,15 L 264,15 L 266,16 L 268,16 L 271,17 L 274,18 L 276,18 L 279,19 L 283,20 L 289,21 L 290,21 L 296,22 L 298,22 L 303,23 L 307,23 L 311,24 L 315,25 L 317,25 L 319,25 L 325,26 L 329,27 L 334,27 L 339,27 " class="svg-range2" data-original-title="&lt;b&gt;BABAKAN CIAMIS&lt;/b&gt;&lt;br /&gt;16" title=""/>
</g>
</g>
</g>
</svg></svg>