<svg id="svg-map" width="null" height="null" xmlns="http://www.w3.org/2000/svg" style="animation-delay: 0s; animation-direction: normal; animation-duration: 0s; animation-fill-mode: none; animation-iteration-count: 1; animation-name: none; animation-play-state: running; animation-timing-function: ease; background-attachment: scroll; background-blend-mode: normal; background-clip: border-box; background-color: rgba(0, 0, 0, 0); background-image: none; background-origin: padding-box; background-position: 0% 0%; background-repeat: repeat; background-size: auto; border-bottom-color: rgb(255, 255, 255); border-bottom-left-radius: 0px; border-bottom-right-radius: 0px; border-bottom-style: none; border-bottom-width: 0px; border-collapse: separate; border-image-outset: 0px; border-image-repeat: stretch; border-image-slice: 100%; border-image-source: none; border-image-width: 1; border-left-color: rgb(255, 255, 255); border-left-style: none; border-left-width: 0px; border-right-color: rgb(255, 255, 255); border-right-style: none; border-right-width: 0px; border-top-color: rgb(255, 255, 255); border-top-left-radius: 0px; border-top-right-radius: 0px; border-top-style: none; border-top-width: 0px; bottom: auto; box-shadow: none; box-sizing: border-box; break-after: auto; break-before: auto; break-inside: auto; caption-side: top; clear: none; clip: auto; color: rgb(255, 255, 255); content: ; cursor: auto; direction: ltr; display: inline; empty-cells: show; float: none; font-family: &quot;Open Sans&quot;, sans-serif; font-kerning: auto; font-size: 13px; font-stretch: normal; font-style: normal; font-variant: normal; font-variant-ligatures: normal; font-variant-caps: normal; font-variant-numeric: normal; font-weight: normal; height: 303.953px; image-rendering: auto; isolation: auto; left: auto; letter-spacing: normal; line-height: 18.5714px; list-style-image: none; list-style-position: outside; list-style-type: disc; margin-bottom: 0px; margin-left: 0px; margin-right: 0px; margin-top: 0px; max-height: 400px; max-width: none; min-height: 0px; min-width: 0px; mix-blend-mode: normal; motion-offset: 0px; motion-path: none; motion-rotation: auto 0deg; object-fit: fill; object-position: 50% 50%; opacity: 1; orphans: 2; outline-color: rgb(255, 255, 255); outline-offset: 0px; outline-style: none; outline-width: 0px; overflow-wrap: normal; overflow-x: hidden; overflow-y: hidden; padding-bottom: 0px; padding-left: 0px; padding-right: 0px; padding-top: 0px; pointer-events: auto; position: static; resize: none; right: auto; speak: normal; table-layout: auto; tab-size: 8; text-align: center; text-align-last: auto; text-decoration: none; text-indent: 0px; text-rendering: auto; text-shadow: none; text-size-adjust: 100%; text-overflow: clip; text-transform: none; top: auto; touch-action: auto; transition-delay: 0s; transition-duration: 0s; transition-property: all; transition-timing-function: ease; unicode-bidi: normal; vertical-align: baseline; visibility: visible; white-space: normal; widows: 2; width: 617.5px; will-change: auto; word-break: normal; word-spacing: 0px; word-wrap: normal; z-index: auto; zoom: 1; -webkit-appearance: none; backface-visibility: visible; -webkit-background-clip: border-box; -webkit-background-origin: padding-box; -webkit-border-horizontal-spacing: 0px; -webkit-border-image: none; -webkit-border-vertical-spacing: 0px; -webkit-box-align: stretch; -webkit-box-decoration-break: slice; -webkit-box-direction: normal; -webkit-box-flex: 0; -webkit-box-flex-group: 1; -webkit-box-lines: single; -webkit-box-ordinal-group: 1; -webkit-box-orient: horizontal; -webkit-box-pack: start; -webkit-box-reflect: none; -webkit-clip-path: none; column-count: auto; column-gap: normal; column-rule-color: rgb(255, 255, 255); column-rule-style: none; column-rule-width: 0px; column-span: none; column-width: auto; align-content: stretch; align-items: stretch; align-self: stretch; flex-basis: auto; flex-grow: 0; flex-shrink: 1; flex-direction: row; flex-wrap: nowrap; justify-content: flex-start; -webkit-font-smoothing: auto; -webkit-highlight: none; -webkit-hyphenate-character: auto; -webkit-line-break: auto; -webkit-line-clamp: none; -webkit-locale: &quot;en&quot;; -webkit-margin-before-collapse: collapse; -webkit-margin-after-collapse: collapse; -webkit-mask-box-image: none; -webkit-mask-box-image-outset: 0px; -webkit-mask-box-image-repeat: stretch; -webkit-mask-box-image-slice: 0 fill; -webkit-mask-box-image-source: none; -webkit-mask-box-image-width: auto; -webkit-mask-clip: border-box; -webkit-mask-composite: source-over; -webkit-mask-image: none; -webkit-mask-origin: border-box; -webkit-mask-position: 0% 0%; -webkit-mask-repeat: repeat; -webkit-mask-size: auto; order: 0; perspective: none; perspective-origin: 308.75px 151.969px; -webkit-print-color-adjust: economy; -webkit-rtl-ordering: logical; shape-outside: none; shape-image-threshold: 0; shape-margin: 0px; -webkit-tap-highlight-color: rgba(0, 0, 0, 0); -webkit-text-combine: none; -webkit-text-decorations-in-effect: none; -webkit-text-emphasis-color: rgb(255, 255, 255); -webkit-text-emphasis-position: over; -webkit-text-emphasis-style: none; -webkit-text-fill-color: rgb(255, 255, 255); -webkit-text-orientation: vertical-right; -webkit-text-security: none; -webkit-text-stroke-color: rgb(255, 255, 255); -webkit-text-stroke-width: 0px; transform: none; transform-origin: 308.75px 151.969px; transform-style: flat; -webkit-user-drag: auto; -webkit-user-modify: read-only; user-select: text; -webkit-writing-mode: horizontal-tb; -webkit-app-region: no-drag; buffered-rendering: auto; clip-path: none; clip-rule: nonzero; mask: none; filter: none; flood-color: rgb(0, 0, 0); flood-opacity: 1; lighting-color: rgb(255, 255, 255); stop-color: rgb(0, 0, 0); stop-opacity: 1; color-interpolation: sRGB; color-interpolation-filters: linearRGB; color-rendering: auto; fill: rgb(0, 0, 0); fill-opacity: 1; fill-rule: nonzero; marker-end: none; marker-mid: none; marker-start: none; mask-type: luminance; shape-rendering: auto; stroke: none; stroke-dasharray: none; stroke-dashoffset: 0px; stroke-linecap: butt; stroke-linejoin: miter; stroke-miterlimit: 4; stroke-opacity: 1; stroke-width: 1px; alignment-baseline: auto; baseline-shift: 0px; dominant-baseline: auto; text-anchor: start; writing-mode: horizontal-tb; vector-effect: none; paint-order: fill stroke markers; d: none; cx: 0px; cy: 0px; x: 0px; y: 0px; r: 0px; rx: auto; ry: auto;" version="1.1" xmlns:xlink="http://www.w3.org/1999/xlink">
	<style type="text/css">
		svg:not(:root) {
			overflow: hidden;
		}
		* {
			box-sizing: border-box;
		}
		* {
			font-size: 13px;
		}
		svg {
			max-height: 100vh;
			border: none !important;
		}
		#svg-map svg {
			max-height: 400px;
		}
		#svg-map svg path {
			fill: rgb(153, 196, 176);
			stroke: rgb(51, 51, 51);
			stroke-width: 1;
		}
		#svg-map svg path.svg-range1 {
			fill: rgb(194, 223, 115);
		}
		#svg-map svg path.svg-range4 {
			fill: rgb(189, 143, 83);
		}
		#svg-map svg path.svg-range5 {
			fill: rgb(175, 96, 68);
		}
	</style>
	<svg xmlns="http://www.w3.org/2000/svg" xmlns:inkscape="http://www.inkscape.org/namespaces/inkscape" xmlns:xlink="http://www.w3.org/1999/xlink" viewBox="0 0 1097 540" version="1.1">
		<!-- svg generated using QGIS www.qgis.org -->
		<g id="3273141_id2012__3273141001" inkscape:groupmode="layer" inkscape:label="3273141_id2012__3273141001">
			<g stroke="rgb(0,0,0)" fill="rgb(243,186,157)" stroke-linejoin="round" stroke-width="0.26">
				<g id="3273141_id2012__3273141001_1">
					<path d="M 646,489 L 651,493 L 654,496 L 655,498 L 656,500 L 657,502 L 658,503 L 659,505 L 660,508 L 660,510 L 660,512 L 660,516 L 660,518 L 659,521 L 658,523 L 657,522 L 656,522 L 655,522 L 645,518 L 636,515 L 628,512 L 622,510 L 620,509 L 615,507 L 610,505 L 609,505 L 608,505 L 606,504 L 605,503 L 603,503 L 601,502 L 598,501 L 589,498 L 582,495 L 579,494 L 572,491 L 570,491 L 561,487 L 558,486 L 555,485 L 551,484 L 548,483 L 546,482 L 544,481 L 543,481 L 540,480 L 539,479 L 537,479 L 535,478 L 530,476 L 529,476 L 528,475 L 527,475 L 526,474 L 526,472 L 525,471 L 527,470 L 527,469 L 526,467 L 527,465 L 529,462 L 529,461 L 530,461 L 529,460 L 528,457 L 526,452 L 525,448 L 526,446 L 527,443 L 527,442 L 527,441 L 525,440 L 523,439 L 519,438 L 519,436 L 519,435 L 520,432 L 520,431 L 519,427 L 516,424 L 515,423 L 515,421 L 516,418 L 517,417 L 517,416 L 516,415 L 515,415 L 512,415 L 511,412 L 510,411 L 510,409 L 511,408 L 512,407 L 511,405 L 509,404 L 507,404 L 508,406 L 507,406 L 506,406 L 505,405 L 504,402 L 504,401 L 503,401 L 502,401 L 501,401 L 499,400 L 498,401 L 496,401 L 494,400 L 493,400 L 492,399 L 491,399 L 490,399 L 488,399 L 487,398 L 486,398 L 483,397 L 482,398 L 481,398 L 478,398 L 477,398 L 475,398 L 474,398 L 473,397 L 472,396 L 471,397 L 470,397 L 467,395 L 464,392 L 463,393 L 461,392 L 457,393 L 453,392 L 453,391 L 453,388 L 452,388 L 451,388 L 452,385 L 450,385 L 450,383 L 450,382 L 450,378 L 449,373 L 449,371 L 449,369 L 449,367 L 448,361 L 448,360 L 447,356 L 447,354 L 446,348 L 446,347 L 445,339 L 445,338 L 445,337 L 445,334 L 445,332 L 444,329 L 444,323 L 444,320 L 444,319 L 443,315 L 443,314 L 457,314 L 456,312 L 453,310 L 448,309 L 445,309 L 442,309 L 440,309 L 438,309 L 438,308 L 434,306 L 432,305 L 433,300 L 432,298 L 430,296 L 428,294 L 427,294 L 425,294 L 424,293 L 419,291 L 417,285 L 416,285 L 416,283 L 415,282 L 414,281 L 413,280 L 412,279 L 409,278 L 408,275 L 407,274 L 407,272 L 405,267 L 405,266 L 405,265 L 407,263 L 404,261 L 404,258 L 406,254 L 405,252 L 405,250 L 405,249 L 406,235 L 406,234 L 407,225 L 406,222 L 406,220 L 406,218 L 405,216 L 404,214 L 404,213 L 404,211 L 405,210 L 407,210 L 417,220 L 421,224 L 426,229 L 431,234 L 432,235 L 433,235 L 436,237 L 438,238 L 440,239 L 444,241 L 449,245 L 460,251 L 461,252 L 469,256 L 472,257 L 473,257 L 475,257 L 476,257 L 484,258 L 493,258 L 495,258 L 497,258 L 507,259 L 511,259 L 517,259 L 520,259 L 522,259 L 524,259 L 525,259 L 529,260 L 533,260 L 535,260 L 537,260 L 538,260 L 542,260 L 544,260 L 545,260 L 551,260 L 555,261 L 556,261 L 560,261 L 574,251 L 576,253 L 578,256 L 581,260 L 584,265 L 586,268 L 587,269 L 588,269 L 588,270 L 589,270 L 590,272 L 590,273 L 591,273 L 592,274 L 593,276 L 593,278 L 593,279 L 593,281 L 593,282 L 593,283 L 593,284 L 593,285 L 593,286 L 593,288 L 592,290 L 592,291 L 592,293 L 592,294 L 592,299 L 592,301 L 592,303 L 592,304 L 594,304 L 595,305 L 598,305 L 598,313 L 597,314 L 597,322 L 598,323 L 602,330 L 604,333 L 605,335 L 606,336 L 606,337 L 610,342 L 613,348 L 613,351 L 614,357 L 614,358 L 616,361 L 617,362 L 618,364 L 620,367 L 623,374 L 625,379 L 627,384 L 629,390 L 632,397 L 633,399 L 634,400 L 635,402 L 633,407 L 630,414 L 629,416 L 628,417 L 626,421 L 625,423 L 624,427 L 624,432 L 625,436 L 625,440 L 625,444 L 625,446 L 625,447 L 625,452 L 626,465 L 626,471 L 626,474 L 625,478 L 627,479 L 629,480 L 634,483 L 636,484 L 644,488 L 646,489 " class="svg-range1" data-original-title="&lt;b&gt;ANTAPANI KIDUL&lt;/b&gt;&lt;br /&gt;19" title="" />
				</g>
			</g>
		</g>
		<g id="3273141_id2012__3273141002" inkscape:groupmode="layer" inkscape:label="3273141_id2012__3273141002">
			<g stroke="rgb(0,0,0)" fill="rgb(165,93,80)" stroke-linejoin="round" stroke-width="0.26">
				<g id="3273141_id2012__3273141002_1">
					<path d="M 559,199 L 560,199 L 562,199 L 564,200 L 566,200 L 570,201 L 577,203 L 578,203 L 579,203 L 586,205 L 591,206 L 593,207 L 597,208 L 608,210 L 612,211 L 613,211 L 614,211 L 615,212 L 629,215 L 630,215 L 637,216 L 642,217 L 644,218 L 654,220 L 657,220 L 660,221 L 663,221 L 665,222 L 666,222 L 668,223 L 668,226 L 668,229 L 667,231 L 666,232 L 666,233 L 665,235 L 666,237 L 668,240 L 670,241 L 668,245 L 668,246 L 668,247 L 667,250 L 666,254 L 668,255 L 668,258 L 670,259 L 670,262 L 669,264 L 665,264 L 664,264 L 660,263 L 650,262 L 650,264 L 649,267 L 648,268 L 648,269 L 648,270 L 651,274 L 651,275 L 652,276 L 653,279 L 654,280 L 654,281 L 654,282 L 655,283 L 655,284 L 656,285 L 656,287 L 657,287 L 657,289 L 658,291 L 658,292 L 659,293 L 658,295 L 657,296 L 657,298 L 657,300 L 657,301 L 657,302 L 656,304 L 656,306 L 655,307 L 655,309 L 655,310 L 656,311 L 658,312 L 659,313 L 661,315 L 663,317 L 664,319 L 665,320 L 667,322 L 669,324 L 670,325 L 671,326 L 672,326 L 675,328 L 676,329 L 677,331 L 679,332 L 680,333 L 681,335 L 683,337 L 684,339 L 685,340 L 686,341 L 687,343 L 688,344 L 689,346 L 691,348 L 693,351 L 693,352 L 694,353 L 695,355 L 695,356 L 691,358 L 687,360 L 686,361 L 686,362 L 683,364 L 682,364 L 678,368 L 677,370 L 676,371 L 676,373 L 676,375 L 675,378 L 673,383 L 672,387 L 665,390 L 664,394 L 668,395 L 668,397 L 668,399 L 669,401 L 669,403 L 674,403 L 674,406 L 680,407 L 683,408 L 685,409 L 686,410 L 685,411 L 679,417 L 679,419 L 679,420 L 680,421 L 680,424 L 680,426 L 680,428 L 679,432 L 678,434 L 678,438 L 678,441 L 679,445 L 679,453 L 680,455 L 682,460 L 682,462 L 683,464 L 683,465 L 684,466 L 684,467 L 684,468 L 678,468 L 678,469 L 678,471 L 678,473 L 678,475 L 678,476 L 678,477 L 678,479 L 678,480 L 677,481 L 677,482 L 675,483 L 673,482 L 670,482 L 666,482 L 664,482 L 659,482 L 652,482 L 651,482 L 650,482 L 649,483 L 649,484 L 648,486 L 646,489 L 644,488 L 636,484 L 634,483 L 629,480 L 627,479 L 625,478 L 626,474 L 626,471 L 626,465 L 625,452 L 625,447 L 625,446 L 625,444 L 625,440 L 625,436 L 624,432 L 624,427 L 625,423 L 626,421 L 628,417 L 629,416 L 630,414 L 633,407 L 635,402 L 634,400 L 633,399 L 632,397 L 629,390 L 627,384 L 625,379 L 623,374 L 620,367 L 618,364 L 617,362 L 616,361 L 614,358 L 614,357 L 613,351 L 613,348 L 610,342 L 606,337 L 606,336 L 605,335 L 604,333 L 602,330 L 598,323 L 597,322 L 597,314 L 598,313 L 598,305 L 595,305 L 594,304 L 592,304 L 592,303 L 592,301 L 592,299 L 592,294 L 592,293 L 592,291 L 592,290 L 593,288 L 593,286 L 593,285 L 593,284 L 593,283 L 593,282 L 593,281 L 593,279 L 593,278 L 593,276 L 592,274 L 591,273 L 590,273 L 590,272 L 589,270 L 588,270 L 588,269 L 587,269 L 586,268 L 584,265 L 581,260 L 578,256 L 576,253 L 574,251 L 560,261 L 556,261 L 555,261 L 551,260 L 545,260 L 544,260 L 542,260 L 538,260 L 537,260 L 535,260 L 533,260 L 529,260 L 525,259 L 524,259 L 522,259 L 520,259 L 517,259 L 511,259 L 507,259 L 497,258 L 495,258 L 493,258 L 484,258 L 476,257 L 475,257 L 473,257 L 472,257 L 469,256 L 461,252 L 460,251 L 449,245 L 444,241 L 440,239 L 438,238 L 436,237 L 433,235 L 432,235 L 431,234 L 426,229 L 421,224 L 417,220 L 407,210 L 405,210 L 405,208 L 405,206 L 403,204 L 402,202 L 400,198 L 400,194 L 398,190 L 396,189 L 398,185 L 398,184 L 398,176 L 402,176 L 405,176 L 415,175 L 422,174 L 423,174 L 425,173 L 426,173 L 428,173 L 430,173 L 433,173 L 434,173 L 435,173 L 436,173 L 451,174 L 452,174 L 454,174 L 465,174 L 472,175 L 476,175 L 478,175 L 480,175 L 481,175 L 483,176 L 488,177 L 492,178 L 498,181 L 499,181 L 502,183 L 505,184 L 508,185 L 509,186 L 515,188 L 521,190 L 522,191 L 530,193 L 533,193 L 543,195 L 545,196 L 546,196 L 549,197 L 551,197 L 554,197 L 557,198 L 559,199 " class="svg-range4" data-original-title="&lt;b&gt;ANTAPANI TENGAH&lt;/b&gt;&lt;br /&gt;146" title="" />
				</g>
			</g>
		</g>
		<g id="3273141_id2012__3273141003" inkscape:groupmode="layer" inkscape:label="3273141_id2012__3273141003">
			<g stroke="rgb(0,0,0)" fill="rgb(133,91,87)" stroke-linejoin="round" stroke-width="0.26">
				<g id="3273141_id2012__3273141003_1">
					<path d="M 634,25 L 635,25 L 636,25 L 638,25 L 639,26 L 643,26 L 644,26 L 647,27 L 648,27 L 650,27 L 653,27 L 655,28 L 656,28 L 658,28 L 659,28 L 660,28 L 660,30 L 661,34 L 662,38 L 663,41 L 663,45 L 664,48 L 665,49 L 667,52 L 667,54 L 664,56 L 662,59 L 662,62 L 661,64 L 662,65 L 664,65 L 665,67 L 666,68 L 665,70 L 665,72 L 665,74 L 666,74 L 667,74 L 669,74 L 670,75 L 671,75 L 671,76 L 671,79 L 672,82 L 673,84 L 673,88 L 673,89 L 673,90 L 675,91 L 680,92 L 681,93 L 683,94 L 684,93 L 685,94 L 684,95 L 685,96 L 685,97 L 684,98 L 685,100 L 687,103 L 688,103 L 688,105 L 688,107 L 690,108 L 690,109 L 692,111 L 692,113 L 693,113 L 693,115 L 692,118 L 693,120 L 696,123 L 696,126 L 697,128 L 697,130 L 696,130 L 696,131 L 697,131 L 696,132 L 697,133 L 697,134 L 697,135 L 696,136 L 695,137 L 695,138 L 695,140 L 694,142 L 693,143 L 691,145 L 688,144 L 685,146 L 684,147 L 682,149 L 680,150 L 678,151 L 677,153 L 677,154 L 677,155 L 673,158 L 671,160 L 671,161 L 671,162 L 672,163 L 672,164 L 672,165 L 672,166 L 673,167 L 674,167 L 676,171 L 676,172 L 678,176 L 678,177 L 679,178 L 680,179 L 680,180 L 681,182 L 681,183 L 682,184 L 684,188 L 685,190 L 684,191 L 683,193 L 682,196 L 682,197 L 683,197 L 685,197 L 684,198 L 683,199 L 682,201 L 681,203 L 680,206 L 679,208 L 677,208 L 674,207 L 673,208 L 672,210 L 672,212 L 671,214 L 669,217 L 676,218 L 675,222 L 675,226 L 675,229 L 676,232 L 673,228 L 668,223 L 666,222 L 665,222 L 663,221 L 660,221 L 657,220 L 654,220 L 644,218 L 642,217 L 637,216 L 630,215 L 629,215 L 615,212 L 614,211 L 613,211 L 612,211 L 608,210 L 597,208 L 593,207 L 591,206 L 586,205 L 579,203 L 578,203 L 577,203 L 570,201 L 566,200 L 564,200 L 562,199 L 560,199 L 559,199 L 560,194 L 560,192 L 559,190 L 557,187 L 554,185 L 547,184 L 543,183 L 541,183 L 540,182 L 539,181 L 539,178 L 539,177 L 539,173 L 540,168 L 540,167 L 539,163 L 537,160 L 537,157 L 537,152 L 537,149 L 537,146 L 536,137 L 536,133 L 535,124 L 535,119 L 535,118 L 536,114 L 534,111 L 533,110 L 533,109 L 533,107 L 533,105 L 532,104 L 518,96 L 517,94 L 517,92 L 516,89 L 516,85 L 516,80 L 517,75 L 518,73 L 518,70 L 518,62 L 518,61 L 518,59 L 519,58 L 519,56 L 527,56 L 531,56 L 535,57 L 536,57 L 539,58 L 546,58 L 546,52 L 549,52 L 550,43 L 554,43 L 556,32 L 551,32 L 550,26 L 550,23 L 549,19 L 559,21 L 560,12 L 566,17 L 579,20 L 581,20 L 582,20 L 584,20 L 592,21 L 593,21 L 603,22 L 607,22 L 614,23 L 622,24 L 624,24 L 625,24 L 626,24 L 632,25 L 634,25 " class="svg-range4" data-original-title="&lt;b&gt;ANTAPANI WETAN&lt;/b&gt;&lt;br /&gt;147" title="" />
				</g>
			</g>
		</g>
		<g id="3273141_id2012__3273141004" inkscape:groupmode="layer" inkscape:label="3273141_id2012__3273141004">
			<g stroke="rgb(0,0,0)" fill="rgb(191,163,6)" stroke-linejoin="round" stroke-width="0.26">
				<g id="3273141_id2012__3273141004_1">
					<path d="M 518,62 L 518,70 L 518,73 L 517,75 L 516,80 L 516,85 L 516,89 L 517,92 L 517,94 L 518,96 L 532,104 L 533,105 L 533,107 L 533,109 L 533,110 L 534,111 L 536,114 L 535,118 L 535,119 L 535,124 L 536,133 L 536,137 L 537,146 L 537,149 L 537,152 L 537,157 L 537,160 L 539,163 L 540,167 L 540,168 L 539,173 L 539,177 L 539,178 L 539,181 L 540,182 L 541,183 L 543,183 L 547,184 L 554,185 L 557,187 L 559,190 L 560,192 L 560,194 L 559,199 L 557,198 L 554,197 L 551,197 L 549,197 L 546,196 L 545,196 L 543,195 L 533,193 L 530,193 L 522,191 L 521,190 L 515,188 L 509,186 L 508,185 L 505,184 L 502,183 L 499,181 L 498,181 L 492,178 L 488,177 L 483,176 L 481,175 L 480,175 L 478,175 L 476,175 L 472,175 L 465,174 L 454,174 L 452,174 L 451,174 L 436,173 L 435,173 L 434,173 L 433,173 L 430,173 L 428,173 L 426,173 L 425,173 L 423,174 L 422,174 L 415,175 L 405,176 L 402,176 L 398,176 L 399,171 L 401,167 L 402,166 L 402,165 L 403,164 L 403,163 L 403,162 L 404,161 L 405,159 L 405,154 L 406,150 L 407,149 L 407,148 L 409,147 L 410,147 L 412,147 L 413,147 L 414,147 L 415,146 L 415,145 L 416,144 L 416,141 L 414,138 L 415,137 L 414,136 L 413,132 L 410,130 L 406,127 L 404,125 L 401,123 L 400,121 L 399,120 L 399,119 L 400,119 L 400,118 L 401,117 L 401,114 L 401,113 L 401,110 L 401,107 L 401,106 L 400,105 L 400,104 L 398,101 L 396,99 L 396,96 L 395,91 L 396,91 L 397,91 L 402,93 L 403,93 L 404,93 L 405,94 L 406,94 L 409,94 L 410,94 L 412,94 L 415,93 L 414,85 L 413,81 L 413,77 L 412,73 L 410,60 L 412,60 L 413,61 L 415,60 L 416,61 L 417,61 L 418,62 L 420,64 L 422,66 L 423,66 L 425,67 L 429,70 L 430,71 L 432,71 L 434,73 L 434,74 L 434,75 L 435,76 L 436,76 L 436,77 L 437,77 L 438,77 L 439,77 L 440,77 L 442,78 L 444,79 L 445,80 L 447,81 L 448,81 L 449,82 L 451,84 L 453,85 L 454,85 L 455,86 L 456,87 L 459,86 L 460,88 L 459,89 L 459,91 L 460,93 L 461,98 L 463,100 L 464,101 L 464,102 L 466,102 L 468,103 L 473,106 L 477,111 L 478,112 L 480,112 L 481,113 L 482,112 L 482,111 L 483,108 L 483,107 L 482,105 L 481,102 L 480,98 L 479,97 L 479,96 L 484,96 L 485,95 L 488,95 L 486,90 L 486,86 L 488,82 L 489,79 L 489,77 L 491,74 L 491,72 L 492,70 L 491,67 L 490,65 L 490,62 L 494,62 L 495,62 L 498,62 L 499,61 L 500,60 L 502,60 L 504,60 L 505,60 L 505,61 L 506,62 L 507,62 L 508,61 L 509,61 L 510,61 L 514,62 L 516,62 L 518,62 " class="svg-range5" data-original-title="&lt;b&gt;ANTAPANI KULON&lt;/b&gt;&lt;br /&gt;188" title="" />
				</g>
			</g>
		</g>
	</svg>
</svg>