<svg id="svg-map" width="null" height="null" xmlns="http://www.w3.org/2000/svg" style="animation-delay: 0s; animation-direction: normal; animation-duration: 0s; animation-fill-mode: none; animation-iteration-count: 1; animation-name: none; animation-play-state: running; animation-timing-function: ease; background-attachment: scroll; background-blend-mode: normal; background-clip: border-box; background-color: rgba(0, 0, 0, 0); background-image: none; background-origin: padding-box; background-position: 0% 0%; background-repeat: repeat; background-size: auto; border-bottom-color: rgb(255, 255, 255); border-bottom-left-radius: 0px; border-bottom-right-radius: 0px; border-bottom-style: none; border-bottom-width: 0px; border-collapse: separate; border-image-outset: 0px; border-image-repeat: stretch; border-image-slice: 100%; border-image-source: none; border-image-width: 1; border-left-color: rgb(255, 255, 255); border-left-style: none; border-left-width: 0px; border-right-color: rgb(255, 255, 255); border-right-style: none; border-right-width: 0px; border-top-color: rgb(255, 255, 255); border-top-left-radius: 0px; border-top-right-radius: 0px; border-top-style: none; border-top-width: 0px; bottom: auto; box-shadow: none; box-sizing: border-box; break-after: auto; break-before: auto; break-inside: auto; caption-side: top; clear: none; clip: auto; color: rgb(255, 255, 255); content: ; cursor: auto; direction: ltr; display: inline; empty-cells: show; float: none; font-family: &quot;Open Sans&quot;, sans-serif; font-kerning: auto; font-size: 13px; font-stretch: normal; font-style: normal; font-variant: normal; font-variant-ligatures: normal; font-variant-caps: normal; font-variant-numeric: normal; font-weight: normal; height: 303.953px; image-rendering: auto; isolation: auto; left: auto; letter-spacing: normal; line-height: 18.5714px; list-style-image: none; list-style-position: outside; list-style-type: disc; margin-bottom: 0px; margin-left: 0px; margin-right: 0px; margin-top: 0px; max-height: 400px; max-width: none; min-height: 0px; min-width: 0px; mix-blend-mode: normal; motion-offset: 0px; motion-path: none; motion-rotation: auto 0deg; object-fit: fill; object-position: 50% 50%; opacity: 1; orphans: 2; outline-color: rgb(255, 255, 255); outline-offset: 0px; outline-style: none; outline-width: 0px; overflow-wrap: normal; overflow-x: hidden; overflow-y: hidden; padding-bottom: 0px; padding-left: 0px; padding-right: 0px; padding-top: 0px; pointer-events: auto; position: static; resize: none; right: auto; speak: normal; table-layout: auto; tab-size: 8; text-align: center; text-align-last: auto; text-decoration: none; text-indent: 0px; text-rendering: auto; text-shadow: none; text-size-adjust: 100%; text-overflow: clip; text-transform: none; top: auto; touch-action: auto; transition-delay: 0s; transition-duration: 0s; transition-property: all; transition-timing-function: ease; unicode-bidi: normal; vertical-align: baseline; visibility: visible; white-space: normal; widows: 2; width: 617.5px; will-change: auto; word-break: normal; word-spacing: 0px; word-wrap: normal; z-index: auto; zoom: 1; -webkit-appearance: none; backface-visibility: visible; -webkit-background-clip: border-box; -webkit-background-origin: padding-box; -webkit-border-horizontal-spacing: 0px; -webkit-border-image: none; -webkit-border-vertical-spacing: 0px; -webkit-box-align: stretch; -webkit-box-decoration-break: slice; -webkit-box-direction: normal; -webkit-box-flex: 0; -webkit-box-flex-group: 1; -webkit-box-lines: single; -webkit-box-ordinal-group: 1; -webkit-box-orient: horizontal; -webkit-box-pack: start; -webkit-box-reflect: none; -webkit-clip-path: none; column-count: auto; column-gap: normal; column-rule-color: rgb(255, 255, 255); column-rule-style: none; column-rule-width: 0px; column-span: none; column-width: auto; align-content: stretch; align-items: stretch; align-self: stretch; flex-basis: auto; flex-grow: 0; flex-shrink: 1; flex-direction: row; flex-wrap: nowrap; justify-content: flex-start; -webkit-font-smoothing: auto; -webkit-highlight: none; -webkit-hyphenate-character: auto; -webkit-line-break: auto; -webkit-line-clamp: none; -webkit-locale: &quot;en&quot;; -webkit-margin-before-collapse: collapse; -webkit-margin-after-collapse: collapse; -webkit-mask-box-image: none; -webkit-mask-box-image-outset: 0px; -webkit-mask-box-image-repeat: stretch; -webkit-mask-box-image-slice: 0 fill; -webkit-mask-box-image-source: none; -webkit-mask-box-image-width: auto; -webkit-mask-clip: border-box; -webkit-mask-composite: source-over; -webkit-mask-image: none; -webkit-mask-origin: border-box; -webkit-mask-position: 0% 0%; -webkit-mask-repeat: repeat; -webkit-mask-size: auto; order: 0; perspective: none; perspective-origin: 308.75px 151.969px; -webkit-print-color-adjust: economy; -webkit-rtl-ordering: logical; shape-outside: none; shape-image-threshold: 0; shape-margin: 0px; -webkit-tap-highlight-color: rgba(0, 0, 0, 0); -webkit-text-combine: none; -webkit-text-decorations-in-effect: none; -webkit-text-emphasis-color: rgb(255, 255, 255); -webkit-text-emphasis-position: over; -webkit-text-emphasis-style: none; -webkit-text-fill-color: rgb(255, 255, 255); -webkit-text-orientation: vertical-right; -webkit-text-security: none; -webkit-text-stroke-color: rgb(255, 255, 255); -webkit-text-stroke-width: 0px; transform: none; transform-origin: 308.75px 151.969px; transform-style: flat; -webkit-user-drag: auto; -webkit-user-modify: read-only; user-select: text; -webkit-writing-mode: horizontal-tb; -webkit-app-region: no-drag; buffered-rendering: auto; clip-path: none; clip-rule: nonzero; mask: none; filter: none; flood-color: rgb(0, 0, 0); flood-opacity: 1; lighting-color: rgb(255, 255, 255); stop-color: rgb(0, 0, 0); stop-opacity: 1; color-interpolation: sRGB; color-interpolation-filters: linearRGB; color-rendering: auto; fill: rgb(0, 0, 0); fill-opacity: 1; fill-rule: nonzero; marker-end: none; marker-mid: none; marker-start: none; mask-type: luminance; shape-rendering: auto; stroke: none; stroke-dasharray: none; stroke-dashoffset: 0px; stroke-linecap: butt; stroke-linejoin: miter; stroke-miterlimit: 4; stroke-opacity: 1; stroke-width: 1px; alignment-baseline: auto; baseline-shift: 0px; dominant-baseline: auto; text-anchor: start; writing-mode: horizontal-tb; vector-effect: none; paint-order: fill stroke markers; d: none; cx: 0px; cy: 0px; x: 0px; y: 0px; r: 0px; rx: auto; ry: auto;" version="1.1" xmlns:xlink="http://www.w3.org/1999/xlink"><style type="text/css">svg:not(:root) { overflow: hidden; }
* { box-sizing: border-box; }
* { font-size: 13px; }
svg { max-height: 100vh; border: none !important; }
#svg-map svg { max-height: 400px; }
#svg-map svg path { fill: rgb(153, 196, 176); stroke: rgb(51, 51, 51); stroke-width: 1; }
#svg-map svg path.svg-range1 { fill: rgb(194, 223, 115); }
#svg-map svg path.svg-range3 { fill: rgb(189, 170, 83); }
#svg-map svg path.svg-range5 { fill: rgb(175, 96, 68); }</style><svg xmlns="http://www.w3.org/2000/svg" xmlns:inkscape="http://www.inkscape.org/namespaces/inkscape" xmlns:xlink="http://www.w3.org/1999/xlink" viewBox="0 0 1097 540" version="1.1">
<!-- svg generated using QGIS www.qgis.org -->
<g id="3273111_id2012__3273111003" inkscape:groupmode="layer" inkscape:label="3273111_id2012__3273111003">
<g stroke="rgb(0,0,0)" fill="rgb(182,115,78)" stroke-linejoin="round" stroke-width="0.26">
<g id="3273111_id2012__3273111003_1">
<path d="M 601,189 L 602,192 L 603,194 L 603,195 L 604,197 L 605,199 L 606,202 L 607,203 L 607,204 L 609,207 L 611,214 L 612,215 L 613,216 L 614,217 L 614,219 L 614,220 L 615,222 L 616,224 L 619,229 L 619,231 L 620,234 L 621,235 L 622,237 L 623,238 L 623,239 L 624,240 L 624,242 L 625,242 L 625,243 L 627,247 L 629,249 L 630,250 L 630,251 L 631,251 L 632,252 L 635,253 L 636,254 L 640,256 L 641,256 L 645,257 L 647,258 L 648,258 L 650,259 L 654,259 L 654,260 L 658,261 L 660,261 L 669,265 L 673,267 L 673,268 L 676,271 L 677,275 L 679,278 L 679,280 L 680,282 L 681,283 L 681,284 L 682,288 L 683,289 L 684,291 L 685,292 L 686,294 L 689,296 L 693,298 L 695,299 L 696,299 L 697,300 L 698,300 L 699,301 L 702,302 L 705,303 L 708,304 L 709,305 L 711,305 L 714,306 L 716,306 L 719,306 L 721,306 L 720,308 L 715,309 L 712,310 L 703,311 L 700,311 L 697,311 L 693,311 L 692,311 L 690,312 L 688,312 L 685,312 L 681,312 L 676,312 L 662,313 L 659,313 L 655,313 L 652,313 L 649,313 L 645,314 L 644,314 L 634,315 L 629,315 L 625,315 L 622,316 L 614,316 L 607,317 L 601,317 L 600,317 L 599,317 L 598,317 L 593,318 L 576,319 L 571,319 L 566,320 L 546,321 L 536,322 L 535,322 L 534,318 L 533,315 L 529,298 L 529,295 L 534,279 L 533,278 L 532,276 L 529,273 L 521,260 L 521,259 L 523,255 L 524,252 L 524,251 L 524,250 L 523,250 L 515,247 L 515,246 L 514,246 L 512,244 L 510,239 L 507,229 L 506,222 L 505,216 L 505,208 L 505,204 L 506,200 L 507,198 L 507,197 L 509,189 L 510,187 L 510,186 L 511,185 L 513,181 L 516,176 L 517,177 L 519,178 L 521,179 L 522,179 L 524,180 L 527,182 L 530,183 L 532,184 L 533,184 L 536,185 L 539,187 L 541,188 L 544,189 L 546,189 L 547,189 L 548,188 L 547,182 L 549,178 L 550,177 L 551,175 L 555,176 L 557,176 L 566,177 L 572,179 L 576,180 L 579,182 L 593,186 L 601,189 " class="svg-range3" data-original-title="&lt;b&gt;CIPADUNG WETAN&lt;/b&gt;&lt;br /&gt;59" title=""/>
</g>
</g>
</g>
<g id="3273111_id2012__3273111004" inkscape:groupmode="layer" inkscape:label="3273111_id2012__3273111004">
<g stroke="rgb(0,0,0)" fill="rgb(33,130,220)" stroke-linejoin="round" stroke-width="0.26">
<g id="3273111_id2012__3273111004_1">
<path d="M 498,13 L 501,15 L 501,16 L 503,18 L 504,19 L 505,20 L 508,22 L 509,23 L 510,24 L 511,25 L 512,26 L 513,27 L 514,28 L 515,29 L 517,31 L 518,32 L 519,33 L 520,34 L 521,35 L 522,36 L 525,39 L 526,40 L 527,40 L 529,43 L 530,44 L 533,46 L 534,47 L 535,48 L 536,49 L 537,50 L 537,51 L 538,51 L 539,52 L 539,53 L 540,53 L 543,55 L 544,56 L 545,57 L 546,58 L 548,59 L 550,61 L 552,62 L 552,63 L 553,63 L 554,64 L 555,64 L 556,66 L 557,67 L 559,70 L 560,71 L 560,72 L 562,73 L 563,75 L 564,76 L 565,79 L 567,82 L 569,86 L 570,87 L 572,90 L 573,91 L 576,95 L 579,99 L 581,102 L 581,103 L 582,107 L 582,108 L 583,109 L 584,114 L 584,117 L 586,122 L 586,124 L 586,125 L 587,126 L 587,127 L 588,129 L 590,140 L 591,143 L 591,144 L 591,146 L 592,148 L 592,149 L 593,151 L 593,154 L 594,155 L 594,157 L 595,159 L 596,163 L 596,164 L 596,167 L 597,168 L 597,170 L 598,173 L 599,177 L 601,186 L 601,187 L 601,189 L 593,186 L 579,182 L 576,180 L 572,179 L 566,177 L 557,176 L 555,176 L 551,175 L 550,177 L 549,178 L 547,182 L 548,188 L 547,189 L 546,189 L 544,189 L 541,188 L 539,187 L 536,185 L 533,184 L 532,184 L 530,183 L 527,182 L 524,180 L 522,179 L 521,179 L 519,178 L 517,177 L 516,176 L 508,173 L 507,173 L 506,172 L 505,171 L 503,169 L 501,167 L 500,166 L 499,165 L 498,165 L 495,162 L 493,160 L 490,158 L 490,157 L 489,156 L 488,156 L 487,155 L 485,155 L 480,153 L 476,151 L 472,150 L 463,146 L 460,145 L 456,144 L 453,142 L 450,141 L 449,141 L 448,140 L 445,140 L 443,139 L 442,139 L 436,139 L 433,139 L 430,139 L 427,139 L 410,140 L 406,141 L 402,141 L 397,141 L 397,140 L 398,138 L 399,136 L 400,136 L 401,136 L 401,135 L 402,135 L 403,134 L 403,132 L 405,130 L 405,129 L 406,128 L 407,127 L 407,126 L 407,124 L 408,124 L 409,124 L 409,123 L 409,122 L 409,121 L 411,119 L 411,118 L 411,117 L 409,114 L 409,112 L 408,111 L 408,109 L 409,109 L 409,108 L 409,106 L 410,106 L 411,106 L 413,107 L 414,104 L 415,102 L 416,98 L 414,96 L 413,95 L 411,94 L 410,94 L 408,93 L 407,92 L 406,91 L 406,90 L 407,90 L 408,87 L 408,84 L 409,82 L 410,81 L 410,79 L 410,78 L 411,77 L 411,75 L 412,75 L 415,74 L 416,74 L 417,73 L 418,72 L 419,71 L 420,70 L 422,69 L 422,70 L 423,71 L 425,72 L 426,71 L 427,70 L 426,69 L 426,68 L 428,67 L 429,66 L 430,66 L 431,66 L 434,66 L 435,63 L 436,61 L 437,60 L 438,58 L 439,56 L 441,54 L 440,53 L 440,52 L 440,50 L 440,49 L 441,48 L 443,47 L 444,45 L 445,45 L 446,44 L 446,43 L 447,42 L 447,41 L 448,40 L 449,40 L 449,39 L 450,39 L 451,40 L 452,39 L 453,38 L 454,37 L 455,37 L 457,36 L 457,35 L 459,34 L 460,34 L 461,34 L 462,33 L 463,33 L 464,32 L 466,33 L 468,32 L 471,31 L 472,31 L 474,30 L 476,31 L 477,32 L 478,32 L 479,31 L 480,30 L 481,28 L 482,28 L 483,28 L 487,25 L 488,23 L 490,23 L 490,21 L 492,20 L 493,20 L 494,20 L 495,20 L 495,19 L 495,18 L 494,16 L 495,14 L 497,12 L 498,13 " class="svg-range5" data-original-title="&lt;b&gt;CIPADUNG KULON&lt;/b&gt;&lt;br /&gt;93" title=""/>
</g>
</g>
</g>
<g id="3273111_id2012__3273111001" inkscape:groupmode="layer" inkscape:label="3273111_id2012__3273111001">
<g stroke="rgb(0,0,0)" fill="rgb(52,170,141)" stroke-linejoin="round" stroke-width="0.26">
<g id="3273111_id2012__3273111001_1">
<path d="M 516,176 L 513,181 L 511,185 L 510,186 L 510,187 L 509,189 L 507,197 L 507,198 L 506,200 L 505,204 L 505,208 L 505,216 L 506,222 L 507,229 L 510,239 L 512,244 L 514,246 L 515,246 L 515,247 L 523,250 L 524,250 L 524,251 L 524,252 L 523,255 L 521,259 L 521,260 L 529,273 L 532,276 L 533,278 L 534,279 L 529,295 L 529,298 L 533,315 L 534,318 L 535,322 L 534,322 L 533,322 L 532,322 L 526,323 L 510,324 L 509,324 L 497,325 L 483,326 L 482,326 L 479,326 L 467,328 L 461,328 L 451,328 L 445,329 L 420,331 L 413,331 L 404,332 L 394,333 L 392,333 L 376,334 L 375,335 L 373,335 L 372,335 L 371,335 L 370,335 L 366,335 L 361,336 L 361,335 L 360,333 L 359,332 L 358,330 L 354,322 L 351,321 L 348,320 L 345,321 L 343,321 L 342,320 L 342,319 L 341,317 L 341,315 L 341,313 L 342,311 L 342,310 L 342,308 L 342,306 L 341,303 L 341,301 L 341,300 L 343,298 L 344,298 L 344,297 L 343,297 L 341,297 L 340,298 L 339,297 L 338,297 L 338,296 L 338,295 L 338,294 L 339,294 L 340,292 L 340,291 L 340,290 L 339,288 L 338,287 L 337,286 L 336,285 L 334,284 L 334,283 L 335,282 L 335,281 L 336,280 L 336,279 L 335,278 L 334,277 L 333,277 L 332,278 L 331,277 L 330,277 L 330,276 L 330,268 L 331,266 L 332,263 L 333,260 L 334,258 L 334,256 L 336,250 L 336,249 L 337,246 L 339,240 L 340,237 L 341,236 L 341,235 L 341,234 L 342,233 L 342,231 L 343,230 L 344,229 L 345,225 L 346,224 L 346,222 L 348,221 L 350,219 L 352,216 L 353,214 L 355,213 L 358,212 L 358,211 L 360,211 L 364,211 L 365,212 L 366,212 L 370,213 L 373,213 L 377,212 L 378,212 L 379,211 L 379,210 L 381,206 L 382,203 L 386,195 L 386,194 L 387,193 L 387,189 L 388,188 L 388,187 L 388,186 L 391,181 L 390,180 L 388,180 L 388,179 L 388,178 L 388,177 L 389,176 L 390,173 L 392,168 L 393,167 L 394,167 L 395,166 L 396,166 L 397,167 L 398,167 L 399,167 L 401,166 L 402,165 L 404,164 L 405,163 L 405,162 L 404,162 L 403,161 L 401,160 L 400,160 L 400,159 L 401,156 L 402,155 L 403,152 L 403,151 L 403,150 L 402,149 L 400,149 L 400,148 L 399,148 L 398,147 L 398,145 L 398,142 L 397,141 L 402,141 L 406,141 L 410,140 L 427,139 L 430,139 L 433,139 L 436,139 L 442,139 L 443,139 L 445,140 L 448,140 L 449,141 L 450,141 L 453,142 L 456,144 L 460,145 L 463,146 L 472,150 L 476,151 L 480,153 L 485,155 L 487,155 L 488,156 L 489,156 L 490,157 L 490,158 L 493,160 L 495,162 L 498,165 L 499,165 L 500,166 L 501,167 L 503,169 L 505,171 L 506,172 L 507,173 L 508,173 L 516,176 " class="svg-range1" data-original-title="&lt;b&gt;MEKAR MULYA&lt;/b&gt;&lt;br /&gt;16" title=""/>
</g>
</g>
</g>
<g id="3273111_id2012__3273111002" inkscape:groupmode="layer" inkscape:label="3273111_id2012__3273111002">
<g stroke="rgb(0,0,0)" fill="rgb(95,118,130)" stroke-linejoin="round" stroke-width="0.26">
<g id="3273111_id2012__3273111002_1">
<path d="M 638,523 L 635,522 L 633,521 L 632,521 L 627,519 L 618,516 L 614,514 L 608,512 L 598,508 L 594,507 L 590,506 L 584,504 L 582,503 L 577,501 L 571,499 L 564,497 L 558,494 L 554,493 L 550,492 L 549,491 L 546,490 L 545,490 L 540,488 L 531,485 L 527,483 L 522,482 L 523,480 L 524,474 L 526,464 L 533,434 L 535,426 L 536,425 L 540,412 L 538,409 L 535,407 L 532,404 L 533,384 L 534,374 L 535,352 L 535,349 L 535,346 L 535,343 L 535,339 L 535,330 L 535,328 L 535,326 L 535,322 L 536,322 L 546,321 L 566,320 L 571,319 L 576,319 L 593,318 L 598,317 L 599,317 L 600,317 L 601,317 L 607,317 L 614,316 L 622,316 L 625,315 L 629,315 L 634,315 L 644,314 L 645,314 L 649,313 L 652,313 L 655,313 L 659,313 L 662,313 L 676,312 L 681,312 L 685,312 L 688,312 L 690,312 L 692,311 L 693,311 L 697,311 L 700,311 L 703,311 L 712,310 L 715,309 L 720,308 L 721,306 L 724,305 L 725,305 L 726,305 L 727,305 L 728,304 L 730,304 L 733,303 L 735,303 L 737,303 L 741,302 L 744,301 L 745,301 L 746,301 L 747,301 L 748,301 L 749,300 L 755,299 L 756,298 L 758,297 L 759,296 L 761,296 L 762,295 L 762,296 L 759,298 L 757,302 L 754,313 L 748,333 L 752,337 L 749,343 L 744,347 L 741,351 L 739,351 L 737,354 L 736,354 L 735,355 L 734,355 L 734,356 L 733,355 L 731,354 L 730,354 L 729,355 L 728,356 L 727,358 L 723,359 L 720,359 L 716,359 L 715,359 L 713,363 L 712,364 L 710,365 L 709,364 L 708,365 L 707,366 L 706,368 L 704,369 L 703,370 L 703,371 L 703,372 L 704,373 L 704,374 L 702,374 L 701,375 L 701,376 L 702,379 L 701,380 L 700,380 L 699,381 L 697,382 L 697,384 L 696,385 L 695,386 L 690,394 L 687,400 L 683,407 L 696,413 L 687,431 L 687,432 L 683,439 L 681,444 L 678,452 L 677,459 L 676,461 L 674,469 L 670,468 L 669,468 L 667,468 L 665,469 L 662,470 L 658,473 L 653,473 L 651,473 L 650,473 L 645,477 L 643,480 L 642,481 L 641,482 L 637,485 L 635,491 L 633,493 L 632,496 L 632,500 L 631,503 L 630,506 L 631,507 L 635,509 L 636,511 L 636,513 L 637,520 L 638,523 " class="svg-range1" data-original-title="&lt;b&gt;CIPADUNG KIDUL&lt;/b&gt;&lt;br /&gt;29" title=""/>
</g>
</g>
</g>
</svg></svg>