<svg id="svg-map" width="null" height="null" xmlns="http://www.w3.org/2000/svg" style="animation-delay: 0s; animation-direction: normal; animation-duration: 0s; animation-fill-mode: none; animation-iteration-count: 1; animation-name: none; animation-play-state: running; animation-timing-function: ease; background-attachment: scroll; background-blend-mode: normal; background-clip: border-box; background-color: rgba(0, 0, 0, 0); background-image: none; background-origin: padding-box; background-position: 0% 0%; background-repeat: repeat; background-size: auto; border-bottom-color: rgb(255, 255, 255); border-bottom-left-radius: 0px; border-bottom-right-radius: 0px; border-bottom-style: none; border-bottom-width: 0px; border-collapse: separate; border-image-outset: 0px; border-image-repeat: stretch; border-image-slice: 100%; border-image-source: none; border-image-width: 1; border-left-color: rgb(255, 255, 255); border-left-style: none; border-left-width: 0px; border-right-color: rgb(255, 255, 255); border-right-style: none; border-right-width: 0px; border-top-color: rgb(255, 255, 255); border-top-left-radius: 0px; border-top-right-radius: 0px; border-top-style: none; border-top-width: 0px; bottom: auto; box-shadow: none; box-sizing: border-box; break-after: auto; break-before: auto; break-inside: auto; caption-side: top; clear: none; clip: auto; color: rgb(255, 255, 255); content: ; cursor: auto; direction: ltr; display: inline; empty-cells: show; float: none; font-family: &quot;Open Sans&quot;, sans-serif; font-kerning: auto; font-size: 13px; font-stretch: normal; font-style: normal; font-variant: normal; font-variant-ligatures: normal; font-variant-caps: normal; font-variant-numeric: normal; font-weight: normal; height: 303.953px; image-rendering: auto; isolation: auto; left: auto; letter-spacing: normal; line-height: 18.5714px; list-style-image: none; list-style-position: outside; list-style-type: disc; margin-bottom: 0px; margin-left: 0px; margin-right: 0px; margin-top: 0px; max-height: 400px; max-width: none; min-height: 0px; min-width: 0px; mix-blend-mode: normal; motion-offset: 0px; motion-path: none; motion-rotation: auto 0deg; object-fit: fill; object-position: 50% 50%; opacity: 1; orphans: 2; outline-color: rgb(255, 255, 255); outline-offset: 0px; outline-style: none; outline-width: 0px; overflow-wrap: normal; overflow-x: hidden; overflow-y: hidden; padding-bottom: 0px; padding-left: 0px; padding-right: 0px; padding-top: 0px; pointer-events: auto; position: static; resize: none; right: auto; speak: normal; table-layout: auto; tab-size: 8; text-align: center; text-align-last: auto; text-decoration: none; text-indent: 0px; text-rendering: auto; text-shadow: none; text-size-adjust: 100%; text-overflow: clip; text-transform: none; top: auto; touch-action: auto; transition-delay: 0s; transition-duration: 0s; transition-property: all; transition-timing-function: ease; unicode-bidi: normal; vertical-align: baseline; visibility: visible; white-space: normal; widows: 2; width: 617.5px; will-change: auto; word-break: normal; word-spacing: 0px; word-wrap: normal; z-index: auto; zoom: 1; -webkit-appearance: none; backface-visibility: visible; -webkit-background-clip: border-box; -webkit-background-origin: padding-box; -webkit-border-horizontal-spacing: 0px; -webkit-border-image: none; -webkit-border-vertical-spacing: 0px; -webkit-box-align: stretch; -webkit-box-decoration-break: slice; -webkit-box-direction: normal; -webkit-box-flex: 0; -webkit-box-flex-group: 1; -webkit-box-lines: single; -webkit-box-ordinal-group: 1; -webkit-box-orient: horizontal; -webkit-box-pack: start; -webkit-box-reflect: none; -webkit-clip-path: none; column-count: auto; column-gap: normal; column-rule-color: rgb(255, 255, 255); column-rule-style: none; column-rule-width: 0px; column-span: none; column-width: auto; align-content: stretch; align-items: stretch; align-self: stretch; flex-basis: auto; flex-grow: 0; flex-shrink: 1; flex-direction: row; flex-wrap: nowrap; justify-content: flex-start; -webkit-font-smoothing: auto; -webkit-highlight: none; -webkit-hyphenate-character: auto; -webkit-line-break: auto; -webkit-line-clamp: none; -webkit-locale: &quot;en&quot;; -webkit-margin-before-collapse: collapse; -webkit-margin-after-collapse: collapse; -webkit-mask-box-image: none; -webkit-mask-box-image-outset: 0px; -webkit-mask-box-image-repeat: stretch; -webkit-mask-box-image-slice: 0 fill; -webkit-mask-box-image-source: none; -webkit-mask-box-image-width: auto; -webkit-mask-clip: border-box; -webkit-mask-composite: source-over; -webkit-mask-image: none; -webkit-mask-origin: border-box; -webkit-mask-position: 0% 0%; -webkit-mask-repeat: repeat; -webkit-mask-size: auto; order: 0; perspective: none; perspective-origin: 308.75px 151.969px; -webkit-print-color-adjust: economy; -webkit-rtl-ordering: logical; shape-outside: none; shape-image-threshold: 0; shape-margin: 0px; -webkit-tap-highlight-color: rgba(0, 0, 0, 0); -webkit-text-combine: none; -webkit-text-decorations-in-effect: none; -webkit-text-emphasis-color: rgb(255, 255, 255); -webkit-text-emphasis-position: over; -webkit-text-emphasis-style: none; -webkit-text-fill-color: rgb(255, 255, 255); -webkit-text-orientation: vertical-right; -webkit-text-security: none; -webkit-text-stroke-color: rgb(255, 255, 255); -webkit-text-stroke-width: 0px; transform: none; transform-origin: 308.75px 151.969px; transform-style: flat; -webkit-user-drag: auto; -webkit-user-modify: read-only; user-select: text; -webkit-writing-mode: horizontal-tb; -webkit-app-region: no-drag; buffered-rendering: auto; clip-path: none; clip-rule: nonzero; mask: none; filter: none; flood-color: rgb(0, 0, 0); flood-opacity: 1; lighting-color: rgb(255, 255, 255); stop-color: rgb(0, 0, 0); stop-opacity: 1; color-interpolation: sRGB; color-interpolation-filters: linearRGB; color-rendering: auto; fill: rgb(0, 0, 0); fill-opacity: 1; fill-rule: nonzero; marker-end: none; marker-mid: none; marker-start: none; mask-type: luminance; shape-rendering: auto; stroke: none; stroke-dasharray: none; stroke-dashoffset: 0px; stroke-linecap: butt; stroke-linejoin: miter; stroke-miterlimit: 4; stroke-opacity: 1; stroke-width: 1px; alignment-baseline: auto; baseline-shift: 0px; dominant-baseline: auto; text-anchor: start; writing-mode: horizontal-tb; vector-effect: none; paint-order: fill stroke markers; d: none; cx: 0px; cy: 0px; x: 0px; y: 0px; r: 0px; rx: auto; ry: auto;" version="1.1" xmlns:xlink="http://www.w3.org/1999/xlink"><style type="text/css">svg:not(:root) { overflow: hidden; }
* { box-sizing: border-box; }
* { font-size: 13px; }
svg { max-height: 100vh; border: none !important; }
#svg-map svg { max-height: 400px; }
#svg-map svg path { fill: rgb(153, 196, 176); stroke: rgb(51, 51, 51); stroke-width: 1; }
#svg-map svg path.svg-range1 { fill: rgb(194, 223, 115); }
#svg-map svg path.svg-range4 { fill: rgb(189, 143, 83); }
#svg-map svg path.svg-range5 { fill: rgb(175, 96, 68); }</style><svg xmlns="http://www.w3.org/2000/svg" xmlns:inkscape="http://www.inkscape.org/namespaces/inkscape" xmlns:xlink="http://www.w3.org/1999/xlink" viewBox="0 0 1097 540" version="1.1">
<!-- svg generated using QGIS www.qgis.org -->
<g id="3273190_id2012__3273190004" inkscape:groupmode="layer" inkscape:label="3273190_id2012__3273190004">
<g stroke="rgb(0,0,0)" fill="rgb(152,7,10)" stroke-linejoin="round" stroke-width="0.26">
<g id="3273190_id2012__3273190004_1">
<path d="M 741,172 L 743,173 L 745,173 L 746,174 L 747,174 L 748,175 L 750,176 L 751,176 L 752,177 L 753,177 L 754,178 L 755,178 L 756,179 L 757,179 L 758,180 L 759,180 L 761,181 L 761,182 L 762,182 L 763,183 L 764,183 L 765,184 L 767,185 L 768,186 L 769,186 L 770,187 L 772,188 L 774,189 L 769,190 L 766,197 L 766,200 L 765,201 L 765,203 L 765,205 L 765,207 L 764,209 L 764,210 L 764,211 L 764,213 L 764,214 L 764,215 L 764,216 L 764,219 L 764,220 L 764,221 L 763,222 L 763,223 L 762,223 L 761,224 L 760,235 L 760,240 L 760,242 L 759,245 L 759,249 L 759,251 L 758,255 L 755,253 L 752,260 L 749,258 L 747,264 L 746,266 L 745,268 L 744,272 L 743,275 L 743,276 L 743,279 L 742,279 L 742,284 L 741,292 L 741,294 L 740,298 L 740,302 L 740,304 L 740,309 L 739,313 L 739,318 L 739,320 L 739,325 L 740,329 L 740,332 L 741,335 L 742,337 L 742,338 L 742,341 L 744,346 L 744,348 L 744,350 L 745,352 L 745,353 L 745,354 L 746,355 L 746,357 L 746,359 L 746,360 L 747,363 L 748,367 L 749,372 L 749,375 L 749,378 L 745,378 L 737,377 L 731,377 L 728,377 L 724,376 L 721,376 L 715,375 L 692,373 L 688,372 L 683,370 L 676,367 L 670,365 L 663,363 L 661,362 L 655,360 L 651,358 L 652,356 L 654,349 L 655,346 L 657,345 L 659,345 L 664,349 L 666,350 L 668,350 L 670,349 L 672,349 L 674,346 L 676,343 L 676,342 L 677,338 L 677,334 L 677,331 L 676,327 L 675,325 L 673,320 L 672,319 L 669,314 L 667,312 L 665,311 L 659,308 L 655,307 L 651,306 L 647,304 L 648,301 L 647,300 L 647,297 L 649,290 L 648,289 L 648,287 L 647,284 L 646,281 L 646,279 L 646,277 L 642,273 L 642,268 L 643,266 L 643,265 L 644,262 L 645,257 L 646,253 L 647,249 L 646,245 L 644,241 L 644,240 L 644,238 L 645,235 L 646,232 L 638,231 L 634,229 L 627,223 L 624,224 L 621,222 L 618,220 L 615,216 L 605,207 L 599,203 L 591,197 L 582,189 L 580,187 L 579,185 L 577,183 L 576,181 L 576,177 L 577,175 L 577,174 L 578,172 L 578,166 L 577,163 L 577,158 L 578,154 L 578,149 L 578,144 L 579,141 L 579,140 L 579,136 L 579,131 L 580,127 L 580,125 L 580,122 L 589,122 L 589,118 L 593,116 L 596,113 L 587,103 L 585,101 L 584,99 L 583,98 L 582,95 L 583,95 L 585,95 L 586,95 L 588,95 L 597,95 L 609,95 L 614,95 L 617,96 L 618,96 L 620,96 L 621,96 L 623,97 L 625,97 L 627,98 L 628,98 L 629,98 L 629,99 L 630,99 L 631,99 L 634,100 L 634,101 L 637,102 L 641,104 L 646,106 L 648,108 L 650,109 L 653,111 L 654,112 L 655,112 L 656,113 L 657,114 L 659,115 L 664,118 L 666,120 L 667,121 L 671,124 L 672,124 L 673,125 L 674,126 L 677,128 L 677,129 L 679,130 L 681,131 L 683,133 L 684,134 L 685,134 L 687,136 L 692,139 L 696,143 L 697,144 L 698,144 L 699,145 L 703,147 L 704,149 L 706,150 L 708,152 L 710,153 L 711,154 L 713,156 L 715,157 L 716,158 L 720,160 L 722,161 L 722,162 L 723,162 L 725,164 L 738,170 L 740,171 L 741,172 " class="svg-range5" data-original-title="&lt;b&gt;PAJAJARAN&lt;/b&gt;&lt;br /&gt;263" title=""/>
</g>
</g>
</g>
<g id="3273190_id2012__3273190005" inkscape:groupmode="layer" inkscape:label="3273190_id2012__3273190005">
<g stroke="rgb(0,0,0)" fill="rgb(58,97,142)" stroke-linejoin="round" stroke-width="0.26">
<g id="3273190_id2012__3273190005_1">
<path d="M 560,92 L 563,93 L 565,94 L 570,95 L 572,95 L 575,95 L 579,95 L 581,95 L 582,95 L 583,98 L 584,99 L 585,101 L 587,103 L 596,113 L 593,116 L 589,118 L 589,122 L 580,122 L 580,125 L 580,127 L 579,131 L 579,136 L 579,140 L 579,141 L 578,144 L 578,149 L 578,154 L 577,158 L 577,163 L 578,166 L 578,172 L 577,174 L 577,175 L 576,177 L 576,181 L 577,183 L 579,185 L 580,187 L 582,189 L 591,197 L 599,203 L 605,207 L 615,216 L 618,220 L 621,222 L 624,224 L 627,223 L 634,229 L 638,231 L 646,232 L 645,235 L 644,238 L 644,240 L 644,241 L 646,245 L 647,249 L 646,253 L 645,257 L 644,262 L 643,265 L 643,266 L 642,268 L 642,273 L 646,277 L 646,279 L 646,281 L 647,284 L 648,287 L 648,289 L 649,290 L 647,297 L 647,300 L 648,301 L 647,304 L 651,306 L 655,307 L 659,308 L 665,311 L 667,312 L 669,314 L 672,319 L 673,320 L 675,325 L 676,327 L 677,331 L 677,334 L 677,338 L 676,342 L 676,343 L 674,346 L 672,349 L 670,349 L 668,350 L 666,350 L 664,349 L 659,345 L 657,345 L 655,346 L 654,349 L 652,356 L 651,358 L 655,360 L 661,362 L 663,363 L 670,365 L 676,367 L 683,370 L 688,372 L 688,373 L 687,373 L 689,378 L 690,382 L 693,389 L 694,392 L 695,394 L 699,403 L 702,411 L 703,413 L 709,427 L 716,445 L 718,450 L 720,455 L 722,459 L 721,460 L 721,464 L 721,466 L 721,468 L 719,474 L 718,480 L 718,485 L 717,489 L 716,493 L 715,497 L 715,500 L 715,502 L 714,505 L 714,508 L 710,507 L 703,505 L 694,503 L 688,500 L 687,499 L 680,497 L 678,496 L 677,496 L 676,495 L 673,494 L 668,492 L 665,490 L 664,490 L 656,485 L 654,484 L 652,483 L 648,480 L 639,474 L 633,469 L 629,467 L 628,466 L 625,464 L 624,463 L 621,461 L 619,460 L 609,454 L 608,453 L 607,453 L 607,452 L 606,452 L 604,450 L 603,450 L 601,449 L 598,446 L 595,445 L 594,444 L 594,443 L 592,442 L 585,438 L 584,438 L 583,437 L 582,436 L 581,435 L 580,435 L 577,432 L 576,432 L 573,430 L 569,427 L 568,426 L 567,426 L 566,425 L 561,422 L 560,421 L 554,417 L 552,416 L 551,415 L 550,415 L 549,414 L 548,414 L 548,413 L 544,411 L 543,410 L 540,407 L 534,404 L 531,402 L 525,398 L 525,397 L 524,397 L 523,396 L 522,396 L 521,395 L 518,393 L 513,390 L 512,389 L 505,384 L 503,383 L 498,380 L 497,379 L 495,377 L 493,376 L 489,374 L 486,372 L 485,371 L 484,371 L 481,369 L 481,368 L 480,368 L 479,367 L 478,367 L 476,365 L 474,364 L 473,363 L 472,362 L 465,358 L 457,353 L 449,347 L 448,346 L 446,345 L 444,344 L 443,343 L 441,342 L 440,341 L 437,339 L 435,338 L 432,336 L 424,330 L 423,330 L 420,328 L 418,326 L 417,326 L 416,325 L 415,324 L 414,324 L 412,323 L 409,321 L 409,320 L 407,319 L 406,319 L 405,318 L 398,313 L 392,309 L 389,308 L 383,303 L 382,303 L 381,302 L 377,299 L 376,299 L 372,296 L 370,295 L 366,293 L 365,292 L 364,291 L 363,290 L 362,290 L 361,289 L 356,286 L 355,285 L 351,282 L 345,279 L 342,276 L 336,273 L 334,271 L 333,271 L 332,270 L 331,269 L 328,267 L 326,266 L 320,261 L 314,257 L 298,247 L 292,243 L 291,242 L 290,241 L 289,241 L 289,240 L 288,240 L 287,239 L 286,238 L 289,234 L 291,232 L 296,225 L 296,224 L 297,222 L 298,221 L 298,220 L 299,218 L 299,217 L 300,214 L 300,213 L 301,211 L 304,206 L 305,204 L 307,201 L 309,197 L 311,194 L 314,190 L 315,188 L 318,184 L 319,184 L 320,182 L 320,181 L 319,180 L 319,179 L 322,179 L 324,179 L 327,180 L 333,182 L 334,183 L 338,184 L 344,185 L 346,185 L 348,185 L 352,186 L 360,187 L 362,188 L 364,188 L 366,188 L 368,189 L 370,189 L 372,189 L 376,190 L 393,193 L 398,193 L 404,194 L 405,194 L 407,190 L 408,187 L 409,184 L 410,181 L 395,175 L 399,159 L 400,157 L 402,155 L 404,154 L 406,153 L 407,152 L 409,152 L 421,156 L 424,148 L 428,137 L 429,134 L 430,132 L 431,130 L 432,127 L 433,124 L 437,117 L 440,110 L 444,101 L 444,97 L 460,95 L 461,93 L 462,92 L 462,90 L 464,89 L 465,88 L 465,85 L 464,82 L 465,78 L 466,76 L 466,73 L 468,65 L 469,65 L 470,65 L 472,66 L 473,66 L 475,66 L 476,67 L 477,67 L 478,67 L 488,69 L 490,69 L 496,71 L 497,71 L 500,72 L 509,74 L 515,76 L 524,80 L 526,80 L 534,84 L 536,84 L 539,86 L 546,89 L 548,89 L 554,91 L 558,92 L 560,92 " class="svg-range4" data-original-title="&lt;b&gt;HUSEN SASTRANEGARA&lt;/b&gt;&lt;br /&gt;176" title=""/>
</g>
</g>
</g>
<g id="3273190_id2012__3273190006" inkscape:groupmode="layer" inkscape:label="3273190_id2012__3273190006">
<g stroke="rgb(0,0,0)" fill="rgb(84,134,117)" stroke-linejoin="round" stroke-width="0.26">
<g id="3273190_id2012__3273190006_1">
<path d="M 467,65 L 468,65 L 466,73 L 466,76 L 465,78 L 464,82 L 465,85 L 465,88 L 464,89 L 462,90 L 462,92 L 461,93 L 460,95 L 444,97 L 444,101 L 440,110 L 437,117 L 433,124 L 432,127 L 431,130 L 430,132 L 429,134 L 428,137 L 424,148 L 421,156 L 409,152 L 407,152 L 406,153 L 404,154 L 402,155 L 400,157 L 399,159 L 395,175 L 410,181 L 409,184 L 408,187 L 407,190 L 405,194 L 404,194 L 398,193 L 393,193 L 376,190 L 372,189 L 370,189 L 368,189 L 366,188 L 364,188 L 362,188 L 360,187 L 352,186 L 348,185 L 346,185 L 344,185 L 338,184 L 334,183 L 333,182 L 327,180 L 324,179 L 322,179 L 319,179 L 319,177 L 319,175 L 318,174 L 318,173 L 318,172 L 318,171 L 319,170 L 319,168 L 319,167 L 317,166 L 316,165 L 315,164 L 315,163 L 315,161 L 315,160 L 315,159 L 314,157 L 314,155 L 313,153 L 312,152 L 311,149 L 311,146 L 311,144 L 310,141 L 309,139 L 308,137 L 307,136 L 306,134 L 305,132 L 304,131 L 304,129 L 305,128 L 305,127 L 306,124 L 306,122 L 306,121 L 305,120 L 304,119 L 302,118 L 300,116 L 299,115 L 298,115 L 294,111 L 294,110 L 291,108 L 290,106 L 288,104 L 287,100 L 289,96 L 288,95 L 288,94 L 286,91 L 284,89 L 283,88 L 280,86 L 277,85 L 275,85 L 272,85 L 270,85 L 267,85 L 265,84 L 264,84 L 260,82 L 255,80 L 247,78 L 247,83 L 243,92 L 245,94 L 246,94 L 250,94 L 252,98 L 251,101 L 249,104 L 249,105 L 246,110 L 242,112 L 241,114 L 240,114 L 239,114 L 238,115 L 236,116 L 235,117 L 234,119 L 232,122 L 231,124 L 231,125 L 230,127 L 230,129 L 231,130 L 234,131 L 235,132 L 236,134 L 237,134 L 238,135 L 240,136 L 243,140 L 250,146 L 249,147 L 250,148 L 251,149 L 250,152 L 249,154 L 248,155 L 247,157 L 246,160 L 245,162 L 244,165 L 243,167 L 241,171 L 240,172 L 238,173 L 237,174 L 236,175 L 235,177 L 230,180 L 229,183 L 226,184 L 223,184 L 218,183 L 215,182 L 213,181 L 212,181 L 211,184 L 209,187 L 207,186 L 206,185 L 202,183 L 199,181 L 198,180 L 196,179 L 192,177 L 190,176 L 190,175 L 187,174 L 187,173 L 184,172 L 183,171 L 182,171 L 181,170 L 179,168 L 177,167 L 176,166 L 175,166 L 175,165 L 173,164 L 172,164 L 171,163 L 170,163 L 169,162 L 161,156 L 160,155 L 159,155 L 156,154 L 154,154 L 153,153 L 152,153 L 151,152 L 151,151 L 150,149 L 149,148 L 148,147 L 148,146 L 143,138 L 141,135 L 139,132 L 137,128 L 136,127 L 135,124 L 132,120 L 130,116 L 128,113 L 127,112 L 126,110 L 124,107 L 120,101 L 118,97 L 117,95 L 116,94 L 113,89 L 110,84 L 106,76 L 100,66 L 96,60 L 95,59 L 94,57 L 90,51 L 89,49 L 86,45 L 85,42 L 82,38 L 81,35 L 78,31 L 91,27 L 97,25 L 101,24 L 101,23 L 111,21 L 116,20 L 118,19 L 124,18 L 125,18 L 135,16 L 137,15 L 140,15 L 147,14 L 159,13 L 171,13 L 183,12 L 187,12 L 191,13 L 200,13 L 210,14 L 213,14 L 217,15 L 220,15 L 229,17 L 250,21 L 253,22 L 269,25 L 280,27 L 284,28 L 288,29 L 291,29 L 325,36 L 351,42 L 364,45 L 375,47 L 387,49 L 395,50 L 396,50 L 401,51 L 409,53 L 418,55 L 422,57 L 423,57 L 435,59 L 442,61 L 447,62 L 454,63 L 457,64 L 460,64 L 463,65 L 466,65 L 467,65 " class="svg-range5" data-original-title="&lt;b&gt;SUKARAJA&lt;/b&gt;&lt;br /&gt;244" title=""/>
</g>
</g>
</g>
<g id="3273190_id2012__3273190001" inkscape:groupmode="layer" inkscape:label="3273190_id2012__3273190001">
<g stroke="rgb(0,0,0)" fill="rgb(241,146,165)" stroke-linejoin="round" stroke-width="0.26">
<g id="3273190_id2012__3273190001_1">
<path d="M 888,518 L 887,518 L 884,518 L 879,517 L 859,517 L 857,517 L 853,517 L 850,517 L 843,517 L 835,517 L 833,517 L 830,517 L 824,516 L 816,515 L 799,512 L 798,512 L 793,512 L 788,512 L 787,512 L 785,512 L 778,512 L 773,511 L 769,511 L 762,511 L 761,511 L 756,511 L 753,511 L 751,511 L 750,511 L 742,510 L 741,510 L 740,510 L 739,510 L 732,510 L 725,509 L 717,508 L 716,508 L 714,508 L 714,505 L 715,502 L 715,500 L 715,497 L 716,493 L 717,489 L 718,485 L 718,480 L 719,474 L 721,468 L 721,466 L 721,464 L 721,460 L 722,459 L 720,455 L 718,450 L 716,445 L 709,427 L 703,413 L 702,411 L 699,403 L 695,394 L 694,392 L 693,389 L 690,382 L 689,378 L 687,373 L 688,373 L 688,372 L 692,373 L 715,375 L 721,376 L 724,376 L 728,377 L 731,377 L 737,377 L 745,378 L 749,378 L 752,379 L 754,379 L 756,379 L 760,379 L 769,380 L 771,380 L 776,379 L 779,379 L 783,378 L 787,378 L 789,378 L 793,377 L 797,376 L 800,376 L 801,376 L 818,374 L 820,373 L 822,373 L 824,373 L 825,372 L 826,372 L 827,372 L 831,372 L 832,371 L 844,369 L 851,368 L 855,368 L 860,367 L 864,367 L 877,366 L 878,370 L 878,371 L 878,374 L 879,384 L 879,390 L 880,394 L 880,401 L 880,415 L 881,425 L 882,431 L 882,432 L 882,433 L 882,434 L 882,436 L 883,443 L 885,469 L 885,470 L 885,477 L 886,480 L 886,490 L 886,494 L 886,497 L 887,507 L 887,509 L 888,512 L 888,514 L 888,518 " class="svg-range1" data-original-title="&lt;b&gt;ARJUNA&lt;/b&gt;&lt;br /&gt;32" title=""/>
</g>
</g>
</g>
<g id="3273190_id2012__3273190002" inkscape:groupmode="layer" inkscape:label="3273190_id2012__3273190002">
<g stroke="rgb(0,0,0)" fill="rgb(172,126,33)" stroke-linejoin="round" stroke-width="0.26">
<g id="3273190_id2012__3273190002_1">
<path d="M 966,247 L 966,249 L 967,251 L 967,253 L 967,254 L 967,257 L 968,264 L 968,267 L 968,268 L 968,270 L 968,274 L 968,278 L 969,284 L 969,291 L 969,292 L 969,293 L 972,295 L 975,298 L 977,303 L 980,309 L 981,314 L 982,319 L 982,326 L 989,326 L 992,326 L 1000,326 L 1003,326 L 1007,326 L 1008,325 L 1008,342 L 1008,348 L 1008,352 L 1008,354 L 1009,355 L 1009,357 L 1009,358 L 1009,368 L 1009,372 L 1009,375 L 1009,378 L 1009,379 L 1009,380 L 1009,381 L 1009,382 L 1010,387 L 1010,390 L 1010,409 L 1010,411 L 1010,412 L 1010,416 L 1008,421 L 1008,423 L 1007,425 L 1007,426 L 1006,429 L 1005,432 L 1004,434 L 1003,439 L 1003,441 L 1003,443 L 1003,444 L 1002,447 L 1002,449 L 1002,452 L 1002,458 L 1002,459 L 1001,472 L 1000,475 L 1000,486 L 1001,486 L 1008,487 L 1010,487 L 1012,488 L 1013,488 L 1013,489 L 1014,489 L 1014,491 L 1014,493 L 1013,500 L 1012,512 L 1012,517 L 1012,518 L 1011,521 L 1011,522 L 1011,523 L 1010,523 L 1008,523 L 1005,522 L 998,521 L 996,521 L 994,521 L 991,521 L 977,519 L 975,519 L 971,519 L 969,519 L 967,519 L 962,519 L 958,519 L 950,518 L 946,518 L 938,518 L 929,518 L 923,518 L 920,519 L 915,519 L 909,519 L 908,518 L 905,518 L 898,518 L 895,518 L 893,518 L 890,518 L 888,518 L 888,514 L 888,512 L 887,509 L 887,507 L 886,497 L 886,494 L 886,490 L 886,480 L 885,477 L 885,470 L 885,469 L 883,443 L 882,436 L 882,434 L 882,433 L 882,432 L 882,431 L 881,425 L 880,415 L 880,401 L 880,394 L 879,390 L 879,384 L 878,374 L 878,371 L 878,370 L 877,366 L 877,350 L 877,345 L 876,339 L 876,320 L 876,319 L 876,315 L 876,314 L 876,307 L 875,304 L 875,283 L 874,269 L 874,258 L 873,247 L 879,247 L 882,247 L 888,247 L 890,247 L 892,247 L 896,247 L 908,247 L 910,247 L 912,248 L 915,247 L 917,247 L 919,247 L 920,247 L 921,247 L 924,247 L 929,247 L 936,247 L 944,247 L 947,247 L 950,247 L 957,247 L 961,247 L 966,247 " class="svg-range1" data-original-title="&lt;b&gt;PASIRKALIKI&lt;/b&gt;&lt;br /&gt;40" title=""/>
</g>
</g>
</g>
<g id="3273190_id2012__3273190003" inkscape:groupmode="layer" inkscape:label="3273190_id2012__3273190003">
<g stroke="rgb(0,0,0)" fill="rgb(115,140,41)" stroke-linejoin="round" stroke-width="0.26">
<g id="3273190_id2012__3273190003_1">
<path d="M 873,247 L 874,258 L 874,269 L 875,283 L 875,304 L 876,307 L 876,314 L 876,315 L 876,319 L 876,320 L 876,339 L 877,345 L 877,350 L 877,366 L 864,367 L 860,367 L 855,368 L 851,368 L 844,369 L 832,371 L 831,372 L 827,372 L 826,372 L 825,372 L 824,373 L 822,373 L 820,373 L 818,374 L 801,376 L 800,376 L 797,376 L 793,377 L 789,378 L 787,378 L 783,378 L 779,379 L 776,379 L 771,380 L 769,380 L 760,379 L 756,379 L 754,379 L 752,379 L 749,378 L 749,375 L 749,372 L 748,367 L 747,363 L 746,360 L 746,359 L 746,357 L 746,355 L 745,354 L 745,353 L 745,352 L 744,350 L 744,348 L 744,346 L 742,341 L 742,338 L 742,337 L 741,335 L 740,332 L 740,329 L 739,325 L 739,320 L 739,318 L 739,313 L 740,309 L 740,304 L 740,302 L 740,298 L 741,294 L 741,292 L 742,284 L 742,279 L 743,279 L 743,276 L 743,275 L 744,272 L 745,268 L 746,266 L 747,264 L 749,258 L 752,260 L 755,253 L 758,255 L 759,251 L 759,249 L 759,245 L 760,242 L 760,240 L 760,235 L 761,224 L 762,223 L 763,223 L 763,222 L 764,221 L 764,220 L 764,219 L 764,216 L 764,215 L 764,214 L 764,213 L 764,211 L 764,210 L 764,209 L 765,207 L 765,205 L 765,203 L 765,201 L 766,200 L 766,197 L 769,190 L 774,189 L 775,190 L 776,191 L 779,193 L 781,195 L 782,195 L 784,196 L 789,200 L 791,202 L 792,203 L 796,207 L 796,208 L 797,208 L 798,209 L 799,210 L 800,211 L 801,212 L 802,213 L 803,213 L 804,215 L 805,215 L 806,216 L 807,217 L 808,218 L 811,221 L 814,224 L 816,225 L 817,226 L 818,228 L 820,229 L 821,230 L 823,233 L 825,234 L 826,234 L 827,235 L 828,236 L 830,238 L 834,241 L 838,242 L 841,244 L 847,245 L 847,246 L 850,246 L 851,247 L 853,247 L 854,247 L 855,247 L 856,247 L 857,247 L 858,247 L 859,247 L 870,247 L 871,247 L 872,247 L 873,247 " class="svg-range1" data-original-title="&lt;b&gt;PAMOYANAN&lt;/b&gt;&lt;br /&gt;16" title=""/>
</g>
</g>
</g>
</svg></svg>