<svg id="svg-map" width="null" height="null" xmlns="http://www.w3.org/2000/svg" style="animation-delay: 0s; animation-direction: normal; animation-duration: 0s; animation-fill-mode: none; animation-iteration-count: 1; animation-name: none; animation-play-state: running; animation-timing-function: ease; background-attachment: scroll; background-blend-mode: normal; background-clip: border-box; background-color: rgba(0, 0, 0, 0); background-image: none; background-origin: padding-box; background-position: 0% 0%; background-repeat: repeat; background-size: auto; border-bottom-color: rgb(255, 255, 255); border-bottom-left-radius: 0px; border-bottom-right-radius: 0px; border-bottom-style: none; border-bottom-width: 0px; border-collapse: separate; border-image-outset: 0px; border-image-repeat: stretch; border-image-slice: 100%; border-image-source: none; border-image-width: 1; border-left-color: rgb(255, 255, 255); border-left-style: none; border-left-width: 0px; border-right-color: rgb(255, 255, 255); border-right-style: none; border-right-width: 0px; border-top-color: rgb(255, 255, 255); border-top-left-radius: 0px; border-top-right-radius: 0px; border-top-style: none; border-top-width: 0px; bottom: auto; box-shadow: none; box-sizing: border-box; break-after: auto; break-before: auto; break-inside: auto; caption-side: top; clear: none; clip: auto; color: rgb(255, 255, 255); content: ; cursor: auto; direction: ltr; display: inline; empty-cells: show; float: none; font-family: &quot;Open Sans&quot;, sans-serif; font-kerning: auto; font-size: 13px; font-stretch: normal; font-style: normal; font-variant: normal; font-variant-ligatures: normal; font-variant-caps: normal; font-variant-numeric: normal; font-weight: normal; height: 303.953px; image-rendering: auto; isolation: auto; left: auto; letter-spacing: normal; line-height: 18.5714px; list-style-image: none; list-style-position: outside; list-style-type: disc; margin-bottom: 0px; margin-left: 0px; margin-right: 0px; margin-top: 0px; max-height: 400px; max-width: none; min-height: 0px; min-width: 0px; mix-blend-mode: normal; motion-offset: 0px; motion-path: none; motion-rotation: auto 0deg; object-fit: fill; object-position: 50% 50%; opacity: 1; orphans: 2; outline-color: rgb(255, 255, 255); outline-offset: 0px; outline-style: none; outline-width: 0px; overflow-wrap: normal; overflow-x: hidden; overflow-y: hidden; padding-bottom: 0px; padding-left: 0px; padding-right: 0px; padding-top: 0px; pointer-events: auto; position: static; resize: none; right: auto; speak: normal; table-layout: auto; tab-size: 8; text-align: center; text-align-last: auto; text-decoration: none; text-indent: 0px; text-rendering: auto; text-shadow: none; text-size-adjust: 100%; text-overflow: clip; text-transform: none; top: auto; touch-action: auto; transition-delay: 0s; transition-duration: 0s; transition-property: all; transition-timing-function: ease; unicode-bidi: normal; vertical-align: baseline; visibility: visible; white-space: normal; widows: 2; width: 617.5px; will-change: auto; word-break: normal; word-spacing: 0px; word-wrap: normal; z-index: auto; zoom: 1; -webkit-appearance: none; backface-visibility: visible; -webkit-background-clip: border-box; -webkit-background-origin: padding-box; -webkit-border-horizontal-spacing: 0px; -webkit-border-image: none; -webkit-border-vertical-spacing: 0px; -webkit-box-align: stretch; -webkit-box-decoration-break: slice; -webkit-box-direction: normal; -webkit-box-flex: 0; -webkit-box-flex-group: 1; -webkit-box-lines: single; -webkit-box-ordinal-group: 1; -webkit-box-orient: horizontal; -webkit-box-pack: start; -webkit-box-reflect: none; -webkit-clip-path: none; column-count: auto; column-gap: normal; column-rule-color: rgb(255, 255, 255); column-rule-style: none; column-rule-width: 0px; column-span: none; column-width: auto; align-content: stretch; align-items: stretch; align-self: stretch; flex-basis: auto; flex-grow: 0; flex-shrink: 1; flex-direction: row; flex-wrap: nowrap; justify-content: flex-start; -webkit-font-smoothing: auto; -webkit-highlight: none; -webkit-hyphenate-character: auto; -webkit-line-break: auto; -webkit-line-clamp: none; -webkit-locale: &quot;en&quot;; -webkit-margin-before-collapse: collapse; -webkit-margin-after-collapse: collapse; -webkit-mask-box-image: none; -webkit-mask-box-image-outset: 0px; -webkit-mask-box-image-repeat: stretch; -webkit-mask-box-image-slice: 0 fill; -webkit-mask-box-image-source: none; -webkit-mask-box-image-width: auto; -webkit-mask-clip: border-box; -webkit-mask-composite: source-over; -webkit-mask-image: none; -webkit-mask-origin: border-box; -webkit-mask-position: 0% 0%; -webkit-mask-repeat: repeat; -webkit-mask-size: auto; order: 0; perspective: none; perspective-origin: 308.75px 151.969px; -webkit-print-color-adjust: economy; -webkit-rtl-ordering: logical; shape-outside: none; shape-image-threshold: 0; shape-margin: 0px; -webkit-tap-highlight-color: rgba(0, 0, 0, 0); -webkit-text-combine: none; -webkit-text-decorations-in-effect: none; -webkit-text-emphasis-color: rgb(255, 255, 255); -webkit-text-emphasis-position: over; -webkit-text-emphasis-style: none; -webkit-text-fill-color: rgb(255, 255, 255); -webkit-text-orientation: vertical-right; -webkit-text-security: none; -webkit-text-stroke-color: rgb(255, 255, 255); -webkit-text-stroke-width: 0px; transform: none; transform-origin: 308.75px 151.969px; transform-style: flat; -webkit-user-drag: auto; -webkit-user-modify: read-only; user-select: text; -webkit-writing-mode: horizontal-tb; -webkit-app-region: no-drag; buffered-rendering: auto; clip-path: none; clip-rule: nonzero; mask: none; filter: none; flood-color: rgb(0, 0, 0); flood-opacity: 1; lighting-color: rgb(255, 255, 255); stop-color: rgb(0, 0, 0); stop-opacity: 1; color-interpolation: sRGB; color-interpolation-filters: linearRGB; color-rendering: auto; fill: rgb(0, 0, 0); fill-opacity: 1; fill-rule: nonzero; marker-end: none; marker-mid: none; marker-start: none; mask-type: luminance; shape-rendering: auto; stroke: none; stroke-dasharray: none; stroke-dashoffset: 0px; stroke-linecap: butt; stroke-linejoin: miter; stroke-miterlimit: 4; stroke-opacity: 1; stroke-width: 1px; alignment-baseline: auto; baseline-shift: 0px; dominant-baseline: auto; text-anchor: start; writing-mode: horizontal-tb; vector-effect: none; paint-order: fill stroke markers; d: none; cx: 0px; cy: 0px; x: 0px; y: 0px; r: 0px; rx: auto; ry: auto;" version="1.1" xmlns:xlink="http://www.w3.org/1999/xlink"><style type="text/css">svg:not(:root) { overflow: hidden; }
* { box-sizing: border-box; }
* { font-size: 13px; }
svg { max-height: 100vh; border: none !important; }
#svg-map svg { max-height: 400px; }
#svg-map svg path { fill: rgb(153, 196, 176); stroke: rgb(51, 51, 51); stroke-width: 1; }
#svg-map svg path.svg-range1 { fill: rgb(194, 223, 115); }
#svg-map svg path.svg-range2 { fill: rgb(160, 189, 83); }
#svg-map svg path.svg-range5 { fill: rgb(175, 96, 68); }</style><svg xmlns="http://www.w3.org/2000/svg" xmlns:inkscape="http://www.inkscape.org/namespaces/inkscape" xmlns:xlink="http://www.w3.org/1999/xlink" viewBox="0 0 1097 540" version="1.1">
<!-- svg generated using QGIS www.qgis.org -->
<g id="3273230_id2012__3273230004" inkscape:groupmode="layer" inkscape:label="3273230_id2012__3273230004">
<g stroke="rgb(0,0,0)" fill="rgb(174,128,147)" stroke-linejoin="round" stroke-width="0.26">
<g id="3273230_id2012__3273230004_1">
<path d="M 751,410 L 749,410 L 745,409 L 741,408 L 740,408 L 737,408 L 733,407 L 732,407 L 731,407 L 730,407 L 729,407 L 728,408 L 727,408 L 726,409 L 725,409 L 724,410 L 723,411 L 722,412 L 719,412 L 717,412 L 716,412 L 715,412 L 714,412 L 711,412 L 707,412 L 707,413 L 706,414 L 706,415 L 706,418 L 707,419 L 707,420 L 707,421 L 707,422 L 707,425 L 708,426 L 708,427 L 708,429 L 708,430 L 709,431 L 711,435 L 712,436 L 712,437 L 713,438 L 714,439 L 714,440 L 714,441 L 714,442 L 714,443 L 714,444 L 713,446 L 713,448 L 713,449 L 712,450 L 712,451 L 712,452 L 711,453 L 711,454 L 710,455 L 710,456 L 709,457 L 709,458 L 708,458 L 708,459 L 707,459 L 706,459 L 704,458 L 701,457 L 699,457 L 697,457 L 696,457 L 695,457 L 694,457 L 693,458 L 692,458 L 691,459 L 690,459 L 689,460 L 688,460 L 686,460 L 684,459 L 682,459 L 681,458 L 680,458 L 679,457 L 678,457 L 677,457 L 677,458 L 676,459 L 675,461 L 675,462 L 674,463 L 674,464 L 674,465 L 673,466 L 673,467 L 673,468 L 673,471 L 672,473 L 671,475 L 670,476 L 670,477 L 668,478 L 668,479 L 667,479 L 666,481 L 665,483 L 664,485 L 663,486 L 662,487 L 661,488 L 660,489 L 659,490 L 658,491 L 657,491 L 655,495 L 655,498 L 655,499 L 655,501 L 655,508 L 652,508 L 651,508 L 650,508 L 647,508 L 646,508 L 641,508 L 637,508 L 636,508 L 633,508 L 631,508 L 623,508 L 620,508 L 616,508 L 612,508 L 609,508 L 608,508 L 607,508 L 603,508 L 596,509 L 592,509 L 590,509 L 590,501 L 590,499 L 589,497 L 589,495 L 589,486 L 589,477 L 588,475 L 588,472 L 588,463 L 588,459 L 588,458 L 588,456 L 588,455 L 588,454 L 588,452 L 588,444 L 588,443 L 588,442 L 588,440 L 588,438 L 588,436 L 590,435 L 591,434 L 592,433 L 593,430 L 592,429 L 593,429 L 594,427 L 594,425 L 594,424 L 595,422 L 596,420 L 597,419 L 598,416 L 599,415 L 599,414 L 601,412 L 602,410 L 604,411 L 606,413 L 606,414 L 608,415 L 609,416 L 610,417 L 611,418 L 612,419 L 613,421 L 614,422 L 615,424 L 616,424 L 616,425 L 618,426 L 619,427 L 622,427 L 623,428 L 624,428 L 628,430 L 631,431 L 633,431 L 634,431 L 636,432 L 639,434 L 641,436 L 642,436 L 643,437 L 645,437 L 647,437 L 648,437 L 651,436 L 652,436 L 653,435 L 654,434 L 654,431 L 654,429 L 653,427 L 654,427 L 655,422 L 654,418 L 655,418 L 656,417 L 655,413 L 654,410 L 654,408 L 654,406 L 654,400 L 655,395 L 658,396 L 659,396 L 661,396 L 662,396 L 664,396 L 665,396 L 667,396 L 669,396 L 672,396 L 673,396 L 675,397 L 676,397 L 680,397 L 682,397 L 686,397 L 693,397 L 701,397 L 699,392 L 698,389 L 696,384 L 696,382 L 696,381 L 696,380 L 696,379 L 695,378 L 693,375 L 688,370 L 688,369 L 694,364 L 694,363 L 694,362 L 695,361 L 693,359 L 692,359 L 689,357 L 688,355 L 688,354 L 687,354 L 687,352 L 686,350 L 684,349 L 684,348 L 681,346 L 681,343 L 682,342 L 683,338 L 685,338 L 686,339 L 688,339 L 690,339 L 693,339 L 693,340 L 693,341 L 692,343 L 692,345 L 692,347 L 691,349 L 691,350 L 691,352 L 691,353 L 692,354 L 693,355 L 694,357 L 695,357 L 696,358 L 697,359 L 699,360 L 701,361 L 702,361 L 703,361 L 704,362 L 705,362 L 706,363 L 707,363 L 709,364 L 710,364 L 711,364 L 711,365 L 713,365 L 714,366 L 715,366 L 716,367 L 718,367 L 720,368 L 721,369 L 722,369 L 723,369 L 724,370 L 725,370 L 728,371 L 729,371 L 730,372 L 732,373 L 734,373 L 735,373 L 737,374 L 738,375 L 738,376 L 739,378 L 740,378 L 740,379 L 741,380 L 742,382 L 743,382 L 744,384 L 744,385 L 745,390 L 745,391 L 745,392 L 745,394 L 745,395 L 746,396 L 746,397 L 747,398 L 747,399 L 747,400 L 748,400 L 748,401 L 749,403 L 749,404 L 750,406 L 750,407 L 751,408 L 751,409 L 751,410 " class="svg-range2" data-original-title="&lt;b&gt;SADANG SERANG&lt;/b&gt;&lt;br /&gt;118" title=""/>
</g>
</g>
</g>
<g id="3273230_id2012__3273230005" inkscape:groupmode="layer" inkscape:label="3273230_id2012__3273230005">
<g stroke="rgb(0,0,0)" fill="rgb(180,35,22)" stroke-linejoin="round" stroke-width="0.26">
<g id="3273230_id2012__3273230005_1">
<path d="M 623,249 L 622,251 L 623,254 L 623,255 L 624,257 L 625,259 L 624,262 L 626,266 L 626,267 L 627,270 L 629,273 L 630,275 L 630,276 L 631,276 L 631,277 L 632,277 L 632,278 L 634,279 L 635,279 L 636,280 L 637,280 L 639,280 L 640,280 L 641,281 L 643,281 L 643,282 L 644,283 L 646,283 L 647,284 L 649,286 L 650,287 L 650,289 L 650,291 L 650,293 L 652,295 L 654,296 L 655,299 L 656,300 L 657,303 L 658,303 L 659,304 L 660,305 L 660,306 L 662,307 L 664,308 L 664,309 L 667,314 L 668,315 L 670,317 L 671,318 L 672,319 L 672,321 L 672,323 L 672,324 L 672,325 L 672,328 L 672,330 L 673,331 L 673,332 L 673,333 L 674,335 L 678,337 L 679,337 L 680,338 L 681,338 L 682,338 L 683,338 L 682,342 L 681,343 L 681,346 L 684,348 L 684,349 L 686,350 L 687,352 L 687,354 L 688,354 L 688,355 L 689,357 L 692,359 L 693,359 L 695,361 L 694,362 L 694,363 L 694,364 L 688,369 L 688,370 L 693,375 L 695,378 L 696,379 L 696,380 L 696,381 L 696,382 L 696,384 L 698,389 L 699,392 L 701,397 L 693,397 L 686,397 L 682,397 L 680,397 L 676,397 L 675,397 L 673,396 L 672,396 L 669,396 L 667,396 L 665,396 L 664,396 L 662,396 L 661,396 L 659,396 L 658,396 L 655,395 L 654,400 L 654,406 L 654,408 L 654,410 L 655,413 L 656,417 L 655,418 L 654,418 L 655,422 L 654,427 L 653,427 L 654,429 L 654,431 L 654,434 L 653,435 L 652,436 L 651,436 L 648,437 L 647,437 L 645,437 L 643,437 L 642,436 L 641,436 L 639,434 L 636,432 L 634,431 L 633,431 L 631,431 L 628,430 L 624,428 L 623,428 L 622,427 L 619,427 L 618,426 L 616,425 L 616,424 L 615,424 L 614,422 L 613,421 L 612,419 L 611,418 L 610,417 L 609,416 L 608,415 L 606,414 L 606,413 L 604,411 L 602,410 L 603,408 L 604,407 L 605,405 L 606,404 L 607,403 L 608,402 L 609,400 L 610,398 L 610,397 L 611,396 L 612,395 L 613,395 L 614,394 L 614,391 L 617,392 L 618,391 L 618,390 L 618,389 L 619,386 L 620,382 L 620,381 L 619,379 L 619,378 L 619,377 L 619,375 L 619,372 L 618,369 L 618,368 L 617,367 L 612,367 L 611,367 L 610,367 L 608,366 L 607,366 L 606,365 L 604,365 L 602,364 L 599,363 L 597,362 L 595,362 L 593,362 L 592,362 L 589,362 L 588,363 L 587,363 L 586,363 L 581,365 L 580,365 L 579,366 L 577,367 L 577,368 L 576,368 L 575,368 L 574,369 L 573,369 L 573,370 L 571,370 L 568,369 L 564,369 L 563,369 L 562,369 L 560,367 L 559,366 L 559,364 L 558,363 L 558,362 L 557,361 L 557,360 L 556,356 L 556,355 L 555,353 L 555,352 L 554,344 L 554,343 L 554,341 L 554,339 L 554,338 L 554,337 L 553,334 L 552,330 L 552,329 L 552,328 L 552,326 L 553,322 L 553,318 L 554,314 L 550,313 L 549,312 L 548,312 L 545,312 L 545,311 L 543,311 L 540,310 L 538,309 L 537,308 L 536,308 L 535,306 L 535,305 L 533,302 L 532,300 L 530,294 L 528,289 L 528,288 L 529,287 L 531,285 L 532,284 L 533,283 L 534,282 L 538,276 L 540,274 L 541,273 L 542,272 L 543,269 L 544,268 L 545,266 L 547,261 L 548,257 L 550,257 L 553,258 L 556,259 L 558,259 L 560,259 L 561,259 L 562,260 L 564,259 L 565,259 L 566,259 L 567,259 L 569,258 L 569,257 L 570,256 L 570,255 L 571,254 L 572,253 L 574,253 L 576,253 L 576,252 L 576,251 L 577,250 L 577,249 L 578,250 L 580,250 L 581,250 L 582,250 L 584,251 L 587,251 L 593,251 L 596,252 L 597,251 L 600,250 L 603,250 L 603,249 L 605,248 L 608,247 L 609,248 L 610,248 L 611,247 L 613,247 L 616,247 L 618,247 L 623,249 " class="svg-range2" data-original-title="&lt;b&gt;SEKELOA&lt;/b&gt;&lt;br /&gt;116" title=""/>
</g>
</g>
</g>
<g id="3273230_id2012__3273230006" inkscape:groupmode="layer" inkscape:label="3273230_id2012__3273230006">
<g stroke="rgb(0,0,0)" fill="rgb(111,179,72)" stroke-linejoin="round" stroke-width="0.26">
<g id="3273230_id2012__3273230006_1">
<path d="M 676,57 L 675,57 L 674,56 L 673,56 L 669,53 L 665,52 L 663,53 L 662,54 L 659,57 L 658,58 L 657,59 L 655,62 L 654,64 L 652,67 L 650,69 L 650,70 L 649,72 L 647,73 L 645,74 L 644,75 L 644,76 L 643,76 L 643,77 L 642,77 L 641,78 L 640,79 L 639,80 L 639,81 L 638,82 L 637,83 L 637,84 L 636,85 L 636,86 L 636,87 L 636,88 L 636,89 L 636,92 L 635,95 L 635,100 L 633,107 L 631,109 L 629,112 L 629,115 L 629,116 L 629,117 L 628,119 L 628,122 L 627,124 L 626,130 L 625,131 L 623,132 L 621,134 L 621,136 L 621,137 L 621,139 L 621,140 L 621,142 L 619,143 L 619,146 L 618,149 L 621,151 L 621,152 L 621,153 L 621,156 L 621,157 L 622,159 L 623,160 L 623,161 L 624,162 L 625,164 L 626,164 L 627,165 L 626,167 L 629,170 L 630,172 L 630,174 L 630,177 L 630,178 L 630,179 L 629,180 L 629,181 L 629,182 L 629,183 L 629,185 L 629,187 L 629,188 L 629,190 L 630,191 L 630,192 L 631,195 L 631,197 L 631,198 L 632,199 L 632,201 L 633,202 L 633,203 L 633,204 L 634,206 L 634,208 L 635,210 L 635,212 L 634,213 L 634,214 L 634,215 L 633,216 L 632,217 L 632,220 L 631,222 L 629,225 L 627,227 L 626,227 L 626,231 L 626,234 L 626,235 L 626,236 L 626,239 L 626,240 L 625,242 L 625,243 L 624,245 L 624,246 L 623,247 L 623,248 L 623,249 L 618,247 L 616,247 L 613,247 L 611,247 L 610,248 L 609,248 L 608,247 L 605,248 L 603,249 L 603,250 L 600,250 L 597,251 L 596,252 L 593,251 L 587,251 L 584,251 L 582,250 L 581,250 L 580,250 L 578,250 L 577,249 L 577,250 L 576,251 L 576,252 L 576,253 L 574,253 L 572,253 L 571,254 L 570,255 L 570,256 L 569,257 L 569,258 L 567,259 L 566,259 L 565,259 L 564,259 L 562,260 L 561,259 L 560,259 L 558,259 L 556,259 L 553,258 L 550,257 L 548,257 L 547,261 L 545,266 L 544,268 L 543,269 L 542,272 L 541,273 L 540,274 L 538,276 L 534,282 L 533,283 L 532,284 L 531,285 L 529,287 L 528,288 L 528,289 L 526,292 L 525,293 L 524,293 L 523,294 L 522,297 L 521,299 L 520,301 L 520,302 L 520,303 L 519,304 L 519,306 L 518,310 L 518,312 L 517,314 L 517,315 L 509,314 L 505,313 L 498,312 L 492,311 L 487,314 L 487,312 L 486,311 L 486,310 L 485,309 L 484,308 L 481,307 L 477,305 L 471,304 L 465,304 L 461,305 L 457,307 L 453,308 L 451,309 L 449,310 L 447,310 L 444,310 L 442,309 L 441,309 L 440,308 L 438,306 L 436,306 L 435,306 L 434,306 L 433,306 L 433,305 L 432,304 L 431,303 L 430,303 L 429,303 L 429,302 L 428,302 L 427,302 L 426,301 L 425,301 L 424,301 L 424,302 L 423,302 L 422,301 L 421,301 L 421,300 L 420,299 L 420,298 L 420,297 L 420,296 L 420,294 L 420,293 L 420,292 L 420,291 L 420,290 L 419,289 L 420,288 L 420,286 L 420,285 L 420,284 L 419,282 L 418,281 L 418,280 L 417,280 L 417,279 L 416,278 L 416,277 L 415,276 L 415,275 L 415,273 L 415,272 L 415,271 L 416,271 L 417,270 L 417,269 L 418,269 L 419,268 L 420,267 L 420,266 L 420,265 L 420,264 L 420,263 L 419,262 L 419,261 L 419,260 L 419,259 L 419,258 L 419,257 L 419,256 L 419,255 L 419,254 L 420,254 L 420,253 L 421,253 L 423,252 L 425,252 L 427,251 L 428,250 L 430,250 L 431,249 L 432,249 L 433,249 L 434,248 L 435,247 L 436,245 L 436,243 L 436,242 L 436,241 L 435,240 L 435,239 L 434,239 L 434,237 L 433,237 L 433,236 L 432,235 L 433,234 L 433,233 L 433,232 L 433,231 L 434,231 L 435,231 L 435,230 L 436,230 L 437,230 L 438,229 L 439,229 L 439,228 L 440,227 L 441,226 L 441,225 L 442,224 L 442,223 L 443,223 L 443,222 L 444,221 L 445,220 L 446,219 L 446,217 L 446,216 L 447,215 L 447,214 L 447,213 L 447,212 L 446,211 L 446,209 L 445,208 L 443,207 L 442,206 L 443,204 L 444,202 L 444,201 L 445,201 L 446,199 L 451,197 L 452,197 L 453,196 L 455,195 L 456,194 L 457,192 L 458,189 L 459,187 L 459,185 L 461,181 L 461,177 L 462,176 L 463,172 L 464,170 L 464,169 L 464,168 L 467,168 L 471,168 L 475,169 L 478,172 L 479,173 L 480,174 L 482,174 L 483,172 L 484,171 L 486,169 L 486,168 L 487,166 L 486,163 L 483,162 L 481,161 L 479,160 L 478,159 L 477,158 L 476,156 L 475,155 L 475,153 L 476,151 L 477,149 L 478,148 L 480,147 L 480,146 L 481,145 L 482,145 L 484,144 L 487,143 L 489,141 L 490,140 L 490,138 L 490,136 L 489,133 L 487,130 L 486,128 L 485,126 L 485,124 L 486,123 L 487,123 L 488,122 L 490,123 L 491,123 L 492,123 L 494,124 L 496,124 L 498,124 L 499,123 L 499,122 L 499,121 L 499,120 L 499,119 L 499,118 L 498,118 L 498,116 L 496,114 L 495,113 L 494,112 L 493,111 L 491,107 L 491,106 L 491,105 L 490,103 L 490,100 L 491,99 L 491,95 L 492,91 L 494,89 L 495,87 L 495,86 L 497,85 L 499,84 L 499,83 L 500,82 L 502,81 L 503,80 L 506,78 L 509,76 L 510,75 L 512,74 L 514,73 L 516,73 L 518,74 L 521,75 L 523,74 L 525,73 L 526,70 L 527,69 L 529,67 L 531,66 L 533,64 L 535,62 L 537,60 L 540,58 L 542,56 L 543,56 L 543,55 L 544,55 L 547,55 L 550,55 L 553,54 L 557,53 L 558,52 L 561,52 L 563,51 L 565,50 L 569,49 L 570,48 L 571,47 L 572,46 L 573,46 L 575,45 L 582,40 L 583,38 L 585,26 L 587,23 L 589,22 L 592,22 L 594,23 L 595,24 L 598,25 L 601,25 L 602,24 L 605,21 L 607,21 L 609,21 L 610,23 L 611,24 L 612,24 L 613,25 L 615,26 L 617,26 L 619,27 L 620,27 L 621,26 L 622,26 L 625,29 L 629,30 L 635,30 L 638,27 L 639,26 L 643,20 L 644,19 L 645,19 L 647,19 L 648,19 L 648,21 L 648,23 L 648,25 L 649,27 L 649,28 L 650,30 L 652,30 L 655,29 L 656,27 L 658,23 L 661,19 L 665,17 L 666,16 L 668,14 L 669,14 L 671,13 L 674,12 L 675,12 L 676,12 L 679,13 L 681,14 L 682,14 L 683,14 L 688,18 L 691,21 L 691,25 L 690,27 L 690,29 L 690,30 L 689,33 L 689,35 L 688,37 L 686,43 L 685,44 L 685,45 L 685,46 L 684,47 L 684,48 L 683,49 L 676,57 " class="svg-range5" data-original-title="&lt;b&gt;DAGO&lt;/b&gt;&lt;br /&gt;263" title=""/>
</g>
</g>
</g>
<g id="3273230_id2012__3273230001" inkscape:groupmode="layer" inkscape:label="3273230_id2012__3273230001">
<g stroke="rgb(0,0,0)" fill="rgb(164,156,71)" stroke-linejoin="round" stroke-width="0.26">
<g id="3273230_id2012__3273230001_1">
<path d="M 433,306 L 433,311 L 434,314 L 435,316 L 434,317 L 434,318 L 433,319 L 432,320 L 431,322 L 430,322 L 429,323 L 429,325 L 426,328 L 424,329 L 421,329 L 419,328 L 416,330 L 415,331 L 415,332 L 414,333 L 413,335 L 413,336 L 412,336 L 411,337 L 408,338 L 407,339 L 406,340 L 405,342 L 404,343 L 403,346 L 402,350 L 402,352 L 402,353 L 403,355 L 403,360 L 402,366 L 402,367 L 402,370 L 403,373 L 403,374 L 404,377 L 406,383 L 407,385 L 408,389 L 408,390 L 407,393 L 408,395 L 410,398 L 410,399 L 411,400 L 411,402 L 412,405 L 413,405 L 414,406 L 413,407 L 412,408 L 412,410 L 410,413 L 409,415 L 407,418 L 410,419 L 410,420 L 411,420 L 412,422 L 413,424 L 415,427 L 416,428 L 417,428 L 418,430 L 421,430 L 422,432 L 424,436 L 424,439 L 425,440 L 425,441 L 426,442 L 427,445 L 426,446 L 425,448 L 424,450 L 423,452 L 422,453 L 422,454 L 421,455 L 418,456 L 417,455 L 415,453 L 412,452 L 411,452 L 408,452 L 407,452 L 407,453 L 403,453 L 402,453 L 401,454 L 398,454 L 393,455 L 392,455 L 386,457 L 383,457 L 382,458 L 382,459 L 382,466 L 382,468 L 382,474 L 382,476 L 383,481 L 383,482 L 383,485 L 383,486 L 383,487 L 383,488 L 383,490 L 384,494 L 385,507 L 385,510 L 385,516 L 385,517 L 386,522 L 380,523 L 378,523 L 374,523 L 373,523 L 370,523 L 370,522 L 367,522 L 366,522 L 358,522 L 358,519 L 358,512 L 358,511 L 358,495 L 358,492 L 358,490 L 358,488 L 358,466 L 358,463 L 358,462 L 359,462 L 359,461 L 359,460 L 360,454 L 361,446 L 361,444 L 362,442 L 362,441 L 363,438 L 363,436 L 363,433 L 363,429 L 362,422 L 362,416 L 362,415 L 361,413 L 361,410 L 361,408 L 361,406 L 361,404 L 361,401 L 361,397 L 361,394 L 360,370 L 359,365 L 359,357 L 357,350 L 356,345 L 356,342 L 354,335 L 353,325 L 352,321 L 351,316 L 351,313 L 350,312 L 350,309 L 349,306 L 348,303 L 348,302 L 347,300 L 347,299 L 346,297 L 346,295 L 344,290 L 343,287 L 343,286 L 342,284 L 342,283 L 341,280 L 342,281 L 343,281 L 346,281 L 347,281 L 349,282 L 354,282 L 362,285 L 364,286 L 370,288 L 371,288 L 372,289 L 375,290 L 376,291 L 378,292 L 378,293 L 379,293 L 380,295 L 383,298 L 383,299 L 384,300 L 385,301 L 385,303 L 386,304 L 386,305 L 387,306 L 387,307 L 389,310 L 390,312 L 390,310 L 391,309 L 391,308 L 391,307 L 393,302 L 393,301 L 393,300 L 394,298 L 394,295 L 395,294 L 396,291 L 396,290 L 398,289 L 402,289 L 403,290 L 405,292 L 406,293 L 407,296 L 409,298 L 410,299 L 412,301 L 414,303 L 415,304 L 417,306 L 418,306 L 419,307 L 422,307 L 423,307 L 425,307 L 428,307 L 429,307 L 430,306 L 431,306 L 433,306 " class="svg-range2" data-original-title="&lt;b&gt;CIPAGANTI&lt;/b&gt;&lt;br /&gt;79" title=""/>
</g>
</g>
</g>
<g id="3273230_id2012__3273230002" inkscape:groupmode="layer" inkscape:label="3273230_id2012__3273230002">
<g stroke="rgb(0,0,0)" fill="rgb(118,117,217)" stroke-linejoin="round" stroke-width="0.26">
<g id="3273230_id2012__3273230002_1">
<path d="M 517,315 L 517,317 L 517,320 L 517,321 L 515,340 L 515,345 L 514,353 L 513,375 L 512,377 L 512,380 L 510,398 L 509,400 L 509,402 L 508,419 L 508,421 L 507,423 L 507,433 L 507,434 L 506,447 L 506,448 L 506,453 L 505,461 L 505,469 L 504,493 L 504,497 L 504,500 L 504,501 L 504,504 L 504,506 L 501,506 L 500,506 L 499,505 L 496,505 L 495,505 L 492,505 L 487,504 L 474,500 L 469,498 L 464,496 L 462,495 L 460,495 L 459,494 L 457,494 L 456,493 L 455,491 L 456,488 L 455,485 L 456,481 L 453,475 L 452,476 L 452,475 L 451,475 L 450,474 L 443,468 L 441,467 L 440,466 L 436,464 L 436,463 L 435,463 L 432,461 L 430,460 L 428,460 L 422,458 L 420,459 L 419,459 L 419,458 L 419,457 L 418,456 L 421,455 L 422,454 L 422,453 L 423,452 L 424,450 L 425,448 L 426,446 L 427,445 L 426,442 L 425,441 L 425,440 L 424,439 L 424,436 L 422,432 L 421,430 L 418,430 L 417,428 L 416,428 L 415,427 L 413,424 L 412,422 L 411,420 L 410,420 L 410,419 L 407,418 L 409,415 L 410,413 L 412,410 L 412,408 L 413,407 L 414,406 L 413,405 L 412,405 L 411,402 L 411,400 L 410,399 L 410,398 L 408,395 L 407,393 L 408,390 L 408,389 L 407,385 L 406,383 L 404,377 L 403,374 L 403,373 L 402,370 L 402,367 L 402,366 L 403,360 L 403,355 L 402,353 L 402,352 L 402,350 L 403,346 L 404,343 L 405,342 L 406,340 L 407,339 L 408,338 L 411,337 L 412,336 L 413,336 L 413,335 L 414,333 L 415,332 L 415,331 L 416,330 L 419,328 L 421,329 L 424,329 L 426,328 L 429,325 L 429,323 L 430,322 L 431,322 L 432,320 L 433,319 L 434,318 L 434,317 L 435,316 L 434,314 L 433,311 L 433,306 L 434,306 L 435,306 L 436,306 L 438,306 L 440,308 L 441,309 L 442,309 L 444,310 L 447,310 L 449,310 L 451,309 L 453,308 L 457,307 L 461,305 L 465,304 L 471,304 L 477,305 L 481,307 L 484,308 L 485,309 L 486,310 L 486,311 L 487,312 L 487,314 L 492,311 L 498,312 L 505,313 L 509,314 L 517,315 " class="svg-range1" data-original-title="&lt;b&gt;LEBAK SILIWANGI&lt;/b&gt;&lt;br /&gt;58" title=""/>
</g>
</g>
</g>
<g id="3273230_id2012__3273230003" inkscape:groupmode="layer" inkscape:label="3273230_id2012__3273230003">
<g stroke="rgb(0,0,0)" fill="rgb(114,177,153)" stroke-linejoin="round" stroke-width="0.26">
<g id="3273230_id2012__3273230003_1">
<path d="M 602,410 L 601,412 L 599,414 L 599,415 L 598,416 L 597,419 L 596,420 L 595,422 L 594,424 L 594,425 L 594,427 L 593,429 L 592,429 L 593,430 L 592,433 L 591,434 L 590,435 L 588,436 L 588,438 L 588,440 L 588,442 L 588,443 L 588,444 L 588,452 L 588,454 L 588,455 L 588,456 L 588,458 L 588,459 L 588,463 L 588,472 L 588,475 L 589,477 L 589,486 L 589,495 L 589,497 L 590,499 L 590,501 L 590,509 L 586,509 L 585,509 L 581,509 L 578,509 L 577,509 L 575,509 L 573,509 L 571,509 L 563,509 L 556,508 L 552,510 L 551,507 L 550,507 L 549,507 L 548,507 L 546,507 L 545,506 L 543,506 L 540,506 L 537,506 L 536,506 L 533,506 L 530,506 L 529,506 L 528,506 L 525,506 L 523,506 L 522,506 L 517,506 L 514,506 L 513,506 L 512,506 L 507,506 L 506,506 L 505,506 L 504,506 L 504,504 L 504,501 L 504,500 L 504,497 L 504,493 L 505,469 L 505,461 L 506,453 L 506,448 L 506,447 L 507,434 L 507,433 L 507,423 L 508,421 L 508,419 L 509,402 L 509,400 L 510,398 L 512,380 L 512,377 L 513,375 L 514,353 L 515,345 L 515,340 L 517,321 L 517,320 L 517,317 L 517,315 L 517,314 L 518,312 L 518,310 L 519,306 L 519,304 L 520,303 L 520,302 L 520,301 L 521,299 L 522,297 L 523,294 L 524,293 L 525,293 L 526,292 L 528,289 L 530,294 L 532,300 L 533,302 L 535,305 L 535,306 L 536,308 L 537,308 L 538,309 L 540,310 L 543,311 L 545,311 L 545,312 L 548,312 L 549,312 L 550,313 L 554,314 L 553,318 L 553,322 L 552,326 L 552,328 L 552,329 L 552,330 L 553,334 L 554,337 L 554,338 L 554,339 L 554,341 L 554,343 L 554,344 L 555,352 L 555,353 L 556,355 L 556,356 L 557,360 L 557,361 L 558,362 L 558,363 L 559,364 L 559,366 L 560,367 L 562,369 L 563,369 L 564,369 L 568,369 L 571,370 L 573,370 L 573,369 L 574,369 L 575,368 L 576,368 L 577,368 L 577,367 L 579,366 L 580,365 L 581,365 L 586,363 L 587,363 L 588,363 L 589,362 L 592,362 L 593,362 L 595,362 L 597,362 L 599,363 L 602,364 L 604,365 L 606,365 L 607,366 L 608,366 L 610,367 L 611,367 L 612,367 L 617,367 L 618,368 L 618,369 L 619,372 L 619,375 L 619,377 L 619,378 L 619,379 L 620,381 L 620,382 L 619,386 L 618,389 L 618,390 L 618,391 L 617,392 L 614,391 L 614,394 L 613,395 L 612,395 L 611,396 L 610,397 L 610,398 L 609,400 L 608,402 L 607,403 L 606,404 L 605,405 L 604,407 L 603,408 L 602,410 " class="svg-range1" data-original-title="&lt;b&gt;LEBAK GEDE&lt;/b&gt;&lt;br /&gt;25" title=""/>
</g>
</g>
</g>
</svg></svg>