<svg id="svg-map" width="null" height="null" xmlns="http://www.w3.org/2000/svg" style="animation-delay: 0s; animation-direction: normal; animation-duration: 0s; animation-fill-mode: none; animation-iteration-count: 1; animation-name: none; animation-play-state: running; animation-timing-function: ease; background-attachment: scroll; background-blend-mode: normal; background-clip: border-box; background-color: rgba(0, 0, 0, 0); background-image: none; background-origin: padding-box; background-position: 0% 0%; background-repeat: repeat; background-size: auto; border-bottom-color: rgb(255, 255, 255); border-bottom-left-radius: 0px; border-bottom-right-radius: 0px; border-bottom-style: none; border-bottom-width: 0px; border-collapse: separate; border-image-outset: 0px; border-image-repeat: stretch; border-image-slice: 100%; border-image-source: none; border-image-width: 1; border-left-color: rgb(255, 255, 255); border-left-style: none; border-left-width: 0px; border-right-color: rgb(255, 255, 255); border-right-style: none; border-right-width: 0px; border-top-color: rgb(255, 255, 255); border-top-left-radius: 0px; border-top-right-radius: 0px; border-top-style: none; border-top-width: 0px; bottom: auto; box-shadow: none; box-sizing: border-box; break-after: auto; break-before: auto; break-inside: auto; caption-side: top; clear: none; clip: auto; color: rgb(255, 255, 255); content: ; cursor: auto; direction: ltr; display: inline; empty-cells: show; float: none; font-family: &quot;Open Sans&quot;, sans-serif; font-kerning: auto; font-size: 13px; font-stretch: normal; font-style: normal; font-variant: normal; font-variant-ligatures: normal; font-variant-caps: normal; font-variant-numeric: normal; font-weight: normal; height: 303.953px; image-rendering: auto; isolation: auto; left: auto; letter-spacing: normal; line-height: 18.5714px; list-style-image: none; list-style-position: outside; list-style-type: disc; margin-bottom: 0px; margin-left: 0px; margin-right: 0px; margin-top: 0px; max-height: 400px; max-width: none; min-height: 0px; min-width: 0px; mix-blend-mode: normal; motion-offset: 0px; motion-path: none; motion-rotation: auto 0deg; object-fit: fill; object-position: 50% 50%; opacity: 1; orphans: 2; outline-color: rgb(255, 255, 255); outline-offset: 0px; outline-style: none; outline-width: 0px; overflow-wrap: normal; overflow-x: hidden; overflow-y: hidden; padding-bottom: 0px; padding-left: 0px; padding-right: 0px; padding-top: 0px; pointer-events: auto; position: static; resize: none; right: auto; speak: normal; table-layout: auto; tab-size: 8; text-align: center; text-align-last: auto; text-decoration: none; text-indent: 0px; text-rendering: auto; text-shadow: none; text-size-adjust: 100%; text-overflow: clip; text-transform: none; top: auto; touch-action: auto; transition-delay: 0s; transition-duration: 0s; transition-property: all; transition-timing-function: ease; unicode-bidi: normal; vertical-align: baseline; visibility: visible; white-space: normal; widows: 2; width: 617.5px; will-change: auto; word-break: normal; word-spacing: 0px; word-wrap: normal; z-index: auto; zoom: 1; -webkit-appearance: none; backface-visibility: visible; -webkit-background-clip: border-box; -webkit-background-origin: padding-box; -webkit-border-horizontal-spacing: 0px; -webkit-border-image: none; -webkit-border-vertical-spacing: 0px; -webkit-box-align: stretch; -webkit-box-decoration-break: slice; -webkit-box-direction: normal; -webkit-box-flex: 0; -webkit-box-flex-group: 1; -webkit-box-lines: single; -webkit-box-ordinal-group: 1; -webkit-box-orient: horizontal; -webkit-box-pack: start; -webkit-box-reflect: none; -webkit-clip-path: none; column-count: auto; column-gap: normal; column-rule-color: rgb(255, 255, 255); column-rule-style: none; column-rule-width: 0px; column-span: none; column-width: auto; align-content: stretch; align-items: stretch; align-self: stretch; flex-basis: auto; flex-grow: 0; flex-shrink: 1; flex-direction: row; flex-wrap: nowrap; justify-content: flex-start; -webkit-font-smoothing: auto; -webkit-highlight: none; -webkit-hyphenate-character: auto; -webkit-line-break: auto; -webkit-line-clamp: none; -webkit-locale: &quot;en&quot;; -webkit-margin-before-collapse: collapse; -webkit-margin-after-collapse: collapse; -webkit-mask-box-image: none; -webkit-mask-box-image-outset: 0px; -webkit-mask-box-image-repeat: stretch; -webkit-mask-box-image-slice: 0 fill; -webkit-mask-box-image-source: none; -webkit-mask-box-image-width: auto; -webkit-mask-clip: border-box; -webkit-mask-composite: source-over; -webkit-mask-image: none; -webkit-mask-origin: border-box; -webkit-mask-position: 0% 0%; -webkit-mask-repeat: repeat; -webkit-mask-size: auto; order: 0; perspective: none; perspective-origin: 308.75px 151.969px; -webkit-print-color-adjust: economy; -webkit-rtl-ordering: logical; shape-outside: none; shape-image-threshold: 0; shape-margin: 0px; -webkit-tap-highlight-color: rgba(0, 0, 0, 0); -webkit-text-combine: none; -webkit-text-decorations-in-effect: none; -webkit-text-emphasis-color: rgb(255, 255, 255); -webkit-text-emphasis-position: over; -webkit-text-emphasis-style: none; -webkit-text-fill-color: rgb(255, 255, 255); -webkit-text-orientation: vertical-right; -webkit-text-security: none; -webkit-text-stroke-color: rgb(255, 255, 255); -webkit-text-stroke-width: 0px; transform: none; transform-origin: 308.75px 151.969px; transform-style: flat; -webkit-user-drag: auto; -webkit-user-modify: read-only; user-select: text; -webkit-writing-mode: horizontal-tb; -webkit-app-region: no-drag; buffered-rendering: auto; clip-path: none; clip-rule: nonzero; mask: none; filter: none; flood-color: rgb(0, 0, 0); flood-opacity: 1; lighting-color: rgb(255, 255, 255); stop-color: rgb(0, 0, 0); stop-opacity: 1; color-interpolation: sRGB; color-interpolation-filters: linearRGB; color-rendering: auto; fill: rgb(0, 0, 0); fill-opacity: 1; fill-rule: nonzero; marker-end: none; marker-mid: none; marker-start: none; mask-type: luminance; shape-rendering: auto; stroke: none; stroke-dasharray: none; stroke-dashoffset: 0px; stroke-linecap: butt; stroke-linejoin: miter; stroke-miterlimit: 4; stroke-opacity: 1; stroke-width: 1px; alignment-baseline: auto; baseline-shift: 0px; dominant-baseline: auto; text-anchor: start; writing-mode: horizontal-tb; vector-effect: none; paint-order: fill stroke markers; d: none; cx: 0px; cy: 0px; x: 0px; y: 0px; r: 0px; rx: auto; ry: auto;" version="1.1" xmlns:xlink="http://www.w3.org/1999/xlink"><style type="text/css">svg:not(:root) { overflow: hidden; }
* { box-sizing: border-box; }
* { font-size: 13px; }
svg { max-height: 100vh; border: none !important; }
#svg-map svg { max-height: 400px; }
#svg-map svg path { fill: rgb(153, 196, 176); stroke: rgb(51, 51, 51); stroke-width: 1; }
#svg-map svg path.svg-range1 { fill: rgb(194, 223, 115); }
#svg-map svg path.svg-range2 { fill: rgb(160, 189, 83); }
#svg-map svg path.svg-range4 { fill: rgb(189, 143, 83); }
#svg-map svg path.svg-range5 { fill: rgb(175, 96, 68); }</style><svg xmlns="http://www.w3.org/2000/svg" xmlns:inkscape="http://www.inkscape.org/namespaces/inkscape" xmlns:xlink="http://www.w3.org/1999/xlink" viewBox="0 0 1097 540" version="1.1">
<!-- svg generated using QGIS www.qgis.org -->
<g id="3273120_id2012__3273120005" inkscape:groupmode="layer" inkscape:label="3273120_id2012__3273120005">
<g stroke="rgb(0,0,0)" fill="rgb(115,114,161)" stroke-linejoin="round" stroke-width="0.26">
<g id="3273120_id2012__3273120005_1">
<path d="M 596,18 L 599,19 L 605,20 L 607,20 L 610,20 L 613,20 L 617,20 L 618,21 L 619,21 L 624,23 L 631,25 L 635,25 L 639,26 L 642,27 L 645,28 L 645,27 L 646,26 L 647,26 L 649,26 L 651,27 L 652,27 L 654,27 L 656,25 L 657,24 L 659,24 L 663,26 L 670,31 L 666,36 L 661,40 L 658,44 L 657,45 L 655,47 L 651,51 L 649,54 L 647,58 L 645,60 L 643,60 L 642,62 L 641,67 L 641,72 L 640,73 L 640,75 L 640,76 L 640,77 L 638,80 L 636,86 L 635,89 L 636,90 L 637,92 L 638,94 L 641,96 L 643,99 L 643,100 L 643,101 L 642,102 L 640,106 L 636,109 L 635,110 L 633,113 L 632,114 L 633,115 L 633,117 L 634,120 L 634,121 L 634,123 L 633,126 L 633,130 L 633,132 L 634,134 L 634,135 L 634,137 L 634,139 L 635,139 L 635,143 L 635,146 L 634,147 L 634,149 L 633,152 L 632,152 L 631,153 L 629,153 L 627,154 L 625,158 L 622,160 L 621,161 L 620,164 L 620,166 L 619,170 L 616,169 L 613,177 L 612,179 L 612,181 L 611,183 L 610,185 L 617,189 L 615,196 L 619,199 L 617,206 L 621,208 L 616,218 L 612,216 L 607,213 L 607,232 L 607,235 L 606,239 L 604,243 L 603,246 L 602,250 L 602,255 L 600,256 L 597,257 L 595,257 L 594,258 L 592,260 L 592,262 L 592,263 L 594,266 L 595,267 L 597,269 L 599,270 L 600,271 L 601,273 L 601,274 L 599,276 L 598,277 L 595,278 L 591,279 L 586,281 L 584,282 L 583,283 L 584,285 L 585,289 L 585,290 L 585,292 L 583,294 L 580,298 L 577,301 L 576,303 L 575,306 L 574,307 L 573,309 L 572,312 L 570,318 L 569,320 L 569,321 L 568,322 L 568,324 L 566,326 L 568,328 L 571,329 L 568,334 L 570,336 L 569,336 L 568,338 L 566,342 L 565,344 L 564,345 L 560,351 L 561,352 L 560,353 L 558,356 L 556,357 L 552,358 L 551,359 L 549,360 L 545,361 L 543,362 L 541,362 L 540,365 L 538,367 L 537,369 L 536,372 L 535,374 L 535,377 L 534,379 L 534,380 L 534,381 L 532,384 L 531,388 L 530,389 L 530,391 L 528,396 L 527,397 L 525,401 L 525,402 L 524,404 L 523,406 L 522,407 L 522,408 L 521,410 L 520,412 L 519,415 L 518,418 L 516,418 L 514,417 L 509,417 L 508,417 L 507,417 L 504,417 L 503,417 L 503,415 L 503,410 L 504,404 L 505,403 L 505,402 L 506,398 L 508,396 L 509,393 L 509,392 L 510,390 L 511,389 L 511,388 L 515,380 L 515,379 L 517,376 L 519,373 L 519,371 L 520,370 L 521,369 L 522,365 L 524,362 L 526,360 L 527,358 L 530,354 L 534,349 L 535,348 L 536,346 L 537,344 L 538,343 L 538,342 L 539,341 L 539,340 L 540,338 L 540,335 L 540,333 L 541,331 L 541,329 L 540,326 L 540,322 L 539,317 L 539,316 L 538,315 L 538,313 L 537,310 L 536,310 L 535,304 L 533,300 L 533,297 L 535,289 L 537,281 L 539,272 L 540,265 L 541,258 L 541,257 L 540,255 L 540,252 L 542,247 L 542,246 L 544,244 L 545,242 L 547,240 L 548,239 L 546,238 L 542,236 L 533,236 L 528,234 L 512,228 L 503,224 L 492,218 L 481,212 L 487,192 L 486,192 L 487,190 L 488,188 L 490,181 L 492,174 L 493,171 L 497,159 L 499,156 L 499,154 L 500,153 L 501,150 L 513,155 L 515,156 L 515,154 L 529,160 L 532,161 L 532,159 L 537,159 L 545,159 L 544,159 L 544,152 L 544,149 L 545,147 L 545,144 L 546,138 L 547,136 L 547,135 L 547,132 L 548,129 L 549,126 L 551,124 L 551,122 L 552,120 L 553,118 L 553,115 L 553,113 L 552,111 L 549,105 L 548,101 L 546,96 L 545,94 L 544,92 L 544,91 L 541,87 L 538,81 L 538,78 L 538,74 L 540,65 L 542,62 L 544,57 L 545,56 L 546,54 L 547,52 L 547,47 L 548,46 L 550,46 L 551,46 L 552,46 L 560,49 L 561,49 L 562,49 L 563,49 L 565,50 L 567,51 L 569,51 L 570,51 L 572,52 L 574,52 L 576,51 L 577,51 L 579,50 L 580,49 L 582,47 L 585,44 L 587,42 L 589,40 L 591,37 L 593,36 L 594,34 L 595,32 L 595,27 L 595,22 L 595,18 L 596,18 " class="svg-range5" data-original-title="&lt;b&gt;PASIR WANGI&lt;/b&gt;&lt;br /&gt;289" title=""/>
</g>
</g>
</g>
<g id="3273120_id2012__3273120006" inkscape:groupmode="layer" inkscape:label="3273120_id2012__3273120006">
<g stroke="rgb(0,0,0)" fill="rgb(171,9,58)" stroke-linejoin="round" stroke-width="0.26">
<g id="3273120_id2012__3273120006_1">
<path d="M 536,310 L 537,310 L 538,313 L 538,315 L 539,316 L 539,317 L 540,322 L 540,326 L 541,329 L 541,331 L 540,333 L 540,335 L 540,338 L 539,340 L 539,341 L 538,342 L 538,343 L 537,344 L 536,346 L 535,348 L 534,349 L 530,354 L 527,358 L 526,360 L 524,362 L 522,365 L 521,369 L 520,370 L 519,371 L 519,373 L 517,376 L 515,379 L 515,380 L 511,388 L 511,389 L 510,390 L 509,392 L 509,393 L 508,396 L 506,398 L 505,402 L 505,403 L 504,404 L 503,410 L 503,415 L 503,417 L 502,417 L 500,417 L 497,416 L 496,416 L 495,416 L 493,416 L 492,416 L 489,416 L 488,416 L 485,416 L 483,416 L 482,416 L 474,416 L 473,416 L 472,416 L 470,416 L 469,416 L 468,416 L 462,415 L 460,415 L 455,415 L 453,415 L 450,415 L 449,415 L 448,415 L 446,415 L 445,415 L 444,415 L 442,415 L 439,415 L 438,415 L 436,415 L 432,415 L 431,415 L 430,415 L 429,415 L 428,415 L 425,415 L 423,415 L 422,415 L 420,414 L 419,414 L 418,414 L 411,412 L 409,412 L 408,411 L 407,411 L 404,410 L 400,409 L 399,408 L 398,408 L 397,408 L 395,407 L 391,406 L 389,405 L 386,404 L 384,404 L 378,402 L 377,402 L 376,401 L 373,400 L 371,400 L 371,399 L 370,399 L 369,399 L 360,396 L 358,395 L 357,395 L 354,394 L 350,393 L 349,392 L 347,392 L 344,391 L 343,390 L 342,390 L 341,390 L 340,389 L 339,389 L 337,388 L 335,388 L 334,387 L 333,387 L 330,382 L 328,379 L 328,377 L 330,374 L 331,372 L 332,370 L 334,368 L 336,365 L 337,364 L 338,363 L 340,362 L 343,356 L 347,352 L 348,350 L 349,348 L 350,345 L 354,340 L 356,338 L 357,336 L 358,336 L 359,335 L 360,334 L 360,333 L 360,331 L 361,329 L 363,327 L 364,325 L 365,324 L 365,323 L 367,322 L 369,321 L 370,321 L 371,321 L 372,320 L 373,318 L 374,317 L 375,315 L 375,314 L 376,312 L 376,310 L 377,308 L 378,306 L 378,305 L 379,305 L 380,305 L 382,301 L 383,299 L 384,297 L 384,296 L 385,294 L 386,292 L 389,289 L 391,286 L 392,285 L 394,287 L 395,288 L 396,289 L 398,291 L 399,291 L 400,291 L 401,292 L 403,293 L 405,294 L 409,296 L 411,296 L 415,297 L 417,298 L 418,298 L 421,299 L 423,300 L 425,301 L 429,303 L 433,305 L 435,305 L 438,307 L 442,309 L 443,309 L 445,309 L 448,309 L 450,309 L 453,308 L 454,308 L 455,308 L 456,309 L 457,309 L 459,310 L 463,313 L 465,315 L 466,316 L 467,317 L 468,319 L 470,320 L 471,320 L 472,320 L 473,321 L 474,318 L 475,317 L 477,315 L 478,313 L 479,312 L 480,311 L 482,309 L 483,309 L 484,309 L 485,310 L 495,315 L 497,315 L 503,318 L 505,319 L 506,319 L 512,306 L 513,303 L 521,303 L 523,303 L 525,303 L 529,306 L 536,310 " class="svg-range2" data-original-title="&lt;b&gt;CIGENDING&lt;/b&gt;&lt;br /&gt;151" title=""/>
</g>
</g>
</g>
<g id="3273120_id2012__3273120007" inkscape:groupmode="layer" inkscape:label="3273120_id2012__3273120007">
<g stroke="rgb(0,0,0)" fill="rgb(73,107,221)" stroke-linejoin="round" stroke-width="0.26">
<g id="3273120_id2012__3273120007_1">
<path d="M 292,139 L 292,142 L 292,144 L 291,146 L 290,149 L 289,151 L 289,153 L 290,154 L 291,154 L 292,154 L 294,154 L 296,154 L 297,155 L 297,156 L 298,156 L 299,156 L 300,156 L 302,157 L 303,158 L 303,159 L 304,160 L 305,162 L 305,165 L 303,169 L 303,171 L 305,172 L 307,173 L 310,175 L 311,176 L 312,177 L 312,179 L 314,182 L 315,185 L 318,187 L 327,193 L 332,196 L 334,199 L 335,200 L 336,201 L 337,202 L 338,203 L 338,204 L 339,204 L 340,205 L 341,206 L 343,207 L 344,207 L 345,208 L 346,209 L 347,209 L 349,209 L 351,209 L 354,209 L 358,210 L 360,210 L 361,210 L 364,210 L 366,210 L 368,210 L 369,210 L 370,210 L 371,211 L 372,213 L 373,214 L 374,214 L 377,218 L 379,220 L 381,224 L 382,225 L 383,225 L 385,228 L 387,230 L 388,231 L 388,232 L 391,235 L 391,239 L 390,245 L 389,252 L 387,255 L 386,257 L 381,259 L 376,259 L 371,259 L 369,258 L 363,258 L 363,259 L 362,260 L 361,262 L 359,266 L 358,270 L 357,271 L 355,274 L 356,275 L 358,275 L 361,275 L 369,276 L 371,277 L 373,277 L 376,278 L 379,278 L 382,279 L 384,280 L 385,281 L 386,282 L 389,283 L 390,284 L 392,285 L 391,286 L 389,289 L 386,292 L 385,294 L 384,296 L 384,297 L 383,299 L 382,301 L 380,305 L 379,305 L 378,305 L 378,306 L 377,308 L 376,310 L 376,312 L 375,314 L 375,315 L 374,317 L 373,318 L 372,320 L 371,321 L 370,321 L 369,321 L 367,322 L 365,323 L 365,324 L 364,325 L 363,327 L 361,329 L 360,331 L 360,333 L 360,334 L 359,335 L 358,336 L 357,336 L 356,338 L 354,340 L 350,345 L 349,348 L 348,350 L 347,352 L 343,356 L 340,362 L 338,363 L 337,364 L 336,365 L 334,368 L 332,370 L 331,372 L 330,374 L 328,377 L 328,379 L 330,382 L 333,387 L 329,385 L 327,384 L 326,383 L 325,382 L 324,381 L 321,377 L 318,374 L 316,372 L 316,371 L 315,370 L 314,370 L 313,369 L 313,368 L 312,367 L 310,365 L 309,364 L 308,362 L 307,362 L 306,360 L 306,359 L 302,353 L 300,351 L 300,350 L 298,348 L 297,347 L 291,337 L 290,336 L 289,334 L 289,333 L 287,331 L 285,328 L 284,328 L 283,325 L 282,324 L 280,322 L 277,319 L 273,316 L 271,314 L 269,314 L 265,312 L 262,310 L 258,309 L 255,308 L 252,306 L 249,305 L 246,304 L 245,303 L 244,298 L 244,296 L 243,295 L 243,293 L 243,292 L 242,290 L 242,289 L 243,288 L 244,288 L 245,286 L 246,286 L 246,285 L 247,285 L 247,284 L 248,284 L 248,283 L 249,282 L 249,281 L 248,280 L 248,279 L 248,277 L 249,276 L 249,273 L 251,270 L 252,268 L 252,267 L 253,265 L 254,263 L 254,262 L 256,260 L 257,258 L 259,257 L 261,256 L 263,253 L 264,250 L 263,247 L 263,245 L 265,242 L 266,240 L 267,240 L 267,239 L 267,238 L 267,237 L 266,236 L 266,234 L 266,232 L 265,231 L 264,230 L 262,227 L 262,226 L 261,225 L 260,223 L 258,221 L 257,220 L 256,219 L 255,218 L 254,217 L 253,216 L 252,216 L 251,214 L 250,213 L 249,212 L 248,211 L 248,209 L 247,209 L 247,208 L 247,207 L 251,207 L 250,205 L 251,203 L 250,202 L 251,199 L 251,197 L 251,196 L 250,195 L 250,194 L 251,193 L 250,192 L 250,190 L 251,189 L 249,187 L 248,185 L 249,184 L 249,183 L 249,182 L 249,181 L 250,180 L 251,178 L 252,177 L 252,176 L 251,174 L 250,171 L 250,170 L 250,169 L 250,167 L 251,167 L 251,166 L 252,165 L 252,164 L 252,163 L 252,162 L 252,160 L 252,159 L 252,157 L 254,154 L 254,153 L 253,151 L 254,150 L 255,148 L 257,146 L 257,145 L 258,145 L 258,143 L 259,142 L 258,140 L 257,137 L 257,136 L 256,135 L 256,134 L 256,133 L 256,132 L 256,131 L 257,130 L 259,131 L 262,132 L 268,133 L 270,134 L 271,134 L 273,135 L 274,135 L 276,136 L 279,136 L 281,137 L 283,137 L 286,137 L 287,137 L 290,137 L 291,138 L 292,138 L 292,139 " class="svg-range1" data-original-title="&lt;b&gt;PASIR ENDAH&lt;/b&gt;&lt;br /&gt;62" title=""/>
</g>
</g>
</g>
<g id="3273120_id2012__3273120003" inkscape:groupmode="layer" inkscape:label="3273120_id2012__3273120003">
<g stroke="rgb(0,0,0)" fill="rgb(138,234,93)" stroke-linejoin="round" stroke-width="0.26">
<g id="3273120_id2012__3273120003_1">
<path d="M 766,217 L 766,218 L 765,219 L 765,220 L 765,221 L 765,222 L 763,224 L 761,225 L 757,226 L 754,227 L 754,228 L 753,228 L 753,229 L 753,231 L 753,232 L 753,233 L 754,234 L 754,236 L 754,237 L 754,238 L 753,240 L 752,240 L 751,241 L 750,242 L 749,244 L 748,246 L 749,249 L 748,251 L 747,253 L 745,255 L 741,259 L 742,260 L 742,261 L 743,262 L 745,265 L 746,266 L 744,269 L 746,270 L 747,270 L 752,267 L 756,266 L 759,265 L 760,265 L 762,264 L 763,264 L 765,264 L 766,263 L 767,263 L 771,262 L 772,260 L 774,259 L 776,257 L 779,254 L 781,253 L 785,255 L 788,256 L 790,257 L 792,258 L 795,259 L 796,260 L 797,260 L 800,261 L 802,262 L 806,264 L 812,266 L 814,268 L 815,268 L 818,269 L 820,270 L 821,271 L 822,271 L 823,272 L 825,273 L 828,274 L 830,275 L 832,276 L 833,277 L 834,277 L 834,278 L 836,279 L 837,280 L 838,280 L 840,282 L 843,283 L 849,288 L 850,289 L 850,293 L 850,298 L 850,301 L 848,302 L 848,303 L 845,305 L 843,306 L 843,308 L 846,312 L 847,315 L 847,317 L 844,318 L 841,319 L 838,320 L 837,320 L 836,321 L 835,322 L 834,325 L 834,326 L 833,327 L 832,328 L 829,329 L 827,328 L 825,328 L 824,330 L 822,331 L 819,333 L 816,332 L 813,331 L 807,328 L 806,329 L 805,332 L 804,335 L 803,337 L 803,338 L 802,339 L 802,340 L 800,344 L 800,347 L 799,350 L 797,355 L 796,358 L 795,359 L 794,361 L 793,364 L 789,367 L 785,368 L 784,368 L 783,368 L 782,368 L 781,368 L 780,368 L 780,369 L 778,369 L 777,371 L 777,374 L 776,376 L 773,383 L 772,385 L 767,388 L 766,389 L 763,391 L 760,393 L 759,393 L 752,399 L 751,400 L 746,402 L 743,404 L 741,405 L 739,406 L 737,406 L 734,407 L 729,409 L 727,410 L 724,411 L 720,413 L 714,417 L 712,418 L 710,419 L 708,420 L 707,421 L 705,422 L 703,423 L 701,424 L 699,425 L 697,427 L 692,431 L 687,433 L 684,434 L 683,434 L 679,432 L 677,433 L 674,436 L 674,437 L 673,438 L 671,440 L 670,440 L 670,441 L 669,442 L 668,443 L 667,443 L 667,444 L 666,445 L 665,446 L 662,449 L 660,451 L 658,453 L 657,455 L 657,456 L 656,457 L 656,458 L 655,459 L 655,460 L 655,462 L 656,464 L 656,466 L 657,469 L 660,470 L 656,474 L 655,476 L 656,477 L 657,478 L 656,480 L 655,481 L 652,485 L 651,486 L 649,487 L 648,488 L 647,489 L 645,490 L 644,491 L 642,492 L 640,494 L 639,495 L 638,496 L 634,499 L 636,500 L 637,502 L 637,503 L 637,504 L 636,504 L 636,505 L 635,506 L 634,507 L 633,509 L 632,511 L 632,513 L 631,513 L 630,514 L 629,516 L 628,516 L 627,517 L 626,517 L 626,518 L 626,519 L 625,520 L 624,521 L 623,522 L 622,522 L 622,523 L 620,522 L 618,519 L 618,517 L 615,513 L 613,510 L 611,507 L 610,506 L 609,504 L 608,502 L 607,500 L 605,497 L 604,497 L 603,496 L 602,494 L 601,494 L 600,493 L 599,492 L 598,492 L 597,491 L 596,490 L 594,489 L 592,487 L 590,485 L 589,485 L 586,482 L 585,481 L 584,481 L 584,480 L 583,479 L 582,479 L 581,478 L 580,477 L 579,476 L 578,475 L 575,472 L 574,471 L 571,468 L 569,467 L 569,466 L 566,464 L 566,463 L 565,463 L 565,462 L 564,462 L 563,461 L 562,459 L 561,459 L 559,456 L 558,455 L 557,454 L 556,454 L 555,453 L 554,452 L 553,450 L 552,449 L 551,449 L 551,448 L 548,446 L 547,445 L 546,444 L 544,441 L 543,441 L 540,438 L 541,438 L 542,437 L 544,438 L 545,438 L 547,440 L 548,439 L 549,439 L 550,440 L 551,440 L 554,439 L 556,437 L 557,435 L 558,435 L 557,434 L 556,432 L 555,431 L 555,430 L 555,429 L 555,428 L 556,427 L 556,425 L 557,423 L 557,421 L 558,420 L 560,418 L 561,418 L 562,417 L 563,416 L 565,416 L 567,415 L 570,416 L 571,416 L 572,417 L 573,418 L 575,418 L 576,418 L 577,417 L 577,415 L 578,414 L 578,413 L 579,411 L 581,408 L 583,407 L 586,405 L 588,404 L 588,402 L 588,401 L 589,399 L 590,398 L 590,397 L 591,396 L 592,395 L 593,391 L 595,388 L 596,387 L 596,386 L 596,385 L 595,384 L 595,383 L 597,381 L 598,380 L 599,380 L 600,379 L 602,377 L 603,376 L 604,374 L 605,374 L 606,374 L 607,373 L 608,372 L 609,371 L 610,370 L 610,371 L 612,371 L 613,370 L 614,370 L 615,369 L 614,368 L 615,366 L 617,363 L 617,362 L 619,361 L 620,360 L 621,360 L 622,359 L 622,357 L 622,355 L 622,353 L 623,353 L 623,352 L 625,351 L 626,351 L 627,350 L 627,349 L 628,348 L 629,346 L 631,344 L 632,343 L 632,342 L 635,343 L 638,345 L 640,345 L 641,344 L 642,342 L 643,340 L 643,339 L 645,335 L 644,334 L 644,333 L 645,332 L 646,331 L 645,330 L 646,329 L 648,328 L 650,327 L 651,326 L 651,325 L 650,322 L 650,321 L 651,319 L 652,317 L 654,315 L 655,312 L 655,310 L 657,307 L 659,304 L 660,301 L 660,299 L 662,297 L 663,298 L 664,297 L 665,296 L 667,294 L 668,293 L 669,293 L 670,293 L 671,294 L 673,293 L 674,292 L 675,291 L 676,290 L 677,289 L 679,288 L 680,285 L 683,283 L 684,281 L 686,280 L 688,279 L 691,275 L 692,274 L 694,273 L 694,272 L 696,272 L 697,271 L 697,270 L 698,268 L 698,267 L 699,265 L 700,264 L 701,262 L 702,261 L 703,260 L 702,259 L 701,258 L 701,257 L 701,256 L 702,255 L 705,253 L 707,252 L 708,250 L 710,247 L 710,246 L 711,243 L 712,242 L 713,241 L 716,242 L 718,244 L 719,244 L 721,241 L 728,230 L 730,229 L 730,228 L 733,226 L 733,225 L 735,222 L 736,220 L 738,217 L 740,213 L 742,208 L 744,206 L 745,208 L 747,209 L 748,209 L 749,209 L 752,211 L 754,210 L 758,213 L 762,215 L 764,215 L 766,217 " class="svg-range5" data-original-title="&lt;b&gt;PASANGGRAHAN&lt;/b&gt;&lt;br /&gt;342" title=""/>
</g>
</g>
</g>
<g id="3273120_id2012__3273120004" inkscape:groupmode="layer" inkscape:label="3273120_id2012__3273120004">
<g stroke="rgb(0,0,0)" fill="rgb(157,69,63)" stroke-linejoin="round" stroke-width="0.26">
<g id="3273120_id2012__3273120004_1">
<path d="M 708,237 L 709,238 L 710,238 L 711,239 L 713,241 L 712,242 L 711,243 L 710,246 L 710,247 L 708,250 L 707,252 L 705,253 L 702,255 L 701,256 L 701,257 L 701,258 L 702,259 L 703,260 L 702,261 L 701,262 L 700,264 L 699,265 L 698,267 L 698,268 L 697,270 L 697,271 L 696,272 L 694,272 L 694,273 L 692,274 L 691,275 L 688,279 L 686,280 L 684,281 L 683,283 L 680,285 L 679,288 L 677,289 L 676,290 L 675,291 L 674,292 L 673,293 L 671,294 L 670,293 L 669,293 L 668,293 L 667,294 L 665,296 L 664,297 L 663,298 L 662,297 L 660,299 L 660,301 L 659,304 L 657,307 L 655,310 L 655,312 L 654,315 L 652,317 L 651,319 L 650,321 L 650,322 L 651,325 L 651,326 L 650,327 L 648,328 L 646,329 L 645,330 L 646,331 L 645,332 L 644,333 L 644,334 L 645,335 L 643,339 L 643,340 L 642,342 L 641,344 L 640,345 L 638,345 L 635,343 L 632,342 L 632,343 L 631,344 L 629,346 L 628,348 L 627,349 L 627,350 L 626,351 L 625,351 L 623,352 L 623,353 L 622,353 L 622,355 L 622,357 L 622,359 L 621,360 L 620,360 L 619,361 L 617,362 L 617,363 L 615,366 L 614,368 L 615,369 L 614,370 L 613,370 L 612,371 L 610,371 L 610,370 L 609,371 L 608,372 L 607,373 L 606,374 L 605,374 L 604,374 L 603,376 L 602,377 L 600,379 L 599,380 L 598,380 L 597,381 L 595,383 L 595,384 L 596,385 L 596,386 L 596,387 L 595,388 L 593,391 L 592,395 L 591,396 L 590,397 L 590,398 L 589,399 L 588,401 L 588,402 L 588,404 L 586,405 L 583,407 L 581,408 L 579,411 L 578,413 L 578,414 L 577,415 L 577,417 L 576,418 L 575,418 L 573,418 L 572,417 L 571,416 L 570,416 L 567,415 L 565,416 L 563,416 L 562,417 L 561,418 L 560,418 L 558,420 L 557,421 L 557,423 L 556,425 L 556,427 L 555,428 L 555,429 L 555,430 L 555,431 L 556,432 L 557,434 L 558,435 L 557,435 L 556,437 L 554,439 L 551,440 L 550,440 L 549,439 L 548,439 L 547,440 L 545,438 L 544,438 L 542,437 L 541,438 L 540,438 L 539,438 L 539,437 L 538,436 L 537,436 L 533,431 L 529,428 L 528,427 L 528,426 L 526,425 L 524,423 L 523,422 L 520,419 L 518,418 L 519,415 L 520,412 L 521,410 L 522,408 L 522,407 L 523,406 L 524,404 L 525,402 L 525,401 L 527,397 L 528,396 L 530,391 L 530,389 L 531,388 L 532,384 L 534,381 L 534,380 L 534,379 L 535,377 L 535,374 L 536,372 L 537,369 L 538,367 L 540,365 L 541,362 L 543,362 L 545,361 L 549,360 L 551,359 L 552,358 L 556,357 L 558,356 L 560,353 L 561,352 L 560,351 L 564,345 L 565,344 L 566,342 L 568,338 L 569,336 L 570,336 L 568,334 L 571,329 L 568,328 L 566,326 L 568,324 L 568,322 L 569,321 L 569,320 L 570,318 L 572,312 L 573,309 L 574,307 L 575,306 L 576,303 L 577,301 L 580,298 L 583,294 L 585,292 L 585,290 L 585,289 L 584,285 L 583,283 L 584,282 L 586,281 L 591,279 L 595,278 L 598,277 L 599,276 L 601,274 L 601,273 L 600,271 L 599,270 L 597,269 L 595,267 L 594,266 L 592,263 L 592,262 L 592,260 L 594,258 L 595,257 L 597,257 L 600,256 L 602,255 L 602,250 L 603,246 L 604,243 L 606,239 L 607,235 L 607,232 L 607,213 L 612,216 L 616,218 L 621,208 L 617,206 L 619,199 L 615,196 L 617,189 L 610,185 L 611,183 L 612,181 L 612,179 L 613,177 L 616,169 L 619,170 L 620,166 L 620,164 L 621,161 L 622,160 L 625,158 L 627,154 L 629,153 L 631,153 L 632,152 L 633,152 L 634,149 L 634,147 L 635,146 L 635,143 L 635,139 L 634,139 L 634,137 L 634,135 L 634,134 L 633,132 L 633,130 L 633,126 L 634,123 L 634,121 L 634,120 L 633,117 L 633,115 L 632,114 L 633,113 L 635,110 L 636,109 L 640,106 L 642,102 L 643,101 L 643,100 L 643,99 L 641,96 L 638,94 L 637,92 L 636,90 L 635,89 L 636,86 L 638,80 L 640,77 L 640,76 L 640,75 L 640,73 L 641,72 L 641,67 L 642,62 L 643,60 L 645,60 L 647,58 L 649,54 L 651,51 L 655,47 L 657,45 L 658,44 L 661,40 L 666,36 L 670,31 L 671,30 L 672,29 L 673,27 L 674,24 L 674,23 L 675,22 L 675,21 L 676,18 L 677,16 L 678,14 L 678,12 L 684,12 L 688,13 L 691,13 L 693,14 L 694,16 L 696,17 L 697,19 L 699,21 L 701,22 L 705,23 L 707,23 L 708,24 L 710,26 L 710,28 L 709,34 L 709,41 L 710,44 L 710,49 L 710,50 L 709,53 L 708,55 L 706,60 L 706,64 L 705,69 L 705,76 L 705,83 L 705,87 L 705,88 L 705,90 L 705,93 L 705,95 L 706,96 L 708,98 L 710,99 L 711,101 L 711,103 L 711,104 L 711,108 L 712,113 L 712,115 L 712,117 L 711,119 L 710,122 L 709,126 L 709,127 L 708,129 L 709,132 L 709,135 L 709,139 L 709,141 L 708,144 L 708,147 L 707,150 L 707,151 L 707,153 L 707,154 L 707,155 L 706,155 L 705,156 L 705,157 L 704,159 L 704,162 L 704,165 L 704,168 L 703,174 L 703,177 L 703,180 L 703,183 L 702,184 L 702,186 L 702,188 L 702,189 L 702,194 L 702,195 L 702,196 L 702,197 L 701,198 L 700,199 L 700,200 L 699,201 L 699,202 L 699,203 L 700,207 L 699,210 L 699,211 L 700,213 L 700,217 L 700,219 L 700,221 L 700,223 L 701,226 L 701,228 L 702,230 L 703,231 L 704,233 L 705,234 L 705,235 L 707,236 L 708,237 " class="svg-range4" data-original-title="&lt;b&gt;PASIRJATI&lt;/b&gt;&lt;br /&gt;256" title=""/>
</g>
</g>
</g>
</svg></svg>