<svg id="svg-map" width="null" height="null" xmlns="http://www.w3.org/2000/svg" style="animation-delay: 0s; animation-direction: normal; animation-duration: 0s; animation-fill-mode: none; animation-iteration-count: 1; animation-name: none; animation-play-state: running; animation-timing-function: ease; background-attachment: scroll; background-blend-mode: normal; background-clip: border-box; background-color: rgba(0, 0, 0, 0); background-image: none; background-origin: padding-box; background-position: 0% 0%; background-repeat: repeat; background-size: auto; border-bottom-color: rgb(255, 255, 255); border-bottom-left-radius: 0px; border-bottom-right-radius: 0px; border-bottom-style: none; border-bottom-width: 0px; border-collapse: separate; border-image-outset: 0px; border-image-repeat: stretch; border-image-slice: 100%; border-image-source: none; border-image-width: 1; border-left-color: rgb(255, 255, 255); border-left-style: none; border-left-width: 0px; border-right-color: rgb(255, 255, 255); border-right-style: none; border-right-width: 0px; border-top-color: rgb(255, 255, 255); border-top-left-radius: 0px; border-top-right-radius: 0px; border-top-style: none; border-top-width: 0px; bottom: auto; box-shadow: none; box-sizing: border-box; break-after: auto; break-before: auto; break-inside: auto; caption-side: top; clear: none; clip: auto; color: rgb(255, 255, 255); content: ; cursor: auto; direction: ltr; display: inline; empty-cells: show; float: none; font-family: &quot;Open Sans&quot;, sans-serif; font-kerning: auto; font-size: 13px; font-stretch: normal; font-style: normal; font-variant: normal; font-variant-ligatures: normal; font-variant-caps: normal; font-variant-numeric: normal; font-weight: normal; height: 303.953px; image-rendering: auto; isolation: auto; left: auto; letter-spacing: normal; line-height: 18.5714px; list-style-image: none; list-style-position: outside; list-style-type: disc; margin-bottom: 0px; margin-left: 0px; margin-right: 0px; margin-top: 0px; max-height: 400px; max-width: none; min-height: 0px; min-width: 0px; mix-blend-mode: normal; motion-offset: 0px; motion-path: none; motion-rotation: auto 0deg; object-fit: fill; object-position: 50% 50%; opacity: 1; orphans: 2; outline-color: rgb(255, 255, 255); outline-offset: 0px; outline-style: none; outline-width: 0px; overflow-wrap: normal; overflow-x: hidden; overflow-y: hidden; padding-bottom: 0px; padding-left: 0px; padding-right: 0px; padding-top: 0px; pointer-events: auto; position: static; resize: none; right: auto; speak: normal; table-layout: auto; tab-size: 8; text-align: center; text-align-last: auto; text-decoration: none; text-indent: 0px; text-rendering: auto; text-shadow: none; text-size-adjust: 100%; text-overflow: clip; text-transform: none; top: auto; touch-action: auto; transition-delay: 0s; transition-duration: 0s; transition-property: all; transition-timing-function: ease; unicode-bidi: normal; vertical-align: baseline; visibility: visible; white-space: normal; widows: 2; width: 617.5px; will-change: auto; word-break: normal; word-spacing: 0px; word-wrap: normal; z-index: auto; zoom: 1; -webkit-appearance: none; backface-visibility: visible; -webkit-background-clip: border-box; -webkit-background-origin: padding-box; -webkit-border-horizontal-spacing: 0px; -webkit-border-image: none; -webkit-border-vertical-spacing: 0px; -webkit-box-align: stretch; -webkit-box-decoration-break: slice; -webkit-box-direction: normal; -webkit-box-flex: 0; -webkit-box-flex-group: 1; -webkit-box-lines: single; -webkit-box-ordinal-group: 1; -webkit-box-orient: horizontal; -webkit-box-pack: start; -webkit-box-reflect: none; -webkit-clip-path: none; column-count: auto; column-gap: normal; column-rule-color: rgb(255, 255, 255); column-rule-style: none; column-rule-width: 0px; column-span: none; column-width: auto; align-content: stretch; align-items: stretch; align-self: stretch; flex-basis: auto; flex-grow: 0; flex-shrink: 1; flex-direction: row; flex-wrap: nowrap; justify-content: flex-start; -webkit-font-smoothing: auto; -webkit-highlight: none; -webkit-hyphenate-character: auto; -webkit-line-break: auto; -webkit-line-clamp: none; -webkit-locale: &quot;en&quot;; -webkit-margin-before-collapse: collapse; -webkit-margin-after-collapse: collapse; -webkit-mask-box-image: none; -webkit-mask-box-image-outset: 0px; -webkit-mask-box-image-repeat: stretch; -webkit-mask-box-image-slice: 0 fill; -webkit-mask-box-image-source: none; -webkit-mask-box-image-width: auto; -webkit-mask-clip: border-box; -webkit-mask-composite: source-over; -webkit-mask-image: none; -webkit-mask-origin: border-box; -webkit-mask-position: 0% 0%; -webkit-mask-repeat: repeat; -webkit-mask-size: auto; order: 0; perspective: none; perspective-origin: 308.75px 151.969px; -webkit-print-color-adjust: economy; -webkit-rtl-ordering: logical; shape-outside: none; shape-image-threshold: 0; shape-margin: 0px; -webkit-tap-highlight-color: rgba(0, 0, 0, 0); -webkit-text-combine: none; -webkit-text-decorations-in-effect: none; -webkit-text-emphasis-color: rgb(255, 255, 255); -webkit-text-emphasis-position: over; -webkit-text-emphasis-style: none; -webkit-text-fill-color: rgb(255, 255, 255); -webkit-text-orientation: vertical-right; -webkit-text-security: none; -webkit-text-stroke-color: rgb(255, 255, 255); -webkit-text-stroke-width: 0px; transform: none; transform-origin: 308.75px 151.969px; transform-style: flat; -webkit-user-drag: auto; -webkit-user-modify: read-only; user-select: text; -webkit-writing-mode: horizontal-tb; -webkit-app-region: no-drag; buffered-rendering: auto; clip-path: none; clip-rule: nonzero; mask: none; filter: none; flood-color: rgb(0, 0, 0); flood-opacity: 1; lighting-color: rgb(255, 255, 255); stop-color: rgb(0, 0, 0); stop-opacity: 1; color-interpolation: sRGB; color-interpolation-filters: linearRGB; color-rendering: auto; fill: rgb(0, 0, 0); fill-opacity: 1; fill-rule: nonzero; marker-end: none; marker-mid: none; marker-start: none; mask-type: luminance; shape-rendering: auto; stroke: none; stroke-dasharray: none; stroke-dashoffset: 0px; stroke-linecap: butt; stroke-linejoin: miter; stroke-miterlimit: 4; stroke-opacity: 1; stroke-width: 1px; alignment-baseline: auto; baseline-shift: 0px; dominant-baseline: auto; text-anchor: start; writing-mode: horizontal-tb; vector-effect: none; paint-order: fill stroke markers; d: none; cx: 0px; cy: 0px; x: 0px; y: 0px; r: 0px; rx: auto; ry: auto;" version="1.1" xmlns:xlink="http://www.w3.org/1999/xlink"><style type="text/css">svg:not(:root) { overflow: hidden; }
* { box-sizing: border-box; }
* { font-size: 13px; }
svg { max-height: 100vh; border: none !important; }
#svg-map svg { max-height: 400px; }
#svg-map svg path { fill: rgb(153, 196, 176); stroke: rgb(51, 51, 51); stroke-width: 1; }
#svg-map svg path.svg-range1 { fill: rgb(194, 223, 115); }
#svg-map svg path.svg-range2 { fill: rgb(160, 189, 83); }
#svg-map svg path.svg-range3 { fill: rgb(189, 170, 83); }
#svg-map svg path.svg-range4 { fill: rgb(189, 143, 83); }
#svg-map svg path.svg-range5 { fill: rgb(175, 96, 68); }</style><svg xmlns="http://www.w3.org/2000/svg" xmlns:inkscape="http://www.inkscape.org/namespaces/inkscape" xmlns:xlink="http://www.w3.org/1999/xlink" viewBox="0 0 1097 540" version="1.1">
<!-- svg generated using QGIS www.qgis.org -->
<g id="3273070_id2012__3273070003" inkscape:groupmode="layer" inkscape:label="3273070_id2012__3273070003">
<g stroke="rgb(0,0,0)" fill="rgb(164,137,101)" stroke-linejoin="round" stroke-width="0.26">
<g id="3273070_id2012__3273070003_1">
<path d="M 655,114 L 657,114 L 658,114 L 659,114 L 660,115 L 662,115 L 664,116 L 666,116 L 667,116 L 669,117 L 670,117 L 671,118 L 675,118 L 676,119 L 678,119 L 682,120 L 683,120 L 685,121 L 691,122 L 692,122 L 693,123 L 698,124 L 705,126 L 706,126 L 710,127 L 711,128 L 713,129 L 718,131 L 719,132 L 722,134 L 724,135 L 728,137 L 732,139 L 733,140 L 735,140 L 737,142 L 739,142 L 740,143 L 747,147 L 748,147 L 750,148 L 763,156 L 766,157 L 768,158 L 770,159 L 773,161 L 776,163 L 780,165 L 779,169 L 778,173 L 778,174 L 777,176 L 777,177 L 777,178 L 776,180 L 776,182 L 774,190 L 774,191 L 774,192 L 770,204 L 769,211 L 768,215 L 767,216 L 767,217 L 767,218 L 766,219 L 766,221 L 766,222 L 765,224 L 765,225 L 765,226 L 764,227 L 764,229 L 763,235 L 762,236 L 762,239 L 760,244 L 759,249 L 759,250 L 757,259 L 756,262 L 755,267 L 753,272 L 753,273 L 753,275 L 744,274 L 739,273 L 735,272 L 733,271 L 732,271 L 731,271 L 721,269 L 719,269 L 715,269 L 713,269 L 710,268 L 706,268 L 701,267 L 699,267 L 696,266 L 694,266 L 693,265 L 687,264 L 686,263 L 682,263 L 679,262 L 677,262 L 675,261 L 671,260 L 662,258 L 657,257 L 648,255 L 643,254 L 640,252 L 635,251 L 632,251 L 629,250 L 627,250 L 624,249 L 623,249 L 616,247 L 610,245 L 608,245 L 605,244 L 602,243 L 597,241 L 598,237 L 593,235 L 585,233 L 577,230 L 577,229 L 575,228 L 564,223 L 560,221 L 558,220 L 553,218 L 551,217 L 548,216 L 545,214 L 542,214 L 543,213 L 543,211 L 544,208 L 545,203 L 546,198 L 547,196 L 548,195 L 548,194 L 549,188 L 550,187 L 551,180 L 552,177 L 552,175 L 553,173 L 554,170 L 556,160 L 557,157 L 560,144 L 561,142 L 561,139 L 563,131 L 563,130 L 566,121 L 566,118 L 568,114 L 570,108 L 571,104 L 574,94 L 576,95 L 578,95 L 581,96 L 585,97 L 586,97 L 590,98 L 592,98 L 593,99 L 610,103 L 614,104 L 619,105 L 620,105 L 625,106 L 627,106 L 628,107 L 629,107 L 630,107 L 631,107 L 632,107 L 638,109 L 641,110 L 643,110 L 645,111 L 646,111 L 648,111 L 649,112 L 652,113 L 653,113 L 654,113 L 655,114 " class="svg-range1" data-original-title="&lt;b&gt;LINGKAR SELATAN&lt;/b&gt;&lt;br /&gt;10" title=""/>
</g>
</g>
</g>
<g id="3273070_id2012__3273070004" inkscape:groupmode="layer" inkscape:label="3273070_id2012__3273070004">
<g stroke="rgb(0,0,0)" fill="rgb(154,37,131)" stroke-linejoin="round" stroke-width="0.26">
<g id="3273070_id2012__3273070004_1">
<path d="M 574,94 L 571,104 L 570,108 L 568,114 L 566,118 L 566,121 L 563,130 L 563,131 L 561,139 L 561,142 L 560,144 L 557,157 L 556,160 L 554,170 L 553,173 L 552,175 L 552,177 L 551,180 L 550,187 L 549,188 L 548,194 L 548,195 L 547,196 L 546,198 L 545,203 L 544,208 L 543,211 L 543,213 L 542,214 L 541,219 L 540,223 L 539,225 L 539,227 L 537,234 L 536,237 L 536,241 L 535,244 L 535,246 L 533,248 L 531,250 L 520,260 L 516,265 L 514,266 L 508,272 L 506,271 L 502,267 L 493,257 L 492,256 L 490,255 L 488,252 L 483,247 L 480,244 L 479,243 L 474,236 L 470,232 L 468,230 L 472,227 L 477,223 L 483,222 L 485,221 L 488,221 L 490,218 L 493,208 L 496,199 L 498,194 L 498,193 L 496,187 L 496,183 L 496,181 L 495,174 L 494,171 L 493,165 L 493,162 L 493,160 L 493,157 L 493,156 L 493,152 L 493,151 L 493,146 L 494,145 L 494,144 L 494,142 L 495,138 L 496,136 L 496,132 L 497,130 L 497,127 L 498,123 L 500,111 L 501,103 L 502,102 L 502,98 L 502,92 L 502,88 L 501,83 L 500,82 L 498,78 L 496,76 L 483,74 L 476,73 L 471,72 L 464,70 L 465,69 L 468,68 L 468,67 L 470,67 L 470,66 L 480,61 L 482,60 L 484,59 L 487,57 L 489,55 L 491,55 L 491,54 L 492,54 L 493,54 L 494,53 L 496,52 L 500,50 L 501,50 L 501,49 L 503,48 L 505,47 L 506,47 L 508,46 L 509,45 L 513,43 L 517,41 L 521,39 L 525,37 L 530,34 L 532,33 L 533,33 L 534,32 L 535,32 L 550,24 L 551,23 L 553,22 L 554,22 L 556,20 L 557,20 L 558,20 L 561,18 L 563,17 L 569,14 L 570,13 L 572,13 L 573,12 L 573,13 L 574,19 L 575,27 L 575,28 L 576,33 L 579,53 L 580,56 L 580,57 L 581,59 L 581,60 L 582,61 L 582,62 L 582,64 L 582,65 L 582,67 L 581,68 L 581,70 L 580,72 L 580,75 L 579,76 L 579,78 L 578,79 L 577,83 L 577,84 L 574,93 L 573,93 L 574,94 " class="svg-range5" data-original-title="&lt;b&gt;MALABAR&lt;/b&gt;&lt;br /&gt;58" title=""/>
</g>
</g>
</g>
<g id="3273070_id2012__3273070005" inkscape:groupmode="layer" inkscape:label="3273070_id2012__3273070005">
<g stroke="rgb(0,0,0)" fill="rgb(183,159,254)" stroke-linejoin="round" stroke-width="0.26">
<g id="3273070_id2012__3273070005_1">
<path d="M 508,272 L 513,278 L 517,282 L 511,288 L 510,289 L 507,292 L 503,297 L 502,301 L 501,303 L 501,304 L 500,306 L 500,307 L 499,308 L 499,309 L 498,310 L 498,311 L 497,312 L 497,314 L 495,313 L 488,311 L 486,311 L 484,310 L 482,310 L 481,309 L 476,306 L 472,302 L 471,301 L 471,300 L 471,298 L 468,290 L 467,284 L 465,277 L 464,275 L 462,271 L 460,266 L 459,264 L 458,263 L 457,263 L 456,262 L 455,262 L 455,261 L 454,261 L 453,260 L 453,259 L 453,258 L 453,256 L 452,255 L 451,254 L 447,250 L 443,246 L 442,246 L 442,245 L 441,244 L 439,243 L 437,240 L 436,240 L 435,239 L 435,238 L 433,237 L 432,236 L 429,234 L 428,233 L 427,233 L 424,231 L 426,228 L 427,227 L 428,226 L 429,225 L 431,223 L 431,222 L 435,207 L 435,205 L 436,202 L 436,201 L 437,199 L 438,195 L 438,193 L 439,192 L 440,186 L 441,184 L 442,180 L 443,177 L 443,175 L 446,166 L 446,165 L 449,158 L 449,155 L 450,149 L 451,148 L 452,143 L 453,140 L 454,136 L 454,134 L 457,120 L 457,119 L 458,118 L 458,117 L 458,116 L 459,114 L 459,113 L 459,109 L 460,102 L 460,96 L 460,95 L 463,76 L 464,70 L 471,72 L 476,73 L 483,74 L 496,76 L 498,78 L 500,82 L 501,83 L 502,88 L 502,92 L 502,98 L 502,102 L 501,103 L 500,111 L 498,123 L 497,127 L 497,130 L 496,132 L 496,136 L 495,138 L 494,142 L 494,144 L 494,145 L 493,146 L 493,151 L 493,152 L 493,156 L 493,157 L 493,160 L 493,162 L 493,165 L 494,171 L 495,174 L 496,181 L 496,183 L 496,187 L 498,193 L 498,194 L 496,199 L 493,208 L 490,218 L 488,221 L 485,221 L 483,222 L 477,223 L 472,227 L 468,230 L 470,232 L 474,236 L 479,243 L 480,244 L 483,247 L 488,252 L 490,255 L 492,256 L 493,257 L 502,267 L 506,271 L 508,272 " class="svg-range4" data-original-title="&lt;b&gt;BURANGRANG&lt;/b&gt;&lt;br /&gt;47" title=""/>
</g>
</g>
</g>
<g id="3273070_id2012__3273070006" inkscape:groupmode="layer" inkscape:label="3273070_id2012__3273070006">
<g stroke="rgb(0,0,0)" fill="rgb(182,44,245)" stroke-linejoin="round" stroke-width="0.26">
<g id="3273070_id2012__3273070006_1">
<path d="M 369,61 L 370,61 L 369,68 L 368,79 L 368,82 L 368,84 L 367,93 L 367,94 L 366,97 L 366,100 L 365,110 L 364,112 L 364,113 L 364,114 L 364,115 L 364,116 L 365,117 L 365,118 L 367,120 L 369,123 L 380,136 L 381,138 L 382,138 L 384,141 L 385,143 L 386,144 L 389,148 L 389,150 L 390,152 L 391,153 L 393,155 L 396,156 L 398,156 L 400,158 L 402,158 L 404,159 L 405,160 L 407,161 L 409,161 L 409,162 L 410,162 L 411,162 L 412,163 L 413,163 L 415,164 L 419,166 L 421,167 L 423,168 L 427,169 L 430,171 L 433,172 L 440,176 L 441,176 L 443,177 L 442,180 L 441,184 L 440,186 L 439,192 L 438,193 L 438,195 L 437,199 L 436,201 L 436,202 L 435,205 L 435,207 L 431,222 L 431,223 L 429,225 L 428,226 L 427,227 L 426,228 L 424,231 L 422,230 L 420,229 L 419,228 L 418,227 L 418,226 L 417,224 L 416,223 L 414,221 L 411,218 L 410,218 L 407,215 L 404,213 L 402,211 L 400,209 L 399,209 L 397,206 L 396,205 L 395,203 L 394,202 L 391,198 L 388,194 L 387,193 L 385,191 L 384,190 L 380,187 L 379,186 L 374,183 L 367,178 L 366,177 L 364,175 L 360,174 L 358,173 L 352,170 L 347,167 L 344,164 L 340,162 L 340,161 L 339,160 L 337,159 L 336,158 L 335,156 L 334,155 L 333,154 L 333,153 L 333,152 L 334,148 L 334,147 L 335,146 L 336,143 L 338,139 L 340,135 L 341,132 L 342,131 L 343,128 L 344,123 L 342,122 L 341,121 L 340,120 L 339,120 L 336,118 L 334,117 L 332,116 L 330,114 L 329,113 L 329,111 L 329,109 L 328,108 L 328,107 L 328,106 L 327,101 L 326,101 L 325,98 L 324,97 L 323,96 L 323,95 L 322,94 L 321,93 L 321,92 L 321,91 L 320,91 L 320,90 L 319,89 L 319,88 L 318,87 L 318,86 L 317,85 L 317,84 L 316,83 L 316,82 L 315,81 L 315,80 L 314,79 L 314,78 L 314,77 L 313,76 L 313,75 L 313,74 L 313,73 L 312,72 L 312,71 L 312,70 L 312,69 L 312,68 L 312,67 L 312,66 L 313,65 L 313,64 L 313,63 L 313,62 L 313,61 L 313,60 L 313,59 L 313,58 L 313,57 L 314,57 L 314,54 L 316,54 L 318,54 L 319,54 L 323,55 L 325,55 L 326,55 L 327,55 L 329,56 L 331,56 L 332,56 L 333,56 L 334,56 L 335,56 L 336,57 L 337,57 L 339,57 L 348,58 L 349,58 L 351,58 L 353,59 L 354,59 L 355,59 L 359,60 L 362,60 L 364,60 L 365,60 L 366,60 L 369,61 " class="svg-range5" data-original-title="&lt;b&gt;CIKAWAO&lt;/b&gt;&lt;br /&gt;66" title=""/>
</g>
</g>
</g>
<g id="3273070_id2012__3273070007" inkscape:groupmode="layer" inkscape:label="3273070_id2012__3273070007">
<g stroke="rgb(0,0,0)" fill="rgb(78,162,173)" stroke-linejoin="round" stroke-width="0.26">
<g id="3273070_id2012__3273070007_1">
<path d="M 464,70 L 463,76 L 460,95 L 460,96 L 460,102 L 459,109 L 459,113 L 459,114 L 458,116 L 458,117 L 458,118 L 457,119 L 457,120 L 454,134 L 454,136 L 453,140 L 452,143 L 451,148 L 450,149 L 449,155 L 449,158 L 446,165 L 446,166 L 443,175 L 443,177 L 441,176 L 440,176 L 433,172 L 430,171 L 427,169 L 423,168 L 421,167 L 419,166 L 415,164 L 413,163 L 412,163 L 411,162 L 410,162 L 409,162 L 409,161 L 407,161 L 405,160 L 404,159 L 402,158 L 400,158 L 398,156 L 396,156 L 393,155 L 391,153 L 390,152 L 389,150 L 389,148 L 386,144 L 385,143 L 384,141 L 382,138 L 381,138 L 380,136 L 369,123 L 367,120 L 365,118 L 365,117 L 364,116 L 364,115 L 364,114 L 364,113 L 364,112 L 365,110 L 366,100 L 366,97 L 367,94 L 367,93 L 368,84 L 368,82 L 368,79 L 369,68 L 370,61 L 373,61 L 375,62 L 376,62 L 385,63 L 388,63 L 394,64 L 397,64 L 400,65 L 401,65 L 402,65 L 407,65 L 413,66 L 415,66 L 417,67 L 418,67 L 420,67 L 423,67 L 424,67 L 425,68 L 427,68 L 435,69 L 449,70 L 458,71 L 459,71 L 462,71 L 463,70 L 464,70 " class="svg-range2" data-original-title="&lt;b&gt;PALEDANG&lt;/b&gt;&lt;br /&gt;31" title=""/>
</g>
</g>
</g>
<g id="3273070_id2012__3273070001" inkscape:groupmode="layer" inkscape:label="3273070_id2012__3273070001">
<g stroke="rgb(0,0,0)" fill="rgb(228,4,252)" stroke-linejoin="round" stroke-width="0.26">
<g id="3273070_id2012__3273070001_1">
<path d="M 725,498 L 718,500 L 716,501 L 710,503 L 707,504 L 705,504 L 704,505 L 702,505 L 701,506 L 697,507 L 696,507 L 693,508 L 692,508 L 690,509 L 687,510 L 686,510 L 684,511 L 682,511 L 681,512 L 679,512 L 677,512 L 676,513 L 675,513 L 672,514 L 671,514 L 670,514 L 667,515 L 666,515 L 665,516 L 664,516 L 663,516 L 662,516 L 659,517 L 656,517 L 654,518 L 649,519 L 647,519 L 642,520 L 640,520 L 635,521 L 633,521 L 632,521 L 631,521 L 628,522 L 626,522 L 623,522 L 618,522 L 616,522 L 614,522 L 612,522 L 605,523 L 604,523 L 602,523 L 600,523 L 599,523 L 597,523 L 596,523 L 595,523 L 594,523 L 592,523 L 590,522 L 588,522 L 585,522 L 584,522 L 578,522 L 577,522 L 576,522 L 556,520 L 553,520 L 548,519 L 547,519 L 546,519 L 541,519 L 538,519 L 536,518 L 535,518 L 533,518 L 533,517 L 533,516 L 532,509 L 532,504 L 531,503 L 531,499 L 530,492 L 529,486 L 529,478 L 528,476 L 527,472 L 528,468 L 527,463 L 527,461 L 527,458 L 527,452 L 527,449 L 528,446 L 529,443 L 528,441 L 526,440 L 525,439 L 524,439 L 524,436 L 525,435 L 526,432 L 527,430 L 528,429 L 531,412 L 530,406 L 529,395 L 528,389 L 527,381 L 527,380 L 526,377 L 525,368 L 525,365 L 524,364 L 524,363 L 523,362 L 522,361 L 521,359 L 518,354 L 516,351 L 514,346 L 514,345 L 513,345 L 513,344 L 509,332 L 508,331 L 508,330 L 507,326 L 506,325 L 506,323 L 508,322 L 509,320 L 509,318 L 507,316 L 502,315 L 497,314 L 497,312 L 498,311 L 498,310 L 499,309 L 499,308 L 500,307 L 500,306 L 501,304 L 501,303 L 502,301 L 503,297 L 507,292 L 510,289 L 511,288 L 517,282 L 525,290 L 527,292 L 529,294 L 534,299 L 536,301 L 538,303 L 539,304 L 540,305 L 547,312 L 548,314 L 554,320 L 555,321 L 556,322 L 557,324 L 559,325 L 566,333 L 569,336 L 571,338 L 573,340 L 573,341 L 574,341 L 575,342 L 576,342 L 577,344 L 580,346 L 584,352 L 586,354 L 588,355 L 592,360 L 594,362 L 598,366 L 603,371 L 606,374 L 607,376 L 608,377 L 610,379 L 614,383 L 620,390 L 624,394 L 628,398 L 629,399 L 629,400 L 634,404 L 634,405 L 637,407 L 643,413 L 645,417 L 648,419 L 649,420 L 652,424 L 653,424 L 656,427 L 661,433 L 668,440 L 669,441 L 670,442 L 671,444 L 675,448 L 677,449 L 680,452 L 681,454 L 683,456 L 685,457 L 686,458 L 688,461 L 689,462 L 690,463 L 691,464 L 693,467 L 694,467 L 698,471 L 702,476 L 704,477 L 705,478 L 705,479 L 706,479 L 712,486 L 715,489 L 717,490 L 725,498 " class="svg-range3" data-original-title="&lt;b&gt;CIJAGRA&lt;/b&gt;&lt;br /&gt;34" title=""/>
</g>
</g>
</g>
<g id="3273070_id2012__3273070002" inkscape:groupmode="layer" inkscape:label="3273070_id2012__3273070002">
<g stroke="rgb(0,0,0)" fill="rgb(74,184,122)" stroke-linejoin="round" stroke-width="0.26">
<g id="3273070_id2012__3273070002_1">
<path d="M 753,275 L 755,275 L 755,277 L 754,279 L 754,280 L 754,282 L 754,283 L 754,285 L 754,286 L 754,298 L 754,302 L 754,303 L 754,310 L 754,311 L 754,313 L 754,316 L 755,317 L 755,318 L 755,319 L 755,320 L 754,322 L 755,323 L 756,324 L 756,328 L 754,327 L 753,327 L 751,327 L 749,326 L 749,327 L 749,328 L 749,329 L 749,330 L 748,334 L 748,337 L 748,339 L 748,347 L 748,351 L 748,353 L 748,360 L 748,361 L 748,362 L 748,365 L 748,367 L 748,376 L 747,381 L 747,385 L 747,387 L 747,388 L 747,391 L 746,394 L 746,395 L 746,396 L 746,397 L 747,397 L 750,397 L 750,403 L 750,405 L 750,408 L 750,409 L 750,412 L 750,421 L 750,425 L 750,429 L 751,430 L 751,431 L 751,433 L 751,434 L 752,437 L 753,441 L 754,445 L 755,448 L 757,453 L 757,454 L 760,460 L 761,462 L 763,466 L 764,467 L 765,470 L 766,471 L 769,480 L 771,482 L 772,483 L 772,484 L 770,484 L 769,484 L 768,485 L 767,485 L 765,485 L 762,487 L 754,489 L 752,490 L 751,490 L 748,491 L 743,492 L 742,492 L 734,495 L 733,495 L 729,497 L 725,498 L 717,490 L 715,489 L 712,486 L 706,479 L 705,479 L 705,478 L 704,477 L 702,476 L 698,471 L 694,467 L 693,467 L 691,464 L 690,463 L 689,462 L 688,461 L 686,458 L 685,457 L 683,456 L 681,454 L 680,452 L 677,449 L 675,448 L 671,444 L 670,442 L 669,441 L 668,440 L 661,433 L 656,427 L 653,424 L 652,424 L 649,420 L 648,419 L 645,417 L 643,413 L 637,407 L 634,405 L 634,404 L 629,400 L 629,399 L 628,398 L 624,394 L 620,390 L 614,383 L 610,379 L 608,377 L 607,376 L 606,374 L 603,371 L 598,366 L 594,362 L 592,360 L 588,355 L 586,354 L 584,352 L 580,346 L 577,344 L 576,342 L 575,342 L 574,341 L 573,341 L 573,340 L 571,338 L 569,336 L 566,333 L 559,325 L 557,324 L 556,322 L 555,321 L 554,320 L 548,314 L 547,312 L 540,305 L 539,304 L 538,303 L 536,301 L 534,299 L 529,294 L 527,292 L 525,290 L 517,282 L 513,278 L 508,272 L 514,266 L 516,265 L 520,260 L 531,250 L 533,248 L 535,246 L 535,244 L 536,241 L 536,237 L 537,234 L 539,227 L 539,225 L 540,223 L 541,219 L 542,214 L 545,214 L 548,216 L 551,217 L 553,218 L 558,220 L 560,221 L 564,223 L 575,228 L 577,229 L 577,230 L 585,233 L 593,235 L 598,237 L 597,241 L 602,243 L 605,244 L 608,245 L 610,245 L 616,247 L 623,249 L 624,249 L 627,250 L 629,250 L 632,251 L 635,251 L 640,252 L 643,254 L 648,255 L 657,257 L 662,258 L 671,260 L 675,261 L 677,262 L 679,262 L 682,263 L 686,263 L 687,264 L 693,265 L 694,266 L 696,266 L 699,267 L 701,267 L 706,268 L 710,268 L 713,269 L 715,269 L 719,269 L 721,269 L 731,271 L 732,271 L 733,271 L 735,272 L 739,273 L 744,274 L 753,275 " class="svg-range1" data-original-title="&lt;b&gt;TURANGGA&lt;/b&gt;&lt;br /&gt;15" title=""/>
</g>
</g>
</g>
</svg></svg>