<svg id="svg-map" width="null" height="null" xmlns="http://www.w3.org/2000/svg" style="animation-delay: 0s; animation-direction: normal; animation-duration: 0s; animation-fill-mode: none; animation-iteration-count: 1; animation-name: none; animation-play-state: running; animation-timing-function: ease; background-attachment: scroll; background-blend-mode: normal; background-clip: border-box; background-color: rgba(0, 0, 0, 0); background-image: none; background-origin: padding-box; background-position: 0% 0%; background-repeat: repeat; background-size: auto; border-bottom-color: rgb(255, 255, 255); border-bottom-left-radius: 0px; border-bottom-right-radius: 0px; border-bottom-style: none; border-bottom-width: 0px; border-collapse: separate; border-image-outset: 0px; border-image-repeat: stretch; border-image-slice: 100%; border-image-source: none; border-image-width: 1; border-left-color: rgb(255, 255, 255); border-left-style: none; border-left-width: 0px; border-right-color: rgb(255, 255, 255); border-right-style: none; border-right-width: 0px; border-top-color: rgb(255, 255, 255); border-top-left-radius: 0px; border-top-right-radius: 0px; border-top-style: none; border-top-width: 0px; bottom: auto; box-shadow: none; box-sizing: border-box; break-after: auto; break-before: auto; break-inside: auto; caption-side: top; clear: none; clip: auto; color: rgb(255, 255, 255); content: ; cursor: auto; direction: ltr; display: inline; empty-cells: show; float: none; font-family: &quot;Open Sans&quot;, sans-serif; font-kerning: auto; font-size: 13px; font-stretch: normal; font-style: normal; font-variant: normal; font-variant-ligatures: normal; font-variant-caps: normal; font-variant-numeric: normal; font-weight: normal; height: 303.953px; image-rendering: auto; isolation: auto; left: auto; letter-spacing: normal; line-height: 18.5714px; list-style-image: none; list-style-position: outside; list-style-type: disc; margin-bottom: 0px; margin-left: 0px; margin-right: 0px; margin-top: 0px; max-height: 400px; max-width: none; min-height: 0px; min-width: 0px; mix-blend-mode: normal; motion-offset: 0px; motion-path: none; motion-rotation: auto 0deg; object-fit: fill; object-position: 50% 50%; opacity: 1; orphans: 2; outline-color: rgb(255, 255, 255); outline-offset: 0px; outline-style: none; outline-width: 0px; overflow-wrap: normal; overflow-x: hidden; overflow-y: hidden; padding-bottom: 0px; padding-left: 0px; padding-right: 0px; padding-top: 0px; pointer-events: auto; position: static; resize: none; right: auto; speak: normal; table-layout: auto; tab-size: 8; text-align: center; text-align-last: auto; text-decoration: none; text-indent: 0px; text-rendering: auto; text-shadow: none; text-size-adjust: 100%; text-overflow: clip; text-transform: none; top: auto; touch-action: auto; transition-delay: 0s; transition-duration: 0s; transition-property: all; transition-timing-function: ease; unicode-bidi: normal; vertical-align: baseline; visibility: visible; white-space: normal; widows: 2; width: 617.5px; will-change: auto; word-break: normal; word-spacing: 0px; word-wrap: normal; z-index: auto; zoom: 1; -webkit-appearance: none; backface-visibility: visible; -webkit-background-clip: border-box; -webkit-background-origin: padding-box; -webkit-border-horizontal-spacing: 0px; -webkit-border-image: none; -webkit-border-vertical-spacing: 0px; -webkit-box-align: stretch; -webkit-box-decoration-break: slice; -webkit-box-direction: normal; -webkit-box-flex: 0; -webkit-box-flex-group: 1; -webkit-box-lines: single; -webkit-box-ordinal-group: 1; -webkit-box-orient: horizontal; -webkit-box-pack: start; -webkit-box-reflect: none; -webkit-clip-path: none; column-count: auto; column-gap: normal; column-rule-color: rgb(255, 255, 255); column-rule-style: none; column-rule-width: 0px; column-span: none; column-width: auto; align-content: stretch; align-items: stretch; align-self: stretch; flex-basis: auto; flex-grow: 0; flex-shrink: 1; flex-direction: row; flex-wrap: nowrap; justify-content: flex-start; -webkit-font-smoothing: auto; -webkit-highlight: none; -webkit-hyphenate-character: auto; -webkit-line-break: auto; -webkit-line-clamp: none; -webkit-locale: &quot;en&quot;; -webkit-margin-before-collapse: collapse; -webkit-margin-after-collapse: collapse; -webkit-mask-box-image: none; -webkit-mask-box-image-outset: 0px; -webkit-mask-box-image-repeat: stretch; -webkit-mask-box-image-slice: 0 fill; -webkit-mask-box-image-source: none; -webkit-mask-box-image-width: auto; -webkit-mask-clip: border-box; -webkit-mask-composite: source-over; -webkit-mask-image: none; -webkit-mask-origin: border-box; -webkit-mask-position: 0% 0%; -webkit-mask-repeat: repeat; -webkit-mask-size: auto; order: 0; perspective: none; perspective-origin: 308.75px 151.969px; -webkit-print-color-adjust: economy; -webkit-rtl-ordering: logical; shape-outside: none; shape-image-threshold: 0; shape-margin: 0px; -webkit-tap-highlight-color: rgba(0, 0, 0, 0); -webkit-text-combine: none; -webkit-text-decorations-in-effect: none; -webkit-text-emphasis-color: rgb(255, 255, 255); -webkit-text-emphasis-position: over; -webkit-text-emphasis-style: none; -webkit-text-fill-color: rgb(255, 255, 255); -webkit-text-orientation: vertical-right; -webkit-text-security: none; -webkit-text-stroke-color: rgb(255, 255, 255); -webkit-text-stroke-width: 0px; transform: none; transform-origin: 308.75px 151.969px; transform-style: flat; -webkit-user-drag: auto; -webkit-user-modify: read-only; user-select: text; -webkit-writing-mode: horizontal-tb; -webkit-app-region: no-drag; buffered-rendering: auto; clip-path: none; clip-rule: nonzero; mask: none; filter: none; flood-color: rgb(0, 0, 0); flood-opacity: 1; lighting-color: rgb(255, 255, 255); stop-color: rgb(0, 0, 0); stop-opacity: 1; color-interpolation: sRGB; color-interpolation-filters: linearRGB; color-rendering: auto; fill: rgb(0, 0, 0); fill-opacity: 1; fill-rule: nonzero; marker-end: none; marker-mid: none; marker-start: none; mask-type: luminance; shape-rendering: auto; stroke: none; stroke-dasharray: none; stroke-dashoffset: 0px; stroke-linecap: butt; stroke-linejoin: miter; stroke-miterlimit: 4; stroke-opacity: 1; stroke-width: 1px; alignment-baseline: auto; baseline-shift: 0px; dominant-baseline: auto; text-anchor: start; writing-mode: horizontal-tb; vector-effect: none; paint-order: fill stroke markers; d: none; cx: 0px; cy: 0px; x: 0px; y: 0px; r: 0px; rx: auto; ry: auto;" version="1.1" xmlns:xlink="http://www.w3.org/1999/xlink"><style type="text/css">svg:not(:root) { overflow: hidden; }
* { box-sizing: border-box; }
* { font-size: 13px; }
svg { max-height: 100vh; border: none !important; }
#svg-map svg { max-height: 400px; }
#svg-map svg path { fill: rgb(153, 196, 176); stroke: rgb(51, 51, 51); stroke-width: 1; }
#svg-map svg path.svg-range1 { fill: rgb(194, 223, 115); }
#svg-map svg path.svg-range4 { fill: rgb(189, 143, 83); }
#svg-map svg path.svg-range5 { fill: rgb(175, 96, 68); }</style><svg xmlns="http://www.w3.org/2000/svg" xmlns:inkscape="http://www.inkscape.org/namespaces/inkscape" xmlns:xlink="http://www.w3.org/1999/xlink" viewBox="0 0 1097 540" version="1.1">
<!-- svg generated using QGIS www.qgis.org -->
<g id="3273060_id2012__3273060002" inkscape:groupmode="layer" inkscape:label="3273060_id2012__3273060002">
<g stroke="rgb(0,0,0)" fill="rgb(238,110,108)" stroke-linejoin="round" stroke-width="0.26">
<g id="3273060_id2012__3273060002_1">
<path d="M 621,225 L 622,226 L 622,227 L 626,231 L 630,234 L 631,234 L 632,234 L 634,235 L 636,235 L 642,237 L 643,237 L 648,239 L 652,239 L 654,241 L 654,243 L 653,244 L 651,245 L 651,246 L 651,247 L 651,248 L 652,251 L 653,252 L 653,253 L 657,263 L 657,264 L 658,265 L 659,269 L 661,271 L 664,276 L 665,277 L 665,278 L 666,279 L 667,280 L 667,283 L 668,290 L 668,293 L 668,294 L 670,301 L 670,306 L 671,314 L 672,320 L 669,334 L 669,335 L 668,336 L 666,339 L 666,340 L 666,342 L 667,342 L 668,343 L 669,344 L 670,344 L 670,346 L 669,348 L 669,350 L 669,354 L 669,358 L 669,361 L 668,362 L 669,366 L 668,370 L 669,373 L 670,375 L 670,382 L 671,386 L 672,392 L 672,396 L 672,397 L 672,401 L 673,406 L 673,407 L 674,408 L 674,409 L 674,410 L 674,412 L 675,418 L 675,425 L 675,428 L 677,435 L 677,436 L 677,437 L 678,441 L 678,443 L 679,450 L 680,455 L 680,457 L 680,458 L 680,459 L 680,462 L 680,463 L 679,463 L 677,463 L 676,463 L 672,463 L 670,463 L 664,463 L 662,467 L 661,467 L 660,467 L 659,467 L 657,467 L 656,467 L 655,467 L 654,467 L 653,467 L 652,467 L 651,467 L 650,467 L 649,467 L 648,467 L 647,467 L 646,467 L 645,467 L 644,467 L 643,467 L 642,467 L 641,467 L 640,467 L 639,467 L 638,467 L 637,467 L 636,467 L 635,467 L 634,469 L 635,470 L 636,470 L 636,473 L 636,477 L 635,477 L 634,477 L 632,477 L 630,478 L 628,478 L 626,478 L 625,478 L 625,479 L 622,479 L 621,479 L 620,479 L 620,478 L 620,476 L 621,474 L 621,472 L 618,472 L 617,472 L 616,472 L 615,472 L 613,472 L 611,472 L 610,472 L 608,472 L 607,473 L 606,473 L 605,473 L 605,474 L 605,475 L 605,477 L 603,477 L 596,476 L 596,474 L 596,473 L 595,472 L 595,469 L 594,469 L 593,468 L 592,468 L 591,467 L 589,467 L 588,466 L 586,465 L 583,465 L 582,464 L 581,464 L 581,462 L 582,461 L 583,459 L 583,458 L 583,457 L 583,456 L 581,453 L 579,452 L 579,451 L 579,445 L 580,443 L 580,440 L 580,439 L 579,438 L 577,436 L 576,435 L 577,433 L 577,430 L 578,426 L 577,425 L 579,422 L 574,420 L 572,418 L 569,417 L 566,411 L 564,407 L 567,400 L 569,401 L 572,401 L 575,401 L 580,402 L 583,402 L 589,402 L 595,403 L 601,403 L 603,403 L 607,403 L 608,404 L 609,404 L 611,404 L 612,404 L 626,405 L 622,400 L 618,394 L 620,392 L 621,391 L 623,391 L 626,391 L 628,392 L 630,392 L 632,392 L 633,392 L 633,385 L 633,382 L 633,375 L 633,368 L 633,364 L 633,360 L 631,360 L 631,359 L 631,357 L 631,355 L 631,353 L 631,339 L 631,337 L 630,332 L 633,332 L 634,332 L 636,332 L 638,332 L 639,332 L 639,326 L 639,324 L 639,322 L 639,319 L 636,318 L 632,317 L 631,317 L 630,316 L 629,314 L 628,312 L 627,309 L 626,307 L 626,305 L 626,304 L 626,302 L 626,300 L 626,298 L 626,296 L 627,295 L 628,295 L 629,293 L 629,290 L 627,290 L 626,289 L 626,285 L 626,284 L 626,282 L 627,280 L 628,279 L 630,277 L 631,274 L 631,273 L 632,272 L 633,271 L 633,270 L 633,268 L 633,266 L 633,264 L 631,262 L 628,262 L 627,261 L 625,261 L 624,260 L 623,260 L 622,259 L 621,258 L 621,257 L 621,253 L 621,251 L 621,248 L 621,246 L 621,245 L 621,243 L 620,242 L 619,241 L 618,240 L 618,239 L 618,238 L 618,236 L 617,231 L 617,228 L 618,227 L 618,225 L 620,225 L 621,225 " class="svg-range5" data-original-title="&lt;b&gt;PASIRLUYU&lt;/b&gt;&lt;br /&gt;271" title=""/>
</g>
</g>
</g>
<g id="3273060_id2012__3273060003" inkscape:groupmode="layer" inkscape:label="3273060_id2012__3273060003">
<g stroke="rgb(0,0,0)" fill="rgb(147,145,107)" stroke-linejoin="round" stroke-width="0.26">
<g id="3273060_id2012__3273060003_1">
<path d="M 621,225 L 620,225 L 618,225 L 618,227 L 617,228 L 617,231 L 618,236 L 618,238 L 618,239 L 618,240 L 619,241 L 620,242 L 621,243 L 621,245 L 621,246 L 621,248 L 621,251 L 621,253 L 621,257 L 621,258 L 622,259 L 623,260 L 624,260 L 625,261 L 627,261 L 628,262 L 631,262 L 633,264 L 633,266 L 633,268 L 633,270 L 633,271 L 632,272 L 631,273 L 631,274 L 630,277 L 628,279 L 627,280 L 626,282 L 626,284 L 626,285 L 626,289 L 627,290 L 629,290 L 629,293 L 628,295 L 627,295 L 626,296 L 626,298 L 626,300 L 626,302 L 626,304 L 626,305 L 626,307 L 627,309 L 628,312 L 629,314 L 630,316 L 631,317 L 632,317 L 636,318 L 639,319 L 639,322 L 639,324 L 639,326 L 639,332 L 638,332 L 636,332 L 634,332 L 633,332 L 630,332 L 631,337 L 631,339 L 631,353 L 631,355 L 631,357 L 631,359 L 631,360 L 633,360 L 633,364 L 633,368 L 633,375 L 633,382 L 633,385 L 633,392 L 632,392 L 630,392 L 628,392 L 626,391 L 623,391 L 621,391 L 620,392 L 618,394 L 622,400 L 626,405 L 612,404 L 611,404 L 609,404 L 608,404 L 607,403 L 607,401 L 606,400 L 604,400 L 603,397 L 600,394 L 599,393 L 596,393 L 595,392 L 595,391 L 594,390 L 592,387 L 592,385 L 591,384 L 591,383 L 590,383 L 588,383 L 582,377 L 580,378 L 577,374 L 576,373 L 576,372 L 576,370 L 575,369 L 575,368 L 575,367 L 574,365 L 573,361 L 573,360 L 573,355 L 570,355 L 571,352 L 570,348 L 571,346 L 572,345 L 572,338 L 574,338 L 576,338 L 577,338 L 577,336 L 577,334 L 575,334 L 575,333 L 573,332 L 572,330 L 571,328 L 570,326 L 570,322 L 567,321 L 567,316 L 565,315 L 565,314 L 565,312 L 566,308 L 565,307 L 566,306 L 566,305 L 566,303 L 566,302 L 565,301 L 565,297 L 563,297 L 563,295 L 564,294 L 564,292 L 563,292 L 562,292 L 561,291 L 561,285 L 562,284 L 562,282 L 568,282 L 568,280 L 568,276 L 565,270 L 565,266 L 566,265 L 564,260 L 563,258 L 562,257 L 562,255 L 562,254 L 563,252 L 564,251 L 566,250 L 566,245 L 566,243 L 566,242 L 567,239 L 567,237 L 567,234 L 566,230 L 566,227 L 565,224 L 565,221 L 563,217 L 562,215 L 559,212 L 558,210 L 555,208 L 552,204 L 557,199 L 561,195 L 564,191 L 566,189 L 574,180 L 578,175 L 580,171 L 581,170 L 582,169 L 583,168 L 585,170 L 587,171 L 589,173 L 590,173 L 591,174 L 592,175 L 593,175 L 593,176 L 595,178 L 596,179 L 597,180 L 598,181 L 601,184 L 605,187 L 606,188 L 607,189 L 607,191 L 607,192 L 608,193 L 608,194 L 609,194 L 610,194 L 610,195 L 611,195 L 612,196 L 612,197 L 614,202 L 616,206 L 616,207 L 618,212 L 618,213 L 619,217 L 619,218 L 621,225 " class="svg-range1" data-original-title="&lt;b&gt;ANCOL&lt;/b&gt;&lt;br /&gt;55" title=""/>
</g>
</g>
</g>
<g id="3273060_id2012__3273060004" inkscape:groupmode="layer" inkscape:label="3273060_id2012__3273060004">
<g stroke="rgb(0,0,0)" fill="rgb(60,104,142)" stroke-linejoin="round" stroke-width="0.26">
<g id="3273060_id2012__3273060004_1">
<path d="M 552,204 L 555,208 L 558,210 L 559,212 L 562,215 L 563,217 L 565,221 L 565,224 L 566,227 L 566,230 L 567,234 L 567,237 L 567,239 L 566,242 L 566,243 L 566,245 L 566,250 L 564,251 L 563,252 L 562,254 L 562,255 L 562,257 L 563,258 L 564,260 L 566,265 L 565,266 L 565,270 L 568,276 L 568,280 L 568,282 L 562,282 L 562,284 L 561,285 L 561,291 L 562,292 L 563,292 L 564,292 L 564,294 L 563,295 L 563,297 L 565,297 L 565,301 L 566,302 L 566,303 L 566,305 L 566,306 L 565,307 L 566,308 L 565,312 L 565,314 L 565,315 L 567,316 L 567,321 L 570,322 L 570,326 L 571,328 L 572,330 L 573,332 L 575,333 L 575,334 L 577,334 L 577,336 L 577,338 L 576,338 L 574,338 L 572,338 L 560,338 L 557,338 L 557,333 L 555,333 L 555,330 L 549,330 L 549,337 L 548,338 L 548,340 L 548,342 L 548,343 L 548,346 L 548,348 L 548,351 L 548,358 L 545,359 L 542,360 L 540,361 L 535,362 L 531,363 L 529,363 L 526,364 L 525,364 L 521,365 L 519,366 L 518,366 L 517,366 L 514,367 L 507,367 L 506,367 L 505,366 L 500,364 L 497,364 L 493,364 L 490,365 L 489,362 L 489,361 L 489,360 L 488,358 L 487,357 L 487,355 L 486,353 L 486,351 L 485,351 L 485,350 L 485,349 L 484,348 L 484,346 L 482,340 L 481,339 L 481,337 L 480,335 L 480,334 L 479,333 L 479,332 L 478,331 L 478,330 L 478,329 L 477,324 L 476,324 L 476,321 L 475,320 L 475,319 L 475,318 L 474,317 L 474,315 L 473,314 L 473,313 L 471,309 L 471,308 L 471,307 L 470,306 L 469,303 L 469,302 L 469,301 L 468,300 L 468,299 L 468,298 L 467,296 L 467,295 L 466,293 L 466,292 L 465,289 L 465,288 L 464,286 L 464,285 L 463,285 L 463,284 L 462,282 L 460,273 L 459,270 L 458,268 L 457,266 L 457,264 L 456,263 L 456,261 L 456,259 L 455,258 L 456,257 L 456,250 L 456,246 L 459,246 L 463,246 L 467,246 L 468,246 L 471,246 L 474,246 L 482,247 L 484,247 L 486,247 L 487,247 L 490,247 L 491,247 L 496,247 L 497,246 L 500,244 L 505,240 L 507,238 L 509,237 L 510,236 L 514,234 L 518,231 L 519,230 L 520,230 L 520,229 L 523,227 L 526,225 L 528,224 L 528,223 L 537,217 L 541,212 L 545,209 L 551,204 L 552,204 " class="svg-range1" data-original-title="&lt;b&gt;CIGERELENG&lt;/b&gt;&lt;br /&gt;57" title=""/>
</g>
</g>
</g>
<g id="3273060_id2012__3273060005" inkscape:groupmode="layer" inkscape:label="3273060_id2012__3273060005">
<g stroke="rgb(0,0,0)" fill="rgb(117,207,141)" stroke-linejoin="round" stroke-width="0.26">
<g id="3273060_id2012__3273060005_1">
<path d="M 578,175 L 574,180 L 566,189 L 564,191 L 561,195 L 557,199 L 552,204 L 551,204 L 545,209 L 541,212 L 537,217 L 528,223 L 528,224 L 526,225 L 523,227 L 520,229 L 520,230 L 519,230 L 518,231 L 514,234 L 510,236 L 509,237 L 507,238 L 505,240 L 500,244 L 497,246 L 496,247 L 491,247 L 490,247 L 487,247 L 486,247 L 484,247 L 482,247 L 474,246 L 471,246 L 468,246 L 467,246 L 463,246 L 459,246 L 456,246 L 455,246 L 454,246 L 447,246 L 444,245 L 441,245 L 435,245 L 433,245 L 426,244 L 422,244 L 417,243 L 412,242 L 412,240 L 412,229 L 412,226 L 413,216 L 413,215 L 413,214 L 413,205 L 413,204 L 413,201 L 413,200 L 413,197 L 413,194 L 413,193 L 414,189 L 414,184 L 415,179 L 415,176 L 416,170 L 416,163 L 416,160 L 421,161 L 427,161 L 429,162 L 438,164 L 444,164 L 445,164 L 451,165 L 452,166 L 454,166 L 458,166 L 462,166 L 463,167 L 477,168 L 478,169 L 482,169 L 484,169 L 487,170 L 489,170 L 492,170 L 496,171 L 502,172 L 504,172 L 507,172 L 511,173 L 513,173 L 518,174 L 519,174 L 523,174 L 525,174 L 527,175 L 528,175 L 529,174 L 530,173 L 532,172 L 535,167 L 537,164 L 538,163 L 541,158 L 542,159 L 545,162 L 550,165 L 553,167 L 556,169 L 560,171 L 561,171 L 564,172 L 569,173 L 572,174 L 575,175 L 578,175 " class="svg-range1" data-original-title="&lt;b&gt;CIATEUL&lt;/b&gt;&lt;br /&gt;22" title=""/>
</g>
</g>
</g>
<g id="3273060_id2012__3273060006" inkscape:groupmode="layer" inkscape:label="3273060_id2012__3273060006">
<g stroke="rgb(0,0,0)" fill="rgb(2,90,141)" stroke-linejoin="round" stroke-width="0.26">
<g id="3273060_id2012__3273060006_1">
<path d="M 541,158 L 538,163 L 537,164 L 535,167 L 532,172 L 530,173 L 529,174 L 528,175 L 527,175 L 525,174 L 523,174 L 519,174 L 518,174 L 513,173 L 511,173 L 507,172 L 504,172 L 502,172 L 496,171 L 492,170 L 489,170 L 487,170 L 484,169 L 482,169 L 478,169 L 477,168 L 463,167 L 462,166 L 458,166 L 454,166 L 452,166 L 451,165 L 445,164 L 444,164 L 438,164 L 429,162 L 427,161 L 421,161 L 416,160 L 417,150 L 417,149 L 417,146 L 417,142 L 418,141 L 418,136 L 418,134 L 418,127 L 418,126 L 419,124 L 419,112 L 420,108 L 421,103 L 421,102 L 423,102 L 424,102 L 426,102 L 430,102 L 435,103 L 436,103 L 438,103 L 440,104 L 443,104 L 444,104 L 451,104 L 453,105 L 456,105 L 459,105 L 465,106 L 468,106 L 469,106 L 471,106 L 473,106 L 475,106 L 478,107 L 485,108 L 486,108 L 490,108 L 491,109 L 492,110 L 494,112 L 495,113 L 496,114 L 498,116 L 505,123 L 507,125 L 509,127 L 510,128 L 510,129 L 511,129 L 513,131 L 514,132 L 516,134 L 517,135 L 518,136 L 520,138 L 521,139 L 525,143 L 528,146 L 529,146 L 531,149 L 541,158 " class="svg-range1" data-original-title="&lt;b&gt;PUNGKUR&lt;/b&gt;&lt;br /&gt;35" title=""/>
</g>
</g>
</g>
<g id="3273060_id2012__3273060007" inkscape:groupmode="layer" inkscape:label="3273060_id2012__3273060007">
<g stroke="rgb(0,0,0)" fill="rgb(24,129,20)" stroke-linejoin="round" stroke-width="0.26">
<g id="3273060_id2012__3273060007_1">
<path d="M 490,20 L 490,22 L 490,23 L 490,24 L 490,25 L 490,26 L 489,27 L 489,28 L 489,29 L 489,30 L 489,31 L 489,32 L 489,33 L 489,34 L 489,35 L 489,36 L 489,37 L 490,37 L 490,38 L 490,39 L 490,40 L 491,41 L 491,42 L 492,43 L 492,44 L 492,45 L 493,45 L 493,46 L 493,47 L 494,47 L 494,48 L 494,49 L 495,50 L 496,51 L 496,52 L 497,53 L 497,54 L 498,55 L 499,56 L 499,57 L 501,59 L 501,60 L 502,64 L 502,65 L 503,66 L 503,68 L 503,69 L 503,71 L 506,72 L 507,73 L 509,74 L 511,76 L 512,76 L 513,76 L 513,77 L 514,77 L 515,78 L 514,82 L 513,85 L 513,86 L 512,88 L 511,91 L 510,92 L 509,95 L 508,97 L 507,98 L 507,99 L 506,102 L 506,103 L 506,104 L 507,105 L 508,106 L 509,107 L 510,108 L 511,109 L 512,110 L 513,110 L 515,113 L 518,115 L 522,118 L 527,120 L 529,120 L 532,122 L 534,123 L 535,124 L 540,128 L 545,131 L 546,132 L 549,134 L 550,135 L 551,137 L 552,137 L 554,140 L 557,144 L 558,145 L 559,146 L 560,148 L 562,150 L 564,152 L 565,153 L 568,155 L 571,157 L 572,158 L 574,160 L 575,161 L 576,163 L 577,164 L 578,165 L 579,166 L 581,167 L 583,168 L 582,169 L 581,170 L 580,171 L 578,175 L 575,175 L 572,174 L 569,173 L 564,172 L 561,171 L 560,171 L 556,169 L 553,167 L 550,165 L 545,162 L 542,159 L 541,158 L 531,149 L 529,146 L 528,146 L 525,143 L 521,139 L 520,138 L 518,136 L 517,135 L 516,134 L 514,132 L 513,131 L 511,129 L 510,129 L 510,128 L 509,127 L 507,125 L 505,123 L 498,116 L 496,114 L 495,113 L 494,112 L 492,110 L 491,109 L 490,108 L 486,108 L 485,108 L 478,107 L 475,106 L 473,106 L 471,106 L 469,106 L 468,106 L 465,106 L 459,105 L 456,105 L 453,105 L 451,104 L 444,104 L 443,104 L 440,104 L 438,103 L 436,103 L 435,103 L 430,102 L 426,102 L 424,102 L 423,102 L 421,102 L 421,101 L 422,84 L 423,79 L 423,76 L 423,75 L 423,72 L 423,69 L 423,68 L 424,64 L 424,61 L 424,57 L 424,56 L 424,55 L 424,53 L 424,49 L 425,46 L 425,45 L 425,44 L 425,38 L 426,32 L 426,31 L 426,30 L 426,29 L 426,22 L 427,21 L 427,20 L 427,14 L 427,12 L 428,12 L 429,12 L 429,13 L 430,13 L 433,13 L 434,13 L 435,14 L 440,14 L 441,14 L 441,15 L 445,15 L 453,16 L 456,16 L 458,16 L 459,17 L 462,17 L 463,17 L 464,17 L 473,18 L 475,19 L 476,19 L 477,19 L 478,19 L 479,19 L 480,19 L 483,19 L 485,20 L 489,20 L 490,20 " class="svg-range1" data-original-title="&lt;b&gt;BALONG GEDE&lt;/b&gt;&lt;br /&gt;24" title=""/>
</g>
</g>
</g>
<g id="3273060_id2012__3273060001" inkscape:groupmode="layer" inkscape:label="3273060_id2012__3273060001">
<g stroke="rgb(0,0,0)" fill="rgb(157,70,116)" stroke-linejoin="round" stroke-width="0.26">
<g id="3273060_id2012__3273060001_1">
<path d="M 572,338 L 572,345 L 571,346 L 570,348 L 571,352 L 570,355 L 573,355 L 573,360 L 573,361 L 574,365 L 575,367 L 575,368 L 575,369 L 576,370 L 576,372 L 576,373 L 577,374 L 580,378 L 582,377 L 588,383 L 590,383 L 591,383 L 591,384 L 592,385 L 592,387 L 594,390 L 595,391 L 595,392 L 596,393 L 599,393 L 600,394 L 603,397 L 604,400 L 606,400 L 607,401 L 607,403 L 603,403 L 601,403 L 595,403 L 589,402 L 583,402 L 580,402 L 575,401 L 572,401 L 569,401 L 567,400 L 564,407 L 566,411 L 569,417 L 572,418 L 574,420 L 579,422 L 577,425 L 578,426 L 577,430 L 577,433 L 576,435 L 577,436 L 579,438 L 580,439 L 580,440 L 580,443 L 579,445 L 579,451 L 579,452 L 581,453 L 583,456 L 583,457 L 583,458 L 583,459 L 582,461 L 581,462 L 581,464 L 582,464 L 583,465 L 586,465 L 588,466 L 589,467 L 591,467 L 592,468 L 593,468 L 594,469 L 595,469 L 595,472 L 596,473 L 596,474 L 596,476 L 595,477 L 595,480 L 595,481 L 595,482 L 595,483 L 595,484 L 595,485 L 595,486 L 595,487 L 596,487 L 596,488 L 596,490 L 596,491 L 596,492 L 596,493 L 596,495 L 596,496 L 596,497 L 597,497 L 597,499 L 597,502 L 597,503 L 597,505 L 595,504 L 593,504 L 592,504 L 590,504 L 589,503 L 588,503 L 587,503 L 586,503 L 585,503 L 584,502 L 583,502 L 582,505 L 580,510 L 578,512 L 577,514 L 576,515 L 576,516 L 574,517 L 572,519 L 572,520 L 572,521 L 573,523 L 566,521 L 565,521 L 563,520 L 561,519 L 560,519 L 560,520 L 559,519 L 557,519 L 555,519 L 555,520 L 553,520 L 552,520 L 551,520 L 550,520 L 549,520 L 547,521 L 546,521 L 544,522 L 543,522 L 542,521 L 541,518 L 541,517 L 540,516 L 540,515 L 539,512 L 539,511 L 538,508 L 537,507 L 537,505 L 537,504 L 536,502 L 535,500 L 535,499 L 535,498 L 534,497 L 534,496 L 534,495 L 533,494 L 533,492 L 532,489 L 531,487 L 530,486 L 530,485 L 530,484 L 530,483 L 529,480 L 528,479 L 528,477 L 527,476 L 527,474 L 526,472 L 526,470 L 525,466 L 523,460 L 522,458 L 521,455 L 520,453 L 519,451 L 518,448 L 518,446 L 517,443 L 516,442 L 516,441 L 515,440 L 515,438 L 514,436 L 514,435 L 513,433 L 513,432 L 512,429 L 511,427 L 511,426 L 510,423 L 509,421 L 508,418 L 508,417 L 507,414 L 506,411 L 505,409 L 504,407 L 504,405 L 504,404 L 503,403 L 503,402 L 502,401 L 501,398 L 501,397 L 501,396 L 500,395 L 500,394 L 500,393 L 499,393 L 499,392 L 499,391 L 498,389 L 498,388 L 498,387 L 497,386 L 496,384 L 496,383 L 496,382 L 496,381 L 495,381 L 495,380 L 495,379 L 494,376 L 493,374 L 493,373 L 493,372 L 492,371 L 492,370 L 491,369 L 491,368 L 491,367 L 490,365 L 493,364 L 497,364 L 500,364 L 505,366 L 506,367 L 507,367 L 514,367 L 517,366 L 518,366 L 519,366 L 521,365 L 525,364 L 526,364 L 529,363 L 531,363 L 535,362 L 540,361 L 542,360 L 545,359 L 548,358 L 548,351 L 548,348 L 548,346 L 548,343 L 548,342 L 548,340 L 548,338 L 549,337 L 549,330 L 555,330 L 555,333 L 557,333 L 557,338 L 560,338 L 572,338 " class="svg-range4" data-original-title="&lt;b&gt;CISEUREUH&lt;/b&gt;&lt;br /&gt;180" title=""/>
</g>
</g>
</g>
</svg></svg>