<svg id="svg-map" width="null" height="null" xmlns="http://www.w3.org/2000/svg" style="animation-delay: 0s; animation-direction: normal; animation-duration: 0s; animation-fill-mode: none; animation-iteration-count: 1; animation-name: none; animation-play-state: running; animation-timing-function: ease; background-attachment: scroll; background-blend-mode: normal; background-clip: border-box; background-color: rgba(0, 0, 0, 0); background-image: none; background-origin: padding-box; background-position: 0% 0%; background-repeat: repeat; background-size: auto; border-bottom-color: rgb(255, 255, 255); border-bottom-left-radius: 0px; border-bottom-right-radius: 0px; border-bottom-style: none; border-bottom-width: 0px; border-collapse: separate; border-image-outset: 0px; border-image-repeat: stretch; border-image-slice: 100%; border-image-source: none; border-image-width: 1; border-left-color: rgb(255, 255, 255); border-left-style: none; border-left-width: 0px; border-right-color: rgb(255, 255, 255); border-right-style: none; border-right-width: 0px; border-top-color: rgb(255, 255, 255); border-top-left-radius: 0px; border-top-right-radius: 0px; border-top-style: none; border-top-width: 0px; bottom: auto; box-shadow: none; box-sizing: border-box; break-after: auto; break-before: auto; break-inside: auto; caption-side: top; clear: none; clip: auto; color: rgb(255, 255, 255); content: ; cursor: auto; direction: ltr; display: inline; empty-cells: show; float: none; font-family: &quot;Open Sans&quot;, sans-serif; font-kerning: auto; font-size: 13px; font-stretch: normal; font-style: normal; font-variant: normal; font-variant-ligatures: normal; font-variant-caps: normal; font-variant-numeric: normal; font-weight: normal; height: 303.953px; image-rendering: auto; isolation: auto; left: auto; letter-spacing: normal; line-height: 18.5714px; list-style-image: none; list-style-position: outside; list-style-type: disc; margin-bottom: 0px; margin-left: 0px; margin-right: 0px; margin-top: 0px; max-height: 400px; max-width: none; min-height: 0px; min-width: 0px; mix-blend-mode: normal; motion-offset: 0px; motion-path: none; motion-rotation: auto 0deg; object-fit: fill; object-position: 50% 50%; opacity: 1; orphans: 2; outline-color: rgb(255, 255, 255); outline-offset: 0px; outline-style: none; outline-width: 0px; overflow-wrap: normal; overflow-x: hidden; overflow-y: hidden; padding-bottom: 0px; padding-left: 0px; padding-right: 0px; padding-top: 0px; pointer-events: auto; position: static; resize: none; right: auto; speak: normal; table-layout: auto; tab-size: 8; text-align: center; text-align-last: auto; text-decoration: none; text-indent: 0px; text-rendering: auto; text-shadow: none; text-size-adjust: 100%; text-overflow: clip; text-transform: none; top: auto; touch-action: auto; transition-delay: 0s; transition-duration: 0s; transition-property: all; transition-timing-function: ease; unicode-bidi: normal; vertical-align: baseline; visibility: visible; white-space: normal; widows: 2; width: 617.5px; will-change: auto; word-break: normal; word-spacing: 0px; word-wrap: normal; z-index: auto; zoom: 1; -webkit-appearance: none; backface-visibility: visible; -webkit-background-clip: border-box; -webkit-background-origin: padding-box; -webkit-border-horizontal-spacing: 0px; -webkit-border-image: none; -webkit-border-vertical-spacing: 0px; -webkit-box-align: stretch; -webkit-box-decoration-break: slice; -webkit-box-direction: normal; -webkit-box-flex: 0; -webkit-box-flex-group: 1; -webkit-box-lines: single; -webkit-box-ordinal-group: 1; -webkit-box-orient: horizontal; -webkit-box-pack: start; -webkit-box-reflect: none; -webkit-clip-path: none; column-count: auto; column-gap: normal; column-rule-color: rgb(255, 255, 255); column-rule-style: none; column-rule-width: 0px; column-span: none; column-width: auto; align-content: stretch; align-items: stretch; align-self: stretch; flex-basis: auto; flex-grow: 0; flex-shrink: 1; flex-direction: row; flex-wrap: nowrap; justify-content: flex-start; -webkit-font-smoothing: auto; -webkit-highlight: none; -webkit-hyphenate-character: auto; -webkit-line-break: auto; -webkit-line-clamp: none; -webkit-locale: &quot;en&quot;; -webkit-margin-before-collapse: collapse; -webkit-margin-after-collapse: collapse; -webkit-mask-box-image: none; -webkit-mask-box-image-outset: 0px; -webkit-mask-box-image-repeat: stretch; -webkit-mask-box-image-slice: 0 fill; -webkit-mask-box-image-source: none; -webkit-mask-box-image-width: auto; -webkit-mask-clip: border-box; -webkit-mask-composite: source-over; -webkit-mask-image: none; -webkit-mask-origin: border-box; -webkit-mask-position: 0% 0%; -webkit-mask-repeat: repeat; -webkit-mask-size: auto; order: 0; perspective: none; perspective-origin: 308.75px 151.969px; -webkit-print-color-adjust: economy; -webkit-rtl-ordering: logical; shape-outside: none; shape-image-threshold: 0; shape-margin: 0px; -webkit-tap-highlight-color: rgba(0, 0, 0, 0); -webkit-text-combine: none; -webkit-text-decorations-in-effect: none; -webkit-text-emphasis-color: rgb(255, 255, 255); -webkit-text-emphasis-position: over; -webkit-text-emphasis-style: none; -webkit-text-fill-color: rgb(255, 255, 255); -webkit-text-orientation: vertical-right; -webkit-text-security: none; -webkit-text-stroke-color: rgb(255, 255, 255); -webkit-text-stroke-width: 0px; transform: none; transform-origin: 308.75px 151.969px; transform-style: flat; -webkit-user-drag: auto; -webkit-user-modify: read-only; user-select: text; -webkit-writing-mode: horizontal-tb; -webkit-app-region: no-drag; buffered-rendering: auto; clip-path: none; clip-rule: nonzero; mask: none; filter: none; flood-color: rgb(0, 0, 0); flood-opacity: 1; lighting-color: rgb(255, 255, 255); stop-color: rgb(0, 0, 0); stop-opacity: 1; color-interpolation: sRGB; color-interpolation-filters: linearRGB; color-rendering: auto; fill: rgb(0, 0, 0); fill-opacity: 1; fill-rule: nonzero; marker-end: none; marker-mid: none; marker-start: none; mask-type: luminance; shape-rendering: auto; stroke: none; stroke-dasharray: none; stroke-dashoffset: 0px; stroke-linecap: butt; stroke-linejoin: miter; stroke-miterlimit: 4; stroke-opacity: 1; stroke-width: 1px; alignment-baseline: auto; baseline-shift: 0px; dominant-baseline: auto; text-anchor: start; writing-mode: horizontal-tb; vector-effect: none; paint-order: fill stroke markers; d: none; cx: 0px; cy: 0px; x: 0px; y: 0px; r: 0px; rx: auto; ry: auto;" version="1.1" xmlns:xlink="http://www.w3.org/1999/xlink"><style type="text/css">svg:not(:root) { overflow: hidden; }
* { box-sizing: border-box; }
* { font-size: 13px; }
svg { max-height: 100vh; border: none !important; }
#svg-map svg { max-height: 400px; }
#svg-map svg path { fill: rgb(153, 196, 176); stroke: rgb(51, 51, 51); stroke-width: 1; }
#svg-map svg path.svg-range1 { fill: rgb(194, 223, 115); }
#svg-map svg path.svg-range5 { fill: rgb(175, 96, 68); }</style><svg xmlns="http://www.w3.org/2000/svg" xmlns:inkscape="http://www.inkscape.org/namespaces/inkscape" xmlns:xlink="http://www.w3.org/1999/xlink" viewBox="0 0 1097 540" version="1.1">
<!-- svg generated using QGIS www.qgis.org -->
<g id="3273080_id2012__3273080001" inkscape:groupmode="layer" inkscape:label="3273080_id2012__3273080001">
<g stroke="rgb(0,0,0)" fill="rgb(132,74,72)" stroke-linejoin="round" stroke-width="0.26">
<g id="3273080_id2012__3273080001_1">
<path d="M 337,206 L 334,220 L 334,222 L 335,225 L 335,226 L 335,229 L 337,235 L 337,237 L 338,238 L 334,243 L 332,246 L 332,248 L 332,251 L 331,253 L 334,253 L 337,253 L 341,252 L 340,257 L 339,259 L 337,260 L 337,261 L 336,263 L 337,264 L 338,265 L 339,266 L 340,269 L 343,272 L 344,275 L 345,279 L 344,283 L 343,286 L 342,288 L 341,289 L 339,290 L 335,289 L 334,293 L 333,300 L 332,303 L 332,304 L 332,306 L 334,307 L 338,309 L 337,312 L 335,313 L 333,316 L 332,318 L 333,321 L 334,324 L 337,327 L 341,331 L 342,335 L 345,335 L 348,332 L 349,332 L 352,334 L 355,336 L 356,341 L 355,344 L 357,347 L 358,351 L 358,352 L 358,354 L 357,358 L 354,363 L 353,366 L 356,369 L 358,371 L 360,374 L 359,376 L 357,378 L 356,380 L 354,385 L 353,389 L 354,393 L 354,397 L 352,399 L 349,400 L 347,400 L 344,400 L 341,400 L 339,402 L 337,405 L 337,408 L 336,414 L 335,418 L 336,423 L 332,422 L 326,419 L 324,418 L 320,416 L 296,406 L 281,401 L 253,394 L 231,390 L 225,390 L 204,389 L 188,389 L 175,390 L 168,390 L 164,390 L 158,391 L 155,391 L 148,391 L 137,392 L 126,393 L 120,394 L 117,394 L 100,395 L 94,396 L 86,396 L 68,397 L 54,399 L 37,399 L 34,399 L 32,395 L 32,394 L 32,393 L 31,393 L 31,392 L 30,390 L 29,389 L 26,381 L 26,378 L 26,377 L 26,375 L 26,372 L 27,369 L 27,368 L 29,364 L 30,363 L 32,361 L 34,360 L 35,359 L 37,357 L 38,356 L 39,355 L 41,354 L 45,351 L 47,349 L 48,348 L 49,348 L 49,347 L 50,346 L 51,345 L 52,345 L 52,341 L 52,340 L 52,338 L 52,337 L 52,331 L 54,323 L 55,322 L 59,317 L 62,313 L 68,307 L 70,306 L 71,305 L 74,306 L 75,306 L 76,306 L 78,307 L 78,309 L 81,309 L 83,310 L 84,311 L 85,311 L 87,311 L 88,311 L 91,312 L 96,313 L 107,314 L 108,311 L 113,310 L 118,310 L 119,310 L 120,308 L 125,307 L 125,306 L 125,305 L 124,304 L 128,303 L 130,302 L 132,301 L 133,301 L 137,300 L 139,300 L 140,299 L 141,300 L 142,300 L 143,300 L 146,300 L 147,299 L 147,298 L 150,298 L 153,299 L 156,299 L 157,298 L 160,300 L 161,300 L 164,301 L 166,302 L 167,302 L 178,305 L 177,302 L 177,299 L 177,298 L 180,295 L 184,292 L 186,288 L 188,286 L 190,282 L 194,272 L 195,267 L 197,268 L 198,268 L 199,269 L 200,269 L 202,270 L 203,270 L 205,270 L 206,270 L 209,271 L 212,271 L 213,272 L 214,272 L 217,272 L 220,273 L 220,270 L 220,267 L 220,263 L 220,262 L 220,260 L 220,259 L 220,258 L 220,257 L 219,256 L 219,255 L 219,252 L 219,250 L 219,249 L 219,248 L 219,246 L 218,244 L 218,242 L 218,241 L 218,239 L 218,238 L 218,236 L 217,234 L 217,233 L 217,231 L 218,229 L 218,224 L 219,222 L 232,223 L 235,223 L 236,220 L 236,219 L 236,216 L 239,216 L 241,215 L 244,215 L 245,215 L 249,215 L 252,215 L 254,215 L 256,215 L 257,215 L 263,215 L 263,218 L 262,221 L 262,226 L 262,227 L 263,227 L 265,228 L 270,228 L 270,225 L 271,225 L 273,225 L 276,225 L 279,225 L 283,224 L 286,224 L 287,224 L 288,224 L 290,224 L 290,216 L 290,212 L 288,210 L 287,209 L 287,206 L 290,206 L 291,205 L 292,205 L 294,205 L 295,205 L 296,205 L 297,205 L 298,205 L 300,205 L 302,205 L 303,205 L 304,205 L 305,205 L 307,205 L 308,206 L 310,206 L 311,206 L 312,206 L 314,206 L 315,206 L 316,205 L 318,205 L 320,205 L 321,205 L 323,205 L 324,205 L 325,205 L 327,206 L 330,206 L 331,206 L 332,206 L 333,206 L 334,206 L 335,206 L 337,206 " class="svg-range1" data-original-title="&lt;b&gt;WATES&lt;/b&gt;&lt;br /&gt;134" title=""/>
</g>
</g>
</g>
<g id="3273080_id2012__3273080002" inkscape:groupmode="layer" inkscape:label="3273080_id2012__3273080002">
<g stroke="rgb(0,0,0)" fill="rgb(169,6,123)" stroke-linejoin="round" stroke-width="0.26">
<g id="3273080_id2012__3273080002_1">
<path d="M 732,344 L 732,346 L 731,347 L 730,349 L 729,352 L 729,355 L 730,358 L 731,360 L 733,361 L 734,362 L 738,366 L 739,366 L 740,367 L 741,367 L 743,368 L 745,368 L 748,369 L 748,374 L 749,377 L 749,378 L 748,379 L 748,381 L 748,382 L 748,385 L 748,389 L 747,391 L 746,393 L 746,394 L 745,396 L 744,400 L 741,406 L 739,408 L 752,412 L 748,421 L 736,435 L 729,433 L 725,441 L 723,446 L 721,449 L 716,461 L 714,464 L 714,467 L 714,478 L 714,482 L 715,486 L 717,490 L 718,492 L 719,496 L 719,501 L 718,505 L 704,503 L 697,503 L 695,503 L 694,502 L 693,502 L 678,500 L 675,500 L 644,496 L 639,496 L 637,495 L 622,494 L 617,493 L 614,493 L 613,492 L 612,492 L 607,491 L 593,490 L 590,489 L 589,489 L 577,488 L 549,484 L 542,483 L 535,482 L 531,482 L 528,482 L 519,480 L 515,480 L 513,479 L 511,479 L 508,478 L 471,471 L 457,468 L 446,465 L 439,463 L 433,461 L 429,460 L 423,459 L 412,455 L 410,454 L 402,452 L 385,445 L 381,444 L 368,438 L 359,434 L 354,432 L 351,430 L 339,425 L 336,423 L 335,418 L 336,414 L 337,408 L 337,405 L 339,402 L 341,400 L 344,400 L 347,400 L 349,400 L 352,399 L 354,397 L 354,393 L 353,389 L 354,385 L 356,380 L 357,378 L 359,376 L 360,374 L 358,371 L 356,369 L 353,366 L 354,363 L 357,358 L 358,354 L 358,352 L 358,351 L 357,347 L 355,344 L 356,341 L 355,336 L 352,334 L 349,332 L 348,332 L 345,335 L 342,335 L 341,331 L 337,327 L 334,324 L 333,321 L 332,318 L 333,316 L 335,313 L 337,312 L 338,309 L 334,307 L 332,306 L 332,304 L 332,303 L 333,300 L 334,293 L 335,289 L 339,290 L 341,289 L 342,288 L 343,286 L 344,283 L 345,279 L 344,275 L 343,272 L 340,269 L 339,266 L 338,265 L 337,264 L 336,263 L 337,261 L 337,260 L 339,259 L 340,257 L 341,252 L 337,253 L 334,253 L 331,253 L 332,251 L 332,248 L 332,246 L 334,243 L 338,238 L 337,237 L 337,235 L 335,229 L 335,226 L 335,225 L 334,222 L 334,220 L 337,206 L 340,199 L 349,199 L 350,199 L 353,199 L 361,199 L 363,199 L 366,199 L 369,199 L 368,197 L 368,192 L 386,196 L 401,200 L 419,204 L 425,206 L 413,265 L 425,267 L 427,271 L 429,271 L 464,279 L 467,275 L 482,278 L 495,281 L 502,282 L 516,285 L 524,287 L 531,289 L 531,293 L 542,295 L 548,297 L 553,298 L 560,299 L 564,300 L 566,299 L 579,301 L 579,300 L 595,303 L 595,306 L 608,309 L 627,313 L 636,315 L 641,316 L 645,317 L 651,318 L 651,315 L 665,317 L 665,320 L 685,325 L 689,325 L 704,329 L 710,330 L 715,331 L 726,336 L 726,340 L 728,345 L 732,344 " class="svg-range1" data-original-title="&lt;b&gt;MENGGER&lt;/b&gt;&lt;br /&gt;111" title=""/>
</g>
</g>
</g>
<g id="3273080_id2012__3273080003" inkscape:groupmode="layer" inkscape:label="3273080_id2012__3273080003">
<g stroke="rgb(0,0,0)" fill="rgb(225,84,164)" stroke-linejoin="round" stroke-width="0.26">
<g id="3273080_id2012__3273080003_1">
<path d="M 793,218 L 791,218 L 789,218 L 786,218 L 784,216 L 780,213 L 776,215 L 774,216 L 772,217 L 771,218 L 771,220 L 770,221 L 770,224 L 770,225 L 772,229 L 772,233 L 771,237 L 772,243 L 777,256 L 778,264 L 777,269 L 774,277 L 772,281 L 771,283 L 769,286 L 769,287 L 768,290 L 766,292 L 766,294 L 765,295 L 765,296 L 765,297 L 764,299 L 763,302 L 762,306 L 761,311 L 761,314 L 760,315 L 760,317 L 758,320 L 756,324 L 754,327 L 752,329 L 751,332 L 751,334 L 752,336 L 753,338 L 754,341 L 754,343 L 755,344 L 755,345 L 753,345 L 752,346 L 745,345 L 738,345 L 732,344 L 728,345 L 726,340 L 726,336 L 715,331 L 710,330 L 704,329 L 689,325 L 685,325 L 665,320 L 665,317 L 651,315 L 651,318 L 645,317 L 641,316 L 636,315 L 627,313 L 608,309 L 595,306 L 595,303 L 579,300 L 579,301 L 566,299 L 564,300 L 560,299 L 553,298 L 548,297 L 542,295 L 531,293 L 531,289 L 524,287 L 516,285 L 502,282 L 495,281 L 482,278 L 467,275 L 464,279 L 429,271 L 427,271 L 425,267 L 413,265 L 425,206 L 419,204 L 401,200 L 386,196 L 368,192 L 368,191 L 367,187 L 367,185 L 366,175 L 364,163 L 364,160 L 363,154 L 363,153 L 362,151 L 362,149 L 360,136 L 359,132 L 359,119 L 357,108 L 357,105 L 356,103 L 356,102 L 359,102 L 361,103 L 364,103 L 368,103 L 375,104 L 378,104 L 386,105 L 390,105 L 420,108 L 421,108 L 423,108 L 431,109 L 433,109 L 439,109 L 441,109 L 443,109 L 447,109 L 448,109 L 450,109 L 452,109 L 453,109 L 455,109 L 456,109 L 459,109 L 462,109 L 463,109 L 473,109 L 476,108 L 479,108 L 482,108 L 489,108 L 495,108 L 498,107 L 501,107 L 503,107 L 504,107 L 508,106 L 515,105 L 517,105 L 525,104 L 528,103 L 536,102 L 539,101 L 543,100 L 548,99 L 549,99 L 550,99 L 552,99 L 553,98 L 554,98 L 560,97 L 561,96 L 562,96 L 566,95 L 569,94 L 570,94 L 572,93 L 575,93 L 576,92 L 579,92 L 582,91 L 585,90 L 589,89 L 592,88 L 593,88 L 598,86 L 599,86 L 605,84 L 607,83 L 610,82 L 611,82 L 613,81 L 618,80 L 628,76 L 631,76 L 641,73 L 646,71 L 652,69 L 654,68 L 667,64 L 668,63 L 675,62 L 679,61 L 680,60 L 684,59 L 695,56 L 700,54 L 703,53 L 704,53 L 706,52 L 708,52 L 710,51 L 711,51 L 714,50 L 718,49 L 720,49 L 722,48 L 735,44 L 738,43 L 743,42 L 743,41 L 754,38 L 757,37 L 759,36 L 762,36 L 767,34 L 770,33 L 775,31 L 776,31 L 781,30 L 782,29 L 783,29 L 786,28 L 787,27 L 788,27 L 803,22 L 807,21 L 810,20 L 811,21 L 812,24 L 812,28 L 813,32 L 812,36 L 811,37 L 811,38 L 810,40 L 810,43 L 810,45 L 810,48 L 810,49 L 811,51 L 811,54 L 811,56 L 810,58 L 807,62 L 806,65 L 805,66 L 804,69 L 804,72 L 804,76 L 803,80 L 802,83 L 801,85 L 800,88 L 800,89 L 799,92 L 798,94 L 798,95 L 799,96 L 799,97 L 799,98 L 799,99 L 799,101 L 799,102 L 799,103 L 800,105 L 801,108 L 801,110 L 801,111 L 802,113 L 803,115 L 805,118 L 805,119 L 806,122 L 808,125 L 809,127 L 809,130 L 808,134 L 808,135 L 807,137 L 806,140 L 806,141 L 803,148 L 803,150 L 802,153 L 801,154 L 799,162 L 798,163 L 797,164 L 796,167 L 796,168 L 795,170 L 794,172 L 793,174 L 792,175 L 792,176 L 791,177 L 791,178 L 790,179 L 789,180 L 789,181 L 787,183 L 786,183 L 786,185 L 786,186 L 787,188 L 788,189 L 790,191 L 791,193 L 792,194 L 793,195 L 794,196 L 795,198 L 795,200 L 795,202 L 795,203 L 795,204 L 795,205 L 794,206 L 794,213 L 794,214 L 793,215 L 793,217 L 793,218 " class="svg-range5" data-original-title="&lt;b&gt;BATUNUNGGAL&lt;/b&gt;&lt;br /&gt;226" title=""/>
</g>
</g>
</g>
<g id="3273080_id2012__3273080004" inkscape:groupmode="layer" inkscape:label="3273080_id2012__3273080004">
<g stroke="rgb(0,0,0)" fill="rgb(129,52,80)" stroke-linejoin="round" stroke-width="0.26">
<g id="3273080_id2012__3273080004_1">
<path d="M 793,218 L 793,219 L 793,221 L 793,222 L 794,224 L 794,227 L 796,234 L 796,235 L 796,236 L 808,240 L 813,242 L 816,243 L 820,245 L 820,246 L 822,249 L 821,251 L 818,259 L 817,264 L 818,265 L 819,267 L 819,268 L 821,274 L 823,277 L 826,279 L 827,281 L 829,281 L 832,282 L 833,285 L 836,289 L 838,294 L 843,297 L 847,299 L 850,301 L 851,301 L 856,304 L 858,304 L 861,304 L 863,304 L 868,304 L 872,305 L 877,306 L 879,313 L 880,322 L 882,322 L 894,322 L 897,322 L 897,325 L 896,333 L 905,334 L 906,335 L 907,335 L 915,336 L 916,336 L 920,336 L 933,337 L 942,338 L 944,338 L 957,340 L 954,357 L 972,362 L 974,362 L 990,365 L 992,365 L 994,365 L 1019,363 L 1019,365 L 1020,366 L 1022,366 L 1024,367 L 1026,367 L 1029,367 L 1034,369 L 1037,369 L 1039,368 L 1048,370 L 1051,371 L 1052,373 L 1051,375 L 1050,377 L 1051,380 L 1051,382 L 1050,385 L 1051,389 L 1053,391 L 1055,394 L 1058,397 L 1059,398 L 1066,408 L 1066,415 L 1065,420 L 1065,421 L 1064,426 L 1064,427 L 1063,434 L 1062,438 L 1062,439 L 1062,442 L 1064,447 L 1063,449 L 1063,452 L 1062,454 L 1062,456 L 1062,458 L 1062,460 L 1062,462 L 1063,462 L 1065,464 L 1066,466 L 1066,469 L 1065,474 L 1064,482 L 1064,485 L 1049,484 L 1045,484 L 1042,484 L 1035,483 L 1008,482 L 1005,483 L 1001,483 L 997,483 L 976,485 L 965,486 L 964,486 L 962,487 L 941,492 L 936,493 L 933,494 L 925,496 L 916,499 L 893,505 L 880,508 L 877,509 L 871,510 L 865,511 L 864,511 L 862,511 L 852,512 L 829,515 L 818,515 L 817,515 L 813,515 L 810,515 L 802,514 L 791,514 L 783,513 L 780,513 L 779,513 L 777,513 L 767,511 L 762,511 L 758,510 L 754,510 L 752,509 L 750,509 L 745,508 L 744,508 L 743,508 L 732,507 L 730,506 L 718,505 L 719,501 L 719,496 L 718,492 L 717,490 L 715,486 L 714,482 L 714,478 L 714,467 L 714,464 L 716,461 L 721,449 L 723,446 L 725,441 L 729,433 L 736,435 L 748,421 L 752,412 L 739,408 L 741,406 L 744,400 L 745,396 L 746,394 L 746,393 L 747,391 L 748,389 L 748,385 L 748,382 L 748,381 L 748,379 L 749,378 L 749,377 L 748,374 L 748,369 L 745,368 L 743,368 L 741,367 L 740,367 L 739,366 L 738,366 L 734,362 L 733,361 L 731,360 L 730,358 L 729,355 L 729,352 L 730,349 L 731,347 L 732,346 L 732,344 L 738,345 L 745,345 L 752,346 L 753,345 L 755,345 L 755,344 L 754,343 L 754,341 L 753,338 L 752,336 L 751,334 L 751,332 L 752,329 L 754,327 L 756,324 L 758,320 L 760,317 L 760,315 L 761,314 L 761,311 L 762,306 L 763,302 L 764,299 L 765,297 L 765,296 L 765,295 L 766,294 L 766,292 L 768,290 L 769,287 L 769,286 L 771,283 L 772,281 L 774,277 L 777,269 L 778,264 L 777,256 L 772,243 L 771,237 L 772,233 L 772,229 L 770,225 L 770,224 L 770,221 L 771,220 L 771,218 L 772,217 L 774,216 L 776,215 L 780,213 L 784,216 L 786,218 L 789,218 L 791,218 L 793,218 " class="svg-range5" data-original-title="&lt;b&gt;KUJANGSARI&lt;/b&gt;&lt;br /&gt;212" title=""/>
</g>
</g>
</g>
</svg></svg>