<svg id="svg-map" width="null" height="null" xmlns="http://www.w3.org/2000/svg" style="animation-delay: 0s; animation-direction: normal; animation-duration: 0s; animation-fill-mode: none; animation-iteration-count: 1; animation-name: none; animation-play-state: running; animation-timing-function: ease; background-attachment: scroll; background-blend-mode: normal; background-clip: border-box; background-color: rgba(0, 0, 0, 0); background-image: none; background-origin: padding-box; background-position: 0% 0%; background-repeat: repeat; background-size: auto; border-bottom-color: rgb(255, 255, 255); border-bottom-left-radius: 0px; border-bottom-right-radius: 0px; border-bottom-style: none; border-bottom-width: 0px; border-collapse: separate; border-image-outset: 0px; border-image-repeat: stretch; border-image-slice: 100%; border-image-source: none; border-image-width: 1; border-left-color: rgb(255, 255, 255); border-left-style: none; border-left-width: 0px; border-right-color: rgb(255, 255, 255); border-right-style: none; border-right-width: 0px; border-top-color: rgb(255, 255, 255); border-top-left-radius: 0px; border-top-right-radius: 0px; border-top-style: none; border-top-width: 0px; bottom: auto; box-shadow: none; box-sizing: border-box; break-after: auto; break-before: auto; break-inside: auto; caption-side: top; clear: none; clip: auto; color: rgb(255, 255, 255); content: ; cursor: auto; direction: ltr; display: inline; empty-cells: show; float: none; font-family: &quot;Open Sans&quot;, sans-serif; font-kerning: auto; font-size: 13px; font-stretch: normal; font-style: normal; font-variant: normal; font-variant-ligatures: normal; font-variant-caps: normal; font-variant-numeric: normal; font-weight: normal; height: 303.953px; image-rendering: auto; isolation: auto; left: auto; letter-spacing: normal; line-height: 18.5714px; list-style-image: none; list-style-position: outside; list-style-type: disc; margin-bottom: 0px; margin-left: 0px; margin-right: 0px; margin-top: 0px; max-height: 400px; max-width: none; min-height: 0px; min-width: 0px; mix-blend-mode: normal; motion-offset: 0px; motion-path: none; motion-rotation: auto 0deg; object-fit: fill; object-position: 50% 50%; opacity: 1; orphans: 2; outline-color: rgb(255, 255, 255); outline-offset: 0px; outline-style: none; outline-width: 0px; overflow-wrap: normal; overflow-x: hidden; overflow-y: hidden; padding-bottom: 0px; padding-left: 0px; padding-right: 0px; padding-top: 0px; pointer-events: auto; position: static; resize: none; right: auto; speak: normal; table-layout: auto; tab-size: 8; text-align: center; text-align-last: auto; text-decoration: none; text-indent: 0px; text-rendering: auto; text-shadow: none; text-size-adjust: 100%; text-overflow: clip; text-transform: none; top: auto; touch-action: auto; transition-delay: 0s; transition-duration: 0s; transition-property: all; transition-timing-function: ease; unicode-bidi: normal; vertical-align: baseline; visibility: visible; white-space: normal; widows: 2; width: 617.5px; will-change: auto; word-break: normal; word-spacing: 0px; word-wrap: normal; z-index: auto; zoom: 1; -webkit-appearance: none; backface-visibility: visible; -webkit-background-clip: border-box; -webkit-background-origin: padding-box; -webkit-border-horizontal-spacing: 0px; -webkit-border-image: none; -webkit-border-vertical-spacing: 0px; -webkit-box-align: stretch; -webkit-box-decoration-break: slice; -webkit-box-direction: normal; -webkit-box-flex: 0; -webkit-box-flex-group: 1; -webkit-box-lines: single; -webkit-box-ordinal-group: 1; -webkit-box-orient: horizontal; -webkit-box-pack: start; -webkit-box-reflect: none; -webkit-clip-path: none; column-count: auto; column-gap: normal; column-rule-color: rgb(255, 255, 255); column-rule-style: none; column-rule-width: 0px; column-span: none; column-width: auto; align-content: stretch; align-items: stretch; align-self: stretch; flex-basis: auto; flex-grow: 0; flex-shrink: 1; flex-direction: row; flex-wrap: nowrap; justify-content: flex-start; -webkit-font-smoothing: auto; -webkit-highlight: none; -webkit-hyphenate-character: auto; -webkit-line-break: auto; -webkit-line-clamp: none; -webkit-locale: &quot;en&quot;; -webkit-margin-before-collapse: collapse; -webkit-margin-after-collapse: collapse; -webkit-mask-box-image: none; -webkit-mask-box-image-outset: 0px; -webkit-mask-box-image-repeat: stretch; -webkit-mask-box-image-slice: 0 fill; -webkit-mask-box-image-source: none; -webkit-mask-box-image-width: auto; -webkit-mask-clip: border-box; -webkit-mask-composite: source-over; -webkit-mask-image: none; -webkit-mask-origin: border-box; -webkit-mask-position: 0% 0%; -webkit-mask-repeat: repeat; -webkit-mask-size: auto; order: 0; perspective: none; perspective-origin: 308.75px 151.969px; -webkit-print-color-adjust: economy; -webkit-rtl-ordering: logical; shape-outside: none; shape-image-threshold: 0; shape-margin: 0px; -webkit-tap-highlight-color: rgba(0, 0, 0, 0); -webkit-text-combine: none; -webkit-text-decorations-in-effect: none; -webkit-text-emphasis-color: rgb(255, 255, 255); -webkit-text-emphasis-position: over; -webkit-text-emphasis-style: none; -webkit-text-fill-color: rgb(255, 255, 255); -webkit-text-orientation: vertical-right; -webkit-text-security: none; -webkit-text-stroke-color: rgb(255, 255, 255); -webkit-text-stroke-width: 0px; transform: none; transform-origin: 308.75px 151.969px; transform-style: flat; -webkit-user-drag: auto; -webkit-user-modify: read-only; user-select: text; -webkit-writing-mode: horizontal-tb; -webkit-app-region: no-drag; buffered-rendering: auto; clip-path: none; clip-rule: nonzero; mask: none; filter: none; flood-color: rgb(0, 0, 0); flood-opacity: 1; lighting-color: rgb(255, 255, 255); stop-color: rgb(0, 0, 0); stop-opacity: 1; color-interpolation: sRGB; color-interpolation-filters: linearRGB; color-rendering: auto; fill: rgb(0, 0, 0); fill-opacity: 1; fill-rule: nonzero; marker-end: none; marker-mid: none; marker-start: none; mask-type: luminance; shape-rendering: auto; stroke: none; stroke-dasharray: none; stroke-dashoffset: 0px; stroke-linecap: butt; stroke-linejoin: miter; stroke-miterlimit: 4; stroke-opacity: 1; stroke-width: 1px; alignment-baseline: auto; baseline-shift: 0px; dominant-baseline: auto; text-anchor: start; writing-mode: horizontal-tb; vector-effect: none; paint-order: fill stroke markers; d: none; cx: 0px; cy: 0px; x: 0px; y: 0px; r: 0px; rx: auto; ry: auto;" version="1.1" xmlns:xlink="http://www.w3.org/1999/xlink"><style type="text/css">svg:not(:root) { overflow: hidden; }
* { box-sizing: border-box; }
* { font-size: 13px; }
svg { max-height: 100vh; border: none !important; }
#svg-map svg { max-height: 400px; }
#svg-map svg path { fill: rgb(153, 196, 176); stroke: rgb(51, 51, 51); stroke-width: 1; }
#svg-map svg path.svg-range1 { fill: rgb(194, 223, 115); }
#svg-map svg path.svg-range2 { fill: rgb(160, 189, 83); }
#svg-map svg path.svg-range4 { fill: rgb(189, 143, 83); }
#svg-map svg path.svg-range5 { fill: rgb(175, 96, 68); }</style><svg xmlns="http://www.w3.org/2000/svg" xmlns:inkscape="http://www.inkscape.org/namespaces/inkscape" xmlns:xlink="http://www.w3.org/1999/xlink" viewBox="0 0 1097 540" version="1.1">
<!-- svg generated using QGIS www.qgis.org -->
<g id="3273210_id2012__3273210004" inkscape:groupmode="layer" inkscape:label="3273210_id2012__3273210004">
<g stroke="rgb(0,0,0)" fill="rgb(103,151,55)" stroke-linejoin="round" stroke-width="0.26">
<g id="3273210_id2012__3273210004_1">
<path d="M 579,322 L 581,322 L 589,322 L 593,323 L 595,323 L 597,323 L 599,323 L 601,323 L 602,323 L 608,324 L 610,324 L 620,324 L 623,324 L 623,325 L 629,325 L 636,325 L 639,325 L 643,326 L 644,326 L 647,326 L 652,326 L 656,327 L 661,327 L 663,327 L 668,328 L 671,328 L 668,331 L 665,335 L 664,336 L 661,338 L 658,340 L 657,341 L 651,344 L 645,348 L 643,349 L 640,350 L 638,351 L 633,354 L 632,354 L 626,357 L 625,358 L 624,359 L 622,359 L 621,360 L 620,361 L 618,362 L 615,363 L 613,364 L 612,365 L 611,365 L 610,366 L 606,368 L 604,369 L 601,371 L 599,372 L 598,373 L 595,374 L 594,374 L 593,375 L 591,376 L 590,376 L 587,378 L 585,379 L 584,380 L 583,380 L 581,381 L 579,382 L 577,383 L 572,386 L 566,389 L 564,390 L 563,390 L 561,392 L 559,393 L 557,394 L 556,394 L 554,396 L 549,398 L 546,400 L 545,401 L 542,402 L 541,402 L 541,403 L 540,403 L 539,403 L 538,404 L 537,404 L 536,405 L 534,406 L 533,407 L 530,408 L 526,410 L 523,412 L 522,412 L 520,414 L 519,414 L 515,416 L 514,416 L 513,417 L 507,420 L 506,421 L 505,421 L 504,422 L 502,423 L 496,426 L 494,428 L 493,428 L 491,429 L 490,429 L 488,430 L 486,431 L 484,432 L 479,435 L 478,436 L 477,436 L 476,433 L 476,428 L 477,421 L 477,420 L 478,413 L 478,412 L 478,408 L 478,404 L 478,395 L 478,393 L 478,391 L 478,387 L 478,380 L 479,378 L 479,373 L 480,366 L 480,363 L 480,361 L 480,360 L 481,355 L 481,354 L 481,352 L 481,339 L 481,337 L 481,335 L 481,333 L 482,325 L 482,318 L 482,317 L 482,315 L 482,312 L 481,310 L 479,306 L 477,304 L 474,302 L 472,300 L 471,298 L 470,296 L 470,294 L 471,291 L 473,292 L 475,292 L 476,292 L 477,292 L 481,293 L 491,295 L 496,296 L 499,297 L 504,300 L 506,300 L 507,301 L 508,302 L 512,304 L 515,305 L 518,307 L 520,308 L 521,308 L 522,309 L 523,309 L 529,312 L 531,313 L 535,315 L 539,317 L 544,319 L 546,319 L 547,320 L 558,320 L 578,322 L 579,322 " class="svg-range2" data-original-title="&lt;b&gt;PADASUKA&lt;/b&gt;&lt;br /&gt;112" title=""/>
</g>
</g>
</g>
<g id="3273210_id2012__3273210005" inkscape:groupmode="layer" inkscape:label="3273210_id2012__3273210005">
<g stroke="rgb(0,0,0)" fill="rgb(75,168,4)" stroke-linejoin="round" stroke-width="0.26">
<g id="3273210_id2012__3273210005_1">
<path d="M 818,16 L 820,17 L 824,19 L 825,20 L 827,21 L 830,23 L 834,24 L 837,25 L 838,25 L 840,26 L 842,27 L 843,27 L 843,28 L 844,28 L 845,31 L 846,33 L 846,36 L 848,37 L 848,38 L 849,39 L 850,40 L 849,41 L 848,43 L 846,43 L 845,44 L 843,47 L 839,51 L 837,57 L 836,61 L 838,63 L 840,66 L 842,67 L 841,72 L 836,75 L 835,75 L 832,81 L 830,85 L 830,86 L 827,90 L 825,92 L 824,94 L 823,94 L 818,96 L 811,96 L 809,98 L 808,98 L 804,101 L 802,102 L 799,103 L 798,103 L 796,103 L 795,102 L 794,100 L 792,100 L 791,101 L 790,101 L 789,101 L 786,102 L 784,103 L 783,104 L 782,106 L 782,107 L 781,108 L 777,119 L 776,123 L 774,132 L 772,136 L 772,137 L 771,140 L 772,143 L 771,144 L 770,146 L 768,149 L 767,150 L 765,154 L 764,155 L 763,158 L 763,173 L 763,175 L 763,177 L 762,179 L 761,180 L 760,181 L 758,185 L 756,187 L 755,189 L 752,190 L 746,191 L 745,191 L 744,192 L 740,193 L 738,192 L 737,192 L 735,192 L 733,192 L 731,193 L 729,195 L 727,196 L 726,198 L 725,200 L 724,202 L 720,205 L 720,207 L 717,210 L 716,212 L 714,212 L 714,216 L 713,217 L 712,218 L 711,219 L 710,220 L 710,221 L 710,222 L 713,224 L 713,226 L 715,227 L 715,229 L 712,230 L 710,232 L 709,233 L 709,235 L 708,238 L 708,239 L 706,240 L 705,241 L 704,242 L 702,244 L 701,244 L 699,248 L 698,250 L 699,252 L 699,253 L 700,255 L 698,257 L 697,259 L 695,262 L 695,263 L 695,264 L 695,266 L 695,267 L 696,269 L 696,271 L 695,272 L 696,275 L 698,277 L 699,277 L 699,278 L 700,280 L 703,281 L 703,284 L 704,284 L 705,285 L 706,286 L 706,288 L 706,289 L 706,290 L 706,291 L 706,293 L 708,294 L 710,294 L 711,295 L 711,298 L 713,305 L 713,311 L 713,312 L 713,313 L 714,317 L 714,318 L 714,320 L 713,324 L 714,329 L 709,329 L 708,329 L 707,329 L 702,329 L 700,329 L 691,328 L 688,328 L 686,328 L 683,328 L 682,328 L 681,328 L 678,328 L 677,328 L 676,328 L 673,328 L 671,328 L 668,328 L 663,327 L 661,327 L 656,327 L 652,326 L 647,326 L 644,326 L 643,326 L 639,325 L 636,325 L 629,325 L 623,325 L 623,324 L 620,324 L 610,324 L 608,324 L 602,323 L 601,323 L 599,323 L 597,323 L 595,323 L 593,323 L 589,322 L 581,322 L 579,322 L 581,314 L 583,308 L 587,300 L 590,295 L 591,291 L 591,288 L 590,283 L 590,281 L 590,279 L 590,278 L 589,275 L 587,269 L 588,268 L 588,267 L 589,265 L 591,262 L 592,259 L 593,256 L 593,254 L 594,250 L 594,249 L 594,246 L 593,244 L 591,240 L 590,239 L 590,238 L 589,235 L 589,234 L 587,232 L 588,228 L 588,226 L 589,224 L 590,219 L 592,217 L 592,215 L 593,207 L 594,200 L 595,188 L 596,188 L 599,189 L 602,191 L 615,194 L 619,194 L 620,194 L 628,195 L 629,195 L 634,195 L 635,195 L 636,195 L 637,195 L 638,196 L 640,196 L 644,199 L 645,199 L 647,199 L 649,200 L 651,200 L 654,201 L 654,202 L 657,203 L 658,203 L 660,201 L 661,200 L 663,199 L 667,199 L 668,199 L 670,198 L 672,196 L 674,194 L 676,193 L 678,192 L 681,192 L 684,192 L 686,192 L 688,192 L 689,193 L 692,195 L 693,195 L 699,184 L 702,180 L 705,176 L 708,173 L 710,171 L 714,166 L 714,164 L 715,163 L 715,162 L 716,160 L 718,158 L 721,153 L 722,152 L 726,146 L 731,138 L 737,129 L 737,128 L 743,121 L 745,117 L 748,114 L 748,113 L 749,112 L 750,111 L 750,110 L 751,109 L 752,107 L 754,105 L 754,104 L 755,103 L 757,100 L 759,95 L 763,87 L 764,85 L 765,84 L 767,82 L 772,77 L 774,75 L 775,71 L 777,66 L 781,57 L 781,56 L 782,55 L 785,50 L 788,47 L 789,46 L 789,45 L 791,46 L 794,47 L 798,42 L 801,37 L 803,35 L 805,32 L 807,29 L 809,26 L 810,23 L 813,19 L 814,16 L 814,12 L 816,14 L 818,16 " class="svg-range4" data-original-title="&lt;b&gt;PASIRLAYUNG&lt;/b&gt;&lt;br /&gt;229" title=""/>
</g>
</g>
</g>
<g id="3273210_id2012__3273210006" inkscape:groupmode="layer" inkscape:label="3273210_id2012__3273210006">
<g stroke="rgb(0,0,0)" fill="rgb(152,146,25)" stroke-linejoin="round" stroke-width="0.26">
<g id="3273210_id2012__3273210006_1">
<path d="M 556,152 L 557,152 L 557,153 L 558,153 L 561,154 L 562,154 L 565,155 L 568,157 L 568,159 L 567,169 L 568,177 L 570,178 L 571,179 L 582,183 L 586,184 L 591,186 L 593,187 L 595,188 L 594,200 L 593,207 L 592,215 L 592,217 L 590,219 L 589,224 L 588,226 L 588,228 L 587,232 L 589,234 L 589,235 L 590,238 L 590,239 L 591,240 L 593,244 L 594,246 L 594,249 L 594,250 L 593,254 L 593,256 L 592,259 L 591,262 L 589,265 L 588,267 L 588,268 L 587,269 L 589,275 L 590,278 L 590,279 L 590,281 L 590,283 L 591,288 L 591,291 L 590,295 L 587,300 L 583,308 L 581,314 L 579,322 L 578,322 L 558,320 L 547,320 L 546,319 L 544,319 L 539,317 L 535,315 L 531,313 L 529,312 L 523,309 L 522,309 L 521,308 L 520,308 L 518,307 L 515,305 L 512,304 L 508,302 L 507,301 L 506,300 L 504,300 L 499,297 L 496,296 L 491,295 L 481,293 L 477,292 L 476,292 L 475,292 L 473,292 L 471,291 L 471,290 L 471,289 L 471,287 L 471,284 L 471,282 L 471,281 L 472,279 L 472,274 L 472,272 L 473,269 L 473,268 L 473,267 L 474,265 L 474,264 L 474,263 L 475,260 L 476,256 L 476,255 L 476,254 L 476,251 L 476,249 L 476,248 L 476,246 L 476,242 L 475,239 L 475,236 L 475,232 L 474,230 L 474,228 L 474,227 L 473,224 L 473,223 L 473,222 L 474,220 L 474,219 L 475,218 L 475,215 L 475,214 L 476,213 L 476,211 L 476,210 L 476,209 L 476,208 L 474,209 L 471,209 L 471,208 L 471,207 L 471,206 L 471,205 L 470,204 L 470,203 L 469,203 L 468,202 L 467,202 L 465,202 L 464,202 L 463,202 L 461,202 L 460,202 L 458,203 L 457,202 L 455,202 L 454,202 L 453,200 L 454,198 L 453,196 L 450,193 L 451,188 L 451,187 L 454,185 L 461,181 L 463,180 L 470,174 L 477,177 L 478,176 L 481,173 L 482,169 L 482,165 L 482,164 L 481,159 L 481,158 L 481,157 L 482,157 L 482,156 L 485,154 L 487,151 L 492,141 L 494,137 L 495,135 L 497,130 L 499,126 L 500,123 L 500,122 L 505,111 L 512,96 L 518,96 L 523,96 L 532,97 L 539,98 L 538,107 L 536,113 L 535,116 L 533,119 L 530,122 L 528,124 L 523,130 L 521,133 L 508,141 L 509,142 L 514,144 L 516,145 L 522,150 L 524,150 L 526,151 L 530,151 L 534,151 L 539,149 L 545,146 L 547,146 L 549,146 L 550,146 L 551,147 L 552,149 L 553,150 L 554,150 L 555,151 L 556,152 " class="svg-range5" data-original-title="&lt;b&gt;SUKAPADA&lt;/b&gt;&lt;br /&gt;295" title=""/>
</g>
</g>
</g>
<g id="3273210_id2012__3273210001" inkscape:groupmode="layer" inkscape:label="3273210_id2012__3273210001">
<g stroke="rgb(0,0,0)" fill="rgb(120,185,138)" stroke-linejoin="round" stroke-width="0.26">
<g id="3273210_id2012__3273210001_1">
<path d="M 385,485 L 382,487 L 374,491 L 370,493 L 369,494 L 368,494 L 367,495 L 366,495 L 365,496 L 356,500 L 355,501 L 349,505 L 342,508 L 340,509 L 330,514 L 329,515 L 324,518 L 315,523 L 312,517 L 311,516 L 310,515 L 308,511 L 307,510 L 304,505 L 301,501 L 301,500 L 298,495 L 297,493 L 291,484 L 286,477 L 283,472 L 282,471 L 281,469 L 280,467 L 278,464 L 275,460 L 275,459 L 272,454 L 271,453 L 266,445 L 263,440 L 262,439 L 260,435 L 258,433 L 255,428 L 252,424 L 252,422 L 249,418 L 248,417 L 247,415 L 246,413 L 245,413 L 243,408 L 242,408 L 243,407 L 244,406 L 244,405 L 246,402 L 247,401 L 248,398 L 250,396 L 251,394 L 253,391 L 254,390 L 255,388 L 255,387 L 258,384 L 260,381 L 261,379 L 265,373 L 266,373 L 268,369 L 269,368 L 270,367 L 272,364 L 273,362 L 275,360 L 278,358 L 278,357 L 280,356 L 280,355 L 282,353 L 283,352 L 284,351 L 285,350 L 287,347 L 288,347 L 290,346 L 290,345 L 292,344 L 295,349 L 297,352 L 302,365 L 303,366 L 308,377 L 318,399 L 319,400 L 322,399 L 322,400 L 325,399 L 327,398 L 327,399 L 330,398 L 331,401 L 335,400 L 341,400 L 342,402 L 345,408 L 346,410 L 347,412 L 348,414 L 350,419 L 352,424 L 355,429 L 358,434 L 359,434 L 360,435 L 362,438 L 362,439 L 364,443 L 366,446 L 368,451 L 370,456 L 370,457 L 371,459 L 372,461 L 374,464 L 382,479 L 384,483 L 385,485 " class="svg-range1" data-original-title="&lt;b&gt;SUKAMAJU&lt;/b&gt;&lt;br /&gt;48" title=""/>
</g>
</g>
</g>
<g id="3273210_id2012__3273210002" inkscape:groupmode="layer" inkscape:label="3273210_id2012__3273210002">
<g stroke="rgb(0,0,0)" fill="rgb(128,54,133)" stroke-linejoin="round" stroke-width="0.26">
<g id="3273210_id2012__3273210002_1">
<path d="M 441,456 L 439,457 L 432,460 L 431,460 L 425,464 L 422,466 L 416,469 L 412,471 L 409,473 L 407,473 L 404,475 L 399,478 L 394,480 L 392,482 L 388,484 L 385,485 L 384,483 L 382,479 L 374,464 L 372,461 L 371,459 L 370,457 L 370,456 L 368,451 L 366,446 L 364,443 L 362,439 L 362,438 L 360,435 L 359,434 L 358,434 L 355,429 L 352,424 L 350,419 L 348,414 L 347,412 L 346,410 L 345,408 L 342,402 L 341,400 L 335,400 L 331,401 L 330,398 L 327,399 L 327,398 L 325,399 L 322,400 L 322,399 L 319,400 L 318,399 L 308,377 L 303,366 L 302,365 L 297,352 L 295,349 L 292,344 L 294,343 L 296,342 L 297,341 L 298,341 L 298,340 L 300,340 L 301,339 L 302,338 L 306,337 L 309,335 L 310,335 L 311,334 L 312,333 L 313,333 L 314,333 L 316,331 L 319,330 L 320,329 L 323,328 L 325,327 L 327,326 L 328,326 L 330,325 L 334,323 L 340,319 L 342,318 L 343,318 L 348,316 L 351,315 L 360,312 L 363,311 L 363,315 L 365,319 L 367,325 L 369,331 L 372,339 L 372,346 L 372,347 L 372,349 L 373,350 L 373,351 L 374,352 L 376,354 L 372,356 L 372,357 L 375,360 L 376,361 L 378,365 L 379,366 L 380,367 L 380,368 L 381,370 L 385,375 L 387,377 L 389,380 L 391,382 L 393,384 L 394,385 L 395,386 L 396,387 L 401,393 L 404,399 L 405,400 L 407,403 L 409,405 L 409,406 L 410,407 L 412,410 L 413,412 L 414,413 L 416,416 L 416,417 L 417,417 L 417,418 L 418,419 L 419,420 L 421,422 L 422,426 L 423,427 L 424,428 L 425,429 L 426,431 L 428,434 L 430,438 L 430,439 L 433,443 L 435,446 L 437,448 L 441,456 " class="svg-range1" data-original-title="&lt;b&gt;CICADAS&lt;/b&gt;&lt;br /&gt;63" title=""/>
</g>
</g>
</g>
<g id="3273210_id2012__3273210003" inkscape:groupmode="layer" inkscape:label="3273210_id2012__3273210003">
<g stroke="rgb(0,0,0)" fill="rgb(199,111,60)" stroke-linejoin="round" stroke-width="0.26">
<g id="3273210_id2012__3273210003_1">
<path d="M 471,291 L 470,294 L 470,296 L 471,298 L 472,300 L 474,302 L 477,304 L 479,306 L 481,310 L 482,312 L 482,315 L 482,317 L 482,318 L 482,325 L 481,333 L 481,335 L 481,337 L 481,339 L 481,352 L 481,354 L 481,355 L 480,360 L 480,361 L 480,363 L 480,366 L 479,373 L 479,378 L 478,380 L 478,387 L 478,391 L 478,393 L 478,395 L 478,404 L 478,408 L 478,412 L 478,413 L 477,420 L 477,421 L 476,428 L 476,433 L 477,436 L 476,437 L 475,437 L 474,438 L 472,439 L 471,439 L 470,440 L 467,442 L 465,443 L 460,446 L 457,447 L 456,448 L 454,449 L 450,451 L 441,456 L 437,448 L 435,446 L 433,443 L 430,439 L 430,438 L 428,434 L 426,431 L 425,429 L 424,428 L 423,427 L 422,426 L 421,422 L 419,420 L 418,419 L 417,418 L 417,417 L 416,417 L 416,416 L 414,413 L 413,412 L 412,410 L 410,407 L 409,406 L 409,405 L 407,403 L 405,400 L 404,399 L 401,393 L 396,387 L 395,386 L 394,385 L 393,384 L 391,382 L 389,380 L 387,377 L 385,375 L 381,370 L 380,368 L 380,367 L 379,366 L 378,365 L 376,361 L 375,360 L 372,357 L 372,356 L 376,354 L 374,352 L 373,351 L 373,350 L 372,349 L 372,347 L 372,346 L 372,339 L 369,331 L 367,325 L 365,319 L 363,315 L 363,311 L 360,312 L 351,315 L 348,316 L 343,318 L 342,318 L 340,319 L 334,323 L 330,325 L 328,326 L 326,323 L 325,320 L 322,314 L 318,307 L 318,306 L 317,305 L 316,302 L 315,301 L 314,300 L 314,299 L 313,295 L 312,292 L 311,289 L 311,285 L 310,281 L 310,273 L 311,264 L 311,261 L 312,257 L 313,256 L 313,255 L 313,254 L 318,255 L 326,257 L 327,257 L 329,258 L 331,258 L 342,260 L 343,261 L 346,261 L 347,262 L 351,263 L 352,263 L 358,264 L 360,265 L 366,267 L 367,267 L 371,268 L 373,269 L 377,269 L 379,270 L 382,270 L 392,273 L 394,273 L 401,275 L 404,276 L 407,277 L 412,278 L 414,278 L 415,278 L 424,280 L 425,280 L 430,282 L 434,283 L 435,283 L 436,283 L 441,285 L 443,285 L 449,286 L 451,287 L 452,287 L 455,288 L 457,288 L 461,289 L 462,289 L 463,290 L 465,290 L 466,290 L 467,291 L 471,291 " class="svg-range2" data-original-title="&lt;b&gt;CIKUTRA&lt;/b&gt;&lt;br /&gt;138" title=""/>
</g>
</g>
</g>
</svg></svg>