<svg id="svg-map" width="null" height="null" xmlns="http://www.w3.org/2000/svg" style="animation-delay: 0s; animation-direction: normal; animation-duration: 0s; animation-fill-mode: none; animation-iteration-count: 1; animation-name: none; animation-play-state: running; animation-timing-function: ease; background-attachment: scroll; background-blend-mode: normal; background-clip: border-box; background-color: rgba(0, 0, 0, 0); background-image: none; background-origin: padding-box; background-position: 0% 0%; background-repeat: repeat; background-size: auto; border-bottom-color: rgb(255, 255, 255); border-bottom-left-radius: 0px; border-bottom-right-radius: 0px; border-bottom-style: none; border-bottom-width: 0px; border-collapse: separate; border-image-outset: 0px; border-image-repeat: stretch; border-image-slice: 100%; border-image-source: none; border-image-width: 1; border-left-color: rgb(255, 255, 255); border-left-style: none; border-left-width: 0px; border-right-color: rgb(255, 255, 255); border-right-style: none; border-right-width: 0px; border-top-color: rgb(255, 255, 255); border-top-left-radius: 0px; border-top-right-radius: 0px; border-top-style: none; border-top-width: 0px; bottom: auto; box-shadow: none; box-sizing: border-box; break-after: auto; break-before: auto; break-inside: auto; caption-side: top; clear: none; clip: auto; color: rgb(255, 255, 255); content: ; cursor: auto; direction: ltr; display: inline; empty-cells: show; float: none; font-family: &quot;Open Sans&quot;, sans-serif; font-kerning: auto; font-size: 13px; font-stretch: normal; font-style: normal; font-variant: normal; font-variant-ligatures: normal; font-variant-caps: normal; font-variant-numeric: normal; font-weight: normal; height: 303.953px; image-rendering: auto; isolation: auto; left: auto; letter-spacing: normal; line-height: 18.5714px; list-style-image: none; list-style-position: outside; list-style-type: disc; margin-bottom: 0px; margin-left: 0px; margin-right: 0px; margin-top: 0px; max-height: 400px; max-width: none; min-height: 0px; min-width: 0px; mix-blend-mode: normal; motion-offset: 0px; motion-path: none; motion-rotation: auto 0deg; object-fit: fill; object-position: 50% 50%; opacity: 1; orphans: 2; outline-color: rgb(255, 255, 255); outline-offset: 0px; outline-style: none; outline-width: 0px; overflow-wrap: normal; overflow-x: hidden; overflow-y: hidden; padding-bottom: 0px; padding-left: 0px; padding-right: 0px; padding-top: 0px; pointer-events: auto; position: static; resize: none; right: auto; speak: normal; table-layout: auto; tab-size: 8; text-align: center; text-align-last: auto; text-decoration: none; text-indent: 0px; text-rendering: auto; text-shadow: none; text-size-adjust: 100%; text-overflow: clip; text-transform: none; top: auto; touch-action: auto; transition-delay: 0s; transition-duration: 0s; transition-property: all; transition-timing-function: ease; unicode-bidi: normal; vertical-align: baseline; visibility: visible; white-space: normal; widows: 2; width: 617.5px; will-change: auto; word-break: normal; word-spacing: 0px; word-wrap: normal; z-index: auto; zoom: 1; -webkit-appearance: none; backface-visibility: visible; -webkit-background-clip: border-box; -webkit-background-origin: padding-box; -webkit-border-horizontal-spacing: 0px; -webkit-border-image: none; -webkit-border-vertical-spacing: 0px; -webkit-box-align: stretch; -webkit-box-decoration-break: slice; -webkit-box-direction: normal; -webkit-box-flex: 0; -webkit-box-flex-group: 1; -webkit-box-lines: single; -webkit-box-ordinal-group: 1; -webkit-box-orient: horizontal; -webkit-box-pack: start; -webkit-box-reflect: none; -webkit-clip-path: none; column-count: auto; column-gap: normal; column-rule-color: rgb(255, 255, 255); column-rule-style: none; column-rule-width: 0px; column-span: none; column-width: auto; align-content: stretch; align-items: stretch; align-self: stretch; flex-basis: auto; flex-grow: 0; flex-shrink: 1; flex-direction: row; flex-wrap: nowrap; justify-content: flex-start; -webkit-font-smoothing: auto; -webkit-highlight: none; -webkit-hyphenate-character: auto; -webkit-line-break: auto; -webkit-line-clamp: none; -webkit-locale: &quot;en&quot;; -webkit-margin-before-collapse: collapse; -webkit-margin-after-collapse: collapse; -webkit-mask-box-image: none; -webkit-mask-box-image-outset: 0px; -webkit-mask-box-image-repeat: stretch; -webkit-mask-box-image-slice: 0 fill; -webkit-mask-box-image-source: none; -webkit-mask-box-image-width: auto; -webkit-mask-clip: border-box; -webkit-mask-composite: source-over; -webkit-mask-image: none; -webkit-mask-origin: border-box; -webkit-mask-position: 0% 0%; -webkit-mask-repeat: repeat; -webkit-mask-size: auto; order: 0; perspective: none; perspective-origin: 308.75px 151.969px; -webkit-print-color-adjust: economy; -webkit-rtl-ordering: logical; shape-outside: none; shape-image-threshold: 0; shape-margin: 0px; -webkit-tap-highlight-color: rgba(0, 0, 0, 0); -webkit-text-combine: none; -webkit-text-decorations-in-effect: none; -webkit-text-emphasis-color: rgb(255, 255, 255); -webkit-text-emphasis-position: over; -webkit-text-emphasis-style: none; -webkit-text-fill-color: rgb(255, 255, 255); -webkit-text-orientation: vertical-right; -webkit-text-security: none; -webkit-text-stroke-color: rgb(255, 255, 255); -webkit-text-stroke-width: 0px; transform: none; transform-origin: 308.75px 151.969px; transform-style: flat; -webkit-user-drag: auto; -webkit-user-modify: read-only; user-select: text; -webkit-writing-mode: horizontal-tb; -webkit-app-region: no-drag; buffered-rendering: auto; clip-path: none; clip-rule: nonzero; mask: none; filter: none; flood-color: rgb(0, 0, 0); flood-opacity: 1; lighting-color: rgb(255, 255, 255); stop-color: rgb(0, 0, 0); stop-opacity: 1; color-interpolation: sRGB; color-interpolation-filters: linearRGB; color-rendering: auto; fill: rgb(0, 0, 0); fill-opacity: 1; fill-rule: nonzero; marker-end: none; marker-mid: none; marker-start: none; mask-type: luminance; shape-rendering: auto; stroke: none; stroke-dasharray: none; stroke-dashoffset: 0px; stroke-linecap: butt; stroke-linejoin: miter; stroke-miterlimit: 4; stroke-opacity: 1; stroke-width: 1px; alignment-baseline: auto; baseline-shift: 0px; dominant-baseline: auto; text-anchor: start; writing-mode: horizontal-tb; vector-effect: none; paint-order: fill stroke markers; d: none; cx: 0px; cy: 0px; x: 0px; y: 0px; r: 0px; rx: auto; ry: auto;" version="1.1" xmlns:xlink="http://www.w3.org/1999/xlink"><style type="text/css">svg:not(:root) { overflow: hidden; }
* { box-sizing: border-box; }
* { font-size: 13px; }
svg { max-height: 100vh; border: none !important; }
#svg-map svg { max-height: 400px; }
#svg-map svg path { fill: rgb(153, 196, 176); stroke: rgb(51, 51, 51); stroke-width: 1; }
#svg-map svg path.svg-range1 { fill: rgb(194, 223, 115); }
#svg-map svg path.svg-range2 { fill: rgb(160, 189, 83); }
#svg-map svg path.svg-range5 { fill: rgb(175, 96, 68); }</style><svg xmlns="http://www.w3.org/2000/svg" xmlns:inkscape="http://www.inkscape.org/namespaces/inkscape" xmlns:xlink="http://www.w3.org/1999/xlink" viewBox="0 0 1097 540" version="1.1">
<!-- svg generated using QGIS www.qgis.org -->
<g id="3273110_id2012__3273110004" inkscape:groupmode="layer" inkscape:label="3273110_id2012__3273110004">
<g stroke="rgb(0,0,0)" fill="rgb(61,128,10)" stroke-linejoin="round" stroke-width="0.26">
<g id="3273110_id2012__3273110004_1">
<path d="M 595,225 L 596,226 L 597,229 L 596,232 L 596,234 L 596,235 L 595,236 L 596,236 L 597,238 L 600,238 L 599,241 L 598,243 L 597,245 L 595,248 L 592,252 L 590,257 L 588,262 L 586,266 L 584,270 L 583,271 L 576,282 L 577,282 L 577,284 L 575,286 L 573,287 L 572,290 L 569,294 L 567,299 L 565,302 L 565,304 L 562,308 L 560,311 L 559,313 L 556,318 L 553,318 L 549,320 L 548,321 L 547,321 L 544,321 L 543,322 L 542,323 L 537,324 L 526,320 L 524,323 L 522,327 L 521,329 L 520,331 L 520,333 L 518,341 L 516,343 L 516,344 L 515,346 L 512,349 L 511,352 L 510,355 L 509,354 L 507,357 L 502,369 L 501,371 L 501,372 L 500,373 L 500,379 L 504,380 L 501,383 L 499,383 L 498,385 L 497,387 L 496,389 L 494,391 L 493,395 L 490,397 L 500,400 L 500,401 L 499,405 L 499,406 L 499,407 L 498,410 L 497,413 L 496,414 L 496,415 L 497,417 L 497,419 L 498,421 L 498,423 L 498,427 L 497,433 L 496,435 L 496,438 L 496,439 L 496,442 L 495,445 L 494,450 L 493,454 L 491,459 L 489,463 L 489,465 L 490,467 L 490,468 L 489,471 L 487,475 L 486,476 L 483,484 L 482,488 L 481,491 L 480,494 L 479,495 L 477,497 L 476,499 L 475,501 L 474,503 L 474,505 L 472,510 L 471,517 L 470,519 L 470,520 L 469,521 L 468,521 L 465,520 L 463,519 L 460,518 L 459,517 L 458,517 L 457,516 L 456,516 L 452,514 L 449,512 L 448,510 L 447,509 L 447,508 L 446,507 L 445,504 L 445,503 L 444,502 L 444,500 L 443,499 L 442,496 L 441,493 L 439,490 L 438,490 L 435,487 L 427,484 L 425,484 L 422,483 L 419,482 L 417,482 L 417,481 L 415,481 L 411,480 L 410,480 L 407,478 L 406,478 L 403,476 L 402,475 L 401,474 L 399,472 L 398,469 L 397,468 L 396,466 L 396,465 L 395,464 L 394,463 L 394,462 L 394,461 L 393,459 L 392,457 L 390,453 L 389,451 L 388,449 L 388,448 L 388,447 L 388,446 L 387,446 L 386,445 L 386,444 L 384,439 L 383,436 L 382,435 L 382,434 L 380,431 L 379,430 L 379,428 L 379,427 L 378,426 L 379,425 L 381,423 L 383,422 L 388,421 L 398,419 L 402,418 L 407,416 L 416,412 L 418,410 L 420,409 L 423,404 L 424,404 L 427,398 L 431,395 L 435,392 L 436,390 L 440,387 L 445,382 L 446,381 L 447,381 L 448,380 L 448,379 L 450,378 L 452,376 L 454,375 L 457,373 L 458,372 L 459,371 L 459,370 L 459,368 L 460,367 L 461,366 L 461,365 L 462,365 L 462,362 L 464,362 L 466,361 L 466,359 L 466,357 L 467,356 L 469,355 L 468,354 L 459,345 L 467,337 L 469,335 L 471,336 L 472,336 L 475,333 L 480,328 L 482,326 L 484,323 L 485,323 L 486,322 L 489,319 L 491,318 L 490,317 L 489,316 L 488,315 L 491,313 L 494,311 L 496,311 L 497,310 L 505,302 L 513,294 L 515,292 L 515,291 L 517,293 L 518,294 L 520,292 L 521,292 L 525,288 L 525,287 L 529,283 L 532,277 L 533,275 L 534,273 L 532,272 L 537,265 L 538,264 L 540,265 L 544,259 L 544,258 L 545,258 L 545,257 L 546,256 L 546,255 L 551,246 L 555,240 L 559,234 L 567,221 L 572,223 L 574,223 L 577,224 L 578,224 L 593,225 L 595,225 " class="svg-range2" data-original-title="&lt;b&gt;CIPADUNG&lt;/b&gt;&lt;br /&gt;246" title=""/>
</g>
</g>
</g>
<g id="3273110_id2012__3273110005" inkscape:groupmode="layer" inkscape:label="3273110_id2012__3273110005">
<g stroke="rgb(0,0,0)" fill="rgb(115,150,54)" stroke-linejoin="round" stroke-width="0.26">
<g id="3273110_id2012__3273110005_1">
<path d="M 716,139 L 712,138 L 711,138 L 704,135 L 700,138 L 697,135 L 693,133 L 690,131 L 687,129 L 686,128 L 685,128 L 682,130 L 681,131 L 677,133 L 673,136 L 671,137 L 668,140 L 667,142 L 667,144 L 668,148 L 666,150 L 664,151 L 660,158 L 656,164 L 652,168 L 649,170 L 647,172 L 644,173 L 642,173 L 638,172 L 635,173 L 634,175 L 632,178 L 630,184 L 628,188 L 627,192 L 624,200 L 622,203 L 617,202 L 611,209 L 608,208 L 599,220 L 599,221 L 598,222 L 596,224 L 595,225 L 593,225 L 578,224 L 577,224 L 574,223 L 572,223 L 567,221 L 559,234 L 555,240 L 551,246 L 546,255 L 546,256 L 545,257 L 545,258 L 544,258 L 544,259 L 540,265 L 538,264 L 537,265 L 532,272 L 534,273 L 533,275 L 532,277 L 529,283 L 525,287 L 525,288 L 521,292 L 520,292 L 518,294 L 517,293 L 515,291 L 515,292 L 513,294 L 505,302 L 497,310 L 496,311 L 494,311 L 491,313 L 488,315 L 489,316 L 490,317 L 491,318 L 489,319 L 486,322 L 485,323 L 484,323 L 482,326 L 480,328 L 475,333 L 472,336 L 471,336 L 469,335 L 467,337 L 459,345 L 468,354 L 469,355 L 467,356 L 466,357 L 466,359 L 466,361 L 464,362 L 462,362 L 462,365 L 461,365 L 461,366 L 460,367 L 459,368 L 459,370 L 459,371 L 458,372 L 457,373 L 454,375 L 452,376 L 450,378 L 448,379 L 448,380 L 447,381 L 446,381 L 445,382 L 440,387 L 436,390 L 435,392 L 431,395 L 427,398 L 424,404 L 423,404 L 420,409 L 418,410 L 416,412 L 407,416 L 402,418 L 398,419 L 388,421 L 383,422 L 381,423 L 379,425 L 378,426 L 378,423 L 377,422 L 377,420 L 375,413 L 375,410 L 374,407 L 373,405 L 373,404 L 373,402 L 373,401 L 372,397 L 371,396 L 371,394 L 371,393 L 370,391 L 370,389 L 370,388 L 369,387 L 369,385 L 369,384 L 368,382 L 366,372 L 365,371 L 365,370 L 365,369 L 365,368 L 364,366 L 367,364 L 369,362 L 372,358 L 374,355 L 375,353 L 376,352 L 376,351 L 376,350 L 375,350 L 375,349 L 377,349 L 378,347 L 377,342 L 378,340 L 380,339 L 381,338 L 383,338 L 384,332 L 385,329 L 387,328 L 390,325 L 390,320 L 392,318 L 393,315 L 393,314 L 394,313 L 396,313 L 397,313 L 399,313 L 401,313 L 402,314 L 403,314 L 405,314 L 406,313 L 410,314 L 413,314 L 414,314 L 418,316 L 422,315 L 424,315 L 426,315 L 427,314 L 427,313 L 429,311 L 430,308 L 430,304 L 431,302 L 433,300 L 433,298 L 432,296 L 432,295 L 433,295 L 435,295 L 436,294 L 438,293 L 439,292 L 441,291 L 442,290 L 443,289 L 444,289 L 445,290 L 447,292 L 450,292 L 454,290 L 458,289 L 460,287 L 462,286 L 463,285 L 464,285 L 468,285 L 470,285 L 471,284 L 470,283 L 469,282 L 468,280 L 470,279 L 471,278 L 472,277 L 472,276 L 473,274 L 475,273 L 477,271 L 480,269 L 482,266 L 485,265 L 487,263 L 490,263 L 490,261 L 491,260 L 492,259 L 494,259 L 496,258 L 497,258 L 500,258 L 502,258 L 503,256 L 504,254 L 506,252 L 506,250 L 506,246 L 507,244 L 507,243 L 508,242 L 508,241 L 509,241 L 518,233 L 522,230 L 523,230 L 526,228 L 529,228 L 532,228 L 534,227 L 537,227 L 538,227 L 539,223 L 539,220 L 539,219 L 541,212 L 542,211 L 543,209 L 544,204 L 545,201 L 548,195 L 546,192 L 549,189 L 551,188 L 555,185 L 557,184 L 558,183 L 559,183 L 560,182 L 564,180 L 567,178 L 571,177 L 572,178 L 574,179 L 576,181 L 577,181 L 579,181 L 581,179 L 584,176 L 586,173 L 589,171 L 590,170 L 596,164 L 598,162 L 601,157 L 602,155 L 606,150 L 607,148 L 608,148 L 612,142 L 613,141 L 615,138 L 618,135 L 619,134 L 624,130 L 625,129 L 626,128 L 629,126 L 629,125 L 636,120 L 638,118 L 639,117 L 641,117 L 643,117 L 647,117 L 650,116 L 652,116 L 656,113 L 658,113 L 663,110 L 667,107 L 668,107 L 671,105 L 672,102 L 674,100 L 677,98 L 677,97 L 679,96 L 680,95 L 682,94 L 685,92 L 687,90 L 688,89 L 691,86 L 693,82 L 696,80 L 697,78 L 698,77 L 699,77 L 700,78 L 701,78 L 702,78 L 703,77 L 703,76 L 703,75 L 704,75 L 704,74 L 704,73 L 710,75 L 711,75 L 714,74 L 715,73 L 716,73 L 716,72 L 717,71 L 718,71 L 719,70 L 720,70 L 721,70 L 722,70 L 723,71 L 724,71 L 723,72 L 723,74 L 722,76 L 722,78 L 721,83 L 721,88 L 721,90 L 723,92 L 725,93 L 727,94 L 728,95 L 731,97 L 733,98 L 734,100 L 739,102 L 738,103 L 738,104 L 737,106 L 736,107 L 734,109 L 733,110 L 732,112 L 731,115 L 730,115 L 729,117 L 728,119 L 727,122 L 726,123 L 725,125 L 723,128 L 722,129 L 721,130 L 720,132 L 718,135 L 716,139 " class="svg-range1" data-original-title="&lt;b&gt;PALASARI&lt;/b&gt;&lt;br /&gt;203" title=""/>
</g>
</g>
</g>
<g id="3273110_id2012__3273110006" inkscape:groupmode="layer" inkscape:label="3273110_id2012__3273110006">
<g stroke="rgb(0,0,0)" fill="rgb(194,245,27)" stroke-linejoin="round" stroke-width="0.26">
<g id="3273110_id2012__3273110006_1">
<path d="M 704,73 L 704,74 L 704,75 L 703,75 L 703,76 L 703,77 L 702,78 L 701,78 L 700,78 L 699,77 L 698,77 L 697,78 L 696,80 L 693,82 L 691,86 L 688,89 L 687,90 L 685,92 L 682,94 L 680,95 L 679,96 L 677,97 L 677,98 L 674,100 L 672,102 L 671,105 L 668,107 L 667,107 L 663,110 L 658,113 L 656,113 L 652,116 L 650,116 L 647,117 L 643,117 L 641,117 L 639,117 L 638,118 L 636,120 L 629,125 L 629,126 L 626,128 L 625,129 L 624,130 L 619,134 L 618,135 L 615,138 L 613,141 L 612,142 L 608,148 L 607,148 L 606,150 L 602,155 L 601,157 L 598,162 L 596,164 L 590,170 L 589,171 L 586,173 L 584,176 L 581,179 L 579,181 L 577,181 L 576,181 L 574,179 L 572,178 L 571,177 L 567,178 L 564,180 L 560,182 L 559,183 L 558,183 L 557,184 L 555,185 L 551,188 L 549,189 L 546,192 L 548,195 L 545,201 L 544,204 L 543,209 L 542,211 L 541,212 L 539,219 L 539,220 L 539,223 L 538,227 L 537,227 L 534,227 L 532,228 L 529,228 L 526,228 L 523,230 L 522,230 L 518,233 L 509,241 L 508,241 L 508,242 L 507,243 L 507,244 L 506,246 L 506,250 L 506,252 L 504,254 L 503,256 L 502,258 L 500,258 L 497,258 L 496,258 L 494,259 L 492,259 L 491,260 L 490,261 L 490,263 L 487,263 L 485,265 L 482,266 L 480,269 L 477,271 L 475,273 L 473,274 L 472,276 L 472,277 L 471,278 L 470,279 L 468,280 L 469,282 L 470,283 L 471,284 L 470,285 L 468,285 L 464,285 L 463,285 L 462,286 L 460,287 L 458,289 L 454,290 L 450,292 L 447,292 L 445,290 L 444,289 L 443,289 L 442,290 L 441,291 L 439,292 L 438,293 L 436,294 L 435,295 L 433,295 L 432,295 L 432,296 L 433,298 L 433,300 L 431,302 L 430,304 L 430,308 L 429,311 L 427,313 L 427,314 L 426,315 L 424,315 L 422,315 L 418,316 L 414,314 L 413,314 L 410,314 L 406,313 L 405,314 L 403,314 L 402,314 L 401,313 L 399,313 L 397,313 L 396,313 L 394,313 L 393,314 L 393,315 L 392,318 L 390,320 L 390,325 L 387,328 L 385,329 L 384,332 L 383,338 L 381,338 L 380,339 L 378,340 L 377,342 L 378,347 L 377,349 L 375,349 L 375,350 L 376,350 L 376,351 L 376,352 L 375,353 L 374,355 L 372,358 L 369,362 L 367,364 L 364,366 L 363,362 L 362,360 L 362,356 L 361,354 L 361,353 L 360,350 L 360,349 L 358,347 L 356,343 L 353,340 L 354,339 L 355,339 L 355,338 L 356,338 L 357,337 L 357,336 L 357,335 L 358,335 L 359,334 L 360,333 L 361,332 L 362,330 L 363,329 L 363,327 L 364,326 L 365,326 L 365,325 L 366,325 L 366,324 L 365,323 L 364,322 L 363,321 L 366,319 L 367,318 L 368,317 L 369,316 L 371,315 L 372,314 L 373,313 L 374,312 L 375,312 L 376,311 L 377,310 L 380,307 L 380,306 L 381,306 L 381,305 L 380,304 L 380,303 L 381,301 L 384,298 L 381,297 L 381,295 L 380,293 L 380,292 L 379,291 L 380,290 L 380,289 L 381,288 L 381,287 L 382,286 L 382,285 L 384,283 L 385,282 L 387,280 L 388,279 L 389,278 L 389,277 L 390,277 L 391,276 L 391,275 L 392,275 L 392,274 L 393,273 L 394,272 L 395,272 L 397,270 L 399,269 L 402,270 L 403,270 L 404,269 L 409,268 L 413,264 L 414,263 L 416,263 L 417,262 L 419,261 L 420,260 L 421,259 L 422,259 L 423,258 L 424,258 L 426,257 L 431,254 L 434,252 L 436,251 L 437,251 L 442,249 L 444,248 L 446,248 L 447,248 L 449,247 L 451,245 L 455,244 L 455,243 L 461,238 L 462,238 L 464,236 L 466,235 L 467,234 L 471,232 L 472,231 L 474,225 L 475,223 L 475,221 L 476,220 L 477,219 L 478,219 L 479,218 L 480,218 L 481,218 L 482,218 L 484,218 L 487,215 L 488,213 L 489,212 L 490,210 L 491,208 L 492,204 L 493,202 L 493,199 L 494,197 L 495,196 L 496,195 L 496,194 L 497,192 L 497,190 L 498,188 L 499,187 L 503,190 L 506,191 L 508,191 L 511,190 L 512,188 L 513,187 L 514,187 L 516,188 L 519,187 L 519,186 L 520,185 L 521,183 L 521,182 L 522,181 L 523,181 L 525,180 L 528,180 L 530,179 L 530,177 L 529,175 L 527,172 L 527,170 L 528,169 L 531,167 L 532,166 L 532,164 L 532,160 L 532,157 L 532,156 L 527,152 L 525,151 L 523,150 L 522,149 L 521,148 L 520,148 L 520,147 L 519,147 L 518,146 L 517,146 L 515,145 L 513,144 L 512,143 L 511,143 L 510,142 L 509,142 L 507,141 L 505,140 L 504,140 L 502,139 L 498,137 L 495,136 L 493,135 L 491,134 L 490,134 L 489,133 L 487,132 L 486,132 L 484,131 L 482,130 L 478,128 L 477,129 L 474,131 L 473,133 L 472,134 L 470,135 L 468,136 L 467,136 L 466,137 L 464,137 L 462,138 L 461,138 L 459,138 L 456,139 L 452,142 L 451,142 L 449,141 L 451,138 L 450,137 L 449,136 L 448,135 L 448,134 L 447,133 L 451,130 L 452,129 L 452,128 L 453,127 L 453,125 L 453,123 L 453,121 L 454,120 L 455,119 L 455,118 L 457,118 L 457,117 L 457,116 L 457,115 L 457,114 L 457,113 L 457,112 L 457,111 L 457,110 L 456,109 L 457,109 L 457,108 L 458,108 L 459,107 L 463,106 L 464,106 L 466,104 L 466,103 L 466,102 L 466,101 L 467,100 L 469,98 L 471,97 L 472,97 L 475,97 L 478,97 L 480,96 L 481,94 L 480,91 L 480,88 L 481,87 L 482,85 L 482,83 L 481,81 L 481,80 L 483,78 L 483,76 L 482,74 L 482,72 L 481,70 L 480,68 L 480,66 L 481,65 L 482,64 L 482,63 L 483,62 L 484,62 L 486,62 L 488,62 L 489,62 L 491,65 L 492,65 L 493,66 L 495,66 L 498,66 L 499,66 L 501,66 L 502,66 L 507,67 L 515,66 L 517,66 L 523,64 L 526,63 L 527,62 L 528,62 L 529,62 L 529,61 L 530,60 L 530,59 L 531,59 L 533,58 L 535,57 L 536,57 L 539,54 L 541,53 L 541,52 L 544,50 L 543,48 L 542,47 L 542,45 L 543,43 L 544,41 L 546,39 L 547,37 L 547,36 L 549,34 L 550,33 L 552,28 L 554,26 L 557,23 L 560,20 L 565,16 L 567,14 L 569,12 L 570,14 L 571,16 L 573,18 L 575,19 L 576,21 L 577,22 L 576,25 L 577,27 L 579,28 L 580,29 L 583,29 L 585,27 L 586,25 L 587,24 L 588,24 L 589,24 L 591,25 L 602,25 L 606,24 L 609,23 L 611,23 L 613,24 L 614,24 L 615,23 L 616,22 L 617,21 L 618,20 L 619,21 L 620,24 L 620,26 L 621,28 L 621,29 L 622,31 L 622,33 L 623,36 L 623,38 L 625,39 L 626,39 L 627,40 L 631,42 L 634,42 L 638,44 L 646,47 L 648,47 L 650,47 L 652,47 L 653,46 L 655,46 L 661,47 L 665,47 L 675,52 L 675,53 L 674,54 L 672,64 L 672,67 L 673,67 L 678,69 L 679,69 L 682,70 L 684,69 L 685,69 L 686,69 L 688,69 L 689,69 L 691,69 L 692,69 L 692,68 L 696,65 L 697,65 L 700,66 L 705,69 L 704,72 L 704,73 " class="svg-range5" data-original-title="&lt;b&gt;CISURUPAN&lt;/b&gt;&lt;br /&gt;375" title=""/>
</g>
</g>
</g>
<g id="3273110_id2012__3273110003" inkscape:groupmode="layer" inkscape:label="3273110_id2012__3273110003">
<g stroke="rgb(0,0,0)" fill="rgb(157,63,130)" stroke-linejoin="round" stroke-width="0.26">
<g id="3273110_id2012__3273110003_1">
<path d="M 716,139 L 716,141 L 714,145 L 714,146 L 713,148 L 712,150 L 711,153 L 709,158 L 708,162 L 707,166 L 708,167 L 709,167 L 711,168 L 712,168 L 712,169 L 712,170 L 712,172 L 710,177 L 710,179 L 709,182 L 707,188 L 704,192 L 703,193 L 702,194 L 699,194 L 694,193 L 689,191 L 679,187 L 678,187 L 675,185 L 674,185 L 673,186 L 669,191 L 667,194 L 663,199 L 660,203 L 657,207 L 656,206 L 653,207 L 652,208 L 652,209 L 651,210 L 650,211 L 648,213 L 646,215 L 643,215 L 642,217 L 639,224 L 638,225 L 637,229 L 635,234 L 633,237 L 632,239 L 631,240 L 630,242 L 629,243 L 628,244 L 628,245 L 627,247 L 626,248 L 624,247 L 623,247 L 620,247 L 615,244 L 615,245 L 614,247 L 613,249 L 610,256 L 608,261 L 606,266 L 604,269 L 602,273 L 602,276 L 601,280 L 602,286 L 601,289 L 600,293 L 598,292 L 594,290 L 589,288 L 588,289 L 587,288 L 586,288 L 585,287 L 584,287 L 584,288 L 584,289 L 583,290 L 582,291 L 580,295 L 579,297 L 578,299 L 577,299 L 577,300 L 575,300 L 574,300 L 572,301 L 571,301 L 570,302 L 570,304 L 569,306 L 567,309 L 565,312 L 565,313 L 566,314 L 567,315 L 567,316 L 565,321 L 566,321 L 567,321 L 568,321 L 568,322 L 569,322 L 571,323 L 572,323 L 578,325 L 579,326 L 580,327 L 581,327 L 579,332 L 578,335 L 576,340 L 575,343 L 573,346 L 571,350 L 571,351 L 571,352 L 573,354 L 573,356 L 572,359 L 570,364 L 571,366 L 572,367 L 570,374 L 570,375 L 570,376 L 570,377 L 570,378 L 569,381 L 569,384 L 568,387 L 570,388 L 574,389 L 579,390 L 580,391 L 579,394 L 577,396 L 574,402 L 571,405 L 570,406 L 568,408 L 567,409 L 566,410 L 564,411 L 563,412 L 562,414 L 565,417 L 569,422 L 568,423 L 567,426 L 567,429 L 567,432 L 567,433 L 566,438 L 565,439 L 563,443 L 562,444 L 559,448 L 557,449 L 556,450 L 552,450 L 551,451 L 551,452 L 549,454 L 546,456 L 545,459 L 544,460 L 543,460 L 541,463 L 540,465 L 539,466 L 538,472 L 536,478 L 536,480 L 535,482 L 534,483 L 533,483 L 532,485 L 532,486 L 531,487 L 531,488 L 531,489 L 532,491 L 530,493 L 530,495 L 529,497 L 527,500 L 527,502 L 525,506 L 523,506 L 521,506 L 519,507 L 518,508 L 517,508 L 517,509 L 518,510 L 518,511 L 516,512 L 515,513 L 514,513 L 513,514 L 512,514 L 511,515 L 508,516 L 503,518 L 502,518 L 501,518 L 500,518 L 498,519 L 496,519 L 493,519 L 491,520 L 489,520 L 487,521 L 485,521 L 484,521 L 483,522 L 482,522 L 481,522 L 479,522 L 478,523 L 475,523 L 473,522 L 471,522 L 469,521 L 470,520 L 470,519 L 471,517 L 472,510 L 474,505 L 474,503 L 475,501 L 476,499 L 477,497 L 479,495 L 480,494 L 481,491 L 482,488 L 483,484 L 486,476 L 487,475 L 489,471 L 490,468 L 490,467 L 489,465 L 489,463 L 491,459 L 493,454 L 494,450 L 495,445 L 496,442 L 496,439 L 496,438 L 496,435 L 497,433 L 498,427 L 498,423 L 498,421 L 497,419 L 497,417 L 496,415 L 496,414 L 497,413 L 498,410 L 499,407 L 499,406 L 499,405 L 500,401 L 500,400 L 490,397 L 493,395 L 494,391 L 496,389 L 497,387 L 498,385 L 499,383 L 501,383 L 504,380 L 500,379 L 500,373 L 501,372 L 501,371 L 502,369 L 507,357 L 509,354 L 510,355 L 511,352 L 512,349 L 515,346 L 516,344 L 516,343 L 518,341 L 520,333 L 520,331 L 521,329 L 522,327 L 524,323 L 526,320 L 537,324 L 542,323 L 543,322 L 544,321 L 547,321 L 548,321 L 549,320 L 553,318 L 556,318 L 559,313 L 560,311 L 562,308 L 565,304 L 565,302 L 567,299 L 569,294 L 572,290 L 573,287 L 575,286 L 577,284 L 577,282 L 576,282 L 583,271 L 584,270 L 586,266 L 588,262 L 590,257 L 592,252 L 595,248 L 597,245 L 598,243 L 599,241 L 600,238 L 597,238 L 596,236 L 595,236 L 596,235 L 596,234 L 596,232 L 597,229 L 596,226 L 595,225 L 596,224 L 598,222 L 599,221 L 599,220 L 608,208 L 611,209 L 617,202 L 622,203 L 624,200 L 627,192 L 628,188 L 630,184 L 632,178 L 634,175 L 635,173 L 638,172 L 642,173 L 644,173 L 647,172 L 649,170 L 652,168 L 656,164 L 660,158 L 664,151 L 666,150 L 668,148 L 667,144 L 667,142 L 668,140 L 671,137 L 673,136 L 677,133 L 681,131 L 682,130 L 685,128 L 686,128 L 687,129 L 690,131 L 693,133 L 697,135 L 700,138 L 704,135 L 711,138 L 712,138 L 716,139 " class="svg-range2" data-original-title="&lt;b&gt;PASIR BIRU&lt;/b&gt;&lt;br /&gt;271" title=""/>
</g>
</g>
</g>
</svg></svg>