<svg id="svg-map" width="null" height="null" xmlns="http://www.w3.org/2000/svg" style="animation-delay: 0s; animation-direction: normal; animation-duration: 0s; animation-fill-mode: none; animation-iteration-count: 1; animation-name: none; animation-play-state: running; animation-timing-function: ease; background-attachment: scroll; background-blend-mode: normal; background-clip: border-box; background-color: rgba(0, 0, 0, 0); background-image: none; background-origin: padding-box; background-position: 0% 0%; background-repeat: repeat; background-size: auto; border-bottom-color: rgb(255, 255, 255); border-bottom-left-radius: 0px; border-bottom-right-radius: 0px; border-bottom-style: none; border-bottom-width: 0px; border-collapse: separate; border-image-outset: 0px; border-image-repeat: stretch; border-image-slice: 100%; border-image-source: none; border-image-width: 1; border-left-color: rgb(255, 255, 255); border-left-style: none; border-left-width: 0px; border-right-color: rgb(255, 255, 255); border-right-style: none; border-right-width: 0px; border-top-color: rgb(255, 255, 255); border-top-left-radius: 0px; border-top-right-radius: 0px; border-top-style: none; border-top-width: 0px; bottom: auto; box-shadow: none; box-sizing: border-box; break-after: auto; break-before: auto; break-inside: auto; caption-side: top; clear: none; clip: auto; color: rgb(255, 255, 255); content: ; cursor: auto; direction: ltr; display: inline; empty-cells: show; float: none; font-family: &quot;Open Sans&quot;, sans-serif; font-kerning: auto; font-size: 13px; font-stretch: normal; font-style: normal; font-variant: normal; font-variant-ligatures: normal; font-variant-caps: normal; font-variant-numeric: normal; font-weight: normal; height: 303.953px; image-rendering: auto; isolation: auto; left: auto; letter-spacing: normal; line-height: 18.5714px; list-style-image: none; list-style-position: outside; list-style-type: disc; margin-bottom: 0px; margin-left: 0px; margin-right: 0px; margin-top: 0px; max-height: 400px; max-width: none; min-height: 0px; min-width: 0px; mix-blend-mode: normal; motion-offset: 0px; motion-path: none; motion-rotation: auto 0deg; object-fit: fill; object-position: 50% 50%; opacity: 1; orphans: 2; outline-color: rgb(255, 255, 255); outline-offset: 0px; outline-style: none; outline-width: 0px; overflow-wrap: normal; overflow-x: hidden; overflow-y: hidden; padding-bottom: 0px; padding-left: 0px; padding-right: 0px; padding-top: 0px; pointer-events: auto; position: static; resize: none; right: auto; speak: normal; table-layout: auto; tab-size: 8; text-align: center; text-align-last: auto; text-decoration: none; text-indent: 0px; text-rendering: auto; text-shadow: none; text-size-adjust: 100%; text-overflow: clip; text-transform: none; top: auto; touch-action: auto; transition-delay: 0s; transition-duration: 0s; transition-property: all; transition-timing-function: ease; unicode-bidi: normal; vertical-align: baseline; visibility: visible; white-space: normal; widows: 2; width: 617.5px; will-change: auto; word-break: normal; word-spacing: 0px; word-wrap: normal; z-index: auto; zoom: 1; -webkit-appearance: none; backface-visibility: visible; -webkit-background-clip: border-box; -webkit-background-origin: padding-box; -webkit-border-horizontal-spacing: 0px; -webkit-border-image: none; -webkit-border-vertical-spacing: 0px; -webkit-box-align: stretch; -webkit-box-decoration-break: slice; -webkit-box-direction: normal; -webkit-box-flex: 0; -webkit-box-flex-group: 1; -webkit-box-lines: single; -webkit-box-ordinal-group: 1; -webkit-box-orient: horizontal; -webkit-box-pack: start; -webkit-box-reflect: none; -webkit-clip-path: none; column-count: auto; column-gap: normal; column-rule-color: rgb(255, 255, 255); column-rule-style: none; column-rule-width: 0px; column-span: none; column-width: auto; align-content: stretch; align-items: stretch; align-self: stretch; flex-basis: auto; flex-grow: 0; flex-shrink: 1; flex-direction: row; flex-wrap: nowrap; justify-content: flex-start; -webkit-font-smoothing: auto; -webkit-highlight: none; -webkit-hyphenate-character: auto; -webkit-line-break: auto; -webkit-line-clamp: none; -webkit-locale: &quot;en&quot;; -webkit-margin-before-collapse: collapse; -webkit-margin-after-collapse: collapse; -webkit-mask-box-image: none; -webkit-mask-box-image-outset: 0px; -webkit-mask-box-image-repeat: stretch; -webkit-mask-box-image-slice: 0 fill; -webkit-mask-box-image-source: none; -webkit-mask-box-image-width: auto; -webkit-mask-clip: border-box; -webkit-mask-composite: source-over; -webkit-mask-image: none; -webkit-mask-origin: border-box; -webkit-mask-position: 0% 0%; -webkit-mask-repeat: repeat; -webkit-mask-size: auto; order: 0; perspective: none; perspective-origin: 308.75px 151.969px; -webkit-print-color-adjust: economy; -webkit-rtl-ordering: logical; shape-outside: none; shape-image-threshold: 0; shape-margin: 0px; -webkit-tap-highlight-color: rgba(0, 0, 0, 0); -webkit-text-combine: none; -webkit-text-decorations-in-effect: none; -webkit-text-emphasis-color: rgb(255, 255, 255); -webkit-text-emphasis-position: over; -webkit-text-emphasis-style: none; -webkit-text-fill-color: rgb(255, 255, 255); -webkit-text-orientation: vertical-right; -webkit-text-security: none; -webkit-text-stroke-color: rgb(255, 255, 255); -webkit-text-stroke-width: 0px; transform: none; transform-origin: 308.75px 151.969px; transform-style: flat; -webkit-user-drag: auto; -webkit-user-modify: read-only; user-select: text; -webkit-writing-mode: horizontal-tb; -webkit-app-region: no-drag; buffered-rendering: auto; clip-path: none; clip-rule: nonzero; mask: none; filter: none; flood-color: rgb(0, 0, 0); flood-opacity: 1; lighting-color: rgb(255, 255, 255); stop-color: rgb(0, 0, 0); stop-opacity: 1; color-interpolation: sRGB; color-interpolation-filters: linearRGB; color-rendering: auto; fill: rgb(0, 0, 0); fill-opacity: 1; fill-rule: nonzero; marker-end: none; marker-mid: none; marker-start: none; mask-type: luminance; shape-rendering: auto; stroke: none; stroke-dasharray: none; stroke-dashoffset: 0px; stroke-linecap: butt; stroke-linejoin: miter; stroke-miterlimit: 4; stroke-opacity: 1; stroke-width: 1px; alignment-baseline: auto; baseline-shift: 0px; dominant-baseline: auto; text-anchor: start; writing-mode: horizontal-tb; vector-effect: none; paint-order: fill stroke markers; d: none; cx: 0px; cy: 0px; x: 0px; y: 0px; r: 0px; rx: auto; ry: auto;" version="1.1" xmlns:xlink="http://www.w3.org/1999/xlink"><style type="text/css">svg:not(:root) { overflow: hidden; }
* { box-sizing: border-box; }
* { font-size: 13px; }
svg { max-height: 100vh; border: none !important; }
#svg-map svg { max-height: 400px; }
#svg-map svg path { fill: rgb(153, 196, 176); stroke: rgb(51, 51, 51); stroke-width: 1; }
#svg-map svg path.svg-range1 { fill: rgb(194, 223, 115); }
#svg-map svg path.svg-range4 { fill: rgb(189, 143, 83); }
#svg-map svg path.svg-range5 { fill: rgb(175, 96, 68); }</style><svg xmlns="http://www.w3.org/2000/svg" xmlns:inkscape="http://www.inkscape.org/namespaces/inkscape" xmlns:xlink="http://www.w3.org/1999/xlink" viewBox="0 0 1097 540" version="1.1">
<!-- svg generated using QGIS www.qgis.org -->
<g id="3273240_id2012__3273240003" inkscape:groupmode="layer" inkscape:label="3273240_id2012__3273240003">
<g stroke="rgb(0,0,0)" fill="rgb(165,140,107)" stroke-linejoin="round" stroke-width="0.26">
<g id="3273240_id2012__3273240003_1">
<path d="M 635,337 L 640,338 L 645,337 L 650,338 L 653,338 L 656,338 L 659,338 L 663,339 L 667,339 L 674,341 L 681,341 L 688,343 L 692,343 L 693,343 L 695,343 L 701,343 L 702,343 L 705,342 L 709,341 L 711,340 L 713,340 L 716,340 L 722,339 L 726,339 L 729,340 L 731,342 L 731,344 L 730,346 L 730,348 L 732,349 L 734,350 L 740,350 L 744,351 L 746,351 L 753,351 L 757,352 L 760,352 L 762,352 L 768,353 L 769,353 L 772,354 L 778,354 L 779,355 L 779,362 L 779,367 L 780,373 L 780,378 L 780,379 L 780,381 L 780,384 L 781,393 L 781,395 L 782,413 L 782,420 L 783,428 L 783,430 L 783,436 L 783,441 L 783,444 L 784,447 L 784,454 L 784,458 L 784,471 L 785,479 L 785,494 L 785,496 L 786,516 L 786,523 L 785,523 L 784,523 L 784,522 L 781,522 L 769,522 L 768,522 L 767,522 L 766,522 L 765,522 L 764,522 L 763,522 L 761,522 L 759,522 L 757,521 L 754,520 L 753,520 L 747,518 L 743,516 L 738,514 L 733,511 L 730,509 L 729,508 L 728,507 L 727,506 L 725,505 L 723,502 L 722,501 L 721,500 L 719,498 L 718,497 L 717,497 L 716,496 L 714,494 L 710,490 L 707,487 L 705,486 L 704,484 L 703,484 L 702,483 L 700,481 L 698,480 L 697,479 L 696,478 L 694,476 L 694,475 L 693,474 L 692,474 L 687,469 L 686,468 L 683,465 L 677,461 L 675,459 L 674,458 L 671,456 L 668,454 L 666,453 L 665,452 L 663,451 L 661,449 L 659,448 L 658,448 L 657,447 L 655,446 L 654,445 L 652,444 L 651,444 L 650,443 L 648,442 L 646,441 L 645,440 L 644,440 L 643,439 L 642,439 L 641,438 L 640,438 L 639,437 L 638,436 L 636,436 L 634,435 L 633,434 L 632,434 L 630,433 L 628,432 L 626,431 L 625,418 L 624,407 L 624,402 L 623,397 L 623,393 L 623,389 L 623,384 L 623,379 L 623,378 L 623,376 L 623,370 L 623,368 L 623,366 L 623,365 L 623,362 L 623,361 L 623,359 L 623,358 L 622,343 L 622,338 L 623,337 L 628,337 L 630,336 L 635,337 " class="svg-range4" data-original-title="&lt;b&gt;SUKABUNGAH&lt;/b&gt;&lt;br /&gt;229" title=""/>
</g>
</g>
</g>
<g id="3273240_id2012__3273240004" inkscape:groupmode="layer" inkscape:label="3273240_id2012__3273240004">
<g stroke="rgb(0,0,0)" fill="rgb(172,157,239)" stroke-linejoin="round" stroke-width="0.26">
<g id="3273240_id2012__3273240004_1">
<path d="M 759,36 L 761,73 L 761,77 L 762,81 L 762,82 L 762,84 L 762,92 L 764,125 L 764,131 L 765,137 L 765,145 L 765,147 L 765,148 L 767,179 L 767,183 L 767,189 L 768,203 L 768,207 L 768,214 L 769,219 L 769,222 L 770,228 L 771,230 L 771,235 L 772,239 L 772,245 L 773,251 L 774,268 L 774,274 L 775,282 L 775,288 L 775,299 L 775,304 L 775,306 L 776,310 L 776,312 L 776,314 L 776,317 L 776,320 L 778,342 L 778,354 L 772,354 L 769,353 L 768,353 L 762,352 L 760,352 L 757,352 L 753,351 L 746,351 L 744,351 L 740,350 L 734,350 L 732,349 L 730,348 L 730,346 L 731,344 L 731,342 L 729,340 L 726,339 L 722,339 L 716,340 L 713,340 L 711,340 L 709,341 L 705,342 L 702,343 L 701,343 L 695,343 L 693,343 L 692,343 L 688,343 L 681,341 L 674,341 L 667,339 L 663,339 L 659,338 L 656,338 L 653,338 L 650,338 L 645,337 L 640,338 L 635,337 L 635,336 L 635,333 L 636,323 L 637,318 L 637,312 L 637,308 L 637,298 L 638,295 L 639,282 L 639,277 L 639,276 L 639,274 L 638,271 L 638,270 L 636,265 L 636,264 L 637,260 L 638,250 L 639,242 L 639,240 L 638,235 L 638,232 L 636,223 L 635,219 L 635,213 L 635,212 L 636,210 L 636,204 L 637,201 L 638,193 L 639,182 L 639,181 L 640,178 L 641,170 L 641,168 L 641,165 L 640,163 L 640,161 L 639,158 L 637,156 L 634,155 L 633,154 L 630,154 L 626,155 L 622,155 L 618,155 L 617,150 L 617,149 L 616,138 L 616,135 L 616,126 L 615,121 L 615,119 L 615,112 L 614,109 L 615,101 L 616,98 L 616,96 L 618,91 L 619,85 L 620,82 L 620,79 L 621,77 L 621,76 L 622,74 L 624,66 L 624,65 L 622,63 L 623,57 L 624,53 L 624,51 L 624,47 L 625,37 L 625,26 L 625,16 L 625,13 L 628,13 L 636,15 L 640,16 L 642,16 L 645,16 L 647,16 L 651,17 L 652,19 L 656,24 L 657,24 L 659,25 L 660,25 L 661,25 L 663,25 L 666,25 L 668,25 L 670,25 L 671,25 L 673,25 L 675,25 L 677,26 L 680,26 L 682,26 L 683,26 L 687,26 L 690,27 L 691,27 L 694,27 L 699,30 L 706,36 L 712,40 L 714,42 L 716,43 L 719,45 L 722,46 L 723,47 L 726,47 L 729,45 L 730,44 L 731,43 L 734,39 L 735,37 L 736,37 L 738,37 L 740,37 L 742,37 L 743,37 L 745,37 L 749,37 L 754,36 L 755,36 L 759,36 " class="svg-range5" data-original-title="&lt;b&gt;CIPEDES&lt;/b&gt;&lt;br /&gt;274" title=""/>
</g>
</g>
</g>
<g id="3273240_id2012__3273240005" inkscape:groupmode="layer" inkscape:label="3273240_id2012__3273240005">
<g stroke="rgb(0,0,0)" fill="rgb(186,236,69)" stroke-linejoin="round" stroke-width="0.26">
<g id="3273240_id2012__3273240005_1">
<path d="M 869,115 L 871,120 L 871,121 L 872,123 L 872,125 L 874,131 L 877,138 L 878,142 L 879,147 L 881,150 L 881,153 L 882,157 L 884,164 L 885,168 L 885,169 L 886,174 L 887,183 L 888,190 L 891,207 L 894,219 L 895,223 L 896,231 L 896,233 L 898,244 L 900,257 L 900,266 L 902,307 L 902,312 L 902,319 L 903,324 L 903,327 L 903,329 L 903,334 L 903,339 L 904,343 L 904,344 L 905,354 L 905,366 L 906,373 L 905,377 L 905,381 L 904,386 L 904,388 L 903,390 L 902,394 L 900,407 L 899,418 L 899,419 L 899,420 L 898,421 L 898,422 L 898,423 L 898,429 L 898,465 L 898,469 L 898,473 L 898,478 L 898,504 L 898,507 L 898,517 L 898,523 L 892,522 L 887,522 L 878,523 L 874,522 L 871,522 L 861,522 L 853,523 L 847,522 L 843,522 L 842,522 L 841,523 L 839,522 L 836,522 L 833,523 L 831,523 L 827,522 L 813,522 L 809,522 L 806,522 L 804,522 L 796,522 L 793,522 L 786,523 L 786,516 L 785,496 L 785,494 L 785,479 L 784,471 L 784,458 L 784,454 L 784,447 L 783,444 L 783,441 L 783,436 L 783,430 L 783,428 L 782,420 L 782,413 L 781,395 L 781,393 L 780,384 L 780,381 L 780,379 L 780,378 L 780,373 L 779,367 L 779,362 L 779,355 L 778,354 L 778,342 L 776,320 L 776,317 L 776,314 L 776,312 L 776,310 L 775,306 L 775,304 L 775,299 L 775,288 L 775,282 L 774,274 L 774,268 L 773,251 L 772,245 L 772,239 L 771,235 L 771,230 L 770,228 L 769,222 L 769,219 L 768,214 L 768,207 L 768,203 L 767,189 L 767,183 L 767,179 L 765,148 L 765,147 L 765,145 L 765,137 L 764,131 L 764,125 L 762,92 L 762,84 L 762,82 L 762,81 L 761,77 L 761,73 L 759,36 L 762,35 L 765,35 L 766,35 L 773,34 L 776,34 L 778,34 L 779,34 L 781,34 L 782,34 L 789,34 L 796,34 L 802,34 L 806,34 L 807,35 L 808,36 L 808,37 L 810,41 L 811,44 L 813,47 L 814,50 L 816,55 L 817,56 L 818,57 L 819,59 L 819,60 L 820,60 L 820,61 L 821,63 L 822,64 L 823,66 L 823,67 L 824,69 L 825,71 L 827,75 L 827,76 L 829,79 L 830,80 L 831,82 L 832,83 L 833,85 L 836,89 L 838,91 L 839,92 L 839,93 L 840,93 L 840,94 L 842,96 L 843,97 L 844,98 L 845,99 L 849,102 L 849,103 L 852,106 L 855,108 L 856,108 L 859,111 L 861,112 L 865,114 L 869,115 " class="svg-range1" data-original-title="&lt;b&gt;PASTEUR&lt;/b&gt;&lt;br /&gt;79" title=""/>
</g>
</g>
</g>
<g id="3273240_id2012__3273240001" inkscape:groupmode="layer" inkscape:label="3273240_id2012__3273240001">
<g stroke="rgb(0,0,0)" fill="rgb(174,137,25)" stroke-linejoin="round" stroke-width="0.26">
<g id="3273240_id2012__3273240001_1">
<path d="M 406,334 L 404,334 L 399,333 L 391,331 L 390,330 L 380,327 L 377,325 L 374,324 L 365,320 L 363,319 L 352,315 L 345,313 L 334,310 L 331,309 L 330,309 L 328,308 L 321,307 L 319,306 L 307,304 L 306,304 L 305,304 L 304,303 L 303,303 L 301,303 L 300,303 L 298,302 L 296,302 L 294,302 L 293,300 L 293,298 L 291,297 L 289,294 L 287,292 L 286,291 L 284,288 L 283,286 L 280,283 L 278,280 L 274,277 L 269,272 L 268,269 L 264,261 L 263,259 L 261,256 L 261,252 L 257,248 L 256,247 L 255,247 L 253,246 L 252,246 L 251,244 L 250,243 L 249,241 L 245,236 L 241,232 L 240,229 L 235,220 L 233,215 L 232,211 L 230,209 L 227,208 L 222,207 L 218,206 L 216,203 L 214,201 L 211,200 L 209,199 L 207,199 L 205,200 L 204,199 L 203,198 L 201,196 L 201,194 L 202,188 L 202,185 L 203,182 L 203,178 L 202,174 L 203,172 L 202,170 L 200,169 L 193,169 L 191,167 L 191,166 L 190,164 L 190,160 L 189,158 L 189,156 L 187,150 L 186,149 L 188,141 L 189,139 L 208,132 L 212,131 L 234,123 L 235,123 L 236,123 L 237,122 L 238,122 L 239,122 L 242,121 L 243,121 L 246,120 L 248,119 L 249,118 L 251,118 L 253,117 L 254,117 L 256,116 L 257,116 L 260,115 L 262,114 L 263,114 L 268,112 L 270,112 L 272,111 L 273,111 L 277,110 L 278,110 L 279,109 L 282,108 L 284,108 L 285,107 L 286,107 L 290,106 L 291,105 L 296,104 L 298,103 L 299,103 L 305,101 L 309,100 L 315,98 L 320,97 L 321,96 L 322,96 L 323,96 L 325,95 L 327,94 L 328,94 L 339,91 L 344,90 L 347,89 L 349,88 L 350,88 L 351,88 L 358,86 L 365,83 L 370,82 L 374,81 L 378,80 L 378,79 L 381,78 L 383,78 L 389,76 L 393,75 L 395,74 L 399,73 L 402,72 L 405,71 L 407,71 L 408,70 L 409,73 L 411,79 L 413,85 L 414,90 L 415,92 L 416,97 L 416,104 L 416,107 L 416,108 L 416,110 L 415,119 L 415,121 L 414,125 L 414,127 L 414,135 L 414,136 L 414,141 L 414,142 L 415,154 L 414,157 L 414,164 L 414,168 L 413,175 L 413,178 L 413,179 L 413,191 L 412,202 L 412,208 L 412,211 L 412,218 L 411,227 L 411,230 L 412,238 L 413,248 L 413,252 L 413,253 L 414,260 L 415,267 L 415,269 L 415,272 L 415,281 L 415,287 L 415,288 L 415,302 L 414,316 L 414,321 L 412,325 L 411,328 L 406,334 " class="svg-range1" data-original-title="&lt;b&gt;SUKAWARNA&lt;/b&gt;&lt;br /&gt;102" title=""/>
</g>
</g>
</g>
<g id="3273240_id2012__3273240002" inkscape:groupmode="layer" inkscape:label="3273240_id2012__3273240002">
<g stroke="rgb(0,0,0)" fill="rgb(0,221,151)" stroke-linejoin="round" stroke-width="0.26">
<g id="3273240_id2012__3273240002_1">
<path d="M 624,14 L 625,13 L 625,16 L 625,26 L 625,37 L 624,47 L 624,51 L 624,53 L 623,57 L 622,63 L 624,65 L 624,66 L 622,74 L 621,76 L 621,77 L 620,79 L 620,82 L 619,85 L 618,91 L 616,96 L 616,98 L 615,101 L 614,109 L 615,112 L 615,119 L 615,121 L 616,126 L 616,135 L 616,138 L 617,149 L 617,150 L 618,155 L 622,155 L 626,155 L 630,154 L 633,154 L 634,155 L 637,156 L 639,158 L 640,161 L 640,163 L 641,165 L 641,168 L 641,170 L 640,178 L 639,181 L 639,182 L 638,193 L 637,201 L 636,204 L 636,210 L 635,212 L 635,213 L 635,219 L 636,223 L 638,232 L 638,235 L 639,240 L 639,242 L 638,250 L 637,260 L 636,264 L 636,265 L 638,270 L 638,271 L 639,274 L 639,276 L 639,277 L 639,282 L 638,295 L 637,298 L 637,308 L 637,312 L 637,318 L 636,323 L 635,333 L 635,336 L 635,337 L 630,336 L 628,337 L 623,337 L 622,338 L 622,343 L 623,358 L 623,359 L 623,361 L 623,362 L 623,365 L 623,366 L 623,368 L 623,370 L 623,376 L 623,378 L 623,379 L 623,384 L 623,389 L 623,393 L 623,397 L 624,402 L 624,407 L 625,418 L 626,431 L 624,430 L 622,429 L 607,421 L 604,419 L 603,419 L 602,418 L 600,417 L 595,414 L 594,413 L 592,411 L 589,409 L 588,408 L 586,407 L 583,404 L 581,403 L 579,401 L 575,399 L 573,397 L 571,396 L 566,392 L 560,387 L 558,386 L 557,385 L 555,384 L 555,383 L 553,382 L 551,380 L 549,379 L 548,378 L 544,376 L 544,375 L 543,375 L 541,373 L 540,373 L 536,369 L 535,369 L 532,366 L 526,362 L 524,361 L 523,360 L 522,359 L 521,359 L 521,358 L 518,357 L 515,355 L 513,354 L 510,352 L 504,348 L 499,346 L 496,345 L 495,344 L 492,343 L 491,343 L 490,342 L 489,342 L 488,342 L 485,341 L 483,340 L 480,340 L 479,339 L 477,339 L 476,339 L 471,338 L 465,337 L 451,338 L 440,338 L 438,338 L 436,338 L 435,338 L 433,338 L 431,338 L 429,338 L 425,338 L 420,338 L 418,338 L 413,336 L 410,335 L 406,334 L 411,328 L 412,325 L 414,321 L 414,316 L 415,302 L 415,288 L 415,287 L 415,281 L 415,272 L 415,269 L 415,267 L 414,260 L 413,253 L 413,252 L 413,248 L 412,238 L 411,230 L 411,227 L 412,218 L 412,211 L 412,208 L 412,202 L 413,191 L 413,179 L 413,178 L 413,175 L 414,168 L 414,164 L 414,157 L 415,154 L 414,142 L 414,141 L 414,136 L 414,135 L 414,127 L 414,125 L 415,121 L 415,119 L 416,110 L 416,108 L 416,107 L 416,104 L 416,97 L 415,92 L 414,90 L 413,85 L 411,79 L 409,73 L 408,70 L 410,70 L 411,70 L 416,69 L 432,65 L 437,64 L 444,61 L 462,57 L 465,56 L 467,55 L 469,55 L 471,54 L 472,54 L 473,53 L 481,51 L 483,51 L 485,50 L 488,49 L 489,49 L 494,47 L 505,44 L 506,43 L 511,42 L 512,42 L 513,41 L 515,41 L 535,35 L 536,34 L 537,34 L 539,33 L 543,32 L 545,31 L 546,31 L 549,30 L 550,30 L 552,29 L 554,29 L 555,29 L 557,28 L 562,26 L 568,24 L 575,22 L 579,21 L 582,20 L 585,19 L 586,19 L 587,19 L 589,18 L 592,16 L 594,15 L 597,14 L 599,14 L 602,14 L 608,12 L 612,12 L 614,12 L 617,13 L 618,14 L 623,14 L 624,14 " class="svg-range4" data-original-title="&lt;b&gt;SUKAGALIH&lt;/b&gt;&lt;br /&gt;226" title=""/>
</g>
</g>
</g>
</svg></svg>