<svg id="svg-map" width="null" height="null" xmlns="http://www.w3.org/2000/svg" style="animation-delay: 0s; animation-direction: normal; animation-duration: 0s; animation-fill-mode: none; animation-iteration-count: 1; animation-name: none; animation-play-state: running; animation-timing-function: ease; background-attachment: scroll; background-blend-mode: normal; background-clip: border-box; background-color: rgba(0, 0, 0, 0); background-image: none; background-origin: padding-box; background-position: 0% 0%; background-repeat: repeat; background-size: auto; border-bottom-color: rgb(255, 255, 255); border-bottom-left-radius: 0px; border-bottom-right-radius: 0px; border-bottom-style: none; border-bottom-width: 0px; border-collapse: separate; border-image-outset: 0px; border-image-repeat: stretch; border-image-slice: 100%; border-image-source: none; border-image-width: 1; border-left-color: rgb(255, 255, 255); border-left-style: none; border-left-width: 0px; border-right-color: rgb(255, 255, 255); border-right-style: none; border-right-width: 0px; border-top-color: rgb(255, 255, 255); border-top-left-radius: 0px; border-top-right-radius: 0px; border-top-style: none; border-top-width: 0px; bottom: auto; box-shadow: none; box-sizing: border-box; break-after: auto; break-before: auto; break-inside: auto; caption-side: top; clear: none; clip: auto; color: rgb(255, 255, 255); content: ; cursor: auto; direction: ltr; display: inline; empty-cells: show; float: none; font-family: &quot;Open Sans&quot;, sans-serif; font-kerning: auto; font-size: 13px; font-stretch: normal; font-style: normal; font-variant: normal; font-variant-ligatures: normal; font-variant-caps: normal; font-variant-numeric: normal; font-weight: normal; height: 303.953px; image-rendering: auto; isolation: auto; left: auto; letter-spacing: normal; line-height: 18.5714px; list-style-image: none; list-style-position: outside; list-style-type: disc; margin-bottom: 0px; margin-left: 0px; margin-right: 0px; margin-top: 0px; max-height: 400px; max-width: none; min-height: 0px; min-width: 0px; mix-blend-mode: normal; motion-offset: 0px; motion-path: none; motion-rotation: auto 0deg; object-fit: fill; object-position: 50% 50%; opacity: 1; orphans: 2; outline-color: rgb(255, 255, 255); outline-offset: 0px; outline-style: none; outline-width: 0px; overflow-wrap: normal; overflow-x: hidden; overflow-y: hidden; padding-bottom: 0px; padding-left: 0px; padding-right: 0px; padding-top: 0px; pointer-events: auto; position: static; resize: none; right: auto; speak: normal; table-layout: auto; tab-size: 8; text-align: center; text-align-last: auto; text-decoration: none; text-indent: 0px; text-rendering: auto; text-shadow: none; text-size-adjust: 100%; text-overflow: clip; text-transform: none; top: auto; touch-action: auto; transition-delay: 0s; transition-duration: 0s; transition-property: all; transition-timing-function: ease; unicode-bidi: normal; vertical-align: baseline; visibility: visible; white-space: normal; widows: 2; width: 617.5px; will-change: auto; word-break: normal; word-spacing: 0px; word-wrap: normal; z-index: auto; zoom: 1; -webkit-appearance: none; backface-visibility: visible; -webkit-background-clip: border-box; -webkit-background-origin: padding-box; -webkit-border-horizontal-spacing: 0px; -webkit-border-image: none; -webkit-border-vertical-spacing: 0px; -webkit-box-align: stretch; -webkit-box-decoration-break: slice; -webkit-box-direction: normal; -webkit-box-flex: 0; -webkit-box-flex-group: 1; -webkit-box-lines: single; -webkit-box-ordinal-group: 1; -webkit-box-orient: horizontal; -webkit-box-pack: start; -webkit-box-reflect: none; -webkit-clip-path: none; column-count: auto; column-gap: normal; column-rule-color: rgb(255, 255, 255); column-rule-style: none; column-rule-width: 0px; column-span: none; column-width: auto; align-content: stretch; align-items: stretch; align-self: stretch; flex-basis: auto; flex-grow: 0; flex-shrink: 1; flex-direction: row; flex-wrap: nowrap; justify-content: flex-start; -webkit-font-smoothing: auto; -webkit-highlight: none; -webkit-hyphenate-character: auto; -webkit-line-break: auto; -webkit-line-clamp: none; -webkit-locale: &quot;en&quot;; -webkit-margin-before-collapse: collapse; -webkit-margin-after-collapse: collapse; -webkit-mask-box-image: none; -webkit-mask-box-image-outset: 0px; -webkit-mask-box-image-repeat: stretch; -webkit-mask-box-image-slice: 0 fill; -webkit-mask-box-image-source: none; -webkit-mask-box-image-width: auto; -webkit-mask-clip: border-box; -webkit-mask-composite: source-over; -webkit-mask-image: none; -webkit-mask-origin: border-box; -webkit-mask-position: 0% 0%; -webkit-mask-repeat: repeat; -webkit-mask-size: auto; order: 0; perspective: none; perspective-origin: 308.75px 151.969px; -webkit-print-color-adjust: economy; -webkit-rtl-ordering: logical; shape-outside: none; shape-image-threshold: 0; shape-margin: 0px; -webkit-tap-highlight-color: rgba(0, 0, 0, 0); -webkit-text-combine: none; -webkit-text-decorations-in-effect: none; -webkit-text-emphasis-color: rgb(255, 255, 255); -webkit-text-emphasis-position: over; -webkit-text-emphasis-style: none; -webkit-text-fill-color: rgb(255, 255, 255); -webkit-text-orientation: vertical-right; -webkit-text-security: none; -webkit-text-stroke-color: rgb(255, 255, 255); -webkit-text-stroke-width: 0px; transform: none; transform-origin: 308.75px 151.969px; transform-style: flat; -webkit-user-drag: auto; -webkit-user-modify: read-only; user-select: text; -webkit-writing-mode: horizontal-tb; -webkit-app-region: no-drag; buffered-rendering: auto; clip-path: none; clip-rule: nonzero; mask: none; filter: none; flood-color: rgb(0, 0, 0); flood-opacity: 1; lighting-color: rgb(255, 255, 255); stop-color: rgb(0, 0, 0); stop-opacity: 1; color-interpolation: sRGB; color-interpolation-filters: linearRGB; color-rendering: auto; fill: rgb(0, 0, 0); fill-opacity: 1; fill-rule: nonzero; marker-end: none; marker-mid: none; marker-start: none; mask-type: luminance; shape-rendering: auto; stroke: none; stroke-dasharray: none; stroke-dashoffset: 0px; stroke-linecap: butt; stroke-linejoin: miter; stroke-miterlimit: 4; stroke-opacity: 1; stroke-width: 1px; alignment-baseline: auto; baseline-shift: 0px; dominant-baseline: auto; text-anchor: start; writing-mode: horizontal-tb; vector-effect: none; paint-order: fill stroke markers; d: none; cx: 0px; cy: 0px; x: 0px; y: 0px; r: 0px; rx: auto; ry: auto;" version="1.1" xmlns:xlink="http://www.w3.org/1999/xlink"><style type="text/css">svg:not(:root) { overflow: hidden; }
* { box-sizing: border-box; }
* { font-size: 13px; }
svg { max-height: 100vh; border: none !important; }
#svg-map svg { max-height: 400px; }
#svg-map svg path { fill: rgb(153, 196, 176); stroke: rgb(51, 51, 51); stroke-width: 1; }
#svg-map svg path.svg-range1 { fill: rgb(194, 223, 115); }
#svg-map svg path.svg-range2 { fill: rgb(160, 189, 83); }
#svg-map svg path.svg-range3 { fill: rgb(189, 170, 83); }
#svg-map svg path.svg-range5 { fill: rgb(175, 96, 68); }</style><svg xmlns="http://www.w3.org/2000/svg" xmlns:inkscape="http://www.inkscape.org/namespaces/inkscape" xmlns:xlink="http://www.w3.org/1999/xlink" viewBox="0 0 1097 540" version="1.1">
<!-- svg generated using QGIS www.qgis.org -->
<g id="3273100_id2012__3273100006" inkscape:groupmode="layer" inkscape:label="3273100_id2012__3273100006">
<g stroke="rgb(0,0,0)" fill="rgb(182,132,85)" stroke-linejoin="round" stroke-width="0.26">
<g id="3273100_id2012__3273100006_1">
<path d="M 621,296 L 622,297 L 623,298 L 623,300 L 623,303 L 621,312 L 621,317 L 621,323 L 619,336 L 618,344 L 617,347 L 617,349 L 617,354 L 615,371 L 614,374 L 614,375 L 611,383 L 609,393 L 607,404 L 606,415 L 606,417 L 605,418 L 605,421 L 605,423 L 605,428 L 605,433 L 604,435 L 604,440 L 604,444 L 604,446 L 604,452 L 605,457 L 605,463 L 605,476 L 604,496 L 604,503 L 603,506 L 583,504 L 543,501 L 541,500 L 520,498 L 518,498 L 511,497 L 489,497 L 487,497 L 486,497 L 483,497 L 481,498 L 474,498 L 461,499 L 460,499 L 455,499 L 448,499 L 442,499 L 438,498 L 427,498 L 411,496 L 407,496 L 402,495 L 398,495 L 396,494 L 393,493 L 391,493 L 382,491 L 367,487 L 362,486 L 360,485 L 358,484 L 341,480 L 341,477 L 341,474 L 338,470 L 334,463 L 332,460 L 331,459 L 324,449 L 321,438 L 321,435 L 320,435 L 320,434 L 319,427 L 319,424 L 318,423 L 318,420 L 318,419 L 318,418 L 318,410 L 318,409 L 319,407 L 319,406 L 320,404 L 322,400 L 324,395 L 324,394 L 322,389 L 320,387 L 316,385 L 318,382 L 319,380 L 320,375 L 322,370 L 324,364 L 324,361 L 325,360 L 326,357 L 326,356 L 327,356 L 328,357 L 329,357 L 329,358 L 330,358 L 331,359 L 332,359 L 333,360 L 334,360 L 335,361 L 340,363 L 342,364 L 344,365 L 345,365 L 347,366 L 348,367 L 350,367 L 350,368 L 357,370 L 358,370 L 361,371 L 365,373 L 366,373 L 367,374 L 368,374 L 370,374 L 371,375 L 372,375 L 379,377 L 381,377 L 382,378 L 387,379 L 389,380 L 391,380 L 391,381 L 392,381 L 394,381 L 396,382 L 400,383 L 403,384 L 404,384 L 407,385 L 409,385 L 415,387 L 422,388 L 425,389 L 427,390 L 430,390 L 434,392 L 437,392 L 438,393 L 439,393 L 445,394 L 446,395 L 450,396 L 451,396 L 452,396 L 455,397 L 460,397 L 461,397 L 464,398 L 467,398 L 468,398 L 470,398 L 471,398 L 472,399 L 474,399 L 475,399 L 477,400 L 480,400 L 484,401 L 486,401 L 496,403 L 500,403 L 503,404 L 505,404 L 507,404 L 508,404 L 510,405 L 511,405 L 513,405 L 514,405 L 516,405 L 518,406 L 519,406 L 522,406 L 523,406 L 525,407 L 527,407 L 528,407 L 529,407 L 530,407 L 531,403 L 532,399 L 533,394 L 534,391 L 536,382 L 537,378 L 537,375 L 539,363 L 538,345 L 538,343 L 537,330 L 537,329 L 537,328 L 536,317 L 535,298 L 535,296 L 543,298 L 573,299 L 584,297 L 601,295 L 603,295 L 609,295 L 613,295 L 616,296 L 619,296 L 621,296 " class="svg-range2" data-original-title="&lt;b&gt;MEKARJAYA&lt;/b&gt;&lt;br /&gt;148" title=""/>
</g>
</g>
</g>
<g id="3273100_id2012__3273100001" inkscape:groupmode="layer" inkscape:label="3273100_id2012__3273100001">
<g stroke="rgb(0,0,0)" fill="rgb(94,177,204)" stroke-linejoin="round" stroke-width="0.26">
<g id="3273100_id2012__3273100001_1">
<path d="M 753,268 L 754,270 L 755,271 L 756,272 L 756,273 L 755,274 L 754,275 L 754,276 L 755,279 L 757,282 L 758,284 L 757,286 L 757,288 L 757,290 L 759,294 L 759,295 L 759,296 L 758,298 L 758,297 L 757,298 L 755,300 L 755,303 L 754,306 L 754,307 L 755,308 L 755,315 L 755,316 L 754,318 L 756,323 L 758,326 L 760,329 L 762,331 L 764,333 L 767,336 L 768,338 L 769,339 L 768,341 L 767,342 L 766,343 L 765,344 L 764,345 L 763,345 L 763,348 L 762,350 L 762,353 L 761,357 L 761,362 L 761,364 L 762,365 L 764,367 L 767,373 L 766,376 L 766,379 L 767,381 L 767,384 L 766,385 L 765,388 L 765,392 L 764,399 L 763,406 L 763,409 L 764,410 L 768,411 L 771,411 L 773,412 L 773,420 L 774,430 L 775,435 L 775,439 L 775,440 L 775,444 L 776,447 L 776,451 L 776,454 L 776,456 L 776,460 L 776,464 L 773,465 L 772,470 L 772,474 L 771,477 L 771,478 L 771,479 L 771,480 L 770,485 L 770,486 L 769,490 L 769,492 L 768,495 L 767,500 L 767,503 L 766,507 L 764,518 L 764,523 L 758,522 L 746,521 L 729,519 L 721,518 L 719,518 L 715,518 L 710,517 L 701,516 L 700,516 L 697,516 L 686,515 L 681,514 L 677,514 L 672,513 L 649,511 L 644,510 L 639,510 L 637,510 L 635,509 L 632,509 L 631,509 L 630,509 L 629,509 L 628,509 L 627,509 L 624,508 L 621,508 L 615,507 L 606,507 L 603,506 L 604,503 L 604,496 L 605,476 L 605,463 L 605,457 L 604,452 L 604,446 L 604,444 L 604,440 L 604,435 L 605,433 L 605,428 L 605,423 L 605,421 L 605,418 L 606,417 L 606,415 L 607,404 L 609,393 L 611,383 L 614,375 L 614,374 L 615,371 L 617,354 L 617,349 L 617,347 L 618,344 L 619,336 L 621,323 L 621,317 L 621,312 L 623,303 L 623,300 L 623,298 L 622,297 L 621,296 L 621,293 L 622,291 L 623,288 L 624,286 L 623,278 L 621,270 L 621,266 L 622,263 L 622,261 L 623,257 L 625,253 L 627,250 L 629,248 L 632,249 L 639,254 L 647,255 L 653,256 L 659,257 L 664,257 L 668,258 L 669,258 L 675,259 L 677,259 L 684,260 L 687,260 L 693,261 L 702,262 L 707,263 L 708,263 L 711,264 L 715,264 L 719,265 L 724,265 L 732,267 L 733,265 L 753,268 " class="svg-range5" data-original-title="&lt;b&gt;DERWATI&lt;/b&gt;&lt;br /&gt;285" title=""/>
</g>
</g>
</g>
<g id="3273100_id2012__3273100002" inkscape:groupmode="layer" inkscape:label="3273100_id2012__3273100002">
<g stroke="rgb(0,0,0)" fill="rgb(121,133,32)" stroke-linejoin="round" stroke-width="0.26">
<g id="3273100_id2012__3273100002_1">
<path d="M 742,242 L 742,246 L 743,247 L 746,250 L 748,251 L 747,255 L 747,257 L 747,258 L 749,259 L 751,260 L 752,260 L 753,261 L 754,263 L 754,265 L 753,268 L 733,265 L 732,267 L 724,265 L 719,265 L 715,264 L 711,264 L 708,263 L 707,263 L 702,262 L 693,261 L 687,260 L 684,260 L 677,259 L 675,259 L 669,258 L 668,258 L 664,257 L 659,257 L 653,256 L 647,255 L 639,254 L 632,249 L 629,248 L 627,250 L 625,253 L 623,257 L 622,261 L 622,263 L 621,266 L 621,270 L 623,278 L 624,286 L 623,288 L 622,291 L 621,293 L 621,296 L 619,296 L 616,296 L 613,295 L 609,295 L 603,295 L 601,295 L 584,297 L 573,299 L 543,298 L 535,296 L 535,291 L 535,286 L 535,277 L 532,269 L 530,259 L 528,253 L 527,249 L 524,244 L 521,240 L 516,234 L 515,232 L 509,223 L 508,221 L 509,219 L 509,216 L 510,212 L 512,203 L 513,198 L 513,195 L 514,193 L 514,189 L 515,187 L 516,182 L 517,176 L 517,174 L 517,172 L 517,169 L 517,168 L 517,167 L 517,163 L 517,160 L 516,156 L 515,150 L 513,144 L 512,142 L 511,140 L 510,136 L 508,129 L 505,120 L 504,118 L 502,116 L 500,113 L 498,111 L 494,104 L 493,99 L 491,93 L 491,91 L 491,89 L 491,86 L 491,84 L 492,69 L 492,53 L 492,46 L 492,39 L 493,26 L 493,24 L 493,23 L 510,22 L 517,22 L 526,21 L 537,21 L 543,20 L 550,20 L 557,19 L 569,19 L 576,18 L 585,17 L 587,17 L 598,16 L 612,15 L 618,15 L 627,14 L 632,14 L 640,13 L 641,13 L 648,13 L 655,12 L 657,12 L 654,41 L 653,44 L 653,45 L 653,46 L 653,47 L 653,48 L 653,49 L 653,51 L 653,52 L 653,54 L 652,57 L 652,58 L 652,60 L 651,65 L 651,68 L 651,69 L 651,70 L 651,71 L 650,73 L 650,75 L 650,76 L 650,77 L 650,78 L 650,80 L 650,81 L 650,83 L 650,84 L 650,85 L 649,87 L 649,89 L 649,90 L 649,91 L 649,93 L 650,95 L 650,99 L 650,100 L 649,102 L 649,103 L 649,104 L 649,105 L 649,111 L 649,114 L 649,115 L 649,118 L 649,123 L 649,125 L 649,126 L 649,129 L 649,133 L 649,134 L 649,136 L 649,137 L 648,143 L 648,146 L 648,147 L 648,149 L 648,158 L 648,162 L 647,169 L 658,171 L 670,173 L 678,174 L 680,174 L 696,176 L 705,178 L 707,189 L 708,191 L 708,194 L 709,197 L 709,198 L 710,203 L 709,204 L 708,205 L 708,206 L 709,207 L 710,208 L 710,209 L 711,210 L 712,210 L 715,211 L 715,213 L 714,217 L 714,220 L 714,222 L 713,223 L 713,225 L 712,231 L 712,233 L 712,235 L 712,237 L 711,238 L 718,239 L 723,239 L 725,239 L 733,240 L 737,241 L 742,242 " class="svg-range3" data-original-title="&lt;b&gt;CIPAMOKOLAN&lt;/b&gt;&lt;br /&gt;186" title=""/>
</g>
</g>
</g>
<g id="3273100_id2012__3273100005" inkscape:groupmode="layer" inkscape:label="3273100_id2012__3273100005">
<g stroke="rgb(0,0,0)" fill="rgb(145,94,136)" stroke-linejoin="round" stroke-width="0.26">
<g id="3273100_id2012__3273100005_1">
<path d="M 535,277 L 527,277 L 526,277 L 525,277 L 521,277 L 519,277 L 515,277 L 514,277 L 513,277 L 512,277 L 506,276 L 502,276 L 493,276 L 485,275 L 484,275 L 482,274 L 479,274 L 477,274 L 469,272 L 465,272 L 461,272 L 460,272 L 451,270 L 447,269 L 443,269 L 440,268 L 433,267 L 432,271 L 415,268 L 413,268 L 409,267 L 401,266 L 400,266 L 399,266 L 391,265 L 390,265 L 388,264 L 386,264 L 385,264 L 381,263 L 377,269 L 373,268 L 372,268 L 370,267 L 369,267 L 360,264 L 352,262 L 355,246 L 356,244 L 358,234 L 357,232 L 359,227 L 362,216 L 363,213 L 363,212 L 364,210 L 367,210 L 368,210 L 370,210 L 372,202 L 373,192 L 373,190 L 374,183 L 374,177 L 375,170 L 375,169 L 376,165 L 376,161 L 379,149 L 381,139 L 381,138 L 383,134 L 386,129 L 387,129 L 387,128 L 387,125 L 388,120 L 388,117 L 388,116 L 389,110 L 389,108 L 389,107 L 391,104 L 392,99 L 392,97 L 392,89 L 392,84 L 393,73 L 393,72 L 394,66 L 394,64 L 395,56 L 396,48 L 396,46 L 397,40 L 397,30 L 398,30 L 399,30 L 421,28 L 422,28 L 438,27 L 448,26 L 453,26 L 462,25 L 463,25 L 465,25 L 477,24 L 493,23 L 493,24 L 493,26 L 492,39 L 492,46 L 492,53 L 492,69 L 491,84 L 491,86 L 491,89 L 491,91 L 491,93 L 493,99 L 494,104 L 498,111 L 500,113 L 502,116 L 504,118 L 505,120 L 508,129 L 510,136 L 511,140 L 512,142 L 513,144 L 515,150 L 516,156 L 517,160 L 517,163 L 517,167 L 517,168 L 517,169 L 517,172 L 517,174 L 517,176 L 516,182 L 515,187 L 514,189 L 514,193 L 513,195 L 513,198 L 512,203 L 510,212 L 509,216 L 509,219 L 508,221 L 509,223 L 515,232 L 516,234 L 521,240 L 524,244 L 527,249 L 528,253 L 530,259 L 532,269 L 535,277 " class="svg-range1" data-original-title="&lt;b&gt;MANJAHLEGA&lt;/b&gt;&lt;br /&gt;76" title=""/>
</g>
</g>
</g>
</svg></svg>