<svg id="svg-map" width="null" height="null" xmlns="http://www.w3.org/2000/svg" style="animation-delay: 0s; animation-direction: normal; animation-duration: 0s; animation-fill-mode: none; animation-iteration-count: 1; animation-name: none; animation-play-state: running; animation-timing-function: ease; background-attachment: scroll; background-blend-mode: normal; background-clip: border-box; background-color: rgba(0, 0, 0, 0); background-image: none; background-origin: padding-box; background-position: 0% 0%; background-repeat: repeat; background-size: auto; border-bottom-color: rgb(255, 255, 255); border-bottom-left-radius: 0px; border-bottom-right-radius: 0px; border-bottom-style: none; border-bottom-width: 0px; border-collapse: separate; border-image-outset: 0px; border-image-repeat: stretch; border-image-slice: 100%; border-image-source: none; border-image-width: 1; border-left-color: rgb(255, 255, 255); border-left-style: none; border-left-width: 0px; border-right-color: rgb(255, 255, 255); border-right-style: none; border-right-width: 0px; border-top-color: rgb(255, 255, 255); border-top-left-radius: 0px; border-top-right-radius: 0px; border-top-style: none; border-top-width: 0px; bottom: auto; box-shadow: none; box-sizing: border-box; break-after: auto; break-before: auto; break-inside: auto; caption-side: top; clear: none; clip: auto; color: rgb(255, 255, 255); content: ; cursor: auto; direction: ltr; display: inline; empty-cells: show; float: none; font-family: &quot;Open Sans&quot;, sans-serif; font-kerning: auto; font-size: 13px; font-stretch: normal; font-style: normal; font-variant: normal; font-variant-ligatures: normal; font-variant-caps: normal; font-variant-numeric: normal; font-weight: normal; height: 303.953px; image-rendering: auto; isolation: auto; left: auto; letter-spacing: normal; line-height: 18.5714px; list-style-image: none; list-style-position: outside; list-style-type: disc; margin-bottom: 0px; margin-left: 0px; margin-right: 0px; margin-top: 0px; max-height: 400px; max-width: none; min-height: 0px; min-width: 0px; mix-blend-mode: normal; motion-offset: 0px; motion-path: none; motion-rotation: auto 0deg; object-fit: fill; object-position: 50% 50%; opacity: 1; orphans: 2; outline-color: rgb(255, 255, 255); outline-offset: 0px; outline-style: none; outline-width: 0px; overflow-wrap: normal; overflow-x: hidden; overflow-y: hidden; padding-bottom: 0px; padding-left: 0px; padding-right: 0px; padding-top: 0px; pointer-events: auto; position: static; resize: none; right: auto; speak: normal; table-layout: auto; tab-size: 8; text-align: center; text-align-last: auto; text-decoration: none; text-indent: 0px; text-rendering: auto; text-shadow: none; text-size-adjust: 100%; text-overflow: clip; text-transform: none; top: auto; touch-action: auto; transition-delay: 0s; transition-duration: 0s; transition-property: all; transition-timing-function: ease; unicode-bidi: normal; vertical-align: baseline; visibility: visible; white-space: normal; widows: 2; width: 617.5px; will-change: auto; word-break: normal; word-spacing: 0px; word-wrap: normal; z-index: auto; zoom: 1; -webkit-appearance: none; backface-visibility: visible; -webkit-background-clip: border-box; -webkit-background-origin: padding-box; -webkit-border-horizontal-spacing: 0px; -webkit-border-image: none; -webkit-border-vertical-spacing: 0px; -webkit-box-align: stretch; -webkit-box-decoration-break: slice; -webkit-box-direction: normal; -webkit-box-flex: 0; -webkit-box-flex-group: 1; -webkit-box-lines: single; -webkit-box-ordinal-group: 1; -webkit-box-orient: horizontal; -webkit-box-pack: start; -webkit-box-reflect: none; -webkit-clip-path: none; column-count: auto; column-gap: normal; column-rule-color: rgb(255, 255, 255); column-rule-style: none; column-rule-width: 0px; column-span: none; column-width: auto; align-content: stretch; align-items: stretch; align-self: stretch; flex-basis: auto; flex-grow: 0; flex-shrink: 1; flex-direction: row; flex-wrap: nowrap; justify-content: flex-start; -webkit-font-smoothing: auto; -webkit-highlight: none; -webkit-hyphenate-character: auto; -webkit-line-break: auto; -webkit-line-clamp: none; -webkit-locale: &quot;en&quot;; -webkit-margin-before-collapse: collapse; -webkit-margin-after-collapse: collapse; -webkit-mask-box-image: none; -webkit-mask-box-image-outset: 0px; -webkit-mask-box-image-repeat: stretch; -webkit-mask-box-image-slice: 0 fill; -webkit-mask-box-image-source: none; -webkit-mask-box-image-width: auto; -webkit-mask-clip: border-box; -webkit-mask-composite: source-over; -webkit-mask-image: none; -webkit-mask-origin: border-box; -webkit-mask-position: 0% 0%; -webkit-mask-repeat: repeat; -webkit-mask-size: auto; order: 0; perspective: none; perspective-origin: 308.75px 151.969px; -webkit-print-color-adjust: economy; -webkit-rtl-ordering: logical; shape-outside: none; shape-image-threshold: 0; shape-margin: 0px; -webkit-tap-highlight-color: rgba(0, 0, 0, 0); -webkit-text-combine: none; -webkit-text-decorations-in-effect: none; -webkit-text-emphasis-color: rgb(255, 255, 255); -webkit-text-emphasis-position: over; -webkit-text-emphasis-style: none; -webkit-text-fill-color: rgb(255, 255, 255); -webkit-text-orientation: vertical-right; -webkit-text-security: none; -webkit-text-stroke-color: rgb(255, 255, 255); -webkit-text-stroke-width: 0px; transform: none; transform-origin: 308.75px 151.969px; transform-style: flat; -webkit-user-drag: auto; -webkit-user-modify: read-only; user-select: text; -webkit-writing-mode: horizontal-tb; -webkit-app-region: no-drag; buffered-rendering: auto; clip-path: none; clip-rule: nonzero; mask: none; filter: none; flood-color: rgb(0, 0, 0); flood-opacity: 1; lighting-color: rgb(255, 255, 255); stop-color: rgb(0, 0, 0); stop-opacity: 1; color-interpolation: sRGB; color-interpolation-filters: linearRGB; color-rendering: auto; fill: rgb(0, 0, 0); fill-opacity: 1; fill-rule: nonzero; marker-end: none; marker-mid: none; marker-start: none; mask-type: luminance; shape-rendering: auto; stroke: none; stroke-dasharray: none; stroke-dashoffset: 0px; stroke-linecap: butt; stroke-linejoin: miter; stroke-miterlimit: 4; stroke-opacity: 1; stroke-width: 1px; alignment-baseline: auto; baseline-shift: 0px; dominant-baseline: auto; text-anchor: start; writing-mode: horizontal-tb; vector-effect: none; paint-order: fill stroke markers; d: none; cx: 0px; cy: 0px; x: 0px; y: 0px; r: 0px; rx: auto; ry: auto;" version="1.1" xmlns:xlink="http://www.w3.org/1999/xlink"><style type="text/css">svg:not(:root) { overflow: hidden; }
* { box-sizing: border-box; }
* { font-size: 13px; }
svg { max-height: 100vh; border: none !important; }
#svg-map svg { max-height: 400px; }
#svg-map svg path { fill: rgb(153, 196, 176); stroke: rgb(51, 51, 51); stroke-width: 1; }
#svg-map svg path.svg-range1 { fill: rgb(194, 223, 115); }
#svg-map svg path.svg-range2 { fill: rgb(160, 189, 83); }
#svg-map svg path.svg-range4 { fill: rgb(189, 143, 83); }
#svg-map svg path.svg-range5 { fill: rgb(175, 96, 68); }</style><svg xmlns="http://www.w3.org/2000/svg" xmlns:inkscape="http://www.inkscape.org/namespaces/inkscape" xmlns:xlink="http://www.w3.org/1999/xlink" viewBox="0 0 1097 540" version="1.1">
<!-- svg generated using QGIS www.qgis.org -->
<g id="3273040_id2012__3273040004" inkscape:groupmode="layer" inkscape:label="3273040_id2012__3273040004">
<g stroke="rgb(0,0,0)" fill="rgb(218,197,5)" stroke-linejoin="round" stroke-width="0.26">
<g id="3273040_id2012__3273040004_1">
<path d="M 544,335 L 543,341 L 542,347 L 542,349 L 542,353 L 541,357 L 542,359 L 542,361 L 538,370 L 538,373 L 541,373 L 541,379 L 541,384 L 540,386 L 540,388 L 540,391 L 540,396 L 531,396 L 531,397 L 531,400 L 523,400 L 521,400 L 509,399 L 508,418 L 500,418 L 501,402 L 498,402 L 498,403 L 495,408 L 494,410 L 492,415 L 492,416 L 492,418 L 491,418 L 486,416 L 481,415 L 480,413 L 479,413 L 475,411 L 473,410 L 471,409 L 470,409 L 467,408 L 467,409 L 463,408 L 460,406 L 458,410 L 458,412 L 457,413 L 457,415 L 456,420 L 455,423 L 455,424 L 455,426 L 443,424 L 443,427 L 442,429 L 440,430 L 427,428 L 419,425 L 372,415 L 373,414 L 373,412 L 374,411 L 374,410 L 374,409 L 374,408 L 374,407 L 374,406 L 374,405 L 375,404 L 375,403 L 377,400 L 378,399 L 379,397 L 380,397 L 381,394 L 381,393 L 382,391 L 382,390 L 384,387 L 384,385 L 385,382 L 385,381 L 384,377 L 383,373 L 383,368 L 382,366 L 382,365 L 382,364 L 382,363 L 379,359 L 379,357 L 379,356 L 378,354 L 378,353 L 377,351 L 377,349 L 377,348 L 376,347 L 376,344 L 383,343 L 388,343 L 396,341 L 401,338 L 404,338 L 404,337 L 417,333 L 423,331 L 423,328 L 428,324 L 429,322 L 437,322 L 438,321 L 441,321 L 440,323 L 453,325 L 464,327 L 466,322 L 473,323 L 475,324 L 478,325 L 480,325 L 487,326 L 494,326 L 494,329 L 494,332 L 510,334 L 519,334 L 524,334 L 526,334 L 527,335 L 532,335 L 535,335 L 544,335 " class="svg-range5" data-original-title="&lt;b&gt;CIBADUYUT&lt;/b&gt;&lt;br /&gt;385" title=""/>
</g>
</g>
</g>
<g id="3273040_id2012__3273040005" inkscape:groupmode="layer" inkscape:label="3273040_id2012__3273040005">
<g stroke="rgb(0,0,0)" fill="rgb(195,22,51)" stroke-linejoin="round" stroke-width="0.26">
<g id="3273040_id2012__3273040005_1">
<path d="M 625,241 L 625,242 L 625,245 L 626,246 L 626,248 L 627,254 L 627,255 L 629,260 L 629,261 L 629,262 L 629,263 L 629,268 L 630,272 L 630,273 L 631,279 L 631,280 L 632,283 L 632,284 L 633,285 L 634,287 L 635,288 L 638,291 L 639,292 L 639,293 L 641,296 L 644,298 L 644,299 L 645,299 L 646,300 L 648,300 L 650,299 L 651,299 L 653,299 L 657,299 L 659,300 L 661,300 L 663,301 L 664,302 L 665,304 L 667,307 L 668,308 L 668,309 L 670,310 L 671,310 L 672,311 L 674,313 L 674,314 L 673,315 L 673,316 L 672,317 L 672,318 L 672,319 L 672,320 L 673,321 L 674,322 L 676,323 L 676,324 L 678,326 L 679,327 L 681,329 L 682,329 L 684,330 L 687,330 L 690,330 L 692,331 L 693,331 L 693,332 L 694,332 L 695,333 L 696,333 L 697,334 L 698,334 L 699,335 L 700,336 L 703,337 L 704,338 L 705,339 L 706,340 L 707,340 L 708,341 L 709,341 L 709,342 L 709,343 L 709,345 L 709,349 L 704,349 L 698,348 L 694,347 L 690,349 L 683,347 L 682,349 L 678,349 L 677,351 L 673,350 L 665,346 L 664,344 L 663,343 L 661,342 L 661,343 L 660,343 L 659,342 L 653,341 L 647,338 L 646,337 L 646,336 L 645,334 L 644,332 L 642,330 L 641,328 L 641,327 L 640,326 L 640,324 L 639,320 L 636,323 L 634,325 L 630,325 L 622,325 L 620,324 L 609,322 L 607,322 L 605,321 L 603,321 L 597,320 L 596,320 L 594,321 L 593,321 L 592,322 L 591,322 L 590,322 L 587,323 L 586,323 L 584,323 L 581,323 L 577,323 L 574,324 L 570,324 L 566,324 L 563,324 L 561,324 L 559,323 L 558,323 L 556,323 L 549,321 L 548,320 L 545,320 L 545,323 L 544,326 L 544,329 L 544,332 L 544,335 L 535,335 L 532,335 L 527,335 L 526,334 L 524,334 L 519,334 L 510,334 L 494,332 L 494,329 L 494,326 L 487,326 L 480,325 L 478,325 L 475,324 L 473,323 L 466,322 L 464,327 L 453,325 L 440,323 L 441,321 L 438,321 L 437,322 L 429,322 L 428,324 L 423,328 L 423,331 L 417,333 L 404,337 L 404,338 L 401,338 L 396,341 L 388,343 L 383,343 L 376,344 L 375,343 L 375,341 L 375,340 L 375,339 L 374,338 L 373,337 L 372,335 L 371,333 L 371,332 L 370,331 L 370,329 L 369,329 L 369,328 L 368,327 L 366,325 L 365,325 L 364,325 L 363,324 L 362,324 L 361,324 L 359,324 L 358,323 L 356,323 L 354,322 L 353,322 L 351,321 L 351,320 L 353,318 L 354,315 L 355,313 L 357,310 L 359,307 L 360,305 L 360,304 L 361,303 L 362,302 L 363,301 L 363,300 L 364,299 L 365,298 L 366,296 L 367,295 L 369,291 L 371,290 L 371,289 L 372,288 L 373,287 L 373,286 L 374,286 L 374,285 L 375,284 L 377,281 L 378,280 L 379,279 L 379,278 L 380,277 L 381,276 L 382,274 L 382,273 L 383,271 L 384,270 L 385,268 L 386,267 L 388,264 L 389,263 L 390,261 L 391,260 L 393,255 L 394,254 L 394,253 L 395,253 L 395,252 L 396,251 L 397,250 L 397,249 L 398,248 L 399,247 L 399,246 L 400,245 L 401,246 L 404,247 L 413,251 L 416,252 L 418,253 L 423,255 L 426,256 L 430,258 L 435,260 L 438,261 L 443,262 L 452,264 L 453,265 L 461,267 L 464,267 L 466,268 L 468,268 L 475,270 L 478,270 L 483,271 L 485,271 L 489,272 L 491,259 L 491,253 L 491,251 L 491,250 L 492,248 L 491,247 L 492,245 L 492,243 L 492,242 L 493,238 L 494,236 L 494,235 L 496,232 L 496,230 L 496,228 L 496,226 L 496,224 L 497,223 L 498,220 L 498,219 L 499,215 L 501,215 L 505,216 L 510,216 L 512,216 L 513,216 L 515,213 L 516,210 L 516,207 L 517,204 L 525,206 L 526,201 L 527,199 L 527,196 L 530,184 L 531,181 L 531,180 L 532,178 L 532,177 L 532,176 L 532,174 L 532,172 L 532,171 L 533,169 L 534,162 L 535,159 L 536,156 L 536,155 L 536,153 L 537,151 L 540,151 L 541,151 L 543,151 L 544,151 L 545,151 L 550,151 L 552,151 L 553,151 L 554,151 L 555,151 L 558,151 L 558,152 L 558,153 L 557,156 L 558,156 L 558,157 L 558,158 L 559,160 L 561,163 L 564,167 L 566,171 L 568,172 L 569,174 L 570,174 L 571,175 L 572,176 L 575,178 L 577,180 L 579,181 L 581,182 L 586,186 L 590,188 L 591,191 L 592,192 L 593,193 L 593,194 L 594,195 L 594,196 L 595,197 L 596,198 L 596,199 L 597,200 L 598,202 L 599,203 L 600,204 L 601,205 L 602,205 L 604,205 L 606,205 L 607,205 L 609,206 L 610,208 L 610,209 L 609,210 L 609,212 L 609,213 L 609,216 L 609,218 L 609,220 L 609,222 L 609,223 L 608,224 L 608,225 L 609,226 L 609,229 L 609,230 L 610,231 L 612,231 L 615,230 L 616,230 L 618,230 L 620,231 L 622,232 L 623,233 L 624,235 L 624,236 L 624,238 L 624,239 L 624,240 L 625,241 " class="svg-range2" data-original-title="&lt;b&gt;KEBON LEGA&lt;/b&gt;&lt;br /&gt;248" title=""/>
</g>
</g>
</g>
<g id="3273040_id2012__3273040006" inkscape:groupmode="layer" inkscape:label="3273040_id2012__3273040006">
<g stroke="rgb(0,0,0)" fill="rgb(238,177,219)" stroke-linejoin="round" stroke-width="0.26">
<g id="3273040_id2012__3273040006_1">
<path d="M 557,67 L 556,69 L 556,70 L 555,71 L 555,72 L 554,79 L 553,80 L 553,81 L 554,83 L 555,84 L 556,84 L 557,85 L 558,85 L 559,86 L 559,87 L 559,88 L 558,89 L 558,90 L 558,92 L 557,93 L 557,95 L 557,99 L 557,102 L 557,103 L 557,113 L 557,115 L 558,117 L 558,119 L 558,122 L 558,125 L 558,128 L 559,133 L 560,139 L 558,150 L 558,151 L 555,151 L 554,151 L 553,151 L 552,151 L 550,151 L 545,151 L 544,151 L 543,151 L 541,151 L 540,151 L 537,151 L 536,153 L 536,155 L 536,156 L 535,159 L 534,162 L 533,169 L 532,171 L 532,172 L 532,174 L 532,176 L 532,177 L 532,178 L 531,180 L 531,181 L 530,184 L 527,196 L 527,199 L 526,201 L 525,206 L 517,204 L 516,207 L 516,210 L 515,213 L 513,216 L 512,216 L 510,216 L 505,216 L 501,215 L 499,215 L 498,219 L 498,220 L 497,223 L 496,224 L 496,226 L 496,228 L 496,230 L 496,232 L 494,235 L 494,236 L 493,238 L 492,242 L 492,243 L 492,245 L 491,247 L 492,248 L 491,250 L 491,251 L 491,253 L 491,259 L 489,272 L 485,271 L 483,271 L 478,270 L 475,270 L 468,268 L 466,268 L 464,267 L 461,267 L 453,265 L 452,264 L 443,262 L 438,261 L 435,260 L 430,258 L 426,256 L 423,255 L 418,253 L 416,252 L 413,251 L 404,247 L 401,246 L 400,245 L 400,244 L 401,244 L 401,243 L 402,242 L 403,241 L 404,239 L 407,236 L 407,235 L 408,234 L 409,233 L 412,229 L 413,227 L 415,225 L 417,221 L 419,218 L 421,214 L 422,213 L 424,210 L 425,207 L 427,204 L 429,201 L 429,200 L 430,199 L 431,197 L 433,194 L 433,193 L 434,192 L 436,189 L 439,185 L 439,184 L 441,182 L 442,180 L 446,175 L 449,170 L 449,169 L 451,167 L 451,166 L 452,165 L 453,163 L 455,161 L 456,159 L 457,158 L 457,157 L 459,153 L 460,151 L 462,148 L 463,146 L 464,144 L 465,143 L 465,142 L 466,141 L 466,140 L 467,139 L 468,137 L 471,134 L 472,132 L 472,131 L 475,126 L 475,125 L 476,124 L 477,122 L 479,119 L 480,117 L 481,116 L 481,115 L 481,114 L 482,112 L 483,111 L 485,108 L 485,107 L 486,106 L 488,104 L 488,103 L 489,102 L 489,101 L 490,100 L 490,99 L 492,97 L 493,94 L 494,92 L 495,91 L 495,90 L 495,89 L 496,88 L 497,82 L 498,79 L 499,76 L 500,75 L 500,73 L 501,71 L 502,69 L 503,62 L 503,61 L 504,60 L 504,59 L 505,56 L 505,54 L 506,51 L 506,49 L 507,49 L 508,44 L 508,43 L 509,41 L 509,39 L 510,37 L 511,34 L 512,31 L 512,29 L 513,29 L 515,21 L 515,19 L 515,18 L 516,17 L 516,16 L 516,15 L 517,15 L 517,13 L 517,12 L 519,14 L 521,15 L 522,17 L 523,17 L 524,18 L 528,26 L 530,30 L 532,34 L 535,39 L 536,41 L 537,41 L 537,42 L 538,42 L 538,43 L 540,44 L 542,47 L 546,52 L 547,53 L 549,55 L 550,56 L 551,57 L 552,58 L 553,60 L 554,60 L 554,61 L 556,63 L 556,64 L 557,65 L 557,67 " class="svg-range1" data-original-title="&lt;b&gt;SITUSAEUR&lt;/b&gt;&lt;br /&gt;218" title=""/>
</g>
</g>
</g>
<g id="3273040_id2012__3273040001" inkscape:groupmode="layer" inkscape:label="3273040_id2012__3273040001">
<g stroke="rgb(0,0,0)" fill="rgb(128,125,191)" stroke-linejoin="round" stroke-width="0.26">
<g id="3273040_id2012__3273040001_1">
<path d="M 455,426 L 456,430 L 456,431 L 456,432 L 457,443 L 457,444 L 458,447 L 462,459 L 463,461 L 462,465 L 462,468 L 462,470 L 462,472 L 462,474 L 462,476 L 462,479 L 464,482 L 464,483 L 465,483 L 469,489 L 470,491 L 471,492 L 470,495 L 467,502 L 467,504 L 463,513 L 463,515 L 462,517 L 460,517 L 457,517 L 451,518 L 449,518 L 430,519 L 425,520 L 412,521 L 400,522 L 398,522 L 394,522 L 391,522 L 385,523 L 384,523 L 383,523 L 382,523 L 381,522 L 377,523 L 372,523 L 356,522 L 343,520 L 345,518 L 345,515 L 346,514 L 348,509 L 351,507 L 351,506 L 351,504 L 354,502 L 356,499 L 357,499 L 356,495 L 357,493 L 358,488 L 358,487 L 359,485 L 360,484 L 360,480 L 360,476 L 360,474 L 360,469 L 362,468 L 362,461 L 363,460 L 364,460 L 366,460 L 369,460 L 370,461 L 371,461 L 374,462 L 375,462 L 375,461 L 378,461 L 378,460 L 379,459 L 378,458 L 376,457 L 376,456 L 377,455 L 377,453 L 378,448 L 376,448 L 376,447 L 376,446 L 377,444 L 377,443 L 378,440 L 376,439 L 375,439 L 374,439 L 373,439 L 372,438 L 372,436 L 372,435 L 372,433 L 371,431 L 371,430 L 370,428 L 370,427 L 370,426 L 369,422 L 370,421 L 370,419 L 372,415 L 419,425 L 427,428 L 440,430 L 442,429 L 443,427 L 443,424 L 455,426 " class="svg-range1" data-original-title="&lt;b&gt;CIBADUYUT KIDUL&lt;/b&gt;&lt;br /&gt;199" title=""/>
</g>
</g>
</g>
<g id="3273040_id2012__3273040002" inkscape:groupmode="layer" inkscape:label="3273040_id2012__3273040002">
<g stroke="rgb(0,0,0)" fill="rgb(248,123,127)" stroke-linejoin="round" stroke-width="0.26">
<g id="3273040_id2012__3273040002_1">
<path d="M 540,396 L 540,397 L 540,399 L 540,401 L 540,402 L 542,411 L 541,418 L 541,426 L 542,431 L 542,433 L 542,437 L 542,440 L 542,445 L 549,445 L 556,445 L 562,446 L 570,446 L 577,446 L 578,447 L 589,447 L 589,443 L 589,442 L 589,441 L 589,439 L 590,437 L 591,435 L 593,434 L 595,434 L 595,433 L 597,432 L 600,432 L 601,429 L 602,427 L 604,425 L 604,423 L 603,419 L 602,416 L 603,413 L 602,410 L 602,408 L 603,406 L 603,402 L 603,400 L 610,400 L 614,400 L 617,400 L 626,401 L 628,401 L 627,404 L 628,407 L 629,409 L 630,411 L 630,412 L 631,413 L 631,415 L 632,417 L 634,422 L 635,424 L 637,427 L 640,434 L 637,434 L 636,436 L 636,437 L 636,438 L 636,439 L 635,442 L 633,447 L 633,448 L 633,450 L 633,452 L 635,455 L 638,460 L 640,470 L 641,472 L 642,476 L 643,478 L 642,481 L 643,486 L 643,489 L 642,492 L 643,495 L 642,497 L 642,498 L 642,501 L 642,504 L 637,505 L 634,505 L 623,505 L 618,506 L 615,506 L 605,507 L 601,507 L 600,507 L 592,508 L 585,508 L 581,508 L 579,509 L 578,509 L 575,509 L 564,510 L 558,510 L 551,511 L 539,512 L 536,512 L 532,512 L 524,513 L 510,514 L 506,514 L 504,514 L 495,515 L 488,515 L 483,516 L 477,516 L 474,516 L 468,517 L 462,517 L 463,515 L 463,513 L 467,504 L 467,502 L 470,495 L 471,492 L 470,491 L 469,489 L 465,483 L 464,483 L 464,482 L 462,479 L 462,476 L 462,474 L 462,472 L 462,470 L 462,468 L 462,465 L 463,461 L 462,459 L 458,447 L 457,444 L 457,443 L 456,432 L 456,431 L 456,430 L 455,426 L 455,424 L 455,423 L 456,420 L 457,415 L 457,413 L 458,412 L 458,410 L 460,406 L 463,408 L 467,409 L 467,408 L 470,409 L 471,409 L 473,410 L 475,411 L 479,413 L 480,413 L 481,415 L 486,416 L 491,418 L 492,418 L 492,416 L 492,415 L 494,410 L 495,408 L 498,403 L 498,402 L 501,402 L 500,418 L 508,418 L 509,399 L 521,400 L 523,400 L 531,400 L 531,397 L 531,396 L 540,396 " class="svg-range1" data-original-title="&lt;b&gt;CIBADUYUT WETAN&lt;/b&gt;&lt;br /&gt;203" title=""/>
</g>
</g>
</g>
<g id="3273040_id2012__3273040003" inkscape:groupmode="layer" inkscape:label="3273040_id2012__3273040003">
<g stroke="rgb(0,0,0)" fill="rgb(253,185,208)" stroke-linejoin="round" stroke-width="0.26">
<g id="3273040_id2012__3273040003_1">
<path d="M 709,349 L 710,350 L 711,350 L 712,352 L 713,353 L 715,354 L 721,357 L 722,358 L 723,359 L 723,360 L 724,361 L 724,363 L 724,364 L 725,365 L 725,366 L 725,367 L 726,367 L 726,369 L 726,371 L 727,372 L 727,373 L 727,375 L 728,378 L 728,380 L 728,381 L 729,382 L 729,384 L 731,385 L 733,386 L 734,387 L 736,388 L 738,389 L 740,390 L 743,392 L 745,395 L 746,396 L 747,398 L 749,403 L 747,404 L 747,405 L 746,405 L 745,406 L 745,407 L 744,408 L 744,411 L 744,413 L 743,417 L 743,418 L 743,420 L 743,421 L 742,423 L 742,426 L 740,430 L 738,432 L 737,432 L 736,433 L 736,434 L 735,435 L 732,437 L 732,438 L 731,439 L 726,443 L 725,445 L 722,448 L 721,449 L 720,454 L 720,458 L 720,459 L 720,460 L 720,461 L 720,463 L 719,464 L 718,465 L 717,466 L 715,467 L 713,469 L 711,470 L 711,471 L 710,471 L 708,473 L 707,474 L 706,475 L 705,476 L 704,479 L 703,479 L 703,481 L 703,483 L 703,484 L 703,485 L 703,487 L 705,492 L 705,493 L 706,494 L 706,495 L 707,496 L 708,499 L 701,499 L 698,500 L 697,500 L 693,500 L 668,502 L 667,502 L 665,503 L 657,503 L 656,503 L 651,503 L 644,504 L 642,504 L 642,501 L 642,498 L 642,497 L 643,495 L 642,492 L 643,489 L 643,486 L 642,481 L 643,478 L 642,476 L 641,472 L 640,470 L 638,460 L 635,455 L 633,452 L 633,450 L 633,448 L 633,447 L 635,442 L 636,439 L 636,438 L 636,437 L 636,436 L 637,434 L 640,434 L 637,427 L 635,424 L 634,422 L 632,417 L 631,415 L 631,413 L 630,412 L 630,411 L 629,409 L 628,407 L 627,404 L 628,401 L 626,401 L 617,400 L 614,400 L 610,400 L 603,400 L 603,402 L 603,406 L 602,408 L 602,410 L 603,413 L 602,416 L 603,419 L 604,423 L 604,425 L 602,427 L 601,429 L 600,432 L 597,432 L 595,433 L 595,434 L 593,434 L 591,435 L 590,437 L 589,439 L 589,441 L 589,442 L 589,443 L 589,447 L 578,447 L 577,446 L 570,446 L 562,446 L 556,445 L 549,445 L 542,445 L 542,440 L 542,437 L 542,433 L 542,431 L 541,426 L 541,418 L 542,411 L 540,402 L 540,401 L 540,399 L 540,397 L 540,396 L 540,391 L 540,388 L 540,386 L 541,384 L 541,379 L 541,373 L 538,373 L 538,370 L 542,361 L 542,359 L 541,357 L 542,353 L 542,349 L 542,347 L 543,341 L 544,335 L 544,332 L 544,329 L 544,326 L 545,323 L 545,320 L 548,320 L 549,321 L 556,323 L 558,323 L 559,323 L 561,324 L 563,324 L 566,324 L 570,324 L 574,324 L 577,323 L 581,323 L 584,323 L 586,323 L 587,323 L 590,322 L 591,322 L 592,322 L 593,321 L 594,321 L 596,320 L 597,320 L 603,321 L 605,321 L 607,322 L 609,322 L 620,324 L 622,325 L 630,325 L 634,325 L 636,323 L 639,320 L 640,324 L 640,326 L 641,327 L 641,328 L 642,330 L 644,332 L 645,334 L 646,336 L 646,337 L 647,338 L 653,341 L 659,342 L 660,343 L 661,343 L 661,342 L 663,343 L 664,344 L 665,346 L 673,350 L 677,351 L 678,349 L 682,349 L 683,347 L 690,349 L 694,347 L 698,348 L 704,349 L 709,349 " class="svg-range4" data-original-title="&lt;b&gt;MEKAR WANGI&lt;/b&gt;&lt;br /&gt;317" title=""/>
</g>
</g>
</g>
</svg></svg>