<svg id="svg-map" width="null" height="null" xmlns="http://www.w3.org/2000/svg" style="animation-delay: 0s; animation-direction: normal; animation-duration: 0s; animation-fill-mode: none; animation-iteration-count: 1; animation-name: none; animation-play-state: running; animation-timing-function: ease; background-attachment: scroll; background-blend-mode: normal; background-clip: border-box; background-color: rgba(0, 0, 0, 0); background-image: none; background-origin: padding-box; background-position: 0% 0%; background-repeat: repeat; background-size: auto; border-bottom-color: rgb(255, 255, 255); border-bottom-left-radius: 0px; border-bottom-right-radius: 0px; border-bottom-style: none; border-bottom-width: 0px; border-collapse: separate; border-image-outset: 0px; border-image-repeat: stretch; border-image-slice: 100%; border-image-source: none; border-image-width: 1; border-left-color: rgb(255, 255, 255); border-left-style: none; border-left-width: 0px; border-right-color: rgb(255, 255, 255); border-right-style: none; border-right-width: 0px; border-top-color: rgb(255, 255, 255); border-top-left-radius: 0px; border-top-right-radius: 0px; border-top-style: none; border-top-width: 0px; bottom: auto; box-shadow: none; box-sizing: border-box; break-after: auto; break-before: auto; break-inside: auto; caption-side: top; clear: none; clip: auto; color: rgb(255, 255, 255); content: ; cursor: auto; direction: ltr; display: inline; empty-cells: show; float: none; font-family: &quot;Open Sans&quot;, sans-serif; font-kerning: auto; font-size: 13px; font-stretch: normal; font-style: normal; font-variant: normal; font-variant-ligatures: normal; font-variant-caps: normal; font-variant-numeric: normal; font-weight: normal; height: 303.953px; image-rendering: auto; isolation: auto; left: auto; letter-spacing: normal; line-height: 18.5714px; list-style-image: none; list-style-position: outside; list-style-type: disc; margin-bottom: 0px; margin-left: 0px; margin-right: 0px; margin-top: 0px; max-height: 400px; max-width: none; min-height: 0px; min-width: 0px; mix-blend-mode: normal; motion-offset: 0px; motion-path: none; motion-rotation: auto 0deg; object-fit: fill; object-position: 50% 50%; opacity: 1; orphans: 2; outline-color: rgb(255, 255, 255); outline-offset: 0px; outline-style: none; outline-width: 0px; overflow-wrap: normal; overflow-x: hidden; overflow-y: hidden; padding-bottom: 0px; padding-left: 0px; padding-right: 0px; padding-top: 0px; pointer-events: auto; position: static; resize: none; right: auto; speak: normal; table-layout: auto; tab-size: 8; text-align: center; text-align-last: auto; text-decoration: none; text-indent: 0px; text-rendering: auto; text-shadow: none; text-size-adjust: 100%; text-overflow: clip; text-transform: none; top: auto; touch-action: auto; transition-delay: 0s; transition-duration: 0s; transition-property: all; transition-timing-function: ease; unicode-bidi: normal; vertical-align: baseline; visibility: visible; white-space: normal; widows: 2; width: 617.5px; will-change: auto; word-break: normal; word-spacing: 0px; word-wrap: normal; z-index: auto; zoom: 1; -webkit-appearance: none; backface-visibility: visible; -webkit-background-clip: border-box; -webkit-background-origin: padding-box; -webkit-border-horizontal-spacing: 0px; -webkit-border-image: none; -webkit-border-vertical-spacing: 0px; -webkit-box-align: stretch; -webkit-box-decoration-break: slice; -webkit-box-direction: normal; -webkit-box-flex: 0; -webkit-box-flex-group: 1; -webkit-box-lines: single; -webkit-box-ordinal-group: 1; -webkit-box-orient: horizontal; -webkit-box-pack: start; -webkit-box-reflect: none; -webkit-clip-path: none; column-count: auto; column-gap: normal; column-rule-color: rgb(255, 255, 255); column-rule-style: none; column-rule-width: 0px; column-span: none; column-width: auto; align-content: stretch; align-items: stretch; align-self: stretch; flex-basis: auto; flex-grow: 0; flex-shrink: 1; flex-direction: row; flex-wrap: nowrap; justify-content: flex-start; -webkit-font-smoothing: auto; -webkit-highlight: none; -webkit-hyphenate-character: auto; -webkit-line-break: auto; -webkit-line-clamp: none; -webkit-locale: &quot;en&quot;; -webkit-margin-before-collapse: collapse; -webkit-margin-after-collapse: collapse; -webkit-mask-box-image: none; -webkit-mask-box-image-outset: 0px; -webkit-mask-box-image-repeat: stretch; -webkit-mask-box-image-slice: 0 fill; -webkit-mask-box-image-source: none; -webkit-mask-box-image-width: auto; -webkit-mask-clip: border-box; -webkit-mask-composite: source-over; -webkit-mask-image: none; -webkit-mask-origin: border-box; -webkit-mask-position: 0% 0%; -webkit-mask-repeat: repeat; -webkit-mask-size: auto; order: 0; perspective: none; perspective-origin: 308.75px 151.969px; -webkit-print-color-adjust: economy; -webkit-rtl-ordering: logical; shape-outside: none; shape-image-threshold: 0; shape-margin: 0px; -webkit-tap-highlight-color: rgba(0, 0, 0, 0); -webkit-text-combine: none; -webkit-text-decorations-in-effect: none; -webkit-text-emphasis-color: rgb(255, 255, 255); -webkit-text-emphasis-position: over; -webkit-text-emphasis-style: none; -webkit-text-fill-color: rgb(255, 255, 255); -webkit-text-orientation: vertical-right; -webkit-text-security: none; -webkit-text-stroke-color: rgb(255, 255, 255); -webkit-text-stroke-width: 0px; transform: none; transform-origin: 308.75px 151.969px; transform-style: flat; -webkit-user-drag: auto; -webkit-user-modify: read-only; user-select: text; -webkit-writing-mode: horizontal-tb; -webkit-app-region: no-drag; buffered-rendering: auto; clip-path: none; clip-rule: nonzero; mask: none; filter: none; flood-color: rgb(0, 0, 0); flood-opacity: 1; lighting-color: rgb(255, 255, 255); stop-color: rgb(0, 0, 0); stop-opacity: 1; color-interpolation: sRGB; color-interpolation-filters: linearRGB; color-rendering: auto; fill: rgb(0, 0, 0); fill-opacity: 1; fill-rule: nonzero; marker-end: none; marker-mid: none; marker-start: none; mask-type: luminance; shape-rendering: auto; stroke: none; stroke-dasharray: none; stroke-dashoffset: 0px; stroke-linecap: butt; stroke-linejoin: miter; stroke-miterlimit: 4; stroke-opacity: 1; stroke-width: 1px; alignment-baseline: auto; baseline-shift: 0px; dominant-baseline: auto; text-anchor: start; writing-mode: horizontal-tb; vector-effect: none; paint-order: fill stroke markers; d: none; cx: 0px; cy: 0px; x: 0px; y: 0px; r: 0px; rx: auto; ry: auto;" version="1.1" xmlns:xlink="http://www.w3.org/1999/xlink">
    <style type="text/css">
        svg:not(:root) {
            overflow: hidden;
        }
        * {
            box-sizing: border-box;
        }
        * {
            font-size: 13px;
        }
        svg {
            max-height: 100vh;
            border: none !important;
        }
        #svg-map svg {
            max-height: 400px;
        }
        #svg-map svg path {
            fill: rgb(153, 196, 176);
            stroke: rgb(51, 51, 51);
            stroke-width: 1;
        }
        #svg-map svg path.svg-range1 {
            fill: rgb(194, 223, 115);
        }
        #svg-map svg path.svg-range3 {
            fill: rgb(189, 170, 83);
        }
        #svg-map svg path.svg-range5 {
            fill: rgb(175, 96, 68);
        }
    </style>
    <svg xmlns="http://www.w3.org/2000/svg" xmlns:inkscape="http://www.inkscape.org/namespaces/inkscape" xmlns:xlink="http://www.w3.org/1999/xlink" viewBox="0 0 1097 540" version="1.1">
        <!-- svg generated using QGIS www.qgis.org -->
        <g id="3273130_id2012__3273130002" inkscape:groupmode="layer" inkscape:label="3273130_id2012__3273130002">
            <g stroke="rgb(0,0,0)" fill="rgb(173,229,246)" stroke-linejoin="round" stroke-width="0.26">
                <g id="3273130_id2012__3273130002_1">
                    <path d="M 654,58 L 655,58 L 657,59 L 660,60 L 663,61 L 665,62 L 669,63 L 672,65 L 676,66 L 677,67 L 679,68 L 683,71 L 686,74 L 687,76 L 688,77 L 689,79 L 690,80 L 691,82 L 692,82 L 693,84 L 694,85 L 695,87 L 696,88 L 701,97 L 702,98 L 703,100 L 704,100 L 705,102 L 709,108 L 710,110 L 711,111 L 712,112 L 713,113 L 714,115 L 715,116 L 716,116 L 717,117 L 717,118 L 718,119 L 719,120 L 720,121 L 723,124 L 725,127 L 726,128 L 727,129 L 728,130 L 730,131 L 733,133 L 733,134 L 731,138 L 730,140 L 730,142 L 729,144 L 728,146 L 728,148 L 724,161 L 724,165 L 723,166 L 723,167 L 723,168 L 722,169 L 721,173 L 719,177 L 719,181 L 718,183 L 717,185 L 717,186 L 716,187 L 715,191 L 713,195 L 713,197 L 712,198 L 712,200 L 711,201 L 710,204 L 710,206 L 709,208 L 708,209 L 708,210 L 707,212 L 706,214 L 704,217 L 703,220 L 701,222 L 700,225 L 698,227 L 698,229 L 696,231 L 692,230 L 692,229 L 692,228 L 693,226 L 694,225 L 695,223 L 697,220 L 695,219 L 691,216 L 686,214 L 684,214 L 681,215 L 680,215 L 678,215 L 676,217 L 675,217 L 674,218 L 673,219 L 671,220 L 671,221 L 669,224 L 668,229 L 660,227 L 660,225 L 660,223 L 660,222 L 661,219 L 661,218 L 663,215 L 666,213 L 667,211 L 666,209 L 665,208 L 664,207 L 662,207 L 661,206 L 659,205 L 657,204 L 656,203 L 655,203 L 654,202 L 650,200 L 649,197 L 649,196 L 649,194 L 648,193 L 647,192 L 646,192 L 645,191 L 644,191 L 641,190 L 640,190 L 639,190 L 639,189 L 638,187 L 638,186 L 636,185 L 632,183 L 630,183 L 629,183 L 626,181 L 629,176 L 628,175 L 628,174 L 627,174 L 624,171 L 623,171 L 621,171 L 621,173 L 619,174 L 619,175 L 618,177 L 617,178 L 616,181 L 618,181 L 617,182 L 616,185 L 614,185 L 613,185 L 612,186 L 611,186 L 610,186 L 609,186 L 608,186 L 608,185 L 607,185 L 607,184 L 606,184 L 605,184 L 605,185 L 605,186 L 604,187 L 604,188 L 604,189 L 603,190 L 601,191 L 599,192 L 597,190 L 595,188 L 594,187 L 592,183 L 591,182 L 590,180 L 589,177 L 589,174 L 588,173 L 587,171 L 585,170 L 584,169 L 584,168 L 584,166 L 584,164 L 584,163 L 584,162 L 584,160 L 584,158 L 584,157 L 583,156 L 581,154 L 581,151 L 581,150 L 584,150 L 585,148 L 585,147 L 586,144 L 586,142 L 586,140 L 586,138 L 585,136 L 586,135 L 587,130 L 587,129 L 588,129 L 588,127 L 588,125 L 587,124 L 586,123 L 585,122 L 585,121 L 584,121 L 584,120 L 583,120 L 582,119 L 581,118 L 581,117 L 581,116 L 581,114 L 581,113 L 581,112 L 581,111 L 581,110 L 581,109 L 580,109 L 579,109 L 578,109 L 576,108 L 574,108 L 573,109 L 572,108 L 571,107 L 570,106 L 570,104 L 569,103 L 569,102 L 568,101 L 568,100 L 567,100 L 567,98 L 566,97 L 565,97 L 564,96 L 564,95 L 563,94 L 563,93 L 563,92 L 562,91 L 561,90 L 561,89 L 561,88 L 561,87 L 561,86 L 560,86 L 559,85 L 559,84 L 559,83 L 557,83 L 557,81 L 557,80 L 556,79 L 553,80 L 553,79 L 552,77 L 553,76 L 555,76 L 555,75 L 557,75 L 558,75 L 559,74 L 559,72 L 561,71 L 561,70 L 561,69 L 561,67 L 562,65 L 563,63 L 563,62 L 564,61 L 565,61 L 567,61 L 567,60 L 569,56 L 569,54 L 571,51 L 572,49 L 573,48 L 573,47 L 573,46 L 574,44 L 574,42 L 575,40 L 575,37 L 577,37 L 578,38 L 579,38 L 581,37 L 581,36 L 582,34 L 582,32 L 583,30 L 583,28 L 584,28 L 585,28 L 586,28 L 587,29 L 591,30 L 593,31 L 594,32 L 595,32 L 596,33 L 597,33 L 598,33 L 600,35 L 602,35 L 603,36 L 605,37 L 612,40 L 613,40 L 615,41 L 617,42 L 619,43 L 620,43 L 622,44 L 625,46 L 632,48 L 633,49 L 639,51 L 640,52 L 642,52 L 643,53 L 644,53 L 645,54 L 648,55 L 654,58 " class="svg-range5" data-original-title="&lt;b&gt;CISARANTEN BINA HARAPAN&lt;/b&gt;&lt;br /&gt;268" title="" />
                </g>
            </g>
        </g>
        <g id="3273130_id2012__3273130003" inkscape:groupmode="layer" inkscape:label="3273130_id2012__3273130003">
            <g stroke="rgb(0,0,0)" fill="rgb(191,55,224)" stroke-linejoin="round" stroke-width="0.26">
                <g id="3273130_id2012__3273130003_1">
                    <path d="M 529,21 L 532,21 L 533,21 L 534,21 L 535,21 L 538,22 L 544,23 L 547,23 L 548,23 L 549,23 L 554,24 L 555,24 L 557,24 L 560,25 L 564,25 L 567,25 L 575,26 L 577,27 L 578,27 L 579,27 L 581,27 L 583,28 L 583,30 L 582,32 L 582,34 L 581,36 L 581,37 L 579,38 L 578,38 L 577,37 L 575,37 L 575,40 L 574,42 L 574,44 L 573,46 L 573,47 L 573,48 L 572,49 L 571,51 L 569,54 L 569,56 L 567,60 L 567,61 L 565,61 L 564,61 L 563,62 L 563,63 L 562,65 L 561,67 L 561,69 L 561,70 L 561,71 L 559,72 L 559,74 L 558,75 L 557,75 L 555,75 L 555,76 L 553,76 L 552,77 L 553,79 L 553,80 L 556,79 L 557,80 L 557,81 L 557,83 L 559,83 L 559,84 L 559,85 L 560,86 L 561,86 L 561,87 L 561,88 L 561,89 L 561,90 L 562,91 L 563,92 L 563,93 L 563,94 L 564,95 L 564,96 L 565,97 L 566,97 L 567,98 L 567,100 L 568,100 L 568,101 L 569,102 L 569,103 L 570,104 L 570,106 L 571,107 L 572,108 L 573,109 L 574,108 L 576,108 L 578,109 L 579,109 L 580,109 L 581,109 L 581,110 L 581,111 L 581,112 L 581,113 L 581,114 L 581,116 L 581,117 L 581,118 L 582,119 L 583,120 L 584,120 L 584,121 L 585,121 L 585,122 L 586,123 L 587,124 L 588,125 L 588,127 L 588,129 L 587,129 L 587,130 L 586,135 L 585,136 L 586,138 L 586,140 L 586,142 L 586,144 L 585,147 L 585,148 L 584,150 L 581,150 L 581,151 L 581,154 L 583,156 L 584,157 L 584,158 L 584,160 L 584,162 L 584,163 L 584,164 L 584,166 L 584,168 L 584,169 L 585,170 L 587,171 L 588,173 L 589,174 L 589,177 L 590,180 L 591,182 L 592,183 L 594,187 L 595,188 L 597,190 L 599,192 L 599,193 L 598,194 L 594,196 L 591,196 L 590,197 L 588,199 L 583,198 L 580,198 L 565,193 L 550,188 L 540,183 L 539,185 L 536,191 L 535,196 L 532,202 L 530,207 L 528,208 L 529,209 L 528,210 L 527,211 L 527,212 L 526,214 L 525,215 L 521,221 L 519,225 L 517,231 L 516,233 L 515,238 L 515,239 L 514,241 L 513,241 L 513,243 L 514,244 L 515,245 L 514,248 L 513,249 L 512,252 L 510,252 L 511,255 L 510,257 L 510,258 L 510,260 L 510,261 L 511,262 L 511,263 L 511,264 L 510,266 L 509,266 L 509,267 L 508,269 L 508,270 L 507,272 L 507,274 L 506,275 L 506,276 L 506,278 L 507,279 L 507,281 L 507,282 L 506,283 L 505,285 L 504,286 L 504,287 L 504,288 L 503,290 L 502,292 L 502,293 L 502,294 L 502,296 L 501,298 L 501,299 L 500,300 L 500,301 L 500,302 L 500,303 L 499,304 L 499,306 L 498,307 L 498,309 L 497,312 L 489,309 L 479,306 L 476,305 L 474,305 L 472,304 L 472,303 L 453,277 L 441,260 L 430,267 L 429,267 L 427,269 L 415,277 L 409,281 L 407,283 L 402,285 L 399,287 L 398,287 L 398,286 L 398,285 L 396,282 L 395,281 L 394,280 L 393,278 L 392,277 L 391,276 L 390,275 L 389,274 L 388,272 L 387,270 L 386,269 L 385,268 L 383,267 L 383,266 L 380,264 L 379,263 L 378,263 L 376,261 L 374,259 L 372,257 L 371,255 L 369,254 L 368,253 L 367,251 L 366,250 L 366,249 L 366,248 L 366,247 L 367,245 L 367,244 L 367,243 L 367,242 L 368,241 L 368,239 L 368,237 L 369,237 L 369,235 L 368,234 L 368,233 L 367,231 L 367,230 L 366,229 L 366,228 L 366,227 L 365,227 L 365,226 L 365,225 L 364,224 L 364,222 L 363,221 L 362,220 L 360,217 L 360,216 L 360,215 L 361,214 L 362,212 L 362,210 L 370,211 L 374,212 L 374,211 L 378,212 L 378,210 L 379,208 L 377,206 L 377,204 L 375,203 L 376,200 L 377,198 L 377,197 L 377,196 L 378,192 L 377,192 L 375,188 L 375,187 L 375,185 L 375,184 L 376,184 L 376,182 L 377,179 L 377,177 L 381,181 L 384,185 L 383,182 L 383,179 L 383,176 L 383,173 L 378,172 L 379,169 L 380,168 L 380,166 L 381,164 L 382,164 L 384,164 L 386,164 L 387,163 L 388,160 L 388,158 L 389,157 L 390,156 L 391,155 L 390,155 L 389,155 L 389,154 L 390,152 L 391,150 L 391,149 L 391,148 L 391,147 L 388,144 L 388,143 L 388,142 L 387,141 L 387,140 L 386,139 L 385,138 L 385,137 L 384,134 L 383,133 L 382,130 L 381,129 L 380,128 L 381,127 L 380,126 L 379,125 L 380,124 L 381,122 L 384,120 L 384,118 L 385,118 L 385,116 L 387,115 L 388,114 L 390,113 L 391,112 L 394,110 L 396,111 L 398,109 L 399,108 L 399,107 L 399,105 L 400,104 L 401,103 L 401,102 L 401,101 L 401,100 L 401,99 L 401,98 L 401,96 L 401,95 L 401,93 L 398,90 L 397,88 L 398,85 L 398,84 L 397,83 L 396,81 L 395,80 L 394,79 L 394,77 L 394,76 L 393,75 L 392,73 L 391,71 L 391,70 L 391,69 L 391,68 L 391,67 L 390,67 L 389,68 L 388,67 L 387,66 L 383,66 L 381,65 L 381,63 L 381,62 L 381,59 L 380,58 L 380,55 L 379,52 L 379,51 L 378,51 L 376,51 L 375,51 L 374,51 L 374,49 L 375,47 L 375,45 L 374,45 L 373,44 L 372,43 L 371,42 L 372,41 L 372,38 L 374,36 L 376,34 L 376,32 L 375,30 L 374,29 L 373,26 L 372,23 L 372,20 L 371,17 L 370,14 L 370,12 L 372,13 L 375,13 L 377,13 L 380,13 L 381,13 L 382,13 L 384,13 L 386,13 L 390,13 L 394,13 L 403,13 L 406,13 L 407,13 L 415,13 L 428,13 L 431,13 L 435,13 L 436,13 L 438,14 L 440,14 L 441,15 L 443,16 L 447,18 L 448,19 L 450,19 L 452,20 L 454,22 L 456,22 L 457,23 L 458,23 L 459,23 L 461,22 L 464,22 L 473,19 L 474,19 L 478,18 L 480,18 L 481,18 L 482,18 L 483,18 L 485,18 L 486,18 L 487,18 L 490,19 L 494,19 L 495,19 L 496,19 L 497,19 L 498,19 L 499,19 L 500,19 L 503,20 L 505,20 L 506,20 L 509,20 L 512,20 L 515,20 L 516,21 L 519,21 L 521,21 L 523,21 L 527,21 L 529,21 " class="svg-range1" data-original-title="&lt;b&gt;SUKAMISKIN&lt;/b&gt;&lt;br /&gt;118" title="" />
                </g>
            </g>
        </g>
        <g id="3273130_id2012__3273130005" inkscape:groupmode="layer" inkscape:label="3273130_id2012__3273130005">
            <g stroke="rgb(0,0,0)" fill="rgb(56,164,143)" stroke-linejoin="round" stroke-width="0.26">
                <g id="3273130_id2012__3273130005_1">
                    <path d="M 497,312 L 497,313 L 495,315 L 494,317 L 494,320 L 493,322 L 490,325 L 489,328 L 487,330 L 486,330 L 485,331 L 486,332 L 487,333 L 489,334 L 491,336 L 492,337 L 492,338 L 491,338 L 490,339 L 490,340 L 491,341 L 492,341 L 494,342 L 496,344 L 497,344 L 498,345 L 500,347 L 502,348 L 502,350 L 501,350 L 498,352 L 498,353 L 498,354 L 500,355 L 502,358 L 503,362 L 504,364 L 506,367 L 506,368 L 507,369 L 506,372 L 505,373 L 506,373 L 506,374 L 507,374 L 509,375 L 511,378 L 511,379 L 512,379 L 513,381 L 512,381 L 512,382 L 512,384 L 513,384 L 513,385 L 514,387 L 516,391 L 518,396 L 520,399 L 522,402 L 523,405 L 526,410 L 529,415 L 529,416 L 530,417 L 531,420 L 532,420 L 532,422 L 533,425 L 531,428 L 529,431 L 528,433 L 528,436 L 529,438 L 529,439 L 527,439 L 525,440 L 522,441 L 520,445 L 520,447 L 519,448 L 518,448 L 516,447 L 515,446 L 513,446 L 512,446 L 510,446 L 508,447 L 507,448 L 505,449 L 505,450 L 504,451 L 503,452 L 502,453 L 501,455 L 501,456 L 500,457 L 500,459 L 500,460 L 501,464 L 502,468 L 502,470 L 501,472 L 500,475 L 500,477 L 500,478 L 506,480 L 520,486 L 524,487 L 527,488 L 526,490 L 526,492 L 525,496 L 525,499 L 525,509 L 525,513 L 525,514 L 525,515 L 519,516 L 507,517 L 497,517 L 495,518 L 487,518 L 480,519 L 469,519 L 464,520 L 463,520 L 457,520 L 452,520 L 442,521 L 433,521 L 428,522 L 412,523 L 411,519 L 411,516 L 409,512 L 408,509 L 408,507 L 407,506 L 406,504 L 406,503 L 405,499 L 404,497 L 403,494 L 402,492 L 401,490 L 399,487 L 397,483 L 396,482 L 395,481 L 394,480 L 392,479 L 391,477 L 389,475 L 387,474 L 385,472 L 384,469 L 383,468 L 378,459 L 377,458 L 375,454 L 375,453 L 373,450 L 373,449 L 372,449 L 372,447 L 371,447 L 371,446 L 370,445 L 369,443 L 368,440 L 367,439 L 367,438 L 367,437 L 367,436 L 367,435 L 368,433 L 368,432 L 369,431 L 369,429 L 370,427 L 370,425 L 370,421 L 370,419 L 370,418 L 369,416 L 368,414 L 368,413 L 367,411 L 366,409 L 365,408 L 363,406 L 359,402 L 360,399 L 361,398 L 361,397 L 362,396 L 363,396 L 369,396 L 373,396 L 376,396 L 379,396 L 381,396 L 383,397 L 384,396 L 385,395 L 385,394 L 385,392 L 386,391 L 386,390 L 386,388 L 386,387 L 386,385 L 386,384 L 390,384 L 390,383 L 390,382 L 390,381 L 389,379 L 389,377 L 387,373 L 386,371 L 386,365 L 386,361 L 385,359 L 386,355 L 386,354 L 387,350 L 387,349 L 387,347 L 387,345 L 386,343 L 386,342 L 386,341 L 391,336 L 392,335 L 391,334 L 389,333 L 387,333 L 382,332 L 382,330 L 377,329 L 377,328 L 377,326 L 377,325 L 377,323 L 374,322 L 374,318 L 380,316 L 381,312 L 382,308 L 384,306 L 383,304 L 384,303 L 384,302 L 385,299 L 389,297 L 389,296 L 392,295 L 392,294 L 393,293 L 396,291 L 400,290 L 399,289 L 399,287 L 402,285 L 407,283 L 409,281 L 415,277 L 427,269 L 429,267 L 430,267 L 441,260 L 453,277 L 472,303 L 472,304 L 474,305 L 476,305 L 479,306 L 489,309 L 497,312 " class="svg-range3" data-original-title="&lt;b&gt;CISARANTEN ENDAH&lt;/b&gt;&lt;br /&gt;191" title="" />
                </g>
            </g>
        </g>
        <g id="3273130_id2012__3273130001" inkscape:groupmode="layer" inkscape:label="3273130_id2012__3273130001">
            <g stroke="rgb(0,0,0)" fill="rgb(151,30,47)" stroke-linejoin="round" stroke-width="0.26">
                <g id="3273130_id2012__3273130001_1">
                    <path d="M 660,227 L 660,228 L 660,229 L 660,230 L 659,230 L 657,230 L 656,230 L 655,230 L 655,231 L 654,231 L 653,231 L 652,232 L 651,232 L 651,233 L 650,233 L 650,234 L 650,235 L 650,236 L 651,237 L 653,240 L 655,240 L 656,240 L 657,242 L 659,244 L 659,246 L 659,247 L 660,247 L 661,248 L 662,249 L 662,250 L 662,251 L 661,252 L 660,252 L 658,252 L 656,253 L 655,254 L 654,255 L 654,256 L 654,257 L 654,258 L 656,259 L 655,261 L 654,261 L 653,262 L 651,263 L 652,264 L 653,265 L 653,266 L 654,266 L 655,267 L 656,268 L 656,269 L 655,269 L 653,273 L 653,274 L 653,275 L 654,276 L 655,276 L 657,278 L 658,279 L 659,279 L 661,279 L 663,279 L 664,280 L 665,280 L 666,281 L 667,281 L 667,282 L 667,283 L 666,284 L 665,284 L 664,285 L 663,285 L 663,286 L 662,286 L 661,287 L 660,287 L 658,288 L 657,289 L 654,297 L 653,298 L 652,300 L 651,300 L 650,302 L 650,303 L 649,303 L 648,303 L 646,301 L 645,300 L 644,300 L 643,299 L 643,298 L 642,298 L 641,298 L 641,299 L 640,301 L 640,302 L 641,308 L 642,309 L 642,310 L 643,312 L 643,313 L 644,315 L 645,318 L 646,320 L 646,321 L 647,322 L 648,322 L 650,322 L 652,322 L 654,323 L 655,323 L 656,324 L 657,325 L 659,325 L 661,326 L 660,328 L 659,329 L 658,332 L 656,337 L 656,339 L 656,340 L 656,341 L 656,342 L 655,343 L 654,345 L 653,345 L 652,346 L 650,346 L 649,346 L 648,345 L 646,344 L 645,344 L 644,344 L 643,344 L 643,345 L 642,346 L 642,348 L 642,349 L 642,350 L 644,351 L 644,352 L 644,354 L 643,354 L 640,355 L 639,356 L 638,356 L 637,356 L 634,356 L 633,357 L 632,357 L 631,357 L 631,358 L 631,359 L 630,360 L 629,360 L 627,360 L 626,360 L 625,361 L 625,364 L 625,366 L 624,368 L 624,369 L 623,370 L 623,371 L 622,373 L 621,373 L 620,373 L 618,373 L 617,374 L 616,376 L 615,377 L 614,378 L 614,379 L 613,380 L 613,381 L 612,381 L 611,383 L 609,385 L 607,387 L 605,389 L 605,390 L 604,390 L 603,391 L 601,392 L 599,393 L 598,393 L 597,393 L 597,394 L 596,395 L 595,396 L 595,397 L 595,398 L 596,405 L 596,406 L 595,407 L 593,408 L 592,409 L 592,410 L 592,411 L 592,412 L 590,413 L 590,414 L 588,415 L 588,416 L 587,417 L 586,417 L 585,417 L 584,418 L 584,422 L 584,425 L 585,426 L 586,426 L 587,427 L 588,427 L 589,429 L 589,431 L 589,432 L 589,433 L 588,434 L 587,435 L 586,436 L 585,438 L 585,439 L 585,440 L 584,443 L 585,443 L 586,443 L 587,443 L 588,443 L 589,443 L 590,445 L 590,446 L 590,447 L 590,449 L 590,450 L 592,450 L 594,450 L 594,451 L 596,454 L 597,455 L 597,456 L 598,458 L 599,459 L 599,460 L 600,460 L 600,461 L 600,462 L 601,462 L 601,463 L 601,466 L 601,472 L 602,473 L 602,474 L 603,474 L 603,475 L 603,477 L 603,478 L 604,479 L 604,483 L 605,483 L 605,484 L 606,487 L 606,488 L 606,492 L 606,494 L 607,497 L 608,498 L 609,501 L 608,502 L 608,503 L 609,504 L 610,505 L 611,505 L 612,505 L 612,506 L 612,507 L 611,508 L 611,509 L 610,510 L 608,510 L 607,510 L 606,510 L 604,510 L 602,510 L 601,510 L 600,510 L 598,510 L 593,510 L 590,511 L 586,511 L 580,511 L 578,511 L 569,512 L 564,512 L 563,512 L 562,512 L 561,512 L 560,513 L 558,513 L 552,513 L 546,514 L 545,514 L 537,515 L 533,515 L 525,515 L 525,514 L 525,513 L 525,509 L 525,499 L 525,496 L 526,492 L 526,490 L 527,488 L 524,487 L 520,486 L 506,480 L 500,478 L 500,477 L 500,475 L 501,472 L 502,470 L 502,468 L 501,464 L 500,460 L 500,459 L 500,457 L 501,456 L 501,455 L 502,453 L 503,452 L 504,451 L 505,450 L 505,449 L 507,448 L 508,447 L 510,446 L 512,446 L 513,446 L 515,446 L 516,447 L 518,448 L 519,448 L 520,447 L 520,445 L 522,441 L 525,440 L 527,439 L 529,439 L 529,438 L 528,436 L 528,433 L 529,431 L 531,428 L 533,425 L 532,422 L 532,420 L 531,420 L 530,417 L 529,416 L 529,415 L 526,410 L 523,405 L 522,402 L 520,399 L 518,396 L 516,391 L 514,387 L 513,385 L 513,384 L 512,384 L 512,382 L 512,381 L 513,381 L 512,379 L 511,379 L 511,378 L 509,375 L 507,374 L 506,374 L 506,373 L 505,373 L 506,372 L 507,369 L 506,368 L 506,367 L 504,364 L 503,362 L 502,358 L 500,355 L 498,354 L 498,353 L 498,352 L 501,350 L 502,350 L 502,348 L 500,347 L 498,345 L 497,344 L 496,344 L 494,342 L 492,341 L 491,341 L 490,340 L 490,339 L 491,338 L 492,338 L 492,337 L 491,336 L 489,334 L 487,333 L 486,332 L 485,331 L 486,330 L 487,330 L 489,328 L 490,325 L 493,322 L 494,320 L 494,317 L 495,315 L 497,313 L 497,312 L 498,309 L 498,307 L 499,306 L 499,304 L 500,303 L 500,302 L 500,301 L 500,300 L 501,299 L 501,298 L 502,296 L 502,294 L 502,293 L 502,292 L 503,290 L 504,288 L 504,287 L 504,286 L 505,285 L 506,283 L 507,282 L 507,281 L 507,279 L 506,278 L 506,276 L 506,275 L 507,274 L 507,272 L 508,270 L 508,269 L 509,267 L 509,266 L 510,266 L 511,264 L 511,263 L 511,262 L 510,261 L 510,260 L 510,258 L 510,257 L 511,255 L 510,252 L 512,252 L 513,249 L 514,248 L 515,245 L 514,244 L 513,243 L 513,241 L 514,241 L 515,239 L 515,238 L 516,233 L 517,231 L 519,225 L 521,221 L 525,215 L 526,214 L 527,212 L 527,211 L 528,210 L 529,209 L 528,208 L 530,207 L 532,202 L 535,196 L 536,191 L 539,185 L 540,183 L 550,188 L 565,193 L 580,198 L 583,198 L 588,199 L 590,197 L 591,196 L 594,196 L 598,194 L 599,193 L 599,192 L 601,191 L 603,190 L 604,189 L 604,188 L 604,187 L 605,186 L 605,185 L 605,184 L 606,184 L 607,184 L 607,185 L 608,185 L 608,186 L 609,186 L 610,186 L 611,186 L 612,186 L 613,185 L 614,185 L 616,185 L 617,182 L 618,181 L 616,181 L 617,178 L 618,177 L 619,175 L 619,174 L 621,173 L 621,171 L 623,171 L 624,171 L 627,174 L 628,174 L 628,175 L 629,176 L 626,181 L 629,183 L 630,183 L 632,183 L 636,185 L 638,186 L 638,187 L 639,189 L 639,190 L 640,190 L 641,190 L 644,191 L 645,191 L 646,192 L 647,192 L 648,193 L 649,194 L 649,196 L 649,197 L 650,200 L 654,202 L 655,203 L 656,203 L 657,204 L 659,205 L 661,206 L 662,207 L 664,207 L 665,208 L 666,209 L 667,211 L 666,213 L 663,215 L 661,218 L 661,219 L 660,222 L 660,223 L 660,225 L 660,227 " class="svg-range3" data-original-title="&lt;b&gt;CISARANTEN KULON&lt;/b&gt;&lt;br /&gt;204" title="" />
                </g>
            </g>
        </g>
    </svg>
</svg>