<svg id="svg-map" width="null" height="null" xmlns="http://www.w3.org/2000/svg" style="animation-delay: 0s; animation-direction: normal; animation-duration: 0s; animation-fill-mode: none; animation-iteration-count: 1; animation-name: none; animation-play-state: running; animation-timing-function: ease; background-attachment: scroll; background-blend-mode: normal; background-clip: border-box; background-color: rgba(0, 0, 0, 0); background-image: none; background-origin: padding-box; background-position: 0% 0%; background-repeat: repeat; background-size: auto; border-bottom-color: rgb(255, 255, 255); border-bottom-left-radius: 0px; border-bottom-right-radius: 0px; border-bottom-style: none; border-bottom-width: 0px; border-collapse: separate; border-image-outset: 0px; border-image-repeat: stretch; border-image-slice: 100%; border-image-source: none; border-image-width: 1; border-left-color: rgb(255, 255, 255); border-left-style: none; border-left-width: 0px; border-right-color: rgb(255, 255, 255); border-right-style: none; border-right-width: 0px; border-top-color: rgb(255, 255, 255); border-top-left-radius: 0px; border-top-right-radius: 0px; border-top-style: none; border-top-width: 0px; bottom: auto; box-shadow: none; box-sizing: border-box; break-after: auto; break-before: auto; break-inside: auto; caption-side: top; clear: none; clip: auto; color: rgb(255, 255, 255); content: ; cursor: auto; direction: ltr; display: inline; empty-cells: show; float: none; font-family: &quot;Open Sans&quot;, sans-serif; font-kerning: auto; font-size: 13px; font-stretch: normal; font-style: normal; font-variant: normal; font-variant-ligatures: normal; font-variant-caps: normal; font-variant-numeric: normal; font-weight: normal; height: 303.953px; image-rendering: auto; isolation: auto; left: auto; letter-spacing: normal; line-height: 18.5714px; list-style-image: none; list-style-position: outside; list-style-type: disc; margin-bottom: 0px; margin-left: 0px; margin-right: 0px; margin-top: 0px; max-height: 400px; max-width: none; min-height: 0px; min-width: 0px; mix-blend-mode: normal; motion-offset: 0px; motion-path: none; motion-rotation: auto 0deg; object-fit: fill; object-position: 50% 50%; opacity: 1; orphans: 2; outline-color: rgb(255, 255, 255); outline-offset: 0px; outline-style: none; outline-width: 0px; overflow-wrap: normal; overflow-x: hidden; overflow-y: hidden; padding-bottom: 0px; padding-left: 0px; padding-right: 0px; padding-top: 0px; pointer-events: auto; position: static; resize: none; right: auto; speak: normal; table-layout: auto; tab-size: 8; text-align: center; text-align-last: auto; text-decoration: none; text-indent: 0px; text-rendering: auto; text-shadow: none; text-size-adjust: 100%; text-overflow: clip; text-transform: none; top: auto; touch-action: auto; transition-delay: 0s; transition-duration: 0s; transition-property: all; transition-timing-function: ease; unicode-bidi: normal; vertical-align: baseline; visibility: visible; white-space: normal; widows: 2; width: 617.5px; will-change: auto; word-break: normal; word-spacing: 0px; word-wrap: normal; z-index: auto; zoom: 1; -webkit-appearance: none; backface-visibility: visible; -webkit-background-clip: border-box; -webkit-background-origin: padding-box; -webkit-border-horizontal-spacing: 0px; -webkit-border-image: none; -webkit-border-vertical-spacing: 0px; -webkit-box-align: stretch; -webkit-box-decoration-break: slice; -webkit-box-direction: normal; -webkit-box-flex: 0; -webkit-box-flex-group: 1; -webkit-box-lines: single; -webkit-box-ordinal-group: 1; -webkit-box-orient: horizontal; -webkit-box-pack: start; -webkit-box-reflect: none; -webkit-clip-path: none; column-count: auto; column-gap: normal; column-rule-color: rgb(255, 255, 255); column-rule-style: none; column-rule-width: 0px; column-span: none; column-width: auto; align-content: stretch; align-items: stretch; align-self: stretch; flex-basis: auto; flex-grow: 0; flex-shrink: 1; flex-direction: row; flex-wrap: nowrap; justify-content: flex-start; -webkit-font-smoothing: auto; -webkit-highlight: none; -webkit-hyphenate-character: auto; -webkit-line-break: auto; -webkit-line-clamp: none; -webkit-locale: &quot;en&quot;; -webkit-margin-before-collapse: collapse; -webkit-margin-after-collapse: collapse; -webkit-mask-box-image: none; -webkit-mask-box-image-outset: 0px; -webkit-mask-box-image-repeat: stretch; -webkit-mask-box-image-slice: 0 fill; -webkit-mask-box-image-source: none; -webkit-mask-box-image-width: auto; -webkit-mask-clip: border-box; -webkit-mask-composite: source-over; -webkit-mask-image: none; -webkit-mask-origin: border-box; -webkit-mask-position: 0% 0%; -webkit-mask-repeat: repeat; -webkit-mask-size: auto; order: 0; perspective: none; perspective-origin: 308.75px 151.969px; -webkit-print-color-adjust: economy; -webkit-rtl-ordering: logical; shape-outside: none; shape-image-threshold: 0; shape-margin: 0px; -webkit-tap-highlight-color: rgba(0, 0, 0, 0); -webkit-text-combine: none; -webkit-text-decorations-in-effect: none; -webkit-text-emphasis-color: rgb(255, 255, 255); -webkit-text-emphasis-position: over; -webkit-text-emphasis-style: none; -webkit-text-fill-color: rgb(255, 255, 255); -webkit-text-orientation: vertical-right; -webkit-text-security: none; -webkit-text-stroke-color: rgb(255, 255, 255); -webkit-text-stroke-width: 0px; transform: none; transform-origin: 308.75px 151.969px; transform-style: flat; -webkit-user-drag: auto; -webkit-user-modify: read-only; user-select: text; -webkit-writing-mode: horizontal-tb; -webkit-app-region: no-drag; buffered-rendering: auto; clip-path: none; clip-rule: nonzero; mask: none; filter: none; flood-color: rgb(0, 0, 0); flood-opacity: 1; lighting-color: rgb(255, 255, 255); stop-color: rgb(0, 0, 0); stop-opacity: 1; color-interpolation: sRGB; color-interpolation-filters: linearRGB; color-rendering: auto; fill: rgb(0, 0, 0); fill-opacity: 1; fill-rule: nonzero; marker-end: none; marker-mid: none; marker-start: none; mask-type: luminance; shape-rendering: auto; stroke: none; stroke-dasharray: none; stroke-dashoffset: 0px; stroke-linecap: butt; stroke-linejoin: miter; stroke-miterlimit: 4; stroke-opacity: 1; stroke-width: 1px; alignment-baseline: auto; baseline-shift: 0px; dominant-baseline: auto; text-anchor: start; writing-mode: horizontal-tb; vector-effect: none; paint-order: fill stroke markers; d: none; cx: 0px; cy: 0px; x: 0px; y: 0px; r: 0px; rx: auto; ry: auto;" version="1.1" xmlns:xlink="http://www.w3.org/1999/xlink">
    <style type="text/css">
        svg:not(:root) {
            overflow: hidden;
        }
        * {
            box-sizing: border-box;
        }
        * {
            font-size: 13px;
        }
        svg {
            max-height: 100vh;
            border: none !important;
        }
        #svg-map svg {
            max-height: 400px;
        }
        #svg-map svg path {
            fill: rgb(153, 196, 176);
            stroke: rgb(51, 51, 51);
            stroke-width: 1;
        }
        #svg-map svg path.svg-range1 {
            fill: rgb(194, 223, 115);
        }
        #svg-map svg path.svg-range3 {
            fill: rgb(189, 170, 83);
        }
        #svg-map svg path.svg-range5 {
            fill: rgb(175, 96, 68);
        }
    </style>
    <svg xmlns="http://www.w3.org/2000/svg" xmlns:inkscape="http://www.inkscape.org/namespaces/inkscape" xmlns:xlink="http://www.w3.org/1999/xlink" viewBox="0 0 1097 540" version="1.1">
        <!-- svg generated using QGIS www.qgis.org -->
        <g id="3273180_id2012__3273180004" inkscape:groupmode="layer" inkscape:label="3273180_id2012__3273180004">
            <g stroke="rgb(0,0,0)" fill="rgb(152,39,156)" stroke-linejoin="round" stroke-width="0.26">
                <g id="3273180_id2012__3273180004_1">
                    <path d="M 568,351 L 566,354 L 564,359 L 561,367 L 557,376 L 556,381 L 555,382 L 555,383 L 553,391 L 552,393 L 551,398 L 550,399 L 558,401 L 560,402 L 565,403 L 566,403 L 568,403 L 569,404 L 570,404 L 569,408 L 566,422 L 567,423 L 568,423 L 573,425 L 578,426 L 579,427 L 583,428 L 589,430 L 595,432 L 597,433 L 597,441 L 597,447 L 596,453 L 596,454 L 596,455 L 596,457 L 596,463 L 596,468 L 596,471 L 595,477 L 595,483 L 589,483 L 585,482 L 584,482 L 578,481 L 576,481 L 575,481 L 572,481 L 567,480 L 563,480 L 559,479 L 555,479 L 541,477 L 539,477 L 537,477 L 527,475 L 522,474 L 521,474 L 520,474 L 513,473 L 487,470 L 474,468 L 473,468 L 470,468 L 464,467 L 461,466 L 459,466 L 457,466 L 451,466 L 452,460 L 453,457 L 453,455 L 453,454 L 454,448 L 456,442 L 456,440 L 463,410 L 464,405 L 465,401 L 466,398 L 467,392 L 468,386 L 470,380 L 471,375 L 471,374 L 472,369 L 473,366 L 477,349 L 480,337 L 480,336 L 482,328 L 483,321 L 483,319 L 485,313 L 486,311 L 487,310 L 489,305 L 492,300 L 493,301 L 494,301 L 495,302 L 500,305 L 503,307 L 508,310 L 511,313 L 512,313 L 515,316 L 516,316 L 517,317 L 518,318 L 519,318 L 521,320 L 526,323 L 527,323 L 532,327 L 533,327 L 533,328 L 534,328 L 538,331 L 541,333 L 544,335 L 545,336 L 546,336 L 547,337 L 548,338 L 549,338 L 555,342 L 557,343 L 557,344 L 558,344 L 560,346 L 564,348 L 565,349 L 566,349 L 568,351 " class="svg-range5" data-original-title="&lt;b&gt;DUNGUS CARIANG&lt;/b&gt;&lt;br /&gt;219" title="" />
                </g>
            </g>
        </g>
        <g id="3273180_id2012__3273180005" inkscape:groupmode="layer" inkscape:label="3273180_id2012__3273180005">
            <g stroke="rgb(0,0,0)" fill="rgb(229,220,135)" stroke-linejoin="round" stroke-width="0.26">
                <g id="3273180_id2012__3273180005_1">
                    <path d="M 665,401 L 666,401 L 667,401 L 668,402 L 675,403 L 682,403 L 688,404 L 689,404 L 690,404 L 698,404 L 699,404 L 701,404 L 703,404 L 708,404 L 709,404 L 716,404 L 719,404 L 724,405 L 730,405 L 731,405 L 732,405 L 732,407 L 732,409 L 732,410 L 730,410 L 730,411 L 729,412 L 727,418 L 726,421 L 726,423 L 726,425 L 725,427 L 729,430 L 729,435 L 733,438 L 735,440 L 736,440 L 737,441 L 738,443 L 738,446 L 739,448 L 739,452 L 738,459 L 738,460 L 736,473 L 735,477 L 735,478 L 735,482 L 734,488 L 734,489 L 733,495 L 733,499 L 720,499 L 702,496 L 701,496 L 699,496 L 696,496 L 688,495 L 686,495 L 684,494 L 679,494 L 672,493 L 668,492 L 664,492 L 658,491 L 651,490 L 647,490 L 643,489 L 642,489 L 638,489 L 634,488 L 628,487 L 627,487 L 624,487 L 620,487 L 618,486 L 614,486 L 612,486 L 609,485 L 598,483 L 595,483 L 595,477 L 596,471 L 596,468 L 596,463 L 596,457 L 596,455 L 596,454 L 596,453 L 597,447 L 597,441 L 597,433 L 595,432 L 589,430 L 583,428 L 579,427 L 578,426 L 573,425 L 568,423 L 567,423 L 566,422 L 569,408 L 570,404 L 569,404 L 568,403 L 566,403 L 565,403 L 560,402 L 558,401 L 550,399 L 551,398 L 552,393 L 553,391 L 555,383 L 555,382 L 556,381 L 557,376 L 561,367 L 564,359 L 566,354 L 568,351 L 569,351 L 569,352 L 571,353 L 579,358 L 581,359 L 584,361 L 585,362 L 587,364 L 589,364 L 592,366 L 598,371 L 606,376 L 610,379 L 611,380 L 613,381 L 621,385 L 624,387 L 628,389 L 629,389 L 631,390 L 632,390 L 633,391 L 635,391 L 641,394 L 642,394 L 648,397 L 656,399 L 662,400 L 665,401 " class="svg-range5" data-original-title="&lt;b&gt;CIROYOM&lt;/b&gt;&lt;br /&gt;252" title="" />
                </g>
            </g>
        </g>
        <g id="3273180_id2012__3273180006" inkscape:groupmode="layer" inkscape:label="3273180_id2012__3273180006">
            <g stroke="rgb(0,0,0)" fill="rgb(141,226,179)" stroke-linejoin="round" stroke-width="0.26">
                <g id="3273180_id2012__3273180006_1">
                    <path d="M 823,410 L 825,410 L 827,410 L 829,411 L 832,411 L 838,411 L 839,411 L 841,411 L 842,411 L 847,411 L 851,411 L 854,411 L 860,411 L 868,411 L 876,411 L 879,411 L 886,411 L 889,411 L 894,412 L 896,412 L 898,412 L 902,412 L 904,412 L 916,413 L 918,413 L 920,413 L 922,414 L 929,414 L 931,415 L 933,415 L 934,415 L 934,416 L 934,417 L 934,418 L 934,419 L 934,420 L 934,421 L 934,422 L 934,423 L 934,426 L 934,428 L 934,430 L 934,435 L 934,436 L 933,437 L 933,438 L 933,439 L 933,441 L 933,442 L 933,443 L 933,444 L 932,445 L 932,447 L 932,454 L 932,455 L 931,456 L 931,458 L 931,459 L 931,460 L 931,461 L 931,462 L 931,463 L 931,465 L 930,471 L 930,476 L 930,477 L 930,479 L 929,484 L 929,487 L 929,488 L 929,492 L 929,495 L 929,496 L 928,498 L 928,500 L 928,501 L 928,503 L 928,505 L 928,508 L 927,513 L 927,523 L 914,521 L 903,520 L 900,520 L 896,519 L 894,519 L 892,519 L 888,518 L 885,518 L 883,518 L 878,517 L 876,517 L 871,517 L 869,516 L 868,516 L 862,516 L 851,514 L 842,513 L 831,512 L 830,512 L 827,511 L 825,511 L 821,510 L 812,509 L 810,509 L 807,509 L 803,508 L 797,507 L 795,507 L 786,506 L 784,506 L 781,506 L 780,505 L 779,505 L 775,505 L 771,505 L 768,504 L 764,504 L 751,502 L 746,501 L 733,499 L 733,495 L 734,489 L 734,488 L 735,482 L 735,478 L 735,477 L 736,473 L 738,460 L 738,459 L 739,452 L 739,448 L 738,446 L 738,443 L 737,441 L 736,440 L 735,440 L 733,438 L 729,435 L 729,430 L 725,427 L 726,425 L 726,423 L 726,421 L 727,418 L 729,412 L 730,411 L 730,410 L 732,410 L 732,409 L 732,407 L 732,405 L 737,405 L 741,405 L 743,405 L 758,408 L 765,409 L 771,410 L 773,410 L 775,410 L 782,410 L 789,410 L 791,410 L 795,410 L 797,410 L 815,410 L 819,410 L 822,410 L 823,410 " class="svg-range1" data-original-title="&lt;b&gt;KEBON JERUK&lt;/b&gt;&lt;br /&gt;72" title="" />
                </g>
            </g>
        </g>
        <g id="3273180_id2012__3273180001" inkscape:groupmode="layer" inkscape:label="3273180_id2012__3273180001">
            <g stroke="rgb(0,0,0)" fill="rgb(132,150,42)" stroke-linejoin="round" stroke-width="0.26">
                <g id="3273180_id2012__3273180001_1">
                    <path d="M 309,104 L 309,105 L 309,106 L 309,107 L 308,108 L 307,108 L 305,113 L 303,114 L 302,117 L 299,120 L 297,124 L 296,127 L 295,129 L 292,133 L 291,135 L 291,136 L 290,138 L 290,139 L 289,141 L 289,142 L 289,143 L 288,144 L 287,145 L 287,146 L 283,152 L 281,154 L 279,158 L 280,158 L 280,159 L 281,159 L 282,160 L 283,161 L 284,162 L 290,165 L 304,175 L 309,179 L 314,182 L 317,184 L 319,186 L 320,186 L 321,187 L 322,187 L 324,189 L 329,192 L 332,194 L 337,197 L 341,200 L 342,201 L 347,203 L 347,204 L 348,204 L 348,205 L 349,205 L 348,207 L 348,208 L 350,209 L 354,212 L 356,213 L 356,214 L 355,215 L 354,216 L 352,218 L 350,221 L 348,226 L 347,227 L 346,229 L 345,231 L 344,232 L 344,233 L 344,234 L 343,235 L 344,236 L 344,237 L 344,238 L 343,239 L 342,240 L 342,241 L 341,242 L 341,243 L 341,244 L 341,245 L 340,247 L 340,249 L 340,250 L 340,251 L 339,254 L 338,257 L 338,259 L 337,263 L 337,264 L 337,265 L 337,266 L 337,267 L 336,270 L 336,271 L 337,272 L 337,275 L 335,278 L 335,279 L 335,281 L 335,283 L 333,285 L 332,285 L 331,290 L 330,295 L 329,299 L 328,300 L 328,301 L 328,302 L 327,306 L 327,307 L 326,309 L 325,310 L 325,312 L 324,313 L 323,314 L 323,316 L 322,317 L 323,320 L 322,321 L 322,322 L 322,323 L 321,324 L 321,325 L 321,326 L 320,327 L 319,329 L 318,330 L 318,331 L 317,331 L 317,332 L 315,333 L 313,336 L 312,335 L 310,331 L 306,326 L 306,325 L 305,323 L 304,321 L 301,318 L 300,315 L 297,311 L 294,307 L 293,304 L 291,301 L 289,299 L 287,294 L 281,285 L 278,280 L 276,276 L 274,273 L 272,271 L 270,267 L 267,263 L 265,259 L 260,250 L 259,250 L 258,247 L 252,239 L 248,232 L 245,227 L 243,223 L 241,221 L 230,201 L 229,200 L 228,197 L 226,194 L 224,190 L 218,179 L 214,173 L 205,156 L 199,147 L 198,146 L 196,143 L 196,142 L 195,141 L 195,140 L 193,137 L 192,137 L 191,134 L 189,131 L 187,128 L 184,122 L 170,101 L 169,99 L 167,97 L 162,88 L 158,82 L 158,81 L 159,81 L 161,81 L 164,82 L 164,83 L 165,83 L 173,89 L 174,90 L 175,90 L 176,91 L 178,92 L 179,92 L 180,93 L 182,94 L 183,95 L 185,96 L 185,97 L 186,97 L 189,99 L 191,100 L 192,101 L 194,102 L 198,104 L 199,105 L 200,106 L 202,107 L 206,109 L 208,110 L 209,111 L 210,109 L 212,106 L 213,106 L 215,106 L 217,107 L 222,109 L 224,108 L 227,107 L 228,105 L 233,102 L 233,100 L 234,100 L 235,99 L 237,98 L 238,96 L 240,93 L 240,91 L 241,89 L 242,87 L 243,84 L 244,82 L 245,81 L 246,79 L 246,77 L 246,76 L 245,75 L 246,74 L 240,68 L 237,66 L 235,65 L 234,64 L 233,63 L 232,62 L 231,61 L 229,59 L 228,58 L 228,57 L 228,56 L 229,54 L 230,52 L 231,50 L 232,48 L 233,47 L 235,46 L 236,46 L 237,46 L 238,45 L 239,43 L 242,42 L 245,37 L 245,36 L 246,34 L 248,31 L 246,28 L 243,27 L 242,27 L 240,26 L 243,17 L 244,12 L 250,15 L 251,15 L 255,16 L 259,18 L 260,18 L 261,19 L 264,19 L 266,19 L 268,19 L 270,19 L 273,20 L 276,22 L 277,23 L 279,25 L 280,27 L 281,28 L 281,29 L 279,33 L 280,36 L 282,38 L 283,40 L 285,42 L 286,43 L 290,46 L 291,47 L 293,49 L 294,50 L 296,51 L 296,52 L 297,53 L 297,54 L 296,57 L 295,58 L 295,59 L 295,61 L 295,62 L 297,64 L 298,65 L 298,66 L 299,68 L 300,69 L 301,72 L 301,75 L 301,77 L 302,79 L 303,81 L 304,83 L 304,84 L 304,86 L 304,87 L 305,88 L 305,89 L 305,90 L 305,91 L 306,91 L 307,92 L 308,93 L 308,94 L 308,96 L 308,97 L 307,98 L 308,99 L 308,100 L 309,102 L 309,104 " class="svg-range3" data-original-title="&lt;b&gt;CAMPAKA&lt;/b&gt;&lt;br /&gt;155" title="" />
                </g>
            </g>
        </g>
        <g id="3273180_id2012__3273180002" inkscape:groupmode="layer" inkscape:label="3273180_id2012__3273180002">
            <g stroke="rgb(0,0,0)" fill="rgb(225,218,116)" stroke-linejoin="round" stroke-width="0.26">
                <g id="3273180_id2012__3273180002_1">
                    <path d="M 423,254 L 420,259 L 419,261 L 418,265 L 417,267 L 415,270 L 414,272 L 418,274 L 417,276 L 416,278 L 415,281 L 409,279 L 406,286 L 405,287 L 403,292 L 402,295 L 402,297 L 402,300 L 402,301 L 403,302 L 397,317 L 392,328 L 390,333 L 391,333 L 393,334 L 395,335 L 398,336 L 401,338 L 409,341 L 419,345 L 426,347 L 438,352 L 441,353 L 440,356 L 439,358 L 438,361 L 443,363 L 441,368 L 440,371 L 439,373 L 437,377 L 433,375 L 432,376 L 429,378 L 426,386 L 426,387 L 422,395 L 420,400 L 415,399 L 413,398 L 411,400 L 409,404 L 408,408 L 405,414 L 404,417 L 403,419 L 402,420 L 401,423 L 401,424 L 396,422 L 393,422 L 391,424 L 388,427 L 385,428 L 385,430 L 384,431 L 384,432 L 381,433 L 380,433 L 378,436 L 376,438 L 375,437 L 374,436 L 374,435 L 372,434 L 372,433 L 371,433 L 370,431 L 369,430 L 368,429 L 365,424 L 363,420 L 363,419 L 360,416 L 359,415 L 358,411 L 353,402 L 352,401 L 350,398 L 349,396 L 348,394 L 346,391 L 344,387 L 337,377 L 334,371 L 332,368 L 331,366 L 330,365 L 324,355 L 323,353 L 320,348 L 319,346 L 318,344 L 316,341 L 314,338 L 313,336 L 315,333 L 317,332 L 317,331 L 318,331 L 318,330 L 319,329 L 320,327 L 321,326 L 321,325 L 321,324 L 322,323 L 322,322 L 322,321 L 323,320 L 322,317 L 323,316 L 323,314 L 324,313 L 325,312 L 325,310 L 326,309 L 327,307 L 327,306 L 328,302 L 328,301 L 328,300 L 329,299 L 330,295 L 331,290 L 332,285 L 333,285 L 335,283 L 335,281 L 335,279 L 335,278 L 337,275 L 337,272 L 336,271 L 336,270 L 337,267 L 337,266 L 337,265 L 337,264 L 337,263 L 338,259 L 338,257 L 339,254 L 340,251 L 340,250 L 340,249 L 340,247 L 341,245 L 341,244 L 341,243 L 341,242 L 342,241 L 342,240 L 343,239 L 344,238 L 344,237 L 344,236 L 343,235 L 344,234 L 344,233 L 344,232 L 345,231 L 346,229 L 347,227 L 348,226 L 350,221 L 352,218 L 354,216 L 355,215 L 356,214 L 356,213 L 354,212 L 350,209 L 348,208 L 348,207 L 349,205 L 350,206 L 351,207 L 355,209 L 356,210 L 360,212 L 361,213 L 364,215 L 365,216 L 366,216 L 366,217 L 372,220 L 374,222 L 380,225 L 386,229 L 387,230 L 388,231 L 389,232 L 390,232 L 393,234 L 394,235 L 395,235 L 396,236 L 397,237 L 398,237 L 400,239 L 402,240 L 403,241 L 410,246 L 413,248 L 415,248 L 418,251 L 419,251 L 421,252 L 422,253 L 423,254 " class="svg-range3" data-original-title="&lt;b&gt;MALEBER&lt;/b&gt;&lt;br /&gt;164" title="" />
                </g>
            </g>
        </g>
        <g id="3273180_id2012__3273180003" inkscape:groupmode="layer" inkscape:label="3273180_id2012__3273180003">
            <g stroke="rgb(0,0,0)" fill="rgb(84,120,227)" stroke-linejoin="round" stroke-width="0.26">
                <g id="3273180_id2012__3273180003_1">
                    <path d="M 492,300 L 489,305 L 487,310 L 486,311 L 485,313 L 483,319 L 483,321 L 482,328 L 480,336 L 480,337 L 477,349 L 473,366 L 472,369 L 471,374 L 471,375 L 470,380 L 468,386 L 467,392 L 466,398 L 465,401 L 464,405 L 463,410 L 456,440 L 456,442 L 454,448 L 453,454 L 453,455 L 453,457 L 452,460 L 451,466 L 446,465 L 442,464 L 435,464 L 432,463 L 430,463 L 427,463 L 426,463 L 418,461 L 415,460 L 410,459 L 406,459 L 399,457 L 389,449 L 389,448 L 382,442 L 379,441 L 377,439 L 376,438 L 378,436 L 380,433 L 381,433 L 384,432 L 384,431 L 385,430 L 385,428 L 388,427 L 391,424 L 393,422 L 396,422 L 401,424 L 401,423 L 402,420 L 403,419 L 404,417 L 405,414 L 408,408 L 409,404 L 411,400 L 413,398 L 415,399 L 420,400 L 422,395 L 426,387 L 426,386 L 429,378 L 432,376 L 433,375 L 437,377 L 439,373 L 440,371 L 441,368 L 443,363 L 438,361 L 439,358 L 440,356 L 441,353 L 438,352 L 426,347 L 419,345 L 409,341 L 401,338 L 398,336 L 395,335 L 393,334 L 391,333 L 390,333 L 392,328 L 397,317 L 403,302 L 402,301 L 402,300 L 402,297 L 402,295 L 403,292 L 405,287 L 406,286 L 409,279 L 415,281 L 416,278 L 417,276 L 418,274 L 414,272 L 415,270 L 417,267 L 418,265 L 419,261 L 420,259 L 423,254 L 425,255 L 426,256 L 434,261 L 441,266 L 446,270 L 447,271 L 449,271 L 450,273 L 453,274 L 454,275 L 455,276 L 457,277 L 459,278 L 462,280 L 466,283 L 467,283 L 470,285 L 471,286 L 475,288 L 477,290 L 483,294 L 484,294 L 488,297 L 489,298 L 491,299 L 492,300 " class="svg-range1" data-original-title="&lt;b&gt;GARUDA&lt;/b&gt;&lt;br /&gt;60" title="" />
                </g>
            </g>
        </g>
    </svg>
</svg>